<svg width="20" height="29" viewBox="0 0 20 29" fill="none" xmlns="http://www.w3.org/2000/svg">
<g clip-path="url(#clip0_14_227)">
<path d="M19.2656 5.54468L14.8958 0.792529C14.4271 0.282764 13.7917 -0.00610352 13.1302 -0.00610352H2.5C1.11979 -0.000439453 0 1.21733 0 2.71831V26.2808C0 27.7818 1.11979 28.9996 2.5 28.9996H17.5C18.8802 28.9996 20 27.7818 20 26.2808V7.47046C20 6.75112 19.7344 6.05444 19.2656 5.54468ZM17.2969 7.24956H13.3333V2.93921L17.2969 7.24956ZM2.5 26.2808V2.71831H10.8333V8.60894C10.8333 9.36226 11.3906 9.96831 12.0833 9.96831H17.5V26.2808H2.5ZM15.5313 18.1416C14.8958 17.4619 13.0833 17.6488 12.1771 17.7734C11.2812 17.1787 10.6823 16.3574 10.2604 15.1509C10.4635 14.239 10.7865 12.8513 10.5417 11.9791C10.3229 10.4951 8.57292 10.6423 8.32292 11.6449C8.09375 12.5568 8.30208 13.8255 8.6875 15.4455C8.16667 16.7992 7.39062 18.6173 6.84375 19.6595C5.80208 20.2429 4.39583 21.1435 4.1875 22.2763C4.01562 23.1712 5.54167 25.4029 8.15104 20.5091C9.31771 20.09 10.5885 19.5746 11.7135 19.3707C12.6979 19.9484 13.849 20.3335 14.6198 20.3335C15.9479 20.3335 16.0781 18.7363 15.5313 18.1416ZM5.21354 22.5482C5.47917 21.7722 6.48958 20.8773 6.79687 20.5658C5.80729 22.282 5.21354 22.5878 5.21354 22.5482ZM9.46354 11.7525C9.84896 11.7525 9.8125 13.5707 9.55729 14.0634C9.32812 13.2761 9.33333 11.7525 9.46354 11.7525ZM8.19271 19.4896C8.69792 18.5324 9.13021 17.3939 9.47917 16.3914C9.91146 17.2466 10.4635 17.932 11.0469 18.4021C9.96354 18.6457 9.02083 19.1441 8.19271 19.4896ZM15.0469 19.2064C15.0469 19.2064 14.7865 19.5462 13.1042 18.7646C14.9323 18.6173 15.2344 19.0705 15.0469 19.2064Z" fill="#DCE1D6"/>
</g>
<defs>
<clipPath id="clip0_14_227">
<rect width="20" height="29" fill="white"/>
</clipPath>
</defs>
</svg>
