<?xml version="1.0" encoding="UTF-8" standalone="no"?>
<!DOCTYPE svg PUBLIC "-//W3C//DTD SVG 1.1//EN" "http://www.w3.org/Graphics/SVG/1.1/DTD/svg11.dtd">
<svg width="100%" height="100%" viewBox="0 0 1527 1976" version="1.1" xmlns="http://www.w3.org/2000/svg" xmlns:xlink="http://www.w3.org/1999/xlink" xml:space="preserve" xmlns:serif="http://www.serif.com/" style="fill-rule:evenodd;clip-rule:evenodd;stroke-linejoin:round;stroke-miterlimit:2;">
    <g transform="matrix(1,0,0,1,-3189.801965,-421.551191)">
        <g transform="matrix(4.166667,0,0,4.166667,4636.147083,1997.958333)">
            <path d="M0,-284.748C-6.83,-291.391 -15.312,-296.467 -24.77,-299.69C-22.764,-308.463 -20.081,-323.702 -20.081,-342.485C-20.081,-351.352 -23.491,-359.18 -29.942,-365.123C-46.751,-380.607 -80.041,-378.358 -83.781,-378.049C-90.361,-377.509 -95.251,-371.742 -94.72,-365.161C-94.188,-358.581 -88.438,-353.678 -81.838,-354.194C-70.96,-355.055 -52.686,-353.552 -46.147,-347.51C-44.633,-346.11 -44.015,-344.654 -44.015,-342.485C-44.015,-324.852 -46.735,-310.746 -48.412,-303.724C-70.738,-304.206 -93.237,-296.504 -109.53,-282.614C-124.119,-270.176 -132.571,-254.084 -133.97,-236.078C-138.992,-171.473 -166.997,-107.025 -217.207,-44.523C-260.023,8.775 -309.187,48.874 -342.441,74.399C-346.586,77.579 -348.187,83.08 -346.399,87.988C-344.672,92.73 -340.167,95.859 -335.159,95.859C-334.982,95.859 -334.805,95.855 -334.627,95.847C-233.694,91.388 -150.373,23.686 -98.248,-32.324C-58.637,-74.89 -23.074,-126.221 -0.68,-173.156C12.837,-201.5 19.357,-222.243 19.254,-236.58C19.096,-255.994 12.438,-272.649 0,-284.748M-22.282,-183.46C-43.672,-138.632 -77.746,-89.488 -115.77,-48.629C-183.034,23.649 -245.052,54.272 -293.452,65.881C-263.97,41.207 -229.728,9.278 -198.548,-29.534C-145.266,-95.86 -115.511,-164.727 -110.108,-234.223C-108.977,-248.781 -100.726,-258.669 -94.003,-264.4C-82.462,-274.238 -66.53,-279.823 -50.502,-279.823C-48.656,-279.823 -46.809,-279.749 -44.967,-279.599C-25.647,-278.024 -4.919,-265.844 -4.68,-236.396C-4.637,-230.501 -6.867,-215.785 -22.282,-183.46" style="fill:white;fill-rule:nonzero;"/>
        </g>
    </g>
</svg>
