<?xml version="1.0" encoding="UTF-8" standalone="no"?>
<!DOCTYPE svg PUBLIC "-//W3C//DTD SVG 1.1//EN" "http://www.w3.org/Graphics/SVG/1.1/DTD/svg11.dtd">
<svg width="100%" height="100%" viewBox="0 0 1527 1976" version="1.1" xmlns="http://www.w3.org/2000/svg" xmlns:xlink="http://www.w3.org/1999/xlink" xml:space="preserve" xmlns:serif="http://www.serif.com/" style="fill-rule:evenodd;clip-rule:evenodd;stroke-linejoin:round;stroke-miterlimit:2;">
    <g transform="matrix(1,0,0,1,-4956.651548,-2102.628275)">
        <g transform="matrix(4.166667,0,0,4.166667,6402.996667,3679.035417)">
            <path d="M0,-284.748C-6.83,-291.391 -15.313,-296.468 -24.771,-299.691C-22.765,-308.464 -20.082,-323.702 -20.082,-342.485C-20.082,-351.352 -23.492,-359.18 -29.943,-365.123C-46.752,-380.607 -80.041,-378.358 -83.781,-378.049C-90.361,-377.509 -95.251,-371.742 -94.72,-365.161C-94.189,-358.58 -88.43,-353.68 -81.838,-354.194C-70.961,-355.055 -52.687,-353.551 -46.148,-347.51C-44.634,-346.11 -44.016,-344.654 -44.016,-342.485C-44.016,-324.852 -46.736,-310.746 -48.413,-303.724C-70.739,-304.208 -93.238,-296.504 -109.531,-282.614C-124.121,-270.176 -132.572,-254.084 -133.971,-236.078C-138.993,-171.473 -166.998,-107.025 -217.208,-44.523C-260.023,8.774 -309.187,48.873 -342.441,74.399C-346.586,77.579 -348.187,83.08 -346.399,87.988C-344.672,92.73 -340.167,95.859 -335.159,95.859C-334.982,95.859 -334.805,95.855 -334.627,95.847C-233.694,91.388 -150.374,23.686 -98.249,-32.324C-58.638,-74.89 -23.075,-126.221 -0.681,-173.156C12.837,-201.502 19.357,-222.245 19.253,-236.579C19.096,-255.993 12.438,-272.649 0,-284.748" style="fill:white;fill-rule:nonzero;"/>
        </g>
    </g>
</svg>
