<?xml version="1.0" encoding="UTF-8" standalone="no"?>
<!DOCTYPE svg PUBLIC "-//W3C//DTD SVG 1.1//EN" "http://www.w3.org/Graphics/SVG/1.1/DTD/svg11.dtd">
<svg width="100%" height="100%" viewBox="0 0 164 208" version="1.1" xmlns="http://www.w3.org/2000/svg" xmlns:xlink="http://www.w3.org/1999/xlink" xml:space="preserve" xmlns:serif="http://www.serif.com/" style="fill-rule:evenodd;clip-rule:evenodd;stroke-linejoin:round;stroke-miterlimit:2;">
    <g id="Artboard1" transform="matrix(0.379503,0,0,1,0,0)">
        <rect x="0" y="0" width="432" height="208" style="fill:none;"/>
        <g transform="matrix(3.24809,0,0,1.23266,118.474,177.365)">
            <path d="M0,-119.035C-0.037,-119.146 -0.334,-119.146 -0.519,-119.22C-0.704,-119.294 -0.927,-119.22 -1.149,-119.183C-1.335,-119.183 -1.52,-119.072 -1.705,-119.035C-1.965,-118.961 -2.187,-118.813 -2.41,-118.664C-2.15,-118.776 -1.891,-118.813 -1.594,-118.887C-1.371,-118.887 -1.183,-118.941 -0.964,-118.887C-0.816,-118.85 -0.593,-118.85 -0.593,-118.776C-0.667,-118.479 -1.112,-118.405 -1.335,-118.108L-1.446,-118.108C-1.557,-118.034 -1.52,-117.849 -1.631,-117.849C-1.742,-117.886 -1.854,-117.849 -1.965,-117.812C-1.816,-117.664 -1.631,-117.552 -1.409,-117.589C-1.371,-117.589 -1.298,-117.515 -1.298,-117.441C-1.298,-117.441 -1.26,-117.441 -1.223,-117.478C-1.186,-117.478 -1.149,-117.478 -1.149,-117.441L-1.149,-117.293C-1.26,-117.144 -1.446,-117.219 -1.594,-117.181C-1.298,-117.107 -1.001,-117.107 -0.742,-117.181C-0.519,-117.256 -0.742,-117.626 -0.593,-117.812C-0.667,-117.812 -0.593,-117.923 -0.667,-117.923C-0.593,-117.997 -0.519,-118.108 -0.445,-118.145C-0.371,-118.145 -0.26,-118.182 -0.223,-118.257C-0.223,-118.331 -0.371,-118.368 -0.334,-118.442C-0.111,-118.59 0.074,-118.813 0,-119.035M-2.219,-126.043C-2.219,-126.043 -2.179,-126.036 -2.018,-125.95C-1.847,-125.858 -1.625,-125.739 -1.486,-125.667C-1.214,-125.524 -0.95,-125.346 -0.779,-125.073C-0.705,-124.962 -0.594,-124.74 -0.668,-124.592C-0.742,-124.406 -0.779,-124.11 -0.965,-124.036C-1.187,-123.924 -1.484,-123.924 -1.743,-123.961C-1.891,-123.961 -2.04,-123.999 -2.188,-124.036C-1.632,-123.813 -1.113,-123.554 -0.742,-123.035C-0.705,-122.961 -0.557,-122.924 -0.409,-122.924C-0.372,-122.924 -0.372,-122.85 -0.372,-122.812C-0.446,-122.738 -0.52,-122.701 -0.483,-122.59L-0.372,-122.59C-0.186,-122.664 -0.223,-123.035 0.036,-122.924C0.221,-122.812 0.296,-122.553 0.184,-122.368C0.036,-122.219 -0.112,-122.108 -0.26,-121.997C-0.298,-121.923 -0.298,-121.812 -0.26,-121.737C-0.149,-121.589 -0.112,-121.441 -0.075,-121.293C0.036,-121.033 0.073,-120.737 0.184,-120.477C0.333,-119.921 0.481,-119.365 0.444,-118.809C0.444,-118.513 0.296,-118.253 0.407,-117.957C0.481,-117.66 0.666,-117.438 0.815,-117.178C0.963,-116.956 1.111,-116.808 1.222,-116.585C1.445,-116.214 1.852,-115.844 1.667,-115.399C1.556,-115.14 1.148,-115.177 0.889,-115.028C0.666,-114.843 0.852,-114.546 0.963,-114.361C1.148,-114.027 0.74,-113.805 0.481,-113.694C0.555,-113.583 0.703,-113.62 0.74,-113.546C0.777,-113.36 0.963,-113.249 0.852,-113.064C0.703,-112.841 0.258,-112.73 0.481,-112.397C0.629,-112.137 0.533,-111.849 0.444,-111.581C0.333,-111.247 0.036,-111.099 -0.223,-111.025C-0.446,-110.951 -0.705,-110.951 -0.928,-110.988C-1.002,-111.025 -1.076,-111.062 -1.15,-111.062C-1.78,-111.136 -2.41,-111.322 -3.041,-111.322C-3.226,-111.285 -3.411,-111.247 -3.559,-111.173C-3.727,-111.051 -3.876,-110.917 -4.008,-110.777C-4.01,-110.775 -4.011,-110.773 -4.013,-110.772C-4.04,-110.742 -4.067,-110.712 -4.093,-110.682C-4.11,-110.663 -4.125,-110.644 -4.141,-110.625C-4.152,-110.612 -4.162,-110.6 -4.173,-110.587C-4.281,-110.451 -4.378,-110.308 -4.464,-110.16C-4.47,-110.15 -4.476,-110.141 -4.481,-110.131C-4.491,-110.114 -4.5,-110.097 -4.509,-110.079C-4.631,-109.854 -4.723,-109.624 -4.79,-109.399C-5.042,-108.551 -4.932,-107.822 -4.755,-107.645C-4.706,-107.596 -3.532,-107.234 -2.714,-106.87C-2.33,-106.699 -2.062,-106.568 -1.839,-106.427L18.882,-106.427L18.882,-126.043L-2.219,-126.043ZM-19.127,-116.585C-19.165,-116.585 -19.202,-116.585 -19.239,-116.622C-19.202,-116.659 -19.202,-116.696 -19.202,-116.733C-19.572,-116.326 -20.091,-116.14 -20.388,-115.658C-20.61,-115.288 -20.758,-114.806 -21.24,-114.695C-21.389,-114.658 -21.203,-114.806 -21.277,-114.769C-22.426,-114.065 -23.242,-113.212 -24.132,-112.211C-24.132,-112.211 -24.169,-112.248 -24.169,-112.285C-23.687,-112.916 -23.316,-113.509 -22.983,-114.176C-22.501,-114.435 -22.101,-114.813 -21.722,-115.214C-21.092,-115.881 -20.425,-116.474 -19.646,-116.845C-19.35,-116.956 -18.979,-116.919 -18.683,-116.808C-18.794,-116.659 -18.979,-116.696 -19.127,-116.585M-21.389,-114.398C-21.352,-114.546 -21.24,-114.695 -21.092,-114.732C-21.055,-114.732 -21.055,-114.695 -21.055,-114.658C-21.092,-114.583 -21.133,-114.576 -21.166,-114.509C-21.203,-114.435 -21.24,-114.398 -21.314,-114.361C-21.352,-114.361 -21.389,-114.361 -21.389,-114.398M-19.646,-115.102C-19.609,-115.102 -19.535,-115.102 -19.535,-115.065C-19.535,-114.88 -19.646,-114.732 -19.832,-114.695C-19.535,-114.621 -19.239,-114.621 -18.942,-114.472C-18.979,-114.398 -19.053,-114.435 -19.09,-114.435C-18.905,-114.324 -18.683,-114.398 -18.497,-114.25C-18.609,-114.139 -18.72,-114.25 -18.831,-114.25C-17.682,-113.916 -16.459,-113.657 -15.495,-112.916C-16.31,-112.508 -17.163,-112.323 -18.053,-112.137C-18.164,-112.137 -18.238,-112.137 -18.349,-112.174C-18.349,-112.137 -18.349,-112.063 -18.386,-112.063C-18.534,-112.063 -18.646,-112.063 -18.757,-111.989C-18.905,-111.915 -19.127,-111.878 -19.239,-111.989C-19.276,-112.026 -19.127,-111.989 -19.09,-112.063L-19.387,-112.063C-19.424,-112.063 -19.424,-112.1 -19.424,-112.137C-19.609,-112.1 -19.832,-112.026 -20.017,-111.989C-20.277,-111.915 -20.499,-111.729 -20.796,-111.655C-21.203,-111.507 -21.537,-111.173 -21.982,-111.025C-22.019,-111.025 -22.019,-111.062 -22.019,-111.099C-21.982,-111.21 -21.833,-111.247 -21.759,-111.359C-21.759,-111.396 -21.759,-111.433 -21.796,-111.433C-21.5,-111.841 -21.092,-112.063 -20.721,-112.397L-20.721,-112.508C-20.61,-112.656 -20.425,-112.73 -20.351,-112.916C-20.314,-113.027 -20.165,-113.175 -19.98,-113.249C-20.017,-113.286 -20.091,-113.286 -20.091,-113.36C-20.24,-113.36 -20.388,-113.286 -20.536,-113.397C-20.467,-113.467 -20.388,-113.505 -20.304,-113.529C-20.336,-113.535 -20.364,-113.551 -20.388,-113.583C-20.425,-113.657 -20.316,-113.74 -20.202,-113.768C-20.054,-113.805 -19.869,-113.805 -19.758,-113.916C-20.017,-113.953 -20.314,-113.842 -20.573,-113.991C-20.388,-114.472 -20.091,-114.88 -19.646,-115.102M-18.46,-111.396C-18.534,-111.396 -18.683,-111.359 -18.646,-111.433C-18.609,-111.618 -18.349,-111.618 -18.201,-111.692C-18.127,-111.729 -18.016,-111.803 -17.941,-111.766C-17.867,-111.655 -17.756,-111.692 -17.682,-111.618C-17.904,-111.396 -18.201,-111.507 -18.46,-111.396M-19.998,-109.41C-20.001,-109.408 -20.004,-109.406 -20.007,-109.404C-20.146,-109.306 -20.284,-109.207 -20.43,-109.122C-20.589,-109.03 -20.755,-108.96 -20.919,-108.882C-20.92,-108.885 -20.922,-108.888 -20.924,-108.891C-20.936,-108.908 -20.962,-108.919 -20.987,-108.906C-21.127,-108.83 -21.246,-108.729 -21.36,-108.621C-21.377,-108.605 -21.394,-108.588 -21.411,-108.571C-21.412,-108.571 -21.413,-108.57 -21.414,-108.569C-21.415,-108.568 -21.474,-108.509 -21.476,-108.507C-21.477,-108.506 -21.477,-108.505 -21.478,-108.504C-21.505,-108.478 -21.53,-108.451 -21.559,-108.417C-21.577,-108.395 -21.584,-108.382 -21.608,-108.365C-21.631,-108.35 -21.695,-108.35 -21.689,-108.393L-21.689,-108.4C-21.711,-108.389 -21.733,-108.377 -21.755,-108.367C-21.775,-108.357 -21.794,-108.346 -21.813,-108.335C-21.821,-108.338 -21.829,-108.339 -21.838,-108.339C-21.848,-108.338 -21.857,-108.336 -21.865,-108.329C-21.91,-108.294 -21.955,-108.256 -21.999,-108.217C-22.076,-108.147 -22.149,-108.07 -22.214,-107.988C-22.215,-107.987 -22.216,-107.986 -22.217,-107.985C-22.22,-107.981 -22.222,-107.978 -22.224,-107.974C-22.228,-107.97 -22.232,-107.965 -22.235,-107.96C-22.239,-107.955 -22.243,-107.95 -22.247,-107.945C-22.248,-107.943 -22.25,-107.942 -22.251,-107.94C-22.26,-107.928 -22.268,-107.915 -22.276,-107.903C-22.277,-107.902 -22.277,-107.902 -22.277,-107.901C-22.284,-107.894 -22.294,-107.889 -22.308,-107.886C-22.313,-107.894 -22.318,-107.901 -22.323,-107.909C-22.326,-107.914 -22.33,-107.92 -22.333,-107.926C-22.344,-107.946 -22.355,-107.965 -22.365,-107.986C-22.365,-107.987 -22.372,-108 -22.375,-108.006C-22.334,-108.05 -22.296,-108.094 -22.258,-108.14C-22.256,-108.143 -22.253,-108.146 -22.251,-108.149C-22.238,-108.165 -22.225,-108.18 -22.212,-108.196C-22.191,-108.223 -22.171,-108.249 -22.15,-108.276C-22.143,-108.286 -22.135,-108.295 -22.127,-108.305C-22.087,-108.358 -22.048,-108.41 -22.012,-108.462C-22.011,-108.463 -22.01,-108.464 -22.009,-108.466C-22.003,-108.473 -21.998,-108.481 -21.993,-108.489C-21.975,-108.515 -21.958,-108.542 -21.942,-108.569C-21.928,-108.593 -21.914,-108.617 -21.901,-108.643C-21.901,-108.644 -21.899,-108.646 -21.899,-108.648C-21.897,-108.651 -21.896,-108.653 -21.895,-108.656C-21.892,-108.66 -21.891,-108.665 -21.889,-108.67C-21.875,-108.697 -21.864,-108.726 -21.853,-108.756C-21.852,-108.759 -21.851,-108.762 -21.85,-108.766C-21.847,-108.774 -21.844,-108.782 -21.842,-108.79C-21.838,-108.803 -21.834,-108.817 -21.83,-108.831C-21.829,-108.834 -21.829,-108.837 -21.828,-108.84C-21.824,-108.858 -21.819,-108.876 -21.815,-108.894C-21.813,-108.904 -21.816,-108.912 -21.82,-108.919C-21.78,-108.989 -21.73,-109.056 -21.673,-109.119C-21.678,-109.116 -21.684,-109.113 -21.69,-109.11C-21.743,-109.076 -21.778,-109.028 -21.827,-108.991C-21.868,-108.961 -21.942,-109.011 -21.894,-109.046C-21.862,-109.071 -21.837,-109.097 -21.81,-109.123C-21.808,-109.125 -21.808,-109.127 -21.806,-109.129C-21.745,-109.189 -21.687,-109.266 -21.617,-109.317C-21.574,-109.348 -21.537,-109.374 -21.503,-109.404C-21.497,-109.409 -21.492,-109.414 -21.487,-109.419C-21.461,-109.453 -21.433,-109.484 -21.404,-109.512C-21.402,-109.513 -21.401,-109.515 -21.4,-109.516C-21.045,-109.858 -20.448,-109.843 -19.98,-110.061C-19.795,-110.136 -19.572,-110.024 -19.387,-110.061C-19.276,-110.061 -19.165,-110.061 -19.053,-109.987C-19.386,-109.806 -19.694,-109.601 -19.998,-109.41M-19.333,-109.104C-19.35,-109.063 -19.388,-109.028 -19.425,-108.996C-19.379,-108.986 -19.346,-108.966 -19.376,-108.939C-19.462,-108.86 -19.544,-108.78 -19.657,-108.743C-19.665,-108.74 -19.687,-108.736 -19.714,-108.735C-19.759,-108.691 -19.805,-108.647 -19.852,-108.605C-19.896,-108.566 -20.1,-108.594 -20.038,-108.65C-19.944,-108.733 -19.856,-108.824 -19.764,-108.908C-19.711,-108.956 -19.656,-109.002 -19.61,-109.056C-19.584,-109.086 -19.562,-109.115 -19.53,-109.138C-19.5,-109.159 -19.303,-109.177 -19.333,-109.104M-12.456,-123.739C-12.344,-124.184 -12.048,-124.555 -11.751,-124.925C-11.455,-125.287 -10.963,-125.507 -10.607,-125.667C-10.089,-125.898 -9.622,-126.043 -9.622,-126.043L-35.061,-126.043L-35.061,-106.427L-17.046,-106.427C-16.34,-106.935 -15.635,-107.177 -14.65,-107.662C-14.185,-107.891 -13.121,-108.38 -12.76,-108.74C-12.55,-108.951 -12.337,-109.177 -12.126,-109.404L-12.13,-109.404C-11.736,-109.85 -11.351,-110.275 -10.894,-110.666C-10.755,-110.79 -10.62,-110.9 -10.491,-110.988C-10.454,-111.025 -10.454,-111.099 -10.417,-111.136C-10.602,-111.062 -10.713,-110.914 -10.899,-110.84C-10.936,-110.84 -10.973,-110.877 -10.936,-110.914C-10.804,-111.013 -10.672,-111.112 -10.54,-111.211C-10.548,-111.21 -10.556,-111.21 -10.565,-111.21C-10.602,-111.21 -10.602,-111.247 -10.602,-111.285C-11.084,-111.359 -11.455,-111.025 -11.788,-110.729C-11.862,-110.692 -11.937,-110.766 -11.974,-110.766C-12.53,-110.58 -12.937,-110.098 -13.493,-109.876L-13.493,-109.95C-13.716,-109.876 -13.932,-109.742 -14.16,-109.691C-14.494,-109.617 -14.791,-109.654 -15.087,-109.654C-15.536,-109.609 -15.986,-109.51 -16.435,-109.414C-16.448,-109.41 -16.461,-109.407 -16.474,-109.404C-16.715,-109.338 -16.942,-109.248 -17.165,-109.126C-17.173,-109.121 -17.181,-109.116 -17.19,-109.111C-17.208,-109.088 -17.226,-109.066 -17.243,-109.047C-17.323,-108.959 -17.392,-108.879 -17.498,-108.825C-17.726,-108.709 -17.911,-108.507 -18.112,-108.344C-18.127,-108.332 -18.149,-108.326 -18.172,-108.325C-18.371,-108.134 -18.567,-107.941 -18.769,-107.753C-18.783,-107.74 -18.84,-107.733 -18.882,-107.74C-18.881,-107.741 -18.88,-107.742 -18.879,-107.743C-18.872,-107.755 -18.864,-107.767 -18.857,-107.778C-18.826,-107.831 -18.794,-107.883 -18.762,-107.935C-18.726,-107.993 -18.69,-108.05 -18.652,-108.107C-18.602,-108.184 -18.55,-108.259 -18.495,-108.333C-18.48,-108.352 -18.484,-108.369 -18.496,-108.381C-18.508,-108.394 -18.527,-108.401 -18.547,-108.401C-18.362,-108.58 -18.143,-108.733 -17.925,-108.865L-17.925,-108.871C-17.95,-108.863 -17.986,-108.882 -17.967,-108.909C-17.944,-108.941 -17.925,-108.976 -17.903,-109.01C-17.899,-109.021 -17.895,-109.032 -17.891,-109.043C-17.901,-109.052 -17.91,-109.062 -17.919,-109.072C-17.979,-109.033 -18.043,-108.996 -18.094,-108.95C-18.182,-108.87 -18.252,-108.707 -18.386,-108.708C-18.395,-108.708 -18.421,-108.71 -18.442,-108.716C-18.458,-108.719 -18.472,-108.724 -18.481,-108.729C-18.48,-108.732 -18.478,-108.735 -18.477,-108.738C-18.475,-108.742 -18.473,-108.745 -18.471,-108.748C-18.469,-108.751 -18.467,-108.755 -18.466,-108.758C-18.46,-108.769 -18.454,-108.779 -18.448,-108.79C-18.442,-108.8 -18.436,-108.811 -18.43,-108.822C-18.426,-108.83 -18.421,-108.839 -18.416,-108.847C-18.407,-108.863 -18.399,-108.879 -18.39,-108.894C-18.384,-108.906 -18.377,-108.917 -18.37,-108.928C-18.355,-108.955 -18.339,-108.983 -18.323,-109.01C-18.315,-109.023 -18.307,-109.036 -18.3,-109.049C-18.286,-109.071 -18.274,-109.094 -18.26,-109.116C-18.242,-109.147 -18.261,-109.173 -18.288,-109.183C-18.219,-109.272 -18.135,-109.346 -18.034,-109.404L-18.045,-109.404C-17.904,-109.475 -17.762,-109.562 -17.62,-109.642C-17.599,-109.66 -17.579,-109.678 -17.559,-109.695C-17.77,-109.624 -17.96,-109.528 -18.148,-109.404C-18.148,-109.404 -18.197,-109.384 -18.211,-109.37C-18.211,-109.37 -18.253,-109.354 -18.303,-109.404C-18.308,-109.411 -18.312,-109.419 -18.312,-109.431C-18.275,-109.505 -18.164,-109.543 -18.09,-109.617C-18.053,-109.617 -18.016,-109.617 -18.016,-109.579C-16.829,-110.506 -15.198,-110.284 -13.827,-110.766C-13.716,-110.84 -13.605,-110.914 -13.493,-110.988C-13.308,-111.062 -13.16,-111.247 -12.937,-111.359C-12.641,-111.581 -12.418,-111.841 -12.307,-112.211C-12.307,-112.248 -12.344,-112.285 -12.344,-112.285C-12.826,-111.766 -13.382,-111.359 -13.975,-111.062C-14.754,-110.654 -15.606,-110.729 -16.422,-110.617C-16.385,-110.692 -16.31,-110.692 -16.236,-110.692C-16.236,-110.803 -16.162,-110.84 -16.088,-110.914L-15.977,-110.914C-15.94,-110.914 -15.94,-110.988 -15.903,-110.988C-15.829,-110.988 -15.717,-111.025 -15.754,-111.025C-15.866,-111.173 -16.088,-110.914 -16.273,-111.025C-16.199,-111.099 -16.236,-111.21 -16.162,-111.247L-16.014,-111.247C-16.014,-111.322 -15.94,-111.396 -15.94,-111.396C-15.384,-111.729 -14.865,-111.989 -14.346,-112.285C-14.457,-112.285 -14.531,-112.174 -14.642,-112.248C-14.568,-112.248 -14.642,-112.36 -14.568,-112.36C-14.16,-112.471 -13.827,-112.693 -13.419,-112.841C-13.567,-112.841 -13.679,-112.73 -13.827,-112.841C-13.753,-112.879 -13.716,-112.953 -13.605,-112.953L-13.605,-113.064C-13.605,-113.101 -13.567,-113.101 -13.53,-113.101C-13.567,-113.101 -13.605,-113.138 -13.605,-113.138C-13.567,-113.212 -13.456,-113.175 -13.382,-113.249C-13.419,-113.249 -13.493,-113.249 -13.493,-113.286C-13.382,-113.434 -13.197,-113.472 -13.011,-113.509C-13.049,-113.583 -13.16,-113.509 -13.16,-113.583C-13.16,-113.62 -13.123,-113.62 -13.086,-113.62L-13.16,-113.62C-13.234,-113.657 -13.197,-113.731 -13.197,-113.768C-12.974,-114.027 -12.974,-114.361 -12.863,-114.658C-12.9,-114.658 -12.937,-114.658 -12.937,-114.695C-13.308,-114.287 -13.901,-114.139 -14.457,-113.991L-14.642,-113.991C-14.828,-113.916 -15.087,-113.916 -15.273,-114.027C-15.421,-114.102 -15.495,-114.213 -15.643,-114.324C-15.94,-114.509 -16.236,-114.658 -16.57,-114.769C-17.497,-115.065 -18.46,-115.214 -19.424,-115.177C-19.016,-115.399 -18.567,-115.418 -18.127,-115.547C-17.497,-115.733 -16.904,-115.955 -16.236,-115.918C-16.347,-115.955 -16.496,-115.918 -16.607,-115.918C-17.126,-115.955 -17.645,-115.807 -18.201,-115.696C-18.572,-115.621 -18.905,-115.473 -19.276,-115.399C-19.498,-115.325 -19.609,-115.102 -19.869,-115.14L-19.869,-115.251C-19.498,-115.696 -19.053,-116.14 -18.46,-116.177C-17.793,-116.289 -17.163,-116.177 -16.496,-116.103C-16.014,-116.066 -15.569,-115.955 -15.087,-115.844C-14.902,-115.844 -14.865,-115.547 -14.716,-115.51C-14.494,-115.436 -14.272,-115.51 -14.049,-115.362C-14.049,-115.436 -14.086,-115.51 -14.049,-115.584C-13.901,-115.733 -13.716,-115.547 -13.567,-115.621C-13.271,-115.807 -13.827,-116.14 -13.975,-116.4C-13.975,-116.437 -13.938,-116.474 -13.938,-116.474C-13.642,-116.214 -13.419,-115.918 -13.049,-115.733C-12.863,-115.658 -12.418,-115.547 -12.493,-115.77C-12.678,-116.177 -13.049,-116.511 -13.345,-116.882L-13.345,-117.03C-13.419,-117.03 -13.419,-117.067 -13.456,-117.104L-13.456,-117.252C-13.605,-117.327 -13.567,-117.475 -13.642,-117.586C-13.753,-117.771 -13.679,-118.031 -13.753,-118.253C-13.827,-118.476 -13.864,-118.661 -13.901,-118.883C-14.012,-119.513 -14.16,-120.069 -14.235,-120.662C-14.309,-121.367 -13.827,-121.923 -13.493,-122.553C-13.234,-122.998 -12.937,-123.442 -12.456,-123.739M85.364,-53.209L93.952,-53.209L93.952,-50.725L88.353,-50.725L88.353,-47.231L93.11,-47.231L93.11,-44.747L88.353,-44.747L88.353,-40.958L93.952,-40.958L93.952,-38.474L85.364,-38.474L85.364,-53.209ZM67.808,-53.209L71.639,-53.209L78.228,-42.558L78.228,-53.209L81.217,-53.209L81.217,-38.474L77.386,-38.474L70.797,-49.126L70.797,-38.474L67.808,-38.474L67.808,-53.209ZM61.472,-42.137L61.472,-44.705L57.725,-44.705L57.725,-47.252L64.461,-47.252L64.461,-41.063C63.093,-39.232 60.798,-38.053 58.041,-38.053C53.262,-38.053 50,-41.632 50,-45.842C50,-50.052 53.178,-53.63 57.83,-53.63C60.503,-53.63 62.693,-52.43 64.04,-50.641L61.682,-48.81C60.84,-50.01 59.514,-50.831 57.83,-50.831C55.051,-50.831 53.073,-48.662 53.073,-45.842C53.073,-43.021 55.157,-40.853 58.041,-40.853C59.43,-40.853 60.63,-41.337 61.472,-42.137M43.789,-44.852L41.769,-50.389L39.748,-44.852L43.789,-44.852ZM39.811,-53.209L43.726,-53.209L49.304,-38.474L46.126,-38.474L44.716,-42.305L38.822,-42.305L37.411,-38.474L34.233,-38.474L39.811,-53.209ZM27.77,-50.725L27.77,-46.915L29.77,-46.915C31.033,-46.915 31.791,-47.652 31.791,-48.852C31.791,-49.968 31.033,-50.725 29.77,-50.725L27.77,-50.725ZM24.781,-53.209L29.644,-53.209C32.885,-53.209 34.864,-51.546 34.864,-48.81C34.864,-46.094 32.885,-44.431 29.644,-44.431L27.77,-44.431L27.77,-38.474L24.781,-38.474L24.781,-53.209ZM13.435,-42.516C14.319,-41.379 15.498,-40.706 16.698,-40.706C17.876,-40.706 18.592,-41.337 18.592,-42.39C18.592,-45.105 11.898,-44.368 11.898,-49.357C11.898,-51.694 13.835,-53.63 16.655,-53.63C18.866,-53.63 20.55,-52.641 21.813,-51.146L19.623,-49.168C18.76,-50.283 17.792,-51.02 16.676,-51.02C15.624,-51.02 14.929,-50.346 14.929,-49.462C14.929,-46.789 21.623,-47.547 21.623,-42.495C21.581,-39.716 19.434,-38.053 16.719,-38.053C14.235,-38.053 12.572,-38.958 11.267,-40.516L13.435,-42.516ZM0.51,-53.209L9.098,-53.209L9.098,-50.725L3.499,-50.725L3.499,-47.231L8.256,-47.231L8.256,-44.747L3.499,-44.747L3.499,-40.958L9.098,-40.958L9.098,-38.474L0.51,-38.474L0.51,-53.209ZM-22.54,-53.209L-18.709,-53.209L-12.12,-42.558L-12.12,-53.209L-9.131,-53.209L-9.131,-38.474L-12.962,-38.474L-19.551,-49.126L-19.551,-38.474L-22.54,-38.474L-22.54,-53.209ZM-34.623,-53.209L-26.034,-53.209L-26.034,-50.725L-31.634,-50.725L-31.634,-47.231L-26.876,-47.231L-26.876,-44.747L-31.634,-44.747L-31.634,-40.958L-26.034,-40.958L-26.034,-38.474L-34.623,-38.474L-34.623,-53.209ZM73.702,-74.728L82.29,-74.728L82.29,-72.244L76.691,-72.244L76.691,-68.749L81.448,-68.749L81.448,-66.266L76.691,-66.266L76.691,-62.477L82.29,-62.477L82.29,-59.993L73.702,-59.993L73.702,-74.728ZM68.734,-64.392L71.091,-62.582C69.744,-60.751 67.555,-59.572 64.882,-59.572C60.23,-59.572 57.051,-63.15 57.051,-67.36C57.051,-71.57 60.23,-75.149 64.882,-75.149C67.555,-75.149 69.744,-73.949 71.091,-72.16L68.734,-70.328C67.892,-71.528 66.566,-72.349 64.882,-72.349C62.103,-72.349 60.124,-70.181 60.124,-67.36C60.124,-64.54 62.103,-62.371 64.882,-62.371C66.566,-62.371 67.892,-63.192 68.734,-64.392M40.758,-74.728L44.589,-74.728L51.178,-64.076L51.178,-74.728L54.167,-74.728L54.167,-59.993L50.336,-59.993L43.747,-70.644L43.747,-59.993L40.758,-59.993L40.758,-74.728ZM32.949,-66.371L30.928,-71.907L28.907,-66.371L32.949,-66.371ZM28.97,-74.728L32.885,-74.728L38.463,-59.993L35.285,-59.993L33.875,-63.824L27.981,-63.824L26.57,-59.993L23.392,-59.993L28.97,-74.728ZM13.709,-72.244L13.709,-68.434L15.393,-68.434C16.656,-68.434 17.392,-69.17 17.392,-70.37C17.392,-71.486 16.656,-72.244 15.393,-72.244L13.709,-72.244ZM10.72,-74.728L15.224,-74.728C18.466,-74.728 20.466,-73.065 20.466,-70.328C20.466,-68.539 19.603,-67.213 18.087,-66.518L22.697,-59.993L19.182,-59.993L15.245,-65.95L13.709,-65.95L13.709,-59.993L10.72,-59.993L10.72,-74.728ZM-0.521,-74.728L8.067,-74.728L8.067,-72.244L2.468,-72.244L2.468,-68.749L7.225,-68.749L7.225,-66.266L2.468,-66.266L2.468,-59.993L-0.521,-59.993L-0.521,-74.728ZM-18.098,-74.728L-9.51,-74.728L-9.51,-72.244L-15.109,-72.244L-15.109,-68.749L-10.352,-68.749L-10.352,-66.266L-15.109,-66.266L-15.109,-62.477L-9.51,-62.477L-9.51,-59.993L-18.098,-59.993L-18.098,-74.728ZM-31.634,-72.012L-31.634,-62.708L-28.792,-62.708C-26.055,-62.708 -24.077,-64.75 -24.077,-67.36C-24.077,-69.991 -26.055,-72.012 -28.792,-72.012L-31.634,-72.012ZM-34.623,-74.728L-28.834,-74.728C-24.161,-74.728 -21.004,-71.339 -21.004,-67.36C-21.004,-63.382 -24.161,-59.993 -28.834,-59.993L-34.623,-59.993L-34.623,-74.728ZM84.354,-96.246L92.943,-96.246L92.943,-93.762L87.343,-93.762L87.343,-90.268L92.101,-90.268L92.101,-87.784L87.343,-87.784L87.343,-83.995L92.943,-83.995L92.943,-81.511L84.354,-81.511L84.354,-96.246ZM70.819,-93.53L70.819,-84.227L73.661,-84.227C76.397,-84.227 78.376,-86.268 78.376,-88.879C78.376,-91.51 76.397,-93.53 73.661,-93.53L70.819,-93.53ZM67.83,-96.246L73.618,-96.246C78.292,-96.246 81.449,-92.857 81.449,-88.879C81.449,-84.9 78.292,-81.511 73.618,-81.511L67.83,-81.511L67.83,-96.246ZM60.02,-87.889L57.999,-93.425L55.979,-87.889L60.02,-87.889ZM56.042,-96.246L59.957,-96.246L65.535,-81.511L62.357,-81.511L60.946,-85.342L55.052,-85.342L53.642,-81.511L50.464,-81.511L56.042,-96.246ZM41.054,-85.553C41.938,-84.416 43.117,-83.742 44.316,-83.742C45.495,-83.742 46.211,-84.374 46.211,-85.426C46.211,-88.142 39.517,-87.405 39.517,-92.394C39.517,-94.73 41.454,-96.667 44.274,-96.667C46.485,-96.667 48.169,-95.678 49.432,-94.183L47.242,-92.204C46.379,-93.32 45.411,-94.057 44.295,-94.057C43.243,-94.057 42.548,-93.383 42.548,-92.499C42.548,-89.826 49.242,-90.584 49.242,-85.532C49.2,-82.753 47.053,-81.09 44.337,-81.09C41.854,-81.09 40.191,-81.995 38.886,-83.553L41.054,-85.553ZM29.013,-85.553C29.897,-84.416 31.075,-83.742 32.275,-83.742C33.454,-83.742 34.17,-84.374 34.17,-85.426C34.17,-88.142 27.476,-87.405 27.476,-92.394C27.476,-94.73 29.412,-96.667 32.233,-96.667C34.443,-96.667 36.127,-95.678 37.39,-94.183L35.201,-92.204C34.338,-93.32 33.37,-94.057 32.254,-94.057C31.202,-94.057 30.507,-93.383 30.507,-92.499C30.507,-89.826 37.201,-90.584 37.201,-85.532C37.159,-82.753 35.012,-81.09 32.296,-81.09C29.812,-81.09 28.149,-81.995 26.844,-83.553L29.013,-85.553ZM20.403,-87.889L18.382,-93.425L16.361,-87.889L20.403,-87.889ZM16.424,-96.246L20.34,-96.246L25.918,-81.511L22.739,-81.511L21.329,-85.342L15.435,-85.342L14.025,-81.511L10.846,-81.511L16.424,-96.246ZM2.657,-87.952L2.657,-83.995L4.489,-83.995C5.878,-83.995 6.72,-84.732 6.72,-85.974C6.72,-87.237 5.878,-87.952 4.489,-87.952L2.657,-87.952ZM2.657,-93.762L2.657,-90.436L4.068,-90.436C5.204,-90.436 5.878,-91.047 5.878,-92.12C5.878,-93.152 5.204,-93.762 4.068,-93.762L2.657,-93.762ZM-0.332,-96.246L4.004,-96.246C7.078,-96.246 8.951,-94.73 8.951,-92.246C8.951,-91.047 8.404,-90.015 7.372,-89.342C8.93,-88.647 9.793,-87.384 9.793,-85.847C9.793,-83.153 7.709,-81.511 4.32,-81.511L-0.332,-81.511L-0.332,-96.246ZM-19.109,-96.246L-15.383,-96.246L-11.783,-90.057L-8.184,-96.246L-4.458,-96.246L-4.458,-81.511L-7.447,-81.511L-7.447,-92.078L-10.731,-86.563L-12.836,-86.563L-16.12,-92.078L-16.12,-81.511L-19.109,-81.511L-19.109,-96.246ZM-26.918,-87.889L-28.939,-93.425L-30.96,-87.889L-26.918,-87.889ZM-30.897,-96.246L-26.982,-96.246L-21.403,-81.511L-24.582,-81.511L-25.992,-85.342L-31.886,-85.342L-33.297,-81.511L-36.475,-81.511L-30.897,-96.246ZM-27.955,-28.193L-31.897,-28.193L-32.006,-27.857C-30.847,-27.619 -30.738,-27.511 -31.28,-26.016L-32.558,-22.463C-33.1,-20.979 -33.327,-20.86 -34.659,-20.622L-34.757,-20.286L-28.756,-20.286L-27.457,-22.604L-27.912,-22.604C-28.648,-21.792 -29.515,-20.774 -30.847,-20.774C-31.854,-20.774 -31.973,-20.947 -31.432,-22.463L-30.154,-26.016C-29.623,-27.5 -29.385,-27.619 -28.052,-27.857L-27.955,-28.193ZM-23.59,-27.5C-23.2,-27.5 -22.875,-27.814 -22.875,-28.215C-22.875,-28.605 -23.2,-28.929 -23.59,-28.929C-23.991,-28.929 -24.305,-28.605 -24.305,-28.215C-24.305,-27.814 -23.991,-27.5 -23.59,-27.5M-23.893,-25.334C-23.774,-25.734 -24.045,-25.962 -24.251,-25.962C-25.117,-25.962 -26.146,-25.182 -26.558,-24.088L-26.276,-24.088C-25.995,-24.489 -25.518,-24.933 -25.074,-25.009L-26.731,-20.698C-26.883,-20.297 -26.58,-20.07 -26.374,-20.07C-25.551,-20.07 -24.587,-20.86 -24.175,-21.943L-24.457,-21.943C-24.738,-21.543 -25.215,-21.099 -25.659,-21.023L-23.893,-25.334ZM-18.001,-24.759C-18.001,-25.637 -18.326,-25.962 -18.933,-25.962C-19.691,-25.962 -20.406,-25.16 -21.121,-24.185L-19.312,-28.94L-19.41,-29.059L-21.305,-28.843L-21.305,-28.615L-20.937,-28.334C-20.601,-28.074 -20.709,-27.803 -21.013,-27.023L-22.962,-21.998C-23.103,-21.629 -23.276,-21.196 -23.276,-21.077C-23.276,-20.557 -22.572,-20.07 -21.933,-20.07C-20.46,-20.07 -18.001,-22.723 -18.001,-24.759M-21.413,-20.947C-21.706,-20.947 -22.128,-21.218 -22.128,-21.456C-22.128,-21.532 -21.998,-21.868 -21.836,-22.29L-21.348,-23.579C-20.828,-24.196 -20.038,-24.857 -19.594,-24.857C-19.323,-24.857 -19.117,-24.684 -19.117,-24.283C-19.117,-23.102 -20.222,-20.947 -21.413,-20.947M-14.059,-22.16L-14.427,-22.16C-14.893,-21.608 -15.391,-21.174 -15.89,-21.174C-16.399,-21.174 -16.659,-21.478 -16.659,-22.16C-16.659,-22.442 -16.626,-22.723 -16.572,-22.983L-13.572,-23.969C-12.987,-25.355 -13.691,-25.962 -14.514,-25.962C-15.933,-25.962 -17.547,-23.59 -17.547,-21.51C-17.547,-20.579 -17.103,-20.07 -16.409,-20.07C-15.597,-20.07 -14.752,-20.86 -14.059,-22.16M-15.088,-25.16C-14.687,-25.16 -14.341,-24.857 -14.525,-24.088L-16.388,-23.655C-16.063,-24.521 -15.521,-25.16 -15.088,-25.16M-8.438,-24.64C-8.232,-25.344 -8.34,-25.962 -8.882,-25.962C-9.521,-25.962 -9.683,-25.474 -10.333,-24.077L-10.333,-24.879C-10.333,-25.453 -10.517,-25.962 -11.037,-25.962C-11.644,-25.962 -12.196,-25.019 -12.619,-24.088L-12.337,-24.088C-12.045,-24.51 -11.774,-24.759 -11.557,-24.759C-11.297,-24.759 -11.156,-24.359 -11.557,-23.471L-12.727,-20.871C-12.944,-20.384 -12.716,-20.07 -12.24,-20.07C-11.947,-20.07 -11.817,-20.145 -11.698,-20.46L-10.55,-23.503C-10.225,-23.904 -9.933,-24.25 -9.564,-24.64L-8.438,-24.64ZM-7.658,-25.128L-6.868,-25.128L-8.449,-20.806C-8.59,-20.438 -8.395,-20.07 -8.016,-20.07C-7.117,-20.07 -5.665,-20.958 -5.156,-22.171L-5.438,-22.171C-5.839,-21.749 -6.608,-21.185 -7.268,-21.066L-5.817,-25.128L-4.333,-25.128L-4.149,-25.745L-5.589,-25.745L-5.037,-27.305L-5.611,-27.305L-6.64,-25.745L-7.658,-25.572L-7.658,-25.128ZM-1.452,-26.514L0.66,-28.485L0.66,-28.713L-0.477,-28.713L-1.777,-26.514L-1.452,-26.514ZM-0.856,-22.16L-1.225,-22.16C-1.69,-21.608 -2.189,-21.174 -2.687,-21.174C-3.196,-21.174 -3.456,-21.478 -3.456,-22.16C-3.456,-22.442 -3.423,-22.723 -3.369,-22.983L-0.369,-23.969C0.216,-25.355 -0.488,-25.962 -1.311,-25.962C-2.73,-25.962 -4.344,-23.59 -4.344,-21.51C-4.344,-20.579 -3.9,-20.07 -3.207,-20.07C-2.394,-20.07 -1.55,-20.86 -0.856,-22.16M-1.885,-25.16C-1.485,-25.16 -1.138,-24.857 -1.322,-24.088L-3.185,-23.655C-2.86,-24.521 -2.319,-25.16 -1.885,-25.16M-28.345,-15.185L-26.233,-16.636L-26.233,-16.864L-27.511,-16.864L-28.681,-15.185L-28.345,-15.185ZM-29.211,-10.647C-28.496,-10.647 -28.486,-10.354 -28.594,-9.574L-28.182,-9.574L-27.229,-12.185L-27.641,-12.185C-27.998,-11.567 -28.28,-11.112 -29.06,-11.112L-30.63,-11.112L-29.84,-13.289C-29.58,-14.015 -29.428,-14.156 -28.453,-14.156L-27.76,-14.156C-26.753,-14.156 -26.634,-13.885 -26.634,-12.878L-26.233,-12.878L-25.897,-14.654L-31.876,-14.654L-31.984,-14.318C-30.825,-14.08 -30.717,-13.972 -31.258,-12.477L-32.558,-8.925C-33.1,-7.441 -33.327,-7.322 -34.659,-7.083L-34.757,-6.748L-28.107,-6.748L-26.915,-8.632L-27.37,-8.632C-28.128,-7.917 -29.081,-7.235 -30.414,-7.235C-32.179,-7.235 -32.017,-7.311 -31.432,-8.925L-30.803,-10.647L-29.211,-10.647ZM-21.64,-6.011C-21.64,-6.704 -22.258,-6.953 -23.265,-7.257C-24.132,-7.517 -24.521,-7.592 -24.521,-7.874C-24.521,-8.101 -24.337,-8.372 -23.969,-8.567C-22.55,-8.643 -21.63,-9.921 -21.63,-10.993C-21.63,-11.221 -21.673,-11.416 -21.749,-11.589L-20.547,-11.589L-20.362,-12.206L-22.269,-12.206C-22.496,-12.347 -22.767,-12.423 -23.038,-12.423C-24.543,-12.423 -25.518,-11.102 -25.518,-10.029C-25.518,-9.217 -24.998,-8.708 -24.37,-8.589C-25.074,-8.275 -25.464,-7.906 -25.464,-7.473C-25.464,-7.224 -25.377,-7.051 -25.171,-6.888C-26.796,-6.412 -27.435,-5.87 -27.435,-5.101C-27.435,-4.354 -26.449,-4.04 -25.28,-4.04C-23.298,-4.04 -21.64,-5.112 -21.64,-6.011M-23.991,-8.979C-24.348,-8.979 -24.489,-9.282 -24.489,-9.629C-24.489,-10.593 -23.969,-12.011 -23.157,-12.011C-22.799,-12.011 -22.659,-11.708 -22.659,-11.362C-22.659,-10.398 -23.178,-8.979 -23.991,-8.979M-26.233,-5.48C-26.233,-6.054 -25.68,-6.412 -24.89,-6.726C-24.63,-6.596 -24.24,-6.455 -23.72,-6.282C-22.897,-6.011 -22.583,-5.903 -22.583,-5.654C-22.583,-5.123 -23.482,-4.722 -24.706,-4.722C-25.735,-4.722 -26.233,-4.939 -26.233,-5.48M-15.207,-12.672L-15.662,-12.705L-16.171,-12.206L-16.279,-12.206C-18.749,-12.206 -20.882,-9.434 -20.882,-7.419C-20.882,-6.856 -20.536,-6.531 -19.994,-6.531C-19.355,-6.531 -18.727,-7.441 -18.023,-8.416L-18.056,-8.069C-18.142,-7.072 -17.839,-6.531 -17.319,-6.531C-16.712,-6.531 -16.16,-7.473 -15.738,-8.405L-16.019,-8.405C-16.312,-7.982 -16.583,-7.733 -16.799,-7.733C-17.027,-7.733 -17.189,-8.145 -16.799,-9.022L-15.207,-12.672ZM-19.767,-8.221C-19.767,-9.553 -18.283,-11.362 -17.449,-11.362C-17.265,-11.362 -17.092,-11.34 -16.94,-11.297L-17.806,-8.99C-18.305,-8.383 -19.074,-7.647 -19.431,-7.647C-19.637,-7.647 -19.767,-7.82 -19.767,-8.221M-14.027,-7.484L-11.005,-15.402L-11.102,-15.521L-12.998,-15.304L-12.998,-15.077L-12.629,-14.795C-12.294,-14.535 -12.402,-14.286 -12.705,-13.484L-15.066,-7.267C-15.24,-6.932 -15.012,-6.531 -14.633,-6.531C-13.767,-6.531 -12.846,-7.311 -12.434,-8.405L-12.716,-8.405C-12.998,-8.004 -13.582,-7.56 -14.027,-7.484M-8.264,-13.961C-7.875,-13.961 -7.55,-14.275 -7.55,-14.676C-7.55,-15.066 -7.875,-15.391 -8.264,-15.391C-8.665,-15.391 -8.979,-15.066 -8.979,-14.676C-8.979,-14.275 -8.665,-13.961 -8.264,-13.961M-8.568,-11.795C-8.449,-12.196 -8.719,-12.423 -8.925,-12.423C-9.792,-12.423 -10.821,-11.643 -11.232,-10.549L-10.951,-10.549C-10.669,-10.95 -10.192,-11.394 -9.748,-11.47L-11.405,-7.159C-11.557,-6.758 -11.254,-6.531 -11.048,-6.531C-10.225,-6.531 -9.261,-7.322 -8.849,-8.405L-9.131,-8.405C-9.413,-8.004 -9.889,-7.56 -10.333,-7.484L-8.568,-11.795ZM-7.225,-11.589L-6.228,-11.589L-7.81,-7.267C-7.951,-6.899 -7.756,-6.531 -7.376,-6.531C-6.477,-6.531 -5.026,-7.419 -4.517,-8.632L-4.799,-8.632C-5.199,-8.21 -5.968,-7.647 -6.629,-7.527L-5.178,-11.589L-3.694,-11.589L-3.51,-12.206L-4.95,-12.206L-4.398,-13.766L-4.972,-13.766L-6.001,-12.206L-7.225,-12.033L-7.225,-11.589ZM-0.748,-12.975L1.364,-14.947L1.364,-15.174L0.227,-15.174L-1.073,-12.975L-0.748,-12.975ZM-0.152,-8.621L-0.521,-8.621C-0.986,-8.069 -1.485,-7.636 -1.983,-7.636C-2.492,-7.636 -2.752,-7.939 -2.752,-8.621C-2.752,-8.903 -2.719,-9.185 -2.665,-9.444L0.335,-10.43C0.92,-11.816 0.216,-12.423 -0.607,-12.423C-2.026,-12.423 -3.64,-10.051 -3.64,-7.971C-3.64,-7.04 -3.196,-6.531 -2.503,-6.531C-1.69,-6.531 -0.845,-7.322 -0.152,-8.621M-1.181,-11.621C-0.781,-11.621 -0.434,-11.318 -0.618,-10.549L-2.481,-10.116C-2.156,-10.983 -1.615,-11.621 -1.181,-11.621M-30.489,6.791L-30.381,6.455C-31.822,6.185 -32.006,6.185 -31.432,4.614L-30.847,3L-29.255,3C-28.54,3 -28.529,3.293 -28.637,4.073L-28.226,4.073L-27.273,1.462L-27.684,1.462C-28.042,2.08 -28.323,2.535 -29.103,2.535L-30.673,2.535L-29.84,0.249C-29.58,-0.476 -29.428,-0.628 -28.453,-0.628L-27.76,-0.628C-26.753,-0.628 -26.634,-0.357 -26.634,0.661L-26.233,0.661L-25.897,-1.115L-31.876,-1.115L-31.984,-0.78C-30.825,-0.541 -30.717,-0.433 -31.258,1.062L-32.558,4.614C-33.1,6.098 -33.327,6.217 -34.659,6.455L-34.757,6.791L-30.489,6.791ZM-22.193,2.437C-21.987,1.733 -22.095,1.116 -22.637,1.116C-23.276,1.116 -23.439,1.603 -24.088,3L-24.088,2.199C-24.088,1.625 -24.273,1.116 -24.792,1.116C-25.399,1.116 -25.951,2.058 -26.374,2.989L-26.092,2.989C-25.8,2.567 -25.529,2.318 -25.312,2.318C-25.052,2.318 -24.912,2.719 -25.312,3.607L-26.482,6.206C-26.699,6.694 -26.471,7.008 -25.995,7.008C-25.702,7.008 -25.572,6.932 -25.453,6.618L-24.305,3.574C-23.98,3.174 -23.688,2.827 -23.319,2.437L-22.193,2.437ZM-16.929,0.867L-17.384,0.834L-17.893,1.332L-18.001,1.332C-20.471,1.332 -22.605,4.105 -22.605,6.12C-22.605,6.683 -22.258,7.008 -21.717,7.008C-21.078,7.008 -20.449,6.098 -19.745,5.123L-19.778,5.47C-19.864,6.466 -19.561,7.008 -19.041,7.008C-18.435,7.008 -17.882,6.065 -17.46,5.134L-17.742,5.134C-18.034,5.556 -18.305,5.806 -18.521,5.806C-18.749,5.806 -18.911,5.394 -18.521,4.517L-16.929,0.867ZM-21.489,5.318C-21.489,3.986 -20.005,2.177 -19.171,2.177C-18.987,2.177 -18.814,2.199 -18.662,2.242L-19.529,4.549C-20.027,5.156 -20.796,5.892 -21.153,5.892C-21.359,5.892 -21.489,5.719 -21.489,5.318M-16.02,1.95L-15.023,1.95L-16.604,6.271C-16.745,6.639 -16.55,7.008 -16.171,7.008C-15.272,7.008 -13.821,6.12 -13.312,4.907L-13.593,4.907C-13.994,5.329 -14.763,5.892 -15.424,6.011L-13.973,1.95L-12.489,1.95L-12.305,1.332L-13.745,1.332L-13.193,-0.227L-13.767,-0.227L-14.796,1.332L-16.02,1.506L-16.02,1.95ZM-8.947,4.917L-9.315,4.917C-9.781,5.47 -10.279,5.903 -10.777,5.903C-11.286,5.903 -11.546,5.6 -11.546,4.917C-11.546,4.636 -11.514,4.354 -11.46,4.094L-8.46,3.109C-7.875,1.722 -8.579,1.116 -9.402,1.116C-10.821,1.116 -12.435,3.488 -12.435,5.567C-12.435,6.499 -11.99,7.008 -11.297,7.008C-10.485,7.008 -9.64,6.217 -8.947,4.917M-9.976,1.917C-9.575,1.917 -9.229,2.22 -9.413,2.989L-11.276,3.423C-10.951,2.556 -10.409,1.917 -9.976,1.917M-3.326,2.437C-3.12,1.733 -3.228,1.116 -3.77,1.116C-4.409,1.116 -4.571,1.603 -5.221,3L-5.221,2.199C-5.221,1.625 -5.405,1.116 -5.925,1.116C-6.532,1.116 -7.084,2.058 -7.506,2.989L-7.225,2.989C-6.932,2.567 -6.662,2.318 -6.445,2.318C-6.185,2.318 -6.044,2.719 -6.445,3.607L-7.615,6.206C-7.831,6.694 -7.604,7.008 -7.127,7.008C-6.835,7.008 -6.705,6.932 -6.586,6.618L-5.438,3.574C-5.113,3.174 -4.82,2.827 -4.452,2.437L-3.326,2.437ZM-3.304,6.206C-3.521,6.694 -3.293,7.008 -2.817,7.008C-2.524,7.008 -2.394,6.932 -2.275,6.618L-1.127,3.574C-0.596,2.924 0.498,2.231 0.931,2.231C1.245,2.231 1.202,2.491 0.996,2.881L-0.77,6.271C-0.943,6.607 -0.716,7.008 -0.336,7.008C0.53,7.008 1.559,6.228 1.971,5.134L1.689,5.134C1.407,5.535 0.931,5.979 0.487,6.055L2.003,2.989C2.198,2.6 2.296,2.231 2.296,1.939C2.296,1.441 2.014,1.116 1.494,1.116C0.747,1.116 -0.012,1.961 -0.91,3L-0.91,2.199C-0.91,1.625 -1.095,1.116 -1.615,1.116C-1.939,1.116 -2.254,1.397 -2.546,1.798L-2.546,1.906C-1.983,1.874 -1.734,2.719 -2.134,3.607L-3.304,6.206ZM6.238,-0.422C6.628,-0.422 6.953,-0.736 6.953,-1.137C6.953,-1.527 6.628,-1.852 6.238,-1.852C5.837,-1.852 5.523,-1.527 5.523,-1.137C5.523,-0.736 5.837,-0.422 6.238,-0.422M5.935,1.744C6.054,1.343 5.783,1.116 5.577,1.116C4.711,1.116 3.682,1.896 3.27,2.989L3.552,2.989C3.833,2.589 4.31,2.145 4.754,2.069L3.097,6.38C2.945,6.78 3.248,7.008 3.454,7.008C4.277,7.008 5.241,6.217 5.653,5.134L5.371,5.134C5.09,5.535 4.613,5.979 4.169,6.055L5.935,1.744ZM7.277,1.95L8.274,1.95L6.693,6.271C6.552,6.639 6.747,7.008 7.126,7.008C8.025,7.008 9.476,6.12 9.985,4.907L9.704,4.907C9.303,5.329 8.534,5.892 7.873,6.011L9.325,1.95L10.808,1.95L10.992,1.332L9.552,1.332L10.104,-0.227L9.53,-0.227L8.501,1.332L7.277,1.506L7.277,1.95ZM13.754,0.563L15.866,-1.408L15.866,-1.635L14.729,-1.635L13.429,0.563L13.754,0.563ZM14.35,4.917L13.982,4.917C13.516,5.47 13.018,5.903 12.52,5.903C12.01,5.903 11.751,5.6 11.751,4.917C11.751,4.636 11.783,4.354 11.837,4.094L14.837,3.109C15.422,1.722 14.718,1.116 13.895,1.116C12.476,1.116 10.862,3.488 10.862,5.567C10.862,6.499 11.306,7.008 12,7.008C12.812,7.008 13.657,6.217 14.35,4.917M13.321,1.917C13.722,1.917 14.068,2.22 13.884,2.989L12.021,3.423C12.346,2.556 12.888,1.917 13.321,1.917" style="fill:rgb(220,225,214);fill-rule:nonzero;"/>
        </g>
    </g>
</svg>
