<?xml version="1.0" encoding="utf-8"?>
<!-- Generator: Adobe Illustrator 22.0.1, SVG Export Plug-In . SVG Version: 6.00 Build 0)  -->
<svg version="1.1" id="Capa_1" xmlns="http://www.w3.org/2000/svg" xmlns:xlink="http://www.w3.org/1999/xlink" x="0px" y="0px"
	 viewBox="0 0 471.1 135" style="enable-background:new 0 0 471.1 135;" xml:space="preserve">
<style type="text/css">
	.st0{fill:#DCE1D6;}
</style>
<g transform="matrix(0.16408,-2.29173e-33,-4.78922e-33,0.100427,113.041,416.34)">
	<path class="st0" d="M44.8-4031.8V-2915H25v-1116.8H44.8z M-234.6-3852.8c5.3,0,9.6,7,9.6,15.6c0,8.6-4.3,15.5-9.6,15.5h-412.3
		c-5.3,0-9.6-7-9.6-15.5c0-8.7,4.3-15.6,9.6-15.6H-234.6z M-234.6-3773.3c5.3,0,9.6,7,9.6,15.5c0,8.7-4.3,15.5-9.6,15.5h-412.3
		c-5.3,0-9.6-6.9-9.6-15.5c0-8.6,4.3-15.5,9.6-15.5H-234.6z M-646.9-3781.8c-5.3,0-9.6-7-9.6-15.6c0-8.6,4.3-15.5,9.6-15.5h21.4
		c5.3,0,9.6,7,9.6,15.5c0,8.7-4.2,15.6-9.6,15.6H-646.9z M-234.6-3813c5.3,0,9.6,7,9.6,15.6c0,8.6-4.3,15.5-9.6,15.5H-256
		c-5.3,0-9.7-7-9.7-15.5c0-8.7,4.3-15.6,9.7-15.6H-234.6z M-419.3-3781.8h-42.9c-5.3,0-9.7-7-9.7-15.6c0-8.6,4.3-15.5,9.7-15.5h42.9
		c5.3,0,9.6,7,9.6,15.5C-409.7-3788.8-414-3781.8-419.3-3781.8z M-575.5-3798l31.6-17.7l31.5,17.7l-31.5,17.7L-575.5-3798z
		 M-369.3-3798l31.6-17.7l31.5,17.7l-31.5,17.7L-369.3-3798z M-275.4-3798c0,9.4-4.7,17-10.5,17c-5.8,0-10.5-7.6-10.5-17
		c0-9.4,4.7-17.1,10.5-17.1C-280.1-3815.1-275.4-3807.5-275.4-3798z M-379-3798c0,9.4-4.7,17-10.5,17c-5.8,0-10.5-7.6-10.5-17
		c0-9.4,4.7-17.1,10.5-17.1C-383.7-3815.1-379-3807.5-379-3798z M-481.6-3798c0,9.4-4.8,17-10.5,17c-5.8,0-10.5-7.6-10.5-17
		c0-9.4,4.7-17.1,10.5-17.1C-486.3-3815.1-481.6-3807.5-481.6-3798z M-585.2-3798c0,9.4-4.7,17-10.5,17c-5.8,0-10.5-7.6-10.5-17
		c0-9.4,4.7-17.1,10.5-17.1C-589.9-3815.1-585.2-3807.5-585.2-3798z M-214-4031.9c10.4,0,19.9,8.3,21.4,10.5
		c-5.4,0-14.1,0.8-21.4,12.5c-10.2,16.6-10.9,29.9-10.9,75.5c0,48.6-15.4,72.4-37.5,72.4c-12.7,0-25.6-15.8-25.6-15.8
		s-13,15.8-25.7,15.8c-13.4,0-25.3-16.8-25.3-16.8s-11.9,16.8-25.3,16.8c-12.7,0-25.6-15.8-25.6-15.8s-12.9,15.8-25.6,15.8
		c-13.4,0-25.3-16.8-25.3-16.8s-11.9,16.8-25.3,16.8c-12.7,0-25.6-15.8-25.6-15.8s-12.9,15.8-25.6,15.8c-13.4,0-25.3-16.8-25.3-16.8
		s-11.9,16.8-25.3,16.8c-12.7,0-25.6-15.8-25.6-15.8s-13,15.8-25.7,15.8c-22,0-37.4-23.8-37.4-72.4c0-45.6-0.7-58.9-11-75.5
		c-7.2-11.7-15.9-12.5-21.3-12.5c1.4-2.2,11-10.5,21.4-10.5c16.3,0,25.7,22.2,28.1,29.1c1.2-0.4,6.2-1.7,7.7-1.7
		c6.1,0,9.4,1,11.6,3.6c-4.2,4.3-9.6,10.7-10.7,26.1c9.4-1.8,13.2-10.4,16-17.2c1.5,3.6,2.1,8.8,2.1,18.9c0,2.1-0.1,4.6-0.1,6.7
		c6.9,1.1,13.6,7.7,16.5,14.2c-2.9,6.5-9.6,13.1-16.5,14.1c0.1,2.1,0.1,4.7,0.1,6.7c0,9.9-0.6,15.4-2.1,18.9
		c-3.1-7.6-7.6-17.6-19.8-17.6h-1.8c-0.1,1.4-0.1,2.5-0.1,3.7c0,17.3,4.9,32.9,17.8,32.9c8.6,0,13.1-10.2,15.2-16.6
		c-1.4-3.1-2.3-7.1-2.3-11.4c0-5.4,1.4-10.3,3.6-13.8c2.2-3.5,5.2-5.7,8.6-5.7c6.6,0,12,8.7,12,19.5c0,4.2-0.8,8.2-2.3,11.4
		c2,6.5,6.6,16.6,15.2,16.6c12.9,0,17.8-15.5,17.8-32.9c0-1.2,0-2.4-0.1-3.7h-1.8c-12.1,0-16.7,9.9-19.7,17.6
		c-1.5-3.5-2.1-8.9-2.1-18.9c0-2,0-4.6,0.1-6.7c-6.9-1-13.7-7.6-16.5-14.1c2.8-6.4,9.6-13.1,16.5-14.2c-0.1-2.1-0.1-4.6-0.1-6.7
		c0-10,0.6-15.3,2.1-18.9c2.7,6.8,6.6,15.5,16,17.2c-1-15.4-6.4-21.7-10.6-26.1c2.1-2.6,5.5-3.6,11.6-3.6c1.3,0,2.8,0.1,4.1,0.3
		c0.6-11.2,4.8-22.1,8.7-26.8c3.9,4.7,8,15.5,8.7,26.8c1.3-0.2,2.8-0.3,4.1-0.3c6.2,0,9.4,1,11.6,3.6c-4.2,4.3-9.6,10.7-10.7,26.1
		c9.4-1.8,13.3-10.4,16-17.2c1.5,3.6,2.1,8.8,2.1,18.9c0,2.1,0,4.6,0,6.7c6.9,1.1,13.6,7.7,16.5,14.2c-2.9,6.5-9.6,13.1-16.5,14.1
		c0,2.1,0,4.7,0,6.7c0,9.9-0.6,15.4-2.1,18.9c-3.1-7.6-7.6-17.6-19.7-17.6h-1.8c0,1.4,0,2.5,0,3.7c0,17.3,4.9,32.9,17.8,32.9
		c8.5,0,13.1-10.1,15.1-16.6c-1.4-3.2-2.3-7.2-2.3-11.5c0-10.9,5.4-19.5,12.1-19.5c6.6,0,12,8.7,12,19.5c0,4.2-0.8,8.2-2.3,11.3
		c2,6.4,6.6,16.7,15.2,16.7c12.9,0,17.8-15.5,17.8-32.9c0-1.2-0.1-2.4-0.1-3.7h-1.8c-12.2,0-16.6,9.9-19.8,17.6
		c-1.5-3.5-2.1-8.9-2.1-18.9c0-2,0-4.6,0-6.7c-6.9-1-13.6-7.6-16.4-14.1c2.9-6.4,9.6-13.1,16.4-14.2c0-2.1,0-4.6,0-6.7
		c0-10,0.6-15.3,2.1-18.9c2.8,6.8,6.7,15.5,16,17.2c-1.1-15.4-6.4-21.7-10.6-26.1c2.1-2.6,5.4-3.6,11.6-3.6c1.3,0,2.8,0.1,4.1,0.3
		c0.7-11.2,4.8-22.1,8.7-26.8c4,4.7,8.1,15.5,8.7,26.8c1.3-0.2,2.8-0.3,4.1-0.3c6.1,0,9.5,1,11.6,3.6c-4.1,4.3-9.6,10.7-10.6,26.1
		c9.4-1.8,13.2-10.4,16-17.2c1.5,3.6,2,8.8,2,18.9c0,2.1,0,4.6-0.1,6.7c6.9,1.1,13.7,7.7,16.5,14.2c-2.8,6.5-9.6,13.1-16.5,14.1
		c0.1,2.1,0.1,4.7,0.1,6.7c0,9.9-0.6,15.4-2,18.9c-3.1-7.6-7.6-17.6-19.8-17.6h-1.8c-0.1,1.4-0.1,2.5-0.1,3.7
		c0,17.3,4.9,32.9,17.8,32.9c8.6,0,13.1-10.2,15.2-16.6c-1.5-3.1-2.2-7.1-2.2-11.4c0-9.4,4.1-17.3,9.6-19.1c0.8-0.3,1.6-0.4,2.4-0.4
		c6.7,0,12.1,8.7,12.1,19.5c0,4.2-0.9,8.2-2.3,11.4c2,6.5,6.6,16.6,15.2,16.6c12.9,0,17.8-15.5,17.8-32.9c0-1.2,0-2.4-0.1-3.7h-1.8
		c-12.2,0-16.6,9.9-19.7,17.6c-1.5-3.5-2.1-8.9-2.1-18.9c0-2,0-4.6,0.1-6.7c-6.9-1-13.7-7.6-16.5-14.1c2.9-6.4,9.6-13.1,16.5-14.2
		c-0.1-2.1-0.1-4.6-0.1-6.7c0-10,0.6-15.3,2.1-18.9c2.7,6.8,6.6,15.5,15.9,17.2c-1.1-15.4-6.4-21.7-10.6-26.1
		c2.2-2.6,5.4-3.6,11.6-3.6c1.3,0,2.8,0.1,4.1,0.3c0.7-11.2,4.8-22.1,8.7-26.8c3.9,4.7,8.1,15.5,8.7,26.8c1.3-0.2,2.9-0.3,4.1-0.3
		c6.1,0,9.4,1,11.6,3.6c-4.2,4.3-9.5,10.7-10.7,26.1c9.4-1.8,13.2-10.4,16-17.2c1.5,3.6,2.2,8.8,2.2,18.9c0,2.1-0.1,4.6-0.2,6.7
		c6.9,1.1,13.7,7.7,16.5,14.2c-2.8,6.5-9.6,13.1-16.5,14.1c0.1,2.1,0.2,4.7,0.2,6.7c0,9.9-0.7,15.4-2.2,18.9
		c-3.1-7.6-7.6-17.6-19.7-17.6h-1.8c0,1.4-0.1,2.5-0.1,3.7c0,17.3,5,32.9,17.8,32.9c8.6,0,13.1-10.2,15.2-16.6
		c-1.4-3.1-2.3-7.1-2.3-11.4c0-10.9,5.4-19.5,12.1-19.5c6.6,0,12,8.7,12,19.5c0,4.2-0.8,8.2-2.3,11.4c2,6.5,6.5,16.6,15.1,16.6
		c12.9,0,17.8-15.5,17.8-32.9c0-1.2,0-2.4-0.1-3.7h-1.8c-12.1,0-16.6,9.9-19.7,17.6c-1.5-3.5-2.1-8.9-2.1-18.9c0-2,0-4.6,0-6.7
		c-6.9-1-13.5-7.6-16.4-14.1c2.9-6.4,9.6-13.1,16.4-14.2c0-2.1,0-4.6,0-6.7c0-10,0.6-15.3,2.1-18.9c2.7,6.8,6.6,15.5,15.9,17.2
		c-1-15.4-6.4-21.7-10.6-26.1c2.2-2.6,5.5-3.6,11.6-3.6c1.6,0,6.5,1.3,7.7,1.7C-239.7-4009.8-230.3-4031.9-214-4031.9z M-650-3731.4
		h418.3l0,557.1c0,165-70.7,259.2-209.2,259.2c-138.5,0-209.2-94.2-209.2-259.2V-3731.4z M-244.8-3387.5l-8.3-18.3l8.3-18.3
		l-13.9,2.5l-5.6-20.8l-5.6,20.8l-13.9-2.5l8.2,18.3l-8.2,18.3l13.9-2.4l5.6,20.6l5.6-20.6L-244.8-3387.5z M-247.4-3113.8l-8.2-18.2
		l8.2-18.2l-13.8,2.5l-5.6-20.6l-5.6,20.6l-13.9-2.5l8.3,18.2l-8.3,18.2l13.9-2.4l5.6,20.8l5.6-20.8L-247.4-3113.8z M-595.4-3113.8
		l-8.2-18.2l8.2-18.2l-13.8,2.5l-5.7-20.6l-5.6,20.6l-13.8-2.5l8.2,18.2l-8.2,18.2l13.8-2.4l5.6,20.8l5.7-20.8L-595.4-3113.8z
		 M-636.8-3424l8.2,18.3l-8.2,18.3l13.9-2.4l5.6,20.6l5.6-20.6l13.8,2.4l-8.3-18.3l8.3-18.3l-13.8,2.5l-5.6-20.8l-5.6,20.8
		L-636.8-3424z M-636.8-3697.9l8.2,18.3l-8.2,18.3l13.9-2.5l5.6,20.7l5.6-20.7l13.8,2.5l-8.3-18.3l8.3-18.3l-13.8,2.4l-5.6-20.6
		l-5.6,20.6L-636.8-3697.9z M-460.3-3697.9l8.2,18.3l-8.2,18.3l13.9-2.5l5.6,20.7l5.6-20.7l13.9,2.5l-8.3-18.3l8.3-18.3l-13.9,2.4
		l-5.6-20.6l-5.6,20.6L-460.3-3697.9z M-440.9-3025c80.1,0,115.8-38.9,131.7-81.4h-263.3C-556.6-3063.9-520.8-3025-440.9-3025z
		 M-395.9-3167.5c-1.3-2.6-1.5-7.1-0.3-9.9l2.6-5.5c-3.2-2.8-9.9-11.7-12.1-39.1c-0.5-5.8-0.8-12.5-0.8-20v-6.5l-4.6,2
		c-2.6,1.1-5.6-1.3-7-5.4l-9.9-31.9v128.3c0,15.2,7.6,27.6,17,27.6h16.5l1.6-3.7c0.8-1.9,2.5-4,3.8-4.8l7.3-4L-395.9-3167.5z
		 M-244.8-3661.2l-8.3-18.3l8.3-18.3l-13.9,2.4l-5.6-20.6l-5.6,20.6l-13.9-2.4l8.2,18.3l-8.2,18.3l13.9-2.5l5.6,20.7l5.6-20.7
		L-244.8-3661.2z M-297-3185.9v-441.9h-287.7v441.9c0,15.8,0.9,36.5,5.9,57.9h105.3c9.4,0,17.1-12.4,17.1-27.6v-259.3
		c-44.1-7-77.9-46.5-77.9-94c0-52.6,41.3-95.3,92.1-95.3c50.9,0,92.1,42.7,92.1,95.3c0,47.6-33.7,87.1-77.8,94v56.7l6.1,9.9
		c1,1.6,1.8,4.7,1.8,7v14.2c0,8,3,14.4,6.7,14.4h6.7v-44.2l-9.4-24.6c-1.1-2.9-1-7.6,0.2-10.3l6.1-13.8c0.8-1.9,2.4-2.3,3.5-0.8
		l10.5,13.4l4.6-1.4c1.3-0.5,3.4,0.3,4.4,1.6l7.4,9.5l5.1-1.4c2.7-0.8,5.8,2,6.6,6.4l1,5c0.9,4.2-0.4,9.5-2.8,11.8l-3.5,3l1.2,29.3
		l15.5,71.9l12.9,36.2c2.4,6.5,3.7,14,3.7,22c0,11.6-2.8,22.1-7.3,29.9l11.1,41.2h33.1C-297.8-3149.3-297-3170.1-297-3185.9z
		 M360.4-2914.8c-37.2,0-60.1-44.1-60.1-102c0-56.8,24.4-100.4,60.3-100.4c29.4,0,47.9,27.5,53.6,58.8l-20.5,12.8
		c-4.4-20.8-13.9-40.8-33.3-40.8c-22.6,0-36.8,25.5-36.8,69.6c0,43.8,14.1,71,36.8,71c19.2,0,29-18.3,33.9-41.6l20,13
		C406.9-2939.2,389.3-2914.8,360.4-2914.8z M485.7-2914.8c-37.5,0-61.8-41.9-61.8-100.9c0-58.8,24.4-101.5,61.8-101.5
		c37.2,0,61.8,42.7,61.8,101.5C547.5-2956.6,523.2-2914.8,485.7-2914.8z M485.7-2945.6c24.3,0,38.5-29.9,38.5-70.2
		c0-40.8-14.3-70.7-38.5-70.7c-24.3,0-38.7,29.9-38.7,70.7C447-2975.5,461.4-2945.6,485.7-2945.6z M560.3-2918.9V-3113h30.2
		l57.7,133.1V-3113h22.1v194.1h-20.9l-67-155v155H560.3z M725.3-2918.9v-163.3h-41.2v-30.8h105.2v30.8h-41.9v163.3H725.3z
		 M803-2918.9V-3113h87.3v30.8h-65.2v48H874v30.5h-48.9v54.1h65.2v30.8H803z M910.5-2918.9V-3113h36.2l22.7,101.5
		c5.6,25.8,7.6,34.4,9,39.4c1.4-5.6,3.2-13.6,9-39.4l22.7-101.5h35v194.1H1023v-161.4l-36.2,161.4h-18.3l-36-161.4v161.4H910.5z
		 M1065.6-2918.9V-3113h51.1c25.3,0,41.6,24.1,41.6,61.3c0,36.9-16.3,61.6-41.6,61.6h-29v71.3H1065.6z M1087.7-3020.7h25.1
		c14.1,0,22.4-12.2,22.4-31.1c0-18.6-8.3-30.5-22.4-30.5h-25.1V-3020.7z M1229.1-2914.8c-37.5,0-61.8-41.9-61.8-100.9
		c0-58.8,24.4-101.5,61.8-101.5c37.2,0,61.8,42.7,61.8,101.5C1290.8-2956.6,1266.6-2914.8,1229.1-2914.8z M1229.1-2945.6
		c24.3,0,38.5-29.9,38.5-70.2c0-40.8-14.3-70.7-38.5-70.7c-24.3,0-38.7,29.9-38.7,70.7C1190.4-2975.5,1204.8-2945.6,1229.1-2945.6z
		 M1307.1-2918.9V-3113h55.3c25.1,0,39.7,21.6,39.7,51.9c0,32.7-14.6,48.8-29.5,53.2c15.1,3,23.3,15,26.1,41.6l5.4,47.4h-23.7
		l-4.1-44.4c-2.2-23.6-9.2-32.2-24.5-32.2h-22.7v76.5H1307.1z M1329.2-3025.7h29.4c11.7,0,20.5-8.9,20.5-28.3
		c0-19.4-8.8-28.3-20.5-28.3h-29.4V-3025.7z M1502-3172.9l-20.9,41H1466l9.3-41H1502z M1508.1-2918.9l-10-48H1448l-10.4,48h-23.7
		l45-194.1h29.4l44.3,194.1H1508.1z M1454.6-2997.7h36.8l-9.8-47.1l-8.5-39.1c-1.5,7.5-3.7,17.7-8.3,39.4L1454.6-2997.7z
		 M1543.1-2918.9V-3113h30.2l57.7,133.1V-3113h22.1v194.1h-20.9l-67-155v155H1543.1z M1677.1-2918.9V-3113h87.2v30.8h-65.2v48h48.9
		v30.5h-48.9v54.1h65.2v30.8H1677.1z M1868.2-2918.9l-10-48h-50.1l-10.4,48H1774l45-194.1h29.4l44.3,194.1H1868.2z M1814.8-2997.7
		h36.8l-9.9-47.1l-8.5-39.1c-1.5,7.5-3.7,17.7-8.3,39.4L1814.8-2997.7z M360.4-3182.8c-37.2,0-60.1-44.1-60.1-102
		c0-56.8,24.4-100.4,60.3-100.4c29.4,0,47.9,27.5,53.6,58.8l-20.5,12.8c-4.4-20.8-13.9-40.8-33.3-40.8c-22.6,0-36.8,25.5-36.8,69.6
		c0,43.8,14.1,71,36.8,71c19.2,0,29-18.3,33.9-41.6l20,13C406.9-3207.2,389.3-3182.8,360.4-3182.8z M434.9-3187v-194.1h87.2v30.8
		H457v48h48.9v30.5H457v54.1h65.2v30.8H434.9z M535.6-3187v-194.1h30.2l57.7,133.1v-133.1h22.1v194.1h-20.9l-67-155v155H535.6z
		 M703.9-3187v-163.3h-41.2v-30.8h105.2v30.8H726v163.3H703.9z M778.3-3187v-194.1h55.3c25.1,0,39.7,21.6,39.7,51.9
		c0,32.7-14.6,48.8-29.5,53.2c15.1,3,23.3,15,26.1,41.6l5.4,47.4h-23.8l-4.1-44.4c-2.2-23.6-9.2-32.2-24.5-32.2h-22.7v76.5H778.3z
		 M800.3-3293.8h29.4c11.7,0,20.5-8.9,20.5-28.3c0-19.4-8.8-28.3-20.5-28.3h-29.4V-3293.8z M949-3182.8
		c-37.5,0-61.8-41.9-61.8-100.9c0-58.8,24.4-101.5,61.8-101.5c37.2,0,61.8,42.7,61.8,101.5C1010.8-3224.7,986.5-3182.8,949-3182.8z
		 M949-3213.6c24.3,0,38.5-29.9,38.5-70.2c0-40.8-14.3-70.7-38.5-70.7s-38.7,29.9-38.7,70.7C910.3-3243.6,924.7-3213.6,949-3213.6z
		 M1059.4-3187v-194.1h43.4c33.9,0,60.4,36.3,60.4,95.9c0,61.8-26.3,98.2-60.9,98.2H1059.4z M1081.4-3217.8h19.2
		c26.8,0,39.7-23,39.7-66.8c0-39.4-12.6-65.7-38.5-65.7h-20.4V-3217.8z M1179.7-3187v-194.1h87.2v30.8h-65.2v48h48.9v30.5h-48.9
		v54.1h65.2v30.8H1179.7z M1368.3-3182.8c-37.2,0-60.1-44.1-60.1-102c0-56.8,24.4-100.4,60.3-100.4c29.4,0,47.9,27.5,53.6,58.8
		l-20.5,12.8c-4.4-20.8-13.9-40.8-33.3-40.8c-22.6,0-36.8,25.5-36.8,69.6c0,43.8,14.1,71,36.8,71c19.2,0,29-18.3,33.9-41.6l20,13
		C1414.8-3207.2,1397.2-3182.8,1368.3-3182.8z M1439.4-3187v-194.1h55.3c25.1,0,39.7,21.6,39.7,51.9c0,32.7-14.6,48.8-29.5,53.2
		c15.1,3,23.2,15,26.1,41.6l5.4,47.4h-23.8l-4.1-44.4c-2.2-23.6-9.2-32.2-24.4-32.2h-22.8v76.5H1439.4z M1461.5-3293.8h29.4
		c11.7,0,20.5-8.9,20.5-28.3c0-19.4-8.8-28.3-20.5-28.3h-29.4V-3293.8z M1553.3-3187v-194.1h87.2v30.8h-65.2v48h48.9v30.5h-48.9
		v54.1h65.2v30.8H1553.3z M1744.4-3187l-10-48h-50.1l-10.4,48h-23.8l45-194.1h29.4l44.3,194.1H1744.4z M1691-3265.8h36.8l-9.8-47.1
		l-8.5-39.1c-1.5,7.5-3.7,17.7-8.3,39.4L1691-3265.8z M1829.1-3182.8c-37.2,0-60.1-44.1-60.1-102c0-56.8,24.4-100.4,60.3-100.4
		c29.4,0,47.9,27.5,53.6,58.8l-20.5,12.8c-4.4-20.8-13.9-40.8-33.3-40.8c-22.6,0-36.8,25.5-36.8,69.6c0,43.8,14.1,71,36.8,71
		c19.2,0,29-18.3,33.9-41.6l20,13C1875.6-3207.2,1858-3182.8,1829.1-3182.8z M1896.8-3187v-194.1h22.1v194.1H1896.8z M1989.3-3400
		l9.3-41h26.5l-20.7,41H1989.3z M1997-3182.8c-37.5,0-61.8-41.9-61.8-100.9c0-58.8,24.4-101.5,61.8-101.5
		c37.2,0,61.8,42.7,61.8,101.5C2058.8-3224.7,2034.5-3182.8,1997-3182.8z M1997-3213.6c24.3,0,38.5-29.9,38.5-70.2
		c0-40.8-14.3-70.7-38.5-70.7c-24.3,0-38.7,29.9-38.7,70.7C1958.3-3243.6,1972.7-3213.6,1997-3213.6z M2071.7-3187v-194.1h30.2
		l57.7,133.1v-133.1h22.1v194.1h-20.9l-67-155v155H2071.7z M1959.8-3662.5v-181.3c0-124.1,44.5-180.5,105-180.5h1.4l0,107.6h-0.5
		c-18.2,0-28.7,14.9-28.7,53.5v220c0,38.6,10.5,53.5,28.7,53.5h0.5v107.6h-1.4C2004.3-3481.9,1959.8-3538.4,1959.8-3662.5z
		 M2076.6-3481.9h-1.4l0-107.6h0.5c18.2,0,28.7-14.9,28.7-53.5v-220c0-38.7-10.5-53.5-28.7-53.5h-0.5l0-107.6h1.4
		c60.5,0,105,56.4,105,180.5v181.3C2181.6-3538.4,2137.1-3481.9,2076.6-3481.9z M342.6-4018.3l25.4,200.5
		c1.4,47.6,2.7,99.6,2.7,149.4v180.5h-70.4v-530.4H342.6z M419.4-3487.9l-67.8-530.4h68.2l68.2,530.4H419.4z M526.8-3761.3
		l-33.6,241.4l-26.9-207.2l35-291.2h106.4v530.4h-70v-221.4c0-47.6,1.4-115.2,2.7-152.4h-0.9
		C536.8-3837.8,533.6-3810.3,526.8-3761.3z M719.1-3698.8h39.2l10,97.2h-60.9l-13.2,113.7h-71.4l66.4-530.4H725l15,143.3
		L719.1-3698.8z M734.2-4018.3h64.6l68.2,530.4h-77.8L734.2-4018.3z M1026.5-4018.3v106.9H841.9v-106.9H1026.5z M1098.4-3698.8h39.2
		l10,97.2h-60.9l-13.2,113.7H1002l66.4-530.4h35.9l15,143.3L1098.4-3698.8z M1113.5-4018.3h64.6l68.2,530.4h-77.8L1113.5-4018.3z
		 M1338.5-4018.3v530.4h-77.3v-530.4H1338.5z M1369.5-3487.9h-21.8v-108.4h17.7c19.6,0,34.1-14.1,34.1-58.7v-196.2
		c0-44.6-14.6-58.7-34.1-58.7h-17.7l0-108.4h21.8c63.7,0,107.3,50.5,107.3,178.2v173.9C1476.8-3538.4,1433.1-3487.9,1369.5-3487.9z
		 M1585-4018.3v530.4h-77.3v-530.4H1585z M1693.2-4018.3v106.9h-99.1v-106.9H1693.2z M1798.7-4018.3v530.4h-77.3v-530.4H1798.7z
		 M1831.5-3684h-23.6v-103.2l20.5-0.1c23.7,0,30.9-17.1,30.9-66.1v-0.7c0-43.8-7.3-60.2-29.1-60.2h-22.3v-103.9h31.4
		c61.8,0,97.7,47.5,97.7,151.5v0.7c0,63.2-14.5,107.7-46.8,125.7v1.5c35.9,11.9,42.3,50.5,42.3,100.3v150.8h-76.3v-150.8
		C1856.1-3666.2,1852-3684,1831.5-3684z M895.6-3487.9v-410.1h77.3v410.1H895.6z M1685-3810.3v106.9h-90.9v-106.9H1685z
		 M1693.2-3594.8v106.9h-99.1v-106.9H1693.2z"/>
</g>
</svg>
