<?xml version="1.0" encoding="UTF-8" standalone="no"?>
<!DOCTYPE svg PUBLIC "-//W3C//DTD SVG 1.1//EN" "http://www.w3.org/Graphics/SVG/1.1/DTD/svg11.dtd">
<svg width="100%" height="100%" viewBox="0 0 1901 435" version="1.1" xmlns="http://www.w3.org/2000/svg" xmlns:xlink="http://www.w3.org/1999/xlink" xml:space="preserve" xmlns:serif="http://www.serif.com/" style="fill-rule:evenodd;clip-rule:evenodd;stroke-linejoin:round;stroke-miterlimit:2;">
    <g transform="matrix(1,0,0,1,-5870.703125,-657)">
        <g id="Página-3" serif:id="Página 3" transform="matrix(3.192327,0,0,1.034568,5870.703125,657)">
            <rect x="0" y="0" width="595.275" height="419.527" style="fill:none;"/>
        </g>
        <g transform="matrix(8.376777,0,0,8.376777,5717.69658,499.38023)">
            <g id="font_1_6" transform="matrix(26.2706,0,0,-26.2706,17.7085,40.9043)">
                <rect x="0.077" y="0" width="0.107" height="0.68" style="fill:rgb(220,225,214);fill-rule:nonzero;"/>
            </g>
            <g id="font_1_8" transform="matrix(26.2706,0,0,-26.2706,24.565127,40.9043)">
                <path d="M0.61,-0.01L0.618,-0.01L0.618,0.68L0.518,0.68L0.518,0.233L0.082,0.69L0.074,0.69L0.074,0L0.174,0L0.174,0.447L0.61,-0.01Z" style="fill:rgb(220,225,214);fill-rule:nonzero;"/>
            </g>
            <g id="font_1_3" transform="matrix(26.2706,0,0,-26.2706,42.71811,40.9043)">
                <path d="M0.074,0L0.266,0C0.489,0 0.624,0.139 0.624,0.34C0.624,0.541 0.488,0.68 0.266,0.68L0.074,0.68L0.074,0M0.181,0.095L0.181,0.585L0.26,0.585C0.436,0.585 0.513,0.484 0.513,0.34C0.513,0.196 0.436,0.095 0.26,0.095L0.181,0.095Z" style="fill:rgb(220,225,214);fill-rule:nonzero;"/>
            </g>
            <g id="font_1_12" transform="matrix(26.2706,0,0,-26.2706,60.188058,40.9043)">
                <path d="M0.33,-0.009C0.477,-0.009 0.589,0.074 0.589,0.24L0.589,0.68L0.482,0.68L0.482,0.246C0.482,0.137 0.428,0.088 0.33,0.088C0.231,0.088 0.177,0.137 0.177,0.246L0.177,0.68L0.07,0.68L0.07,0.24C0.07,0.074 0.182,-0.009 0.33,-0.009Z" style="fill:rgb(220,225,214);fill-rule:nonzero;"/>
            </g>
            <g id="font_1_10" transform="matrix(26.2706,0,0,-26.2706,77.50038,40.9043)">
                <path d="M0.022,0.134C0.068,0.047 0.152,-0.009 0.267,-0.009C0.396,-0.009 0.492,0.054 0.492,0.179C0.492,0.294 0.424,0.341 0.321,0.387L0.274,0.408C0.2,0.441 0.167,0.462 0.167,0.516C0.167,0.563 0.199,0.595 0.254,0.595C0.305,0.595 0.339,0.573 0.365,0.529L0.446,0.582C0.403,0.654 0.339,0.689 0.252,0.689C0.14,0.689 0.063,0.616 0.063,0.512C0.063,0.406 0.131,0.354 0.231,0.31L0.278,0.289C0.338,0.262 0.386,0.24 0.386,0.176C0.386,0.121 0.338,0.087 0.266,0.087C0.196,0.087 0.143,0.119 0.112,0.179L0.022,0.134Z" style="fill:rgb(220,225,214);fill-rule:nonzero;"/>
            </g>
            <g id="font_1_11" transform="matrix(26.2706,0,0,-26.2706,91.45007,40.9043)">
                <path d="M0.226,0L0.333,0L0.333,0.585L0.535,0.585L0.535,0.68L0.024,0.68L0.024,0.585L0.226,0.585L0.226,0Z" style="fill:rgb(220,225,214);fill-rule:nonzero;"/>
            </g>
            <g id="font_1_9" transform="matrix(26.2706,0,0,-26.2706,106.13534,40.9043)">
                <path d="M0.402,0.193C0.491,0.234 0.538,0.315 0.538,0.42C0.538,0.577 0.435,0.68 0.248,0.68L0.074,0.68L0.074,0L0.181,0L0.181,0.162L0.248,0.162C0.265,0.162 0.282,0.163 0.297,0.165L0.413,0L0.54,0L0.402,0.193M0.181,0.254L0.181,0.585L0.244,0.585C0.374,0.585 0.428,0.523 0.428,0.42C0.428,0.316 0.375,0.254 0.244,0.254L0.181,0.254Z" style="fill:rgb(220,225,214);fill-rule:nonzero;"/>
            </g>
            <g id="font_1_14" transform="matrix(26.2706,0,0,-26.2706,121.52991,40.9043)">
                <path d="M0.277,0.216L0.277,0L0.384,0L0.384,0.217L0.634,0.68L0.522,0.68L0.332,0.325L0.139,0.68L0.021,0.68L0.277,0.216Z" style="fill:rgb(220,225,214);fill-rule:nonzero;"/>
            </g>
            <g id="font_1_13" transform="matrix(26.2706,0,0,-26.2706,143.49213,40.9043)">
                <path d="M0.324,-0.01L0.33,-0.01L0.624,0.68L0.516,0.68L0.328,0.223L0.134,0.68L0.021,0.68L0.324,-0.01Z" style="fill:rgb(220,225,214);fill-rule:nonzero;"/>
            </g>
            <g id="font_1_61" serif:id="font_1_6" transform="matrix(26.2706,0,0,-26.2706,160.43666,40.9043)">
                <rect x="0.077" y="0" width="0.107" height="0.68" style="fill:rgb(220,225,214);fill-rule:nonzero;"/>
            </g>
            <g id="font_1_7" transform="matrix(26.2706,0,0,-26.2706,167.29329,40.9043)">
                <path d="M0.074,0L0.481,0L0.481,0.095L0.181,0.095L0.181,0.68L0.074,0.68L0.074,0Z" style="fill:rgb(220,225,214);fill-rule:nonzero;"/>
            </g>
            <g id="font_1_71" serif:id="font_1_7" transform="matrix(26.2706,0,0,-26.2706,180.82265,40.9043)">
                <path d="M0.074,0L0.481,0L0.481,0.095L0.181,0.095L0.181,0.68L0.074,0.68L0.074,0Z" style="fill:rgb(220,225,214);fill-rule:nonzero;"/>
            </g>
            <g id="font_1_2" transform="matrix(26.2706,0,0,-26.2706,194.352,40.9043)">
                <path d="M0.168,0.095L0.472,0.095L0.511,0L0.624,0L0.325,0.694L0.319,0.694L0.021,0L0.129,0L0.168,0.095M0.432,0.19L0.208,0.19L0.321,0.459C0.321,0.459 0.433,0.19 0.432,0.19Z" style="fill:rgb(220,225,214);fill-rule:nonzero;"/>
            </g>
            <g id="font_1_5" transform="matrix(26.2706,0,0,-26.2706,211.29654,40.9043)">
                <path d="M0.405,-0.009C0.533,-0.009 0.612,0.033 0.669,0.08L0.669,0.303L0.388,0.303L0.388,0.208L0.57,0.208L0.57,0.131C0.531,0.105 0.479,0.088 0.405,0.088C0.25,0.088 0.152,0.196 0.152,0.34C0.152,0.484 0.249,0.592 0.387,0.592C0.486,0.592 0.533,0.556 0.574,0.511L0.648,0.581C0.592,0.644 0.516,0.689 0.39,0.689C0.195,0.689 0.041,0.541 0.041,0.34C0.041,0.139 0.196,-0.009 0.405,-0.009Z" style="fill:rgb(220,225,214);fill-rule:nonzero;"/>
            </g>
            <g id="font_1_4" transform="matrix(26.2706,0,0,-26.2706,230.29019,40.9043)">
                <path d="M0.074,0L0.521,0L0.521,0.095L0.181,0.095L0.181,0.21L0.47,0.21L0.47,0.303L0.181,0.303L0.181,0.585L0.507,0.585L0.507,0.68L0.074,0.68L0.074,0Z" style="fill:rgb(220,225,214);fill-rule:nonzero;"/>
            </g>
            <g transform="matrix(1,0,0,-1,143.1113,41.4478)">
                <path d="M0,0L-2.293,1.172L-4.556,-0.051L-4.148,2.489L-6.012,4.262L-3.47,4.661L-2.361,6.981L-1.195,4.689L1.356,4.35L-0.465,2.531L0,0Z" style="fill:rgb(220,225,214);fill-rule:nonzero;"/>
            </g>
            <g id="font_2_6" transform="matrix(17.5137,0,0,-17.5137,16.6138,66.6074)">
                <path d="M0.099,0L0.46,0L0.46,0.028L0.131,0.028L0.131,0.68L0.099,0.68L0.099,0Z" style="fill:rgb(220,225,214);fill-rule:nonzero;"/>
            </g>
            <g id="font_2_3" transform="matrix(17.5137,0,0,-17.5137,27.157048,66.6074)">
                <path d="M0.099,0L0.505,0L0.505,0.028L0.131,0.028L0.131,0.237L0.454,0.237L0.454,0.265L0.131,0.265L0.131,0.652L0.491,0.652L0.491,0.68L0.099,0.68L0.099,0Z" style="fill:rgb(220,225,214);fill-rule:nonzero;"/>
            </g>
            <g id="font_2_9" transform="matrix(17.5137,0,0,-17.5137,39.066366,66.6074)">
                <path d="M0.035,0.125C0.077,0.046 0.152,-0.008 0.259,-0.008C0.386,-0.008 0.461,0.061 0.461,0.162C0.461,0.254 0.413,0.307 0.299,0.363L0.238,0.393C0.148,0.437 0.107,0.464 0.107,0.538C0.107,0.608 0.162,0.66 0.24,0.66C0.311,0.66 0.359,0.634 0.394,0.578L0.418,0.592C0.377,0.658 0.322,0.688 0.24,0.688C0.149,0.688 0.076,0.629 0.076,0.538C0.076,0.451 0.128,0.414 0.224,0.367L0.286,0.337C0.386,0.289 0.43,0.245 0.43,0.162C0.43,0.078 0.368,0.021 0.259,0.021C0.171,0.021 0.101,0.066 0.062,0.14L0.035,0.125Z" style="fill:rgb(220,225,214);fill-rule:nonzero;"/>
            </g>
            <g id="font_2_1" transform="matrix(17.5137,0,0,-17.5137,55.862005,66.6074)">
                <path d="M0.125,0.137L0.51,0.137L0.564,0L0.597,0L0.32,0.697L0.316,0.697L0.039,0L0.071,0L0.125,0.137M0.499,0.165L0.136,0.165L0.318,0.623L0.499,0.165Z" style="fill:rgb(220,225,214);fill-rule:nonzero;"/>
            </g>
            <g id="font_2_8" transform="matrix(17.5137,0,0,-17.5137,68.8922,66.6074)">
                <path d="M0.32,0.188C0.439,0.22 0.499,0.315 0.499,0.428C0.499,0.567 0.409,0.68 0.227,0.68L0.099,0.68L0.099,0L0.131,0L0.131,0.177L0.227,0.177C0.248,0.177 0.268,0.179 0.286,0.181L0.438,0L0.478,0L0.32,0.188M0.131,0.205L0.131,0.652L0.223,0.652C0.395,0.652 0.467,0.551 0.467,0.428C0.467,0.305 0.397,0.205 0.223,0.205L0.131,0.205Z" style="fill:rgb(220,225,214);fill-rule:nonzero;"/>
            </g>
            <g id="font_2_2" transform="matrix(17.5137,0,0,-17.5137,80.59135,66.6074)">
                <path d="M0.392,-0.008C0.506,-0.008 0.606,0.043 0.67,0.127L0.646,0.145C0.589,0.069 0.499,0.021 0.392,0.021C0.212,0.021 0.077,0.157 0.077,0.34C0.077,0.523 0.21,0.659 0.386,0.659C0.485,0.659 0.569,0.617 0.626,0.546L0.65,0.564C0.586,0.642 0.492,0.688 0.386,0.688C0.194,0.688 0.045,0.543 0.044,0.34C0.043,0.137 0.196,-0.008 0.392,-0.008Z" style="fill:rgb(220,225,214);fill-rule:nonzero;"/>
            </g>
            <g id="font_2_91" serif:id="font_2_9" transform="matrix(17.5137,0,0,-17.5137,94.98761,66.6074)">
                <path d="M0.035,0.125C0.077,0.046 0.152,-0.008 0.259,-0.008C0.386,-0.008 0.461,0.061 0.461,0.162C0.461,0.254 0.413,0.307 0.299,0.363L0.238,0.393C0.148,0.437 0.107,0.464 0.107,0.538C0.107,0.608 0.162,0.66 0.24,0.66C0.311,0.66 0.359,0.634 0.394,0.578L0.418,0.592C0.377,0.658 0.322,0.688 0.24,0.688C0.149,0.688 0.076,0.629 0.076,0.538C0.076,0.451 0.128,0.414 0.224,0.367L0.286,0.337C0.386,0.289 0.43,0.245 0.43,0.162C0.43,0.078 0.368,0.021 0.259,0.021C0.171,0.021 0.101,0.066 0.062,0.14L0.035,0.125Z" style="fill:rgb(220,225,214);fill-rule:nonzero;"/>
            </g>
            <g id="font_2_4" transform="matrix(17.5137,0,0,-17.5137,111.78325,66.6074)">
                <path d="M0.099,0L0.131,0L0.131,0.237L0.458,0.237L0.458,0.265L0.131,0.265L0.131,0.652L0.491,0.652L0.491,0.68L0.099,0.68L0.099,0Z" style="fill:rgb(220,225,214);fill-rule:nonzero;"/>
            </g>
            <g id="font_2_5" transform="matrix(17.5137,0,0,-17.5137,123.16715,66.6074)">
                <rect x="0.103" y="0" width="0.032" height="0.68" style="fill:rgb(220,225,214);fill-rule:nonzero;"/>
            </g>
            <g id="font_2_61" serif:id="font_2_6" transform="matrix(17.5137,0,0,-17.5137,129.2269,66.6074)">
                <path d="M0.099,0L0.46,0L0.46,0.028L0.131,0.028L0.131,0.68L0.099,0.68L0.099,0Z" style="fill:rgb(220,225,214);fill-rule:nonzero;"/>
            </g>
            <g id="font_2_7" transform="matrix(17.5137,0,0,-17.5137,139.77014,66.6074)">
                <path d="M0.099,0L0.129,0L0.129,0.61L0.41,0.241L0.413,0.241L0.697,0.61L0.697,0L0.727,0L0.727,0.694L0.723,0.694L0.413,0.287L0.103,0.694L0.099,0.694L0.099,0Z" style="fill:rgb(220,225,214);fill-rule:nonzero;"/>
            </g>
            <g id="font_2_41" serif:id="font_2_4" transform="matrix(17.5137,0,0,-17.5137,161.90746,66.6074)">
                <path d="M0.099,0L0.131,0L0.131,0.237L0.458,0.237L0.458,0.265L0.131,0.265L0.131,0.652L0.491,0.652L0.491,0.68L0.099,0.68L0.099,0Z" style="fill:rgb(220,225,214);fill-rule:nonzero;"/>
            </g>
            <g id="font_2_31" serif:id="font_2_3" transform="matrix(17.5137,0,0,-17.5137,173.29137,66.6074)">
                <path d="M0.099,0L0.505,0L0.505,0.028L0.131,0.028L0.131,0.237L0.454,0.237L0.454,0.265L0.131,0.265L0.131,0.652L0.491,0.652L0.491,0.68L0.099,0.68L0.099,0Z" style="fill:rgb(220,225,214);fill-rule:nonzero;"/>
            </g>
            <g id="font_2_92" serif:id="font_2_9" transform="matrix(17.5137,0,0,-17.5137,185.20069,66.6074)">
                <path d="M0.035,0.125C0.077,0.046 0.152,-0.008 0.259,-0.008C0.386,-0.008 0.461,0.061 0.461,0.162C0.461,0.254 0.413,0.307 0.299,0.363L0.238,0.393C0.148,0.437 0.107,0.464 0.107,0.538C0.107,0.608 0.162,0.66 0.24,0.66C0.311,0.66 0.359,0.634 0.394,0.578L0.418,0.592C0.377,0.658 0.322,0.688 0.24,0.688C0.149,0.688 0.076,0.629 0.076,0.538C0.076,0.451 0.128,0.414 0.224,0.367L0.286,0.337C0.386,0.289 0.43,0.245 0.43,0.162C0.43,0.078 0.368,0.021 0.259,0.021C0.171,0.021 0.101,0.066 0.062,0.14L0.035,0.125Z" style="fill:rgb(220,225,214);fill-rule:nonzero;"/>
            </g>
            <g id="font_2_10" transform="matrix(17.5137,0,0,-17.5137,195.77896,66.6074)">
                <path d="M0.244,0L0.276,0L0.276,0.652L0.494,0.652L0.494,0.68L0.026,0.68L0.026,0.652L0.244,0.652L0.244,0Z" style="fill:rgb(220,225,214);fill-rule:nonzero;"/>
            </g>
            <g id="font_2_51" serif:id="font_2_5" transform="matrix(17.5137,0,0,-17.5137,206.77756,66.6074)">
                <rect x="0.103" y="0" width="0.032" height="0.68" style="fill:rgb(220,225,214);fill-rule:nonzero;"/>
            </g>
            <g id="font_2_11" transform="matrix(17.5137,0,0,-17.5137,212.8373,66.6074)">
                <path d="M0.316,-0.017L0.32,-0.017L0.597,0.68L0.566,0.68L0.319,0.055L0.072,0.68L0.039,0.68L0.316,-0.017Z" style="fill:rgb(220,225,214);fill-rule:nonzero;"/>
            </g>
            <g id="font_2_12" serif:id="font_2_1" transform="matrix(17.5137,0,0,-17.5137,224.11612,66.6074)">
                <path d="M0.125,0.137L0.51,0.137L0.564,0L0.597,0L0.32,0.697L0.316,0.697L0.039,0L0.071,0L0.125,0.137M0.499,0.165L0.136,0.165L0.318,0.623L0.499,0.165Z" style="fill:rgb(220,225,214);fill-rule:nonzero;"/>
            </g>
            <g id="font_2_62" serif:id="font_2_6" transform="matrix(17.5137,0,0,-17.5137,237.14632,66.6074)">
                <path d="M0.099,0L0.46,0L0.46,0.028L0.131,0.028L0.131,0.68L0.099,0.68L0.099,0Z" style="fill:rgb(220,225,214);fill-rule:nonzero;"/>
            </g>
        </g>
    </g>
</svg>
