<?xml version="1.0" encoding="UTF-8" standalone="no"?>
<!DOCTYPE svg PUBLIC "-//W3C//DTD SVG 1.1//EN" "http://www.w3.org/Graphics/SVG/1.1/DTD/svg11.dtd">
<svg width="100%" height="100%" viewBox="0 0 166 208" version="1.1" xmlns="http://www.w3.org/2000/svg" xmlns:xlink="http://www.w3.org/1999/xlink" xml:space="preserve" xmlns:serif="http://www.serif.com/" style="fill-rule:evenodd;clip-rule:evenodd;stroke-linejoin:round;stroke-miterlimit:2;">
    <g id="Artboard1" transform="matrix(0.384132,0,0,1,0,0)">
        <rect x="0" y="0" width="432" height="208" style="fill:none;"/>
        <clipPath id="_clip1">
            <rect x="0" y="0" width="432" height="208"/>
        </clipPath>
        <g clip-path="url(#_clip1)">
            <g transform="matrix(5.3375,0,0,2.05031,74.6876,191.7)">
                <path d="M0,-85.477L2.65,-76.678L-2.721,-76.678L0,-85.477ZM-4.417,-71.13L4.276,-71.13L5.372,-67.632L13.852,-67.632L4.523,-92.579L-4.452,-92.579L-13.993,-67.632L-5.512,-67.632L-4.417,-71.13ZM66.184,7.207L60.779,7.207L60.779,1.799L66.184,1.799L66.184,7.207ZM42.578,-49.999C41.164,-51.801 41.199,-54.698 41.199,-55.158C41.199,-58.091 42.118,-59.858 43.001,-60.776C44.309,-62.155 46.111,-62.26 46.712,-62.26C47.172,-62.26 48.338,-62.19 49.468,-61.518C52.224,-59.858 52.119,-56.077 52.119,-55.405C52.119,-52.402 51.306,-50.776 50.353,-49.752C49.362,-48.621 48.196,-48.196 46.712,-48.196C45.511,-48.196 44.734,-48.479 44.239,-48.692C43.567,-49.009 43.037,-49.434 42.578,-49.999M58.164,-21.201C58.765,-21.908 59.224,-22.544 60.108,-24.169L53.358,-27.421C53.111,-26.679 52.97,-26.361 52.793,-26.007C52.298,-25.158 51.026,-23.321 48.305,-23.321C47.704,-23.321 46.574,-23.357 45.337,-24.311C44.136,-25.265 43.04,-27.103 43.04,-30.53C43.04,-31.167 42.934,-34.771 45.408,-36.608C45.902,-36.962 46.821,-37.491 48.27,-37.491C51.45,-37.527 52.687,-34.947 53.111,-34.099C53.217,-33.852 53.358,-33.604 53.465,-33.357L60.072,-36.643C59.543,-37.597 59.189,-38.198 58.447,-39.047C57.477,-40.166 55.507,-41.967 52.442,-42.936C53.726,-43.47 55.049,-44.272 56.253,-45.475C59.822,-49.045 60.069,-53.85 60.069,-55.37C60.069,-60.6 57.702,-63.674 56.217,-65.123C54.973,-66.342 53.606,-67.126 52.289,-67.632L59.608,-67.632L59.608,-73.039L46.675,-73.039L46.675,-77.985L57.771,-77.985L57.771,-83.392L46.711,-83.392L46.711,-87.102L58.549,-87.102L58.549,-92.579L38.796,-92.579L38.796,-67.632L41.257,-67.632C39.262,-66.888 37.892,-65.823 36.995,-64.946C33.568,-61.518 33.285,-56.819 33.285,-55.158C33.285,-51.519 34.485,-47.878 36.924,-45.441C38.576,-43.754 40.507,-42.866 42.243,-42.396C40.65,-41.636 39.01,-40.404 37.598,-38.41C35.196,-35.053 35.019,-31.59 35.019,-30.071C35.019,-28.304 35.337,-23.321 39.506,-19.823C40.617,-18.873 41.81,-18.197 43.078,-17.74C41.245,-17.105 39.386,-15.975 38.286,-13.959C37.403,-12.369 37.369,-10.849 37.369,-10.178C37.333,-7.457 38.746,-5.796 39.524,-5.125C40.725,-4.065 42.562,-3.217 45.99,-2.546C48.217,-2.086 49.807,-1.874 50.69,-1.555C51.432,-1.308 51.715,-0.99 51.891,-0.638C51.927,-0.531 52.068,-0.319 52.068,-0.036C52.068,1.2 50.513,1.872 48.287,1.872C46.556,1.872 43.941,1.342 42.527,0.104C42.174,-0.177 41.856,-0.566 41.326,-1.415L35.283,2.437C36.131,3.533 36.803,4.275 37.933,5.123C40.902,7.349 44.364,7.95 48.005,7.95C49.065,7.95 53.27,8.021 56.485,5.653C57.581,4.84 59.772,2.825 59.772,-0.885C59.772,-5.867 55.919,-7.245 54.365,-7.74C51.891,-8.553 49.559,-8.87 48.675,-9.012C48.005,-9.118 46.519,-9.401 45.885,-9.789C45.531,-10.036 45.248,-10.461 45.248,-10.92C45.248,-11.768 46.096,-12.157 46.238,-12.228C46.979,-12.546 47.933,-12.546 48.11,-12.546C49.983,-12.546 52.492,-12.157 53.941,-10.815C54.154,-10.637 54.33,-10.425 54.647,-10.002L59.63,-14.136C58.958,-14.808 58.499,-15.302 57.722,-15.868C56.33,-16.887 54.8,-17.519 53.374,-17.911C55.709,-18.807 57.255,-20.163 58.164,-21.201M25.822,-8.517C25.257,-6.891 23.632,-6.715 22.182,-6.715L18.897,-6.715L18.897,-12.51L22.112,-12.51C23.031,-12.51 23.95,-12.474 24.762,-12.016C24.904,-11.945 25.257,-11.733 25.504,-11.379C25.822,-10.885 25.999,-10.214 25.999,-9.612C25.999,-9.118 25.858,-8.659 25.822,-8.517M18.297,-42.686L18.297,-51.483L20.594,-51.483L25.434,-42.684L25.921,-42.684L25.921,-27.103C25.921,-26.361 25.921,-25.795 25.673,-25.158C24.966,-23.287 22.987,-23.18 22.457,-23.18C21.892,-23.18 19.913,-23.287 19.277,-25.194C18.994,-25.971 19.029,-26.855 19.029,-27.103L19.029,-42.686L18.297,-42.686ZM18.297,-62.402L21.512,-62.402C22.431,-62.402 23.35,-62.366 24.162,-61.907C24.304,-61.837 24.657,-61.625 24.904,-61.271C25.223,-60.776 25.399,-60.105 25.399,-59.504C25.399,-59.01 25.258,-58.55 25.223,-58.409C24.657,-56.783 23.032,-56.607 21.584,-56.607L18.297,-56.607L18.297,-62.402ZM30.946,-3.888C32.96,-5.23 33.879,-7.386 33.879,-9.754C33.879,-11.945 33.137,-13.499 32.713,-14.242C30.911,-17.245 27.731,-17.528 26.635,-17.634C26.622,-17.635 26.609,-17.636 26.597,-17.637C29.453,-18.466 31.918,-20.249 33.094,-23.321C33.659,-24.806 33.871,-26.149 33.871,-27.739L33.871,-42.684L34.269,-42.684L28.156,-52.755C29.357,-53.214 29.817,-53.427 30.347,-53.779C32.36,-55.123 33.28,-57.278 33.28,-59.646C33.28,-61.837 32.538,-63.391 32.113,-64.133C31.031,-65.936 29.454,-66.758 28.128,-67.151C31.779,-67.869 34.027,-69.748 35.205,-71.095C35.806,-71.801 36.265,-72.438 37.149,-74.063L30.399,-77.314C30.152,-76.572 30.01,-76.254 29.834,-75.9C29.339,-75.052 28.067,-73.215 25.346,-73.215C24.745,-73.215 23.615,-73.25 22.378,-74.204C21.177,-75.159 20.082,-76.996 20.082,-80.424C20.082,-81.06 19.975,-84.664 22.448,-86.501C22.943,-86.855 23.862,-87.385 25.311,-87.385C28.491,-87.421 29.728,-84.84 30.152,-83.993C30.258,-83.745 30.399,-83.498 30.505,-83.25L37.114,-86.537C36.583,-87.49 36.23,-88.092 35.488,-88.94C34.109,-90.53 30.718,-93.498 25.028,-93.498C22.837,-93.498 18.066,-93.145 14.639,-88.303C12.236,-84.947 12.06,-81.483 12.06,-79.964C12.06,-78.197 12.378,-73.215 16.547,-69.716C17.66,-68.765 18.855,-68.088 20.127,-67.631L10.382,-67.631L10.382,-42.684L11.115,-42.684L11.115,-27.88C11.115,-25.265 11.291,-24.24 11.75,-23.004C12.917,-19.929 15.461,-18.693 16.521,-18.233C16.962,-18.038 17.403,-17.875 17.836,-17.74L10.981,-17.74L10.981,7.208L18.897,7.208L18.897,-1.591L21.194,-1.591L26.035,7.208L34.868,7.208L28.755,-2.863C29.957,-3.323 30.416,-3.535 30.946,-3.888M-0.775,-23.922C-1.552,-23.534 -2.224,-23.463 -3.073,-23.463L-6.075,-23.463L-6.075,-36.856L-3.107,-36.856C-1.518,-36.856 -0.917,-36.608 -0.174,-36.149C2.158,-34.63 2.087,-30.424 2.087,-30.212C2.087,-29.824 2.158,-25.336 -0.775,-23.922M-6.075,-62.402L-1.623,-62.402C-1.2,-62.402 0.461,-62.402 1.239,-60.989C1.628,-60.282 1.628,-59.54 1.628,-59.257C1.628,-57.278 0.532,-56.501 -0.174,-56.253C-0.705,-56.077 -1.482,-56.041 -1.588,-56.041L-6.075,-56.041L-6.075,-62.402ZM-2.189,-42.616C-3.284,-42.651 -4.415,-42.686 -5.511,-42.686L-6.075,-42.686L-6.075,-50.811L0.002,-50.811C1.556,-50.811 3.041,-50.882 4.525,-51.448C7.281,-52.472 8.554,-55.087 8.872,-55.935C9.437,-57.419 9.472,-59.01 9.472,-59.504C9.472,-60.6 9.401,-63.603 6.893,-65.759C4.949,-67.455 2.688,-67.631 0.249,-67.631L-13.991,-67.631L-13.991,7.208L6.822,7.208L6.822,1.801L-6.111,1.801L-6.111,-3.146L4.984,-3.146L4.984,-8.553L-6.075,-8.553L-6.075,-12.263L5.762,-12.263L5.762,-17.74L-2.346,-17.74C-0.654,-17.75 1.113,-17.824 2.723,-18.304C7.988,-19.823 9.26,-24.806 9.649,-26.431C9.79,-27.103 10.037,-28.481 10.037,-30.318C10.037,-35.372 8.306,-38.163 6.681,-39.753C4.172,-42.156 1.133,-42.474 -2.189,-42.616" style="fill:rgb(220,225,214);fill-rule:nonzero;"/>
            </g>
        </g>
    </g>
</svg>
