<?xml version="1.0" encoding="UTF-8" standalone="no"?>
<!DOCTYPE svg PUBLIC "-//W3C//DTD SVG 1.1//EN" "http://www.w3.org/Graphics/SVG/1.1/DTD/svg11.dtd">
<svg width="100%" height="100%" viewBox="0 0 441 208" version="1.1" xmlns="http://www.w3.org/2000/svg" xmlns:xlink="http://www.w3.org/1999/xlink" xml:space="preserve" xmlns:serif="http://www.serif.com/" style="fill-rule:evenodd;clip-rule:evenodd;stroke-linejoin:round;stroke-miterlimit:2;">
    <g id="Artboard1" transform="matrix(1.0195,0,0,1,0,0)">
        <rect x="0" y="0" width="432" height="208" style="fill:none;"/>
        <clipPath id="_clip1">
            <rect x="0" y="0" width="432" height="208"/>
        </clipPath>
        <g clip-path="url(#_clip1)">
            <g transform="matrix(2.01429,0,0,2.05356,343.499,172.056)">
                <path d="M0,-66.281L7.372,-60.925L4.556,-52.259L11.927,-57.615L19.299,-52.259L16.484,-60.925L23.856,-66.281L14.743,-66.281L11.927,-74.947L9.112,-66.281L0,-66.281ZM-6.708,-45.362L-6.708,-78.248C-6.708,-79.459 -5.726,-80.441 -4.515,-80.441L28.371,-80.441C29.582,-80.441 30.563,-79.459 30.563,-78.248L30.563,-45.362C30.563,-44.151 29.582,-43.17 28.371,-43.17L-4.515,-43.17C-5.726,-43.17 -6.708,-44.151 -6.708,-45.362M35.403,-29.46C36.976,-29.46 37.539,-30.023 37.539,-31.596L37.539,-34.68C37.539,-36.253 36.976,-36.822 35.403,-36.822L-6.932,-36.822C-8.504,-36.822 -9.068,-36.253 -9.068,-34.68L-9.068,-31.596C-9.068,-30.023 -8.504,-29.46 -6.932,-29.46L-0.8,-29.46L-0.8,12.287C-0.8,13.86 -0.236,14.428 1.337,14.428L4.99,14.428C6.562,14.428 7.126,13.86 7.126,12.287L7.126,-29.46L35.403,-29.46ZM40.33,-3.95C38.745,-5.385 35.925,-6.407 33.876,-6.816C31.982,-7.175 28.29,-7.588 26.705,-7.892C23.989,-8.305 20.964,-9.532 21.273,-12.248C21.273,-15.373 23.73,-16.962 28.703,-16.962C32.596,-16.962 34.748,-15.527 36.184,-12.661C36.797,-11.48 37.206,-11.326 38.386,-11.789L41.202,-13.016C42.383,-13.529 42.688,-14.3 42.179,-15.373C39.667,-20.65 35.825,-23.112 28.703,-23.112C19.734,-23.112 14.665,-18.602 14.665,-11.889C14.815,-8.101 15.891,-5.69 18.198,-4.204C19.838,-3.128 20.914,-2.565 23.117,-2.106C25.32,-1.643 26.292,-1.543 28.599,-1.284C30.289,-1.13 31.674,-0.925 32.696,-0.671C34.748,-0.158 36.693,1.228 36.693,3.48C36.693,7.014 33.981,8.808 28.549,8.808C24.552,8.808 21.886,7.223 20.555,4.044C19.992,2.813 19.529,2.558 18.353,2.967L15.532,3.994C14.306,4.402 13.997,4.966 14.456,6.246C16.659,11.987 20.81,14.803 28.549,14.803C37.769,14.803 43.151,10.293 43.151,3.326C43.151,0.047 41.92,-2.515 40.33,-3.95M-18.382,-16.403C-18.382,-18.478 -18.951,-20.112 -20.083,-21.244C-21.215,-22.315 -22.849,-22.884 -24.986,-22.884L-35.873,-22.884L-35.873,-9.922L-24.986,-9.922C-22.911,-9.922 -21.277,-10.486 -20.083,-11.618C-18.951,-12.689 -18.382,-14.328 -18.382,-16.403M-9.447,12.287C-8.694,13.737 -9.068,14.428 -10.518,14.428L-14.166,14.428C-16.932,14.428 -17.69,14.116 -18.444,12.543L-23.731,1.846C-25.426,-1.679 -26.938,-2.56 -31.216,-2.56L-35.873,-2.56L-35.873,12.287C-35.873,13.86 -36.441,14.428 -38.014,14.428L-41.6,14.428C-43.173,14.428 -43.803,13.86 -43.803,12.287L-43.803,-28.104C-43.803,-29.677 -43.173,-30.246 -41.6,-30.246L-24.233,-30.246C-15.426,-30.246 -10.077,-25.02 -10.077,-16.403C-10.077,-9.922 -13.095,-5.455 -18.382,-3.692C-17.629,-3.062 -16.932,-2.181 -16.369,-0.987L-9.447,12.287ZM-57.827,-8.257C-57.827,-14.046 -61.413,-17.253 -67.894,-17.253C-74.375,-17.253 -77.961,-14.108 -77.961,-8.257L-77.961,-0.987C-77.961,4.863 -74.375,8.009 -67.894,8.009C-61.413,8.009 -57.827,4.802 -57.827,-0.987L-57.827,-8.257ZM-49.963,-8.191L-49.963,-1.049C-49.963,9.208 -56.505,15.371 -67.894,15.371C-79.406,15.371 -85.887,9.208 -85.887,-1.049L-85.887,-8.191C-85.887,-18.447 -79.406,-24.615 -67.894,-24.615C-56.505,-24.615 -49.963,-18.447 -49.963,-8.191M-138.509,-10.806C-140.456,-12.569 -143.919,-13.824 -146.435,-14.326C-148.761,-14.766 -153.295,-15.274 -155.242,-15.648C-158.577,-16.155 -162.291,-17.661 -161.912,-20.996C-161.912,-24.833 -158.894,-26.785 -152.788,-26.785C-148.008,-26.785 -145.364,-25.023 -143.602,-21.503C-142.849,-20.053 -142.346,-19.864 -140.897,-20.433L-137.438,-21.939C-135.989,-22.569 -135.615,-23.517 -136.24,-24.833C-139.324,-31.314 -144.042,-34.337 -152.788,-34.337C-163.802,-34.337 -170.032,-28.799 -170.032,-20.556C-169.843,-15.904 -168.521,-12.943 -165.688,-11.119C-163.674,-9.797 -162.353,-9.105 -159.647,-8.542C-156.942,-7.973 -155.749,-7.85 -152.916,-7.532C-150.841,-7.343 -149.14,-7.092 -147.88,-6.779C-145.364,-6.149 -142.977,-4.448 -142.977,-1.682C-142.977,2.658 -146.307,4.861 -152.977,4.861C-157.885,4.861 -161.159,2.914 -162.793,-0.99C-163.485,-2.501 -164.053,-2.814 -165.498,-2.312L-168.961,-1.052C-170.468,-0.55 -170.847,0.142 -170.283,1.715C-167.578,8.764 -162.481,12.223 -152.977,12.223C-141.655,12.223 -135.046,6.684 -135.046,-1.871C-135.046,-5.898 -136.557,-9.044 -138.509,-10.806M-18.812,-38.177L-18.812,-41.256C-18.812,-42.829 -19.38,-43.398 -20.953,-43.398L-40.898,-43.398L-40.898,-54.976L-24.601,-54.976C-23.028,-54.976 -22.464,-55.539 -22.464,-57.112L-22.464,-60.196C-22.464,-61.769 -23.028,-62.338 -24.601,-62.338L-40.898,-62.338L-40.898,-73.348L-21.645,-73.348C-20.072,-73.348 -19.442,-73.911 -19.442,-75.484L-19.442,-78.568C-19.442,-80.141 -20.072,-80.71 -21.645,-80.71L-46.625,-80.71C-48.198,-80.71 -48.828,-80.141 -48.828,-78.568L-48.828,-38.177C-48.828,-36.604 -48.198,-36.036 -46.625,-36.036L-20.953,-36.036C-19.38,-36.036 -18.812,-36.604 -18.812,-38.177M-64.361,-29.46L-60.775,-29.46C-59.202,-29.46 -58.572,-30.028 -58.572,-31.601L-58.572,-78.568C-58.572,-80.141 -59.141,-80.71 -60.714,-80.71L-64.3,-80.71C-65.873,-80.71 -66.503,-80.141 -66.503,-78.568L-66.503,-31.601C-66.503,-30.028 -65.934,-29.46 -64.361,-29.46M-80.315,-72.429L-76.729,-72.429C-75.156,-72.429 -74.588,-72.997 -74.588,-74.57L-74.588,-78.568C-74.588,-80.141 -75.156,-80.71 -76.729,-80.71L-80.315,-80.71C-81.888,-80.71 -82.518,-80.141 -82.518,-78.568L-82.518,-74.57C-82.518,-72.997 -81.888,-72.429 -80.315,-72.429M-80.315,-29.46L-76.729,-29.46C-75.156,-29.46 -74.588,-30.028 -74.588,-31.601L-74.588,-65.44C-74.588,-67.013 -75.156,-67.582 -76.729,-67.582L-80.315,-67.582C-81.888,-67.582 -82.518,-67.013 -82.518,-65.44L-82.518,-31.601C-82.518,-30.028 -81.888,-29.46 -80.315,-29.46M-96.482,-67.582L-100.068,-67.582C-101.641,-67.582 -102.209,-67.013 -102.209,-65.44L-102.209,-39.058L-120.832,-39.058L-120.832,-78.568C-120.832,-80.141 -121.401,-80.71 -122.974,-80.71L-126.56,-80.71C-128.133,-80.71 -128.763,-80.141 -128.763,-78.568L-128.763,-14.897C-128.763,-13.324 -128.133,-12.756 -126.56,-12.756L-122.974,-12.756C-121.401,-12.756 -120.832,-13.324 -120.832,-14.897L-120.832,-31.696L-102.209,-31.696L-102.209,12.287C-102.209,13.86 -101.641,14.428 -100.068,14.428L-96.482,14.428C-94.909,14.428 -94.279,13.86 -94.279,12.287L-94.279,-65.44C-94.279,-67.013 -94.909,-67.582 -96.482,-67.582M-170.456,-56.731L-170.456,-65.294C-170.456,-75.423 -163.975,-81.652 -152.463,-81.652C-143.529,-81.652 -137.801,-78.128 -135.347,-71.145C-134.845,-69.823 -135.285,-68.88 -136.669,-68.378L-140.132,-67.179C-141.638,-66.677 -142.268,-66.99 -142.837,-68.501C-144.22,-72.338 -147.427,-74.29 -152.463,-74.29C-158.944,-74.29 -162.53,-71.145 -162.53,-65.356L-162.53,-56.669C-162.53,-50.88 -158.944,-47.673 -152.463,-47.673C-147.494,-47.673 -144.282,-49.62 -142.837,-53.523C-142.145,-55.096 -141.577,-55.409 -140.065,-54.845L-136.669,-53.646C-135.285,-53.144 -134.845,-52.202 -135.285,-50.88C-137.739,-43.836 -143.467,-40.311 -152.463,-40.311C-163.975,-40.311 -170.456,-46.474 -170.456,-56.731" style="fill:rgb(220,225,214);fill-rule:nonzero;"/>
            </g>
        </g>
    </g>
</svg>
