<?xml version="1.0" encoding="utf-8"?>
<!-- Generator: Adobe Illustrator 22.0.1, SVG Export Plug-In . SVG Version: 6.00 Build 0)  -->
<svg version="1.1" id="Capa_1" xmlns="http://www.w3.org/2000/svg" xmlns:xlink="http://www.w3.org/1999/xlink" x="0px" y="0px"
	 viewBox="0 0 371 193.9" style="enable-background:new 0 0 371 193.9;" xml:space="preserve">
<style type="text/css">
	.st0{fill:#DCE1D6;}
</style>
<path class="st0" d="M175.6,185.2c-0.1,0.2-0.2,0.4-0.4,0.7c-0.3,0.5-0.7,0.9-1.1,1.3c-1.1,1-2,1.5-2.8,1.5c-1.1,0-1.6-1-1.7-3
	c0-0.2,0-0.3-0.1-0.3c-0.1,0-0.1,0.1-0.2,0.2c-0.8,1.1-1.5,1.8-2.1,2.2c-0.9,0.6-1.8,0.9-2.8,0.9c-0.9,0-1.8-0.3-2.4-0.9
	c-0.9-0.8-1.4-2.1-1.4-3.7c0-1.1,0.3-2.3,0.8-3.6c1-2.2,2.2-3.8,3.8-4.8c1.1-0.7,2.2-1.1,3.3-1.1c0.7,0,1.2,0.1,1.6,0.3
	c0.3,0.2,0.4,0.2,0.5,0.2c0.2,0,0.3-0.3,0.4-1c0.2-1.1,0.4-2.5,0.6-4.1c0.2-1.6,0.3-2.6,0.3-2.8c0-0.4-0.2-0.7-0.5-0.9
	c-0.2-0.1-0.5-0.1-0.8-0.1l-0.8,0c-0.3,0-0.5-0.2-0.5-0.5c0-0.4,0.2-0.5,0.8-0.5l1.1,0c1,0,2-0.2,3.2-0.5c0.1-0.1,0.3-0.1,0.4-0.1
	c0.2,0,0.3,0.1,0.3,0.3c0,0.1,0,0.4-0.1,0.7c0,0-0.1,0.4-0.2,1.2c-0.1,0.7-0.5,3.2-1.1,7.5c-0.9,6.1-1.4,9.7-1.4,10.7
	c0,0.8,0.3,1.2,0.8,1.2c0.5,0,1.1-0.5,1.8-1.6c0.2-0.2,0.3-0.4,0.5-0.4c0.1,0,0.1,0,0.2,0c0-0.2,0-0.4,0-0.7c0-2.2,0.6-4.1,1.9-5.9
	c0.9-1.3,2-2.2,3.2-2.8c0.8-0.4,1.6-0.6,2.5-0.6c0.9,0,1.6,0.2,2.2,0.7c0.5,0.4,0.8,1,0.8,1.8c0,1.3-0.7,2.4-1.9,3.2
	c-0.8,0.5-1.6,0.9-2.5,1.1c-0.8,0.2-1.8,0.4-2.9,0.6c-0.3,0-0.4,0.1-0.5,0.1c-0.1,0.1-0.1,0.2-0.1,0.5c0,1.2,0.2,2.2,0.7,2.9
	c0.6,1,1.5,1.5,2.9,1.5c1,0,2-0.4,3-1.3c0.4-0.3,0.7-0.5,0.8-0.5c0.3,0,0.4,0.1,0.4,0.4c0,0.3-0.5,0.9-1.6,1.6
	c-1.4,1-2.8,1.5-4.4,1.5c-1.2,0-2.3-0.4-3.1-1.3C176.2,186.8,175.8,186.1,175.6,185.2z M168.7,175.6c-1.1,0-2,0.5-2.8,1.5
	c-0.7,0.8-1.2,1.8-1.6,3c-0.4,1.1-0.6,2.3-0.6,3.5c0,1.1,0.3,1.9,0.8,2.5c0.4,0.4,0.9,0.6,1.6,0.6c1.1,0,2-0.5,2.8-1.5
	c0.5-0.7,0.9-2,1.2-3.7c0.4-2.4,0.6-3.8,0.6-4.2C170.6,176.1,169.9,175.6,168.7,175.6z M182.2,175.6c-0.6,0-1.2,0.3-1.9,0.9
	c-1,1-1.6,2.1-1.9,3.5c-0.1,0.3-0.1,0.5-0.1,0.7c0,0.2,0.1,0.3,0.3,0.3c0.5,0,1.1-0.1,1.8-0.4c0.7-0.2,1.3-0.5,1.7-0.8
	c1-0.7,1.5-1.6,1.5-2.8c0-0.6-0.2-1-0.5-1.2C182.8,175.7,182.6,175.6,182.2,175.6z M13,91.2L13,91.2l-13,0v-1.8
	c1.2,0,1.7-0.5,1.7-1.6l0.1-2.2V69.2L1.7,67c0-1-0.6-1.5-1.7-1.5v-1.8h7.4v1.8c-1.2,0-1.7,0.5-1.7,1.5l-0.1,2.2v16.6
	c0,1.3,0.1,2.2,0.2,2.7C6,88.8,6.7,89,7.9,89h1.6l0.8-0.1c0.8,0,1.2-0.5,1.2-1.5l0-1.1l0-0.7H13v3.8c0.2-0.2,0.3-0.6,0.4-1l0.4-1.3
	L18,70.5h1l4.4,16.7l0.5,1.5c0.2,0.8,0.6,1.2,1.1,1.2v1.3h-5.7v-1.3c0.8,0,1.2-0.2,1.2-0.6c0-0.3-0.1-1-0.5-2.1l-0.5-1.7h-4.2
	l-0.4,1.7c-0.3,1.1-0.4,1.8-0.4,2.1c0,0.4,0.3,0.6,1,0.6v1.3H13z M15.7,84.3h3.6l-1.8-6.9L15.7,84.3z M120,165.8c0.2,0,0.5,0,1,0.1
	c0.9,0.1,1.8,0.2,2.8,0.2c0.6,0,1.4,0,2.3-0.1c1.8-0.1,3.1-0.2,4.1-0.2c2.2,0,4.2,0.6,5.9,1.8c2.3,1.6,3.5,4,3.5,7.2
	c0,3.1-0.9,5.9-2.8,8.5c-2.5,3.4-6,5.1-10.4,5.1c-0.8,0-1.8,0-2.8-0.1c-1,0-1.7-0.1-2.3-0.1c-0.6,0-1.1,0-1.6,0.1
	c-0.6,0.1-1,0.1-1.3,0.1c-0.4,0-0.6-0.2-0.6-0.5c0-0.4,0.3-0.5,0.8-0.5c0.9,0,1.5-0.3,1.7-0.9c0.3-0.6,0.6-3.7,1.1-9.3
	c0.3-3.6,0.5-5.6,0.5-6.1c0.1-0.9,0.1-1.6,0.1-2.3c0-0.7-0.2-1.3-0.7-1.6c-0.3-0.2-0.7-0.3-1.3-0.4c-0.6-0.1-0.9-0.3-0.9-0.6
	C119.1,166,119.4,165.8,120,165.8z M128.3,167c-1.6,0-2.6,0.3-3,0.9c-0.2,0.3-0.3,0.7-0.4,1.4s-0.3,2-0.4,3.9
	c-0.7,7.3-1.1,11.4-1.1,12.4c0,0.6,0.2,1,0.6,1.3c0.4,0.2,1.1,0.3,2,0.3c2.6,0,4.6-0.7,6.1-2c1.1-1,2-2.3,2.7-3.9
	c0.9-2,1.4-4.2,1.4-6.4c0-2.6-0.7-4.6-2.2-5.9C132.6,167.6,130.7,167,128.3,167z M150.3,185.2c0.3,0,0.4,0.1,0.4,0.4
	c0,0.3-0.5,0.9-1.6,1.6c-1.4,1-2.8,1.5-4.4,1.5c-1.2,0-2.3-0.4-3.1-1.3c-0.9-0.9-1.4-2.1-1.4-3.6c0-2.2,0.6-4.1,1.9-5.9
	c0.9-1.3,2-2.2,3.2-2.8c0.8-0.4,1.6-0.6,2.5-0.6c0.9,0,1.6,0.2,2.2,0.7c0.5,0.4,0.8,1,0.8,1.8c0,1.3-0.7,2.4-1.9,3.2
	c-0.8,0.5-1.6,0.9-2.5,1.1c-0.8,0.2-1.8,0.4-2.9,0.6c-0.3,0-0.4,0.1-0.5,0.1c-0.1,0.1-0.1,0.2-0.1,0.5c0,1.2,0.2,2.2,0.7,2.9
	c0.6,1,1.5,1.5,2.9,1.5c1,0,2-0.4,3-1.3C149.8,185.4,150.1,185.2,150.3,185.2z M146.9,175.6c-0.6,0-1.2,0.3-1.9,0.9
	c-1,1-1.6,2.1-1.9,3.5c-0.1,0.3-0.1,0.5-0.1,0.7c0,0.2,0.1,0.3,0.3,0.3c0.5,0,1.1-0.1,1.8-0.4c0.7-0.2,1.3-0.5,1.7-0.8
	c1-0.7,1.5-1.6,1.5-2.8c0-0.6-0.2-1-0.5-1.2C147.6,175.7,147.3,175.6,146.9,175.6z M155.9,175.6c-0.4,0-0.7,0.1-0.9,0.2
	c-0.5,0.3-0.7,0.7-0.7,1.2c0,0.7,0.7,1.7,2.2,3c1.3,1.2,2,2,2.3,2.5c0.3,0.5,0.4,1.1,0.4,1.6c0,1.2-0.4,2.2-1.2,3
	c-0.9,0.9-2.1,1.4-3.6,1.4c-1.3,0-2.3-0.3-3-0.9c-0.5-0.4-0.8-0.9-0.8-1.5c0-0.4,0.1-0.7,0.4-0.9c0.2-0.2,0.5-0.3,0.8-0.3
	c0.4,0,0.7,0.2,1,0.5c0.1,0.1,0.2,0.4,0.4,0.7c0.2,0.4,0.4,0.7,0.6,1c0.3,0.3,0.7,0.4,1.2,0.4c0.6,0,1.1-0.2,1.5-0.5
	c0.4-0.4,0.6-0.8,0.6-1.3c0-0.5-0.2-1.1-0.6-1.7c-0.4-0.6-1-1.3-1.9-2.1c-1-0.9-1.7-1.8-2.1-2.6c-0.1-0.3-0.2-0.7-0.2-1.1
	c0-1.1,0.4-2,1.3-2.8c0.8-0.7,1.9-1.1,3.2-1.1c1,0,1.8,0.2,2.3,0.7c0.4,0.3,0.7,0.8,0.7,1.2c0,0.3-0.1,0.6-0.4,0.8
	c-0.2,0.2-0.5,0.3-0.7,0.3c-0.5,0-0.9-0.3-1.2-0.9c-0.3-0.5-0.6-0.9-0.8-1C156.4,175.7,156.2,175.6,155.9,175.6z M200.5,188.2
	c-1.2,0-2.6,0.1-4,0.2c-0.3,0-0.5,0-0.6,0c-0.4,0-0.6-0.1-0.6-0.4c0-0.2,0.1-0.3,0.3-0.4c0.1,0,0.5-0.1,1.2-0.2
	c0.7-0.1,1.1-0.5,1.4-1.1c0.2-0.4,0.3-1.5,0.3-3.2c0-1.3,0-2.8,0-4.5v-0.9c0-0.8-0.1-1.4-0.2-1.8c-0.2-0.4-0.6-0.6-1.1-0.6
	c-0.4,0-0.7,0.1-1,0.3c-0.2,0.1-0.5,0.2-0.6,0.2c-0.3,0-0.4-0.1-0.4-0.4c0-0.3,0.4-0.6,1.1-0.8c1.9-0.5,3.4-1.2,4.5-2.1
	c0.4-0.3,0.6-0.5,0.7-0.5c0.1,0,0.2,0.1,0.2,0.2c0,0,0,0.4-0.1,1c0,0.3-0.1,1.4-0.1,3.3c0,1.9-0.1,3.2-0.1,4.2c0,3.2,0.1,5,0.2,5.5
	c0.1,0.5,0.5,0.9,1.2,1.1c0.1,0,0.7,0.1,1.6,0.1c0.4,0,0.6,0.2,0.6,0.5c0,0.3-0.2,0.5-0.6,0.5L200.5,188.2z M213.5,166.4
	c1.7,0,3.1,0.5,4.2,1.5c1,0.9,1.5,2,1.5,3.4c0,1.2-0.4,2.2-1.3,3.1c-0.6,0.6-1.3,1-2,1.2c-0.3,0.1-0.4,0.2-0.4,0.3
	c0,0.1,0.1,0.3,0.4,0.4c1.2,0.6,2.1,1.3,2.7,2c0.8,1.1,1.2,2.3,1.2,3.6c0,1.7-0.6,3.1-1.9,4.4c-1.4,1.4-3.1,2.1-5.2,2.1
	c-1,0-1.9-0.2-2.8-0.5c-0.9-0.3-1.7-0.8-2.3-1.4c-0.5-0.5-1-1.1-1.3-1.9c-0.3-0.8-0.5-1.6-0.5-2.4c0-1.4,0.5-2.7,1.4-3.8
	c0.6-0.7,1.3-1.2,2.2-1.5c0.3-0.1,0.4-0.2,0.4-0.3c0-0.1-0.2-0.3-0.6-0.6c-1.4-1.1-2.1-2.4-2.1-4.1c0-1.5,0.5-2.7,1.5-3.8
	C209.8,167,211.4,166.4,213.5,166.4z M212.9,167.3c-1.1,0-2,0.3-2.8,1c-0.8,0.7-1.2,1.5-1.2,2.6c0,1.2,0.6,2.2,1.8,3
	c0.6,0.4,1.2,0.7,1.8,0.9c0.7,0.2,1.3,0.3,1.8,0.3c0.8,0,1.5-0.3,2.1-1c0.5-0.6,0.8-1.4,0.8-2.3c0-0.7-0.2-1.4-0.5-2.1
	c-0.3-0.7-0.7-1.2-1.2-1.6C214.8,167.6,214,167.3,212.9,167.3z M210.7,177.5c-0.5,0-1,0.3-1.5,0.8c-0.9,0.9-1.3,2-1.3,3.5
	c0,0.9,0.2,1.7,0.5,2.5c0.4,0.8,0.8,1.5,1.5,2c0.9,0.8,2,1.2,3.2,1.2c1.4,0,2.6-0.4,3.4-1.3c0.7-0.8,1.1-1.8,1.1-2.9
	c0-1.1-0.3-2-1-2.7c-0.8-0.8-2.1-1.6-3.8-2.4C211.7,177.7,211,177.5,210.7,177.5z M231.1,184.1c-0.1,0-0.3,0.1-0.5,0.3
	c-1.1,0.9-2.5,1.3-4,1.3c-1.3,0-2.4-0.4-3.4-1.3c-1.4-1.2-2.1-2.9-2.1-5c0-2,0.6-3.8,1.8-5.2c1.3-1.6,3.1-2.4,5.2-2.4
	c1.5,0,2.9,0.4,4,1.2c0.9,0.7,1.6,1.5,2.2,2.6c0.7,1.4,1,2.8,1,4.4c0,1.4-0.2,2.7-0.7,4.1c-0.4,1.4-1.1,2.6-1.9,3.7
	c-1.8,2.4-4.3,4.2-7.5,5.3c-1.5,0.5-2.5,0.8-3.2,0.8c-0.4,0-0.5-0.1-0.5-0.4c0-0.2,0.1-0.3,0.4-0.4c1.4-0.3,2.5-0.7,3.4-1.2
	c0.9-0.4,1.8-1.1,2.7-1.9c1.5-1.4,2.5-2.9,3.1-4.7c0.2-0.5,0.3-0.8,0.3-0.9C231.3,184.2,231.3,184.1,231.1,184.1z M227.6,172.6
	c-1,0-1.9,0.4-2.5,1.2c-0.8,0.9-1.2,2.2-1.2,3.9c0,2,0.5,3.6,1.4,4.9c0.4,0.5,0.9,1,1.4,1.3c0.6,0.3,1.2,0.5,1.8,0.5
	c0.8,0,1.6-0.3,2.2-0.8c1.1-0.9,1.6-2.2,1.6-4.1c0-2.4-0.7-4.2-2.1-5.6C229.5,173,228.6,172.6,227.6,172.6z M245,171.7
	c1.8,0,3.4,0.6,4.6,1.7c0.8,0.7,1.4,1.6,1.9,2.7c0.4,1.1,0.7,2.2,0.7,3.4c0,2.1-0.6,3.9-1.8,5.6c-1.1,1.5-2.4,2.5-4.1,3.1
	c-0.8,0.3-1.6,0.4-2.4,0.4c-1.6,0-3.1-0.5-4.3-1.4c-1.8-1.4-2.7-3.5-2.7-6.3c0-2.2,0.6-4.2,1.7-5.7c1-1.5,2.4-2.5,4-3
	C243.3,171.8,244.1,171.7,245,171.7z M243.8,173c-1.2,0-2.2,0.5-3,1.4c-0.9,1.1-1.4,2.6-1.4,4.6c0,2.4,0.6,4.3,1.7,5.8
	c0.5,0.7,1.2,1.2,2,1.6c0.6,0.3,1.2,0.4,1.9,0.4c1,0,1.9-0.3,2.6-0.9c1.3-1,1.9-2.6,1.9-4.8c0-1.4-0.2-2.6-0.6-3.8
	c-0.4-1.2-1-2.2-1.8-2.9C246,173.5,245,173,243.8,173z M138.1,46.5c-2,0-4-0.4-5.8-1.1c-1.8-0.7-3.4-1.8-4.7-3.2
	c-1.4-1.4-2.4-3.1-3.2-5.1c-0.8-2-1.1-4.3-1.1-6.8c0-3.6,0.6-7,1.8-10.1c1.2-3.1,2.8-5.9,4.9-8.4c2-2.4,4.4-4.3,7.3-5.7
	c2.8-1.4,5.8-2.1,8.9-2.1c2.3,0,4.4,0.3,6.1,0.8c1.8,0.6,3.2,1.2,4.4,2.1l1.6-1.9h2.2l-3,14.5h-2.3v-1.1c0-1.6-0.1-3.1-0.4-4.5
	c-0.2-1.4-0.7-2.7-1.4-3.9c-0.7-1.1-1.6-2-2.8-2.6c-1.2-0.7-2.6-1-4.5-1c-2.3,0-4.4,0.6-6.4,1.9c-2,1.2-3.7,2.9-5.1,5
	c-1.4,2-2.6,4.5-3.4,7.5c-0.9,3-1.3,6-1.3,9c0,4.1,1,7.4,2.9,9.9c2,2.5,4.6,3.8,7.9,3.8c2.8,0,5.3-0.8,7.6-2.5
	c2.3-1.7,4.2-3.9,5.7-6.7l2,1.1c-2.4,4.1-5,7-7.9,8.7C145.2,45.7,141.9,46.5,138.1,46.5z M174.2,41.8H174c-0.4,0.3-0.9,0.8-1.5,1.3
	c-0.6,0.5-1.2,1-2,1.5c-0.7,0.5-1.5,0.9-2.4,1.2c-0.9,0.4-1.8,0.5-2.8,0.5c-2.7,0-4.8-1-6.4-3c-1.5-2-2.3-4.7-2.3-8.1
	c0-2.4,0.4-4.7,1.3-6.9c0.9-2.2,2-4.2,3.6-6c1.4-1.7,3.2-3.1,5.1-4.1c2-1,4-1.6,6.1-1.6c1.3,0,2.6,0.2,3.8,0.5
	c1.2,0.4,2.2,0.8,2.9,1.2l5.1-1.3l0.3,0.4L180.6,36c-0.1,0.6-0.3,1.3-0.5,2.2c-0.1,0.8-0.2,1.5-0.2,1.9c0,1.1,0.2,1.8,0.7,2.2
	c0.4,0.4,1.2,0.6,2.3,0.6c0.4,0,0.9-0.1,1.5-0.2c0.7-0.1,1.2-0.2,1.5-0.4l-0.4,1.8c-1.7,0.7-2.9,1.2-3.8,1.5c-0.8,0.3-1.8,0.5-3,0.5
	c-1.3,0-2.4-0.4-3.2-1.2C174.7,44.1,174.3,43,174.2,41.8z M178.2,23.7c0-0.6-0.1-1.2-0.2-1.8c-0.1-0.6-0.4-1.1-0.8-1.6
	c-0.4-0.5-0.9-0.9-1.5-1.1c-0.7-0.3-1.5-0.4-2.5-0.4c-1.4,0-2.7,0.5-4,1.4c-1.3,0.9-2.5,2.1-3.5,3.7c-1,1.4-1.8,3.2-2.4,5.3
	c-0.6,2.1-0.9,4.2-0.9,6.3c0,1.2,0.1,2.2,0.2,3.1c0.1,0.9,0.4,1.7,0.8,2.5c0.4,0.7,0.9,1.3,1.5,1.7c0.7,0.4,1.5,0.6,2.6,0.6
	c1,0,2.1-0.3,3.3-0.9c1.2-0.6,2.5-1.7,3.9-3.2L178.2,23.7z M198.8,20.2l-4.9,23.6c-0.9,4.2-2.7,7.7-5.6,10.4c-2.8,2.7-5.7,4-8.7,4
	c-1.6,0-2.9-0.3-3.6-1c-0.8-0.6-1.2-1.4-1.2-2.4c0-0.8,0.2-1.5,0.7-2.2c0.5-0.6,1.2-0.9,2.1-0.9c0.6,0,1.1,0.1,1.5,0.4
	c0.4,0.3,0.8,0.6,1.2,1c0.3,0.3,0.6,0.8,0.9,1.3c0.3,0.6,0.6,1,0.8,1.4c1.4-0.1,2.7-1.1,3.7-3c1-1.9,1.9-4.5,2.7-8l5.2-24.7h-5.5
	l0.6-2.6h5.4l0.4-1.9c0.5-2.2,1.2-4.2,2.1-6c1-1.8,2.1-3.3,3.3-4.5c1.2-1.2,2.6-2.2,4.1-2.9c1.6-0.7,3-1.1,4.5-1.1
	c1.6,0,2.8,0.3,3.6,1c0.8,0.6,1.2,1.4,1.2,2.4c0,0.8-0.2,1.5-0.7,2.2c-0.4,0.6-1.2,0.9-2.1,0.9c-0.6,0-1.1-0.1-1.5-0.4
	c-0.4-0.3-0.8-0.6-1.2-1c-0.4-0.5-0.7-0.9-0.9-1.3c-0.2-0.4-0.5-0.9-0.8-1.4c-1.3,0.1-2.4,0.9-3.4,2.6c-1,1.7-1.9,4.5-2.7,8.4
	l-0.6,3h7l-0.6,2.6H198.8z M223.4,3.6c0,0.8-0.2,1.4-0.5,1.9c-0.4,0.5-0.9,1-1.6,1.6c-0.9,0.7-2,1.5-3.4,2.5c-1.4,1-3.3,2.4-5.6,4.2
	l-1-0.9c1.8-2.5,3.1-4.3,3.8-5.4c0.7-1,1.5-2.2,2.3-3.5c0.7-1,1.3-1.7,1.9-2c0.6-0.3,1.3-0.5,2-0.5c0.6,0,1.1,0.2,1.5,0.6
	C223.1,2.6,223.4,3.1,223.4,3.6z M224,22.6c0,2-0.6,3.8-1.9,5.2c-1.2,1.4-3,2.6-5.4,3.5c-1.7,0.6-3.5,1.2-5.3,1.6
	c-1.8,0.4-3.7,0.7-5.9,1c0,3,0.5,5.3,1.6,6.9c1.1,1.6,2.7,2.4,4.8,2.4c1.9,0,3.5-0.5,4.9-1.4c1.4-1,2.9-2.4,4.2-4.3l1.6,1.2
	c-1.5,2.3-3.4,4.2-5.6,5.6c-2.2,1.4-4.6,2.1-7,2.1c-3.3,0-5.8-0.9-7.6-2.8c-1.7-1.9-2.6-4.6-2.6-8c0-2.4,0.4-4.7,1.1-6.9
	c0.7-2.2,1.8-4.2,3.3-6c1.4-1.8,3.1-3.2,5.1-4.3c2-1.1,4.3-1.6,6.7-1.6c2.7,0,4.7,0.6,6,1.7C223.3,19.5,224,20.9,224,22.6z
	 M218.8,21.9c0-0.7-0.1-1.3-0.3-1.7c-0.2-0.4-0.5-0.8-0.8-1c-0.3-0.2-0.7-0.4-1.1-0.4c-0.4-0.1-0.8-0.1-1.1-0.1
	c-2.2,0-4.3,1.3-6.2,3.8c-1.9,2.5-3.1,5.7-3.6,9.4c1.3-0.2,2.8-0.5,4.4-0.8c1.6-0.4,3-0.8,4.1-1.4c1.6-0.8,2.7-1.9,3.5-3.1
	C218.4,25.2,218.8,23.7,218.8,21.9z M233.2,46.9c-2.8,0-5.1-0.5-6.9-1.5c-1.8-1-2.8-2.3-2.8-3.9c0-0.8,0.3-1.5,0.8-2.2
	c0.5-0.7,1.2-1,2-1c0.7,0,1.3,0.2,1.8,0.5c0.5,0.3,0.8,0.8,1.1,1.2c0.3,0.5,0.5,1.1,0.7,1.8c0.2,0.7,0.4,1.3,0.6,1.7
	c0.3,0.3,0.7,0.6,1.2,0.9c0.5,0.3,1.2,0.4,2.2,0.4c2,0,3.5-0.5,4.6-1.5c1-1,1.6-2.4,1.6-4.2c0-1.3-0.5-2.3-1.5-3.1
	c-1-0.8-2.4-1.5-4.3-2.1c-0.7-0.2-1.5-0.6-2.4-1c-0.9-0.5-1.7-1-2.2-1.5c-0.7-0.6-1.2-1.3-1.6-2.2c-0.4-0.8-0.6-1.8-0.6-3
	c0-2.4,1.1-4.6,3.2-6.3c2.2-1.8,4.8-2.7,7.9-2.7c0.7,0,1.5,0,2.4,0.1c0.8,0.1,1.8,0.3,2.8,0.6c0.9,0.3,1.6,0.8,2.2,1.4
	c0.6,0.6,0.9,1.4,0.9,2.3c0,0.8-0.3,1.5-0.8,2.1c-0.5,0.6-1.2,0.9-2,0.9c-0.7,0-1.3-0.2-1.7-0.5c-0.4-0.3-0.8-0.7-1.1-1.2
	c-0.3-0.5-0.5-1.1-0.7-1.7c-0.2-0.6-0.4-1.2-0.6-1.7c-0.4-0.2-0.7-0.3-1-0.3c-0.3-0.1-0.7-0.1-1.1-0.1c-1.8,0-3.2,0.5-4.2,1.5
	c-0.9,1-1.4,2.2-1.4,3.5c0,1.3,0.4,2.3,1.3,3c0.9,0.7,2.3,1.4,4.2,2.1c2.5,0.9,4.4,2,5.5,3.2c1.2,1.2,1.7,2.7,1.7,4.5
	c0,2.9-1.1,5.3-3.3,7.1C239.2,46,236.5,46.9,233.2,46.9z M360.4,82.8c-5.2,0-9.4-4.3-9.4-9.6c0-5.4,4.2-9.6,9.4-9.6
	c5.3,0,9.4,4.3,9.4,9.6C369.8,78.5,365.7,82.8,360.4,82.8z M360.4,65.1c-4.3,0-7.9,3.5-7.9,8c0,4.5,3.6,8,7.9,8s7.9-3.5,7.9-8
	C368.3,68.6,364.7,65.1,360.4,65.1z M362.1,73.6l2.7,5H363l-2.7-5h-2v5h-1.5V67.8h4.4c1.9,0,3.6,0.6,3.6,2.9
	C364.9,72.8,363.5,73.6,362.1,73.6z M361,69.4h-2.6v2.7h1.6c1.4,0,3.4,0.2,3.4-1.2C363.3,69.5,362.2,69.4,361,69.4z M81.4,130.3
	v-4.3c3.4,0,5.2-1.3,5.2-3.8l0.2-5.4V76.1l-0.2-5.4c0-2.5-1.7-3.8-5.2-3.8v-4.4h35.7v12h-3.6v-1.1l-0.1-3c0-2.3-1.6-3.5-4.9-3.5
	H98.1v25.5h6.2l2.9-0.1c1.4,0,2.1-1,2.1-3v-1.6h3.6v13.5h-3.6v-1.7c0-2-0.7-2.9-2.1-2.9l-2.9-0.1h-6.2v20.3c0,3.7,0.2,6.2,0.5,7.4
	c0.4,1.2,2.3,1.8,5.9,1.8h2.8l4.3-0.2c1.3,0,2-0.4,2.3-1.2c0.2-0.8,0.3-2.6,0.3-5.4v-1.3h4.1v12.5H81.4z M119.4,130.3v-4.3
	c2.1,0,4.4-3.1,6.9-9.2l9.2-22.2L127,76.1l-2.1-4.6c-1.4-3.1-3.2-4.6-5.5-4.6v-4.4h21.2v4.4l-1.6,0c-1.9,0-2.8,0.6-2.8,1.7
	c0,1.1,0.9,3.6,2.8,7.4l7.3,15.9l6.6-15.9c1.8-4.3,2.7-6.9,2.7-7.6c0-1.1-0.9-1.6-2.8-1.6h-0.9v-4.4h12.2v4.4
	c-2.3,0.2-4.6,3.3-7.1,9.2l-8.6,20.5l9.3,20.2l2.9,6c1,2.1,2.1,3.2,3.5,3.2v4.3h-20v-4.3l1.7,0c1.9,0,2.9-0.5,2.9-1.5
	c0-1-1-3.5-2.9-7.7l-8.1-17.5l-7.3,17.5c-1.9,4.4-2.8,7-2.8,7.9c0,0.9,0.8,1.4,2.3,1.4l1.5,0v4.3H119.4z M167,130.3v-4.3
	c3.4,0,5.2-1.3,5.2-3.8l0.2-5.4V76.1l-0.2-5.4c0-2.5-1.7-3.8-5.2-3.8v-4.4h22v4.4c-3.4,0-5.2,1.3-5.2,3.8l-0.2,5.4v40.7l0.2,5.4
	c0,2.5,1.7,3.8,5.2,3.8v4.3H167z M222,77.1l-0.1-3c0-5.6-3.1-8.4-9.3-8.4c-9.5,0-14.2,10.3-14.2,30.8c0,20,5.3,29.9,15.8,29.9
	c4.3,0,8.4-1.4,12.3-4.1v5.7c-4.5,2.5-9.5,3.8-15.1,3.8c-8,0-14.3-3.1-18.8-9.4c-4.5-6.3-6.7-15-6.7-26.2c0-11.3,2.2-20,6.6-26.2
	c4.4-6.2,10.6-9.3,18.6-9.3c4.8,0,10,1,15.5,3v13.3H222z M228.1,130.3v-4.3l1.3-0.2c1.1-0.2,2.1-1.7,3-4.6l1.3-4.3l14.7-56.1h3.6
	l15.4,56.1l1.6,5.1c0.8,2.6,2.1,3.9,3.9,3.9v4.3h-20v-4.3c2.7,0,4.1-0.7,4.1-2c0-0.9-0.5-3.2-1.6-7l-1.6-5.6h-14.9l-1.5,5.7
	c-1,3.8-1.5,6.1-1.5,7c0,1.3,1.1,2,3.3,2v4.3H228.1z M240,107h12.5l-6.4-23.2L240,107z M312.9,130.8l-28.4-46.3v32.2l0.2,5.4
	c0,2.5,1.7,3.8,5.2,3.8v4.3h-16.4v-4.3c2.6,0,4.2-0.5,4.6-1.6c0.5-1.1,0.7-3.6,0.7-7.6V76.1c0-3.9-0.2-6.5-0.7-7.5
	c-0.5-1.1-2-1.7-4.6-1.7v-4.4h11l28.4,46.3V76.1l-0.2-5.4c0-2.5-1.7-3.8-5.2-3.8v-4.4h16.4v4.4c-3.4,0-5.2,1.3-5.2,3.8l-0.2,5.4
	v54.8H312.9z M320,130.3v-4.3l1.3-0.2c1.1-0.2,2.1-1.7,3-4.6l1.3-4.3l14.7-56.1h3.6l15.4,56.1l1.6,5.1c0.8,2.6,2.1,3.9,3.9,3.9v4.3
	h-20v-4.3c2.7,0,4.1-0.7,4.1-2c0-0.9-0.5-3.2-1.6-7l-1.6-5.6h-14.9l-1.5,5.7c-1,3.8-1.5,6.1-1.5,7c0,1.3,1.1,2,3.3,2v4.3H320z
	 M332,107h12.5L338,83.8L332,107z M21.6,61.8h18.6l11.6,40.3L64,61.8h15.8v4.4c-2.5,0-4,0.6-4.4,1.7c-0.4,1.1-0.7,3.6-0.7,7.6v41
	c0,4,0.2,6.5,0.6,7.7c0.4,1.1,1.9,1.6,4.4,1.6v4.4h-20v-4.4c2.8,0,4.1-1.3,4.1-3.9l0.1-5.5V74.1l-14,46.1h-4.5L31.9,73.5v43.1
	l0.1,5.5c0,2.6,1.4,3.9,4.1,3.9v4.4H21.6v-4.4c2.5,0,3.9-0.5,4.4-1.6c0.4-1.1,0.7-3.7,0.7-7.7v-41c0-4-0.2-6.5-0.7-7.6
	c-0.4-1.1-1.9-1.7-4.4-1.7V61.8z M369.6,146.4v4.3H0v-4.3H369.6z M0,41.4h122.3l4.4,4.3H0V41.4z M247.4,41.4H370v4.3H245.2
	L247.4,41.4z"/>
</svg>
