<?xml version="1.0" encoding="UTF-8" standalone="no"?>
<!DOCTYPE svg PUBLIC "-//W3C//DTD SVG 1.1//EN" "http://www.w3.org/Graphics/SVG/1.1/DTD/svg11.dtd">
<svg width="100%" height="100%" viewBox="0 0 525 208" version="1.1" xmlns="http://www.w3.org/2000/svg" xmlns:xlink="http://www.w3.org/1999/xlink" xml:space="preserve" xmlns:serif="http://www.serif.com/" style="fill-rule:evenodd;clip-rule:evenodd;stroke-linejoin:round;stroke-miterlimit:2;">
    <g id="Artboard1" transform="matrix(1.21408,0,0,1,0,0)">
        <rect x="0" y="0" width="432" height="208" style="fill:none;"/>
        <clipPath id="_clip1">
            <rect x="0" y="0" width="432" height="208"/>
        </clipPath>
        <g clip-path="url(#_clip1)">
            <g transform="matrix(1.87765,0,0,2.27962,365.184,111.12)">
                <path d="M0,-6.247L-20.725,-6.247L-20.725,-19.349L1.251,-19.349L1.251,-24.589L-26.8,-24.589L-26.8,18.587L-20.725,18.587L-20.725,-1.006L0,-1.006L0,-6.247ZM-2.705,40.366L3.131,40.366L3.131,34.53L-2.705,34.53L-2.705,40.366ZM-60.149,18.587L-54.074,18.587L-54.074,-1.006L-33.35,-1.006L-33.35,-6.247L-54.074,-6.247L-54.074,-19.349L-32.099,-19.349L-32.099,-24.589L-60.149,-24.589L-60.149,18.587ZM-81.885,-6.188L-86.888,-7.32C-90.938,-8.213 -93.915,-10.119 -93.915,-13.93C-93.915,-18.753 -88.079,-20.243 -84.744,-20.243C-80.457,-20.243 -75.454,-18.516 -74.024,-13.573L-68.129,-13.573C-69.856,-21.851 -76.705,-25.364 -84.505,-25.364C-91.473,-25.364 -100.109,-21.851 -100.109,-13.573C-100.109,-6.425 -94.213,-3.09 -88.257,-1.78L-82.897,-0.65C-77.538,0.602 -73.607,2.388 -73.607,6.974C-73.607,11.261 -77.24,14.239 -83.673,14.239C-90.343,14.239 -94.451,11.143 -95.583,5.188L-101.539,5.188C-100.407,13.763 -93.975,19.36 -83.792,19.36C-75.215,19.36 -67.354,14.835 -67.354,6.438C-67.354,-2.258 -75.275,-4.759 -81.885,-6.188M28.208,0.235L34.043,0.235L34.043,-5.599L28.208,-5.599L28.208,0.235ZM-114.64,18.587L-108.565,18.587L-108.565,-24.589L-114.64,-24.589L-114.64,18.587ZM23.785,17.036L29.62,17.036L29.62,11.201L23.785,11.201L23.785,17.036ZM11.767,30.207L17.602,30.207L17.602,24.372L11.767,24.372L11.767,30.207ZM11.767,-30.338L17.602,-30.338L17.602,-36.173L11.767,-36.173L11.767,-30.338ZM-2.705,-40.777L3.131,-40.777L3.131,-46.613L-2.705,-46.613L-2.705,-40.777ZM-190.066,17.036L-184.231,17.036L-184.231,11.201L-190.066,11.201L-190.066,17.036ZM-188.654,-5.601L-194.49,-5.601L-194.49,0.235L-188.654,0.235L-188.654,-5.601ZM-146.501,13.465L-152.039,13.465L-152.039,-19.468L-146.501,-19.468C-137.626,-19.468 -128.991,-17.682 -128.991,-3.031C-128.991,11.678 -137.626,13.465 -146.501,13.465M-146.321,-24.589L-158.114,-24.589L-158.114,18.587L-146.321,18.587C-132.683,18.587 -122.797,13.405 -122.797,-3.031C-122.797,-19.409 -132.683,-24.589 -146.321,-24.589M-157.635,-46.613L-163.471,-46.613L-163.471,-40.777L-157.635,-40.777L-157.635,-46.613ZM29.62,-22.402L23.785,-22.402L23.785,-16.567L29.62,-16.567L29.62,-22.402ZM-190.066,-16.567L-184.231,-16.567L-184.231,-22.402L-190.066,-22.402L-190.066,-16.567ZM-163.471,40.366L-157.635,40.366L-157.635,34.53L-163.471,34.53L-163.471,40.366ZM-178.048,30.207L-172.213,30.207L-172.213,24.372L-178.048,24.372L-178.048,30.207ZM-178.048,-30.338L-172.213,-30.338L-172.213,-36.173L-178.048,-36.173L-178.048,-30.338Z" style="fill:rgb(220,225,214);fill-rule:nonzero;"/>
            </g>
        </g>
    </g>
</svg>
