<?xml version="1.0" encoding="UTF-8" standalone="no"?>
<!DOCTYPE svg PUBLIC "-//W3C//DTD SVG 1.1//EN" "http://www.w3.org/Graphics/SVG/1.1/DTD/svg11.dtd">
<svg width="100%" height="100%" viewBox="0 0 902 208" version="1.1" xmlns="http://www.w3.org/2000/svg" xmlns:xlink="http://www.w3.org/1999/xlink" xml:space="preserve" xmlns:serif="http://www.serif.com/" style="fill-rule:evenodd;clip-rule:evenodd;stroke-linejoin:round;stroke-miterlimit:2;">
    <g id="Artboard1" transform="matrix(2.08615,0,0,1,0,0)">
        <rect x="0" y="0" width="432" height="208" style="fill:none;"/>
        <g transform="matrix(0.824894,0,0,1.72086,73.9591,100.339)">
            <path d="M0,4.255C0,8.562 -3.096,10.649 -7.022,10.649C-10.947,10.649 -14.044,8.562 -14.044,4.255L-14.044,-5.885L-10.566,-5.885L-10.566,2.909C-10.566,5.646 -10.432,8.136 -7.022,8.136C-3.612,8.136 -3.477,5.646 -3.477,2.909L-3.477,-5.885L0,-5.885L0,4.255ZM-22.815,10.312L-26.068,10.312L-26.068,-3.552L-26.113,-3.597L-30.644,10.312L-33.539,10.312L-37.823,-3.597L-37.868,-3.552L-37.868,10.312L-41.121,10.312L-41.121,-5.885L-35.423,-5.885L-32.035,5.893L-31.99,5.893L-28.311,-5.885L-22.815,-5.885L-22.815,10.312ZM-51.799,10.312L-52.966,6.88L-59.382,6.88L-60.593,10.312L-63.914,10.312L-58.058,-5.885L-53.931,-5.885L-48.3,10.312L-51.799,10.312ZM-69.431,-3.193L-76.408,-3.193L-76.408,0.71L-69.902,0.71L-69.902,3.402L-76.408,3.402L-76.408,10.312L-79.885,10.312L-79.885,-5.885L-69.431,-5.885L-69.431,-3.193ZM-89.659,23.329L433.147,23.329L433.147,-19.074L-89.659,-19.074L-89.659,23.329Z" style="fill:rgb(220,225,214);fill-rule:nonzero;"/>
        </g>
    </g>
</svg>
