<?xml version="1.0" encoding="UTF-8" standalone="no"?>
<!DOCTYPE svg PUBLIC "-//W3C//DTD SVG 1.1//EN" "http://www.w3.org/Graphics/SVG/1.1/DTD/svg11.dtd">
<svg width="100%" height="100%" viewBox="0 0 1100 77" version="1.1" xmlns="http://www.w3.org/2000/svg" xmlns:xlink="http://www.w3.org/1999/xlink" xml:space="preserve" xmlns:serif="http://www.serif.com/" style="fill-rule:evenodd;clip-rule:evenodd;stroke-linejoin:round;stroke-miterlimit:2;">
    <g transform="matrix(1,0,0,1,0.00003,-0.048078)">
        <g transform="matrix(0.290458,0,0,0.290458,-17.2817,-56.2668)">
            <g transform="matrix(1,0,0,1,82.9375,399.986)">
                <path d="M0,-62.746L0,-40.485L49.89,-40.485L49.89,-19.578L0,-19.578L0,20.907L-23.005,20.907L-23.005,-83.653L56.613,-83.653L56.613,-62.746L0,-62.746Z" style="fill:rgb(35,31,32);fill-rule:nonzero;"/>
            </g>
            <g transform="matrix(1,0,0,1,0,-30.774)">
                <rect x="164.381" y="347.107" width="23.005" height="104.56" style="fill:rgb(35,31,32);"/>
            </g>
            <g transform="matrix(1,0,0,1,219.708,316.334)">
                <path d="M0,104.56L0,0L23.005,0L23.005,83.64L75.129,83.64L75.129,104.56L0,104.56Z" style="fill:rgb(35,31,32);fill-rule:nonzero;"/>
            </g>
            <g transform="matrix(1,0,0,1,398.411,316.334)">
                <path d="M0,104.56L0,36.301L-29.43,80.958L-30.026,80.958L-59.152,36.748L-59.152,104.56L-81.704,104.56L-81.704,0L-56.911,0L-29.43,44.21L-1.943,0L22.85,0L22.85,104.56L0,104.56Z" style="fill:rgb(35,31,32);fill-rule:nonzero;"/>
            </g>
            <g transform="matrix(1,0,0,1,497.738,393.258)">
                <path d="M0,-50.033L-13.893,-16.128L13.892,-16.128L0,-50.033ZM31.67,27.636L22.112,4.184L-22.105,4.184L-31.665,27.636L-55.117,27.636L-10.304,-77.669L10.9,-77.669L55.719,27.636L31.67,27.636Z" style="fill:rgb(35,31,32);fill-rule:nonzero;"/>
            </g>
            <g transform="matrix(1,0,0,1,647.103,368.613)">
                <path d="M0,0C0,-18.523 -12.701,-31.522 -31.516,-31.522L-49.288,-31.522L-49.288,31.521L-31.516,31.521C-12.701,31.521 0,18.821 0,0.298L0,0ZM-31.516,52.28L-72.293,52.28L-72.293,-52.28L-31.516,-52.28C1.341,-52.28 24.048,-29.722 24.048,-0.298L24.048,0C24.048,29.424 1.341,52.28 -31.516,52.28" style="fill:rgb(35,31,32);fill-rule:nonzero;"/>
            </g>
            <g transform="matrix(1,0,0,1,761.607,385.201)">
                <path d="M0,-33.174C0,-43.032 -6.878,-48.109 -18.076,-48.109L-40.932,-48.109L-40.932,-18.077L-17.629,-18.077C-6.425,-18.077 0,-24.061 0,-32.864L0,-33.174ZM-0.446,35.693L-22.855,2.234L-40.932,2.234L-40.932,35.693L-63.932,35.693L-63.932,-68.867L-16.133,-68.867C8.511,-68.867 23.297,-55.869 23.297,-34.366L23.297,-34.068C23.297,-17.183 14.19,-6.581 0.895,-1.652L26.432,35.693L-0.446,35.693Z" style="fill:rgb(35,31,32);fill-rule:nonzero;"/>
            </g>
            <g transform="matrix(1,0,0,1,0,-30.774)">
                <rect x="812.863" y="347.107" width="23.005" height="104.56" style="fill:rgb(35,31,32);"/>
            </g>
            <g transform="matrix(1,0,0,1,940.453,368.613)">
                <path d="M0,0C0,-18.523 -12.694,-31.522 -31.516,-31.522L-49.294,-31.522L-49.294,31.521L-31.516,31.521C-12.694,31.521 0,18.821 0,0.298L0,0ZM-31.516,52.28L-72.293,52.28L-72.293,-52.28L-31.516,-52.28C1.347,-52.28 24.048,-29.722 24.048,-0.298L24.048,0C24.048,29.424 1.347,52.28 -31.516,52.28" style="fill:rgb(35,31,32);fill-rule:nonzero;"/>
            </g>
            <g transform="matrix(1,0,0,1,59.498,259.758)">
                <path d="M0,-29.635L14.538,-29.635L14.538,-27.114L2.719,-27.114L2.719,-16.822L11.372,-16.822L11.372,-14.339L2.719,-14.339L2.719,0L0,0L0,-29.635Z" style="fill:rgb(35,31,32);fill-rule:nonzero;"/>
            </g>
            <g transform="matrix(1,0,0,1,90.4736,259.758)">
                <path d="M0,-29.635L14.699,-29.635L14.699,-27.114L2.725,-27.114L2.725,-16.934L11.54,-16.934L11.54,-14.451L2.725,-14.451L2.725,-2.483L15.42,-2.483L15.42,0L0,0L0,-29.635Z" style="fill:rgb(35,31,32);fill-rule:nonzero;"/>
            </g>
            <g transform="matrix(1,0,0,1,120.692,236.492)">
                <path d="M0,16.822L2.359,15.742C3.762,19.069 6.009,21.304 9.529,21.304C13.216,21.304 15.494,19.218 15.494,16.139C15.494,12.415 12.453,10.887 9.212,9.286C5.444,7.449 1.36,5.561 1.36,0.198C1.36,-3.973 4.681,-6.928 9.088,-6.928C13.694,-6.928 16.301,-4.048 17.661,-0.77L15.295,0.322C14.252,-2.161 12.378,-4.495 9.051,-4.495C6.084,-4.495 4.042,-2.571 4.042,0.161C4.042,3.836 7.045,5.4 10.255,7.002C14.054,8.851 18.182,10.776 18.182,16.102C18.182,20.385 14.774,23.75 9.529,23.75C4.805,23.75 1.763,21.105 0,16.822" style="fill:rgb(35,31,32);fill-rule:nonzero;"/>
            </g>
            <g transform="matrix(1,0,0,1,161.432,257.237)">
                <path d="M0,-24.593L-7.772,-24.593L-7.772,-27.114L10.497,-27.114L10.497,-24.593L2.725,-24.593L2.725,2.521L0,2.521L0,-24.593Z" style="fill:rgb(35,31,32);fill-rule:nonzero;"/>
            </g>
            <g transform="matrix(1,0,0,1,0,-278.119)">
                <rect x="188.479" y="508.242" width="2.725" height="29.635" style="fill:rgb(35,31,32);"/>
            </g>
            <g transform="matrix(1,0,0,1,207.722,259.882)">
                <path d="M0,-29.759L2.688,-29.759L7.374,-13.296C8.38,-9.771 9.138,-6.89 9.895,-4.01L9.981,-4.01C10.739,-6.927 11.54,-9.771 12.539,-13.222L17.188,-29.759L19.752,-29.759L11.136,0L8.616,0L0,-29.759Z" style="fill:rgb(35,31,32);fill-rule:nonzero;"/>
            </g>
            <g transform="matrix(1,0,0,1,252.329,246.424)">
                <path d="M0,-3.091C-1.043,-6.655 -1.844,-9.534 -2.607,-12.415L-2.682,-12.415C-3.445,-9.497 -4.246,-6.655 -5.252,-3.128L-6.648,1.763L1.365,1.763L0,-3.091ZM-9.932,13.334L-12.502,13.334L-3.806,-16.425L-1.322,-16.425L7.374,13.334L4.643,13.334L2.042,4.159L-7.331,4.159L-9.932,13.334Z" style="fill:rgb(35,31,32);fill-rule:nonzero;"/>
            </g>
            <g transform="matrix(1,0,0,1,276.11,259.758)">
                <path d="M0,-29.635L2.725,-29.635L2.725,-2.483L14.618,-2.483L14.618,0L0,0L0,-29.635Z" style="fill:rgb(35,31,32);fill-rule:nonzero;"/>
            </g>
            <g transform="matrix(1,0,0,1,0,-278.119)">
                <rect x="325.578" y="508.242" width="2.725" height="29.635" style="fill:rgb(35,31,32);"/>
            </g>
            <g transform="matrix(1,0,0,1,346.789,259.758)">
                <path d="M0,-29.635L3.371,-29.635L13.259,-10.416C14.302,-8.405 14.904,-7.163 15.904,-5.165L15.984,-5.165L15.984,-29.635L18.468,-29.635L18.468,0L15.947,0L5.494,-20.187C4.327,-22.434 3.73,-23.552 2.563,-25.997L2.489,-25.997L2.489,0L0,0L0,-29.635Z" style="fill:rgb(35,31,32);fill-rule:nonzero;"/>
            </g>
            <g transform="matrix(1,0,0,1,389.416,257.237)">
                <path d="M0,-24.593L-7.771,-24.593L-7.771,-27.114L10.497,-27.114L10.497,-24.593L2.726,-24.593L2.726,2.521L0,2.521L0,-24.593Z" style="fill:rgb(35,31,32);fill-rule:nonzero;"/>
            </g>
            <g transform="matrix(1,0,0,1,416.345,259.758)">
                <path d="M0,-29.635L14.699,-29.635L14.699,-27.114L2.725,-27.114L2.725,-16.934L11.54,-16.934L11.54,-14.451L2.725,-14.451L2.725,-2.483L15.419,-2.483L15.419,0L0,0L0,-29.635Z" style="fill:rgb(35,31,32);fill-rule:nonzero;"/>
            </g>
            <g transform="matrix(1,0,0,1,456.395,245.58)">
                <path d="M0,-1.279C4.159,-1.279 6.282,-2.881 6.282,-7.288C6.282,-11.372 4.203,-12.937 -0.043,-12.937L-5.332,-12.937L-5.332,-1.279L0,-1.279ZM-8.014,-15.457L0.155,-15.457C5.761,-15.457 8.97,-12.862 8.97,-7.325C8.97,-2.359 6.208,-0.075 3.116,0.682L9.249,14.178L6.487,14.178L0.478,1.08L-5.332,1.08L-5.332,14.178L-8.014,14.178L-8.014,-15.457Z" style="fill:rgb(35,31,32);fill-rule:nonzero;"/>
            </g>
            <g transform="matrix(1,0,0,1,482.74,259.758)">
                <path d="M0,-29.635L3.364,-29.635L13.26,-10.416C14.302,-8.405 14.899,-7.163 15.904,-5.165L15.979,-5.165L15.979,-29.635L18.462,-29.635L18.462,0L15.941,0L5.487,-20.187C4.32,-22.434 3.725,-23.552 2.564,-25.997L2.483,-25.997L2.483,0L0,0L0,-29.635Z" style="fill:rgb(35,31,32);fill-rule:nonzero;"/>
            </g>
            <g transform="matrix(1,0,0,1,530.11,246.424)">
                <path d="M0,-3.091C-1.043,-6.655 -1.844,-9.534 -2.602,-12.415L-2.689,-12.415C-3.445,-9.497 -4.246,-6.655 -5.245,-3.128L-6.648,1.763L1.359,1.763L0,-3.091ZM-9.939,13.334L-12.496,13.334L-3.806,-16.425L-1.322,-16.425L7.368,13.334L4.649,13.334L2.042,4.159L-7.331,4.159L-9.939,13.334Z" style="fill:rgb(35,31,32);fill-rule:nonzero;"/>
            </g>
            <g transform="matrix(1,0,0,1,551.93,245.034)">
                <path d="M0,-0.174C0,-9.907 4.047,-15.469 10.379,-15.469C15.705,-15.469 18.225,-11.633 19.306,-6.307L16.785,-5.823C15.823,-10.429 14.022,-12.986 10.292,-12.986C5.487,-12.986 2.725,-8.07 2.725,-0.211C2.725,8.082 5.524,12.8 10.379,12.8C14.06,12.8 16.064,10.404 17.183,5.314L19.628,5.711C18.467,11.36 15.543,15.295 10.336,15.295C3.967,15.295 0,9.882 0,-0.174" style="fill:rgb(35,31,32);fill-rule:nonzero;"/>
            </g>
            <g transform="matrix(1,0,0,1,0,-278.119)">
                <rect x="588.442" y="508.242" width="2.731" height="29.635" style="fill:rgb(35,31,32);"/>
            </g>
            <g transform="matrix(1,0,0,1,626.742,244.947)">
                <path d="M0,0C0,-8.182 -3.004,-12.899 -7.685,-12.899C-12.414,-12.899 -15.456,-8.182 -15.456,0C-15.456,8.169 -12.414,12.887 -7.685,12.887C-3.004,12.887 0,8.169 0,0M-18.187,0C-18.187,-9.82 -13.854,-15.382 -7.685,-15.382C-1.558,-15.382 2.769,-9.82 2.769,0C2.769,9.808 -1.558,15.382 -7.685,15.382C-13.854,15.382 -18.187,9.808 -18.187,0" style="fill:rgb(35,31,32);fill-rule:nonzero;"/>
            </g>
            <g transform="matrix(1,0,0,1,646.769,259.758)">
                <path d="M0,-29.635L3.364,-29.635L13.259,-10.416C14.302,-8.405 14.897,-7.163 15.903,-5.165L15.978,-5.165L15.978,-29.635L18.461,-29.635L18.461,0L15.94,0L5.487,-20.187C4.32,-22.434 3.725,-23.552 2.563,-25.997L2.482,-25.997L2.482,0L0,0L0,-29.635Z" style="fill:rgb(35,31,32);fill-rule:nonzero;"/>
            </g>
            <g transform="matrix(1,0,0,1,694.138,246.424)">
                <path d="M0,-3.091C-1.042,-6.655 -1.843,-9.534 -2.601,-12.415L-2.688,-12.415C-3.444,-9.497 -4.245,-6.655 -5.245,-3.128L-6.648,1.763L1.36,1.763L0,-3.091ZM-9.939,13.334L-12.495,13.334L-3.805,-16.425L-1.321,-16.425L7.368,13.334L4.649,13.334L2.042,4.159L-7.331,4.159L-9.939,13.334Z" style="fill:rgb(35,31,32);fill-rule:nonzero;"/>
            </g>
            <g transform="matrix(1,0,0,1,717.919,259.758)">
                <path d="M0,-29.635L2.726,-29.635L2.726,-2.483L14.625,-2.483L14.625,0L0,0L0,-29.635Z" style="fill:rgb(35,31,32);fill-rule:nonzero;"/>
            </g>
            <g transform="matrix(1,0,0,1,773.799,232.606)">
                <path d="M0,24.669C6.164,24.669 9.169,20.907 9.169,12.292C9.169,3.886 6.164,0.038 -0.043,0.038L-3.929,0.038L-3.929,24.669L0,24.669ZM-6.654,-2.483L-0.446,-2.483C7.847,-2.483 11.932,2.124 11.932,12.292C11.932,22.471 7.729,27.152 -0.446,27.152L-6.654,27.152L-6.654,-2.483Z" style="fill:rgb(35,31,32);fill-rule:nonzero;"/>
            </g>
            <g transform="matrix(1,0,0,1,802.969,259.758)">
                <path d="M0,-29.635L14.705,-29.635L14.705,-27.114L2.725,-27.114L2.725,-16.934L11.539,-16.934L11.539,-14.451L2.725,-14.451L2.725,-2.483L15.426,-2.483L15.426,0L0,0L0,-29.635Z" style="fill:rgb(35,31,32);fill-rule:nonzero;"/>
            </g>
            <g transform="matrix(1,0,0,1,852.033,245.034)">
                <path d="M0,-0.174C0,-9.907 4.047,-15.469 10.373,-15.469C15.705,-15.469 18.231,-11.633 19.311,-6.307L16.785,-5.823C15.822,-10.429 14.022,-12.986 10.298,-12.986C5.493,-12.986 2.725,-8.07 2.725,-0.211C2.725,8.082 5.53,12.8 10.373,12.8C14.06,12.8 16.064,10.404 17.188,5.314L19.628,5.711C18.467,11.36 15.543,15.295 10.335,15.295C3.967,15.295 0,9.882 0,-0.174" style="fill:rgb(35,31,32);fill-rule:nonzero;"/>
            </g>
            <g transform="matrix(1,0,0,1,0,-278.119)">
                <rect x="888.552" y="508.242" width="2.719" height="29.635" style="fill:rgb(35,31,32);"/>
            </g>
            <g transform="matrix(1,0,0,1,909.763,259.758)">
                <path d="M0,-29.635L3.371,-29.635L13.26,-10.416C14.303,-8.405 14.904,-7.163 15.904,-5.165L15.984,-5.165L15.984,-29.635L18.468,-29.635L18.468,0L15.947,0L5.494,-20.187C4.327,-22.434 3.731,-23.552 2.563,-25.997L2.489,-25.997L2.489,0L0,0L0,-29.635Z" style="fill:rgb(35,31,32);fill-rule:nonzero;"/>
            </g>
            <g transform="matrix(1,0,0,1,946.611,259.758)">
                <path d="M0,-29.635L14.705,-29.635L14.705,-27.114L2.725,-27.114L2.725,-16.934L11.539,-16.934L11.539,-14.451L2.725,-14.451L2.725,-2.483L15.426,-2.483L15.426,0L0,0L0,-29.635Z" style="fill:rgb(35,31,32);fill-rule:nonzero;"/>
            </g>
        </g>
        <g transform="matrix(0.504248,0,0,0.504248,330.845,7.13657)">
            <g transform="matrix(0.994746,0,0,0.994746,-43.881019,-24.830424)">
                <g transform="matrix(-1,0,0,1,865.989,4.898)">
                    <rect x="431.684" y="31.363" width="2.621" height="102.455" style="fill:rgb(38,31,30);"/>
                </g>
                <g transform="matrix(1,0,0,1,111.7281,72.0458)">
                    <path d="M0,38.687L0,0C0,-2.352 -0.077,-6.146 -0.304,-9.103L13.426,-9.103L27.536,30.949L41.039,-9.103L54.999,-9.103C54.77,-6.146 54.695,-2.352 54.695,0L54.695,38.687C54.695,41.039 54.77,44.909 54.999,47.79L42.935,47.79C43.162,44.909 43.239,41.039 43.239,38.687L43.239,11.758L30.799,47.79L23.896,47.79L10.62,10.62L10.62,38.687C10.62,41.039 10.697,44.909 10.924,47.79L-0.304,47.79C-0.077,44.909 0,41.039 0,38.687" style="fill:rgb(38,31,30);fill-rule:nonzero;"/>
                </g>
                <g transform="matrix(1,0,0,1,176.312,70.6799)">
                    <path d="M0,41.419L14.259,-1.82C14.943,-3.794 15.399,-5.764 15.626,-7.738L30.115,-7.738L46.35,41.419C47.106,43.619 48.321,46.728 49.533,49.157L35.88,49.157C35.501,46.501 34.817,43.846 33.984,41.419L33.453,39.748L12.211,39.748L11.68,41.419C10.847,43.846 10.163,46.501 9.784,49.157L-3.186,49.157C-1.973,46.728 -0.758,43.619 0,41.419M30.494,30.343L22.908,3.715L15.172,30.343L30.494,30.343Z" style="fill:rgb(38,31,30);fill-rule:nonzero;"/>
                </g>
                <g transform="matrix(1,0,0,1,232.2279,72.0458)">
                    <path d="M0,38.687L0,0C0,-2.504 -0.075,-6.069 -0.302,-9.103L17.904,-9.103C36.032,-9.103 45.667,0.834 45.667,19.039C45.667,37.624 36.032,47.79 17.904,47.79L-0.302,47.79C-0.075,44.909 0,41.039 0,38.687M11.381,0.302L11.381,38.383L17.904,38.383C29.13,38.383 34.211,32.313 34.211,19.419C34.211,6.524 29.13,0.302 17.904,0.302L11.381,0.302Z" style="fill:rgb(38,31,30);fill-rule:nonzero;"/>
                </g>
                <g transform="matrix(1,0,0,1,286.4006,86.8388)">
                    <path d="M0,23.894L0,-14.793C0,-17.145 -0.075,-20.939 -0.302,-23.896L18.889,-23.896C33.303,-23.896 41.039,-17.524 41.039,-6.373C41.039,1.44 37.018,6.294 30.419,8.722C34.743,11.224 36.337,15.472 39.143,23.44C42.937,34.212 48.321,38.153 58.26,38.153C61.597,38.153 63.798,37.926 65.693,37.397L65.087,46.65C62.964,47.486 60.839,47.79 58.11,47.79C40.737,47.79 33.984,40.962 28.449,26.626C24.2,15.624 22.152,13.349 15.931,13.349L11.381,13.349L11.381,23.894C11.381,26.246 11.455,30.116 11.682,32.997L-0.302,32.997C-0.075,30.116 0,26.246 0,23.894M11.381,-14.491L11.381,3.942L18.662,3.942C25.565,3.942 29.661,0.759 29.661,-5.388C29.661,-11.684 26.248,-14.491 18.662,-14.491L11.381,-14.491Z" style="fill:rgb(38,31,30);fill-rule:nonzero;"/>
                </g>
                <g transform="matrix(1,0,0,1,337.6913,72.0469)">
                    <path d="M0,34.323L0,0C0,-2.353 -0.077,-6.147 -0.304,-9.103L11.682,-9.103C11.453,-6.222 11.378,-2.353 11.378,0L11.378,34.323C11.378,36.675 11.453,40.545 11.682,43.426L-0.304,43.426C-0.077,40.545 0,36.675 0,34.323" style="fill:rgb(38,31,30);fill-rule:nonzero;"/>
                </g>
                <g transform="matrix(1,0,0,1,359.9968,72.0458)">
                    <path d="M0,38.687L0,0C0,-2.504 -0.077,-6.069 -0.304,-9.103L17.902,-9.103C36.032,-9.103 45.667,0.834 45.667,19.039C45.667,37.624 36.032,47.79 17.902,47.79L-0.304,47.79C-0.077,44.909 0,41.039 0,38.687M11.378,0.302L11.378,38.383L17.902,38.383C29.13,38.383 34.211,32.313 34.211,19.419C34.211,6.524 29.13,0.302 17.902,0.302L11.378,0.302Z" style="fill:rgb(38,31,30);fill-rule:nonzero;"/>
                </g>
                <g transform="matrix(1,0,0,1,22.827,138.5018)">
                    <path d="M0,-75.54L0,-23.976C0,-8.706 10.572,0 31.285,0C51.993,0 62.563,-8.706 62.563,-23.976L62.563,-75.54L0,-75.54ZM54.6,-70.339C49.269,-60.774 38.971,-54.742 24.916,-53.388C16.929,-52.617 9.09,-53.39 5.246,-53.899L5.246,-70.339L54.6,-70.339ZM18.268,-6.741C9.712,-9.273 5.246,-15.13 5.246,-25.904L5.246,-48.945C7.94,-48.508 12.64,-47.917 18.268,-47.915L18.268,-6.741ZM31.31,-5C28.451,-5 25.824,-5.184 23.43,-5.553L23.422,-28.164C23.422,-28.164 31.594,-22.721 32.248,-22.873L35.097,-23.288L35.099,-22.41C35.099,-21.359 35.174,-20.434 35.296,-19.625C35.885,-15.881 37.607,-14.634 38.412,-14.247L37.771,-13.474C37.462,-13.102 37.741,-12.129 38.041,-11.513L39.844,-5.658C37.277,-5.222 34.431,-5 31.31,-5M57.356,-25.904C57.356,-19.383 55.747,-14.674 52.604,-11.408C53.56,-13.172 53.809,-14.963 52.869,-16.5L48.905,-22.434L44.157,-34.177L43.813,-38.964L44.873,-39.483C45.619,-39.829 46.003,-40.7 45.724,-41.399L45.41,-42.217C45.135,-42.93 44.22,-43.399 43.382,-43.267L41.837,-43.03L39.582,-44.589C39.248,-44.816 38.634,-44.941 38.208,-44.866L36.821,-44.629L33.608,-46.832C33.276,-47.074 32.792,-47.004 32.545,-46.707L30.671,-44.44C30.297,-43.988 30.267,-43.24 30.602,-42.761L33.465,-38.719L33.465,-31.502L30.175,-30.941C29.055,-30.941 23.482,-32.555 23.482,-33.87L23.482,-48.087C24.103,-48.127 24.724,-48.179 25.353,-48.239C39.904,-49.608 50.875,-55.334 57.356,-64.871L57.356,-25.904Z" style="fill:rgb(38,31,30);fill-rule:nonzero;"/>
                </g>
                <g transform="matrix(1,0,0,1,25.6866,60.2537)">
                    <path d="M0,-8.544L0.761,-6.157C0.791,-6.064 0.886,-6.007 0.98,-6.029L3.428,-6.563C3.61,-6.603 3.732,-6.389 3.61,-6.251L1.921,-4.4C1.856,-4.328 1.856,-4.218 1.921,-4.146L3.61,-2.293C3.732,-2.158 3.61,-1.941 3.428,-1.981L0.98,-2.517C0.886,-2.537 0.791,-2.482 0.761,-2.39L0,-0.002C-0.057,0.175 -0.304,0.175 -0.362,-0.002L-1.12,-2.39C-1.15,-2.482 -1.247,-2.537 -1.342,-2.517L-3.789,-1.981C-3.969,-1.941 -4.094,-2.158 -3.969,-2.293L-2.283,-4.146C-2.215,-4.218 -2.215,-4.328 -2.283,-4.4L-3.969,-6.251C-4.094,-6.389 -3.969,-6.603 -3.789,-6.563L-1.342,-6.029C-1.247,-6.007 -1.15,-6.064 -1.12,-6.157L-0.362,-8.544C-0.304,-8.719 -0.057,-8.719 0,-8.544" style="fill:rgb(38,31,30);fill-rule:nonzero;"/>
                </g>
                <g transform="matrix(1,0,0,1,35.2195,60.2537)">
                    <path d="M0,-8.544L0.761,-6.157C0.791,-6.064 0.886,-6.007 0.98,-6.029L3.428,-6.563C3.61,-6.603 3.732,-6.389 3.61,-6.251L1.921,-4.4C1.856,-4.328 1.856,-4.218 1.921,-4.146L3.61,-2.293C3.732,-2.158 3.61,-1.941 3.428,-1.981L0.98,-2.517C0.886,-2.537 0.791,-2.482 0.761,-2.39L0,-0.002C-0.057,0.175 -0.304,0.175 -0.359,-0.002L-1.12,-2.39C-1.15,-2.482 -1.247,-2.537 -1.342,-2.517L-3.789,-1.981C-3.969,-1.941 -4.094,-2.158 -3.969,-2.293L-2.283,-4.146C-2.215,-4.218 -2.215,-4.328 -2.283,-4.4L-3.969,-6.251C-4.094,-6.389 -3.969,-6.603 -3.789,-6.563L-1.342,-6.029C-1.247,-6.007 -1.15,-6.064 -1.12,-6.157L-0.359,-8.544C-0.304,-8.719 -0.057,-8.719 0,-8.544" style="fill:rgb(38,31,30);fill-rule:nonzero;"/>
                </g>
                <g transform="matrix(1,0,0,1,44.7523,60.2537)">
                    <path d="M0,-8.544L0.761,-6.157C0.791,-6.064 0.886,-6.007 0.98,-6.029L3.428,-6.563C3.61,-6.603 3.734,-6.389 3.61,-6.251L1.921,-4.4C1.856,-4.328 1.856,-4.218 1.921,-4.146L3.61,-2.293C3.734,-2.158 3.61,-1.941 3.428,-1.981L0.98,-2.517C0.886,-2.537 0.791,-2.482 0.761,-2.39L0,-0.002C-0.055,0.175 -0.304,0.175 -0.359,-0.002L-1.12,-2.39C-1.15,-2.482 -1.245,-2.537 -1.342,-2.517L-3.789,-1.981C-3.969,-1.941 -4.094,-2.158 -3.969,-2.293L-2.283,-4.146C-2.215,-4.218 -2.215,-4.328 -2.283,-4.4L-3.969,-6.251C-4.094,-6.389 -3.969,-6.603 -3.789,-6.563L-1.342,-6.029C-1.245,-6.007 -1.15,-6.064 -1.12,-6.157L-0.359,-8.544C-0.304,-8.719 -0.055,-8.719 0,-8.544" style="fill:rgb(38,31,30);fill-rule:nonzero;"/>
                </g>
                <g transform="matrix(1,0,0,1,54.2853,60.2537)">
                    <path d="M0,-8.544L0.761,-6.157C0.791,-6.064 0.886,-6.007 0.98,-6.029L3.43,-6.563C3.61,-6.603 3.734,-6.389 3.61,-6.251L1.921,-4.4C1.856,-4.328 1.856,-4.218 1.921,-4.146L3.61,-2.293C3.734,-2.158 3.61,-1.941 3.43,-1.981L0.98,-2.517C0.886,-2.537 0.791,-2.482 0.761,-2.39L0,-0.002C-0.055,0.175 -0.304,0.175 -0.359,-0.002L-1.12,-2.39C-1.15,-2.482 -1.245,-2.537 -1.342,-2.517L-3.789,-1.981C-3.969,-1.941 -4.094,-2.158 -3.969,-2.293L-2.283,-4.146C-2.215,-4.218 -2.215,-4.328 -2.283,-4.4L-3.969,-6.251C-4.094,-6.389 -3.969,-6.603 -3.789,-6.563L-1.342,-6.029C-1.245,-6.007 -1.15,-6.064 -1.12,-6.157L-0.359,-8.544C-0.304,-8.719 -0.055,-8.719 0,-8.544" style="fill:rgb(38,31,30);fill-rule:nonzero;"/>
                </g>
                <g transform="matrix(1,0,0,1,63.8183,60.2537)">
                    <path d="M0,-8.544L0.761,-6.157C0.791,-6.064 0.886,-6.007 0.98,-6.029L3.43,-6.563C3.61,-6.603 3.734,-6.389 3.61,-6.251L1.921,-4.4C1.856,-4.328 1.856,-4.218 1.921,-4.146L3.61,-2.293C3.734,-2.158 3.61,-1.941 3.43,-1.981L0.98,-2.517C0.886,-2.537 0.791,-2.482 0.761,-2.39L0,-0.002C-0.055,0.175 -0.304,0.175 -0.359,-0.002L-1.12,-2.39C-1.15,-2.482 -1.245,-2.537 -1.342,-2.517L-3.789,-1.981C-3.969,-1.941 -4.094,-2.158 -3.969,-2.293L-2.283,-4.146C-2.215,-4.218 -2.215,-4.328 -2.283,-4.4L-3.969,-6.251C-4.094,-6.389 -3.969,-6.603 -3.789,-6.563L-1.342,-6.029C-1.245,-6.007 -1.15,-6.064 -1.12,-6.157L-0.359,-8.544C-0.304,-8.719 -0.055,-8.719 0,-8.544" style="fill:rgb(38,31,30);fill-rule:nonzero;"/>
                </g>
                <g transform="matrix(1,0,0,1,73.3514,60.2537)">
                    <path d="M0,-8.544L0.761,-6.157C0.791,-6.064 0.886,-6.007 0.98,-6.029L3.428,-6.563C3.61,-6.603 3.732,-6.389 3.61,-6.251L1.921,-4.4C1.856,-4.328 1.856,-4.218 1.921,-4.146L3.61,-2.293C3.732,-2.158 3.61,-1.941 3.428,-1.981L0.98,-2.517C0.886,-2.537 0.791,-2.482 0.761,-2.39L0,-0.002C-0.057,0.175 -0.304,0.175 -0.362,-0.002L-1.12,-2.39C-1.15,-2.482 -1.247,-2.537 -1.342,-2.517L-3.789,-1.981C-3.969,-1.941 -4.094,-2.158 -3.969,-2.293L-2.283,-4.146C-2.215,-4.218 -2.215,-4.328 -2.283,-4.4L-3.969,-6.251C-4.094,-6.389 -3.969,-6.603 -3.789,-6.563L-1.342,-6.029C-1.247,-6.007 -1.15,-6.064 -1.12,-6.157L-0.362,-8.544C-0.304,-8.719 -0.057,-8.719 0,-8.544" style="fill:rgb(38,31,30);fill-rule:nonzero;"/>
                </g>
                <g transform="matrix(1,0,0,1,82.8844,60.2537)">
                    <path d="M0,-8.544L0.761,-6.157C0.791,-6.064 0.886,-6.007 0.98,-6.029L3.428,-6.563C3.61,-6.603 3.732,-6.389 3.61,-6.251L1.921,-4.4C1.856,-4.328 1.856,-4.218 1.921,-4.146L3.61,-2.293C3.732,-2.158 3.61,-1.941 3.428,-1.981L0.98,-2.517C0.886,-2.537 0.791,-2.482 0.761,-2.39L0,-0.002C-0.055,0.175 -0.304,0.175 -0.359,-0.002L-1.12,-2.39C-1.15,-2.482 -1.245,-2.537 -1.342,-2.517L-3.789,-1.981C-3.969,-1.941 -4.094,-2.158 -3.969,-2.293L-2.283,-4.146C-2.215,-4.218 -2.215,-4.328 -2.283,-4.4L-3.969,-6.251C-4.094,-6.389 -3.969,-6.603 -3.789,-6.563L-1.342,-6.029C-1.245,-6.007 -1.15,-6.064 -1.12,-6.157L-0.359,-8.544C-0.304,-8.719 -0.055,-8.719 0,-8.544" style="fill:rgb(38,31,30);fill-rule:nonzero;"/>
                </g>
                <g transform="matrix(1,0,0,1,84.6913,49.6829)">
                    <path d="M0,-13.18L-0.042,-13.03C-0.045,-13.02 -0.309,-12.127 -0.589,-11.671C-0.99,-11 -2.168,-10.349 -3.016,-10.408L-3.016,-7.345L-2.946,-7.345C-2.375,-7.345 -1.739,-7.47 -1.182,-7.634L-1.182,-6.512C-1.182,-5.701 -1.409,-3.815 -3.507,-3.815C-4.455,-3.815 -5.029,-4.409 -5.364,-4.975C-5.179,-5.307 -5.084,-5.676 -5.084,-6.055C-5.084,-6.647 -5.314,-7.205 -5.735,-7.632C-6.157,-8.051 -6.716,-8.286 -7.312,-8.286C-8.537,-8.286 -9.537,-7.285 -9.537,-6.055C-9.537,-5.674 -9.44,-5.302 -9.258,-4.975C-9.589,-4.409 -10.168,-3.815 -11.114,-3.815C-13.212,-3.815 -13.439,-5.701 -13.439,-6.512L-13.439,-7.979C-13.351,-7.979 -13.266,-7.959 -13.187,-7.926C-12.286,-7.545 -11.348,-7.36 -10.64,-7.373L-10.64,-10.436C-11.498,-10.376 -12.663,-11.027 -13.067,-11.696C-13.361,-12.18 -13.533,-12.536 -13.606,-13.028L-13.631,-13.207L-16.522,-13.207L-16.564,-13.058C-16.567,-13.048 -16.831,-12.155 -17.111,-11.696C-17.515,-11.027 -18.69,-10.374 -19.538,-10.436L-19.538,-7.373C-18.71,-7.355 -17.712,-7.624 -17.058,-7.901C-16.951,-7.946 -16.839,-7.974 -16.716,-7.976L-16.716,-6.512C-16.716,-5.701 -16.931,-3.815 -19.032,-3.815C-19.972,-3.815 -20.548,-4.401 -20.882,-4.968C-20.693,-5.299 -20.596,-5.674 -20.596,-6.055C-20.596,-7.285 -21.596,-8.286 -22.826,-8.286C-24.053,-8.286 -25.051,-7.285 -25.051,-6.055C-25.051,-5.676 -24.956,-5.309 -24.774,-4.98C-25.108,-4.411 -25.685,-3.815 -26.635,-3.815C-28.733,-3.815 -28.958,-5.701 -28.958,-6.512C-28.958,-6.624 -28.945,-7.722 -28.945,-7.722L-28.943,-7.979L-28.925,-7.979C-28.84,-7.979 -28.753,-7.959 -28.676,-7.926C-27.775,-7.545 -26.837,-7.36 -26.129,-7.373L-26.129,-10.436C-26.987,-10.376 -28.152,-11.027 -28.556,-11.696C-28.85,-12.18 -29.022,-12.536 -29.095,-13.028L-29.12,-13.207L-32.051,-13.207L-32.078,-13.028C-32.148,-12.536 -32.32,-12.18 -32.617,-11.696C-33.019,-11.027 -34.186,-10.376 -35.044,-10.436L-35.044,-7.373C-34.336,-7.36 -33.396,-7.545 -32.497,-7.926C-32.418,-7.959 -32.33,-7.979 -32.246,-7.979L-32.231,-7.979L-32.228,-7.722C-32.228,-7.722 -32.213,-6.624 -32.213,-6.512C-32.213,-5.701 -32.438,-3.815 -34.536,-3.815C-35.489,-3.815 -36.062,-4.411 -36.399,-4.98C-36.217,-5.309 -36.122,-5.676 -36.122,-6.055C-36.122,-7.285 -37.12,-8.286 -38.347,-8.286C-39.575,-8.286 -40.575,-7.285 -40.575,-6.055C-40.575,-5.674 -40.478,-5.299 -40.291,-4.968C-40.625,-4.401 -41.199,-3.815 -42.142,-3.815C-44.24,-3.815 -44.454,-5.701 -44.454,-6.512L-44.454,-7.976C-44.334,-7.974 -44.22,-7.946 -44.112,-7.901C-43.461,-7.624 -42.463,-7.355 -41.635,-7.373L-41.635,-10.436C-42.484,-10.374 -43.658,-11.027 -44.063,-11.696C-44.342,-12.155 -44.604,-13.048 -44.606,-13.058L-44.649,-13.207L-47.54,-13.207L-47.568,-13.028C-47.637,-12.536 -47.809,-12.18 -48.106,-11.696C-48.508,-11.027 -49.676,-10.376 -50.534,-10.436L-50.534,-7.373C-49.825,-7.36 -48.885,-7.545 -47.987,-7.926C-47.904,-7.959 -47.82,-7.979 -47.732,-7.979L-47.732,-6.512C-47.732,-5.701 -47.959,-3.815 -50.06,-3.815C-51.005,-3.815 -51.581,-4.409 -51.913,-4.975C-51.731,-5.302 -51.634,-5.674 -51.634,-6.055C-51.634,-7.285 -52.634,-8.286 -53.859,-8.286C-54.458,-8.286 -55.017,-8.051 -55.438,-7.632C-55.857,-7.205 -56.089,-6.647 -56.089,-6.055C-56.089,-5.676 -55.994,-5.307 -55.81,-4.975C-56.144,-4.409 -56.718,-3.815 -57.663,-3.815C-59.761,-3.815 -59.991,-5.701 -59.991,-6.512L-59.991,-7.634C-59.435,-7.47 -58.798,-7.345 -58.225,-7.345L-58.157,-7.345L-58.157,-10.408C-59.005,-10.349 -60.18,-11 -60.585,-11.671C-60.864,-12.127 -61.126,-13.02 -61.131,-13.03L-61.173,-13.18L-63.855,-13.18L-63.855,-7.153C-63.855,-2.658 -61.577,0.027 -57.766,0.027C-56.104,0.027 -54.46,-0.969 -53.859,-1.37C-53.263,-0.969 -51.619,0.027 -49.957,0.027C-48.229,0.027 -46.692,-0.994 -46.101,-1.443C-45.507,-0.994 -43.975,0.027 -42.241,0.027C-40.583,0.027 -38.939,-0.969 -38.34,-1.37C-37.741,-0.969 -36.097,0.027 -34.436,0.027C-32.712,0.027 -31.185,-0.989 -30.587,-1.438C-29.988,-0.989 -28.459,0.027 -26.737,0.027C-25.076,0.027 -23.432,-0.969 -22.831,-1.37C-22.235,-0.969 -20.591,0.027 -18.929,0.027C-17.198,0.027 -15.664,-0.994 -15.07,-1.443C-14.479,-0.994 -12.942,0.027 -11.213,0.027C-9.554,0.027 -7.911,-0.969 -7.312,-1.37C-6.711,-0.969 -5.067,0.027 -3.408,0.027C0.407,0.027 2.684,-2.658 2.684,-7.153L2.684,-13.18L0,-13.18Z" style="fill:rgb(38,31,30);fill-rule:nonzero;"/>
                </g>
                <g transform="matrix(1,0,0,1,460.6064,78.2888)">
                    <path d="M0,22.536C0,38.674 8.594,46.122 21.581,46.122L21.867,46.122L21.867,32.181L21.772,32.181C18.43,32.181 16.233,30.461 16.233,24.828L16.233,-2.291C16.233,-7.926 18.43,-9.644 21.772,-9.644L21.867,-9.644L21.867,-23.586L21.581,-23.586C8.594,-23.586 0,-16.138 0,0.001L0,22.536ZM23.872,-9.644C27.31,-9.644 29.506,-7.926 29.506,-2.291L29.506,6.971L45.739,6.971L45.739,0.001C45.739,-16.138 37.145,-23.586 24.064,-23.586L23.777,-23.586L23.777,-9.644L23.872,-9.644ZM24.064,46.122C37.145,46.122 45.739,38.674 45.739,22.536L45.739,15.565L29.506,15.565L29.506,24.828C29.506,30.461 27.31,32.181 23.872,32.181L23.777,32.181L23.777,46.122L24.064,46.122ZM67.893,-22.822L51.66,-22.822L51.66,45.358L67.893,45.358L67.893,-22.822ZM75.34,-22.822L75.34,45.359L89.473,45.359L88.804,10.599L78.778,-22.822L75.34,-22.822ZM101.122,45.359L114.588,45.359L94.152,-22.822L80.688,-22.822L101.122,45.359ZM119.935,45.359L119.935,-22.822L105.802,-22.822L106.948,13.465L116.592,45.359L119.935,45.359ZM143.615,-22.822L127.382,-22.822L127.382,45.358L143.615,45.358L143.615,-22.822ZM166.342,-22.822L145.525,-22.822L145.525,-9.072L166.342,-9.072L166.342,-22.822ZM164.623,3.916L145.525,3.916L145.525,17.666L164.623,17.666L164.623,3.916ZM166.342,31.607L145.525,31.607L145.525,45.357L166.342,45.357L166.342,31.607ZM207.306,-22.822L168.441,-22.822L168.441,-9.072L207.306,-9.072L207.306,-22.822ZM179.71,45.359L195.943,45.359L195.943,-7.352L179.71,-7.352L179.71,45.359ZM227.167,-22.822L210.934,-22.822L210.934,45.358L227.167,45.358L227.167,-22.822ZM249.894,-22.822L229.077,-22.822L229.077,-9.072L249.894,-9.072L249.894,-22.822ZM248.175,3.916L229.077,3.916L229.077,17.666L248.175,17.666L248.175,3.916ZM249.894,31.607L229.077,31.607L229.077,45.357L249.894,45.357L249.894,31.607ZM254.859,22.536C254.859,38.674 263.453,46.122 276.439,46.122L276.726,46.122L276.726,32.181L276.631,32.181C273.288,32.181 271.092,30.461 271.092,24.828L271.092,-2.291C271.092,-7.926 273.288,-9.644 276.631,-9.644L276.726,-9.644L276.726,-23.586L276.439,-23.586C263.453,-23.586 254.859,-16.138 254.859,0.001L254.859,22.536ZM278.731,-9.644C282.169,-9.644 284.365,-7.926 284.365,-2.291L284.365,6.971L300.598,6.971L300.598,0.001C300.598,-16.138 292.004,-23.586 278.923,-23.586L278.635,-23.586L278.635,-9.644L278.731,-9.644ZM278.923,46.122C292.004,46.122 300.598,38.674 300.598,22.536L300.598,15.565L284.365,15.565L284.365,24.828C284.365,30.461 282.169,32.181 278.731,32.181L278.635,32.181L278.635,46.122L278.923,46.122ZM320.842,18.238L325.139,-4.201L322.084,-22.822L314.539,-22.822L300.598,45.359L315.59,45.359L318.36,30.748L330.964,30.748L328.958,18.238L320.842,18.238ZM323.993,-22.822L335.548,45.359L351.876,45.359L337.553,-22.822L323.993,-22.822Z" style="fill:rgb(38,31,30);fill-rule:nonzero;"/>
                </g>
            </g>
        </g>
        <g transform="matrix(0.336542,0,0,0.336542,952.467,38.1987)">
            <g transform="matrix(1,0,0,1,-534.558712,-84.5)">
                <g>
                    <clipPath id="_clip1">
                        <rect x="0" y="0" width="574" height="169"/>
                    </clipPath>
                    <g clip-path="url(#_clip1)">
                        <g transform="matrix(0.681175,0,0,0.416923,590.842,467.588)">
                            <path d="M-35.1,-797.9C-51.5,-819.2 -60.5,-867 -69.4,-913.6C-77.5,-956.6 -88.7,-1015.5 -102.3,-1015.5C-115.9,-1015.5 -127.1,-956.6 -135.2,-913.6C-147,-851.1 -159.3,-786.5 -189,-786.5C-218.8,-786.5 -231,-851.1 -242.8,-913.6C-250.9,-956.6 -262.1,-1015.5 -275.7,-1015.5C-289.3,-1015.5 -300.5,-956.6 -308.6,-913.6C-320.4,-851.1 -332.7,-786.5 -362.4,-786.5C-392.2,-786.5 -404.4,-851.1 -416.2,-913.6C-424.3,-956.6 -435.5,-1015.5 -449.1,-1015.5C-462.7,-1015.5 -473.9,-956.6 -482,-913.6C-493.8,-851.1 -506.1,-786.5 -535.8,-786.5C-565.5,-786.5 -577.8,-851.1 -589.6,-913.6C-597.7,-956.6 -608.9,-1015.5 -622.5,-1015.5C-636.1,-1015.5 -647.3,-956.6 -655.4,-913.6C-664.2,-867 -673.3,-819.2 -689.7,-797.9C-691.6,-798.4 -693.6,-799.5 -695.7,-801.3C-701.3,-806.3 -704.5,-815.3 -704.4,-824.7C-693,-836.4 -683.5,-886.3 -676.4,-924.1C-664.6,-986.6 -652.3,-1051.2 -622.6,-1051.2C-592.8,-1051.2 -580.6,-986.6 -568.8,-924.1C-560.7,-881.1 -549.5,-822.2 -535.9,-822.2C-522.3,-822.2 -511.1,-881.1 -503,-924.1C-491.2,-986.6 -478.9,-1051.2 -449.2,-1051.2C-419.4,-1051.2 -407.2,-986.6 -395.4,-924.1C-387.3,-881.1 -376.1,-822.2 -362.5,-822.2C-348.9,-822.2 -337.7,-881.1 -329.6,-924.1C-317.8,-986.6 -305.5,-1051.2 -275.8,-1051.2C-246,-1051.2 -233.8,-986.6 -222,-924.1C-213.9,-881.1 -202.7,-822.2 -189.1,-822.2C-175.5,-822.2 -164.3,-881.1 -156.2,-924.1C-144.4,-986.6 -132.1,-1051.2 -102.4,-1051.2C-72.6,-1051.2 -60.4,-986.6 -48.6,-924.1C-41.7,-887.9 -32.8,-840.4 -22,-826.3C-21.8,-812.5 -25.1,-800.8 -35.1,-797.9ZM-805.5,-1019C-767.5,-995.9 -728.3,-972 -728.3,-917C-728.3,-861.9 -767.5,-838.1 -805.5,-815C-821.7,-805.1 -838.2,-795.1 -850.3,-783.4C-851.3,-784.3 -852.3,-785.3 -853.3,-786.4C-857,-790.3 -860.8,-795.6 -862.5,-802.4C-863.5,-806.2 -863.2,-809.9 -862.3,-813.3C-848.3,-827.2 -830.6,-838 -813.1,-848.6C-782.1,-867.4 -750.1,-886.9 -750.1,-917.1C-750.1,-947.3 -782.1,-966.8 -813.1,-985.6C-832.7,-997.5 -852.7,-1009.7 -867.4,-1026.2C-866.3,-1038.7 -860.9,-1049.9 -853.9,-1054.5C-841.7,-1041.1 -823.4,-1029.9 -805.5,-1019ZM-81.6,-900.3C-81.6,-889.8 -86.8,-881.2 -93.3,-881.2L-111.4,-881.2C-117.8,-881.2 -123.1,-889.7 -123.1,-900.3C-123.1,-910.9 -117.9,-919.4 -111.4,-919.4L-93.3,-919.4C-86.9,-919.4 -81.6,-910.9 -81.6,-900.3ZM-602,-900.3C-602,-889.8 -607.2,-881.2 -613.7,-881.2L-631.8,-881.2C-638.2,-881.2 -643.5,-889.7 -643.5,-900.3C-643.5,-910.9 -638.3,-919.4 -631.8,-919.4L-613.7,-919.4C-607.3,-919.4 -602,-910.9 -602,-900.3Z" style="fill:rgb(32,19,46);fill-rule:nonzero;"/>
                        </g>
                    </g>
                </g>
            </g>
        </g>
        <g transform="matrix(0.074687,0,0,0.074687,1022.600982,0.048078)">
            <path d="M39.352,708.537C39.155,708.039 36.978,702.537 36.849,702.328C35.314,699.838 30.69,685.848 30.531,685.486C29.043,682.087 29.792,681.903 28.167,678.635C26.919,676.127 17.604,644.947 17.354,643.527C17.348,643.489 10.467,616.692 7.383,597.518C5.92,588.42 6.189,588.397 6.049,587.61C4.352,578.071 4.774,578.103 3.39,568.514C0.429,547.996 -0.163,482.176 3.403,455.488C3.809,452.45 8.352,418.452 8.585,417.528C13.451,398.226 12.818,398.109 13.374,396.473C16.198,388.161 14.955,387.882 17.594,379.532C19.892,372.259 19.321,372.132 19.619,371.545C21.371,368.092 25.631,352.184 25.887,351.676C26.242,350.975 27.5,348.484 29.257,342.445C29.442,341.812 31.384,335.134 31.606,334.542C32.212,332.921 34.817,329.254 35.422,324.483C35.508,323.803 37.154,321.48 37.192,321.372C40.508,311.978 40.981,312.215 41.257,311.399C43.706,304.157 44.873,303.937 46.172,300.378C49.343,291.696 67.39,257.588 69.243,255.349C69.551,254.976 82.094,233.805 84.175,231.273C84.61,230.744 89.891,221.816 94.064,217.189C97.117,213.805 95.682,212.77 122.331,180.384L123.499,178.499C133.61,168.394 142.888,157.399 144.495,155.495L145.492,154.492C145.653,154.333 146.495,153.495 147.495,152.495L152.495,147.495C153.495,146.495 154.333,145.653 154.492,145.492C155.547,144.443 155.476,144.51 156.566,143.591C158.56,142.176 158.45,142.171 160.849,139.867C170.105,130.98 173.133,128.786 177.499,124.499C178.551,123.444 178.481,123.511 179.562,122.592C180.159,122.21 180.12,122.347 180.731,121.844C187.922,115.932 187.919,116.053 188.496,115.495C190.579,113.477 199.26,107.272 199.27,107.262C202.252,104.194 205.391,102.469 205.442,102.426C218.617,91.161 258.687,66.329 281.698,54.886C300.519,45.526 300.965,46.479 302.433,45.396C304.975,43.519 328.976,34.032 330.534,33.589C339.327,31.086 338.921,30.086 339.686,29.89C343.196,28.988 343.002,28.58 346.541,27.609C349.624,26.763 349.458,26.456 352.541,25.61C354.615,25.041 376.825,18.945 378.379,18.201C381.931,16.499 393.405,15.325 397.669,12.881C399.112,12.51 399.037,12.534 400.493,12.401C402.671,12.203 421.49,8.337 427.482,7.383C451.939,3.491 451.971,4.349 461.419,3.051C472.555,1.52 490.11,1.28 491.432,1.049C491.924,0.963 492.009,0.086 492.5,0L531.5,0C531.531,0.017 532.113,1.043 533.526,1.1C540.082,1.362 540.003,1.162 546.538,2.039C556.436,3.367 556.911,-0.3 623.508,12.398C624.939,12.528 624.869,12.5 626.331,12.88C632.055,15.077 667.611,23.233 694.324,33.886C697.253,35.054 727.618,47.163 730.538,49.443C733.392,51.671 737.937,50.485 784.288,78.849C791.696,83.382 802.813,91.153 804.619,92.3C805.444,92.824 810.47,96.016 814.587,99.363L816.496,100.504C819.772,103.708 825.714,107.608 843.604,122.348C845.167,123.284 845.188,123.164 846.504,124.496C854.508,132.552 858.765,135.727 866.631,143.336C870.01,145.399 869.709,145.685 872.51,148.49C873.293,149.273 873.403,149.059 874.171,149.829C875.428,151.081 875.188,151.168 876.511,152.49C876.671,152.649 877.513,153.487 878.516,154.484C879.829,155.802 879.715,155.815 880.665,157.368C898.329,175.635 897.94,175.941 899.504,177.497C900.518,178.5 900.46,178.433 901.415,179.556C901.806,180.174 901.703,180.178 902.157,180.729C908.479,188.399 908.109,188.676 908.733,189.271C912.432,192.794 915.775,198.118 916.277,198.697C923.195,206.676 922.859,206.852 923.495,207.504L924.638,209.412C925.782,210.821 925.789,210.742 926.697,212.373C928.45,215.523 929.195,214.853 931.091,217.842C934.618,223.399 934.839,223.219 935.126,223.711C942.073,235.633 958.969,258.492 979.058,302.821C985.155,316.275 984.744,316.447 985.415,317.541C985.915,318.357 992.084,335.468 993.428,338.533C998.215,349.45 1010.47,396.518 1011.118,397.668C1011.476,399.078 1011.459,399.005 1011.596,400.493C1012.032,404.958 1014.376,415.198 1014.666,416.467C1016.148,422.941 1015.385,422.998 1016.952,429.397C1017.923,433.36 1017.249,433.359 1017.899,437.445C1021.179,458.038 1023.329,467.961 1022.852,526.508C1022.561,562.33 1020.259,562.115 1019.655,575.508C1019.28,583.829 1013.738,612.237 1013.608,614.507C1013.465,615.978 1013.489,615.901 1013.122,617.362C1012.05,620.445 1012.21,620.382 1011.593,623.508C1011.452,625.01 1011.466,624.933 1011.121,626.361C1006.979,638.34 1006.046,649.274 997.152,674.366C992.282,688.105 992.84,688.273 992.395,689.459C991.911,690.751 991.431,690.405 990.991,691.718C989.153,697.191 988.856,697.076 988.76,697.567C987.515,703.909 975.1,728.956 974.112,732.308C973.956,732.838 956.759,765.968 955.63,767.568C955.273,768.664 955.292,768.587 954.505,769.504C950.214,776.938 927.548,811.568 923.498,816.498C912.847,829.466 913.146,829.603 902.668,842.616C901.709,844.173 901.824,844.187 900.503,845.503C897.199,848.801 897.297,848.801 894.147,852.169C893.296,853.079 884.054,862.962 883.649,863.662C880.496,869.11 846.555,899.45 845.502,900.502C844.18,901.827 844.166,901.712 842.619,902.672C838.028,906.356 837.982,906.28 837.594,906.613C817.717,923.641 817.12,922.903 815.495,924.494L813.591,925.648C810.438,927.466 807.112,930.183 806.579,930.618C799.559,936.351 798.973,935.464 796.519,937.526C793.174,940.337 774.011,951.639 773.286,952.151C766.083,957.235 765.286,955.927 762.183,959.091C761.763,959.519 761.078,958.245 755.504,962.505C754.609,963.265 754.686,963.257 753.528,963.582C751.832,964.345 751.936,964.302 750.304,965.117C714.909,982.794 714.37,981.614 711.509,983.515C710.231,984.58 710.2,984.43 708.537,984.648C707.892,984.904 707.939,984.845 707.339,985.122C685.907,995.018 627.099,1013.222 585.509,1018.564C549.533,1023.185 543.869,1022.677 529.508,1022.799C471.573,1023.293 471.212,1021.799 466.493,1021.671C456.878,1021.408 457.057,1020.053 447.491,1019.661C439.165,1019.32 423.484,1015.801 421.482,1015.681C414.822,1015.278 415.083,1013.896 408.492,1013.616C407.047,1013.476 407.115,1013.502 405.669,1013.12C401.199,1011.318 401.148,1011.824 396.471,1010.698C387.339,1008.501 387.315,1008.638 386.537,1008.391C385.576,1008.086 376.383,1005.17 374.444,1004.827C370.803,1004.184 371.042,1003.474 367.441,1002.822C359.648,1001.41 357.227,999.334 354.436,998.81C347.522,997.513 340.537,993.928 336.446,992.73C326.86,989.925 327.205,989.046 326.363,988.851C319.053,987.156 319.486,986.194 312.486,983.523C312.152,983.395 309.473,982.373 308.411,981.704C302.335,977.88 291.036,975.907 250.709,952.159C247.383,950.201 224.652,936.814 210.399,925.66L208.509,924.49C206.361,922.429 189.989,909.889 182.396,903.654C180.834,902.715 180.813,902.836 179.497,901.503C178.317,899.955 178.334,899.956 178.223,899.831C177.213,898.698 176.702,899.435 175.756,898.239C173.519,895.41 173.107,895.925 170.502,893.498C169.218,892.303 155.787,879.795 154.497,878.503C152.501,876.503 131.364,855.334 129.899,853.155C129.391,852.399 127.458,849.524 122.496,844.504C121.435,843.457 121.499,843.522 120.582,842.446C120.309,842.014 119.43,840.62 116.833,837.277C115.467,835.519 101.57,817.631 99.509,815.492L98.342,813.599C92.355,805.975 80.994,788.397 75.931,780.168C69.205,769.237 68.96,769.487 68.601,768.441C67.785,766.06 66.512,763.982 66.288,763.617C61.753,756.214 61.951,756.104 61.496,755.503C60.735,754.602 60.745,754.679 60.42,753.527C59.191,750.799 59.228,750.899 57.884,748.302C43.851,721.192 45.143,720.641 43.816,718.35C40.255,712.207 40.821,712.017 40.485,711.51C39.421,710.231 39.571,710.2 39.352,708.537ZM492.934,74.431C492.817,73.579 491.576,64.507 491.052,63.851C490.026,62.567 489.658,63.33 479.432,65.013C437.89,71.852 437.911,71.343 396.444,78.291C393,78.868 395.723,87.92 396.024,89.58C397.377,97.032 394.921,101.175 402.447,100.126C404.623,99.822 421.745,97.436 429.548,95.719C436.378,94.216 434.725,99.29 435.148,101.572C443.665,147.475 442.436,147.586 443.235,151.558C446.934,169.951 446.336,179.116 449.51,178.676C451.188,178.444 464.45,176.607 470.4,175.149C472.727,174.579 471.413,173.352 465.899,137.439C459.542,96.028 459.072,96.124 458.815,92.493C458.635,89.949 469.818,89.091 491.522,85.62C496.628,84.804 493.43,77.414 492.934,74.431ZM696.246,184.332C731.092,128.968 731.283,129.194 734.285,124.371C735.682,122.125 734.518,121.571 719.236,111.911C715.988,109.858 715.075,108.533 712.979,111.811C688.269,150.455 688.805,150.694 664.05,189.213C659.725,195.943 655.746,199.082 660.731,202.125C672.484,209.3 727.117,244.655 728.503,244.64C730.145,244.623 740.356,227.719 740.198,226.579C739.966,224.916 697.999,199.149 694.269,196.859C687.602,192.765 692.275,191.107 696.246,184.332ZM299.43,694.591C300.238,697.133 301.439,697.178 301.648,697.395C302.29,698.177 302.705,697.782 310.174,706.73C310.4,707.001 310.409,706.987 324.517,720.483C325.854,721.762 325.644,721.989 327.447,722.577L329.409,724.57C330.422,725.934 332.074,728.16 345.779,738.098C363.12,750.673 385.097,762.602 386.639,763.175C390.31,764.539 407.252,773.815 433.515,781.396C434.893,781.859 434.806,782 436.327,781.884C442.316,784.523 472.022,792.138 502.502,792.34C515.392,792.425 527.884,793.658 564.444,788.092C565.053,787.999 586.554,782.88 595.355,780.047C600.772,778.303 609.083,774.83 615.345,773.099C617.503,772.502 617.79,771.229 629.33,767.1C630.004,766.859 629.601,766.05 637.349,763.148C638.62,762.672 638.452,762.363 652.317,755.151C652.985,754.804 652.702,754.44 660.324,750.225C661.082,749.806 660.628,749.276 669.357,744.266C670.406,743.664 679.822,736.533 680.724,735.849C681.864,734.986 693.194,726.406 694.591,724.571C695.555,724.235 695.448,724.099 698.406,721.365C698.492,721.292 718.498,701.79 721.365,698.406C724.115,695.411 724.24,695.512 724.57,694.589C727.172,692.598 740.871,675.039 747.319,664.397C750.476,659.187 754.198,653.612 754.816,652.687C761.151,643.198 778.058,604.72 781.358,590.47C783.997,579.078 785.443,578.044 786.42,569.488C786.541,568.429 786.773,568.488 789.14,556.447C790.265,550.728 790.235,544.901 791.826,535.584C792.717,530.367 793.19,481.568 788.609,466.467C788.224,465.201 788.759,462.161 786.603,455.467C786.543,455.28 784.718,442.025 781.877,437.327C782.037,435.82 781.896,435.911 781.401,434.512C781.05,431.938 780.921,432.045 779.884,430.323C779.989,428.845 779.871,428.932 779.377,427.519C779.171,426.792 777.532,421.017 776.316,418.575C775.166,416.265 775.851,416.094 764.022,388.765C763.724,388.078 753.158,368.204 749.494,363.505L748.355,361.581C745.634,356.616 732.072,337.083 722.504,327.496L721.339,325.624C704.777,308.105 699.363,303.496 697.298,301.739C696.461,301.026 696.315,301.328 695.505,300.495C688.802,293.611 670.453,280.187 665.463,277.588L663.496,276.506C660.875,275.017 661.109,274.826 658.564,273.393C654.05,270.852 654.491,270.309 649.833,268.061C648.826,267.575 648.884,267.487 637.657,261.193C636.813,260.72 629.043,257.378 628.677,257.144C626.213,255.568 605.216,247.052 589.486,242.605C588.114,242.134 588.189,241.986 586.673,242.119C577.919,238.216 553.472,234.052 544.493,233.64C539.476,233.41 539.643,231.884 523.497,231.718C484.441,231.317 484.574,233.315 480.508,233.567C458.891,234.912 439.199,241.001 437.327,242.121C435.832,241.973 435.921,242.107 434.513,242.601C430.412,243.179 430.715,244.181 426.559,244.742C423.712,245.127 419.184,247.381 418.575,247.685C416.265,248.834 416.092,248.156 388.764,259.972C385.466,261.399 367.272,271.553 363.504,274.505L361.577,275.639C354.455,279.531 335.163,293.834 328.497,300.497L326.436,302.405C322.606,304.858 303.189,324.976 302.656,325.61L301.708,326.677C300.936,327.476 301.147,327.521 300.498,328.498C297.2,331.098 272.828,360.474 260.062,389.175C259.898,389.543 258.83,391.944 257.61,393.571C256.975,394.416 247.285,418.258 243.991,428.657C241.584,436.256 238.801,447.791 238.397,449.467C231.846,476.616 231.696,499.146 231.667,503.502C231.486,530.933 231.896,538.404 233.389,543.532C233.563,544.131 233.523,552.312 235.399,558.53C236.093,560.83 234.531,567.592 248.77,609.4C249.071,610.282 249.381,610.154 252.977,620.273C253.428,621.543 253.846,621.247 254.392,622.545C255.432,625.021 263.492,644.201 269.168,652.696C285.892,677.722 285.423,678.016 292.523,686.481C295.825,690.419 296.718,692.57 299.43,694.591ZM924.433,581.968C935.068,583.752 935.308,583.499 935.727,584.322C937.506,587.822 928.963,619.379 932.478,620.558C935.08,621.43 948.177,622.921 949.548,623.078C955.121,623.712 952.963,620.399 955.243,608.445C955.742,605.831 967.504,529.181 967.261,527.538C966.954,525.458 946.732,523.144 945.896,523.908C944.242,525.421 941.666,557.767 939.323,559.028C939.159,559.116 939.177,559.073 902.559,554.058C899.353,553.619 899.42,553.512 862.56,548.026C857.885,547.33 855.967,545.774 855.333,550.475C852.802,569.257 851.564,571.167 855.458,571.734C870.18,573.876 916.625,581.152 924.433,581.968ZM812.384,240.116C807.829,241.329 807.921,241.397 755.552,255.697C751.936,256.684 749.683,255.274 750.558,258.477C750.575,258.539 764.268,276.936 764.651,277.372C766.61,279.599 771.396,277.15 778.391,275.126C785.903,272.953 787.327,270.626 792.031,276.86C794.062,279.551 815.271,307.657 817.131,310.708C818.922,313.647 804.418,329.69 805.739,332.4C806.047,333.033 820.116,352.076 820.583,352.331C822.054,353.136 821.951,351.656 876.016,265.208C882.148,255.403 881.927,254.96 881.079,253.793C879.541,251.676 863.023,228.944 861.363,227.689C860.216,226.822 860.007,227.422 832.574,234.748C822.462,237.448 822.508,237.346 812.384,240.116ZM847.391,255.155C847.712,255.054 853.969,253.027 854.682,253.169C855.477,253.327 855.413,253.99 850.038,262.187C831.752,290.075 832.065,291.003 830.435,290.685C830.317,290.662 811.321,266.927 812.442,265.456C813.2,264.463 844.579,255.92 847.391,255.155ZM901.395,471.05C956.784,457.721 956.787,457.92 961.57,456.647C963.316,456.182 963.571,455.195 957.85,434.376C957.023,431.365 955.424,432.284 919.423,441.251C915.568,442.212 871.434,453.205 871.162,452.971C869.951,451.93 871.044,451.435 871.203,451.318C891.806,436.28 891.837,436.438 912.232,421.142C947.503,394.69 947.712,394.749 947.911,393.576C948.076,392.6 939.255,355.968 938.633,354.408C938.239,353.417 937.786,353.049 925.435,356.294C881.667,367.791 881.233,365.669 837.426,377.254C833.437,378.309 834.245,379.589 835.26,383.573C839.586,400.559 838.962,401.296 840.475,401.6C841.633,401.833 919.126,383.259 924.51,381.648C932.774,379.173 921.833,385.61 918.793,387.887C887.076,411.638 851.479,438.101 850.667,438.724C849.468,439.645 848.606,439.899 851.392,451.528C858.016,479.185 857.057,480.439 859.462,480.755C862.876,481.203 862.744,480.049 901.395,471.05ZM616.01,99.589C613.775,88.502 614.128,88.504 611.968,77.381C611.475,74.842 610.31,75.728 587.422,70.803C579.879,69.18 578.255,66.681 574.025,73.189C569.356,80.372 569.436,80.345 516.083,163.249C513.813,166.777 517.38,165.959 538.489,170.553C544.688,171.902 549.811,149.845 555.572,151.176C562.118,152.69 596.719,159.256 600.561,160.347C602.214,160.816 601.589,161.453 604.885,180.438C605.577,184.428 607.02,184.381 612.533,185.306C620.766,186.686 630.59,189.504 631.384,188.418C632.154,187.364 617.973,113.403 616.01,99.589ZM589.78,91.983C589.796,91.999 590.848,92 590.951,93.184C591.071,94.566 597.196,132.254 597.25,132.548C598.374,138.672 594.659,136.458 588.577,135.121C567.772,130.546 566.496,131.435 566.678,129.529C566.867,127.557 587.871,94.948 589.78,91.983ZM295.977,209.446C299.838,239.337 299.154,241.439 301.512,240.532C302.578,240.122 319.654,230.86 321.226,230.008C324.531,228.215 322.933,223.079 321.247,211.547C320.472,206.244 320.019,205.353 324.703,202.865C363.385,182.319 363.549,182.195 364.437,182.65C367.167,184.046 380.249,197.683 382.423,197.171C383.538,196.908 394.694,190.615 401.37,187.244C404.437,185.696 405.176,184.663 402.548,182.445C366.005,151.592 319.295,110.669 317.496,110.608C316.356,110.569 308.351,115.006 289.353,125.207C285.724,127.156 286.791,128.407 289.72,154.473C292.332,177.713 294.067,189.712 295.977,209.446ZM313.049,149.562C311.571,138.386 311.309,138.428 311.289,137.449C311.243,135.085 313.32,137.124 322.567,145.425C344.874,165.452 345.552,165.49 345.084,166.327C343.942,168.369 343.38,167.807 319.448,180.4C316.086,182.169 317.342,178.714 313.049,149.562ZM924.251,696.35C926.758,691.942 929.652,688.105 928.271,686.739C926.056,684.548 865.74,650.971 860.267,647.924C837.689,635.356 837.395,633.691 835.428,635.421C835.029,635.772 795.013,706.212 794.94,706.617C794.507,709.041 812.316,718.415 813.672,717.864C815.105,717.281 841.03,669.999 842.73,667.711C843.968,666.045 860.851,676.45 861.111,677.57C861.529,679.369 835.755,721.384 836.016,723.574C836.205,725.168 853.272,734.535 854.448,734.325C856.507,733.958 879.32,689.455 881.579,688.959C882.632,688.728 896.399,696.709 896.724,697.346C898.287,700.408 868.999,745.465 869.69,748.425C869.74,748.641 887.195,760.431 889.12,758.19C889.137,758.171 923.178,698.355 924.251,696.35Z" style="fill:rgb(35,31,32);fill-opacity:1;"/>
        </g>
    </g>
</svg>
