<?xml version="1.0" encoding="UTF-8" standalone="no"?>
<!DOCTYPE svg PUBLIC "-//W3C//DTD SVG 1.1//EN" "http://www.w3.org/Graphics/SVG/1.1/DTD/svg11.dtd">
<svg width="100%" height="100%" viewBox="0 0 3039 435" version="1.1" xmlns="http://www.w3.org/2000/svg" xmlns:xlink="http://www.w3.org/1999/xlink" xml:space="preserve" xmlns:serif="http://www.serif.com/" style="fill-rule:evenodd;clip-rule:evenodd;stroke-linejoin:round;stroke-miterlimit:2;">
    <g transform="matrix(1,0,0,1,-86.817917,-148.057917)">
        <g transform="matrix(4.166667,0,0,4.166667,0,0)">
            <g transform="matrix(-1,0,0,1,865.989,4.898)">
                <rect x="431.684" y="31.363" width="2.621" height="102.455" style="fill:rgb(220,225,214);"/>
            </g>
        </g>
        <g transform="matrix(4.166667,0,0,4.166667,0,0)">
            <g transform="matrix(1,0,0,1,111.7281,72.0458)">
                <path d="M0,38.687L0,0C0,-2.352 -0.077,-6.146 -0.304,-9.103L13.426,-9.103L27.536,30.949L41.039,-9.103L54.999,-9.103C54.77,-6.146 54.695,-2.352 54.695,0L54.695,38.687C54.695,41.039 54.77,44.909 54.999,47.79L42.935,47.79C43.162,44.909 43.239,41.039 43.239,38.687L43.239,11.758L30.799,47.79L23.896,47.79L10.62,10.62L10.62,38.687C10.62,41.039 10.697,44.909 10.924,47.79L-0.304,47.79C-0.077,44.909 0,41.039 0,38.687" style="fill:rgb(220,225,214);fill-rule:nonzero;"/>
            </g>
        </g>
        <g transform="matrix(4.166667,0,0,4.166667,0,0)">
            <g transform="matrix(1,0,0,1,176.312,70.6799)">
                <path d="M0,41.419L14.259,-1.82C14.943,-3.794 15.399,-5.764 15.626,-7.738L30.115,-7.738L46.35,41.419C47.106,43.619 48.321,46.728 49.533,49.157L35.88,49.157C35.501,46.501 34.817,43.846 33.984,41.419L33.453,39.748L12.211,39.748L11.68,41.419C10.847,43.846 10.163,46.501 9.784,49.157L-3.186,49.157C-1.973,46.728 -0.758,43.619 0,41.419M30.494,30.343L22.908,3.715L15.172,30.343L30.494,30.343Z" style="fill:rgb(220,225,214);fill-rule:nonzero;"/>
            </g>
        </g>
        <g transform="matrix(4.166667,0,0,4.166667,0,0)">
            <g transform="matrix(1,0,0,1,232.2279,72.0458)">
                <path d="M0,38.687L0,0C0,-2.504 -0.075,-6.069 -0.302,-9.103L17.904,-9.103C36.032,-9.103 45.667,0.834 45.667,19.039C45.667,37.624 36.032,47.79 17.904,47.79L-0.302,47.79C-0.075,44.909 0,41.039 0,38.687M11.381,0.302L11.381,38.383L17.904,38.383C29.13,38.383 34.211,32.313 34.211,19.419C34.211,6.524 29.13,0.302 17.904,0.302L11.381,0.302Z" style="fill:rgb(220,225,214);fill-rule:nonzero;"/>
            </g>
        </g>
        <g transform="matrix(4.166667,0,0,4.166667,0,0)">
            <g transform="matrix(1,0,0,1,286.4006,86.8388)">
                <path d="M0,23.894L0,-14.793C0,-17.145 -0.075,-20.939 -0.302,-23.896L18.889,-23.896C33.303,-23.896 41.039,-17.524 41.039,-6.373C41.039,1.44 37.018,6.294 30.419,8.722C34.743,11.224 36.337,15.472 39.143,23.44C42.937,34.212 48.321,38.153 58.26,38.153C61.597,38.153 63.798,37.926 65.693,37.397L65.087,46.65C62.964,47.486 60.839,47.79 58.11,47.79C40.737,47.79 33.984,40.962 28.449,26.626C24.2,15.624 22.152,13.349 15.931,13.349L11.381,13.349L11.381,23.894C11.381,26.246 11.455,30.116 11.682,32.997L-0.302,32.997C-0.075,30.116 0,26.246 0,23.894M11.381,-14.491L11.381,3.942L18.662,3.942C25.565,3.942 29.661,0.759 29.661,-5.388C29.661,-11.684 26.248,-14.491 18.662,-14.491L11.381,-14.491Z" style="fill:rgb(220,225,214);fill-rule:nonzero;"/>
            </g>
        </g>
        <g transform="matrix(4.166667,0,0,4.166667,0,0)">
            <g transform="matrix(1,0,0,1,337.6913,72.0469)">
                <path d="M0,34.323L0,0C0,-2.353 -0.077,-6.147 -0.304,-9.103L11.682,-9.103C11.453,-6.222 11.378,-2.353 11.378,0L11.378,34.323C11.378,36.675 11.453,40.545 11.682,43.426L-0.304,43.426C-0.077,40.545 0,36.675 0,34.323" style="fill:rgb(220,225,214);fill-rule:nonzero;"/>
            </g>
        </g>
        <g transform="matrix(4.166667,0,0,4.166667,0,0)">
            <g transform="matrix(1,0,0,1,359.9968,72.0458)">
                <path d="M0,38.687L0,0C0,-2.504 -0.077,-6.069 -0.304,-9.103L17.902,-9.103C36.032,-9.103 45.667,0.834 45.667,19.039C45.667,37.624 36.032,47.79 17.902,47.79L-0.304,47.79C-0.077,44.909 0,41.039 0,38.687M11.378,0.302L11.378,38.383L17.902,38.383C29.13,38.383 34.211,32.313 34.211,19.419C34.211,6.524 29.13,0.302 17.902,0.302L11.378,0.302Z" style="fill:rgb(220,225,214);fill-rule:nonzero;"/>
            </g>
        </g>
        <g transform="matrix(4.166667,0,0,4.166667,0,0)">
            <g transform="matrix(1,0,0,1,22.827,138.5018)">
                <path d="M0,-75.54L0,-23.976C0,-8.706 10.572,0 31.285,0C51.993,0 62.563,-8.706 62.563,-23.976L62.563,-75.54L0,-75.54ZM54.6,-70.339C49.269,-60.774 38.971,-54.742 24.916,-53.388C16.929,-52.617 9.09,-53.39 5.246,-53.899L5.246,-70.339L54.6,-70.339ZM18.268,-6.741C9.712,-9.273 5.246,-15.13 5.246,-25.904L5.246,-48.945C7.94,-48.508 12.64,-47.917 18.268,-47.915L18.268,-6.741ZM31.31,-5C28.451,-5 25.824,-5.184 23.43,-5.553L23.422,-28.164C23.422,-28.164 31.594,-22.721 32.248,-22.873L35.097,-23.288L35.099,-22.41C35.099,-21.359 35.174,-20.434 35.296,-19.625C35.885,-15.881 37.607,-14.634 38.412,-14.247L37.771,-13.474C37.462,-13.102 37.741,-12.129 38.041,-11.513L39.844,-5.658C37.277,-5.222 34.431,-5 31.31,-5M57.356,-25.904C57.356,-19.383 55.747,-14.674 52.604,-11.408C53.56,-13.172 53.809,-14.963 52.869,-16.5L48.905,-22.434L44.157,-34.177L43.813,-38.964L44.873,-39.483C45.619,-39.829 46.003,-40.7 45.724,-41.399L45.41,-42.217C45.135,-42.93 44.22,-43.399 43.382,-43.267L41.837,-43.03L39.582,-44.589C39.248,-44.816 38.634,-44.941 38.208,-44.866L36.821,-44.629L33.608,-46.832C33.276,-47.074 32.792,-47.004 32.545,-46.707L30.671,-44.44C30.297,-43.988 30.267,-43.24 30.602,-42.761L33.465,-38.719L33.465,-31.502L30.175,-30.941C29.055,-30.941 23.482,-32.555 23.482,-33.87L23.482,-48.087C24.103,-48.127 24.724,-48.179 25.353,-48.239C39.904,-49.608 50.875,-55.334 57.356,-64.871L57.356,-25.904Z" style="fill:rgb(220,225,214);fill-rule:nonzero;"/>
            </g>
        </g>
        <g transform="matrix(4.166667,0,0,4.166667,0,0)">
            <g transform="matrix(1,0,0,1,25.6866,60.2537)">
                <path d="M0,-8.544L0.761,-6.157C0.791,-6.064 0.886,-6.007 0.98,-6.029L3.428,-6.563C3.61,-6.603 3.732,-6.389 3.61,-6.251L1.921,-4.4C1.856,-4.328 1.856,-4.218 1.921,-4.146L3.61,-2.293C3.732,-2.158 3.61,-1.941 3.428,-1.981L0.98,-2.517C0.886,-2.537 0.791,-2.482 0.761,-2.39L0,-0.002C-0.057,0.175 -0.304,0.175 -0.362,-0.002L-1.12,-2.39C-1.15,-2.482 -1.247,-2.537 -1.342,-2.517L-3.789,-1.981C-3.969,-1.941 -4.094,-2.158 -3.969,-2.293L-2.283,-4.146C-2.215,-4.218 -2.215,-4.328 -2.283,-4.4L-3.969,-6.251C-4.094,-6.389 -3.969,-6.603 -3.789,-6.563L-1.342,-6.029C-1.247,-6.007 -1.15,-6.064 -1.12,-6.157L-0.362,-8.544C-0.304,-8.719 -0.057,-8.719 0,-8.544" style="fill:rgb(220,225,214);fill-rule:nonzero;"/>
            </g>
        </g>
        <g transform="matrix(4.166667,0,0,4.166667,0,0)">
            <g transform="matrix(1,0,0,1,35.2195,60.2537)">
                <path d="M0,-8.544L0.761,-6.157C0.791,-6.064 0.886,-6.007 0.98,-6.029L3.428,-6.563C3.61,-6.603 3.732,-6.389 3.61,-6.251L1.921,-4.4C1.856,-4.328 1.856,-4.218 1.921,-4.146L3.61,-2.293C3.732,-2.158 3.61,-1.941 3.428,-1.981L0.98,-2.517C0.886,-2.537 0.791,-2.482 0.761,-2.39L0,-0.002C-0.057,0.175 -0.304,0.175 -0.359,-0.002L-1.12,-2.39C-1.15,-2.482 -1.247,-2.537 -1.342,-2.517L-3.789,-1.981C-3.969,-1.941 -4.094,-2.158 -3.969,-2.293L-2.283,-4.146C-2.215,-4.218 -2.215,-4.328 -2.283,-4.4L-3.969,-6.251C-4.094,-6.389 -3.969,-6.603 -3.789,-6.563L-1.342,-6.029C-1.247,-6.007 -1.15,-6.064 -1.12,-6.157L-0.359,-8.544C-0.304,-8.719 -0.057,-8.719 0,-8.544" style="fill:rgb(220,225,214);fill-rule:nonzero;"/>
            </g>
        </g>
        <g transform="matrix(4.166667,0,0,4.166667,0,0)">
            <g transform="matrix(1,0,0,1,44.7523,60.2537)">
                <path d="M0,-8.544L0.761,-6.157C0.791,-6.064 0.886,-6.007 0.98,-6.029L3.428,-6.563C3.61,-6.603 3.734,-6.389 3.61,-6.251L1.921,-4.4C1.856,-4.328 1.856,-4.218 1.921,-4.146L3.61,-2.293C3.734,-2.158 3.61,-1.941 3.428,-1.981L0.98,-2.517C0.886,-2.537 0.791,-2.482 0.761,-2.39L0,-0.002C-0.055,0.175 -0.304,0.175 -0.359,-0.002L-1.12,-2.39C-1.15,-2.482 -1.245,-2.537 -1.342,-2.517L-3.789,-1.981C-3.969,-1.941 -4.094,-2.158 -3.969,-2.293L-2.283,-4.146C-2.215,-4.218 -2.215,-4.328 -2.283,-4.4L-3.969,-6.251C-4.094,-6.389 -3.969,-6.603 -3.789,-6.563L-1.342,-6.029C-1.245,-6.007 -1.15,-6.064 -1.12,-6.157L-0.359,-8.544C-0.304,-8.719 -0.055,-8.719 0,-8.544" style="fill:rgb(220,225,214);fill-rule:nonzero;"/>
            </g>
        </g>
        <g transform="matrix(4.166667,0,0,4.166667,0,0)">
            <g transform="matrix(1,0,0,1,54.2853,60.2537)">
                <path d="M0,-8.544L0.761,-6.157C0.791,-6.064 0.886,-6.007 0.98,-6.029L3.43,-6.563C3.61,-6.603 3.734,-6.389 3.61,-6.251L1.921,-4.4C1.856,-4.328 1.856,-4.218 1.921,-4.146L3.61,-2.293C3.734,-2.158 3.61,-1.941 3.43,-1.981L0.98,-2.517C0.886,-2.537 0.791,-2.482 0.761,-2.39L0,-0.002C-0.055,0.175 -0.304,0.175 -0.359,-0.002L-1.12,-2.39C-1.15,-2.482 -1.245,-2.537 -1.342,-2.517L-3.789,-1.981C-3.969,-1.941 -4.094,-2.158 -3.969,-2.293L-2.283,-4.146C-2.215,-4.218 -2.215,-4.328 -2.283,-4.4L-3.969,-6.251C-4.094,-6.389 -3.969,-6.603 -3.789,-6.563L-1.342,-6.029C-1.245,-6.007 -1.15,-6.064 -1.12,-6.157L-0.359,-8.544C-0.304,-8.719 -0.055,-8.719 0,-8.544" style="fill:rgb(220,225,214);fill-rule:nonzero;"/>
            </g>
        </g>
        <g transform="matrix(4.166667,0,0,4.166667,0,0)">
            <g transform="matrix(1,0,0,1,63.8183,60.2537)">
                <path d="M0,-8.544L0.761,-6.157C0.791,-6.064 0.886,-6.007 0.98,-6.029L3.43,-6.563C3.61,-6.603 3.734,-6.389 3.61,-6.251L1.921,-4.4C1.856,-4.328 1.856,-4.218 1.921,-4.146L3.61,-2.293C3.734,-2.158 3.61,-1.941 3.43,-1.981L0.98,-2.517C0.886,-2.537 0.791,-2.482 0.761,-2.39L0,-0.002C-0.055,0.175 -0.304,0.175 -0.359,-0.002L-1.12,-2.39C-1.15,-2.482 -1.245,-2.537 -1.342,-2.517L-3.789,-1.981C-3.969,-1.941 -4.094,-2.158 -3.969,-2.293L-2.283,-4.146C-2.215,-4.218 -2.215,-4.328 -2.283,-4.4L-3.969,-6.251C-4.094,-6.389 -3.969,-6.603 -3.789,-6.563L-1.342,-6.029C-1.245,-6.007 -1.15,-6.064 -1.12,-6.157L-0.359,-8.544C-0.304,-8.719 -0.055,-8.719 0,-8.544" style="fill:rgb(220,225,214);fill-rule:nonzero;"/>
            </g>
        </g>
        <g transform="matrix(4.166667,0,0,4.166667,0,0)">
            <g transform="matrix(1,0,0,1,73.3514,60.2537)">
                <path d="M0,-8.544L0.761,-6.157C0.791,-6.064 0.886,-6.007 0.98,-6.029L3.428,-6.563C3.61,-6.603 3.732,-6.389 3.61,-6.251L1.921,-4.4C1.856,-4.328 1.856,-4.218 1.921,-4.146L3.61,-2.293C3.732,-2.158 3.61,-1.941 3.428,-1.981L0.98,-2.517C0.886,-2.537 0.791,-2.482 0.761,-2.39L0,-0.002C-0.057,0.175 -0.304,0.175 -0.362,-0.002L-1.12,-2.39C-1.15,-2.482 -1.247,-2.537 -1.342,-2.517L-3.789,-1.981C-3.969,-1.941 -4.094,-2.158 -3.969,-2.293L-2.283,-4.146C-2.215,-4.218 -2.215,-4.328 -2.283,-4.4L-3.969,-6.251C-4.094,-6.389 -3.969,-6.603 -3.789,-6.563L-1.342,-6.029C-1.247,-6.007 -1.15,-6.064 -1.12,-6.157L-0.362,-8.544C-0.304,-8.719 -0.057,-8.719 0,-8.544" style="fill:rgb(220,225,214);fill-rule:nonzero;"/>
            </g>
        </g>
        <g transform="matrix(4.166667,0,0,4.166667,0,0)">
            <g transform="matrix(1,0,0,1,82.8844,60.2537)">
                <path d="M0,-8.544L0.761,-6.157C0.791,-6.064 0.886,-6.007 0.98,-6.029L3.428,-6.563C3.61,-6.603 3.732,-6.389 3.61,-6.251L1.921,-4.4C1.856,-4.328 1.856,-4.218 1.921,-4.146L3.61,-2.293C3.732,-2.158 3.61,-1.941 3.428,-1.981L0.98,-2.517C0.886,-2.537 0.791,-2.482 0.761,-2.39L0,-0.002C-0.055,0.175 -0.304,0.175 -0.359,-0.002L-1.12,-2.39C-1.15,-2.482 -1.245,-2.537 -1.342,-2.517L-3.789,-1.981C-3.969,-1.941 -4.094,-2.158 -3.969,-2.293L-2.283,-4.146C-2.215,-4.218 -2.215,-4.328 -2.283,-4.4L-3.969,-6.251C-4.094,-6.389 -3.969,-6.603 -3.789,-6.563L-1.342,-6.029C-1.245,-6.007 -1.15,-6.064 -1.12,-6.157L-0.359,-8.544C-0.304,-8.719 -0.055,-8.719 0,-8.544" style="fill:rgb(220,225,214);fill-rule:nonzero;"/>
            </g>
        </g>
        <g transform="matrix(4.166667,0,0,4.166667,0,0)">
            <g transform="matrix(1,0,0,1,84.6913,49.6829)">
                <path d="M0,-13.18L-0.042,-13.03C-0.045,-13.02 -0.309,-12.127 -0.589,-11.671C-0.99,-11 -2.168,-10.349 -3.016,-10.408L-3.016,-7.345L-2.946,-7.345C-2.375,-7.345 -1.739,-7.47 -1.182,-7.634L-1.182,-6.512C-1.182,-5.701 -1.409,-3.815 -3.507,-3.815C-4.455,-3.815 -5.029,-4.409 -5.364,-4.975C-5.179,-5.307 -5.084,-5.676 -5.084,-6.055C-5.084,-6.647 -5.314,-7.205 -5.735,-7.632C-6.157,-8.051 -6.716,-8.286 -7.312,-8.286C-8.537,-8.286 -9.537,-7.285 -9.537,-6.055C-9.537,-5.674 -9.44,-5.302 -9.258,-4.975C-9.589,-4.409 -10.168,-3.815 -11.114,-3.815C-13.212,-3.815 -13.439,-5.701 -13.439,-6.512L-13.439,-7.979C-13.351,-7.979 -13.266,-7.959 -13.187,-7.926C-12.286,-7.545 -11.348,-7.36 -10.64,-7.373L-10.64,-10.436C-11.498,-10.376 -12.663,-11.027 -13.067,-11.696C-13.361,-12.18 -13.533,-12.536 -13.606,-13.028L-13.631,-13.207L-16.522,-13.207L-16.564,-13.058C-16.567,-13.048 -16.831,-12.155 -17.111,-11.696C-17.515,-11.027 -18.69,-10.374 -19.538,-10.436L-19.538,-7.373C-18.71,-7.355 -17.712,-7.624 -17.058,-7.901C-16.951,-7.946 -16.839,-7.974 -16.716,-7.976L-16.716,-6.512C-16.716,-5.701 -16.931,-3.815 -19.032,-3.815C-19.972,-3.815 -20.548,-4.401 -20.882,-4.968C-20.693,-5.299 -20.596,-5.674 -20.596,-6.055C-20.596,-7.285 -21.596,-8.286 -22.826,-8.286C-24.053,-8.286 -25.051,-7.285 -25.051,-6.055C-25.051,-5.676 -24.956,-5.309 -24.774,-4.98C-25.108,-4.411 -25.685,-3.815 -26.635,-3.815C-28.733,-3.815 -28.958,-5.701 -28.958,-6.512C-28.958,-6.624 -28.945,-7.722 -28.945,-7.722L-28.943,-7.979L-28.925,-7.979C-28.84,-7.979 -28.753,-7.959 -28.676,-7.926C-27.775,-7.545 -26.837,-7.36 -26.129,-7.373L-26.129,-10.436C-26.987,-10.376 -28.152,-11.027 -28.556,-11.696C-28.85,-12.18 -29.022,-12.536 -29.095,-13.028L-29.12,-13.207L-32.051,-13.207L-32.078,-13.028C-32.148,-12.536 -32.32,-12.18 -32.617,-11.696C-33.019,-11.027 -34.186,-10.376 -35.044,-10.436L-35.044,-7.373C-34.336,-7.36 -33.396,-7.545 -32.497,-7.926C-32.418,-7.959 -32.33,-7.979 -32.246,-7.979L-32.231,-7.979L-32.228,-7.722C-32.228,-7.722 -32.213,-6.624 -32.213,-6.512C-32.213,-5.701 -32.438,-3.815 -34.536,-3.815C-35.489,-3.815 -36.062,-4.411 -36.399,-4.98C-36.217,-5.309 -36.122,-5.676 -36.122,-6.055C-36.122,-7.285 -37.12,-8.286 -38.347,-8.286C-39.575,-8.286 -40.575,-7.285 -40.575,-6.055C-40.575,-5.674 -40.478,-5.299 -40.291,-4.968C-40.625,-4.401 -41.199,-3.815 -42.142,-3.815C-44.24,-3.815 -44.454,-5.701 -44.454,-6.512L-44.454,-7.976C-44.334,-7.974 -44.22,-7.946 -44.112,-7.901C-43.461,-7.624 -42.463,-7.355 -41.635,-7.373L-41.635,-10.436C-42.484,-10.374 -43.658,-11.027 -44.063,-11.696C-44.342,-12.155 -44.604,-13.048 -44.606,-13.058L-44.649,-13.207L-47.54,-13.207L-47.568,-13.028C-47.637,-12.536 -47.809,-12.18 -48.106,-11.696C-48.508,-11.027 -49.676,-10.376 -50.534,-10.436L-50.534,-7.373C-49.825,-7.36 -48.885,-7.545 -47.987,-7.926C-47.904,-7.959 -47.82,-7.979 -47.732,-7.979L-47.732,-6.512C-47.732,-5.701 -47.959,-3.815 -50.06,-3.815C-51.005,-3.815 -51.581,-4.409 -51.913,-4.975C-51.731,-5.302 -51.634,-5.674 -51.634,-6.055C-51.634,-7.285 -52.634,-8.286 -53.859,-8.286C-54.458,-8.286 -55.017,-8.051 -55.438,-7.632C-55.857,-7.205 -56.089,-6.647 -56.089,-6.055C-56.089,-5.676 -55.994,-5.307 -55.81,-4.975C-56.144,-4.409 -56.718,-3.815 -57.663,-3.815C-59.761,-3.815 -59.991,-5.701 -59.991,-6.512L-59.991,-7.634C-59.435,-7.47 -58.798,-7.345 -58.225,-7.345L-58.157,-7.345L-58.157,-10.408C-59.005,-10.349 -60.18,-11 -60.585,-11.671C-60.864,-12.127 -61.126,-13.02 -61.131,-13.03L-61.173,-13.18L-63.855,-13.18L-63.855,-7.153C-63.855,-2.658 -61.577,0.027 -57.766,0.027C-56.104,0.027 -54.46,-0.969 -53.859,-1.37C-53.263,-0.969 -51.619,0.027 -49.957,0.027C-48.229,0.027 -46.692,-0.994 -46.101,-1.443C-45.507,-0.994 -43.975,0.027 -42.241,0.027C-40.583,0.027 -38.939,-0.969 -38.34,-1.37C-37.741,-0.969 -36.097,0.027 -34.436,0.027C-32.712,0.027 -31.185,-0.989 -30.587,-1.438C-29.988,-0.989 -28.459,0.027 -26.737,0.027C-25.076,0.027 -23.432,-0.969 -22.831,-1.37C-22.235,-0.969 -20.591,0.027 -18.929,0.027C-17.198,0.027 -15.664,-0.994 -15.07,-1.443C-14.479,-0.994 -12.942,0.027 -11.213,0.027C-9.554,0.027 -7.911,-0.969 -7.312,-1.37C-6.711,-0.969 -5.067,0.027 -3.408,0.027C0.407,0.027 2.684,-2.658 2.684,-7.153L2.684,-13.18L0,-13.18Z" style="fill:rgb(220,225,214);fill-rule:nonzero;"/>
            </g>
        </g>
        <g transform="matrix(4.166667,0,0,4.166667,0,0)">
            <g transform="matrix(1,0,0,1,470.5266,115.4952)">
                <path d="M0,24.249C4.428,24.249 7.137,21.957 8.283,18.649L5.209,17.425C4.454,19.613 2.943,21.332 0,21.332C-3.49,21.332 -5.652,18.78 -5.652,14.664C-5.652,10.522 -3.464,8.126 0,8.126C2.97,8.126 4.428,10.002 5.105,11.955L8.256,10.757C7.371,7.814 4.533,5.236 0.026,5.236C-5.469,5.236 -9.22,9.324 -9.22,14.664C-9.22,20.108 -5.704,24.249 0,24.249M19.222,24.249C24.978,24.249 28.703,20.316 28.703,14.768C28.703,9.247 24.926,5.236 19.222,5.236C13.492,5.236 9.742,9.247 9.742,14.768C9.742,20.316 13.466,24.249 19.222,24.249M19.222,21.358C15.497,21.358 13.284,18.545 13.284,14.768C13.284,10.939 15.497,8.126 19.222,8.126C22.947,8.126 25.134,10.939 25.134,14.768C25.134,18.545 22.947,21.358 19.222,21.358M30.682,23.859L34.068,23.859L34.068,9.298L44.356,23.859L47.56,23.859L47.56,5.626L44.174,5.626L44.174,18.128L35.318,5.626L30.682,5.626L30.682,23.859ZM55.999,23.859L59.385,23.859L59.385,8.517L65.818,8.517L65.818,5.626L49.669,5.626L49.669,8.517L55.999,8.517L55.999,23.859ZM67.929,23.859L81.316,23.859L81.316,20.967L71.315,20.967L71.315,15.888L78.816,15.888L78.816,13.023L71.315,13.023L71.315,8.517L81.316,8.517L81.316,5.626L67.929,5.626L67.929,23.859ZM84.415,23.859L87.801,23.859L87.801,8.699L93.324,23.859L96.136,23.859L101.684,8.699L101.684,23.859L105.07,23.859L105.07,5.626L99.705,5.626L96.215,15.159C95.329,17.581 95.042,18.336 94.834,18.857C94.626,18.388 94.313,17.581 93.454,15.159L89.963,5.626L84.415,5.626L84.415,23.859ZM108.222,23.859L111.608,23.859L111.608,17.164L116.062,17.164C119.943,17.164 122.443,14.846 122.443,11.382C122.443,7.892 119.943,5.626 116.062,5.626L108.222,5.626L108.222,23.859ZM111.608,14.3L111.608,8.517L115.463,8.517C117.625,8.517 118.901,9.637 118.901,11.382C118.901,13.153 117.625,14.3 115.463,14.3L111.608,14.3ZM133.304,24.249C139.061,24.249 142.785,20.316 142.785,14.768C142.785,9.247 139.008,5.236 133.304,5.236C127.575,5.236 123.823,9.247 123.823,14.768C123.823,20.316 127.548,24.249 133.304,24.249M133.304,21.358C129.58,21.358 127.366,18.545 127.366,14.768C127.366,10.939 129.58,8.126 133.304,8.126C137.029,8.126 139.217,10.939 139.217,14.768C139.217,18.545 137.029,21.358 133.304,21.358M145.285,23.859L148.671,23.859L148.671,16.669L152.161,16.669C154.506,16.669 155.573,17.477 155.912,19.691L156.537,23.859L160.184,23.859L159.351,19.404C158.908,16.904 157.658,15.784 155.339,15.498C157.631,15.081 159.871,13.57 159.871,10.496C159.871,7.658 157.631,5.626 153.776,5.626L145.285,5.626L145.285,23.859ZM148.671,13.831L148.671,8.517L153.178,8.517C154.974,8.517 156.329,9.351 156.329,11.174C156.329,12.997 154.974,13.831 153.178,13.831L148.671,13.831ZM175.187,0L171.097,0L169.665,3.855L171.983,3.855L175.187,0ZM176.125,23.859L179.875,23.859L173.076,5.626L168.571,5.626L161.669,23.859L165.315,23.859L166.904,19.352L174.588,19.352L176.125,23.859ZM167.92,16.461L169.483,12.059C170.185,10.027 170.524,9.064 170.759,8.36L172.061,12.033L173.571,16.461L167.92,16.461ZM181.49,23.859L184.876,23.859L184.876,9.298L195.164,23.859L198.368,23.859L198.368,5.626L194.982,5.626L194.982,18.128L186.125,5.626L181.49,5.626L181.49,23.859ZM202.066,23.859L215.454,23.859L215.454,20.967L205.452,20.967L205.452,15.888L212.954,15.888L212.954,13.023L205.452,13.023L205.452,8.517L215.454,8.517L215.454,5.626L202.066,5.626L202.066,23.859ZM231.394,23.859L235.145,23.859L228.347,5.626L223.841,5.626L216.939,23.859L220.585,23.859L222.174,19.352L229.858,19.352L231.394,23.859ZM223.189,16.461L224.752,12.059C225.456,10.027 225.794,9.064 226.029,8.36L227.331,12.033L228.842,16.461L223.189,16.461Z" style="fill:rgb(220,225,214);fill-rule:nonzero;"/>
            </g>
        </g>
        <g transform="matrix(4.166667,0,0,4.166667,0,0)">
            <g transform="matrix(1,0,0,1,470.5266,90.3169)">
                <path d="M0,24.249C4.428,24.249 7.137,21.957 8.283,18.649L5.209,17.424C4.454,19.613 2.943,21.332 0,21.332C-3.49,21.332 -5.652,18.78 -5.652,14.664C-5.652,10.522 -3.464,8.126 0,8.126C2.97,8.126 4.428,10.002 5.105,11.955L8.256,10.757C7.371,7.814 4.533,5.236 0.026,5.236C-5.469,5.236 -9.22,9.324 -9.22,14.664C-9.22,20.108 -5.704,24.249 0,24.249M11.435,23.859L24.823,23.859L24.823,20.967L14.821,20.967L14.821,15.888L22.322,15.888L22.322,13.023L14.821,13.023L14.821,8.517L24.823,8.517L24.823,5.626L11.435,5.626L11.435,23.859ZM26.88,23.859L30.266,23.859L30.266,9.298L40.554,23.859L43.757,23.859L43.757,5.626L40.371,5.626L40.371,18.128L31.516,5.626L26.88,5.626L26.88,23.859ZM52.718,23.859L56.104,23.859L56.104,8.517L62.537,8.517L62.537,5.626L46.388,5.626L46.388,8.517L52.718,8.517L52.718,23.859ZM64.126,23.859L67.512,23.859L67.512,16.669L71.002,16.669C73.346,16.669 74.414,17.477 74.753,19.691L75.378,23.859L79.024,23.859L78.191,19.404C77.748,16.904 76.497,15.784 74.179,15.498C76.471,15.081 78.712,13.57 78.712,10.496C78.712,7.658 76.471,5.626 72.617,5.626L64.126,5.626L64.126,23.859ZM67.512,13.831L67.512,8.517L72.017,8.517C73.815,8.517 75.169,9.351 75.169,11.174C75.169,12.997 73.815,13.831 72.017,13.831L67.512,13.831ZM90.328,24.249C96.085,24.249 99.81,20.316 99.81,14.768C99.81,9.246 96.032,5.236 90.328,5.236C84.599,5.236 80.848,9.246 80.848,14.768C80.848,20.316 84.572,24.249 90.328,24.249M90.328,21.358C86.604,21.358 84.39,18.545 84.39,14.768C84.39,10.939 86.604,8.126 90.328,8.126C94.053,8.126 96.241,10.939 96.241,14.768C96.241,18.545 94.053,21.358 90.328,21.358M107.264,23.859L113.854,23.859C119.168,23.859 123.204,20.447 123.204,14.637C123.204,9.038 119.141,5.626 113.932,5.626L107.264,5.626L107.264,23.859ZM110.65,20.967L110.65,8.517L113.776,8.517C117.761,8.517 119.688,10.991 119.688,14.69C119.688,18.805 117.709,20.967 113.594,20.967L110.65,20.967ZM125.731,23.859L139.119,23.859L139.119,20.967L129.117,20.967L129.117,15.888L136.618,15.888L136.618,13.023L129.117,13.023L129.117,8.517L139.119,8.517L139.119,5.626L125.731,5.626L125.731,23.859ZM154.674,24.249C159.102,24.249 161.811,21.957 162.957,18.649L159.884,17.424C159.128,19.613 157.618,21.332 154.674,21.332C151.185,21.332 149.023,18.78 149.023,14.664C149.023,10.522 151.21,8.126 154.674,8.126C157.644,8.126 159.102,10.002 159.78,11.955L162.931,10.757C162.046,7.814 159.206,5.236 154.701,5.236C149.204,5.236 145.454,9.324 145.454,14.664C145.454,20.108 148.97,24.249 154.674,24.249M165.588,23.859L168.974,23.859L168.974,16.669L172.464,16.669C174.808,16.669 175.876,17.477 176.215,19.691L176.84,23.859L180.486,23.859L179.652,19.404C179.21,16.904 177.959,15.784 175.641,15.498C177.934,15.081 180.174,13.57 180.174,10.496C180.174,7.658 177.934,5.626 174.079,5.626L165.588,5.626L165.588,23.859ZM168.974,13.831L168.974,8.517L173.479,8.517C175.277,8.517 176.631,9.351 176.631,11.174C176.631,12.997 175.277,13.831 173.479,13.831L168.974,13.831ZM183.065,23.859L196.452,23.859L196.452,20.967L186.451,20.967L186.451,15.888L193.952,15.888L193.952,13.023L186.451,13.023L186.451,8.517L196.452,8.517L196.452,5.626L183.065,5.626L183.065,23.859ZM212.393,23.859L216.144,23.859L209.345,5.626L204.84,5.626L197.937,23.859L201.584,23.859L203.172,19.352L210.857,19.352L212.393,23.859ZM204.189,16.461L205.751,12.059C206.454,10.027 206.793,9.064 207.027,8.36L208.33,12.033L209.84,16.461L204.189,16.461ZM225.39,24.249C229.818,24.249 232.527,21.957 233.673,18.649L230.599,17.424C229.844,19.613 228.333,21.332 225.39,21.332C221.9,21.332 219.738,18.78 219.738,14.664C219.738,10.522 221.925,8.126 225.39,8.126C228.36,8.126 229.818,10.002 230.495,11.955L233.646,10.757C232.761,7.814 229.922,5.236 225.416,5.236C219.92,5.236 216.17,9.324 216.17,14.664C216.17,20.108 219.686,24.249 225.39,24.249M235.782,23.859L239.168,23.859L239.168,5.626L235.782,5.626L235.782,23.859ZM249.978,3.855L252.296,3.855L255.473,0L251.41,0L249.978,3.855ZM251.149,24.249C256.906,24.249 260.63,20.316 260.63,14.768C260.63,9.246 256.854,5.236 251.149,5.236C245.419,5.236 241.669,9.246 241.669,14.768C241.669,20.316 245.393,24.249 251.149,24.249M251.149,21.358C247.425,21.358 245.211,18.545 245.211,14.768C245.211,10.939 247.425,8.126 251.149,8.126C254.874,8.126 257.062,10.939 257.062,14.768C257.062,18.545 254.874,21.358 251.149,21.358M262.609,23.859L265.995,23.859L265.995,9.298L276.284,23.859L279.488,23.859L279.488,5.626L276.102,5.626L276.102,18.128L267.246,5.626L262.609,5.626L262.609,23.859Z" style="fill:rgb(220,225,214);fill-rule:nonzero;"/>
            </g>
        </g>
        <g transform="matrix(4.166667,0,0,4.166667,0,0)">
            <g transform="matrix(1,0,0,1,715.966,52.4889)">
                <path d="M0,17.027C0,28.683 6.834,33.982 16.113,33.982L16.322,33.982L16.322,23.872L16.252,23.872C13.461,23.872 11.855,22.476 11.855,18.845L11.855,-1.818C11.855,-5.448 13.461,-6.844 16.252,-6.844L16.322,-6.844L16.325,-16.955L16.116,-16.955C6.834,-16.955 0,-11.655 0,-0.003L0,17.027ZM17.932,33.982C27.214,33.982 34.048,28.683 34.048,17.031L34.048,-0.003C34.048,-11.655 27.214,-16.955 17.932,-16.955L17.722,-16.955L17.726,-6.844L17.796,-6.844C20.588,-6.844 22.193,-5.448 22.193,-1.818L22.193,18.845C22.193,22.476 20.588,23.872 17.796,23.872L17.726,23.872L17.722,33.982L17.932,33.982ZM-248.174,-16.397L-254.66,-16.397L-254.66,33.424L-243.851,33.424L-243.851,16.472C-243.851,11.795 -244.06,6.909 -244.27,2.44L-248.174,-16.397ZM-236.381,33.424L-225.84,33.424L-236.311,-16.397L-246.78,-16.397L-236.381,33.424ZM-219.905,7.746C-218.858,3.138 -218.37,0.556 -217.951,-1.678L-217.811,-1.678C-218.02,1.812 -218.23,8.165 -218.23,12.632L-218.23,33.424L-207.491,33.424L-207.491,-16.397L-223.815,-16.397L-229.191,10.957L-225.069,30.424L-219.905,7.746ZM-190.393,13.613L-187.183,-2.934L-189.485,-16.397L-194.998,-16.397L-205.187,33.424L-194.231,33.424L-192.199,22.747L-182.847,22.747L-184.382,13.613L-190.393,13.613ZM-188.081,-16.397L-179.637,33.424L-167.702,33.424L-178.171,-16.397L-188.081,-16.397ZM-143.216,-16.397L-171.541,-16.397L-171.541,-6.356L-143.216,-6.356L-143.216,-16.397ZM-132.189,13.613L-128.978,-2.934L-131.282,-16.397L-136.795,-16.397L-146.984,33.424L-136.027,33.424L-133.994,22.747L-124.643,22.747L-126.179,13.613L-132.189,13.613ZM-129.877,-16.397L-121.432,33.424L-109.499,33.424L-119.967,-16.397L-129.877,-16.397ZM-95.34,-16.397L-107.195,-16.397L-107.195,33.424L-95.34,33.424L-95.34,-16.397ZM-90.59,33.424C-80.819,33.424 -74.124,28.683 -74.124,16.681L-74.124,0.346C-74.124,-11.655 -80.819,-16.397 -90.59,-16.397L-93.943,-16.397L-93.935,-6.216L-91.214,-6.216C-88.213,-6.216 -85.98,-4.889 -85.98,-0.7L-85.98,17.729C-85.98,21.918 -88.213,23.244 -91.214,23.244L-93.935,23.244L-93.935,33.424L-90.59,33.424ZM-57.515,-16.397L-69.37,-16.397L-69.37,33.424L-57.515,33.424L-57.515,-16.397ZM-40.905,-16.397L-56.11,-16.397L-56.11,-6.356L-40.905,-6.356L-40.905,-16.397ZM-24.714,-16.397L-36.569,-16.397L-36.569,33.424L-24.714,33.424L-24.714,-16.397ZM-19.684,15C-16.541,15 -15.912,16.677 -15.912,19.262L-15.912,33.424L-4.196,33.424L-4.196,19.262C-4.196,14.584 -5.172,10.96 -10.681,9.842L-10.681,9.704C-5.729,8.021 -3.499,3.834 -3.499,-2.098L-3.499,-2.168C-3.499,-11.934 -9.008,-16.397 -18.494,-16.397L-23.309,-16.397L-23.309,-6.635L-19.89,-6.635C-16.54,-6.635 -15.424,-5.099 -15.424,-0.982L-15.424,-0.912C-15.424,3.694 -16.54,5.299 -20.169,5.299L-23.309,5.308L-23.309,15L-19.684,15ZM-163.306,33.424L-151.451,33.424L-151.451,-5.09L-163.306,-5.09L-163.306,33.424ZM-42.161,3.145L-56.11,3.145L-56.11,13.186L-42.161,13.186L-42.161,3.145ZM-40.905,23.384L-56.11,23.384L-56.11,33.425L-40.905,33.425L-40.905,23.384Z" style="fill:rgb(220,225,214);fill-rule:nonzero;"/>
            </g>
        </g>
    </g>
</svg>
