<?xml version="1.0" encoding="UTF-8" standalone="no"?>
<!DOCTYPE svg PUBLIC "-//W3C//DTD SVG 1.1//EN" "http://www.w3.org/Graphics/SVG/1.1/DTD/svg11.dtd">
<svg width="100%" height="100%" viewBox="0 0 4024 580" version="1.1" xmlns="http://www.w3.org/2000/svg" xmlns:xlink="http://www.w3.org/1999/xlink" xml:space="preserve" xmlns:serif="http://www.serif.com/" style="fill-rule:evenodd;clip-rule:evenodd;stroke-linejoin:round;stroke-miterlimit:2;">
    <g transform="matrix(1,0,0,1,-189.022662,-77.101289)">
        <g transform="matrix(1.642573,0,0,1.642573,1848.67301,88.880951)">
            <g transform="matrix(1,0,0,1,0,12.177859)">
                <g transform="matrix(1,0,0,1,11.3983,14.4882)">
                    <path d="M0,75.024C-3.555,75.024 -6.875,73.393 -9.834,70.692C-13.611,67.196 -15.321,63.318 -15.321,59.68C-15.321,56.669 -14.144,53.827 -11.991,51.504L24.698,5.456C27.561,1.818 31.586,0 35.948,0C40.793,0 46.053,2.244 50.599,6.733C55.477,11.334 57.62,16.27 57.615,20.849C57.612,25.187 55.682,29.205 52.322,32.317L10.019,70.692C6.555,73.715 3.185,75.024 0,75.024" style="fill:rgb(34,20,45);fill-rule:nonzero;"/>
                </g>
                <g transform="matrix(1,0,0,1,26.6239,168.6772)">
                    <path d="M0,-23.354C-25.062,-23.354 -43.21,-9.084 -45.368,18.598L40.183,18.598C40.183,-2.596 28.089,-23.354 0,-23.354M-93.331,40.223C-93.331,-25.95 -58.765,-63.149 0,-63.149C73.024,-63.146 86.421,-6.921 86.421,22.924C86.421,38.93 86.421,57.527 60.062,57.527L-46.662,57.527C-46.662,88.667 -24.625,102.939 3.894,102.939C22.908,102.939 36.3,96.454 46.669,89.534C51.426,86.506 54.88,84.777 60.497,84.777C71.731,84.777 80.808,93.855 80.808,105.102C80.808,112.023 77.349,117.643 73.462,121.104C66.116,128.025 43.214,144.893 3.894,144.893C-56.169,144.893 -93.327,112.455 -93.327,40.225L-93.331,40.223ZM-164.267,-168.677C-151.455,-168.677 -141.207,-158.296 -141.207,-145.323L-141.207,91.694C-141.207,96.885 -136.082,99.479 -133.091,99.479C-121.137,99.479 -111.741,108.995 -111.741,121.104C-111.741,133.217 -121.134,142.73 -133.091,142.73C-166.401,142.73 -187.327,123.704 -187.327,87.37L-187.327,-145.323C-187.328,-158.296 -177.08,-168.677 -164.267,-168.677M-363.49,-112.885C-420.601,-112.885 -448.722,-77.851 -448.722,-6.053C-448.722,65.309 -420.601,100.342 -363.49,100.342C-306.378,100.342 -278.254,65.309 -278.254,-6.053C-278.254,-77.85 -306.378,-112.885 -363.49,-112.885M-363.49,145.323C-450.886,145.323 -500.642,95.151 -500.642,-6.053C-500.642,-108.56 -450.886,-157.864 -363.49,-157.864C-276.094,-157.864 -226.336,-108.557 -226.336,-6.056C-226.336,95.151 -276.091,145.323 -363.49,145.323" style="fill:rgb(34,20,45);fill-rule:nonzero;"/>
                </g>
                <g transform="matrix(1,0,0,1,-570.8888,92.9008)">
                    <path d="M0,156.316C-0.063,156.406 -26.173,193.279 -38.261,209.979C-42.164,215.422 -49.192,218.146 -55.048,218.146C-66.761,218.146 -76.128,208.813 -76.128,197.146C-76.128,191.312 -74.178,187.813 -71.834,184.314L-24.6,125.209L-70.273,69.213C-73.397,64.937 -74.568,61.048 -74.568,56.383C-74.568,44.717 -65.199,35.383 -53.487,35.383C-46.904,35.394 -40.699,38.413 -36.7,43.55L-0.001,93.712L36.695,43.55C40.693,38.412 46.898,35.394 53.482,35.383C65.193,35.383 74.563,44.717 74.563,56.383C74.563,61.049 73.393,64.937 70.269,69.216L24.595,125.211L71.834,184.315C74.174,187.814 76.128,191.313 76.128,197.147C76.128,208.811 66.759,218.144 55.045,218.144C49.189,218.144 42.162,215.423 38.258,209.977C26.169,193.275 0.053,156.395 0,156.316M-126.034,14.385C-141.805,14.385 -150.652,5.052 -150.652,-10.114C-150.652,-28.001 -141.805,-35.777 -126.034,-35.777C-109.881,-35.777 -101.034,-28.001 -101.034,-10.114C-101.034,5.052 -109.881,14.385 -126.034,14.385M-105.266,56.382L-105.266,197.144C-105.266,208.807 -114.494,218.141 -126.034,218.141C-137.574,218.141 -146.807,208.81 -146.807,197.144L-146.807,56.382C-146.807,44.716 -137.576,35.382 -126.034,35.382C-114.495,35.382 -105.266,44.716 -105.266,56.382M-224.5,-61.83C-212.96,-61.83 -203.73,-52.497 -203.73,-40.833L-203.73,172.259C-203.73,176.927 -199.115,179.26 -196.421,179.26C-185.65,179.26 -177.189,187.813 -177.189,198.699C-177.189,209.59 -185.65,218.142 -196.421,218.142C-226.423,218.142 -245.269,201.035 -245.269,168.371L-245.269,-40.833C-245.27,-52.496 -236.04,-61.83 -224.5,-61.83M-394.893,105.375L-394.893,195.591C-394.893,208.035 -404.892,218.143 -417.199,218.143C-429.506,218.143 -439.508,208.037 -439.508,195.591L-439.508,-24.112C-439.508,-36.553 -429.506,-46.664 -417.199,-46.664L-297.196,-46.664C-286.042,-46.664 -275.753,-40.19 -275.567,-26.15C-275.4,-13.525 -286.042,-6.222 -297.196,-6.222L-394.893,-6.222L-394.893,65.714L-322.195,65.714C-311.425,65.714 -301.4,72.267 -301.4,86.267C-301.4,97.35 -311.425,105.375 -322.195,105.375L-394.893,105.375Z" style="fill:rgb(34,20,45);fill-rule:nonzero;"/>
                </g>
            </g>
        </g>
        <g transform="matrix(1.642573,0,0,1.642573,1848.67301,88.880951)">
            <g transform="matrix(1.67553,0,0,1.67553,449.134902,-35.152821)">
                <rect x="86.8" y="107.6" width="461.2" height="8.5" style="fill:rgb(34,20,45);"/>
                <rect x="132.2" y="220.4" width="367.8" height="6.8" style="fill:rgb(34,20,45);"/>
                <rect x="86.8" y="200.3" width="461.2" height="8.5" style="fill:rgb(34,20,45);"/>
                <g>
                    <path d="M24,132.3L25,132.3L50,159.8L74.6,132.3L75.4,132.3L75.4,183.6L65.3,183.6L65.3,164.6C65.3,161.2 65.6,155.8 65.6,155.8C65.6,155.8 62.5,160.3 60.2,162.9L50,174.2L49.2,174.2L39,162.9C36.7,160.4 33.6,155.8 33.6,155.8C33.6,155.8 33.9,161.2 33.9,164.6L33.9,183.6L24,183.6L24,132.3Z" style="fill:rgb(34,20,45);fill-rule:nonzero;"/>
                    <path d="M86.6,132.9L120.3,132.9L120.3,142L97,142L97,158.1L117.4,158.1L117.4,167.2L97,167.2L97,174.6L121.1,174.6L121.1,183.7L86.6,183.7L86.6,132.9Z" style="fill:rgb(34,20,45);fill-rule:nonzero;"/>
                    <path d="M169,183.6L156.8,183.6L148.3,170.9C147.5,171.2 146.3,171.2 145.2,171.2L141.5,171.2L141.5,183.9L131,183.9L131,133.2L145.2,133.2C159.4,133.2 167.9,140 167.9,152.5C167.9,160.4 164.5,165.5 158,168.4L169,183.6ZM145.2,161.7C153.7,161.7 157.4,159.2 157.4,151.8C157.4,144.4 153.4,141.9 145.2,141.9L141.8,141.9L141.8,161.7L145.2,161.7Z" style="fill:rgb(34,20,45);fill-rule:nonzero;"/>
                    <path d="M175,158.1C175,143.1 186.6,132 201.1,132C210.2,132 217,135.4 221.5,142.5L213.6,148.2C211.3,144.2 207.1,141.7 201.4,141.7C192.3,141.7 186.1,148.8 186.1,158.1C186.1,167.4 192.3,174.8 201.4,174.8C207.9,174.8 211.6,171.7 214.4,167.4L222.6,173.1C218.1,179.9 211.3,184.4 201.4,184.4C186.6,184.1 175,173.1 175,158.1Z" style="fill:rgb(34,20,45);fill-rule:nonzero;"/>
                    <path d="M230.2,165.1L230.2,132.8L240.7,132.8L240.7,164.5C240.7,171.9 243.8,174.7 250.9,174.7C257.7,174.7 260.8,171.9 260.8,164.5L260.8,132.8L271.3,132.8L271.3,165.1C271.3,177.8 262.5,184.1 250.9,184.1C239,184.1 230.2,177.9 230.2,165.1Z" style="fill:rgb(34,20,45);fill-rule:nonzero;"/>
                    <path d="M318.6,183.6L306.4,183.6L297.9,170.9C297.1,171.2 295.9,171.2 294.8,171.2L291.1,171.2L291.1,183.9L280.6,183.9L280.6,133.2L294.8,133.2C309,133.2 317.5,140 317.5,152.5C317.5,160.4 314.1,165.5 307.6,168.4L318.6,183.6ZM294.8,161.7C303.3,161.7 307,159.2 307,151.8C307,144.4 303,141.9 294.8,141.9L291.4,141.9L291.4,161.7L294.8,161.7Z" style="fill:rgb(34,20,45);fill-rule:nonzero;"/>
                    <path d="M339.3,167.4L320,132.9L331.6,132.9L340.7,149.3C342.7,153 344.7,158.9 344.7,158.9C344.7,158.9 346.7,153 348.7,149.3L357.2,132.9L368,132.9L349.9,166.9L349.9,183.9L339.4,183.9L339.4,167.4L339.3,167.4Z" style="fill:rgb(34,20,45);fill-rule:nonzero;"/>
                    <path d="M391.4,132.9L424.3,132.9L424.3,142L401.9,142L401.9,158.7L422,158.7L422,168L401.9,168L401.9,183.6L391.4,183.6L391.4,132.9Z" style="fill:rgb(34,20,45);fill-rule:nonzero;"/>
                    <rect x="433.9" y="132.9" width="10.5" height="50.7" style="fill:rgb(34,20,45);fill-rule:nonzero;"/>
                    <path d="M455.5,132.9L466,132.9L466,174.5L488.9,174.5L488.9,183.6L455.5,183.6L455.5,132.9Z" style="fill:rgb(34,20,45);fill-rule:nonzero;"/>
                    <path d="M497.6,132.3L498.5,132.3L523.4,159.8L548,132.3L548.8,132.3L548.8,183.6L538.6,183.6L538.6,164.6C538.6,161.2 538.9,155.8 538.9,155.8C538.9,155.8 535.8,160.3 533.5,162.9L523.3,174.2L522.5,174.2L512.3,162.9C510,160.4 506.9,155.8 506.9,155.8C506.9,155.8 507.2,161.2 507.2,164.6L507.2,183.6L497.6,183.6L497.6,132.3Z" style="fill:rgb(34,20,45);fill-rule:nonzero;"/>
                    <path d="M554.6,173.4L563.1,168.6C565.4,172.3 568.2,174.8 573.3,174.8C577.5,174.8 580.4,172.5 580.4,169.7C580.4,166 577.6,164.9 572.8,162.6L570.3,161.5C562.7,158.4 557.8,154.1 557.8,145.6C557.8,137.7 563.7,131.7 573.1,131.7C579.6,131.7 584.4,134 587.8,140.2L579.9,145.6C578.2,142.5 576.2,141.1 573.1,141.1C570,141.1 568,143.1 568,145.6C568,148.7 570,150.1 574.5,151.8L577,152.9C585.8,156.6 590.9,160.5 590.9,169.3C590.9,178.6 583.5,183.7 573.6,183.7C564,184.1 557.7,179.6 554.6,173.4Z" style="fill:rgb(34,20,45);fill-rule:nonzero;"/>
                </g>
                <g>
                    <path d="M423.4,88.9C406.7,46.7 365.3,16.7 317.4,16.7C269.2,16.7 228.2,46.7 211.4,88.9L132.1,88.9L132.1,95.7L499.9,95.7L499.9,88.9L423.4,88.9ZM229.1,88.1C229.9,87.3 230.2,86.4 230.2,85.3C230.2,84.7 233,81.3 233.3,81.1C233.6,80.9 235,79.7 235.3,79.4C236.4,78.8 240.4,80 241.2,80C242.6,79.7 244.6,75.5 245.4,74.9C246.5,74.3 251.9,72.9 252.8,71.5C253.1,70.7 252.5,70.1 252.2,70.4C251.1,70.4 250.2,71.5 249.4,71.8L248.8,71.8C248.2,71.5 248,71.2 248,70.7C248,70.1 248,69.9 247.7,69.3C247.7,69 247.7,68.7 248,68.7C248.6,68.4 248.8,68.1 249.1,67.9C249.4,66.5 251.4,65.4 252.8,65.6C253.9,65.6 255.3,65.6 256.5,65C257.1,64.7 257.3,64.2 257.9,64.2C258.5,63.9 259.3,63.9 260.2,63.6C261.6,63 262.2,62.8 262.2,61.3C262.2,59 258.8,57.3 258.8,53.1C258.8,52.3 259.6,50 259.1,49.4C258.3,48.8 257.4,50.5 256.3,51.4C254.9,52.5 253.5,53.1 252.9,52C252.3,51.2 253.2,48 252.9,47.5C252.6,47.2 252.9,46.7 252.6,46.4C252.3,46.1 251.5,45.6 250.6,45.3C253.1,43.3 256,41.3 258.8,39.4C259.4,40.8 260.5,42.2 260.2,42.5C259.4,43.3 261.9,47.9 262.5,48.4C263.1,49.2 262.2,50.4 262.8,51.5C262.8,51.8 263.9,53.2 264.5,53.2C266.5,53.5 266.2,52.6 267.3,53.2C268.1,53.8 267.6,54.6 269.3,54.6C271.3,54.6 271.3,54 272.4,52.9C273.2,52.1 274.4,51.2 274.9,50.1C275.2,49.8 278.3,47.6 278.6,47.3C279.4,46.5 281.1,44.5 283.4,43.3C284.5,42.7 286.2,43 287.4,42.7C291.1,42.1 292.8,41 295.6,39.6C298.4,38.2 300.1,38.2 303.2,37.6C307.7,36.8 310,33.6 310.3,33.6C311.1,33.3 317.1,33.9 317.7,31.9C317.7,31.1 316.9,31.3 318.8,29.1C319.4,28.5 323.6,24.3 325.6,21.7C340.6,22.8 355.1,26.8 367.8,33.3C367.5,33.6 367.2,33.6 367.2,33.9C366.9,34.5 366.9,34.7 366.6,35.3C366.3,35.9 365.8,35.9 365.2,36.4C364.9,36.7 364.4,37.2 363.8,37.5C364.1,37.2 359.6,39.8 358.7,40C357.6,40.6 357,44.5 357,45.1C357,45.1 357,46.8 359,47.4C361.5,48 366.1,48 366.6,48.5C367.2,49.1 367.4,50.2 368,50.5C370.8,51.3 373.1,50.8 373.9,49.1C373.9,48.8 373.6,48.3 373.9,47.7C374.2,46.3 375,46.6 375.9,45.7C377.3,44.3 374.8,43.7 373.9,42.9C372.8,41.2 374.7,39.8 376.4,38.9C376.4,38.9 376.7,38.9 376.7,38.6C377.3,38.9 378.1,39.4 378.7,40L378.7,40.3C379,41.4 379.5,43.1 380.7,43.7C382.4,44 382.4,44.3 384.4,44C384.7,44.3 385.2,44.6 385.5,44.8L385.2,44.8C384.6,44.8 382.7,47.1 381,48.5C379.3,49.9 382.4,51.6 379.3,52.5C377.6,53.1 377,51.9 374.5,52.5C373.7,52.8 371.4,54.2 370.5,53.9C369.1,53.6 369.9,52.8 369.1,52.8C368.3,52.8 366.8,53.6 366,53.6C365.2,53.6 363.2,53.6 360.9,54.4C358.6,55.2 356.9,55 355.5,56.7C354.4,57.8 353.2,59 351.8,59.8C351.2,60.4 350.7,60.4 349.8,60.6C349.5,60.6 349.2,61.2 349,61.2C348.7,61.2 347,62 346.7,62.3C346.1,62.6 345.3,62.3 345,62.3C343.9,62.3 341,62.3 342.7,63.7C343,64 344.4,64 345,64.3C345.6,64.6 347,65.7 347.3,66.3C347.9,67.1 347.9,70 346.2,70.5C344.5,71.1 340.3,70.2 338.6,70.2C337.5,70.2 335.2,69.9 334.6,71C334,71.8 335.2,74.4 334.6,75.5C334.3,76.6 333.8,76.9 334,78C334,78.3 334.6,79.7 334.6,80C335.2,80.6 336,80.3 336.9,80.3C338,80.6 338.9,81.7 340,81.7C340.8,81.7 342.8,80.9 343.7,80.9C344.8,80.6 345.4,80.9 346.5,80.3C347.6,79.7 347.9,79.5 348.5,78.9C349.6,77.8 349.1,78.1 349.3,77.2C350.1,75.2 351,75.2 353,74.1C355,72.7 353.6,70.7 357,70.7C358.1,70.7 358.7,71.3 359.8,71.3C360.6,71 361.5,70.2 362.3,69.9C365.1,68.8 365.7,70.5 367.4,71.9C369.4,73.6 371.6,73.9 373.6,75.3C375,76.1 375.6,77.3 373.9,78.4C373.1,79 369.7,78.7 369.9,79.8C369.9,80.1 373.6,81.5 374.1,81.2C374.9,80.9 374.1,80.4 374.7,79.8C375.3,79.2 376.7,79.8 377.2,79.5C378.3,78.7 377.8,78.1 378,77.2C378.3,76.4 377.2,76.1 378.3,75.5C378.6,75.5 380.6,76.9 379.7,75.2C379.1,74.4 375.7,73.5 374.6,72.9C372.9,72.1 370.6,70.9 369.5,69.5C369.2,68.9 368.7,68.4 369.2,67.8C370.9,66.4 370.3,68.1 370.9,68.1C372.3,68.7 372.9,68.9 374,69.8C375.7,70.9 378.2,71.2 379.7,72.3C381.4,73.4 380.8,75.4 382.2,76.5C382.8,77.1 383.6,77.6 384.2,78.5L384.5,78.8C384.8,79.4 385.3,80.2 385.9,80.5C388.2,81.3 388.4,80.2 389,79.4C389.6,78.6 390.1,79.4 389.6,78C389.3,77.4 386.5,76.3 387.1,75.7C387.7,75.1 387.9,76 388.2,75.7C388.5,75.4 389.6,74.9 390.2,74.6C393.3,73.5 392.7,75.7 393,77.1C393.6,79.4 396.1,80.8 396.4,80.8C397.8,81.4 399.5,81.4 400.9,81.4C402,81.4 402.6,84.2 403.7,84.2C404.5,84.2 404.3,87.3 402.6,88.7L377.1,88.7C376.8,88.7 376.8,88.7 376.5,88.4C375.7,88.1 375.9,87.6 375.1,87C374,86.2 372.3,86.4 370.9,86.2C369.8,86.2 369.2,85.9 368.4,85.6C365.9,84.5 367.3,85 367.6,83.6C367.9,82.8 367.6,80.8 367,80.5C365.9,79.7 362.5,80.5 360.8,80.5C358.3,80.5 355.1,80.5 352.6,81.1C351.2,81.4 349.8,81.9 348.4,82.2C346.4,83 346.4,82.8 344.4,82.8L341.6,82.8C339.9,82.8 340.8,82 339.3,83.1C338.5,83.7 338.5,84.5 337.3,85.1C335.9,85.9 334.8,86.2 333.9,87.1C333.3,87.7 333.3,88.2 333.1,88.8L229.1,88.8C228.2,88.7 228.5,88.4 229.1,88.1ZM410.7,73.9C410.1,73.9 409.6,73.6 409.3,73.6C406.2,72.8 404.5,72.5 401.4,73.3C399.7,73.9 395.2,74.7 394.6,72.2C394.3,70.8 396,69.1 396.9,68.2C398,66.5 398,65.7 400.6,66.2C403.1,66.8 401.7,66.8 402.9,67.9C403.7,68.7 403.5,68.7 404.9,68.5C404.9,68.5 406,68.5 406.9,67.9C408.1,70 409.3,71.9 410.7,73.9Z" style="fill:rgb(34,20,45);fill-rule:nonzero;"/>
                    <path d="M340.4,60.6C340.7,60.9 345.5,59.8 346.1,59.8C347.2,59.8 348.4,60.6 349.2,60.1C351.2,59 350.3,59 350.6,58.1C350.9,57.5 352.3,55 349.2,55.8C348.1,56.1 347.5,53 346.4,51.6C346.1,51.3 344.7,51.3 344.4,51C344.4,50.4 345.5,49.9 345.5,49.6C345.5,47.9 344.4,49.6 343.2,48.8C342.6,48.5 339.8,51.6 341.5,53.6C341.8,53.9 342.6,53.6 343.2,53.9C343.5,54.2 344,55 344,55.3C343.7,56.1 342.6,55.6 342.3,56.1C341.7,56.7 340.9,58.1 340.9,58.6C340.9,58.6 340.9,58.9 341.2,58.9C341.8,59.2 341.8,59.7 341.2,60C340.4,59.8 339.9,60.3 340.4,60.6Z" style="fill:rgb(34,20,45);fill-rule:nonzero;"/>
                    <path d="M320.6,40.2C319.8,39.9 318.3,40.2 317.5,40.5C316.7,40.5 316.1,40.2 315.5,40.5C315.2,40.5 314.1,39.9 313.8,39.9C313.5,39.6 312.7,39.9 311.3,40.5C310.7,40.8 308.8,41.3 309.6,41.9C309.9,42.2 309.3,42.2 309.3,42.7C309.3,43.3 309.6,45.2 309.9,45.5C311.3,46.3 314.7,46.9 315.6,46.6C317.6,46 321,43.8 322.1,42.6C322.6,41.9 321.7,40.5 320.6,40.2Z" style="fill:rgb(34,20,45);fill-rule:nonzero;"/>
                    <path d="M268.7,64.3C269,64 269,64 268.7,64.3Z" style="fill:rgb(34,20,45);fill-rule:nonzero;"/>
                    <path d="M262.2,68.8C261.4,68.2 257.1,72.5 256.5,73C255.4,74.1 254.8,74.4 256.2,75C257,75.3 259,75.3 259.6,76.1C259.6,76.4 260.2,76.1 260.4,76.1C261,75.8 261.5,76.1 262.1,76.4C262.4,76.7 262.9,76.7 263.2,76.7C264.3,76.4 264,74.2 264,73.9C263.6,72.8 262.8,69.4 262.2,68.8Z" style="fill:rgb(34,20,45);fill-rule:nonzero;"/>
                    <path d="M337,57.5C338.7,56.9 339.3,56.9 339.8,55.5C340.1,54.9 340.4,54.1 340.4,53.8C340.4,52.7 337.6,51.3 336.4,52.7C335.6,53.8 334.7,53 333.9,53.8C333.1,54.6 334.5,54.9 334.2,55.5C333.9,56.1 332.5,56.6 332.8,57.2C333.3,58.9 335.9,57.8 337,57.5Z" style="fill:rgb(34,20,45);fill-rule:nonzero;"/>
                    <path d="M362.5,77.6C364.2,78.2 364.2,76.5 364.2,75.9C364.2,75.6 364.5,74.8 363.9,74.2C363.3,73.9 361.1,73.9 361.6,74.8C362,75.6 361.7,77.3 362.5,77.6Z" style="fill:rgb(34,20,45);fill-rule:nonzero;"/>
                    <path d="M363.7,73.6C364.3,73 364.5,71.9 363.4,71.6C361.1,71.1 362.8,74.5 363.7,73.6Z" style="fill:rgb(34,20,45);fill-rule:nonzero;"/>
                    <path d="M344.4,46.4C344.4,46.4 344.1,46.7 344.4,46.4Z" style="fill:rgb(34,20,45);fill-rule:nonzero;"/>
                    <path d="M365.4,71.4C366.2,71.1 365.1,71.7 365.4,71.4Z" style="fill:rgb(34,20,45);fill-rule:nonzero;"/>
                </g>
            </g>
        </g>
    </g>
</svg>
