<?xml version="1.0" encoding="UTF-8" standalone="no"?>
<!DOCTYPE svg PUBLIC "-//W3C//DTD SVG 1.1//EN" "http://www.w3.org/Graphics/SVG/1.1/DTD/svg11.dtd">
<svg width="100%" height="100%" viewBox="0 0 1901 435" version="1.1" xmlns="http://www.w3.org/2000/svg" xmlns:xlink="http://www.w3.org/1999/xlink" xml:space="preserve" xmlns:serif="http://www.serif.com/" style="fill-rule:evenodd;clip-rule:evenodd;stroke-linejoin:round;stroke-miterlimit:2;">
    <g transform="matrix(1,0,0,1,-5870.703125,-657)">
        <g id="Página-3" serif:id="Página 3" transform="matrix(3.192327,0,0,1.034568,5870.703125,657)">
            <rect x="0" y="0" width="595.275" height="419.527" style="fill:none;"/>
            <g id="Primer-plano" serif:id="Primer plano" transform="matrix(1.305213,0,0,4.027446,-90.842822,-635.047735)">
                <g transform="matrix(1,0,0,1,264.5586,179.5547)">
                    <path d="M0,65.402L-43.541,65.402L-43.541,14.33L-77.736,14.33L-77.736,25.26L-53.484,25.26L-53.484,39.59L-77.736,39.59L-77.736,51.072L-49.352,51.072L-49.352,65.402L-144.145,65.402L-144.145,14.33L-178.22,14.33L-178.22,25.811L-153.969,25.811L-153.969,40.142L-178.22,40.142L-178.22,65.402L-194.293,65.402L-194.293,0L-99.687,0L-99.687,14.33L-128.07,14.33L-128.07,25.26L-103.82,25.26L-103.82,39.59L-128.07,39.59L-128.07,51.072L-93.81,51.072L-93.81,0L-27.467,0L-27.467,51.072L0,51.072L0,65.402Z" style="fill:rgb(220,225,214);fill-rule:nonzero;"/>
                </g>
                <g transform="matrix(1,0,0,1,317.4121,198.6394)">
                    <path d="M0,28.205C0,22.582 -1.752,17.881 -5.347,14.748C-8.111,12.258 -11.522,10.784 -17.605,9.863L-25.07,8.756C-28.113,8.295 -30.787,7.189 -32.445,5.714C-34.196,4.147 -34.935,2.027 -34.935,-0.369C-34.935,-6.177 -30.693,-10.6 -22.951,-10.6C-17.422,-10.6 -12.721,-9.401 -8.664,-5.531L-2.305,-11.798C-7.928,-17.053 -14.01,-19.265 -22.674,-19.265C-36.317,-19.265 -44.613,-11.43 -44.613,-0.001C-44.613,5.346 -43.046,9.493 -39.819,12.535C-36.963,15.209 -32.723,17.052 -27.376,17.79L-19.634,18.895C-15.762,19.448 -14.104,20.094 -12.443,21.66C-10.692,23.227 -9.863,25.624 -9.863,28.481C-9.863,34.842 -14.84,38.528 -23.412,38.528C-30.141,38.528 -35.395,37.055 -40.188,32.261L-46.825,38.806C-40.557,45.166 -33.459,47.47 -23.598,47.47C-9.863,47.47 0,40.279 0,28.205" style="fill:rgb(220,225,214);"/>
                </g>
                <g transform="matrix(1,0,0,1,356.5947,201.5881)">
                    <path d="M0,22.307L-20.187,22.307L-9.955,-6.82L0,22.307ZM17.882,43.968L-6.176,-21.661L-14.196,-21.661L-38.253,43.968L-27.653,43.968L-23.137,30.786L2.765,30.786L7.281,43.968L17.882,43.968Z" style="fill:rgb(220,225,214);"/>
                </g>
                <g transform="matrix(1,0,0,1,422.5996,179.9273)">
                    <path d="M0,65.629L0,56.688L-31.617,56.688L-31.617,0L-41.572,0L-41.572,65.629L0,65.629Z" style="fill:rgb(220,225,214);"/>
                </g>
                <g transform="matrix(1,0,0,1,472.1855,179.9273)">
                    <path d="M0,65.629L0,56.688L-31.984,56.688L-31.984,36.962L-4.701,36.962L-4.701,28.113L-31.984,28.113L-31.984,8.941L0,8.941L0,0L-41.939,0L-41.939,65.629L0,65.629Z" style="fill:rgb(220,225,214);"/>
                </g>
                <g transform="matrix(1,0,0,1,525.0098,198.6394)">
                    <path d="M0,28.205C0,22.582 -1.75,17.881 -5.346,14.748C-8.111,12.258 -11.521,10.784 -17.604,9.863L-25.07,8.756C-28.112,8.295 -30.786,7.189 -32.444,5.714C-34.195,4.147 -34.934,2.027 -34.934,-0.369C-34.934,-6.177 -30.693,-10.6 -22.951,-10.6C-17.42,-10.6 -12.72,-9.401 -8.664,-5.531L-2.303,-11.798C-7.927,-17.053 -14.01,-19.265 -22.674,-19.265C-36.316,-19.265 -44.611,-11.43 -44.611,-0.001C-44.611,5.346 -43.045,9.493 -39.818,12.535C-36.962,15.209 -32.721,17.052 -27.375,17.79L-19.633,18.895C-15.761,19.448 -14.103,20.094 -12.443,21.66C-10.691,23.227 -9.861,25.624 -9.861,28.481C-9.861,34.842 -14.84,38.528 -23.412,38.528C-30.141,38.528 -35.394,37.055 -40.188,32.261L-46.824,38.806C-40.555,45.166 -33.459,47.47 -23.596,47.47C-9.861,47.47 0,40.279 0,28.205" style="fill:rgb(220,225,214);"/>
                </g>
            </g>
            <g id="Guías">
            </g>
        </g>
    </g>
</svg>
