<?xml version="1.0" encoding="UTF-8" standalone="no"?>
<!DOCTYPE svg PUBLIC "-//W3C//DTD SVG 1.1//EN" "http://www.w3.org/Graphics/SVG/1.1/DTD/svg11.dtd">
<svg width="100%" height="100%" viewBox="0 0 497 122" version="1.1" xmlns="http://www.w3.org/2000/svg" xmlns:xlink="http://www.w3.org/1999/xlink" xml:space="preserve" xmlns:serif="http://www.serif.com/" style="fill-rule:evenodd;clip-rule:evenodd;stroke-miterlimit:2;">
    <g transform="matrix(1,0,0,1,-77.986804,-67.591003)">
        <path d="M509.568,73.026C509.942,73.011 510.316,72.998 510.748,72.998C511.375,72.998 512.315,73.026 513.182,73.162C513.153,73.011 513.117,72.894 513.117,72.685C513.117,72.457 513.153,72.321 513.182,72.157C512.224,72.275 510.791,72.293 509.568,72.275C509.555,71.478 509.555,71.3 509.555,70.324C509.555,69.436 509.555,69.183 509.582,68.582C509.927,68.569 510.241,68.569 510.538,68.569C511.764,68.569 512.854,68.688 513.495,68.777C513.463,68.627 513.435,68.492 513.435,68.268C513.435,68.04 513.463,67.905 513.495,67.741C512.94,67.802 512.416,67.833 510.42,67.833C509.3,67.833 508.855,67.833 508.015,67.741C508.089,69.183 508.139,71.567 508.139,73.026C508.139,74.977 508.075,76.582 507.971,78.115C508.21,78.072 508.389,78.026 508.791,78.026C509.211,78.026 509.437,78.072 509.674,78.115C509.601,77.215 509.539,76.582 509.555,75.101L509.568,73.026Z" style="fill:rgb(220,225,214);fill-rule:nonzero;"/>
        <path d="M500.708,77.698C498.412,77.698 496.772,75.909 496.772,72.983C496.772,69.588 498.772,68.236 500.757,68.236C501.772,68.236 503.277,68.644 504.082,70.011C504.606,70.897 504.741,72.111 504.741,72.89C504.741,75.969 503.067,77.698 500.708,77.698ZM500.829,67.591C497.172,67.591 495.069,69.801 495.069,72.994C495.069,76.331 497.426,78.342 500.68,78.342C504.235,78.342 506.445,75.957 506.445,72.818C506.445,69.441 503.95,67.591 500.829,67.591Z" style="fill:rgb(220,225,214);fill-rule:nonzero;"/>
        <path d="M485.407,77.26C485.407,72.594 485.407,71.572 485.539,67.728C485.27,67.774 484.99,67.818 484.6,67.818C484.228,67.818 484.035,67.774 483.796,67.728C483.825,68.373 483.914,70.594 483.914,72.637C483.914,74.602 483.897,76.193 483.778,78.117C484.584,78.068 484.955,78.028 486.273,78.028C487.898,78.028 488.526,78.085 489.495,78.117C489.469,77.996 489.438,77.847 489.438,77.608C489.438,77.397 489.469,77.248 489.495,77.113C488.811,77.23 487.557,77.29 486.796,77.29C486.42,77.29 486.12,77.29 485.407,77.26Z" style="fill:rgb(220,225,214);fill-rule:nonzero;"/>
        <path d="M479.443,72.773C479.443,75.716 479.397,76.479 479.291,78.115C479.536,78.07 479.758,78.026 480.083,78.026C480.414,78.026 480.724,78.07 481.012,78.115C480.966,76.991 480.904,75.788 480.904,73.087C480.904,71.3 480.937,69.514 481.025,67.727C480.772,67.787 480.58,67.816 480.16,67.816C479.758,67.816 479.579,67.787 479.34,67.727C479.443,70.474 479.443,70.612 479.443,72.773Z" style="fill:rgb(220,225,214);fill-rule:nonzero;"/>
        <path d="M476.524,76.027C475.359,77.425 473.806,77.578 473.133,77.578C471.016,77.578 469.084,76.027 469.084,72.905C469.084,70.012 470.655,68.269 473.012,68.269C474.536,68.269 475.854,69.062 476.257,69.919L476.406,69.919C476.479,69.227 476.536,69.03 476.761,68.417C476.091,68.119 474.882,67.621 473.075,67.621C469.147,67.621 467.358,70.023 467.358,72.92C467.358,76.016 469.372,78.297 472.833,78.297C474.151,78.297 475.432,77.98 476.536,77.322C476.567,76.767 476.631,76.451 476.7,76.104L476.524,76.027Z" style="fill:rgb(220,225,214);fill-rule:nonzero;"/>
        <path d="M457.251,70.356L460.162,73.403C460.418,73.659 460.673,73.912 460.926,74.15C461.97,75.126 464.207,77.635 464.674,78.207C464.777,78.193 464.835,78.173 464.909,78.173C465.001,78.173 465.073,78.193 465.194,78.207C465.135,77.143 465.135,75.339 465.135,74.168C465.135,72.004 465.135,69.829 465.391,67.669C465.194,67.712 464.984,67.758 464.748,67.758C464.511,67.758 464.328,67.712 464.164,67.669C464.357,69.844 464.357,71.164 464.357,74.993L464.357,75.552C462.461,73.61 462.134,73.25 459.147,70.085C458.238,69.122 457.882,68.719 457.476,68.253L456.983,67.669C456.849,67.683 456.76,67.695 456.67,67.695C456.596,67.695 456.521,67.683 456.432,67.669L456.432,69.467C456.432,70.01 456.475,72.62 456.475,73.224C456.475,74.783 456.359,77.364 456.284,78.115C456.46,78.069 456.596,78.029 456.863,78.029C457.131,78.029 457.312,78.069 457.49,78.115C457.357,75.79 457.298,74.933 457.251,71.302L457.251,70.356Z" style="fill:rgb(220,225,214);fill-rule:nonzero;"/>
        <path d="M445.469,73.943C445.469,75.232 445.547,76.06 446.099,76.811C447.025,78.057 448.593,78.327 449.74,78.327C451.441,78.327 452.396,77.798 453.026,77.142C454.024,76.103 454.1,74.484 454.1,73.025C454.1,70.807 454.159,69.095 454.353,67.729C454.175,67.775 454.024,67.815 453.693,67.815C453.352,67.815 453.188,67.775 452.994,67.729C453.145,68.704 453.204,71.659 453.204,72.231C453.204,72.605 453.188,74.303 452.948,75.324C452.456,77.424 450.426,77.516 450.009,77.516C449.067,77.516 448.099,77.142 447.62,76.541C447.025,75.804 446.965,74.754 446.965,72.861C446.965,72.545 446.965,69.694 447.097,67.729C446.844,67.775 446.559,67.815 446.233,67.815C445.964,67.815 445.661,67.775 445.351,67.729C445.469,69.605 445.469,69.907 445.469,73.943Z" style="fill:rgb(220,225,214);fill-rule:nonzero;"/>
        <path d="M570.04,72.26C570.023,71.466 570.023,71.285 570.023,70.309C570.023,69.421 570.023,69.167 570.051,68.583C570.693,68.551 570.961,68.551 571.499,68.551C572.802,68.551 573.32,68.641 573.875,68.747C573.841,68.595 573.814,68.477 573.814,68.267C573.814,68.071 573.841,67.907 573.875,67.74C573.113,67.815 572.368,67.832 571.604,67.832C570.561,67.832 569.528,67.832 568.486,67.74C568.573,69.21 568.607,71.242 568.607,72.74C568.607,76.015 568.53,76.99 568.438,78.115C569.591,78.071 570.753,78.025 571.904,78.025C572.589,78.025 573.291,78.025 573.98,78.115C573.947,77.968 573.918,77.844 573.918,77.634C573.918,77.427 573.947,77.289 573.98,77.125C572.215,77.303 571.01,77.303 570.051,77.303C570.04,76.901 570.005,75.758 570.005,74.979C570.005,74.334 570.023,73.658 570.04,73.011C570.408,72.997 570.845,72.982 571.248,72.982C571.887,72.982 572.785,73.025 573.561,73.135C573.544,72.965 573.501,72.83 573.501,72.666C573.501,72.456 573.532,72.323 573.561,72.156C572.393,72.292 571.22,72.275 570.04,72.26Z" style="fill:rgb(220,225,214);fill-rule:nonzero;"/>
        <path d="M561.916,72.861C561.901,71.284 561.901,69.754 561.916,68.462C562.197,68.416 562.543,68.404 562.781,68.404C563.542,68.404 564.396,68.583 564.901,69.063C565.272,69.423 565.408,69.949 565.408,70.533C565.408,72.832 563.412,72.907 561.916,72.861ZM565.649,68.117C564.934,67.772 563.973,67.772 562.839,67.772C561.677,67.772 560.945,67.772 560.361,67.726C560.437,68.807 560.479,69.527 560.479,71.782C560.479,73.897 560.469,76.014 560.361,78.117C560.571,78.071 560.754,78.025 561.155,78.025C561.588,78.025 561.766,78.071 562.02,78.117C561.944,76.662 561.901,75.563 561.916,73.491C562.157,73.508 562.394,73.523 562.635,73.523C563.542,73.523 564.81,73.402 565.604,72.893C566.214,72.501 567.033,71.75 567.033,70.384C567.033,69.377 566.559,68.554 565.649,68.117Z" style="fill:rgb(220,225,214);fill-rule:nonzero;"/>
        <path d="M552.94,77.698C550.645,77.698 549.002,75.909 549.002,72.983C549.002,69.588 551.005,68.236 552.986,68.236C554.005,68.236 555.51,68.644 556.318,70.011C556.839,70.897 556.974,72.111 556.974,72.89C556.974,75.969 555.3,77.698 552.94,77.698ZM553.064,67.591C549.407,67.591 547.299,69.801 547.299,72.994C547.299,76.331 549.66,78.342 552.914,78.342C556.465,78.342 558.675,75.957 558.675,72.818C558.675,69.441 556.183,67.591 553.064,67.591Z" style="fill:rgb(220,225,214);fill-rule:nonzero;"/>
        <path d="M540.879,72.559C540.879,72.246 540.864,71.195 540.864,70.505C540.864,69.826 540.864,69.135 540.893,68.462C541.082,68.431 541.399,68.388 541.833,68.388C542.925,68.388 544.402,68.612 544.402,70.37C544.402,72.457 542.341,72.545 541.666,72.577C541.311,72.594 541.166,72.594 540.879,72.559ZM543.03,72.893C543.939,72.726 545.953,72.349 545.953,70.203C545.953,69.481 545.761,68.868 545.193,68.405C544.699,67.996 544.144,67.772 542.368,67.772C542.133,67.772 540.907,67.786 540.64,67.786C540.326,67.786 539.906,67.786 539.34,67.726C539.386,69.409 539.429,70.968 539.429,72.363C539.429,74.559 539.402,76.345 539.322,78.115C539.55,78.071 539.714,78.025 540.116,78.025C540.387,78.025 540.726,78.054 540.984,78.115C540.864,75.712 540.879,74.153 540.879,73.086L541.267,73.086C542.417,74.452 543.509,75.865 544.927,78.115C545.341,78.071 545.688,78.025 545.999,78.025C546.33,78.025 546.566,78.071 546.883,78.115L546.883,77.936C546.704,77.68 543.58,73.747 543.03,72.893Z" style="fill:rgb(220,225,214);fill-rule:nonzero;"/>
        <path d="M528.541,73.943C528.541,75.232 528.612,76.06 529.171,76.811C530.092,78.057 531.659,78.327 532.81,78.327C534.514,78.327 535.469,77.798 536.096,77.142C537.094,76.103 537.169,74.484 537.169,73.025C537.169,70.807 537.229,69.095 537.419,67.729C537.243,67.775 537.094,67.815 536.766,67.815C536.424,67.815 536.257,67.775 536.066,67.729C536.211,68.704 536.273,71.659 536.273,72.231C536.273,72.605 536.257,74.303 536.018,75.324C535.525,77.424 533.498,77.516 533.077,77.516C532.137,77.516 531.168,77.142 530.687,76.541C530.092,75.804 530.03,74.754 530.03,72.861C530.03,72.545 530.03,69.694 530.167,67.729C529.912,67.775 529.632,67.815 529.298,67.815C529.029,67.815 528.733,67.775 528.417,67.729C528.541,69.605 528.541,69.907 528.541,73.943Z" style="fill:rgb(220,225,214);fill-rule:nonzero;"/>
        <path d="M522.611,72.26C522.594,71.466 522.594,71.285 522.594,70.309C522.594,69.421 522.594,69.167 522.625,68.583C523.268,68.551 523.537,68.551 524.072,68.551C525.373,68.551 525.894,68.641 526.446,68.747C526.412,68.595 526.389,68.477 526.389,68.267C526.389,68.071 526.412,67.907 526.446,67.74C525.687,67.815 524.939,67.832 524.18,67.832C523.135,67.832 522.103,67.832 521.06,67.74C521.146,69.21 521.176,71.242 521.176,72.74C521.176,76.015 521.101,76.99 521.012,78.115C522.159,78.071 523.327,78.025 524.476,78.025C525.163,78.025 525.865,78.025 526.553,78.115C526.519,77.968 526.489,77.844 526.489,77.634C526.489,77.427 526.519,77.289 526.553,77.125C524.789,77.303 523.581,77.303 522.625,77.303C522.611,76.901 522.576,75.758 522.576,74.979C522.576,74.334 522.594,73.658 522.611,73.011C522.982,72.997 523.416,72.982 523.815,72.982C524.461,72.982 525.356,73.025 526.133,73.135C526.118,72.965 526.075,72.83 526.075,72.666C526.075,72.456 526.107,72.323 526.133,72.156C524.971,72.292 523.789,72.275 522.611,72.26Z" style="fill:rgb(220,225,214);fill-rule:nonzero;"/>
        <path d="M431.021,76.027C429.856,77.425 428.302,77.578 427.629,77.578C425.512,77.578 423.584,76.027 423.584,72.905C423.584,70.012 425.155,68.269 427.511,68.269C429.033,68.269 430.349,69.062 430.753,69.919L430.897,69.919C430.976,69.227 431.032,69.03 431.257,68.417C430.587,68.119 429.375,67.621 427.572,67.621C423.645,67.621 421.85,70.023 421.85,72.92C421.85,76.016 423.869,78.297 427.33,78.297C428.647,78.297 429.928,77.98 431.032,77.322C431.064,76.767 431.122,76.451 431.196,76.104L431.021,76.027Z" style="fill:rgb(220,225,214);fill-rule:nonzero;"/>
        <path d="M437.886,77.698C435.587,77.698 433.944,75.909 433.944,72.983C433.944,69.588 435.946,68.236 437.932,68.236C438.944,68.236 440.454,68.644 441.261,70.011C441.783,70.897 441.92,72.111 441.92,72.89C441.92,75.969 440.244,77.698 437.886,77.698ZM438.007,67.591C434.35,67.591 432.243,69.801 432.243,72.994C432.243,76.331 434.603,78.342 437.859,78.342C441.409,78.342 443.619,75.957 443.619,72.818C443.619,69.441 441.126,67.591 438.007,67.591Z" style="fill:rgb(220,225,214);fill-rule:nonzero;"/>
        <path d="M516.563,181.577C516.643,181.591 516.714,181.6 516.82,181.672L518.234,179.29C518.34,179.114 518.412,178.962 518.412,178.798C518.412,178.588 518.258,178.303 517.911,178.303C517.482,178.303 517.375,178.69 517.322,178.893L516.563,181.577Z" style="fill:rgb(220,225,214);fill-rule:nonzero;"/>
        <path d="M570.04,183.215C570.028,182.418 570.028,182.236 570.028,181.264C570.028,180.378 570.028,180.125 570.051,179.541C570.696,179.507 570.966,179.507 571.499,179.507C572.802,179.507 573.323,179.599 573.875,179.705C573.841,179.553 573.814,179.435 573.814,179.222C573.814,179.025 573.841,178.861 573.875,178.698C573.113,178.772 572.368,178.787 571.604,178.787C570.563,178.787 569.531,178.787 568.486,178.698C568.576,180.168 568.607,182.197 568.607,183.692C568.607,186.967 568.53,187.941 568.443,189.063C569.591,189.021 570.756,188.978 571.904,188.978C572.589,188.978 573.291,188.978 573.976,189.063C573.947,188.917 573.918,188.794 573.918,188.586C573.918,188.376 573.947,188.241 573.976,188.077C572.218,188.255 571.01,188.255 570.051,188.255C570.04,187.853 570.011,186.711 570.011,185.931C570.011,185.286 570.028,184.606 570.04,183.963C570.414,183.951 570.845,183.934 571.245,183.934C571.887,183.934 572.785,183.979 573.561,184.084C573.544,183.92 573.504,183.785 573.504,183.618C573.504,183.411 573.532,183.271 573.561,183.108C572.393,183.247 571.22,183.227 570.04,183.215Z" style="fill:rgb(220,225,214);fill-rule:nonzero;"/>
        <path d="M561.923,183.813C561.912,182.239 561.912,180.709 561.923,179.414C562.208,179.374 562.55,179.356 562.792,179.356C563.549,179.356 564.399,179.541 564.906,180.019C565.277,180.378 565.413,180.905 565.413,181.485C565.413,183.784 563.416,183.859 561.923,183.813ZM565.653,179.072C564.938,178.727 563.979,178.727 562.847,178.727C561.684,178.727 560.953,178.727 560.372,178.683C560.443,179.762 560.49,180.481 560.49,182.734C560.49,184.849 560.476,186.966 560.372,189.064C560.579,189.02 560.758,188.977 561.161,188.977C561.595,188.977 561.776,189.02 562.026,189.064C561.955,187.611 561.912,186.515 561.923,184.446C562.162,184.46 562.4,184.475 562.64,184.475C563.549,184.475 564.816,184.351 565.608,183.845C566.218,183.453 567.038,182.705 567.038,181.339C567.038,180.335 566.561,179.506 565.653,179.072Z" style="fill:rgb(220,225,214);fill-rule:nonzero;"/>
        <path d="M552.957,188.646C550.658,188.646 549.018,186.86 549.018,183.935C549.018,180.543 551.015,179.193 553,179.193C554.016,179.193 555.52,179.596 556.329,180.963C556.85,181.849 556.984,183.065 556.984,183.842C556.984,186.921 555.31,188.646 552.957,188.646ZM553.075,178.546C549.418,178.546 547.314,180.753 547.314,183.949C547.314,187.28 549.671,189.291 552.928,189.291C556.473,189.291 558.685,186.906 558.685,183.77C558.685,180.393 556.193,178.546 553.075,178.546Z" style="fill:rgb(220,225,214);fill-rule:nonzero;"/>
        <path d="M540.896,183.516C540.896,183.199 540.882,182.149 540.882,181.459C540.882,180.783 540.882,180.092 540.913,179.416C541.105,179.387 541.42,179.344 541.851,179.344C542.94,179.344 544.417,179.569 544.417,181.323C544.417,183.409 542.356,183.501 541.687,183.53C541.33,183.545 541.181,183.545 540.896,183.516ZM543.048,183.844C543.957,183.677 545.968,183.306 545.968,181.157C545.968,180.437 545.774,179.822 545.208,179.359C544.719,178.95 544.167,178.726 542.392,178.726C542.149,178.726 540.93,178.74 540.657,178.74C540.347,178.74 539.926,178.74 539.363,178.683C539.409,180.363 539.449,181.922 539.449,183.32C539.449,185.509 539.417,187.293 539.348,189.066C539.569,189.019 539.735,188.979 540.136,188.979C540.404,188.979 540.749,189.005 541,189.066C540.882,186.666 540.896,185.104 540.896,184.039L541.284,184.039C542.429,185.403 543.52,186.816 544.94,189.066C545.357,189.019 545.703,188.979 546.014,188.979C546.348,188.979 546.584,189.019 546.895,189.066L546.895,188.887C546.713,188.631 543.6,184.701 543.048,183.844Z" style="fill:rgb(220,225,214);fill-rule:nonzero;"/>
        <path d="M528.563,184.896C528.563,186.186 528.636,187.013 529.193,187.758C530.115,189.004 531.685,189.277 532.831,189.277C534.536,189.277 535.486,188.748 536.116,188.089C537.114,187.054 537.188,185.431 537.188,183.979C537.188,181.757 537.247,180.045 537.441,178.681C537.264,178.726 537.114,178.771 536.786,178.771C536.44,178.771 536.28,178.726 536.084,178.681C536.234,179.657 536.297,182.614 536.297,183.181C536.297,183.562 536.28,185.255 536.035,186.274C535.549,188.374 533.515,188.466 533.098,188.466C532.16,188.466 531.19,188.089 530.713,187.488C530.115,186.757 530.057,185.704 530.057,183.817C530.057,183.5 530.057,180.647 530.189,178.681C529.936,178.726 529.655,178.771 529.323,178.771C529.059,178.771 528.76,178.726 528.443,178.681C528.563,180.559 528.563,180.86 528.563,184.896Z" style="fill:rgb(220,225,214);fill-rule:nonzero;"/>
        <path d="M522.638,183.215C522.629,182.418 522.629,182.236 522.629,181.264C522.629,180.378 522.629,180.125 522.654,179.541C523.296,179.507 523.563,179.507 524.104,179.507C525.399,179.507 525.923,179.599 526.473,179.705C526.44,179.553 526.412,179.435 526.412,179.222C526.412,179.025 526.44,178.861 526.473,178.698C525.712,178.772 524.967,178.787 524.205,178.787C523.161,178.787 522.135,178.787 521.084,178.698C521.176,180.168 521.206,182.197 521.206,183.692C521.206,186.967 521.133,187.941 521.043,189.063C522.193,189.021 523.354,188.978 524.501,188.978C525.189,188.978 525.892,188.978 526.579,189.063C526.547,188.917 526.521,188.794 526.521,188.586C526.521,188.376 526.547,188.241 526.579,188.077C524.818,188.255 523.612,188.255 522.654,188.255C522.638,187.853 522.611,186.711 522.611,185.931C522.611,185.286 522.629,184.606 522.638,183.963C523.015,183.951 523.445,183.934 523.849,183.934C524.487,183.934 525.383,183.979 526.159,184.084C526.145,183.92 526.102,183.785 526.102,183.618C526.102,183.411 526.133,183.271 526.159,183.108C524.996,183.247 523.817,183.227 522.638,183.215Z" style="fill:rgb(220,225,214);fill-rule:nonzero;"/>
        <path d="M513.533,188.213C513.533,183.543 513.533,182.524 513.668,178.685C513.4,178.728 513.112,178.773 512.728,178.773C512.353,178.773 512.161,178.728 511.922,178.685C511.951,179.328 512.039,181.547 512.039,183.593C512.039,185.558 512.025,187.148 511.908,189.064C512.713,189.021 513.086,188.978 514.398,188.978C516.024,188.978 516.654,189.038 517.62,189.064C517.59,188.943 517.563,188.797 517.563,188.556C517.563,188.345 517.59,188.195 517.62,188.063C516.934,188.182 515.682,188.244 514.922,188.244C514.549,188.244 514.25,188.244 513.533,188.213Z" style="fill:rgb(220,225,214);fill-rule:nonzero;"/>
        <path d="M501.008,183.215C500.993,182.418 500.993,182.236 500.993,181.264C500.993,180.378 500.993,180.125 501.021,179.541C501.66,179.507 501.934,179.507 502.47,179.507C503.77,179.507 504.29,179.599 504.843,179.705C504.813,179.553 504.782,179.435 504.782,179.222C504.782,179.025 504.813,178.861 504.843,178.698C504.082,178.772 503.335,178.787 502.575,178.787C501.533,178.787 500.498,178.787 499.453,178.698C499.549,180.168 499.577,182.197 499.577,183.692C499.577,186.967 499.496,187.941 499.407,189.063C500.562,189.021 501.724,188.978 502.874,188.978C503.56,188.978 504.265,188.978 504.946,189.063C504.917,188.917 504.889,188.794 504.889,188.586C504.889,188.376 504.917,188.241 504.946,188.077C503.186,188.255 501.98,188.255 501.021,188.255C501.008,187.853 500.977,186.711 500.977,185.931C500.977,185.286 500.993,184.606 501.008,183.963C501.378,183.951 501.813,183.934 502.219,183.934C502.86,183.934 503.752,183.979 504.531,184.084C504.512,183.92 504.466,183.785 504.466,183.618C504.466,183.411 504.497,183.271 504.531,183.108C503.366,183.247 502.188,183.227 501.008,183.215Z" style="fill:rgb(220,225,214);fill-rule:nonzero;"/>
        <path d="M494.621,187.655C493.608,188.375 492.174,188.375 491.534,188.375C490.815,188.375 490.446,188.346 489.935,188.285C489.892,186.801 489.892,186.487 489.892,183.739C489.892,182.358 489.906,180.828 489.967,179.444C490.446,179.401 490.565,179.39 491.275,179.39C492.476,179.39 493.744,179.39 494.782,180.184C496.036,181.125 496.293,182.642 496.293,183.769C496.293,184.969 496.009,186.666 494.621,187.655ZM496.311,179.811C494.92,178.699 493.49,178.699 490.815,178.699C489.998,178.699 489.192,178.683 488.369,178.653C488.459,180.259 488.487,180.828 488.487,183.066C488.487,186.514 488.416,187.552 488.31,189.065C489.161,189.02 489.507,189.005 489.906,189.005C490.294,189.005 492.133,189.065 492.276,189.065C495.266,189.065 497.95,187.386 497.95,183.591C497.95,182.281 497.607,180.843 496.311,179.811Z" style="fill:rgb(220,225,214);fill-rule:nonzero;"/>
        <path d="M478.486,188.213C478.486,183.543 478.486,182.524 478.621,178.685C478.354,178.728 478.069,178.773 477.682,178.773C477.308,178.773 477.117,178.728 476.875,178.685C476.907,179.328 476.996,181.547 476.996,183.593C476.996,185.558 476.982,187.148 476.858,189.064C477.67,189.021 478.037,188.978 479.355,188.978C480.981,188.978 481.605,189.038 482.58,189.064C482.547,188.943 482.518,188.797 482.518,188.556C482.518,188.345 482.547,188.195 482.58,188.063C481.891,188.182 480.639,188.244 479.877,188.244C479.503,188.244 479.202,188.244 478.486,188.213Z" style="fill:rgb(220,225,214);fill-rule:nonzero;"/>
        <path d="M472.603,183.724C472.603,186.663 472.56,187.432 472.455,189.065C472.691,189.022 472.916,188.977 473.241,188.977C473.572,188.977 473.889,189.022 474.17,189.065C474.121,187.941 474.063,186.738 474.063,184.039C474.063,182.257 474.092,180.47 474.185,178.684C473.928,178.743 473.736,178.772 473.316,178.772C472.916,178.772 472.734,178.743 472.496,178.684C472.603,181.428 472.603,181.562 472.603,183.724Z" style="fill:rgb(220,225,214);fill-rule:nonzero;"/>
        <path d="M465.993,183.215C465.976,182.418 465.976,182.236 465.976,181.264C465.976,180.378 465.976,180.125 466.004,179.541C466.648,179.507 466.917,179.507 467.455,179.507C468.752,179.507 469.272,179.599 469.824,179.705C469.794,179.553 469.768,179.435 469.768,179.222C469.768,179.025 469.794,178.861 469.824,178.698C469.065,178.772 468.314,178.787 467.558,178.787C466.514,178.787 465.486,178.787 464.438,178.698C464.528,180.168 464.558,182.197 464.558,183.692C464.558,186.967 464.482,187.941 464.396,189.063C465.544,189.021 466.706,188.978 467.856,188.978C468.542,188.978 469.244,188.978 469.929,189.063C469.899,188.917 469.868,188.794 469.868,188.586C469.868,188.376 469.899,188.241 469.929,188.077C468.171,188.255 466.96,188.255 466.004,188.255C465.993,187.853 465.961,186.711 465.961,185.931C465.961,185.286 465.976,184.606 465.993,183.963C466.36,183.951 466.798,183.934 467.198,183.934C467.84,183.934 468.737,183.979 469.514,184.084C469.497,183.92 469.454,183.785 469.454,183.618C469.454,183.411 469.485,183.271 469.514,183.108C468.349,183.247 467.173,183.227 465.993,183.215Z" style="fill:rgb(220,225,214);fill-rule:nonzero;"/>
        <path d="M461.703,180.585C461.749,180.079 462.018,179.478 462.139,179.253C461.778,179.014 460.764,178.561 459.598,178.561C457.84,178.561 456.286,179.541 456.286,181.471C456.286,182.162 456.524,182.913 457.034,183.335C457.437,183.695 457.626,183.771 459.376,184.501C460.374,184.912 461.227,185.361 461.227,186.575C461.227,187.536 460.584,188.571 459.02,188.571C457.84,188.571 456.959,187.91 456.524,187.012L456.332,187.012C456.315,187.205 456.286,187.651 456.064,188.422C456.838,189.006 457.797,189.245 458.78,189.245C461.436,189.245 462.526,187.458 462.526,185.902C462.526,185.332 462.373,184.535 461.689,183.98C461.168,183.542 460.884,183.439 459.256,182.806C458.492,182.51 457.512,182.102 457.512,180.921C457.512,180.393 457.797,179.196 459.423,179.196C460.794,179.196 461.301,180.019 461.496,180.585L461.703,180.585Z" style="fill:rgb(220,225,214);fill-rule:nonzero;"/>
        <path d="M446.234,181.307L449.141,184.354C449.399,184.609 449.652,184.862 449.902,185.104C450.949,186.079 453.188,188.586 453.648,189.154C453.755,189.141 453.813,189.126 453.888,189.126C453.977,189.126 454.052,189.141 454.173,189.154C454.111,188.091 454.111,186.293 454.111,185.121C454.111,182.961 454.111,180.779 454.364,178.622C454.173,178.669 453.963,178.715 453.724,178.715C453.484,178.715 453.307,178.669 453.143,178.622C453.336,180.798 453.336,182.117 453.336,185.943L453.336,186.503C451.438,184.565 451.111,184.203 448.128,181.038C447.219,180.077 446.858,179.675 446.459,179.205L445.967,178.622C445.828,178.637 445.739,178.653 445.653,178.653C445.578,178.653 445.504,178.637 445.408,178.622L445.408,180.421C445.408,180.964 445.458,183.573 445.458,184.175C445.458,185.736 445.34,188.314 445.268,189.065C445.443,189.02 445.578,188.979 445.847,188.979C446.113,188.979 446.296,189.02 446.471,189.065C446.339,186.738 446.277,185.884 446.234,182.256L446.234,181.307Z" style="fill:rgb(220,225,214);fill-rule:nonzero;"/>
        <path d="M431.015,186.98C429.85,188.372 428.299,188.525 427.629,188.525C425.509,188.525 423.587,186.98 423.587,183.859C423.587,180.962 425.151,179.222 427.508,179.222C429.029,179.222 430.345,180.019 430.746,180.872L430.894,180.872C430.972,180.186 431.028,179.989 431.25,179.373C430.579,179.071 429.371,178.576 427.567,178.576C423.641,178.576 421.852,180.977 421.852,183.873C421.852,186.966 423.865,189.247 427.329,189.247C428.644,189.247 429.925,188.928 431.028,188.272C431.061,187.72 431.118,187.397 431.192,187.052L431.015,186.98Z" style="fill:rgb(220,225,214);fill-rule:nonzero;"/>
        <path d="M437.874,188.646C435.578,188.646 433.936,186.86 433.936,183.935C433.936,180.543 435.938,179.193 437.923,179.193C438.937,179.193 440.446,179.596 441.252,180.963C441.772,181.849 441.905,183.065 441.905,183.842C441.905,186.921 440.236,188.646 437.874,188.646ZM437.998,178.546C434.341,178.546 432.235,180.753 432.235,183.949C432.235,187.28 434.594,189.291 437.848,189.291C441.398,189.291 443.608,186.906 443.608,183.77C443.608,180.393 441.116,178.546 437.998,178.546Z" style="fill:rgb(220,225,214);fill-rule:nonzero;"/>
        <rect x="422.587" y="84.395" width="150.963" height="88.047" style="fill:none;stroke:rgb(220,225,214);stroke-width:0.7px;"/>
        <path d="M517.52,117.902C519.585,115.227 521.346,109.015 518.279,104.564C516.274,101.656 512.991,100.042 509.676,99.283C500.703,97.228 491.425,100.089 483.415,104.297C476.626,107.862 469.753,112.75 465.253,119.257C463.746,121.435 462.46,123.906 461.684,127.014C460.923,130.043 460.633,133.199 461.067,136.307C463.375,152.766 481.063,158.778 494.998,158.312C504.554,158.001 514.211,155.329 522.606,150.547C530.092,146.283 537.413,140.343 542.065,132.784C542.271,132.454 543.924,129.574 544.558,129.988C545.188,130.395 543.43,133.21 543.226,133.539C538.34,141.482 532.014,148.289 524.487,153.56C516.547,159.12 507.366,162.777 497.87,164.101C489.736,165.231 481.101,164.92 473.387,161.765C466.925,159.109 461.261,154.526 458.521,147.733C456.021,141.528 456.625,134.583 458.967,128.426C465.185,112.091 479.553,99.347 495.577,94.206C502.91,91.852 513.112,90.532 519.706,95.733C527.644,101.995 524.221,112.796 517.52,117.902Z" style="fill:rgb(220,225,214);fill-rule:nonzero;"/>
        <path d="M499.358,108.603L501.455,107.072L498.863,107.072L498.059,104.59L497.259,107.072L494.66,107.072L496.764,108.603L495.964,111.08L498.059,109.546L500.158,111.08L499.358,108.603Z" style="fill:rgb(220,225,214);fill-rule:nonzero;"/>
        <path d="M510.131,111.501L512.229,109.97L509.636,109.97L508.834,107.488L508.024,109.97L505.433,109.97L507.539,111.501L506.732,113.984L508.834,112.45L510.931,113.984L510.131,111.501Z" style="fill:rgb(220,225,214);fill-rule:nonzero;"/>
        <path d="M518.013,119.433L520.112,117.903L517.521,117.903L516.713,115.42L515.909,117.903L513.315,117.903L515.412,119.433L514.617,121.916L516.713,120.383L518.813,121.916L518.013,119.433Z" style="fill:rgb(220,225,214);fill-rule:nonzero;"/>
        <path d="M520.896,130.265L522.992,128.732L520.4,128.732L519.596,126.249L518.796,128.732L516.201,128.732L518.294,130.265L517.5,132.748L519.596,131.214L521.695,132.748L520.896,130.265Z" style="fill:rgb(220,225,214);fill-rule:nonzero;"/>
        <path d="M518.005,141.093L520.104,139.565L517.513,139.565L516.706,137.08L515.906,139.565L513.313,139.565L515.409,141.093L514.612,143.572L516.706,142.043L518.807,143.572L518.005,141.093Z" style="fill:rgb(220,225,214);fill-rule:nonzero;"/>
        <path d="M510.126,149.019L512.219,147.485L509.628,147.485L508.823,145.009L508.02,147.485L505.428,147.485L507.531,149.019L506.73,151.501L508.823,149.968L510.923,151.501L510.126,149.019Z" style="fill:rgb(220,225,214);fill-rule:nonzero;"/>
        <path d="M499.358,151.914L501.455,150.383L498.863,150.383L498.059,147.901L497.259,150.383L494.66,150.383L496.764,151.914L495.964,154.397L498.059,152.863L500.158,154.397L499.358,151.914Z" style="fill:rgb(220,225,214);fill-rule:nonzero;"/>
        <path d="M488.591,149.019L490.69,147.485L488.096,147.485L487.293,145.009L486.491,147.485L483.896,147.485L485.996,149.019L485.195,151.501L487.293,149.968L489.391,151.501L488.591,149.019Z" style="fill:rgb(220,225,214);fill-rule:nonzero;"/>
        <path d="M480.708,141.093L482.809,139.562L480.213,139.562L479.411,137.08L478.608,139.562L476.014,139.562L478.113,141.093L477.313,143.572L479.411,142.043L481.508,143.572L480.708,141.093Z" style="fill:rgb(220,225,214);fill-rule:nonzero;"/>
        <path d="M477.825,130.265L479.925,128.735L477.33,128.735L476.525,126.249L475.726,128.735L473.127,128.735L475.23,130.265L474.43,132.748L476.525,131.212L478.625,132.748L477.825,130.265Z" style="fill:rgb(220,225,214);fill-rule:nonzero;"/>
        <path d="M480.703,119.435L482.807,117.904L480.208,117.904L479.406,115.422L478.604,117.904L476.009,117.904L478.111,119.435L477.309,121.915L479.406,120.381L481.504,121.915L480.703,119.435Z" style="fill:rgb(220,225,214);fill-rule:nonzero;"/>
        <path d="M488.582,111.501L490.686,109.97L488.094,109.97L487.287,107.488L486.485,109.97L483.891,109.97L485.99,111.501L485.19,113.984L487.287,112.45L489.389,113.984L488.582,111.501Z" style="fill:rgb(220,225,214);fill-rule:nonzero;"/>
        <path d="M515.416,119.433C512.418,122.989 507.585,126.234 501.646,128.291C497.812,129.625 493.993,130.302 490.507,130.371L493.22,125.121C501.534,125.247 512.223,122.137 515.416,119.433Z" style="fill:rgb(220,225,214);fill-rule:nonzero;"/>
        <path d="M217.041,146.369L217.041,129.36C217.041,125.17 214.847,121.37 210.531,121.37C206.278,121.37 203.766,125.17 203.766,129.36L203.766,146.369L195.905,146.369L195.905,114.54L203.187,114.54L203.766,118.406C205.442,115.185 209.115,114.025 212.142,114.025C215.944,114.025 219.746,115.571 221.551,119.951C224.384,115.442 228.058,114.154 232.181,114.154C241.2,114.154 245.646,119.694 245.646,129.231L245.646,146.369L237.788,146.369L237.788,129.231C237.788,125.042 236.048,121.499 231.795,121.499C227.543,121.499 224.899,125.17 224.899,129.36L224.899,146.369L217.041,146.369Z" style="fill:rgb(220,225,214);fill-rule:nonzero;"/>
        <path d="M161.109,115.157L161.683,118.799C164.112,114.902 167.048,114.326 170.242,114.326C173.5,114.326 176.63,115.605 178.355,117.329L174.84,124.101C173.244,122.76 171.774,122.057 169.22,122.057C165.131,122.057 161.683,124.229 161.683,130.043L161.683,146.651L153.89,146.651L153.89,115.157L161.109,115.157Z" style="fill:rgb(220,225,214);fill-rule:nonzero;"/>
        <path d="M86.09,133.828C86.668,137.716 90.105,140.468 95.597,140.372C98.472,140.321 102.222,139.17 103.977,137.286L109.045,142.118C105.784,145.624 100.385,147.38 95.594,147.464C84.733,147.654 78.166,141.06 77.99,130.966C77.823,121.386 84.216,114.373 94.437,114.195C104.977,114.011 111.669,120.412 110.682,133.399L86.09,133.828ZM103.097,127.078C102.514,122.999 99.285,121.011 94.814,121.089C90.599,121.163 87.184,123.267 86.106,127.375L103.097,127.078Z" style="fill:rgb(220,225,214);fill-rule:nonzero;"/>
        <path d="M123.614,115.157L123.614,131.639C123.614,136.431 126.234,140.073 131.217,140.073C136.007,140.073 139.267,136.048 139.267,131.256L139.267,115.157L146.996,115.157L146.996,146.716L140.032,146.716L139.521,142.436C136.264,145.63 133.261,147.164 128.852,147.164C121.314,147.164 115.821,141.478 115.821,131.703L115.821,115.157L123.614,115.157Z" style="fill:rgb(220,225,214);fill-rule:nonzero;"/>
        <path d="M276.784,114.822L284.155,114.822L284.155,145.884L276.912,145.884L276.533,141.349C274.768,145 269.917,146.766 266.452,146.827C257.252,146.892 250.447,141.22 250.447,130.32C250.447,119.608 257.568,114.001 266.642,114.065C270.799,114.065 274.768,116.018 276.533,119.106L276.784,114.822ZM258.135,130.32C258.135,136.243 262.229,139.771 267.333,139.771C279.431,139.771 279.431,120.933 267.333,120.933C262.229,120.933 258.135,124.398 258.135,130.32Z" style="fill:rgb(220,225,214);fill-rule:nonzero;"/>
        <path d="M316.017,111.187L321.892,115.625L318.302,120.193C320.781,122.998 321.695,126.197 321.695,129.72C321.695,133.703 320.194,139.314 314.909,141.729C320.26,144.404 321.565,148.255 321.565,152.368C321.565,161.243 314.779,166.724 305.445,166.724C296.114,166.724 289.128,161.046 289.128,152.368L297.025,152.368C297.025,156.545 300.878,159.285 305.445,159.285C310.012,159.285 313.602,156.806 313.602,152.368C313.602,147.929 309.425,145.906 305.445,145.906C295.394,145.906 289.128,139.771 289.128,129.72C289.128,119.672 296.438,113.407 305.445,113.407C307.99,113.407 310.602,113.73 312.821,115.232L316.017,111.187ZM297.025,129.72C297.025,135.335 300.811,138.661 305.445,138.661C310.012,138.661 313.798,135.268 313.798,129.72C313.798,124.173 310.012,120.649 305.445,120.649C300.811,120.649 297.025,124.109 297.025,129.72Z" style="fill:rgb(220,225,214);fill-rule:nonzero;"/>
        <path d="M333.593,133.376C334.116,137.356 337.573,140.229 343.187,140.229C346.123,140.229 349.973,139.118 351.801,137.227L356.892,142.25C353.499,145.776 347.951,147.471 343.057,147.471C331.962,147.471 325.37,140.619 325.37,130.307C325.37,120.519 332.027,113.47 342.47,113.47C353.235,113.47 359.958,120.128 358.72,133.376L333.593,133.376ZM351.084,126.784C350.56,122.607 347.298,120.519 342.729,120.519C338.423,120.519 334.897,122.607 333.723,126.784L351.084,126.784Z" style="fill:rgb(220,225,214);fill-rule:nonzero;"/>
        <path d="M385.89,122.998C383.605,120.846 380.993,120.128 377.927,120.128C374.141,120.128 372.053,121.303 372.053,123.325C372.053,125.413 373.947,126.588 378.057,126.851C384.126,127.241 391.828,128.612 391.828,137.16C391.828,142.838 387.195,147.734 377.994,147.734C372.903,147.734 367.813,146.884 363.112,141.99L367.028,136.312C369.313,138.857 374.534,140.749 378.124,140.816C381.126,140.879 383.932,139.314 383.932,136.966C383.932,134.747 382.104,133.833 377.536,133.573C371.465,133.116 364.222,130.895 364.222,123.585C364.222,116.146 371.922,113.536 377.797,113.536C382.821,113.536 386.607,114.514 390.327,117.777L385.89,122.998Z" style="fill:rgb(220,225,214);fill-rule:nonzero;"/>
        <path d="M217.041,146.369L217.041,129.36C217.041,125.17 214.847,121.37 210.531,121.37C206.278,121.37 203.766,125.17 203.766,129.36L203.766,146.369L195.905,146.369L195.905,114.54L203.187,114.54L203.766,118.406C205.442,115.185 209.115,114.025 212.142,114.025C215.944,114.025 219.746,115.571 221.551,119.951C224.384,115.442 228.058,114.154 232.181,114.154C241.2,114.154 245.646,119.694 245.646,129.231L245.646,146.369L237.788,146.369L237.788,129.231C237.788,125.042 236.048,121.499 231.795,121.499C227.543,121.499 224.899,125.17 224.899,129.36L224.899,146.369L217.041,146.369Z" style="fill:rgb(220,225,214);fill-rule:nonzero;"/>
        <rect x="181.217" y="114.563" width="7.963" height="31.989" style="fill:rgb(220,225,214);fill-rule:nonzero;"/>
        <path d="M184.922,109.953C187.434,109.953 189.471,107.811 189.471,105.169C189.471,102.527 187.434,100.385 184.922,100.385C182.41,100.385 180.373,102.527 180.373,105.169C180.373,107.811 182.41,109.953 184.922,109.953Z" style="fill:rgb(220,225,214);fill-rule:nonzero;"/>
    </g>
</svg>
