<?xml version="1.0" encoding="UTF-8" standalone="no"?>
<!DOCTYPE svg PUBLIC "-//W3C//DTD SVG 1.1//EN" "http://www.w3.org/Graphics/SVG/1.1/DTD/svg11.dtd">
<svg width="100%" height="100%" viewBox="0 0 758 208" version="1.1" xmlns="http://www.w3.org/2000/svg" xmlns:xlink="http://www.w3.org/1999/xlink" xml:space="preserve" xmlns:serif="http://www.serif.com/" style="fill-rule:evenodd;clip-rule:evenodd;stroke-linejoin:round;stroke-miterlimit:2;">
    <g id="Artboard1" transform="matrix(1.75384,0,0,1,0,0)">
        <rect x="0" y="0" width="432" height="208" style="fill:none;"/>
        <clipPath id="_clip1">
            <rect x="0" y="0" width="432" height="208"/>
        </clipPath>
        <g clip-path="url(#_clip1)">
            <g transform="matrix(0.474121,0,0,0.831531,-28.2092,-169.022)">
                <g transform="matrix(1,0,0,1,82.9375,399.986)">
                    <path d="M0,-62.746L0,-40.485L49.89,-40.485L49.89,-19.578L0,-19.578L0,20.907L-23.005,20.907L-23.005,-83.653L56.613,-83.653L56.613,-62.746L0,-62.746Z" style="fill:rgb(220,225,214);fill-rule:nonzero;"/>
                </g>
                <g transform="matrix(1,0,0,1,0,-30.774)">
                    <rect x="164.381" y="347.107" width="23.005" height="104.56" style="fill:rgb(220,225,214);"/>
                </g>
                <g transform="matrix(1,0,0,1,219.708,316.334)">
                    <path d="M0,104.56L0,0L23.005,0L23.005,83.64L75.129,83.64L75.129,104.56L0,104.56Z" style="fill:rgb(220,225,214);fill-rule:nonzero;"/>
                </g>
                <g transform="matrix(1,0,0,1,398.411,316.334)">
                    <path d="M0,104.56L0,36.301L-29.43,80.958L-30.026,80.958L-59.152,36.748L-59.152,104.56L-81.704,104.56L-81.704,0L-56.911,0L-29.43,44.21L-1.943,0L22.85,0L22.85,104.56L0,104.56Z" style="fill:rgb(220,225,214);fill-rule:nonzero;"/>
                </g>
                <g transform="matrix(1,0,0,1,497.738,393.258)">
                    <path d="M0,-50.033L-13.893,-16.128L13.892,-16.128L0,-50.033ZM31.67,27.636L22.112,4.184L-22.105,4.184L-31.665,27.636L-55.117,27.636L-10.304,-77.669L10.9,-77.669L55.719,27.636L31.67,27.636Z" style="fill:rgb(220,225,214);fill-rule:nonzero;"/>
                </g>
                <g transform="matrix(1,0,0,1,647.103,368.613)">
                    <path d="M0,0C0,-18.523 -12.701,-31.522 -31.516,-31.522L-49.288,-31.522L-49.288,31.521L-31.516,31.521C-12.701,31.521 0,18.821 0,0.298L0,0ZM-31.516,52.28L-72.293,52.28L-72.293,-52.28L-31.516,-52.28C1.341,-52.28 24.048,-29.722 24.048,-0.298L24.048,0C24.048,29.424 1.341,52.28 -31.516,52.28" style="fill:rgb(220,225,214);fill-rule:nonzero;"/>
                </g>
                <g transform="matrix(1,0,0,1,761.607,385.201)">
                    <path d="M0,-33.174C0,-43.032 -6.878,-48.109 -18.076,-48.109L-40.932,-48.109L-40.932,-18.077L-17.629,-18.077C-6.425,-18.077 0,-24.061 0,-32.864L0,-33.174ZM-0.446,35.693L-22.855,2.234L-40.932,2.234L-40.932,35.693L-63.932,35.693L-63.932,-68.867L-16.133,-68.867C8.511,-68.867 23.297,-55.869 23.297,-34.366L23.297,-34.068C23.297,-17.183 14.19,-6.581 0.895,-1.652L26.432,35.693L-0.446,35.693Z" style="fill:rgb(220,225,214);fill-rule:nonzero;"/>
                </g>
                <g transform="matrix(1,0,0,1,0,-30.774)">
                    <rect x="812.863" y="347.107" width="23.005" height="104.56" style="fill:rgb(220,225,214);"/>
                </g>
                <g transform="matrix(1,0,0,1,940.453,368.613)">
                    <path d="M0,0C0,-18.523 -12.694,-31.522 -31.516,-31.522L-49.294,-31.522L-49.294,31.521L-31.516,31.521C-12.694,31.521 0,18.821 0,0.298L0,0ZM-31.516,52.28L-72.293,52.28L-72.293,-52.28L-31.516,-52.28C1.347,-52.28 24.048,-29.722 24.048,-0.298L24.048,0C24.048,29.424 1.347,52.28 -31.516,52.28" style="fill:rgb(220,225,214);fill-rule:nonzero;"/>
                </g>
                <g transform="matrix(1,0,0,1,59.498,259.758)">
                    <path d="M0,-29.635L14.538,-29.635L14.538,-27.114L2.719,-27.114L2.719,-16.822L11.372,-16.822L11.372,-14.339L2.719,-14.339L2.719,0L0,0L0,-29.635Z" style="fill:rgb(220,225,214);fill-rule:nonzero;"/>
                </g>
                <g transform="matrix(1,0,0,1,90.4736,259.758)">
                    <path d="M0,-29.635L14.699,-29.635L14.699,-27.114L2.725,-27.114L2.725,-16.934L11.54,-16.934L11.54,-14.451L2.725,-14.451L2.725,-2.483L15.42,-2.483L15.42,0L0,0L0,-29.635Z" style="fill:rgb(220,225,214);fill-rule:nonzero;"/>
                </g>
                <g transform="matrix(1,0,0,1,120.692,236.492)">
                    <path d="M0,16.822L2.359,15.742C3.762,19.069 6.009,21.304 9.529,21.304C13.216,21.304 15.494,19.218 15.494,16.139C15.494,12.415 12.453,10.887 9.212,9.286C5.444,7.449 1.36,5.561 1.36,0.198C1.36,-3.973 4.681,-6.928 9.088,-6.928C13.694,-6.928 16.301,-4.048 17.661,-0.77L15.295,0.322C14.252,-2.161 12.378,-4.495 9.051,-4.495C6.084,-4.495 4.042,-2.571 4.042,0.161C4.042,3.836 7.045,5.4 10.255,7.002C14.054,8.851 18.182,10.776 18.182,16.102C18.182,20.385 14.774,23.75 9.529,23.75C4.805,23.75 1.763,21.105 0,16.822" style="fill:rgb(220,225,214);fill-rule:nonzero;"/>
                </g>
                <g transform="matrix(1,0,0,1,161.432,257.237)">
                    <path d="M0,-24.593L-7.772,-24.593L-7.772,-27.114L10.497,-27.114L10.497,-24.593L2.725,-24.593L2.725,2.521L0,2.521L0,-24.593Z" style="fill:rgb(220,225,214);fill-rule:nonzero;"/>
                </g>
                <g transform="matrix(1,0,0,1,0,-278.119)">
                    <rect x="188.479" y="508.242" width="2.725" height="29.635" style="fill:rgb(220,225,214);"/>
                </g>
                <g transform="matrix(1,0,0,1,207.722,259.882)">
                    <path d="M0,-29.759L2.688,-29.759L7.374,-13.296C8.38,-9.771 9.138,-6.89 9.895,-4.01L9.981,-4.01C10.739,-6.927 11.54,-9.771 12.539,-13.222L17.188,-29.759L19.752,-29.759L11.136,0L8.616,0L0,-29.759Z" style="fill:rgb(220,225,214);fill-rule:nonzero;"/>
                </g>
                <g transform="matrix(1,0,0,1,252.329,246.424)">
                    <path d="M0,-3.091C-1.043,-6.655 -1.844,-9.534 -2.607,-12.415L-2.682,-12.415C-3.445,-9.497 -4.246,-6.655 -5.252,-3.128L-6.648,1.763L1.365,1.763L0,-3.091ZM-9.932,13.334L-12.502,13.334L-3.806,-16.425L-1.322,-16.425L7.374,13.334L4.643,13.334L2.042,4.159L-7.331,4.159L-9.932,13.334Z" style="fill:rgb(220,225,214);fill-rule:nonzero;"/>
                </g>
                <g transform="matrix(1,0,0,1,276.11,259.758)">
                    <path d="M0,-29.635L2.725,-29.635L2.725,-2.483L14.618,-2.483L14.618,0L0,0L0,-29.635Z" style="fill:rgb(220,225,214);fill-rule:nonzero;"/>
                </g>
                <g transform="matrix(1,0,0,1,0,-278.119)">
                    <rect x="325.578" y="508.242" width="2.725" height="29.635" style="fill:rgb(220,225,214);"/>
                </g>
                <g transform="matrix(1,0,0,1,346.789,259.758)">
                    <path d="M0,-29.635L3.371,-29.635L13.259,-10.416C14.302,-8.405 14.904,-7.163 15.904,-5.165L15.984,-5.165L15.984,-29.635L18.468,-29.635L18.468,0L15.947,0L5.494,-20.187C4.327,-22.434 3.73,-23.552 2.563,-25.997L2.489,-25.997L2.489,0L0,0L0,-29.635Z" style="fill:rgb(220,225,214);fill-rule:nonzero;"/>
                </g>
                <g transform="matrix(1,0,0,1,389.416,257.237)">
                    <path d="M0,-24.593L-7.771,-24.593L-7.771,-27.114L10.497,-27.114L10.497,-24.593L2.726,-24.593L2.726,2.521L0,2.521L0,-24.593Z" style="fill:rgb(220,225,214);fill-rule:nonzero;"/>
                </g>
                <g transform="matrix(1,0,0,1,416.345,259.758)">
                    <path d="M0,-29.635L14.699,-29.635L14.699,-27.114L2.725,-27.114L2.725,-16.934L11.54,-16.934L11.54,-14.451L2.725,-14.451L2.725,-2.483L15.419,-2.483L15.419,0L0,0L0,-29.635Z" style="fill:rgb(220,225,214);fill-rule:nonzero;"/>
                </g>
                <g transform="matrix(1,0,0,1,456.395,245.58)">
                    <path d="M0,-1.279C4.159,-1.279 6.282,-2.881 6.282,-7.288C6.282,-11.372 4.203,-12.937 -0.043,-12.937L-5.332,-12.937L-5.332,-1.279L0,-1.279ZM-8.014,-15.457L0.155,-15.457C5.761,-15.457 8.97,-12.862 8.97,-7.325C8.97,-2.359 6.208,-0.075 3.116,0.682L9.249,14.178L6.487,14.178L0.478,1.08L-5.332,1.08L-5.332,14.178L-8.014,14.178L-8.014,-15.457Z" style="fill:rgb(220,225,214);fill-rule:nonzero;"/>
                </g>
                <g transform="matrix(1,0,0,1,482.74,259.758)">
                    <path d="M0,-29.635L3.364,-29.635L13.26,-10.416C14.302,-8.405 14.899,-7.163 15.904,-5.165L15.979,-5.165L15.979,-29.635L18.462,-29.635L18.462,0L15.941,0L5.487,-20.187C4.32,-22.434 3.725,-23.552 2.564,-25.997L2.483,-25.997L2.483,0L0,0L0,-29.635Z" style="fill:rgb(220,225,214);fill-rule:nonzero;"/>
                </g>
                <g transform="matrix(1,0,0,1,530.11,246.424)">
                    <path d="M0,-3.091C-1.043,-6.655 -1.844,-9.534 -2.602,-12.415L-2.689,-12.415C-3.445,-9.497 -4.246,-6.655 -5.245,-3.128L-6.648,1.763L1.359,1.763L0,-3.091ZM-9.939,13.334L-12.496,13.334L-3.806,-16.425L-1.322,-16.425L7.368,13.334L4.649,13.334L2.042,4.159L-7.331,4.159L-9.939,13.334Z" style="fill:rgb(220,225,214);fill-rule:nonzero;"/>
                </g>
                <g transform="matrix(1,0,0,1,551.93,245.034)">
                    <path d="M0,-0.174C0,-9.907 4.047,-15.469 10.379,-15.469C15.705,-15.469 18.225,-11.633 19.306,-6.307L16.785,-5.823C15.823,-10.429 14.022,-12.986 10.292,-12.986C5.487,-12.986 2.725,-8.07 2.725,-0.211C2.725,8.082 5.524,12.8 10.379,12.8C14.06,12.8 16.064,10.404 17.183,5.314L19.628,5.711C18.467,11.36 15.543,15.295 10.336,15.295C3.967,15.295 0,9.882 0,-0.174" style="fill:rgb(220,225,214);fill-rule:nonzero;"/>
                </g>
                <g transform="matrix(1,0,0,1,0,-278.119)">
                    <rect x="588.442" y="508.242" width="2.731" height="29.635" style="fill:rgb(220,225,214);"/>
                </g>
                <g transform="matrix(1,0,0,1,626.742,244.947)">
                    <path d="M0,0C0,-8.182 -3.004,-12.899 -7.685,-12.899C-12.414,-12.899 -15.456,-8.182 -15.456,0C-15.456,8.169 -12.414,12.887 -7.685,12.887C-3.004,12.887 0,8.169 0,0M-18.187,0C-18.187,-9.82 -13.854,-15.382 -7.685,-15.382C-1.558,-15.382 2.769,-9.82 2.769,0C2.769,9.808 -1.558,15.382 -7.685,15.382C-13.854,15.382 -18.187,9.808 -18.187,0" style="fill:rgb(220,225,214);fill-rule:nonzero;"/>
                </g>
                <g transform="matrix(1,0,0,1,646.769,259.758)">
                    <path d="M0,-29.635L3.364,-29.635L13.259,-10.416C14.302,-8.405 14.897,-7.163 15.903,-5.165L15.978,-5.165L15.978,-29.635L18.461,-29.635L18.461,0L15.94,0L5.487,-20.187C4.32,-22.434 3.725,-23.552 2.563,-25.997L2.482,-25.997L2.482,0L0,0L0,-29.635Z" style="fill:rgb(220,225,214);fill-rule:nonzero;"/>
                </g>
                <g transform="matrix(1,0,0,1,694.138,246.424)">
                    <path d="M0,-3.091C-1.042,-6.655 -1.843,-9.534 -2.601,-12.415L-2.688,-12.415C-3.444,-9.497 -4.245,-6.655 -5.245,-3.128L-6.648,1.763L1.36,1.763L0,-3.091ZM-9.939,13.334L-12.495,13.334L-3.805,-16.425L-1.321,-16.425L7.368,13.334L4.649,13.334L2.042,4.159L-7.331,4.159L-9.939,13.334Z" style="fill:rgb(220,225,214);fill-rule:nonzero;"/>
                </g>
                <g transform="matrix(1,0,0,1,717.919,259.758)">
                    <path d="M0,-29.635L2.726,-29.635L2.726,-2.483L14.625,-2.483L14.625,0L0,0L0,-29.635Z" style="fill:rgb(220,225,214);fill-rule:nonzero;"/>
                </g>
                <g transform="matrix(1,0,0,1,773.799,232.606)">
                    <path d="M0,24.669C6.164,24.669 9.169,20.907 9.169,12.292C9.169,3.886 6.164,0.038 -0.043,0.038L-3.929,0.038L-3.929,24.669L0,24.669ZM-6.654,-2.483L-0.446,-2.483C7.847,-2.483 11.932,2.124 11.932,12.292C11.932,22.471 7.729,27.152 -0.446,27.152L-6.654,27.152L-6.654,-2.483Z" style="fill:rgb(220,225,214);fill-rule:nonzero;"/>
                </g>
                <g transform="matrix(1,0,0,1,802.969,259.758)">
                    <path d="M0,-29.635L14.705,-29.635L14.705,-27.114L2.725,-27.114L2.725,-16.934L11.539,-16.934L11.539,-14.451L2.725,-14.451L2.725,-2.483L15.426,-2.483L15.426,0L0,0L0,-29.635Z" style="fill:rgb(220,225,214);fill-rule:nonzero;"/>
                </g>
                <g transform="matrix(1,0,0,1,852.033,245.034)">
                    <path d="M0,-0.174C0,-9.907 4.047,-15.469 10.373,-15.469C15.705,-15.469 18.231,-11.633 19.311,-6.307L16.785,-5.823C15.822,-10.429 14.022,-12.986 10.298,-12.986C5.493,-12.986 2.725,-8.07 2.725,-0.211C2.725,8.082 5.53,12.8 10.373,12.8C14.06,12.8 16.064,10.404 17.188,5.314L19.628,5.711C18.467,11.36 15.543,15.295 10.335,15.295C3.967,15.295 0,9.882 0,-0.174" style="fill:rgb(220,225,214);fill-rule:nonzero;"/>
                </g>
                <g transform="matrix(1,0,0,1,0,-278.119)">
                    <rect x="888.552" y="508.242" width="2.719" height="29.635" style="fill:rgb(220,225,214);"/>
                </g>
                <g transform="matrix(1,0,0,1,909.763,259.758)">
                    <path d="M0,-29.635L3.371,-29.635L13.26,-10.416C14.303,-8.405 14.904,-7.163 15.904,-5.165L15.984,-5.165L15.984,-29.635L18.468,-29.635L18.468,0L15.947,0L5.494,-20.187C4.327,-22.434 3.731,-23.552 2.563,-25.997L2.489,-25.997L2.489,0L0,0L0,-29.635Z" style="fill:rgb(220,225,214);fill-rule:nonzero;"/>
                </g>
                <g transform="matrix(1,0,0,1,946.611,259.758)">
                    <path d="M0,-29.635L14.705,-29.635L14.705,-27.114L2.725,-27.114L2.725,-16.934L11.539,-16.934L11.539,-14.451L2.725,-14.451L2.725,-2.483L15.426,-2.483L15.426,0L0,0L0,-29.635Z" style="fill:rgb(220,225,214);fill-rule:nonzero;"/>
                </g>
            </g>
        </g>
    </g>
</svg>
