<?xml version="1.0" encoding="utf-8"?>
<!-- Generator: Adobe Illustrator 22.0.1, SVG Export Plug-In . SVG Version: 6.00 Build 0)  -->
<svg version="1.1" id="Capa_1" xmlns="http://www.w3.org/2000/svg" xmlns:xlink="http://www.w3.org/1999/xlink" x="0px" y="0px"
	 viewBox="0 0 481.8 135" style="enable-background:new 0 0 481.8 135;" xml:space="preserve">
<style type="text/css">
	.st0{fill:#DCE1D6;}
</style>
<g transform="matrix(1.3587,-1.67516e-47,0,0.831612,1778.85,399.02)">
	<path class="st0" d="M-1227.9-464.8v132.9h-81.3v-132.9H-1227.9z M-1243-420.1l-1.6,8.4l-5.4,0.1l4.4,5.1l-1.6,8.2l4.2-5l4.3,4.9
		l-1.6-8.2l4.3-5.2l-5.3,0.1L-1243-420.1z M-1251.5-400.9l-1.6,8.4l-5.4,0.1l4.4,5.1l-1.6,8.2l4.2-5l4.3,4.9l-1.6-8.2l4.3-5.2
		l-5.3,0.1L-1251.5-400.9z M-1260-420.1l-1.6,8.4l-5.4,0.1l4.4,5.1l-1.6,8.2l4.2-5l4.3,4.9l-1.6-8.2l4.3-5.2l-5.3,0.1L-1260-420.1z
		 M-1293.9-420.1l-1.6,8.4l-5.4,0.1l4.4,5.1l-1.6,8.2l4.2-5l4.3,4.9l-1.6-8.2l4.3-5.2l-5.3,0.1L-1293.9-420.1z M-1285.5-400.9
		l-1.6,8.4l-5.4,0.1l4.4,5.1l-1.6,8.2l4.2-5l4.3,4.9l-1.6-8.2l4.3-5.2l-5.3,0.1L-1285.5-400.9z M-1277-420.1l-1.6,8.4l-5.4,0.1
		l4.4,5.1l-1.6,8.2l4.2-5l4.3,4.9l-1.6-8.2l4.3-5.2l-5.3,0.1L-1277-420.1z M-1268.6-400.9l-1.6,8.4l-5.4,0.1l4.4,5.1l-1.6,8.2l4.2-5
		l4.3,4.9l-1.6-8.2l4.3-5.2l-5.3,0.1L-1268.6-400.9z M-1216.9-365.3l0.9-3.4l2.1,1.4l-0.9,3.4L-1216.9-365.3z M-1212.7-382.6
		l-0.8,3.4l-2.1-1.4l0.9-3.4L-1212.7-382.6z M-1147.5-353.6l1.3-5.2l3.2,2.1l-1.3,5.2L-1147.5-353.6z M-1193.8-404.2l-3,12.1
		l-7.4-4.9l3-12L-1193.8-404.2z M-1188.7-424.8l-1.3,5.2l-3.2-2.1l1.3-5.2L-1188.7-424.8z M-1190.4-418l-1.7,6.9l-4.2-2.8l1.7-6.9
		L-1190.4-418z M-1193.4-405.9l-2.1-1.4l0.9-3.5l2.1,1.4L-1193.4-405.9z M-1162.1-349.2l0.9-3.5l2.1,1.4l-0.9,3.4L-1162.1-349.2z
		 M-1156-349.1l1.3-5.2l3.2,2.1l-1.3,5.2L-1156-349.1z M-1201-414.9l-0.8,3.4l-2.1-1.4l0.9-3.4L-1201-414.9z M-1206.3-388.4
		l-0.9,3.4l-2.1-1.4l0.8-3.5L-1206.3-388.4z M-1203.6-394.6l6.3,4.2l-2.6,10.3l-6.3-4.2L-1203.6-394.6z M-1206.1-374.3l1.7-6.9
		l4.2,2.8l-1.7,6.9L-1206.1-374.3z M-1209.7-384.6l4.2,2.8l-1.7,6.9l-4.2-2.8L-1209.7-384.6z M-1215.7-370.5l1.7-6.9l4.2,2.8
		l-1.7,6.9L-1215.7-370.5z M-1177.9-339.6l0.9-3.4l2.1,1.4l-0.8,3.5L-1177.9-339.6z M-1205.3-367.7l0.8-3.4l2.1,1.4l-0.9,3.4
		L-1205.3-367.7z M-1196.2-369.7l0.8-3.4l2.1,1.4l-0.9,3.4L-1196.2-369.7z M-1171.1-357.2l2.1,1.4l-0.9,3.4l-2.1-1.4L-1171.1-357.2z
		 M-1162.9-375.7l4.7-18.9l11.6,7.6l-4.7,18.9L-1162.9-375.7z M-1163.3-374l9.5,6.3l-3.8,15.5l-9.5-6.3L-1163.3-374z M-1169.7-348.2
		l2.1-8.6l5.3,3.5l-2.1,8.6L-1169.7-348.2z M-1174.5-343.4l1.3-5.2l3.2,2.1l-1.3,5.2L-1174.5-343.4z M-1182.8-334.8l1.3-5.2l3.2,2.1
		l-1.3,5.2L-1182.8-334.8z M-1152.8-367.1l6.3,4.2l-2.5,10.3l-6.3-4.2L-1152.8-367.1z M-1149.2-366.7l1.7-6.9l4.2,2.8l-1.7,6.9
		L-1149.2-366.7z M-1149.3-390.8l-3.2-2.1l1.3-5.2l3.2,2.1L-1149.3-390.8z M-1157.8-396.4l1.7-6.9l4.2,2.8l-1.7,6.9L-1157.8-396.4z
		 M-1167.4-416.8l-14.8-9.7l6-24.1l14.8,9.7L-1167.4-416.8z M-1166.4-416.1l1.3-5.2l3.2,2.1l-1.3,5.2L-1166.4-416.1z M-1182-432.4
		l-1.3,5.2l-3.2-2.1l1.3-5.2L-1182-432.4z M-1178.5-446.2l-0.8,3.4l-2.1-1.4l0.9-3.4L-1178.5-446.2z M-1163.1-464l-0.9,3.4l-2.1-1.4
		l0.9-3.4L-1163.1-464z M-1167.1-462.7l-1.3,5.2l-3.2-2.1l1.3-5.2L-1167.1-462.7z M-1179.8-441l-1.7,6.9l-4.2-2.8l1.7-6.9
		L-1179.8-441z M-1162.1-443.3l-7.4-4.9l3-12l7.4,4.9L-1162.1-443.3z M-1168.8-455.8l-1.7,6.9l-4.2-2.8l1.7-6.9L-1168.8-455.8z
		 M-1163.8-426.4l2.1,1.4l-0.9,3.4l-2.1-1.4L-1163.8-426.4z M-1161.1-412.6l1.7-6.9l4.2,2.8l-1.7,6.9L-1161.1-412.6z M-1156.3-407.4
		l-12.3,49.9l-30.6-20.2l12.4-49.9L-1156.3-407.4z M-1171.5-388.8l2.6,1.7l0.3-1.1l-2.6-1.7l1-4.3l-0.7-0.5l-1.1,4.3l-2.6-1.7
		l-0.3,1.1l2.6,1.7l-1,4.3l0.7,0.5L-1171.5-388.8z M-1143.9-363.2l2.1,1.4l-0.9,3.4l-2.1-1.4L-1143.9-363.2z M-1126-437v2.2h-6.1
		v7.5h-1.4v-22h8.1v2.1h-6.7v10.3H-1126z M-1115.3-449.4v22.1h-1.5v-22.1H-1115.3z M-1098-429.4v2.1h-7.8v-22h1.4v20H-1098z
		 M-1088.3-441.9v14.6h-1.4v-22.3h0.2l6.3,12.8l6.2-12.8h0.2v22.3h-1.4v-14.6c0-1,0-2.5,0-2.5s-0.5,1.4-0.9,2.3l-4.1,8.4h-0.2
		l-4-8.4c-0.4-0.9-1-2.3-1-2.3S-1088.3-443-1088.3-441.9z M-1054.1-435.6v8.3h-2.7v-22.3h0.2l6.7,11.9l6.6-11.9h0.2v22.3h-2.7v-8.3
		c0-1.5,0.1-3.9,0.1-3.9s-0.8,2-1.5,3.1l-2.7,4.9h-0.2l-2.7-4.9c-0.6-1.2-1.5-3.1-1.5-3.1S-1054.1-437-1054.1-435.6z M-1032.3-429.8
		l-0.6,2.5h-2.7l5.9-22.3h0.2l6.2,22.3h-2.9l-0.6-2.5H-1032.3z M-1030.4-437.4l-1,3.8h3.5l-1-3.8c-0.4-1.6-0.8-4-0.8-4
		S-1030-439-1030.4-437.4z M-1004.5-438.3c0,6.5-2.9,11-7.1,11h-4.1v-22.1h4.1C-1007.5-449.3-1004.5-444.8-1004.5-438.3z
		 M-1013-431.3h1.2c3,0,4.4-2.9,4.4-7c0-4.1-1.4-7-4.4-7h-1.2V-431.3z M-993.7-432.8v5.5h-2.8v-22h3.7c3.8,0,6,2.9,6,8.3
		c0,3.4-0.9,5.6-2.6,6.8l2.8,6.9h-3.2l-2.2-5.6c-0.3,0.1-0.5,0.1-0.8,0.1H-993.7z M-993.7-445.3v8.6h0.9c2.3,0,3.2-1.2,3.2-4.3
		c0-3.1-1-4.4-3.2-4.4H-993.7z M-975.8-449.3v22.1h-2.8v-22.1H-975.8z M-963.1-449.3c4.2,0,7.1,4.5,7.1,11c0,6.5-2.9,11-7.1,11h-4.1
		v-22.1H-963.1z M-963.2-431.3c3,0,4.4-2.9,4.4-7c0-4.1-1.4-7-4.4-7h-1.2v14.1H-963.2z M-1126.5-408.7c2.2,0,3.7,2.6,3.7,5.9v0
		c0,3.3-1.6,6-3.8,6c-2.2,0-3.7-2.6-3.7-5.9v0C-1130.2-406-1128.7-408.7-1126.5-408.7z M-1124.4-402.7L-1124.4-402.7
		c0-2-0.9-3.7-2.1-3.7s-2.1,1.6-2.1,3.6v0c0,2,0.9,3.6,2.1,3.6C-1125.2-399.1-1124.4-400.7-1124.4-402.7z M-1116-409v2.2h-1.6v-2.2
		H-1116z M-1116.1-396.9h-1.5v-8.8h1.5V-396.9z M-1121.3-396.9v-6.7h-0.6v-2.1h0.6v-0.6c0-1,0.2-1.7,0.4-2.1
		c0.3-0.5,0.7-0.7,1.2-0.7c0.5,0,0.8,0.1,1.1,0.3v2.1c-0.2-0.1-0.4-0.2-0.7-0.2c-0.4,0-0.6,0.3-0.6,1v0.3h1.2v2h-1.2v6.7H-1121.3z
		 M-1112.1-396.7c-1.6,0-2.8-2-2.8-4.6v0c0-2.5,1.2-4.6,2.8-4.6c1,0,1.7,0.6,2.2,1.5l-0.9,1.6c-0.3-0.6-0.7-1-1.2-1
		c-0.8,0-1.3,1.1-1.3,2.4v0c0,1.4,0.5,2.4,1.4,2.4c0.5,0,0.9-0.4,1.2-0.9l0.9,1.5C-1110.4-397.4-1111-396.7-1112.1-396.7z
		 M-1107.2-409v2.2h-1.6v-2.2H-1107.2z M-1107.3-405.8v8.8h-1.5v-8.8H-1107.3z M-1100.9-396.9h-1.5v-4.9c0-1.2-0.3-1.8-0.9-1.8
		c-0.6,0-1,0.6-1,1.8v4.9h-1.5v-8.8h1.5v1.3c0.4-0.7,0.8-1.4,1.6-1.4c1.2,0,1.8,1.3,1.8,3.3V-396.9z M-1099-403.2l-0.4-1.9
		c0.6-0.4,1.2-0.7,2.1-0.7c0.8,0,1.4,0.4,1.8,1c0.4,0.7,0.6,1.6,0.6,2.8v5.1h-1.5v-1c-0.4,0.7-0.9,1.1-1.6,1.1c-1,0-1.9-1-1.9-2.7v0
		c0-1.9,0.9-2.8,2.2-2.8c0.5,0,0.9,0.1,1.3,0.4v-0.2c0-1-0.4-1.6-1.2-1.6C-1098.1-403.7-1098.5-403.5-1099-403.2z M-1096.4-400v-0.4
		c-0.3-0.2-0.6-0.3-1-0.3c-0.7,0-1.1,0.4-1.1,1.2v0c0,0.7,0.3,1.1,0.8,1.1C-1096.8-398.5-1096.4-399.1-1096.4-400z M-1088.4-396.8
		c-1.3,0-2.5-1.6-2.5-4.6v0c0-2.9,1.2-4.6,2.5-4.6c0.8,0,1.3,0.6,1.7,1.3v-4.4h1.5v12h-1.5v-1.3
		C-1087-397.4-1087.6-396.8-1088.4-396.8z M-1089.3-401.4L-1089.3-401.4c0,1.5,0.6,2.5,1.3,2.5s1.3-1,1.3-2.4v0
		c0-1.5-0.6-2.4-1.3-2.4S-1089.3-402.8-1089.3-401.4z M-1078.7-401.1c0,0.2,0,0.4,0,0.7h-3.8c0.2,1.1,0.6,1.7,1.3,1.7
		c0.5,0,0.9-0.3,1.3-0.9l0.9,1.3c-0.5,1-1.2,1.6-2.2,1.6c-1.6,0-2.8-1.9-2.8-4.6v0c0-2.5,1.1-4.6,2.7-4.6
		C-1079.6-405.9-1078.7-403.6-1078.7-401.1z M-1082.5-402h2.3c-0.1-1.1-0.5-1.9-1.1-1.9C-1082-403.9-1082.4-403.2-1082.5-402z
		 M-1072.9-400.4v3.5h-1.6v-11.5h2.9c1.7,0,2.7,1.6,2.7,4v0c0,2.7-1.3,4.1-2.9,4.1H-1072.9z M-1072.9-406.2v3.5h1.2
		c0.8,0,1.2-0.8,1.2-1.7v0c0-1.1-0.5-1.7-1.3-1.7H-1072.9z M-1066.3-400.2v3.3h-1.5v-8.8h1.5v1.8c0.3-1.2,0.8-2,1.7-1.9v2.6h-0.1
		C-1065.7-403.3-1066.3-402.3-1066.3-400.2z M-1061.1-405.9c1.7,0,2.9,2,2.9,4.6v0c0,2.5-1.2,4.6-2.9,4.6c-1.7,0-2.9-2-2.9-4.6v0
		C-1064.1-403.9-1062.8-405.9-1061.1-405.9z M-1059.7-401.3L-1059.7-401.3c0-1.3-0.6-2.5-1.4-2.5c-0.9,0-1.4,1.1-1.4,2.4v0
		c0,1.3,0.6,2.4,1.4,2.4C-1060.2-398.9-1059.7-400-1059.7-401.3z M-1055.6-401.9v4.9h-1.5v-8.8h1.5v1.3c0.4-0.7,0.8-1.4,1.6-1.4
		c0.7,0,1.2,0.5,1.5,1.4c0.5-0.9,1-1.4,1.8-1.4c1.1,0,1.8,1.1,1.8,3.2v5.7h-1.5v-4.9c0-1.2-0.3-1.8-0.9-1.8c-0.6,0-0.9,0.6-0.9,1.8
		v4.9h-1.5v-4.9c0-1.2-0.3-1.8-0.9-1.8C-1055.2-403.6-1055.6-403-1055.6-401.9z M-1047.8-401.3c0-2.5,1.3-4.6,2.9-4.6
		c1.7,0,2.9,2,2.9,4.6v0c0,2.5-1.3,4.6-2.9,4.6C-1046.6-396.7-1047.8-398.8-1047.8-401.3L-1047.8-401.3z M-1043.5-401.3
		c0-1.3-0.6-2.4-1.4-2.4c-0.9,0-1.4,1.1-1.4,2.4v0c0,1.3,0.6,2.4,1.4,2.4C-1044-398.9-1043.5-400-1043.5-401.3L-1043.5-401.3z
		 M-1038.3-396.7c-1.6,0-2.8-2-2.8-4.6v0c0-2.5,1.2-4.6,2.8-4.6c1,0,1.7,0.6,2.2,1.5l-0.9,1.6c-0.3-0.6-0.7-1-1.2-1
		c-0.8,0-1.3,1.1-1.3,2.4v0c0,1.4,0.5,2.4,1.4,2.4c0.5,0,0.9-0.4,1.2-0.9l0.9,1.5C-1036.6-397.4-1037.2-396.7-1038.3-396.7z
		 M-1033.4-409v2.2h-1.6v-2.2H-1033.4z M-1033.5-396.9h-1.5v-8.8h1.5V-396.9z M-1026.5-401.3c0,2.5-1.2,4.6-2.9,4.6
		c-1.7,0-2.9-2-2.9-4.6v0c0-2.5,1.3-4.6,2.9-4.6C-1027.7-405.9-1026.5-403.9-1026.5-401.3L-1026.5-401.3z M-1028-401.3L-1028-401.3
		c0-1.3-0.6-2.5-1.4-2.5c-0.9,0-1.4,1.1-1.4,2.4v0c0,1.3,0.6,2.4,1.4,2.4C-1028.5-398.9-1028-400-1028-401.3z M-1028.9-406.7h-1.1
		l1.1-2.9l1.3,0.9L-1028.9-406.7z M-1023.8-404.5c0.4-0.7,0.8-1.4,1.6-1.4c1.2,0,1.8,1.3,1.8,3.3v5.7h-1.5v-4.9
		c0-1.2-0.3-1.8-0.9-1.8s-1,0.6-1,1.8v4.9h-1.5v-8.8h1.5V-404.5z M-1013.8-396.8c-1.3,0-2.5-1.6-2.5-4.6v0c0-2.9,1.2-4.6,2.5-4.6
		c0.8,0,1.3,0.6,1.7,1.3v-4.4h1.5v12h-1.5v-1.3C-1012.5-397.4-1013-396.8-1013.8-396.8z M-1014.8-401.4L-1014.8-401.4
		c0,1.5,0.6,2.5,1.3,2.5c0.7,0,1.3-1,1.3-2.4v0c0-1.5-0.6-2.4-1.3-2.4C-1014.2-403.8-1014.8-402.8-1014.8-401.4z M-1006.8-405.9
		c1.8,0,2.6,2.3,2.6,4.8c0,0.2,0,0.4,0,0.7h-3.8c0.1,1.1,0.6,1.7,1.3,1.7c0.5,0,0.9-0.3,1.3-0.9l0.9,1.3c-0.5,1-1.2,1.6-2.2,1.6
		c-1.6,0-2.8-1.9-2.8-4.6v0C-1009.5-403.9-1008.4-405.9-1006.8-405.9z M-1008-402h2.3c-0.1-1.1-0.5-1.9-1.1-1.9
		C-1007.5-403.9-1007.9-403.2-1008-402z M-998.3-400.6v3.7h-1.6v-11.5h3.2c0.9,0,1.6,0.4,2.1,1.2c0.4,0.6,0.6,1.6,0.6,2.6v0
		c0,1.9-0.6,3-1.5,3.6l1.7,4.1h-1.8l-1.5-3.7H-998.3z M-998.3-406.2v3.3h1.6c0.8,0,1.2-0.7,1.2-1.6v0c0-1.1-0.5-1.6-1.2-1.6H-998.3z
		 M-987.2-401.4L-987.2-401.4c0,2.6-1.3,4.6-2.9,4.6c-1.7,0-2.9-2-2.9-4.6v0c0-2.5,1.3-4.6,2.9-4.6
		C-988.4-405.9-987.2-403.9-987.2-401.4z M-988.7-401.3L-988.7-401.3c0-1.3-0.6-2.5-1.4-2.5c-0.9,0-1.4,1.1-1.4,2.4v0
		c0,1.3,0.6,2.4,1.4,2.4C-989.2-398.9-988.7-400-988.7-401.3z M-983.9-396.8c-1.3,0-2.5-1.6-2.5-4.6v0c0-2.9,1.2-4.6,2.5-4.6
		c0.8,0,1.3,0.6,1.7,1.3v-4.4h1.5v12h-1.5v-1.3C-982.5-397.4-983.1-396.8-983.9-396.8z M-984.8-401.4L-984.8-401.4
		c0,1.5,0.6,2.5,1.3,2.5c0.7,0,1.3-1,1.3-2.4v0c0-1.5-0.6-2.4-1.3-2.4C-984.2-403.8-984.8-402.8-984.8-401.4z M-977.7-396.8
		c-1,0-1.9-1-1.9-2.7v0c0-1.9,0.9-2.8,2.2-2.8c0.5,0,0.9,0.1,1.3,0.4v-0.2c0-1-0.4-1.6-1.2-1.6c-0.6,0-1,0.2-1.5,0.5l-0.4-1.9
		c0.6-0.4,1.2-0.7,2.1-0.7c0.8,0,1.4,0.4,1.8,1c0.4,0.7,0.6,1.6,0.6,2.8v5.1h-1.5v-1C-976.5-397.2-977-396.8-977.7-396.8z
		 M-978.1-399.6L-978.1-399.6c0,0.7,0.3,1.1,0.8,1.1c0.7,0,1.2-0.6,1.2-1.5v-0.4c-0.3-0.2-0.6-0.3-1-0.3
		C-977.7-400.8-978.1-400.4-978.1-399.6z M-971.7-409v2.2h-1.6v-2.2H-971.7z M-971.7-397.1c0,1.9-0.6,2.8-1.7,2.8
		c-0.3,0-0.5,0-0.7-0.1v-2c0.1,0,0.2,0,0.3,0c0.3,0,0.5-0.3,0.5-1v-8.5h1.5V-397.1z M-967.9-405.9c1.8,0,2.6,2.3,2.6,4.8
		c0,0.2,0,0.4,0,0.7h-3.8c0.2,1.1,0.6,1.7,1.3,1.7c0.5,0,0.9-0.3,1.3-0.9l0.9,1.3c-0.5,1-1.2,1.6-2.2,1.6c-1.6,0-2.8-1.9-2.8-4.6v0
		C-970.5-403.9-969.4-405.9-967.9-405.9z M-969-402h2.3c-0.1-1.1-0.5-1.9-1.1-1.9C-968.5-403.9-968.9-403.2-969-402z M-961.8-402.3
		c0.8,0.4,1.6,1,1.6,2.6v0c0,2-0.9,2.9-2.1,2.9c-0.8,0-1.6-0.4-2.3-1.3l0.7-1.6c0.6,0.7,1.2,1.1,1.7,1.1c0.4,0,0.6-0.3,0.6-0.7v0
		c0-0.5-0.5-0.7-1.1-1c-0.8-0.4-1.6-0.9-1.6-2.7v0c0-1.8,0.9-2.8,2-2.8c0.7,0,1.4,0.4,2,1l-0.6,1.7c-0.5-0.5-1.1-0.8-1.5-0.8
		c-0.4,0-0.6,0.3-0.6,0.6v0C-962.9-402.8-962.3-402.6-961.8-402.3z M-1109.7-375.5h-1.5v-1.3c-0.4,0.8-0.9,1.4-1.7,1.4
		c-1.3,0-2.5-1.6-2.5-4.6v0c0-2.9,1.2-4.6,2.5-4.6c0.8,0,1.3,0.6,1.7,1.3v-4.4h1.5V-375.5z M-1112.5-377.5c0.7,0,1.3-1,1.3-2.4v0
		c0-1.5-0.6-2.4-1.3-2.4c-0.7,0-1.3,1-1.3,2.4v0C-1113.8-378.5-1113.2-377.5-1112.5-377.5z M-1108.6-379.9c0-2.5,1.1-4.6,2.7-4.6
		c1.8,0,2.6,2.3,2.6,4.8c0,0.2,0,0.4,0,0.7h-3.8c0.2,1.1,0.6,1.7,1.3,1.7c0.5,0,0.9-0.3,1.3-0.9l0.9,1.3c-0.5,1-1.2,1.6-2.2,1.6
		C-1107.4-375.3-1108.6-377.2-1108.6-379.9L-1108.6-379.9z M-1105.9-382.5c-0.6,0-1,0.7-1.2,1.9h2.3
		C-1104.9-381.8-1105.3-382.5-1105.9-382.5z M-1099.1-375.5v-12h1.5v12H-1099.1z M-1092.9-375.5v-1c-0.4,0.7-0.9,1.1-1.6,1.1
		c-1,0-1.9-1-1.9-2.7v0c0-1.9,0.9-2.8,2.2-2.8c0.5,0,0.9,0.1,1.3,0.4v-0.2c0-1-0.4-1.6-1.2-1.6c-0.6,0-1,0.2-1.5,0.5l-0.4-1.9
		c0.6-0.4,1.2-0.7,2.1-0.7c0.8,0,1.4,0.4,1.8,1c0.4,0.7,0.6,1.6,0.6,2.8v5.1H-1092.9z M-1094.1-377.1c0.7,0,1.2-0.6,1.2-1.5v-0.4
		c-0.3-0.2-0.6-0.3-1-0.3c-0.7,0-1.1,0.4-1.1,1.2v0C-1094.9-377.5-1094.6-377.1-1094.1-377.1z M-1080.7-377.4
		c-0.7,1.3-1.5,2.1-2.9,2.1c-2.1,0-3.6-2.6-3.6-5.9v0c0-3.3,1.5-6,3.7-6c1.3,0,2.1,0.7,2.8,1.8l-1,1.9c-0.5-0.8-1.1-1.3-1.8-1.3
		c-1.2,0-2,1.6-2,3.6v0c0,2,0.8,3.6,2,3.6c0.8,0,1.3-0.5,1.9-1.4L-1080.7-377.4z M-1079.9-379.9c0-2.5,1.2-4.6,2.9-4.6
		c1.7,0,2.9,2,2.9,4.6v0c0,2.5-1.2,4.6-2.9,4.6C-1078.7-375.3-1079.9-377.4-1079.9-379.9L-1079.9-379.9z M-1075.6-379.9
		c0-1.3-0.6-2.4-1.4-2.4c-0.9,0-1.4,1.1-1.4,2.4v0c0,1.3,0.6,2.4,1.4,2.4C-1076.1-377.5-1075.6-378.6-1075.6-379.9L-1075.6-379.9z
		 M-1071.4-383.1c0.4-0.7,0.8-1.4,1.6-1.4c0.7,0,1.2,0.5,1.5,1.4c0.5-0.9,1-1.4,1.8-1.4c1.1,0,1.8,1.1,1.8,3.2v5.7h-1.5v-4.9
		c0-1.2-0.3-1.8-0.9-1.8c-0.6,0-0.9,0.6-0.9,1.8v4.9h-1.5v-4.9c0-1.2-0.3-1.8-0.9-1.8c-0.6,0-0.9,0.6-0.9,1.8v4.9h-1.5v-8.8h1.5
		V-383.1z M-1060-379.4v-4.9h1.5v8.8h-1.5v-1.3c-0.4,0.7-0.8,1.4-1.6,1.4c-1.2,0-1.8-1.3-1.8-3.3v-5.7h1.5v4.9
		c0,1.2,0.3,1.8,0.9,1.8C-1060.4-377.6-1060-378.2-1060-379.4z M-1055.6-380.5v4.9h-1.5v-8.8h1.5v1.3c0.4-0.7,0.8-1.4,1.6-1.4
		c1.2,0,1.8,1.3,1.8,3.3v5.7h-1.5v-4.9c0-1.2-0.3-1.8-0.9-1.8C-1055.2-382.2-1055.6-381.6-1055.6-380.5z M-1049.2-387.6v2.2h-1.6
		v-2.2H-1049.2z M-1049.2-384.4v8.8h-1.5v-8.8H-1049.2z M-1042.4-375.5h-1.5v-1.3c-0.4,0.8-0.9,1.4-1.7,1.4c-1.3,0-2.5-1.6-2.5-4.6
		v0c0-2.9,1.2-4.6,2.5-4.6c0.8,0,1.3,0.6,1.7,1.3v-4.4h1.5V-375.5z M-1045.2-377.5c0.7,0,1.3-1,1.3-2.4v0c0-1.5-0.6-2.4-1.3-2.4
		c-0.7,0-1.3,1-1.3,2.4v0C-1046.5-378.5-1045.9-377.5-1045.2-377.5z M-1039.5-375.4c-1,0-1.9-1-1.9-2.7v0c0-1.9,0.9-2.8,2.2-2.8
		c0.5,0,0.9,0.1,1.3,0.4v-0.2c0-1-0.4-1.6-1.2-1.6c-0.6,0-1,0.2-1.5,0.5l-0.4-1.9c0.6-0.4,1.2-0.7,2.1-0.7c0.8,0,1.4,0.4,1.8,1
		c0.4,0.7,0.6,1.6,0.6,2.8v5.1h-1.5v-1C-1038.2-375.8-1038.7-375.4-1039.5-375.4z M-1039.8-378.2L-1039.8-378.2
		c0,0.7,0.3,1.1,0.8,1.1c0.7,0,1.2-0.6,1.2-1.5v-0.4c-0.3-0.2-0.6-0.3-1-0.3C-1039.4-379.4-1039.8-379-1039.8-378.2z M-1031.1-383.2
		v-4.4h1.5v12h-1.5v-1.3c-0.4,0.8-0.9,1.4-1.7,1.4c-1.3,0-2.5-1.6-2.5-4.6v0c0-2.9,1.2-4.6,2.5-4.6
		C-1032-384.5-1031.5-383.9-1031.1-383.2z M-1031.1-379.9L-1031.1-379.9c0-1.5-0.6-2.5-1.3-2.5c-0.7,0-1.3,1-1.3,2.4v0
		c0,1.5,0.6,2.4,1.3,2.4C-1031.7-377.5-1031.1-378.5-1031.1-379.9z M-1019.8-375.5h-1.5v-1.3c-0.4,0.8-0.9,1.4-1.7,1.4
		c-1.3,0-2.5-1.6-2.5-4.6v0c0-2.9,1.2-4.6,2.5-4.6c0.8,0,1.3,0.6,1.7,1.3v-4.4h1.5V-375.5z M-1022.6-377.5c0.7,0,1.3-1,1.3-2.4v0
		c0-1.5-0.6-2.4-1.3-2.4c-0.7,0-1.3,1-1.3,2.4v0C-1023.9-378.5-1023.3-377.5-1022.6-377.5z M-1013.6-377c-0.5,1-1.2,1.6-2.2,1.6
		c-1.6,0-2.8-1.9-2.8-4.6v0c0-2.5,1.1-4.6,2.7-4.6c1.8,0,2.6,2.3,2.6,4.8c0,0.2,0,0.4,0,0.7h-3.8c0.1,1.1,0.6,1.7,1.3,1.7
		c0.5,0,0.9-0.3,1.3-0.9L-1013.6-377z M-1016-382.5c-0.6,0-1,0.7-1.2,1.9h2.3C-1014.9-381.8-1015.3-382.5-1016-382.5z
		 M-1007.4-387.1l1.9,4.9l1.9-4.9h1.7v11.5h-1.5v-7.5l-2,4.9h0l-2-4.9v7.5h-1.5v-11.5H-1007.4z M-998.9-375.4c-1,0-1.9-1-1.9-2.7v0
		c0-1.9,0.9-2.8,2.2-2.8c0.5,0,0.9,0.1,1.3,0.4v-0.2c0-1-0.4-1.6-1.2-1.6c-0.6,0-1,0.2-1.5,0.5l-0.4-1.9c0.6-0.4,1.2-0.7,2.1-0.7
		c0.8,0,1.4,0.4,1.8,1c0.4,0.7,0.6,1.6,0.6,2.8v5.1h-1.5v-1C-997.7-375.8-998.2-375.4-998.9-375.4z M-999.3-378.2L-999.3-378.2
		c0,0.7,0.3,1.1,0.8,1.1c0.7,0,1.2-0.6,1.2-1.5v-0.4c-0.3-0.2-0.6-0.3-1-0.3C-998.9-379.4-999.3-379-999.3-378.2z M-990.6-383.2
		v-4.4h1.5v12h-1.5v-1.3c-0.4,0.8-0.9,1.4-1.7,1.4c-1.3,0-2.5-1.6-2.5-4.6v0c0-2.9,1.2-4.6,2.5-4.6
		C-991.5-384.5-991-383.9-990.6-383.2z M-990.6-379.9L-990.6-379.9c0-1.5-0.6-2.5-1.3-2.5c-0.7,0-1.3,1-1.3,2.4v0
		c0,1.5,0.6,2.4,1.3,2.4C-991.2-377.5-990.6-378.5-990.6-379.9z M-986.2-378.8v3.3h-1.5v-8.8h1.5v1.8c0.3-1.2,0.8-2,1.7-1.9v2.6
		h-0.1C-985.5-381.9-986.2-380.9-986.2-378.8z M-983.4-385.3v-2.2h1.6v2.2H-983.4z M-983.4-375.5v-8.8h1.5v8.8H-983.4z
		 M-980.7-379.9L-980.7-379.9c0-3,1.2-4.6,2.5-4.6c0.8,0,1.3,0.6,1.7,1.3v-4.4h1.5v12h-1.5v-1.3c-0.4,0.8-0.9,1.4-1.7,1.4
		C-979.5-375.4-980.7-377-980.7-379.9z M-979.1-380L-979.1-380c0,1.5,0.6,2.5,1.3,2.5c0.7,0,1.3-1,1.3-2.4v0c0-1.5-0.6-2.4-1.3-2.4
		C-978.5-382.4-979.1-381.4-979.1-380z M-1117.1-357.3c0.1,0.2,0.3,0.4,0.3,0.7c0.1,0.3,0.1,0.7,0.1,1.1c0,0.3,0,0.6-0.1,0.9
		c-0.1,0.3-0.1,0.5-0.3,0.7c-0.1,0.2-0.2,0.4-0.4,0.5c-0.2,0.1-0.3,0.2-0.5,0.3v0c0.2,0.1,0.4,0.3,0.5,0.6c0.1,0.3,0.1,0.6,0.1,1
		c0,0.2,0,0.4,0,0.7c0,0.3,0,0.6,0,0.8c0,0.2,0,0.4,0,0.6c0,0.2,0,0.3,0.1,0.5h-1.2c0-0.1,0-0.2,0-0.3c0-0.1,0-0.2,0-0.3
		c0-0.3,0-0.6,0-0.9c0-0.3,0-0.6,0-0.9c0-0.2,0-0.4-0.1-0.5c0-0.1-0.1-0.3-0.2-0.3c-0.1-0.1-0.2-0.1-0.3-0.2c-0.1,0-0.2,0-0.3,0
		h-1.1l-0.5,3.5h-1.2l1.2-9h2.6c0.2,0,0.5,0,0.7,0.1C-1117.4-357.6-1117.2-357.5-1117.1-357.3z M-1117.9-354.5
		c0.1-0.2,0.1-0.4,0.1-0.7c0-0.2,0-0.4-0.1-0.6c0-0.1-0.1-0.3-0.2-0.3c-0.1-0.1-0.2-0.1-0.3-0.2c-0.1,0-0.2,0-0.3,0h-1.2l-0.3,2.5
		h1.1c0.2,0,0.3,0,0.5-0.1c0.1-0.1,0.3-0.1,0.4-0.3C-1118.1-354.2-1118-354.3-1117.9-354.5z M-1112.9-354.8c0.2,0.2,0.3,0.5,0.4,0.9
		c0.1,0.4,0.1,0.8,0.1,1.2c0,0.3,0,0.7-0.1,1h-2.9c0,0,0,0.1,0,0.1v0.3c0,0.4,0.1,0.7,0.2,0.9c0.1,0.2,0.4,0.4,0.7,0.4
		c0.1,0,0.2,0,0.3-0.1c0.1-0.1,0.2-0.1,0.2-0.2c0.1-0.1,0.1-0.2,0.2-0.3c0-0.1,0.1-0.2,0.1-0.3h1.1c-0.1,0.4-0.2,0.7-0.3,1
		c-0.1,0.3-0.3,0.5-0.4,0.7c-0.2,0.2-0.4,0.3-0.6,0.4c-0.2,0.1-0.5,0.1-0.8,0.1c-0.3,0-0.5-0.1-0.7-0.2c-0.2-0.1-0.4-0.3-0.6-0.5
		c-0.2-0.2-0.3-0.5-0.4-0.9c-0.1-0.4-0.1-0.8-0.1-1.2c0-0.5,0.1-1,0.2-1.5c0.1-0.5,0.2-0.9,0.4-1.3c0.2-0.4,0.4-0.7,0.7-0.9
		c0.3-0.2,0.6-0.3,0.9-0.3c0.3,0,0.5,0.1,0.8,0.2C-1113.2-355.2-1113-355-1112.9-354.8z M-1115.2-352.7h1.8c0-0.2,0-0.3,0-0.5
		c0-0.2-0.1-0.3-0.1-0.5c-0.1-0.1-0.1-0.2-0.2-0.3c-0.1-0.1-0.2-0.1-0.4-0.1c-0.2,0-0.3,0-0.4,0.1c-0.1,0.1-0.2,0.2-0.3,0.3
		c-0.1,0.1-0.2,0.3-0.2,0.4C-1115.2-353.1-1115.2-352.9-1115.2-352.7z M-1108.7-354.3l0.1-1h1.1l-0.8,6.2c-0.1,0.5-0.2,0.9-0.3,1.3
		c-0.1,0.4-0.3,0.6-0.4,0.9c-0.2,0.2-0.4,0.4-0.6,0.5c-0.2,0.1-0.5,0.2-0.9,0.2c-0.2,0-0.4,0-0.6-0.1c-0.2-0.1-0.4-0.2-0.5-0.4
		c-0.2-0.2-0.3-0.4-0.4-0.7c-0.1-0.3-0.2-0.6-0.2-1h1.1c0,0.2,0,0.3,0.1,0.4c0,0.1,0.1,0.2,0.2,0.3c0.1,0.1,0.1,0.1,0.2,0.2
		c0.1,0,0.2,0,0.3,0c0.2,0,0.3-0.1,0.4-0.2c0.1-0.1,0.2-0.3,0.3-0.5c0.1-0.2,0.2-0.4,0.2-0.7c0.1-0.3,0.1-0.6,0.2-0.9l0,0
		c-0.3,0.6-0.7,0.9-1.1,0.9c-0.2,0-0.5-0.1-0.6-0.2c-0.2-0.1-0.4-0.3-0.5-0.5c-0.1-0.2-0.2-0.5-0.3-0.8c-0.1-0.3-0.1-0.7-0.1-1.1
		c0-0.5,0-1,0.1-1.4c0.1-0.5,0.2-0.9,0.4-1.3c0.2-0.4,0.4-0.7,0.6-0.9c0.2-0.2,0.5-0.3,0.9-0.3c0.3,0,0.5,0.1,0.7,0.3
		C-1109-355-1108.8-354.7-1108.7-354.3L-1108.7-354.3z M-1109-351.9c0-0.3,0.1-0.6,0.1-0.9c0-0.4-0.1-0.8-0.2-1
		c-0.1-0.3-0.3-0.4-0.6-0.4c-0.2,0-0.3,0.1-0.5,0.2c-0.1,0.2-0.3,0.4-0.3,0.6c-0.1,0.2-0.2,0.5-0.2,0.8c0,0.3-0.1,0.6-0.1,0.8
		c0,0.2,0,0.4,0,0.6c0,0.2,0.1,0.3,0.1,0.5c0.1,0.1,0.1,0.2,0.2,0.3c0.1,0.1,0.2,0.1,0.3,0.1c0.2,0,0.4-0.1,0.5-0.2
		c0.1-0.2,0.3-0.4,0.4-0.6C-1109.2-351.3-1109.1-351.6-1109-351.9z M-1107.5-348.8l0.8-6.5h1.1l-0.9,6.5H-1107.5z M-1106.3-357.8
		h1.1l-0.2,1.5h-1.1L-1106.3-357.8z M-1101.7-354.8c0.2,0.2,0.3,0.5,0.4,0.9c0.1,0.3,0.1,0.8,0.1,1.2c0,0.6-0.1,1.1-0.2,1.6
		c-0.1,0.5-0.3,0.9-0.5,1.3c-0.2,0.4-0.4,0.7-0.7,0.9c-0.3,0.2-0.6,0.3-1,0.3c-0.6,0-1-0.2-1.3-0.7c-0.3-0.5-0.5-1.2-0.5-2.1
		c0-0.6,0.1-1.1,0.2-1.6c0.1-0.5,0.3-0.9,0.5-1.3c0.2-0.4,0.4-0.7,0.7-0.9c0.3-0.2,0.6-0.3,1-0.3c0.3,0,0.5,0.1,0.8,0.2
		C-1102.1-355.2-1101.9-355-1101.7-354.8z M-1102.4-351.8c0-0.3,0.1-0.6,0.1-0.9c0-0.4-0.1-0.8-0.2-1c-0.1-0.3-0.3-0.4-0.6-0.4
		c-0.2,0-0.4,0.1-0.5,0.3c-0.1,0.2-0.3,0.4-0.4,0.7c-0.1,0.3-0.2,0.6-0.2,0.9c0,0.3-0.1,0.6-0.1,0.9c0,0.2,0,0.4,0,0.6
		c0,0.2,0.1,0.3,0.2,0.5c0.1,0.1,0.2,0.2,0.2,0.3c0.1,0.1,0.2,0.1,0.3,0.1c0.2,0,0.4-0.1,0.5-0.3c0.1-0.2,0.3-0.4,0.4-0.7
		C-1102.5-351.2-1102.4-351.5-1102.4-351.8z M-1097.8-355.5c0.8,0,1.2,0.6,1.2,1.8c0,0.1,0,0.2,0,0.3c0,0.1,0,0.2,0,0.3
		c0,0.1,0,0.2,0,0.3c0,0.1,0,0.2,0,0.2l-0.5,3.8h-1.1l0.5-3.8c0-0.1,0-0.2,0-0.4c0-0.2,0-0.3,0-0.4c0-0.2-0.1-0.4-0.2-0.5
		c-0.1-0.1-0.2-0.2-0.4-0.2c-0.2,0-0.3,0.1-0.4,0.2c-0.1,0.1-0.2,0.2-0.3,0.4c-0.1,0.2-0.2,0.4-0.2,0.6c-0.1,0.2-0.1,0.4-0.1,0.7
		l-0.4,3.5h-1.1l0.8-6.5h1.1l-0.1,0.9h0C-1098.9-355.1-1098.4-355.5-1097.8-355.5z M-1090.4-354.8c0.2,0.2,0.3,0.5,0.4,0.9
		c0.1,0.3,0.1,0.8,0.1,1.2c0,0.6-0.1,1.1-0.2,1.6c-0.1,0.5-0.3,0.9-0.5,1.3c-0.2,0.4-0.4,0.7-0.7,0.9c-0.3,0.2-0.6,0.3-1,0.3
		c-0.6,0-1-0.2-1.3-0.7c-0.3-0.5-0.5-1.2-0.5-2.1c0-0.6,0.1-1.1,0.2-1.6c0.1-0.5,0.3-0.9,0.5-1.3c0.2-0.4,0.4-0.7,0.7-0.9
		c0.3-0.2,0.6-0.3,1-0.3c0.3,0,0.5,0.1,0.8,0.2C-1090.7-355.2-1090.5-355-1090.4-354.8z M-1091-351.8c0-0.3,0.1-0.6,0.1-0.9
		c0-0.4-0.1-0.8-0.2-1c-0.1-0.3-0.3-0.4-0.6-0.4c-0.2,0-0.4,0.1-0.5,0.3c-0.1,0.2-0.3,0.4-0.4,0.7c-0.1,0.3-0.2,0.6-0.2,0.9
		c0,0.3-0.1,0.6-0.1,0.9c0,0.2,0,0.4,0,0.6c0,0.2,0.1,0.3,0.2,0.5c0.1,0.1,0.1,0.2,0.2,0.3c0.1,0.1,0.2,0.1,0.3,0.1
		c0.2,0,0.4-0.1,0.5-0.3c0.1-0.2,0.3-0.4,0.4-0.7C-1091.1-351.2-1091.1-351.5-1091-351.8z M-1087-357.9c0.1,0,0.2,0,0.4,0
		c0.1,0,0.2,0,0.4,0.1l-0.2,1.3c-0.1,0-0.1,0-0.2,0c-0.1,0-0.1,0-0.2,0c-0.1,0-0.2,0-0.3,0.1c-0.1,0.1-0.1,0.1-0.2,0.2
		c0,0.1-0.1,0.2-0.1,0.4c0,0.1,0,0.3-0.1,0.5h0.8l-0.2,1.2h-0.8l-0.7,5.3h-1.1l0.7-5.3h-0.7l0.2-1.2h0.7c0.1-0.4,0.1-0.8,0.2-1.1
		c0.1-0.3,0.1-0.6,0.3-0.8c0.1-0.2,0.3-0.4,0.4-0.5C-1087.5-357.8-1087.3-357.9-1087-357.9z M-1079.4-357.8h1.7l-1.2,9h-1.1l1-7.2h0
		l-2.3,7.2h-0.9l-0.5-7.2h0l-0.8,7.2h-1.1l1.2-9h1.7l0.4,6.5h0L-1079.4-357.8z M-1074.3-355.2c0.2,0.1,0.3,0.3,0.4,0.5
		c0.1,0.2,0.2,0.5,0.2,0.9c0,0.3,0,0.7-0.1,1.1l-0.4,2.6c0,0.1,0,0.3,0,0.4c0,0.2,0,0.3,0,0.4c0,0.1,0,0.2,0,0.4h-1.1v-0.6
		c-0.1,0.3-0.3,0.5-0.5,0.6c-0.2,0.1-0.4,0.2-0.7,0.2c-0.2,0-0.4,0-0.6-0.1c-0.2-0.1-0.3-0.2-0.4-0.4c-0.1-0.2-0.2-0.3-0.2-0.5
		c-0.1-0.2-0.1-0.4-0.1-0.7c0-0.6,0.1-1.1,0.4-1.5c0.3-0.4,0.6-0.6,1.1-0.7c0.3,0,0.5-0.1,0.7-0.1c0.2,0,0.3-0.1,0.5-0.1
		s0.2-0.1,0.3-0.2c0.1-0.1,0.1-0.3,0.1-0.5c0-0.2,0-0.3-0.1-0.4c0-0.1-0.1-0.2-0.2-0.2s-0.1-0.1-0.2-0.1c-0.1,0-0.2,0-0.2,0
		c-0.2,0-0.4,0.1-0.5,0.2s-0.2,0.4-0.3,0.7h-1c0-0.4,0.1-0.8,0.2-1c0.1-0.3,0.3-0.5,0.4-0.7c0.2-0.2,0.4-0.3,0.6-0.4
		c0.2-0.1,0.4-0.1,0.7-0.1c0.2,0,0.4,0,0.6,0.1C-1074.7-355.4-1074.5-355.3-1074.3-355.2z M-1075.1-351.3l0.1-0.6
		c-0.1,0.1-0.3,0.2-0.4,0.2c-0.2,0-0.3,0.1-0.5,0.1c-0.1,0-0.2,0-0.3,0.1c-0.1,0-0.2,0.1-0.3,0.2c-0.1,0.1-0.1,0.2-0.2,0.3
		c0,0.1-0.1,0.3-0.1,0.5c0,0.2,0.1,0.4,0.2,0.6c0.1,0.1,0.3,0.2,0.4,0.2c0.2,0,0.3,0,0.4-0.1c0.1-0.1,0.2-0.2,0.3-0.3
		c0.1-0.1,0.1-0.3,0.2-0.5C-1075.2-350.9-1075.1-351.1-1075.1-351.3z M-1069.5-357.8h1.1l-1.2,9h-1.1l0.1-0.8l0,0
		c-0.1,0.4-0.3,0.6-0.5,0.8c-0.2,0.2-0.4,0.2-0.7,0.2c-0.5,0-0.9-0.2-1.1-0.7c-0.3-0.5-0.4-1.1-0.4-1.9c0-0.5,0-1.1,0.1-1.6
		c0.1-0.5,0.2-1,0.4-1.4c0.2-0.4,0.4-0.7,0.7-1c0.3-0.2,0.6-0.4,1-0.4c0.2,0,0.5,0.1,0.7,0.3c0.2,0.2,0.4,0.4,0.5,0.8h0
		L-1069.5-357.8z M-1070.3-351.8c0-0.3,0.1-0.6,0.1-0.9c0-0.4-0.1-0.8-0.2-1c-0.1-0.3-0.3-0.4-0.6-0.4c-0.2,0-0.4,0.1-0.5,0.3
		c-0.2,0.2-0.3,0.4-0.4,0.7c-0.1,0.3-0.2,0.6-0.2,0.9c0,0.3-0.1,0.6-0.1,0.9c0,0.2,0,0.4,0.1,0.6c0,0.2,0.1,0.3,0.1,0.5
		c0.1,0.1,0.1,0.2,0.2,0.3c0.1,0.1,0.2,0.1,0.3,0.1c0.2,0,0.4-0.1,0.5-0.3c0.1-0.2,0.3-0.4,0.4-0.7
		C-1070.4-351.2-1070.3-351.5-1070.3-351.8z M-1065.6-353.7c-0.1,0-0.2-0.1-0.2-0.1c-0.1,0-0.2,0-0.2,0c-0.2,0-0.4,0.1-0.5,0.2
		c-0.1,0.1-0.3,0.3-0.4,0.5c-0.1,0.2-0.2,0.4-0.2,0.7c-0.1,0.3-0.1,0.5-0.1,0.8l-0.4,2.9h-1.1l0.8-6.5h1l-0.2,1.2l0,0
		c0.1-0.5,0.3-0.8,0.6-1c0.3-0.2,0.5-0.3,0.8-0.3c0.1,0,0.2,0,0.3,0L-1065.6-353.7z M-1065.8-348.8l0.8-6.5h1.1l-0.9,6.5H-1065.8z
		 M-1064.6-357.8h1.1l-0.2,1.5h-1.1L-1064.6-357.8z M-1060.4-354.4l0.4-3.4h1.1l-1.2,9h-1.1l0.1-0.8l0,0c-0.1,0.4-0.3,0.6-0.5,0.8
		c-0.2,0.2-0.4,0.2-0.7,0.2c-0.5,0-0.9-0.2-1.1-0.7c-0.3-0.5-0.4-1.1-0.4-1.9c0-0.5,0-1.1,0.1-1.6c0.1-0.5,0.2-1,0.4-1.4
		c0.2-0.4,0.4-0.7,0.7-1c0.3-0.2,0.6-0.4,1-0.4c0.2,0,0.5,0.1,0.7,0.3C-1060.6-355.1-1060.5-354.8-1060.4-354.4L-1060.4-354.4z
		 M-1060.7-351.8c0-0.3,0.1-0.6,0.1-0.9c0-0.4-0.1-0.8-0.2-1c-0.1-0.3-0.3-0.4-0.6-0.4c-0.2,0-0.4,0.1-0.5,0.3
		c-0.2,0.2-0.3,0.4-0.4,0.7c-0.1,0.3-0.2,0.6-0.2,0.9c0,0.3-0.1,0.6-0.1,0.9c0,0.2,0,0.4,0.1,0.6c0,0.2,0.1,0.3,0.1,0.5
		c0.1,0.1,0.1,0.2,0.2,0.3c0.1,0.1,0.2,0.1,0.3,0.1c0.2,0,0.4-0.1,0.5-0.3c0.1-0.2,0.3-0.4,0.4-0.7
		C-1060.8-351.2-1060.7-351.5-1060.7-351.8z M-1054.8-356.1l-0.3,2.1h2.4l-0.2,1.5h-2.4l-0.5,3.7h-1.2l1.2-9h3.9l-0.2,1.7H-1054.8z
		 M-1051.5-356.3l0.2-1.5h1.1l-0.2,1.5H-1051.5z M-1052.5-348.8l0.8-6.5h1.1l-0.9,6.5H-1052.5z M-1049.4-357.8h1.1l-1.2,9h-1.1
		L-1049.4-357.8z M-1042.2-355.1c0.1,0.1,0.2,0.3,0.3,0.5c0.1,0.2,0.1,0.5,0.1,0.7c0,0.2,0,0.4,0,0.6c0,0.2-0.1,0.4-0.1,0.6
		l-0.5,3.8h-1.1l0.5-4.1c0-0.2,0-0.3,0-0.5c0-0.2,0-0.4-0.1-0.5c-0.1-0.1-0.2-0.2-0.3-0.2c-0.1,0-0.3,0.1-0.4,0.2
		c-0.1,0.1-0.2,0.3-0.3,0.4c-0.1,0.2-0.2,0.4-0.2,0.6c-0.1,0.2-0.1,0.4-0.1,0.6l-0.4,3.5h-1.1l0.5-4.1c0-0.2,0-0.3,0-0.5
		c0-0.2,0-0.4-0.1-0.5c-0.1-0.1-0.2-0.2-0.3-0.2c-0.1,0-0.3,0.1-0.4,0.2c-0.1,0.1-0.2,0.3-0.3,0.4s-0.2,0.4-0.2,0.6
		c-0.1,0.2-0.1,0.4-0.1,0.6l-0.4,3.5h-1.1l0.8-6.5h1.1l-0.1,0.9h0c0.2-0.4,0.4-0.7,0.6-0.8c0.2-0.2,0.5-0.3,0.8-0.3
		c0.2,0,0.5,0.1,0.6,0.3c0.2,0.2,0.3,0.5,0.3,0.9c0.1-0.2,0.2-0.3,0.3-0.5s0.2-0.3,0.3-0.4c0.1-0.1,0.2-0.2,0.4-0.2
		c0.1-0.1,0.3-0.1,0.4-0.1c0.2,0,0.3,0,0.5,0.1C-1042.5-355.3-1042.3-355.2-1042.2-355.1z M-1041.6-348.8l0.8-6.5h1.1l-0.9,6.5
		H-1041.6z M-1040.6-356.3l0.2-1.5h1.1l-0.2,1.5H-1040.6z M-1036.5-355.5c0.8,0,1.2,0.6,1.2,1.8c0,0.1,0,0.2,0,0.3
		c0,0.1,0,0.2,0,0.3c0,0.1,0,0.2,0,0.3c0,0.1,0,0.2,0,0.2l-0.5,3.8h-1.1l0.5-3.8c0-0.1,0-0.2,0-0.4c0-0.2,0-0.3,0-0.4
		c0-0.2-0.1-0.4-0.2-0.5c-0.1-0.1-0.2-0.2-0.4-0.2c-0.2,0-0.3,0.1-0.4,0.2c-0.1,0.1-0.2,0.2-0.3,0.4c-0.1,0.2-0.2,0.4-0.2,0.6
		c-0.1,0.2-0.1,0.4-0.1,0.7l-0.4,3.5h-1.1l0.8-6.5h1.1l-0.1,0.9h0C-1037.5-355.1-1037-355.5-1036.5-355.5z M-1031.5-354.3l0.1-1h1.1
		l-0.8,6.2c-0.1,0.5-0.2,0.9-0.3,1.3c-0.1,0.4-0.3,0.6-0.4,0.9c-0.2,0.2-0.4,0.4-0.6,0.5c-0.2,0.1-0.5,0.2-0.9,0.2
		c-0.2,0-0.4,0-0.6-0.1c-0.2-0.1-0.4-0.2-0.5-0.4c-0.2-0.2-0.3-0.4-0.4-0.7c-0.1-0.3-0.2-0.6-0.2-1h1.1c0,0.2,0,0.3,0.1,0.4
		c0,0.1,0.1,0.2,0.2,0.3c0.1,0.1,0.1,0.1,0.2,0.2c0.1,0,0.2,0,0.3,0c0.2,0,0.3-0.1,0.4-0.2c0.1-0.1,0.2-0.3,0.3-0.5
		c0.1-0.2,0.2-0.4,0.2-0.7c0.1-0.3,0.1-0.6,0.2-0.9l0,0c-0.3,0.6-0.6,0.9-1.1,0.9c-0.2,0-0.5-0.1-0.6-0.2c-0.2-0.1-0.4-0.3-0.5-0.5
		c-0.1-0.2-0.2-0.5-0.3-0.8c-0.1-0.3-0.1-0.7-0.1-1.1c0-0.5,0-1,0.1-1.4s0.2-0.9,0.4-1.3c0.2-0.4,0.4-0.7,0.6-0.9
		c0.3-0.2,0.5-0.3,0.9-0.3c0.3,0,0.5,0.1,0.7,0.3C-1031.8-355-1031.6-354.7-1031.5-354.3L-1031.5-354.3z M-1031.8-351.9
		c0-0.3,0.1-0.6,0.1-0.9c0-0.4-0.1-0.8-0.2-1c-0.1-0.3-0.3-0.4-0.6-0.4c-0.2,0-0.3,0.1-0.5,0.2c-0.1,0.2-0.3,0.4-0.3,0.6
		c-0.1,0.2-0.2,0.5-0.2,0.8c0,0.3-0.1,0.6-0.1,0.8c0,0.2,0,0.4,0,0.6c0,0.2,0.1,0.3,0.1,0.5c0.1,0.1,0.1,0.2,0.2,0.3
		c0.1,0.1,0.2,0.1,0.3,0.1c0.2,0,0.4-0.1,0.5-0.2c0.1-0.2,0.3-0.4,0.4-0.6C-1031.9-351.3-1031.8-351.6-1031.8-351.9z M-1022.8-355.2
		c0,0.5-0.1,0.9-0.2,1.3c-0.1,0.4-0.3,0.7-0.5,1c-0.2,0.3-0.4,0.5-0.7,0.6c-0.3,0.1-0.5,0.2-0.8,0.2h-1.5l-0.4,3.2h-1.2l1.1-9h2.2
		c0.3,0,0.5,0,0.8,0.1c0.2,0.1,0.4,0.2,0.6,0.4c0.2,0.2,0.3,0.5,0.4,0.8C-1022.9-356.1-1022.8-355.7-1022.8-355.2z M-1024.3-353.9
		c0.2-0.3,0.3-0.7,0.3-1.2c0-0.2,0-0.4-0.1-0.6c-0.1-0.1-0.1-0.3-0.2-0.3c-0.1-0.1-0.2-0.1-0.3-0.2c-0.1,0-0.2-0.1-0.3-0.1h-1
		l-0.3,2.7h1.2C-1024.7-353.6-1024.5-353.7-1024.3-353.9z M-1019.6-355.4l-0.2,1.7c-0.1,0-0.2-0.1-0.2-0.1c-0.1,0-0.2,0-0.2,0
		c-0.2,0-0.4,0.1-0.5,0.2c-0.1,0.1-0.3,0.3-0.4,0.5c-0.1,0.2-0.2,0.4-0.2,0.7c-0.1,0.3-0.1,0.5-0.1,0.8l-0.4,2.9h-1.1l0.8-6.5h1
		l-0.2,1.2l0,0c0.1-0.5,0.3-0.8,0.6-1c0.2-0.2,0.5-0.3,0.8-0.3C-1019.8-355.5-1019.7-355.5-1019.6-355.4z M-1016.4-354.8
		c0.2,0.2,0.3,0.5,0.4,0.9c0.1,0.3,0.1,0.8,0.1,1.2c0,0.6-0.1,1.1-0.2,1.6c-0.1,0.5-0.3,0.9-0.5,1.3c-0.2,0.4-0.4,0.7-0.7,0.9
		c-0.3,0.2-0.6,0.3-1,0.3c-0.6,0-1-0.2-1.3-0.7c-0.3-0.5-0.5-1.2-0.5-2.1c0-0.6,0.1-1.1,0.2-1.6c0.1-0.5,0.3-0.9,0.5-1.3
		c0.2-0.4,0.4-0.7,0.7-0.9c0.3-0.2,0.6-0.3,1-0.3c0.3,0,0.5,0.1,0.8,0.2C-1016.7-355.2-1016.6-355-1016.4-354.8z M-1017-351.8
		c0-0.3,0.1-0.6,0.1-0.9c0-0.4-0.1-0.8-0.2-1c-0.1-0.3-0.3-0.4-0.6-0.4c-0.2,0-0.4,0.1-0.5,0.3c-0.1,0.2-0.3,0.4-0.4,0.7
		c-0.1,0.3-0.2,0.6-0.2,0.9c0,0.3-0.1,0.6-0.1,0.9c0,0.2,0,0.4,0.1,0.6c0,0.2,0.1,0.3,0.2,0.5c0.1,0.1,0.1,0.2,0.2,0.3
		c0.1,0.1,0.2,0.1,0.3,0.1c0.2,0,0.4-0.1,0.5-0.3c0.1-0.2,0.3-0.4,0.4-0.7S-1017.1-351.5-1017-351.8z M-1009.3-355.1
		c0.1,0.1,0.2,0.3,0.3,0.5c0.1,0.2,0.1,0.5,0.1,0.7c0,0.2,0,0.4,0,0.6c0,0.2-0.1,0.4-0.1,0.6l-0.5,3.8h-1.1l0.5-4.1
		c0-0.2,0-0.3,0-0.5c0-0.2,0-0.4-0.1-0.5c-0.1-0.1-0.2-0.2-0.3-0.2c-0.1,0-0.3,0.1-0.4,0.2s-0.2,0.3-0.3,0.4
		c-0.1,0.2-0.2,0.4-0.2,0.6c-0.1,0.2-0.1,0.4-0.1,0.6l-0.4,3.5h-1.1l0.5-4.1c0-0.2,0-0.3,0-0.5c0-0.2,0-0.4-0.1-0.5
		c-0.1-0.1-0.2-0.2-0.3-0.2c-0.1,0-0.3,0.1-0.4,0.2c-0.1,0.1-0.2,0.3-0.3,0.4c-0.1,0.2-0.2,0.4-0.2,0.6c-0.1,0.2-0.1,0.4-0.1,0.6
		l-0.4,3.5h-1.1l0.8-6.5h1.1l-0.1,0.9h0c0.2-0.4,0.4-0.7,0.6-0.8c0.2-0.2,0.5-0.3,0.8-0.3c0.2,0,0.5,0.1,0.6,0.3
		c0.2,0.2,0.3,0.5,0.3,0.9c0.1-0.2,0.2-0.3,0.3-0.5c0.1-0.1,0.2-0.3,0.3-0.4c0.1-0.1,0.2-0.2,0.4-0.2c0.1-0.1,0.3-0.1,0.4-0.1
		c0.2,0,0.3,0,0.5,0.1C-1009.6-355.3-1009.4-355.2-1009.3-355.1z M-1004.9-354.8c0.2,0.2,0.3,0.5,0.4,0.9c0.1,0.3,0.1,0.8,0.1,1.2
		c0,0.6-0.1,1.1-0.2,1.6c-0.1,0.5-0.3,0.9-0.5,1.3c-0.2,0.4-0.4,0.7-0.7,0.9c-0.3,0.2-0.6,0.3-1,0.3c-0.6,0-1-0.2-1.3-0.7
		c-0.3-0.5-0.5-1.2-0.5-2.1c0-0.6,0.1-1.1,0.2-1.6c0.1-0.5,0.3-0.9,0.5-1.3c0.2-0.4,0.4-0.7,0.7-0.9c0.3-0.2,0.6-0.3,1-0.3
		c0.3,0,0.5,0.1,0.8,0.2C-1005.2-355.2-1005-355-1004.9-354.8z M-1005.5-351.8c0-0.3,0.1-0.6,0.1-0.9c0-0.4-0.1-0.8-0.2-1
		c-0.1-0.3-0.3-0.4-0.6-0.4c-0.2,0-0.4,0.1-0.5,0.3c-0.1,0.2-0.3,0.4-0.4,0.7c-0.1,0.3-0.2,0.6-0.2,0.9c0,0.3-0.1,0.6-0.1,0.9
		c0,0.2,0,0.4,0,0.6c0,0.2,0.1,0.3,0.2,0.5c0.1,0.1,0.1,0.2,0.2,0.3c0.1,0.1,0.2,0.1,0.3,0.1c0.2,0,0.4-0.1,0.5-0.3
		c0.1-0.2,0.3-0.4,0.4-0.7C-1005.6-351.2-1005.6-351.5-1005.5-351.8z M-1002.2-350.1c0,0,0.1,0,0.1,0c0.1,0,0.3,0,0.4,0l-0.2,1.4
		c-0.1,0-0.2,0-0.3,0c-0.1,0-0.2,0-0.3,0c-0.1,0-0.3,0-0.4-0.1c-0.1,0-0.2-0.1-0.3-0.2c-0.1-0.1-0.2-0.2-0.2-0.4
		c-0.1-0.2-0.1-0.4-0.1-0.7c0-0.1,0-0.2,0-0.3c0-0.1,0-0.2,0-0.3l0.4-3.5h-0.7l0.2-1.2h0.7l0.2-2h1.1l-0.2,2h0.8l-0.2,1.2h-0.8
		l-0.4,3.2c0,0.1,0,0.1,0,0.2c0,0.1,0,0.1,0,0.1c0,0.1,0,0.2,0,0.3c0,0.1,0.1,0.1,0.1,0.1C-1002.3-350.1-1002.3-350.1-1002.2-350.1z
		 M-1000.1-357.8h1.1l-0.2,1.5h-1.1L-1000.1-357.8z M-1001.3-348.8l0.8-6.5h1.1l-0.9,6.5H-1001.3z M-995.5-354.8
		c0.2,0.2,0.3,0.5,0.4,0.9c0.1,0.3,0.1,0.8,0.1,1.2c0,0.6-0.1,1.1-0.2,1.6c-0.1,0.5-0.3,0.9-0.5,1.3c-0.2,0.4-0.4,0.7-0.7,0.9
		c-0.3,0.2-0.6,0.3-1,0.3c-0.6,0-1-0.2-1.3-0.7c-0.3-0.5-0.5-1.2-0.5-2.1c0-0.6,0.1-1.1,0.2-1.6c0.1-0.5,0.3-0.9,0.5-1.3
		c0.2-0.4,0.4-0.7,0.7-0.9c0.3-0.2,0.6-0.3,1-0.3c0.3,0,0.5,0.1,0.8,0.2C-995.9-355.2-995.7-355-995.5-354.8z M-996.2-351.8
		c0-0.3,0.1-0.6,0.1-0.9c0-0.4-0.1-0.8-0.2-1c-0.1-0.3-0.3-0.4-0.6-0.4c-0.2,0-0.4,0.1-0.5,0.3c-0.1,0.2-0.3,0.4-0.4,0.7
		c-0.1,0.3-0.2,0.6-0.2,0.9c0,0.3-0.1,0.6-0.1,0.9c0,0.2,0,0.4,0.1,0.6c0,0.2,0.1,0.3,0.2,0.5c0.1,0.1,0.1,0.2,0.2,0.3
		c0.1,0.1,0.2,0.1,0.3,0.1c0.2,0,0.4-0.1,0.5-0.3c0.1-0.2,0.3-0.4,0.4-0.7C-996.3-351.2-996.2-351.5-996.2-351.8z M-991.6-355.5
		c0.8,0,1.2,0.6,1.2,1.8c0,0.1,0,0.2,0,0.3c0,0.1,0,0.2,0,0.3c0,0.1,0,0.2,0,0.3c0,0.1,0,0.2,0,0.2l-0.5,3.8h-1.1l0.5-3.8
		c0-0.1,0-0.2,0-0.4c0-0.2,0-0.3,0-0.4c0-0.2-0.1-0.4-0.2-0.5c-0.1-0.1-0.2-0.2-0.4-0.2c-0.2,0-0.3,0.1-0.4,0.2
		c-0.1,0.1-0.2,0.2-0.3,0.4c-0.1,0.2-0.2,0.4-0.2,0.6c-0.1,0.2-0.1,0.4-0.1,0.7l-0.4,3.5h-1.1l0.8-6.5h1.1l-0.1,0.9h0
		C-992.7-355.1-992.2-355.5-991.6-355.5z M-982.8-357c0.2,0.3,0.4,0.7,0.5,1.2c0.1,0.5,0.2,1,0.2,1.7c0,0.7-0.1,1.4-0.2,2.1
		c-0.1,0.7-0.3,1.3-0.6,1.8c-0.3,0.5-0.6,0.9-0.9,1.2c-0.4,0.3-0.8,0.4-1.3,0.4c-0.8,0-1.4-0.3-1.8-1c-0.4-0.7-0.6-1.7-0.6-3
		c0-0.7,0.1-1.4,0.2-2.1c0.1-0.7,0.3-1.2,0.6-1.7c0.3-0.5,0.6-0.9,1-1.2c0.4-0.3,0.8-0.4,1.3-0.4c0.4,0,0.7,0.1,1,0.2
		C-983.3-357.6-983-357.4-982.8-357z M-983.5-352.7c0.1-0.4,0.1-0.9,0.1-1.3c0-0.3,0-0.6-0.1-0.9c0-0.3-0.1-0.5-0.2-0.7
		c-0.1-0.2-0.2-0.4-0.4-0.5c-0.2-0.1-0.3-0.2-0.6-0.2c-0.3,0-0.6,0.1-0.8,0.3s-0.4,0.5-0.6,0.9c-0.1,0.4-0.3,0.8-0.3,1.2
		c-0.1,0.5-0.1,0.9-0.1,1.3c0,0.3,0,0.6,0.1,0.9c0,0.3,0.1,0.5,0.2,0.7c0.1,0.2,0.2,0.4,0.4,0.5c0.2,0.1,0.3,0.2,0.6,0.2
		c0.3,0,0.6-0.1,0.8-0.3c0.2-0.2,0.4-0.5,0.6-0.9C-983.7-351.8-983.5-352.2-983.5-352.7z M-979.1-355.3l-0.2,1.2h-0.8l-0.7,5.3h-1.1
		l0.7-5.3h-0.6l0.2-1.2h0.7c0.1-0.4,0.1-0.8,0.2-1.1c0.1-0.3,0.1-0.6,0.3-0.8c0.1-0.2,0.3-0.4,0.4-0.5c0.2-0.1,0.4-0.2,0.7-0.2
		c0.1,0,0.2,0,0.4,0c0.1,0,0.2,0,0.4,0.1l-0.2,1.3c-0.1,0-0.1,0-0.2,0c-0.1,0-0.1,0-0.2,0c-0.1,0-0.2,0-0.3,0.1
		c-0.1,0.1-0.1,0.1-0.2,0.2c0,0.1-0.1,0.2-0.1,0.4c0,0.1,0,0.3-0.1,0.5H-979.1z M-976.5-355.3l-0.2,1.2h-0.8l-0.7,5.3h-1.1l0.7-5.3
		h-0.7l0.2-1.2h0.7c0.1-0.4,0.1-0.8,0.2-1.1c0.1-0.3,0.1-0.6,0.3-0.8c0.1-0.2,0.3-0.4,0.4-0.5c0.2-0.1,0.4-0.2,0.7-0.2
		c0.1,0,0.2,0,0.4,0c0.1,0,0.2,0,0.4,0.1l-0.2,1.3c-0.1,0-0.1,0-0.2,0c-0.1,0-0.1,0-0.2,0c-0.1,0-0.2,0-0.3,0.1
		c-0.1,0.1-0.1,0.1-0.2,0.2c0,0.1-0.1,0.2-0.1,0.4c0,0.1,0,0.3-0.1,0.5H-976.5z M-975.6-357.8h1.1l-0.2,1.5h-1.1L-975.6-357.8z
		 M-976.8-348.8l0.8-6.5h1.1l-0.9,6.5H-976.8z M-973.3-353.2c-0.1,0.3-0.1,0.6-0.2,0.9c0,0.3-0.1,0.6-0.1,0.9c0,0.2,0,0.4,0,0.5
		c0,0.2,0.1,0.3,0.1,0.4c0.1,0.1,0.1,0.2,0.2,0.3c0.1,0.1,0.2,0.1,0.4,0.1c0.1,0,0.2,0,0.3-0.1c0.1-0.1,0.2-0.2,0.3-0.3
		c0.1-0.1,0.1-0.2,0.2-0.4c0-0.1,0.1-0.3,0.1-0.5h1.1c-0.2,0.8-0.4,1.4-0.8,1.9c-0.3,0.4-0.8,0.7-1.3,0.7c-0.6,0-1-0.2-1.3-0.7
		c-0.3-0.5-0.5-1.2-0.5-2.1c0-0.6,0.1-1.1,0.2-1.6c0.1-0.5,0.2-0.9,0.4-1.3c0.2-0.4,0.4-0.7,0.7-0.9c0.3-0.2,0.6-0.3,1-0.3
		c0.2,0,0.5,0,0.7,0.1c0.2,0.1,0.4,0.2,0.6,0.4c0.2,0.2,0.3,0.4,0.4,0.8c0.1,0.3,0.1,0.7,0.2,1.1h-1.1c0-0.4-0.1-0.7-0.2-0.8
		c-0.1-0.2-0.3-0.3-0.6-0.3c-0.2,0-0.4,0.1-0.5,0.3C-973.1-353.7-973.2-353.5-973.3-353.2z M-966.8-354.8c0.2,0.2,0.3,0.5,0.4,0.9
		c0.1,0.4,0.1,0.8,0.1,1.2c0,0.3,0,0.7-0.1,1h-2.9c0,0,0,0.1,0,0.1v0.3c0,0.4,0.1,0.7,0.2,0.9c0.1,0.2,0.4,0.4,0.7,0.4
		c0.1,0,0.2,0,0.3-0.1c0.1-0.1,0.2-0.1,0.2-0.2c0.1-0.1,0.1-0.2,0.2-0.3c0-0.1,0.1-0.2,0.1-0.3h1.1c-0.1,0.4-0.2,0.7-0.3,1
		c-0.1,0.3-0.3,0.5-0.4,0.7c-0.2,0.2-0.4,0.3-0.6,0.4c-0.2,0.1-0.5,0.1-0.8,0.1c-0.3,0-0.5-0.1-0.7-0.2c-0.2-0.1-0.4-0.3-0.6-0.5
		c-0.2-0.2-0.3-0.5-0.4-0.9c-0.1-0.4-0.1-0.8-0.1-1.2c0-0.5,0.1-1,0.2-1.5c0.1-0.5,0.2-0.9,0.4-1.3c0.2-0.4,0.4-0.7,0.7-0.9
		s0.6-0.3,0.9-0.3c0.3,0,0.5,0.1,0.8,0.2C-967.2-355.2-967-355-966.8-354.8z M-969.2-352.7h1.8c0-0.2,0-0.3,0-0.5
		c0-0.2-0.1-0.3-0.1-0.5c-0.1-0.1-0.1-0.2-0.2-0.3c-0.1-0.1-0.2-0.1-0.4-0.1c-0.2,0-0.3,0-0.4,0.1c-0.1,0.1-0.2,0.2-0.3,0.3
		c-0.1,0.1-0.2,0.3-0.2,0.4C-969.1-353.1-969.2-352.9-969.2-352.7z"/>
</g>
</svg>
