<?xml version="1.0" encoding="UTF-8" standalone="no"?>
<!DOCTYPE svg PUBLIC "-//W3C//DTD SVG 1.1//EN" "http://www.w3.org/Graphics/SVG/1.1/DTD/svg11.dtd">
<svg width="100%" height="100%" viewBox="0 0 1025 208" version="1.1" xmlns="http://www.w3.org/2000/svg" xmlns:xlink="http://www.w3.org/1999/xlink" xml:space="preserve" xmlns:serif="http://www.serif.com/" style="fill-rule:evenodd;clip-rule:evenodd;stroke-linejoin:round;stroke-miterlimit:2;">
    <g id="Artboard1" transform="matrix(2.37266,0,0,1,0,0)">
        <rect x="0" y="0" width="432" height="208" style="fill:none;"/>
        <g transform="matrix(0.866761,0,0,2.05653,-472.11,-2144.93)">
            <g transform="matrix(1,0,0,1,724.88,1066.34)">
                <path d="M0,7.992C-0.197,8.248 -0.427,8.478 -0.683,8.675C-2.322,9.937 -4.675,9.631 -5.937,7.992C-6.707,6.865 -7.079,5.513 -6.995,4.151C-7.103,2.698 -6.728,1.25 -5.926,0.034C-5.246,-0.901 -4.151,-1.443 -2.995,-1.416C-1.818,-1.448 -0.702,-0.898 -0.011,0.055C0.777,1.172 1.172,2.52 1.111,3.886C1.199,5.339 0.809,6.781 0,7.992M-2.942,-3.458C-5.37,-3.513 -7.602,-2.132 -8.635,0.066C-9.2,1.251 -9.482,2.552 -9.461,3.865L-9.492,4.034C-9.588,5.99 -8.941,7.91 -7.683,9.41C-6.472,10.781 -4.705,11.528 -2.878,11.442C-1.667,11.466 -0.473,11.143 0.561,10.511C1.561,9.887 2.359,8.986 2.857,7.918C3.405,6.738 3.68,5.451 3.662,4.151L3.662,3.981C3.762,2.013 3.111,0.08 1.841,-1.426C0.634,-2.79 -1.123,-3.536 -2.942,-3.458" style="fill:rgb(220,225,214);fill-rule:nonzero;"/>
            </g>
            <g transform="matrix(1,0,0,1,732.786,1056.76)">
                <path d="M0,20.758L2.508,20.758L2.508,8.292L5.577,8.292L5.577,6.387L2.455,6.387L2.455,4.873C2.405,4.148 2.636,3.432 3.101,2.873C3.589,2.384 4.262,2.126 4.952,2.164C5.397,2.162 5.84,2.205 6.275,2.291L6.413,0.312C5.861,0.162 5.292,0.083 4.72,0.08C3.43,0 2.165,0.46 1.228,1.349C0.36,2.327 -0.082,3.611 0,4.916L0,6.387L-2.275,6.387L-2.275,8.292L0,8.292L0,20.758Z" style="fill:rgb(220,225,214);fill-rule:nonzero;"/>
            </g>
            <g transform="matrix(1,0,0,1,742.448,1060.74)">
                <path d="M0,-2.819C-0.396,-2.84 -0.782,-2.69 -1.058,-2.406C-1.3,-2.128 -1.428,-1.769 -1.418,-1.401C-1.441,-1.039 -1.323,-0.683 -1.09,-0.406C-0.812,-0.125 -0.426,0.021 -0.032,-0.004C0.034,0.002 0.1,0.004 0.167,-0C0.902,-0.038 1.467,-0.666 1.429,-1.401C1.436,-1.771 1.304,-2.13 1.058,-2.406C0.779,-2.686 0.395,-2.836 0,-2.819" style="fill:rgb(220,225,214);fill-rule:nonzero;"/>
            </g>
            <g transform="matrix(1,0,0,1,0,318.339)">
                <rect x="741.199" y="744.81" width="2.455" height="14.371" style="fill:rgb(220,225,214);"/>
            </g>
            <g transform="matrix(1,0,0,1,756.089,1064.07)">
                <path d="M0,13.044C0.844,12.639 1.572,12.027 2.117,11.266C2.617,10.58 2.911,9.765 2.963,8.917L0.646,8.917C0.587,9.699 0.203,10.42 -0.413,10.906C-1.061,11.435 -1.873,11.719 -2.709,11.711C-3.833,11.759 -4.911,11.258 -5.598,10.367C-6.363,9.241 -6.735,7.894 -6.656,6.536L-6.656,6.081C-6.739,4.698 -6.367,3.327 -5.598,2.176C-4.911,1.279 -3.827,0.776 -2.699,0.832C-1.827,0.808 -0.982,1.131 -0.349,1.731C0.286,2.327 0.665,3.147 0.709,4.017L3.027,4.017C3.004,2.583 2.387,1.222 1.323,0.26C0.22,-0.717 -1.215,-1.235 -2.688,-1.19C-3.884,-1.218 -5.063,-0.902 -6.085,-0.279C-7.081,0.313 -7.878,1.19 -8.371,2.239C-8.905,3.411 -9.169,4.688 -9.143,5.975L-9.143,6.398C-9.252,8.337 -8.633,10.246 -7.408,11.753C-5.486,13.756 -2.486,14.279 0,13.044" style="fill:rgb(220,225,214);fill-rule:nonzero;"/>
            </g>
            <g transform="matrix(1,0,0,1,763.285,1057.92)">
                <path d="M0,2.813C0.394,2.836 0.779,2.689 1.058,2.411C1.307,2.14 1.44,1.783 1.429,1.416C1.436,1.046 1.304,0.687 1.058,0.411C0.781,0.128 0.395,-0.022 0,-0.002C-0.396,-0.025 -0.782,0.126 -1.058,0.411C-1.304,0.687 -1.436,1.046 -1.429,1.416C-1.44,1.783 -1.307,2.14 -1.058,2.411C-0.78,2.692 -0.394,2.838 0,2.813" style="fill:rgb(220,225,214);fill-rule:nonzero;"/>
            </g>
            <g transform="matrix(1,0,0,1,0,318.339)">
                <rect x="762.057" y="744.81" width="2.455" height="14.371" style="fill:rgb(220,225,214);"/>
            </g>
            <g transform="matrix(1,0,0,1,776.576,1074.64)">
                <path d="M0,-8.954C0.517,-8.305 0.771,-7.485 0.709,-6.657L0.709,2.867L3.164,2.867L3.164,-6.657C3.143,-10.086 1.612,-11.801 -1.429,-11.801C-3.116,-11.821 -4.712,-11.034 -5.725,-9.684L-5.81,-11.494L-8.148,-11.494L-8.148,2.846L-5.693,2.846L-5.693,-7.388C-5.379,-8.059 -4.893,-8.635 -4.286,-9.06C-3.669,-9.499 -2.926,-9.725 -2.169,-9.705C-1.373,-9.772 -0.585,-9.499 0,-8.954" style="fill:rgb(220,225,214);fill-rule:nonzero;"/>
            </g>
            <g transform="matrix(1,0,0,1,791.953,1067.1)">
                <path d="M0,6.396C-0.333,7.054 -0.856,7.596 -1.503,7.952C-2.168,8.339 -2.924,8.543 -3.693,8.544L-3.714,8.544C-4.43,8.574 -5.133,8.345 -5.693,7.899C-6.211,7.444 -6.491,6.777 -6.455,6.089C-6.455,4.325 -4.952,3.443 -1.947,3.443L0,3.443L0,6.396ZM0.381,10.417L3.006,10.417L3.006,10.206C2.625,9.192 2.452,8.112 2.498,7.031L2.498,0.417C2.532,-0.881 1.999,-2.129 1.037,-3.002C-0.059,-3.889 -1.449,-4.335 -2.857,-4.25C-3.844,-4.259 -4.822,-4.057 -5.725,-3.658C-6.557,-3.327 -7.287,-2.783 -7.842,-2.081C-8.326,-1.481 -8.595,-0.735 -8.604,0.036L-6.138,0.036C-6.127,-0.615 -5.794,-1.218 -5.249,-1.573C-4.605,-2.033 -3.828,-2.267 -3.037,-2.24C-2.21,-2.301 -1.394,-2.026 -0.773,-1.477C-0.242,-0.929 0.037,-0.186 0,0.575L0,1.708L-2.391,1.708C-4.08,1.605 -5.758,2.039 -7.185,2.946C-8.315,3.742 -8.961,5.058 -8.9,6.438C-8.928,7.605 -8.426,8.722 -7.535,9.475C-6.567,10.3 -5.324,10.731 -4.053,10.682C-2.498,10.696 -1.009,10.05 0.042,8.904C0.08,9.422 0.195,9.932 0.381,10.417" style="fill:rgb(220,225,214);fill-rule:nonzero;"/>
            </g>
            <g transform="matrix(1,0,0,1,724.775,1096.03)">
                <path d="M0,-2.653L-6.148,-2.653C-6.063,-3.604 -5.694,-4.507 -5.09,-5.246C-4.556,-5.851 -3.781,-6.189 -2.974,-6.166C-2.182,-6.213 -1.409,-5.912 -0.857,-5.341C-0.305,-4.645 -0.003,-3.784 0,-2.896L0,-2.653ZM-2.953,-8.759C-5.385,-8.787 -7.608,-7.387 -8.635,-5.182C-9.201,-3.982 -9.483,-2.667 -9.461,-1.341L-9.461,-0.939C-9.55,0.963 -8.862,2.82 -7.556,4.205C-6.24,5.514 -4.437,6.215 -2.582,6.141C-1.447,6.165 -0.323,5.918 0.698,5.422C1.632,4.977 2.428,4.29 3.005,3.432L1.206,1.749C0.37,2.902 -0.979,3.57 -2.402,3.538C-3.382,3.561 -4.328,3.178 -5.016,2.48C-5.747,1.72 -6.173,0.718 -6.212,-0.335L3.175,-0.335L3.175,-1.637C3.296,-3.536 2.729,-5.414 1.577,-6.928C0.423,-8.195 -1.243,-8.868 -2.953,-8.759" style="fill:rgb(220,225,214);fill-rule:nonzero;"/>
            </g>
            <g transform="matrix(1,0,0,1,739.59,1095)">
                <path d="M0,-0.563C-0.948,-1.02 -1.951,-1.355 -2.984,-1.558C-3.862,-1.699 -4.712,-1.977 -5.503,-2.383C-5.902,-2.629 -6.14,-3.068 -6.127,-3.537C-6.141,-4.059 -5.89,-4.552 -5.461,-4.849C-4.957,-5.183 -4.361,-5.349 -3.757,-5.325C-3.089,-5.357 -2.435,-5.133 -1.926,-4.701C-1.471,-4.318 -1.214,-3.75 -1.228,-3.156L1.947,-3.156C1.983,-4.444 1.406,-5.673 0.391,-6.468C-0.805,-7.361 -2.276,-7.81 -3.768,-7.738C-5.199,-7.798 -6.606,-7.356 -7.746,-6.489C-8.738,-5.769 -9.321,-4.614 -9.313,-3.389C-9.289,-1.868 -8.329,-0.521 -6.9,-0.002C-6.021,0.4 -5.097,0.695 -4.148,0.876C-3.328,1.012 -2.534,1.28 -1.799,1.67C-1.336,1.947 -1.061,2.454 -1.079,2.993C-1.052,3.489 -1.274,3.966 -1.672,4.263C-2.25,4.626 -2.928,4.796 -3.609,4.749C-4.363,4.789 -5.109,4.573 -5.725,4.136C-6.262,3.71 -6.577,3.064 -6.582,2.379L-9.757,2.379C-9.753,3.238 -9.487,4.076 -8.995,4.781C-8.458,5.541 -7.727,6.144 -6.879,6.527C-5.881,6.974 -4.797,7.195 -3.704,7.173C-2.199,7.247 -0.711,6.823 0.529,5.967C1.562,5.244 2.162,4.051 2.127,2.792C2.149,2.103 1.969,1.422 1.609,0.834C1.198,0.241 0.645,-0.239 0,-0.563" style="fill:rgb(220,225,214);fill-rule:nonzero;"/>
            </g>
            <g transform="matrix(1,0,0,1,747.739,1103.04)">
                <path d="M0,-11.5C0.533,-12.563 1.65,-13.205 2.836,-13.13C3.82,-13.176 4.755,-12.697 5.291,-11.87C5.913,-10.846 6.211,-9.659 6.149,-8.463L6.117,-8.463C6.211,-7.159 5.921,-5.856 5.281,-4.717C4.744,-3.915 3.832,-3.447 2.868,-3.479C1.663,-3.409 0.534,-4.068 0,-5.151L0,-11.5ZM-0.032,-2.463C0.096,-2.336 0.23,-2.216 0.369,-2.104C2.643,-0.268 5.974,-0.623 7.81,-2.896C8.885,-4.445 9.417,-6.305 9.323,-8.188L9.323,-8.378C9.438,-10.306 8.914,-12.218 7.831,-13.818C6.865,-15.108 5.325,-15.84 3.714,-15.775C2.227,-15.842 0.795,-15.203 -0.148,-14.051L-0.286,-15.511L-3.259,-15.511L-3.259,4.342L-0.032,4.342L-0.032,-2.463Z" style="fill:rgb(220,225,214);fill-rule:nonzero;"/>
            </g>
            <g transform="matrix(1,0,0,1,767.888,1092.05)">
                <path d="M0,5.814C-0.295,6.343 -0.736,6.776 -1.27,7.063C-1.82,7.37 -2.439,7.53 -3.069,7.528C-3.669,7.56 -4.259,7.363 -4.72,6.978C-5.134,6.6 -5.358,6.057 -5.334,5.497C-5.365,4.79 -5.024,4.119 -4.434,3.729C-3.616,3.26 -2.677,3.043 -1.736,3.105L0,3.105L0,5.814ZM3.281,0.057C3.317,-1.308 2.738,-2.617 1.704,-3.509C0.556,-4.403 -0.875,-4.854 -2.328,-4.779C-3.36,-4.795 -4.383,-4.597 -5.334,-4.197C-6.168,-3.851 -6.898,-3.293 -7.45,-2.578C-7.955,-1.955 -8.232,-1.178 -8.233,-0.377L-5.059,-0.377C-5.064,-0.928 -4.804,-1.447 -4.36,-1.774C-3.838,-2.16 -3.199,-2.355 -2.55,-2.324C-1.853,-2.379 -1.165,-2.137 -0.656,-1.657C-0.227,-1.163 -0.004,-0.523 -0.032,0.131L-0.032,1.073L-2.011,1.073C-3.715,0.99 -5.404,1.433 -6.847,2.343C-7.962,3.145 -8.601,4.452 -8.551,5.825C-8.571,6.996 -8.071,8.116 -7.186,8.883C-5.023,10.668 -1.855,10.507 0.116,8.513C0.179,8.972 0.304,9.421 0.487,9.846L3.82,9.888L3.82,9.666C3.422,8.686 3.238,7.633 3.281,6.576L3.281,0.057Z" style="fill:rgb(220,225,214);fill-rule:nonzero;"/>
            </g>
            <g transform="matrix(1,0,0,1,776.481,1084.15)">
                <path d="M0,-1.323C-0.57,-0.634 -0.867,0.239 -0.836,1.132L1.143,1.238C1.126,0.874 1.251,0.517 1.492,0.243C1.709,-0.003 2.022,-0.142 2.349,-0.138C2.564,-0.138 2.777,-0.109 2.984,-0.053C3.323,0.075 3.649,0.234 3.958,0.423C4.292,0.629 4.647,0.799 5.016,0.931C5.308,1.018 5.612,1.057 5.916,1.048C6.731,1.064 7.509,0.71 8.032,0.085C8.603,-0.595 8.901,-1.462 8.868,-2.349L6.921,-2.561C6.937,-2.194 6.812,-1.834 6.572,-1.556C6.349,-1.313 6.033,-1.178 5.704,-1.185C5.078,-1.235 4.475,-1.438 3.947,-1.778C3.397,-2.129 2.768,-2.336 2.117,-2.381C1.285,-2.378 0.502,-1.986 0,-1.323" style="fill:rgb(220,225,214);fill-rule:nonzero;"/>
            </g>
            <g transform="matrix(1,0,0,1,786.418,1087.2)">
                <path d="M0,14.722L0,5.198C-0.056,1.776 -1.58,0.065 -4.572,0.065C-6.208,0 -7.779,0.714 -8.805,1.991L-8.9,0.33L-11.831,0.33L-11.831,14.69L-8.657,14.69L-8.657,4.468C-8.123,3.355 -6.98,2.665 -5.746,2.711C-5.04,2.641 -4.337,2.88 -3.82,3.367C-3.381,3.945 -3.17,4.664 -3.228,5.388L-3.228,14.722L0,14.722Z" style="fill:rgb(220,225,214);fill-rule:nonzero;"/>
            </g>
            <g transform="matrix(1,0,0,1,797.731,1091.6)">
                <path d="M0,6.265C-0.296,6.794 -0.736,7.227 -1.27,7.514C-1.82,7.821 -2.439,7.981 -3.069,7.979C-3.669,8.011 -4.259,7.814 -4.72,7.429C-5.134,7.051 -5.358,6.508 -5.334,5.948C-5.365,5.241 -5.024,4.57 -4.434,4.18C-3.616,3.711 -2.677,3.494 -1.736,3.556L0,3.556L0,6.265ZM3.27,0.55C3.321,-0.809 2.758,-2.119 1.736,-3.016C0.588,-3.91 -0.844,-4.361 -2.297,-4.286C-3.328,-4.302 -4.351,-4.103 -5.302,-3.704C-6.136,-3.358 -6.866,-2.799 -7.418,-2.085C-7.919,-1.46 -8.195,-0.684 -8.202,0.117L-5.027,0.117C-5.032,-0.434 -4.772,-0.954 -4.328,-1.28C-3.806,-1.665 -3.167,-1.86 -2.519,-1.831C-1.822,-1.886 -1.133,-1.644 -0.624,-1.164C-0.19,-0.672 0.034,-0.03 0,0.625L0,1.566L-1.979,1.566C-3.693,1.462 -5.397,1.89 -6.858,2.794C-7.976,3.594 -8.62,4.901 -8.572,6.276C-8.589,7.449 -8.085,8.569 -7.196,9.334C-6.219,10.183 -4.955,10.626 -3.661,10.572C-2.234,10.597 -0.864,10.012 0.106,8.964C0.168,9.423 0.293,9.872 0.476,10.297L3.82,10.339L3.82,10.117C3.412,9.14 3.224,8.085 3.27,7.027L3.27,0.55Z" style="fill:rgb(220,225,214);fill-rule:nonzero;"/>
            </g>
            <g transform="matrix(1,0,0,1,0,342.743)">
                <rect x="697.958" y="711.908" width="0.952" height="55.771" style="fill:rgb(220,225,214);"/>
            </g>
            <g transform="matrix(1,0,0,1,551.241,1069.42)">
                <path d="M0,-3.956C0.353,-6.39 1.446,-7.607 3.281,-7.607C4.127,-7.666 4.958,-7.362 5.567,-6.771C6.136,-6.136 6.413,-5.291 6.328,-4.443L6.35,-3.956L0,-3.956ZM3.333,-12.422C1.513,-12.469 -0.286,-12.023 -1.873,-11.131C-3.332,-10.276 -4.498,-9 -5.217,-7.469C-6.007,-5.763 -6.398,-3.899 -6.36,-2.019L-6.36,-1.49C-6.467,1.206 -5.424,3.822 -3.492,5.706C-1.454,7.602 1.262,8.598 4.043,8.468C5.635,8.481 7.212,8.153 8.667,7.505C9.984,6.959 11.131,6.071 11.99,4.933L9.122,1.536C7.999,2.947 6.267,3.734 4.466,3.653C3.399,3.698 2.353,3.351 1.524,2.679C0.726,1.985 0.195,1.035 0.021,-0.009L12.509,-0.009L12.509,-2.443C12.673,-5.116 11.792,-7.749 10.054,-9.787C8.298,-11.593 5.849,-12.554 3.333,-12.422" style="fill:rgb(220,225,214);fill-rule:nonzero;"/>
            </g>
            <g transform="matrix(1,0,0,1,585.137,1078.03)">
                <path d="M0,-20.676L-6.349,-20.676L-6.349,-6.516C-6.999,-5.464 -8.186,-4.867 -9.419,-4.971C-10.664,-4.858 -11.766,-5.776 -11.879,-7.022C-11.895,-7.202 -11.89,-7.384 -11.863,-7.564L-11.863,-20.676L-18.212,-20.676L-18.212,-7.606C-18.35,-5.612 -17.747,-3.638 -16.519,-2.061C-15.212,-0.705 -13.371,0 -11.493,-0.135C-9.378,-0.045 -7.353,-0.998 -6.074,-2.685L-5.884,-0.505L0,-0.505L0,-20.676Z" style="fill:rgb(220,225,214);fill-rule:nonzero;"/>
            </g>
            <g transform="matrix(1,0,0,1,598.672,1077.44)">
                <path d="M0,-20.441C-1.931,-20.423 -3.665,-19.258 -4.413,-17.478L-4.656,-20.092L-10.583,-20.092L-10.583,0.015L-4.233,0.015L-4.233,-12.684C-3.672,-13.922 -2.402,-14.536 -0.434,-14.536L1.683,-14.388L1.788,-20.219C1.206,-20.381 0.604,-20.456 0,-20.441" style="fill:rgb(220,225,214);fill-rule:nonzero;"/>
            </g>
            <g transform="matrix(1,0,0,1,607.138,1067.27)">
                <path d="M0,0.381L0,-0.751C0.18,-3.863 1.312,-5.429 3.408,-5.429C5.715,-5.429 6.879,-3.619 6.879,-0.011L6.879,0.667C6.822,4.11 5.679,5.831 3.45,5.831C2.402,5.878 1.41,5.361 0.847,4.476C0.182,3.219 -0.112,1.799 0,0.381M3.44,10.657C6.085,10.787 8.661,9.782 10.519,7.895C12.344,5.843 13.287,3.155 13.144,0.413L13.144,0.19C13.317,-2.596 12.398,-5.34 10.583,-7.461C8.722,-9.383 6.121,-10.406 3.45,-10.265C1.651,-10.307 -0.127,-9.872 -1.704,-9.006C-3.17,-8.165 -4.347,-6.899 -5.08,-5.376C-5.883,-3.703 -6.282,-1.866 -6.244,-0.011L-6.244,1.048C-6.266,3.661 -5.272,6.18 -3.471,8.074C-1.617,9.843 0.88,10.776 3.44,10.657" style="fill:rgb(220,225,214);fill-rule:nonzero;"/>
            </g>
            <g transform="matrix(1,0,0,1,628.42,1101.67)">
                <path d="M0,-38.221C0.556,-39.328 1.743,-39.97 2.974,-39.83C5.09,-39.83 6.149,-38.041 6.149,-34.464L6.149,-33.797C6.085,-30.34 5.055,-28.612 3.058,-28.612C1.801,-28.491 0.6,-29.161 0.042,-30.295L0,-38.221ZM0.011,-25.808C1.143,-24.479 2.815,-23.732 4.561,-23.776C6.811,-23.703 8.949,-24.754 10.265,-26.58C11.775,-28.777 12.519,-31.41 12.382,-34.073L12.382,-34.369C12.519,-37.051 11.776,-39.704 10.265,-41.925C8.906,-43.743 6.734,-44.77 4.466,-44.666C2.62,-44.719 0.86,-43.89 -0.275,-42.433L-0.413,-44.317L-6.275,-44.317L-6.275,-14.114L-8.836,-14.114L-8.836,-9.754L-6.265,-9.754L-6.265,0.247C-6.398,1.937 -5.841,3.61 -4.72,4.882C-3.389,6.001 -1.669,6.549 0.064,6.406C1.266,6.41 2.462,6.228 3.609,5.866L3.609,1.379C3.091,1.462 2.567,1.501 2.043,1.495C1.464,1.564 0.882,1.401 0.424,1.04C0.1,0.582 -0.046,0.022 0.011,-0.536L0.011,-9.754L3.323,-9.754L3.323,-14.114L0.011,-14.114L0.011,-25.808Z" style="fill:rgb(220,225,214);fill-rule:nonzero;"/>
            </g>
            <g transform="matrix(1,0,0,1,653.279,1066.29)">
                <path d="M0,2.265L-0.042,5.493C-0.294,5.954 -0.658,6.343 -1.101,6.625C-1.686,6.982 -2.363,7.159 -3.048,7.133C-3.588,7.151 -4.114,6.962 -4.519,6.604C-4.907,6.25 -5.12,5.743 -5.101,5.218C-5.101,3.249 -4.043,2.265 -1.82,2.265L0,2.265ZM-1.979,-1.079C-4.438,-1.237 -6.888,-0.659 -9.016,0.582C-10.628,1.702 -11.545,3.576 -11.44,5.535C-11.473,7.209 -10.736,8.804 -9.44,9.864C-8.099,11.02 -6.374,11.636 -4.603,11.588C-2.732,11.68 -0.93,10.869 0.243,9.408C0.358,10.036 0.558,10.644 0.836,11.218L7.112,11.218L7.112,10.901C6.488,9.58 6.193,8.127 6.254,6.667L6.254,-2.254C6.309,-4.228 5.469,-6.122 3.969,-7.407C2.228,-8.746 0.065,-9.415 -2.127,-9.291C-4.385,-9.388 -6.613,-8.749 -8.477,-7.471C-10.054,-6.412 -10.989,-4.629 -10.964,-2.73L-4.688,-2.73C-4.835,-3.801 -4.085,-4.788 -3.014,-4.935C-2.828,-4.96 -2.64,-4.959 -2.455,-4.931C-0.846,-4.931 -0.053,-4.01 -0.053,-2.148L-0.053,-1.09L-1.979,-1.079Z" style="fill:rgb(220,225,214);fill-rule:nonzero;"/>
            </g>
            <g transform="matrix(1,0,0,1,562.691,1100.01)">
                <path d="M0,-4.747C0.11,-6.955 -0.73,-9.104 -2.307,-10.652C-4.02,-12.172 -6.264,-12.956 -8.551,-12.832C-10.31,-12.88 -12.049,-12.445 -13.577,-11.573C-14.995,-10.729 -16.127,-9.479 -16.826,-7.985C-17.62,-6.298 -18.018,-4.452 -17.99,-2.588L-17.99,-2.334C-18.154,0.442 -17.249,3.176 -15.461,5.307C-13.644,7.203 -11.088,8.209 -8.466,8.058C-6.233,8.15 -4.048,7.394 -2.349,5.941C-0.794,4.57 0.067,2.575 0,0.502L-5.916,0.502C-5.86,1.239 -6.117,1.965 -6.625,2.502C-7.181,3.007 -7.917,3.266 -8.667,3.222C-9.597,3.287 -10.488,2.836 -10.985,2.047C-11.572,0.718 -11.82,-0.737 -11.704,-2.186C-11.717,-3.094 -11.675,-4.002 -11.577,-4.906C-11.302,-6.959 -10.35,-7.996 -8.731,-7.996C-7.957,-8.028 -7.208,-7.723 -6.677,-7.16C-6.129,-6.48 -5.857,-5.618 -5.916,-4.747L0,-4.747Z" style="fill:rgb(220,225,214);fill-rule:nonzero;"/>
            </g>
            <g transform="matrix(1,0,0,1,572.501,1104.71)">
                <path d="M0,-14.551L-0.201,-17.144L-6.085,-17.144L-6.085,2.963L0.19,2.963L0.19,-9.736C0.741,-10.985 2.011,-11.598 3.99,-11.598L6.106,-11.45L6.212,-17.281C5.644,-17.44 5.056,-17.514 4.466,-17.504C2.52,-17.503 0.763,-16.341 0,-14.551" style="fill:rgb(220,225,214);fill-rule:nonzero;"/>
            </g>
            <g transform="matrix(1,0,0,1,585.814,1099.56)">
                <path d="M0,-3.916C0.339,-6.35 1.439,-7.567 3.27,-7.567C4.119,-7.623 4.952,-7.32 5.566,-6.731C6.122,-6.088 6.396,-5.25 6.328,-4.403L6.35,-3.916L0,-3.916ZM3.334,-12.382C1.51,-12.427 -0.292,-11.981 -1.884,-11.091C-3.304,-10.217 -4.434,-8.943 -5.133,-7.429C-5.937,-5.734 -6.346,-3.877 -6.328,-2.001L-6.328,-1.471C-6.435,1.225 -5.393,3.841 -3.46,5.725C-1.429,7.611 1.273,8.606 4.043,8.487C5.621,8.495 7.183,8.167 8.625,7.524C9.946,6.981 11.097,6.092 11.958,4.952L9.09,1.555C7.965,2.963 6.235,3.749 4.434,3.672C3.367,3.719 2.32,3.372 1.492,2.698C0.707,2.007 0.186,1.064 0.021,0.031L12.53,0.031L12.53,-2.403C12.694,-5.076 11.813,-7.709 10.075,-9.747C8.315,-11.56 5.856,-12.522 3.334,-12.382" style="fill:rgb(220,225,214);fill-rule:nonzero;"/>
            </g>
            <g transform="matrix(1,0,0,1,611.731,1093.31)">
                <path d="M0,8.659C-0.25,9.121 -0.614,9.511 -1.058,9.791C-1.643,10.15 -2.32,10.327 -3.005,10.299C-3.545,10.317 -4.072,10.128 -4.476,9.77C-4.856,9.411 -5.064,8.906 -5.048,8.384C-5.048,6.415 -3.99,5.442 -1.767,5.442L0.053,5.442L0,8.659ZM6.35,9.865L6.35,0.912C6.395,-1.054 5.551,-2.935 4.053,-4.21C2.318,-5.55 0.157,-6.219 -2.032,-6.093C-4.29,-6.192 -6.518,-5.553 -8.381,-4.273C-9.958,-3.214 -10.894,-1.431 -10.868,0.468L-4.593,0.468C-4.739,-0.603 -3.99,-1.59 -2.919,-1.737C-2.733,-1.763 -2.545,-1.761 -2.36,-1.733C-0.762,-1.733 0.042,-0.813 0.042,1.05L0.042,2.108L-1.884,2.108C-4.96,2.108 -7.305,2.666 -8.921,3.78C-10.537,4.896 -11.456,6.772 -11.345,8.733C-11.375,10.406 -10.638,12 -9.345,13.061C-8.003,14.218 -6.279,14.834 -4.508,14.786C-2.64,14.878 -0.841,14.067 0.328,12.606C0.45,13.233 0.653,13.841 0.931,14.416L7.207,14.416L7.207,14.098C6.583,12.778 6.289,11.325 6.35,9.865" style="fill:rgb(220,225,214);fill-rule:nonzero;"/>
            </g>
            <g transform="matrix(1,0,0,1,639.976,1084.56)">
                <path d="M0,-4.409C-0.704,-4.997 -1.603,-5.299 -2.519,-5.255C-3.432,-5.3 -4.328,-4.998 -5.027,-4.409C-6.243,-3.305 -6.333,-1.424 -5.229,-0.208C-5.165,-0.138 -5.097,-0.071 -5.027,-0.007C-4.329,0.585 -3.433,0.891 -2.519,0.851C-1.601,0.89 -0.703,0.584 0,-0.007C1.216,-1.128 1.292,-3.023 0.17,-4.239C0.116,-4.298 0.059,-4.354 0,-4.409" style="fill:rgb(220,225,214);fill-rule:nonzero;"/>
            </g>
            <g transform="matrix(1,0,0,1,0,372.925)">
                <rect x="634.346" y="714.628" width="6.297" height="20.149" style="fill:rgb(220,225,214);"/>
            </g>
            <g transform="matrix(1,0,0,1,652.538,1095.02)">
                <path d="M0,5.207L-3.122,-7.471L-9.757,-7.471L-3.185,12.678L3.228,12.678L9.799,-7.471L3.185,-7.471L0,5.207Z" style="fill:rgb(220,225,214);fill-rule:nonzero;"/>
            </g>
            <g transform="matrix(1,0,0,1,674.401,1093.31)">
                <path d="M0,8.659C-0.264,9.128 -0.648,9.518 -1.111,9.791C-1.696,10.15 -2.373,10.327 -3.058,10.299C-3.598,10.317 -4.124,10.128 -4.529,9.77C-4.909,9.411 -5.117,8.906 -5.101,8.384C-5.101,6.415 -4.043,5.442 -1.82,5.442L0,5.442L0,8.659ZM6.297,9.833L6.297,0.912C6.342,-1.054 5.498,-2.935 4,-4.21C2.265,-5.55 0.104,-6.219 -2.085,-6.093C-4.343,-6.192 -6.571,-5.553 -8.434,-4.273C-10.011,-3.214 -10.947,-1.431 -10.921,0.468L-4.646,0.468C-4.792,-0.603 -4.043,-1.59 -2.972,-1.737C-2.786,-1.763 -2.598,-1.761 -2.413,-1.733C-0.815,-1.733 -0.011,-0.813 -0.011,1.05L-0.011,2.108L-1.947,2.108C-5.023,2.108 -7.369,2.666 -8.985,3.78C-10.601,4.896 -11.519,6.772 -11.408,8.733C-11.438,10.403 -10.706,11.996 -9.418,13.061C-8.073,14.218 -6.346,14.833 -4.572,14.786C-2.703,14.878 -0.904,14.067 0.264,12.606C0.387,13.233 0.589,13.841 0.868,14.416L7.143,14.416L7.143,14.098C6.518,12.767 6.227,11.303 6.297,9.833" style="fill:rgb(220,225,214);fill-rule:nonzero;"/>
            </g>
            <g transform="matrix(1,0,0,1,753.877,1117.33)">
                <path d="M0,8.127L-4.233,-2.381L-6.466,-2.381L-6.466,10.508L-4.762,10.508L-4.762,5.481L-4.931,0.095L-0.698,10.508L0.624,10.508L4.857,0.074L4.699,5.481L4.699,10.508L6.434,10.508L6.434,-2.381L4.233,-2.381L0,8.127Z" style="fill:rgb(220,225,214);fill-rule:nonzero;"/>
            </g>
            <g transform="matrix(1,0,0,1,764.978,1120.91)">
                <path d="M0,0.995L5.588,0.995L5.64,-0.412L0.053,-0.412L0.053,-4.571L6.402,-4.571L6.402,-5.958L-1.704,-5.958L-1.704,6.953L6.487,6.953L6.487,5.556L0,5.556L0,0.995Z" style="fill:rgb(220,225,214);fill-rule:nonzero;"/>
            </g>
            <g transform="matrix(1,0,0,1,780.122,1117.56)">
                <path d="M0,7.666C-0.785,8.504 -1.901,8.95 -3.048,8.883L-4.836,8.883L-4.836,-1.223L-2.921,-1.223C-1.809,-1.277 -0.734,-0.822 0,0.015C0.751,0.99 1.127,2.203 1.058,3.433L1.058,4.184C1.151,5.436 0.773,6.677 0,7.666M0.074,-1.869C-0.834,-2.376 -1.86,-2.631 -2.9,-2.61L-6.54,-2.61L-6.54,10.28L-2.974,10.29C-1.914,10.297 -0.87,10.039 0.063,9.539C0.931,9.051 1.632,8.314 2.074,7.423C2.561,6.436 2.804,5.348 2.783,4.248L2.783,3.422C2.8,2.322 2.554,1.233 2.063,0.248C1.622,-0.637 0.93,-1.373 0.074,-1.869" style="fill:rgb(220,225,214);fill-rule:nonzero;"/>
            </g>
            <g transform="matrix(1,0,0,1,0,420.462)">
                <rect x="785.593" y="694.489" width="1.704" height="12.89" style="fill:rgb(220,225,214);"/>
            </g>
            <g transform="matrix(1,0,0,1,792.789,1119.71)">
                <path d="M0,3.366L2.18,-2.666L4.381,3.366L0,3.366ZM1.439,-4.762L-3.482,8.128L-1.725,8.128L-0.518,4.752L4.889,4.752L6.117,8.128L7.863,8.128L2.931,-4.762L1.439,-4.762Z" style="fill:rgb(220,225,214);fill-rule:nonzero;"/>
            </g>
            <g transform="matrix(1,0,0,1,958.534,1059.75)">
                <path d="M0,13.471L-9.281,13.471L-9.281,6.952L0,6.952L0,4.836L-9.281,4.836L-9.281,-0.001L0,-0.001L0,-2.117L-11.641,-2.117L-11.641,15.588L0,15.588L0,13.471Z" style="fill:rgb(220,225,214);fill-rule:nonzero;"/>
            </g>
            <g transform="matrix(1,0,0,1,965.497,1062.12)">
                <path d="M0,13.55C0.784,13.562 1.562,13.399 2.275,13.074C3.031,12.702 3.741,12.243 4.392,11.709L4.392,13.222L6.625,13.222L6.667,-0.07L4.434,-0.07L4.434,9.825C3.846,10.287 3.203,10.675 2.519,10.978C1.928,11.254 1.287,11.405 0.635,11.423C0.127,11.449 -0.381,11.37 -0.857,11.19C-1.203,11.025 -1.49,10.759 -1.683,10.428C-1.902,10.052 -2.039,9.634 -2.085,9.201C-2.153,8.628 -2.185,8.052 -2.18,7.476L-2.18,-0.07L-4.413,-0.07L-4.413,8.534C-4.508,9.881 -4.092,11.215 -3.249,12.27C-2.406,13.152 -1.218,13.62 0,13.55" style="fill:rgb(220,225,214);fill-rule:nonzero;"/>
            </g>
            <g transform="matrix(1,0,0,1,977.731,1071.48)">
                <path d="M0,-5.593C0.567,-6.062 1.189,-6.46 1.852,-6.778C2.474,-7.074 3.153,-7.23 3.842,-7.233C4.265,-7.233 4.635,-7.18 4.953,-7.18C5.277,-7.139 5.598,-7.079 5.916,-7L6.032,-7L6.074,-9.329C5.736,-9.382 5.471,-9.434 5.291,-9.434C5.013,-9.45 4.734,-9.45 4.455,-9.434C3.726,-9.439 3.005,-9.287 2.339,-8.99C1.495,-8.592 0.709,-8.083 0,-7.477L0,-9.434L-2.233,-9.434L-2.233,3.857L0,3.857L0,-5.593Z" style="fill:rgb(220,225,214);fill-rule:nonzero;"/>
            </g>
            <g transform="matrix(1,0,0,1,987.848,1072.49)">
                <path d="M0,-7.638C0.689,-8.481 1.739,-8.944 2.826,-8.887C3.903,-8.943 4.942,-8.478 5.619,-7.638C6.396,-6.522 6.769,-5.174 6.678,-3.818C6.759,-2.472 6.386,-1.138 5.619,-0.029C5.51,0.096 5.392,0.214 5.267,0.323C3.718,1.677 1.365,1.52 0.011,-0.029C-0.735,-1.146 -1.089,-2.478 -0.995,-3.818C-1.099,-5.167 -0.748,-6.511 0,-7.638M-1.598,1.304C-1.566,1.337 -1.534,1.369 -1.502,1.4C0.959,3.808 4.905,3.765 7.313,1.304C8.489,-0.134 9.082,-1.963 8.974,-3.818C9.08,-5.669 8.487,-7.493 7.313,-8.929C7.271,-8.972 7.229,-9.014 7.186,-9.056C4.726,-11.446 0.793,-11.39 -1.598,-8.929C-2.772,-7.493 -3.365,-5.669 -3.259,-3.818C-3.368,-1.963 -2.775,-0.134 -1.598,1.304" style="fill:rgb(220,225,214);fill-rule:nonzero;"/>
            </g>
            <g transform="matrix(1,0,0,1,1001.7,1076.53)">
                <path d="M0,-11.25C0.574,-11.679 1.2,-12.035 1.862,-12.308C2.474,-12.574 3.132,-12.714 3.799,-12.721C4.788,-12.791 5.742,-12.342 6.318,-11.536C6.936,-10.45 7.219,-9.205 7.133,-7.959C7.222,-6.644 6.852,-5.338 6.085,-4.265C5.372,-3.412 4.297,-2.945 3.185,-3.006C2.663,-3.002 2.142,-3.052 1.63,-3.154C1.069,-3.296 0.523,-3.491 0,-3.736L0,-11.25ZM0,-1.895C0.537,-1.594 1.11,-1.36 1.704,-1.197C2.315,-1.033 2.945,-0.955 3.577,-0.964C4.351,-0.96 5.117,-1.126 5.82,-1.451C6.525,-1.768 7.156,-2.23 7.672,-2.805C8.257,-3.463 8.7,-4.234 8.974,-5.07C9.292,-6.018 9.449,-7.012 9.44,-8.012C9.546,-9.789 9.075,-11.552 8.096,-13.038C7.238,-14.231 5.838,-14.911 4.371,-14.848C3.553,-14.853 2.744,-14.679 2,-14.34C1.278,-14.02 0.605,-13.6 0,-13.091L0,-14.478L-2.233,-14.478L-2.233,3.661L0,3.661L0,-1.895Z" style="fill:rgb(220,225,214);fill-rule:nonzero;"/>
            </g>
            <g transform="matrix(1,0,0,1,1015.83,1067.68)">
                <path d="M0,2.041C0.441,1.633 0.975,1.339 1.556,1.184C2.274,1.005 3.007,0.892 3.746,0.845C4.667,0.76 5.471,0.665 6.148,0.665L6.148,4.359C5.585,4.79 4.974,5.155 4.328,5.449C3.665,5.757 2.943,5.916 2.212,5.914C1.46,5.97 0.713,5.764 0.095,5.332C-0.786,4.426 -0.828,2.997 0,2.041M1.386,7.988C1.96,7.998 2.533,7.934 3.09,7.798C3.532,7.692 3.961,7.539 4.371,7.343C4.716,7.19 5.042,6.998 5.344,6.771C5.683,6.528 5.947,6.338 6.148,6.211L6.148,7.66L8.349,7.66L8.371,-1.409C8.386,-2.134 8.253,-2.854 7.979,-3.525C7.727,-4.086 7.333,-4.571 6.836,-4.933C6.298,-5.319 5.685,-5.589 5.037,-5.727C4.236,-5.889 3.42,-5.967 2.603,-5.96C1.787,-5.958 0.972,-5.883 0.169,-5.737C-0.465,-5.642 -1.094,-5.511 -1.714,-5.346L-1.714,-3.081L-1.598,-3.081C-0.872,-3.364 -0.126,-3.59 0.635,-3.758C1.278,-3.898 1.934,-3.973 2.592,-3.98C3.056,-3.981 3.52,-3.95 3.979,-3.885C4.376,-3.839 4.76,-3.717 5.111,-3.525C5.438,-3.343 5.706,-3.072 5.884,-2.742C6.074,-2.351 6.165,-1.918 6.148,-1.483L6.148,-1.134C4.847,-1.07 3.64,-0.975 2.508,-0.848C1.507,-0.758 0.525,-0.516 -0.402,-0.128C-1.136,0.184 -1.772,0.688 -2.244,1.332C-2.703,2.062 -2.928,2.915 -2.889,3.777C-2.925,4.915 -2.475,6.016 -1.651,6.803C-0.834,7.582 0.257,8.008 1.386,7.988" style="fill:rgb(220,225,214);fill-rule:nonzero;"/>
            </g>
            <g transform="matrix(1,0,0,1,951.094,1082.15)">
                <path d="M0,17.225C1.129,17.598 2.313,17.78 3.503,17.765C4.127,17.769 4.751,17.716 5.365,17.606C5.898,17.509 6.424,17.382 6.942,17.225C7.412,17.08 7.872,16.903 8.318,16.696L9.503,16.167L9.503,13.415L9.323,13.415C8.51,14.158 7.571,14.749 6.55,15.161C5.537,15.549 4.461,15.746 3.376,15.743C2.577,15.743 1.785,15.6 1.037,15.32C0.268,15.054 -0.427,14.612 -0.995,14.029C-1.567,13.395 -2.01,12.654 -2.297,11.849C-2.653,10.829 -2.825,9.754 -2.804,8.674C-2.824,7.598 -2.67,6.526 -2.349,5.499C-2.088,4.665 -1.651,3.897 -1.069,3.245C-0.539,2.66 0.116,2.201 0.846,1.901C1.616,1.605 2.435,1.458 3.259,1.467C4.308,1.463 5.349,1.653 6.328,2.028C7.432,2.434 8.46,3.024 9.365,3.775L9.546,3.775L9.546,1.012C8.534,0.497 7.469,0.093 6.371,-0.194C5.443,-0.425 4.49,-0.542 3.534,-0.543C2.325,-0.555 1.124,-0.347 -0.011,0.071C-1.037,0.446 -1.966,1.046 -2.73,1.827C-3.534,2.647 -4.142,3.639 -4.508,4.727C-5.359,7.308 -5.359,10.093 -4.508,12.674C-4.136,13.75 -3.528,14.73 -2.73,15.542C-1.96,16.303 -1.026,16.879 0,17.225" style="fill:rgb(220,225,214);fill-rule:nonzero;"/>
            </g>
            <g transform="matrix(1,0,0,1,969.032,1097.35)">
                <path d="M0,-8.801C0.353,-8.801 0.706,-8.783 1.058,-8.748C1.386,-8.707 1.711,-8.647 2.032,-8.568L2.148,-8.568L2.148,-10.896C1.799,-11.002 1.545,-11.002 1.365,-11.002C1.083,-11.017 0.801,-11.017 0.518,-11.002C-0.193,-10.999 -0.896,-10.848 -1.545,-10.558C-2.389,-10.154 -3.178,-9.646 -3.895,-9.044L-3.895,-11.002L-6.117,-11.002L-6.117,2.216L-3.895,2.216L-3.895,-7.192C-3.314,-7.652 -2.677,-8.036 -2,-8.335C-1.377,-8.639 -0.693,-8.798 0,-8.801" style="fill:rgb(220,225,214);fill-rule:nonzero;"/>
            </g>
            <g transform="matrix(1,0,0,1,975.434,1097)">
                <path d="M0,-8.12C0.767,-8.85 1.8,-9.232 2.857,-9.178C3.837,-9.258 4.803,-8.906 5.503,-8.215C6.127,-7.455 6.444,-6.489 6.392,-5.506L-1.207,-5.506C-1.135,-6.495 -0.706,-7.424 0,-8.12M6,2.579C6.783,2.367 7.55,2.102 8.297,1.785L8.297,-0.649L8.18,-0.649C7.594,-0.191 6.936,0.166 6.233,0.41C5.365,0.76 4.439,0.943 3.503,0.949C2.871,0.956 2.241,0.86 1.64,0.663C1.093,0.495 0.59,0.205 0.169,-0.183C-0.273,-0.6 -0.616,-1.109 -0.836,-1.675C-1.094,-2.351 -1.219,-3.069 -1.207,-3.792L8.561,-3.792L8.561,-5.019C8.661,-6.631 8.142,-8.221 7.111,-9.464C6.022,-10.557 4.514,-11.128 2.974,-11.03C1.213,-11.103 -0.491,-10.403 -1.693,-9.115C-2.934,-7.694 -3.572,-5.845 -3.471,-3.961C-3.591,-2.084 -2.919,-0.242 -1.619,1.118C-0.204,2.369 1.649,3.008 3.534,2.896C4.367,2.9 5.196,2.793 6,2.579" style="fill:rgb(220,225,214);fill-rule:nonzero;"/>
            </g>
            <g transform="matrix(1,0,0,1,992.917,1088.58)">
                <path d="M0,8.85C-0.663,9.159 -1.385,9.318 -2.116,9.316C-2.869,9.38 -3.619,9.173 -4.233,8.734C-5.115,7.828 -5.156,6.398 -4.328,5.443C-3.887,5.034 -3.353,4.74 -2.773,4.585C-2.054,4.407 -1.321,4.293 -0.582,4.247C0.339,4.162 1.143,4.067 1.82,4.067L1.82,7.76C1.257,8.191 0.646,8.557 0,8.85M1.82,9.612L1.82,11.019L4.043,11.019L4.053,1.992C4.067,1.268 3.934,0.548 3.661,-0.124C3.406,-0.685 3.009,-1.171 2.508,-1.531C1.969,-1.917 1.357,-2.188 0.709,-2.325C-0.092,-2.484 -0.908,-2.559 -1.725,-2.547C-2.541,-2.55 -3.356,-2.479 -4.159,-2.336C-4.794,-2.24 -5.423,-2.109 -6.043,-1.944L-6.043,0.363L-5.926,0.363C-5.202,0.079 -4.455,-0.144 -3.693,-0.304C-3.051,-0.452 -2.395,-0.53 -1.736,-0.537C-1.273,-0.552 -0.809,-0.534 -0.349,-0.484C0.048,-0.438 0.432,-0.316 0.783,-0.124C1.11,0.058 1.378,0.33 1.556,0.659C1.746,1.051 1.837,1.483 1.82,1.918L1.82,2.268C0.518,2.331 -0.688,2.427 -1.82,2.553C-2.821,2.643 -3.803,2.886 -4.73,3.273C-5.466,3.582 -6.103,4.087 -6.572,4.733C-7.031,5.463 -7.256,6.316 -7.217,7.178C-7.253,8.317 -6.803,9.418 -5.979,10.205C-5.162,10.983 -4.071,11.409 -2.942,11.39C-2.368,11.399 -1.796,11.335 -1.238,11.199C-0.795,11.098 -0.366,10.945 0.042,10.744C0.386,10.589 0.713,10.397 1.016,10.173C1.355,9.93 1.619,9.739 1.82,9.612" style="fill:rgb(220,225,214);fill-rule:nonzero;"/>
            </g>
            <g transform="matrix(1,0,0,1,1000.32,1087.18)">
                <path d="M0,8.117C-0.109,9.377 0.269,10.631 1.058,11.62C1.9,12.38 3.017,12.763 4.148,12.678C4.591,12.67 5.033,12.635 5.471,12.572C5.958,12.498 6.424,12.403 6.836,12.297L6.836,10.255L6.72,10.255C6.441,10.367 6.155,10.459 5.863,10.53C5.494,10.632 5.113,10.686 4.73,10.689C4.254,10.715 3.778,10.639 3.333,10.466C3.024,10.317 2.772,10.072 2.614,9.768C2.43,9.443 2.318,9.082 2.286,8.71C2.233,8.318 2.233,7.768 2.233,7.08L2.233,1.037L6.836,1.037L6.836,-0.836L2.233,-0.836L2.233,-4.646L0,-4.646L0,-0.836L-1.503,-0.836L-1.503,1.037L0,1.037L0,8.117Z" style="fill:rgb(220,225,214);fill-rule:nonzero;"/>
            </g>
            <g transform="matrix(-1,0,0,1,2020.47,343.611)">
                <rect x="1008.98" y="738.206" width="2.508" height="2.307" style="fill:rgb(220,225,214);"/>
            </g>
            <g transform="matrix(-1,0,0,1,2020.55,363.611)">
                <rect x="1009.16" y="722.735" width="2.233" height="13.249" style="fill:rgb(220,225,214);"/>
            </g>
            <g transform="matrix(1,0,0,1,1020.03,1089.01)">
                <path d="M0,7.916L-4.106,-2.667L-6.519,-2.667L-1.228,10.583L0.974,10.583L6.339,-2.667L4.074,-2.667L0,7.916Z" style="fill:rgb(220,225,214);fill-rule:nonzero;"/>
            </g>
            <g transform="matrix(1,0,0,1,1036.39,1089.67)">
                <path d="M0,6.662C-0.56,7.092 -1.167,7.458 -1.809,7.752C-2.472,8.061 -3.195,8.221 -3.926,8.218C-4.678,8.282 -5.429,8.075 -6.043,7.636C-6.924,6.73 -6.965,5.3 -6.138,4.344C-5.7,3.932 -5.165,3.637 -4.582,3.487C-3.867,3.308 -3.138,3.194 -2.402,3.149C-1.481,3.064 -0.677,2.969 0,2.969L0,6.662ZM1.863,-1.222C1.614,-1.784 1.219,-2.27 0.72,-2.63C0.185,-3.015 -0.424,-3.285 -1.069,-3.423C-1.874,-3.582 -2.693,-3.656 -3.513,-3.645C-4.329,-3.647 -5.144,-3.576 -5.947,-3.434C-6.592,-3.338 -7.232,-3.207 -7.863,-3.042L-7.863,-0.778L-7.746,-0.778C-7.021,-1.06 -6.275,-1.283 -5.513,-1.444C-4.871,-1.592 -4.215,-1.67 -3.556,-1.677C-3.092,-1.678 -2.629,-1.647 -2.169,-1.582C-1.769,-1.536 -1.381,-1.414 -1.026,-1.222C-0.705,-1.036 -0.441,-0.765 -0.264,-0.439C-0.074,-0.047 0.017,0.385 0,0.82L0,1.17C-1.291,1.233 -2.508,1.329 -3.64,1.455C-4.638,1.545 -5.616,1.788 -6.54,2.175C-7.279,2.484 -7.919,2.989 -8.392,3.635C-8.851,4.365 -9.076,5.218 -9.037,6.08C-9.075,7.221 -8.62,8.324 -7.789,9.107C-6.975,9.891 -5.882,10.318 -4.751,10.292C-4.181,10.301 -3.612,10.237 -3.058,10.101C-2.615,10.002 -2.185,9.849 -1.778,9.646C-1.43,9.492 -1.1,9.3 -0.793,9.075L0,8.514L0,9.921L2.223,9.921L2.254,0.894C2.273,0.169 2.139,-0.551 1.863,-1.222" style="fill:rgb(220,225,214);fill-rule:nonzero;"/>
            </g>
            <g transform="matrix(1,0,0,1,0,363.655)">
                <path d="M826.198,693.991L932.172,693.991L932.172,764.598L826.198,764.598L826.198,693.991ZM824.802,766.038L933.581,766.038L933.581,692.637L824.802,692.637L824.802,766.038Z" style="fill:rgb(220,225,214);fill-rule:nonzero;"/>
            </g>
            <g transform="matrix(1,0,0,1,879.196,1072.59)">
                <path d="M0,-7.101L-0.878,-4.371L-3.736,-4.381L-1.407,-2.709L-2.307,0L0,-1.693L2.307,0L1.408,-2.709L3.736,-4.381L0.878,-4.371L0,-7.101Z" style="fill:rgb(220,225,214);fill-rule:nonzero;"/>
            </g>
            <g transform="matrix(1,0,0,1,867.428,1075.74)">
                <path d="M0,-7.101L-0.878,-4.371L-3.736,-4.381L-1.418,-2.709L-2.318,0L0,-1.693L2.296,0L1.407,-2.709L3.725,-4.381L0.868,-4.371L0,-7.101Z" style="fill:rgb(220,225,214);fill-rule:nonzero;"/>
            </g>
            <g transform="matrix(1,0,0,1,858.803,1084.37)">
                <path d="M0,-7.101L-0.878,-4.371L-3.736,-4.392L-1.408,-2.72L-2.307,0L0,-1.693L2.307,0L1.407,-2.72L3.725,-4.392L0.878,-4.371L0,-7.101Z" style="fill:rgb(220,225,214);fill-rule:nonzero;"/>
            </g>
            <g transform="matrix(1,0,0,1,855.65,1090.73)">
                <path d="M0,3.715L2.307,5.408L1.407,2.699L3.725,1.027L0.878,1.038L0,-1.693L-0.878,1.038L-3.736,1.027L-1.407,2.699L-2.307,5.408L0,3.715Z" style="fill:rgb(220,225,214);fill-rule:nonzero;"/>
            </g>
            <g transform="matrix(1,0,0,1,859.682,1105.18)">
                <path d="M0,-1.641L-0.878,-4.371L-1.746,-1.641L-4.614,-1.662L-2.286,0.01L-3.185,2.73L-0.878,1.036L1.429,2.73L0.529,0.01L2.847,-1.662L0,-1.641Z" style="fill:rgb(220,225,214);fill-rule:nonzero;"/>
            </g>
            <g transform="matrix(1,0,0,1,868.296,1113.81)">
                <path d="M0,-1.651L-0.868,-4.371L-1.746,-1.651L-4.603,-1.662L-2.286,0.01L-3.185,2.72L-0.868,1.026L1.429,2.72L0.54,0.01L2.857,-1.662L0,-1.651Z" style="fill:rgb(220,225,214);fill-rule:nonzero;"/>
            </g>
            <g transform="matrix(1,0,0,1,880.074,1116.95)">
                <path d="M0,-1.641L-0.878,-4.371L-1.746,-1.641L-4.614,-1.652L-2.286,0.02L-3.185,2.73L-0.878,1.036L1.429,2.73L0.529,0.02L2.857,-1.652L0,-1.641Z" style="fill:rgb(220,225,214);fill-rule:nonzero;"/>
            </g>
            <g transform="matrix(1,0,0,1,891.842,1113.8)">
                <path d="M0,-1.641L-0.868,-4.371L-1.746,-1.641L-4.603,-1.652L-2.286,0.02L-3.175,2.73L-0.868,1.036L1.439,2.73L0.54,0.02L2.857,-1.652L0,-1.641Z" style="fill:rgb(220,225,214);fill-rule:nonzero;"/>
            </g>
            <g transform="matrix(1,0,0,1,900.467,1105.18)">
                <path d="M0,-1.641L-0.879,-4.371L-1.746,-1.641L-4.614,-1.662L-2.286,0.01L-3.185,2.73L-0.879,1.036L1.429,2.73L0.529,0.01L2.857,-1.662L0,-1.641Z" style="fill:rgb(220,225,214);fill-rule:nonzero;"/>
            </g>
            <g transform="matrix(1,0,0,1,903.621,1093.41)">
                <path d="M0,-1.641L-0.879,-4.371L-1.746,-1.641L-4.614,-1.652L-2.286,0.02L-3.185,2.73L-0.879,1.036L1.429,2.73L0.529,0.02L2.857,-1.652L0,-1.641Z" style="fill:rgb(220,225,214);fill-rule:nonzero;"/>
            </g>
            <g transform="matrix(1,0,0,1,897.282,1077.27)">
                <path d="M0,7.101L2.307,5.408L4.614,7.101L3.715,4.381L6.043,2.709L3.185,2.72L2.307,0L1.439,2.72L-1.429,2.709L0.9,4.381L0,7.101Z" style="fill:rgb(220,225,214);fill-rule:nonzero;"/>
            </g>
            <g transform="matrix(1,0,0,1,890.974,1075.74)">
                <path d="M0,-7.101L-0.878,-4.371L-3.735,-4.381L-1.418,-2.709L-2.318,0L0,-1.693L2.297,0L1.408,-2.709L3.725,-4.381L0.868,-4.371L0,-7.101Z" style="fill:rgb(220,225,214);fill-rule:nonzero;"/>
            </g>
            <g transform="matrix(1,0,0,1,1003.72,1111.3)">
                <path d="M0,1.164L0.963,1.164L0.487,0L0,1.164Z" style="fill:rgb(220,225,214);fill-rule:nonzero;"/>
            </g>
            <g transform="matrix(1,0,0,1,987.636,1119.23)">
                <path d="M0,0.095L0.02,0.095C0.012,0.064 0.009,0.031 0,0L0,0.095Z" style="fill:rgb(220,225,214);fill-rule:nonzero;"/>
            </g>
            <g transform="matrix(1,0,0,1,986.123,1115.77)">
                <path d="M0,8.286C-0.59,8.917 -1.401,9.297 -2.265,9.344L-4.667,9.344L-4.667,8.286L-3.153,8.286L-3.153,7.81L-4.667,7.81L-4.667,6.709L-3.153,6.709L-3.153,6.233L-4.667,6.233L-4.677,5.132L-3.153,5.132L-3.153,4.667L-4.677,4.667L-4.677,3.556L-3.153,3.556L-3.153,3.09L-4.677,3.09L-4.677,1.989L-3.153,1.989L-3.153,1.513L-4.677,1.513L-4.677,0.413L-1.926,0.413C-1.095,0.522 -0.321,0.893 0.286,1.471L4.201,1.471C4.031,1.106 3.837,0.752 3.619,0.413L5.164,0.413C5.038,0.201 4.836,-0.063 4.836,-0.063L3.291,-0.063C3.01,-0.441 2.699,-0.795 2.36,-1.122L-7.767,-1.122L-7.767,-0.063L-6.244,-0.063L-6.244,0.413L-7.767,0.413L-7.767,1.513L-6.244,1.513L-6.244,1.989L-7.767,1.989L-7.767,3.09L-6.244,3.09L-6.244,3.556L-7.767,3.556L-7.767,4.667L-6.244,4.667L-6.244,5.132L-7.767,5.132L-7.767,6.233L-6.244,6.233L-6.244,6.709L-7.767,6.709L-7.767,7.81L-6.244,7.81L-6.244,8.254L-7.767,8.254L-7.767,9.376L3.249,9.376L3.249,9.408C3.497,9.05 3.72,8.675 3.916,8.286L0,8.286Z" style="fill:rgb(220,225,214);fill-rule:nonzero;"/>
            </g>
            <g transform="matrix(1,0,0,1,962.492,1111.83)">
                <path d="M0,0.73L0,0L-0.656,0.73L0,0.73Z" style="fill:rgb(220,225,214);fill-rule:nonzero;"/>
            </g>
            <g transform="matrix(1,0,0,1,947.401,1112.01)">
                <path d="M0,0.55L-0.508,0L-0.508,0.55L0,0.55Z" style="fill:rgb(220,225,214);fill-rule:nonzero;"/>
            </g>
            <g transform="matrix(1,0,0,1,960.936,1120.31)">
                <path d="M0,0.582L-1.08,0.582L-0.709,0.127L-0.889,0.36L-0.699,0.127L0,0.127L0,0.582ZM-1.534,0.127L-2.17,0.127L-1.534,-0.646L-1.534,0.127ZM-9.419,0.582L-9.419,0.127L-8.836,0.127L-8.434,0.582L-9.419,0.582ZM-10.964,0.127L-10.964,-0.465L-10.445,0.127L-10.964,0.127ZM1.556,-7.376L0.561,-7.376L-0.54,-6.17L0.921,-6.17L0.508,-5.715L-0.953,-5.715L-1.969,-4.603L-0.497,-4.603L-0.921,-4.138L-2.381,-4.138L-3.397,-3.027L-1.937,-3.027L-2.349,-2.561L-3.81,-2.561L-4.826,-1.45L-3.355,-1.45L-3.778,-0.984L-5.239,-0.984L-6.212,0.085L-7.217,-0.984L-5.641,-0.984L-6.074,-1.45L-7.651,-1.45L-8.688,-2.561L-7.08,-2.561L-7.492,-3.027L-9.122,-3.027L-10.159,-4.138L-8.508,-4.138L-8.932,-4.603L-10.593,-4.603L-11.63,-5.715L-9.927,-5.715L-10.35,-6.17L-12.064,-6.17L-13.186,-7.376L-14.043,-7.376L-14.043,-6.17L-12.509,-6.17L-12.509,-5.715L-14.043,-5.715L-14.043,-4.603L-12.509,-4.603L-12.509,-4.138L-14.043,-4.138L-14.043,-3.027L-12.509,-3.027L-12.509,-2.561L-14.043,-2.561L-14.043,-1.45L-12.509,-1.45L-12.509,-0.984L-14.043,-0.984L-14.043,0.127L-12.509,0.127L-12.509,0.582L-14.043,0.582L-14.043,1.693L-12.509,1.693L-12.509,2.159L-14.043,2.159L-14.043,3.27L-12.509,3.27L-12.509,3.736L-14.043,3.736L-14.043,4.847L-12.509,4.847L-12.509,5.312L-14.043,5.312L-14.043,6.424L-12.509,6.424L-12.509,6.879L-14.043,6.879L-14.043,7.958L-10.964,7.958L-10.964,6.879L-9.419,6.879L-9.419,6.424L-10.964,6.424L-10.964,5.312L-9.419,5.312L-9.419,4.847L-10.964,4.847L-10.964,3.736L-9.419,3.736L-9.419,3.27L-10.964,3.27L-10.964,2.159L-9.419,2.159L-9.419,1.693L-10.964,1.693L-10.964,0.582L-10.043,0.582L-9.08,1.693L-7.471,1.693L-7.069,2.159L-8.678,2.159L-7.704,3.27L-6.117,3.27L-5.715,3.736L-7.302,3.736L-6.212,4.984L-5.175,3.736L-3.715,3.736L-3.344,3.27L-4.794,3.27L-3.863,2.159L-2.402,2.159L-2.021,1.693L-3.482,1.693L-2.561,0.582L-1.534,0.582L-1.534,1.693L0,1.693L0,2.159L-1.534,2.159L-1.534,3.27L0,3.27L0,3.736L-1.534,3.736L-1.534,4.847L0,4.847L0,5.312L-1.534,5.312L-1.534,6.424L0,6.424L0,6.879L-1.534,6.879L-1.534,7.958L1.556,7.958L1.556,6.879L3.09,6.879L3.09,6.424L1.556,6.424L1.556,5.312L3.09,5.312L3.09,4.847L1.556,4.847L1.556,3.736L3.09,3.736L3.09,3.27L1.556,3.27L1.556,2.159L3.09,2.159L3.09,1.693L1.556,1.693L1.556,0.582L3.09,0.582L3.09,0.127L1.556,0.127L1.556,-0.984L3.09,-0.984L3.09,-1.45L1.556,-1.45L1.556,-2.561L3.09,-2.561L3.09,-3.027L1.556,-3.027L1.556,-4.138L3.09,-4.138L3.09,-4.603L1.556,-4.603L1.556,-5.715L3.09,-5.715L3.09,-6.17L1.556,-6.17L1.556,-7.376Z" style="fill:rgb(220,225,214);fill-rule:nonzero;"/>
            </g>
            <g transform="matrix(1,0,0,1,962.958,1112.56)">
                <path d="M0,0.37L1.069,0.37L1.069,0L0.339,0L0,0.37Z" style="fill:rgb(220,225,214);fill-rule:nonzero;"/>
            </g>
            <g transform="matrix(1,0,0,1,948.428,1112.56)">
                <path d="M0,0.37L1.058,0.37L0.73,0L0,0L0,0.37Z" style="fill:rgb(220,225,214);fill-rule:nonzero;"/>
            </g>
            <g transform="matrix(1,0,0,1,967.286,1127.89)">
                <path d="M0,-14.964L-1.566,-14.964L-1.566,-13.758L0,-13.758L0,-13.292L-1.566,-13.292L-1.566,-12.191L0,-12.191L0,-11.715L-1.566,-11.715L-1.566,-10.615L0,-10.615L0,-10.138L-1.566,-10.138L-1.566,-9.017L0,-9.017L0,-8.572L-1.566,-8.572L-1.566,-7.45L0,-7.45L0,-6.995L-1.566,-6.995L-1.566,-5.895L0,-5.895L0,-5.418L-1.566,-5.418L-1.566,-4.318L0,-4.318L0,-3.842L-1.566,-3.842L-1.566,-2.72L0,-2.72L0,-2.265L-1.566,-2.265L-1.566,-1.143L0,-1.143L0,-0.699L-1.566,-0.699L-1.566,0.37L7.799,0.37L7.799,-0.699L9.376,-0.699L9.376,-1.143L7.799,-1.143L7.799,-2.265L9.376,-2.265L9.376,-2.72L1.482,-2.72L1.482,-3.842L3.058,-3.842L3.058,-4.318L1.482,-4.318L1.482,-5.418L3.058,-5.418L3.058,-5.895L1.482,-5.895L1.482,-5.916L7.799,-5.916L7.799,-6.995L9.376,-6.995L9.376,-7.45L7.799,-7.45L7.799,-8.572L9.376,-8.572L9.376,-9.017L1.482,-9.017L1.482,-10.138L3.058,-10.138L3.058,-10.615L1.482,-10.615L1.482,-11.715L3.058,-11.715L3.058,-12.191L1.482,-12.191L1.482,-12.202L7.799,-12.202L7.799,-13.292L9.376,-13.292L9.376,-13.758L7.799,-13.758L7.799,-14.964L9.376,-14.964L9.376,-15.334L0,-15.334L0,-14.964Z" style="fill:rgb(220,225,214);fill-rule:nonzero;"/>
            </g>
            <g transform="matrix(1,0,0,1,985.35,1114.6)">
                <path d="M0,-2.042L-5.471,-2.042L-5.471,-1.672L-6.995,-1.672L-6.995,-0.465L-5.471,-0.465L-5.471,0L4.656,0C4.501,-0.166 4.335,-0.321 4.159,-0.465L2.625,-0.465C1.955,-1.124 1.09,-1.547 0.159,-1.672L1.831,-1.672C1.243,-1.888 0.626,-2.013 0,-2.042" style="fill:rgb(220,225,214);fill-rule:nonzero;"/>
            </g>
            <g transform="matrix(1,0,0,1,979.879,1128.26)">
                <path d="M0,-3.083L0,-2.639L-1.524,-2.639L-1.524,-1.506L0.021,-1.506L0.021,-1.062L-1.524,-1.062L-1.524,-0.003L3.842,-0.003C5.108,0 6.348,-0.368 7.408,-1.062L8.963,-1.062C9.177,-1.192 9.379,-1.341 9.567,-1.506L8.021,-1.506C8.432,-1.846 8.808,-2.225 9.143,-2.639L10.688,-2.639C10.811,-2.779 10.924,-2.927 11.027,-3.083L0,-3.083Z" style="fill:rgb(220,225,214);fill-rule:nonzero;"/>
            </g>
            <g transform="matrix(1,0,0,1,987.954,1118.77)">
                <path d="M0,-1.493C0.151,-1.346 0.289,-1.187 0.413,-1.017L-1.122,-1.017C-0.859,-0.698 -0.645,-0.341 -0.487,0.042L2.868,0.042C2.789,-0.319 2.683,-0.672 2.551,-1.017L4.096,-1.017C4.043,-1.18 3.979,-1.339 3.905,-1.493L0.039,-1.493C0.025,-1.508 0.015,-1.52 0,-1.535C0.013,-1.522 0.024,-1.506 0.038,-1.493L0,-1.493Z" style="fill:rgb(220,225,214);fill-rule:nonzero;"/>
            </g>
            <g transform="matrix(1,0,0,1,992.345,1120.41)">
                <path d="M0,-1.556L-3.344,-1.556C-3.259,-1.355 -3.175,-1.217 -3.175,-1.09L-4.689,-1.09C-4.594,-0.734 -4.54,-0.369 -4.54,0L-1.365,0L-1.365,-0.201C-1.365,-0.499 -1.386,-0.796 -1.426,-1.09L0.085,-1.09C0.085,-1.09 0,-1.376 0,-1.556" style="fill:rgb(220,225,214);fill-rule:nonzero;"/>
            </g>
            <g transform="matrix(1,0,0,1,989.266,1121.49)">
                <path d="M0,-0.592L-1.545,-0.592C-1.594,-0.229 -1.686,0.126 -1.82,0.466L1.503,0.466C1.584,0.118 1.64,-0.236 1.672,-0.592L3.207,-0.592L3.228,-1.058L0.021,-1.058L0,-0.592Z" style="fill:rgb(220,225,214);fill-rule:nonzero;"/>
            </g>
            <g transform="matrix(1,0,0,1,988.779,1123.06)">
                <path d="M0,-0.582L-1.535,-0.582C-1.727,-0.204 -1.962,0.151 -2.233,0.476L1.45,0.476C1.599,0.131 1.73,-0.222 1.841,-0.582L3.461,-0.582C3.461,-0.582 3.566,-0.878 3.566,-1.058L0.212,-1.058C0.159,-0.892 0.088,-0.732 0,-0.582" style="fill:rgb(220,225,214);fill-rule:nonzero;"/>
            </g>
            <g transform="matrix(1,0,0,1,987.679,1123.54)">
                <path d="M0,0.476L3.905,0.476C3.984,0.321 4.055,0.162 4.117,0L0.434,0C0.301,0.169 0.156,0.328 0,0.476" style="fill:rgb(220,225,214);fill-rule:nonzero;"/>
            </g>
            <g transform="matrix(1,0,0,1,1005.63,1118.25)">
                <path d="M0,4.222L0.095,4.455L-2.931,4.455L-2.836,4.222L-1.355,4.222L-1.164,3.746L-2.646,3.746L-2.18,2.645L-0.709,2.645L-0.508,2.18L0.646,2.18L0.846,2.645L-0.656,2.645L-0.201,3.746L1.302,3.746L1.492,4.222L0,4.222ZM-1.535,1.068L-1.302,1.068L-0.847,2.18L-1.99,2.18L-1.535,1.068ZM0.071,0.766L0.084,0.797L0.19,1.068L-0.053,1.068L0.071,0.766ZM-6.487,8.942L-7.736,8.942L-7.736,8.476L-6.307,8.476L-6.487,8.942ZM6.445,8.476L4.953,8.476L4.497,7.376L5.99,7.376L5.789,6.899L4.307,6.899L3.841,5.799L5.344,5.799L5.143,5.323L3.651,5.323L3.196,4.222L4.667,4.222L4.476,3.746L3.005,3.746L2.55,2.645L4.021,2.645L3.82,2.18L2.349,2.18L1.894,1.068L3.376,1.068L3.175,0.603L1.704,0.603L1.249,-0.498L2.741,-0.498L2.54,-0.974L1.048,-0.974L0.592,-2.075L2.095,-2.075L1.894,-2.551L0.402,-2.551L-0.053,-3.652L1.439,-3.652L1.249,-4.117L-0.254,-4.117L-0.741,-5.324L-2.096,-5.324L-2.593,-4.117L-1.101,-4.117L-1.302,-3.652L-2.783,-3.652L-3.238,-2.551L-1.736,-2.551L-1.937,-2.075L-3.44,-2.075L-3.895,-0.974L-2.402,-0.974L-2.593,-0.498L-4.085,-0.498L-4.54,0.603L-3.037,0.603L-3.238,1.068L-4.741,1.068L-5.185,2.18L-3.693,2.18L-3.884,2.645L-5.387,2.645L-5.842,3.746L-4.339,3.746L-4.54,4.222L-6.032,4.222L-6.487,5.323L-5.006,5.323L-5.196,5.799L-6.688,5.799L-7.143,6.899L-5.651,6.899L-5.842,7.376L-7.334,7.376L-7.789,8.476L-9.228,8.476L-9.228,7.376L-7.736,7.376L-7.736,6.899L-9.228,6.899L-9.228,5.799L-7.736,5.799L-7.736,5.323L-9.228,5.323L-9.228,4.222L-7.736,4.222L-7.736,3.746L-9.228,3.746L-9.228,2.645L-7.736,2.645L-7.736,2.18L-9.228,2.18L-9.228,1.068L-7.736,1.068L-7.736,0.603L-9.228,0.603L-9.228,-0.498L-7.736,-0.498L-7.736,-0.974L-9.228,-0.974L-9.228,-2.075L-7.736,-2.075L-7.736,-2.551L-9.228,-2.551L-9.228,-3.652L-7.736,-3.652L-7.736,-4.117L-9.228,-4.117L-9.228,-5.324L-7.736,-5.324L-7.736,-5.789L-10.911,-5.789L-10.911,-5.324L-12.403,-5.324L-12.403,-4.117L-10.911,-4.117L-10.911,-3.652L-12.403,-3.652L-12.403,-2.551L-10.911,-2.551L-10.911,-2.075L-12.403,-2.075L-12.403,-0.974L-10.911,-0.974L-10.911,-0.498L-12.403,-0.498L-12.403,0.603L-10.911,0.603L-10.911,1.068L-12.403,1.068L-12.403,2.18L-10.911,2.18L-10.911,2.645L-12.403,2.645L-12.403,3.746L-10.911,3.746L-10.911,4.222L-12.403,4.222L-12.403,5.323L-10.911,5.323L-10.911,5.799L-12.403,5.799L-12.403,6.899L-10.911,6.899L-10.911,7.376L-12.403,7.376L-12.403,8.476L-10.911,8.476L-10.911,8.942L-12.403,8.942L-12.403,10.011L-9.228,10.011L-9.228,8.942L-7.982,8.942L-8.424,10.011L-5.26,10.011L-4.815,8.942L-3.312,8.942L-3.132,8.476L-4.614,8.476L-4.233,7.566L1.397,7.566L1.778,8.476L3.27,8.476L3.461,8.942L1.968,8.942L2.413,10.011L5.588,10.011L5.143,8.942L6.635,8.942L6.445,8.476Z" style="fill:rgb(220,225,214);fill-rule:nonzero;"/>
            </g>
            <g transform="matrix(1,0,0,1,1005.02,1112.46)">
                <path d="M0,0.466L1.355,0.466L1.164,0L0.19,0L0,0.466Z" style="fill:rgb(220,225,214);fill-rule:nonzero;"/>
            </g>
        </g>
    </g>
</svg>
