<?xml version="1.0" encoding="UTF-8" standalone="no"?>
<!DOCTYPE svg PUBLIC "-//W3C//DTD SVG 1.1//EN" "http://www.w3.org/Graphics/SVG/1.1/DTD/svg11.dtd">
<svg width="100%" height="100%" viewBox="0 0 404 208" version="1.1" xmlns="http://www.w3.org/2000/svg" xmlns:xlink="http://www.w3.org/1999/xlink" xml:space="preserve" xmlns:serif="http://www.serif.com/" style="fill-rule:evenodd;clip-rule:evenodd;stroke-linejoin:round;stroke-miterlimit:2;">
    <g id="Artboard1" transform="matrix(0.933419,0,0,1,0,0)">
        <rect x="0" y="0" width="432" height="208" style="fill:none;"/>
        <clipPath id="_clip1">
            <rect x="0" y="0" width="432" height="208"/>
        </clipPath>
        <g clip-path="url(#_clip1)">
            <g transform="matrix(2.75344,0,0,2.57011,411.972,21.1075)">
                <path d="M0,64.556L0,58.494L4.597,58.494L4.597,55.464L0,55.464L0,50.816L4.9,50.816L4.9,47.836L-3.536,47.836L-3.536,67.637L5.153,67.637L5.153,64.556L0,64.556ZM-13.841,50.665L-11.163,50.665L-11.163,67.637L-7.627,67.637L-7.627,50.665L-4.9,50.665L-4.9,47.836L-13.841,47.836L-13.841,50.665ZM-18.74,62.535C-18.74,63.243 -18.639,64.152 -19.296,64.657C-19.7,64.96 -20.256,64.96 -20.407,64.96C-20.609,64.96 -21.569,64.91 -21.923,64.101C-22.125,63.647 -22.125,63.091 -22.125,62.535L-22.125,47.785L-25.408,47.785L-25.408,63.041C-25.408,63.748 -25.307,64.505 -25.055,65.213C-24.802,65.869 -24.448,66.374 -24.297,66.577C-23.337,67.688 -21.822,67.991 -20.508,67.991C-20.054,67.991 -17.478,68.092 -16.215,66.273C-15.508,65.263 -15.406,64.303 -15.406,63.091L-15.406,47.735L-18.74,47.735L-18.74,62.535ZM-35.865,50.665L-33.187,50.665L-33.187,67.637L-29.651,67.637L-29.651,50.665L-26.924,50.665L-26.924,47.836L-35.865,47.836L-35.865,50.665ZM-40.916,47.836L-37.431,47.836L-37.431,67.637L-40.916,67.637L-40.916,47.836ZM-51.372,50.665L-48.695,50.665L-48.695,67.637L-45.159,67.637L-45.159,50.665L-42.431,50.665L-42.431,47.836L-51.372,47.836L-51.372,50.665ZM-54.403,56.979L-57.686,54.554C-58.04,54.251 -58.292,54.1 -58.394,53.898C-58.798,53.241 -58.747,52.231 -58.747,52.13C-58.747,50.463 -57.99,50.16 -57.232,50.16C-55.918,50.16 -55.716,51.018 -55.716,51.574L-55.716,53.595L-52.332,53.595L-52.332,51.625C-52.332,50.665 -52.433,50.463 -52.635,49.958C-53.595,47.331 -56.575,47.331 -57.131,47.331C-57.484,47.331 -60.667,47.331 -61.728,49.756C-62.182,50.816 -62.182,52.18 -62.182,52.483C-62.182,54.15 -61.98,55.11 -61.626,55.767C-61.172,56.575 -60.768,56.878 -60.061,57.383L-56.828,59.707C-56.676,59.808 -56.323,60.06 -56.019,60.515C-55.615,61.172 -55.565,62.182 -55.565,62.434C-55.565,63.798 -55.565,64.404 -56.07,64.809C-56.323,65.011 -56.625,65.162 -57.232,65.162C-57.737,65.162 -58.091,65.011 -58.292,64.859C-58.949,64.404 -58.899,63.546 -58.899,62.839L-58.899,60.515L-62.233,60.515L-62.233,63.394C-62.233,64.505 -62.081,64.859 -61.879,65.465C-61.728,65.768 -61.525,66.324 -60.919,66.829C-59.808,67.738 -58.444,67.94 -57.131,67.94C-53.999,67.94 -52.736,66.526 -52.332,64.91C-52.13,64.152 -52.13,63.495 -52.13,61.98C-52.13,60.565 -52.029,59.505 -52.888,58.393C-53.393,57.737 -54.15,57.13 -54.403,56.979M-67.183,62.384L-70.466,47.836L-75.012,47.836L-75.012,67.637L-71.628,67.637L-71.881,52.786L-68.698,67.637L-64.203,67.637L-64.203,47.836L-67.536,47.836L-67.183,62.384ZM-81.125,47.836L-77.64,47.836L-77.64,67.637L-81.125,67.637L-81.125,47.836ZM-126.789,68.041L-119.212,68.041L-126.789,59.353L-126.789,68.041ZM-111.635,68.041L-111.635,59.353L-119.212,68.041L-111.635,68.041ZM-133.709,41.219L-133.709,68.041L-129.921,68.041C-129.921,68.041 -129.87,50.968 -129.971,50.816L-119.262,63.495L-108.503,50.816C-108.553,50.917 -108.553,68.041 -108.553,68.041L-104.815,68.041L-104.815,41.219L-119.313,57.888L-133.709,41.219ZM-149.621,-3.536L-149.621,68.041L-145.58,68.041C-145.58,68.041 -145.58,8.132 -145.63,8.031L-119.212,38.794L-92.793,8.031C-92.844,8.132 -92.844,68.041 -92.844,68.041L-88.853,68.041L-88.853,-3.536C-88.853,-3.536 -116.383,28.691 -119.262,32.429C-122.142,28.691 -149.621,-3.536 -149.621,-3.536M-141.589,19.649L-141.589,68.041L-137.599,68.041C-137.599,68.041 -137.599,31.369 -137.649,31.217L-119.262,51.473L-100.825,31.217C-100.875,31.318 -100.875,68.041 -100.875,68.041L-96.834,68.041L-96.834,19.649L-119.212,45.108L-141.589,19.649ZM-21.519,28.035L-20.306,36.622L-22.832,36.622L-21.519,28.035ZM-23.842,42.936L-23.287,39.703L-19.902,39.703L-19.397,42.936L-15.659,42.936L-19.397,22.933L-23.64,22.933L-27.53,42.936L-23.842,42.936ZM-33.591,22.933L-29.954,22.933L-29.954,42.936L-33.591,42.936L-33.591,22.933ZM-39.704,37.632L-43.29,22.933L-48.038,22.933L-48.038,42.936L-44.553,42.936L-44.856,27.984L-41.32,42.936L-36.673,42.936L-36.673,22.933L-40.057,22.933L-39.704,37.632ZM-57.131,36.622L-55.817,28.035L-54.605,36.622L-57.131,36.622ZM-57.939,22.933L-61.828,42.936L-58.141,42.936L-57.585,39.703L-54.201,39.703L-53.696,42.936L-49.958,42.936L-53.696,22.933L-57.939,22.933ZM-72.083,36.925L-74.457,22.933L-80.417,22.933L-80.417,42.936L-76.831,42.936L-77.083,25.61L-73.8,42.936L-70.365,42.936L-67.132,25.61L-67.486,42.936L-63.799,42.936L-63.799,22.933L-69.708,22.933L-72.083,36.925ZM-21.013,17.174C-19.801,18.084 -18.336,18.286 -16.922,18.286C-13.538,18.286 -12.174,16.821 -11.719,15.204C-11.517,14.447 -11.517,13.79 -11.517,12.275C-11.517,10.86 -11.416,10.001 -12.325,8.84C-12.931,8.031 -13.689,7.476 -13.992,7.274L-17.579,4.798C-17.983,4.495 -18.235,4.293 -18.336,4.142C-18.791,3.485 -18.74,2.323 -18.74,2.222C-18.74,0.555 -17.932,0.252 -17.073,0.252C-15.659,0.252 -15.406,1.111 -15.406,1.717L-15.406,3.738L-11.719,3.738L-11.719,1.768C-11.719,0.808 -11.82,0.606 -12.022,0.101C-13.083,-2.526 -16.265,-2.526 -16.871,-2.526C-17.276,-2.526 -20.71,-2.526 -21.822,-0.101C-22.327,0.959 -22.327,2.374 -22.327,2.626C-22.327,4.344 -22.024,5.102 -21.62,5.809C-21.115,6.617 -20.71,6.92 -19.953,7.476L-16.467,9.85C-16.316,9.951 -15.912,10.203 -15.609,10.658C-15.154,11.315 -15.205,12.224 -15.205,12.477C-15.205,13.84 -15.205,14.699 -15.76,15.154C-16.013,15.356 -16.366,15.507 -17.023,15.507C-17.579,15.507 -17.932,15.356 -18.134,15.204C-18.842,14.75 -18.791,13.891 -18.791,13.184L-18.791,10.86L-22.428,10.86L-22.428,13.79C-22.428,14.901 -22.276,15.305 -22.024,15.861C-21.923,16.113 -21.67,16.669 -21.013,17.174M-24.347,14.8L-30.662,14.8L-30.662,8.637L-25.004,8.637L-25.004,5.607L-30.662,5.607L-30.662,0.909L-24.65,0.909L-24.65,-2.122L-34.349,-2.122L-34.349,17.882L-24.347,17.882L-24.347,14.8ZM-41.27,-2.122L-37.633,-2.122L-37.633,17.881L-41.27,17.881L-41.27,-2.122ZM-51.574,0.757L-49.655,0.757C-48.392,0.757 -47.937,1.162 -47.937,2.374L-47.937,4.142C-47.937,5.607 -48.341,6.061 -49.655,6.061L-51.574,6.061L-51.574,0.757ZM-51.574,8.991L-50.21,8.991L-47.382,17.831L-43.542,17.831L-46.674,8.435C-44.906,7.88 -44.3,6.971 -44.3,5.001L-44.3,1.465C-44.3,-0.96 -45.462,-2.122 -47.887,-2.122L-55.262,-2.122L-55.262,17.882L-51.574,17.882L-51.574,8.991ZM-57.484,14.8L-63.799,14.8L-63.799,8.637L-58.141,8.637L-58.141,5.607L-63.799,5.607L-63.799,0.909L-57.787,0.909L-57.787,-2.122L-67.486,-2.122L-67.486,17.882L-57.484,17.882L-57.484,14.8ZM-79.357,17.174C-78.144,18.084 -76.679,18.286 -75.265,18.286C-71.881,18.286 -70.517,16.821 -70.062,15.204C-69.86,14.447 -69.86,13.79 -69.86,12.275C-69.86,10.86 -69.759,10.001 -70.668,8.84C-71.274,8.031 -72.032,7.476 -72.335,7.274L-75.922,4.798C-76.326,4.495 -76.578,4.293 -76.679,4.142C-77.134,3.485 -77.083,2.323 -77.083,2.222C-77.083,0.555 -76.275,0.252 -75.417,0.252C-74.002,0.252 -73.75,1.111 -73.75,1.717L-73.75,3.738L-70.062,3.738L-70.062,1.768C-70.062,0.808 -70.163,0.606 -70.365,0.101C-71.426,-2.526 -74.608,-2.526 -75.215,-2.526C-75.619,-2.526 -79.053,-2.526 -80.165,-0.101C-80.67,0.959 -80.67,2.374 -80.67,2.626C-80.67,4.344 -80.367,5.102 -79.963,5.809C-79.458,6.617 -79.053,6.92 -78.296,7.476L-74.811,9.85C-74.659,9.951 -74.255,10.203 -73.952,10.658C-73.497,11.315 -73.548,12.224 -73.548,12.477C-73.548,13.84 -73.548,14.699 -74.103,15.154C-74.356,15.356 -74.709,15.507 -75.366,15.507C-75.922,15.507 -76.275,15.356 -76.477,15.204C-77.185,14.75 -77.134,13.891 -77.134,13.184L-77.134,10.86L-80.771,10.86L-80.771,13.79C-80.771,14.901 -80.619,15.305 -80.367,15.861C-80.215,16.113 -79.963,16.669 -79.357,17.174" style="fill:rgb(220,225,214);fill-rule:nonzero;"/>
            </g>
        </g>
    </g>
</svg>
