<svg width="56" height="38" viewBox="0 0 56 38" fill="none" xmlns="http://www.w3.org/2000/svg">
<path fill-rule="evenodd" clip-rule="evenodd" d="M5.29682 6.56055L5.54906 5.53813L4.79233 5.02692H5.80131L6.05355 4.0045L6.30579 5.02692H7.31477L6.55804 5.53813L6.81028 6.56055L6.05355 5.79374L5.29682 6.56055ZM8.57598 6.56055L8.82822 5.53813L8.0715 5.02692H9.08047L9.33271 4.0045L9.58495 5.02692H10.5939L9.8372 5.53813L10.0894 6.56055L9.33271 5.79374L8.57598 6.56055ZM11.6029 6.56055L11.8551 5.53813L11.0984 5.02692H12.1074L12.6119 4.0045L12.8641 5.02692H13.8731L13.1164 5.53813L13.3686 6.56055L12.6119 5.79374L11.6029 6.56055ZM6.81028 8.6054L7.06252 7.58298L6.30579 7.07177H7.31477L7.56701 6.04934L7.81925 7.07177H8.82822L8.0715 7.58298L8.32374 8.6054L7.56701 8.09419L6.81028 8.6054ZM10.0894 8.6054L10.3417 7.58298L9.58495 7.07177H10.5939L10.8462 6.04934L11.0984 7.07177H12.1074L11.3507 7.58298L11.6029 8.6054L10.8462 8.09419L10.0894 8.6054ZM13.3686 8.6054L13.6208 7.58298L12.8641 7.07177H13.8731L14.1253 6.04934L14.3776 7.07177H15.3865L14.6298 7.58298L14.8821 8.6054L14.1253 8.09419L13.3686 8.6054ZM15.891 5.79374L14.8821 6.56055L15.1343 5.53813L14.3776 5.02692H15.3865L15.891 4.0045L16.1433 5.02692H17.1523L16.3955 5.53813L16.6478 6.56055L15.891 5.79374ZM2.01766 9.88343L0.251953 10.3946V0.426025H35.566L29.2599 2.21526H2.01766V9.88343ZM0.251953 16.2736L55.4932 0.681631V38H0.251953V16.2736ZM53.7275 36.2108V2.98208L2.01766 17.8072V36.2108H53.7275ZM34.557 31.6099L33.8003 29.0538H29.0077L28.251 31.6099H26.233L30.7734 19.3408H32.2868L36.8272 31.6099H34.557ZM31.2779 22.1525L29.5122 27.5202H33.2958L31.2779 22.1525ZM20.6837 31.8655C19.4224 31.8655 18.4135 31.3543 17.4045 30.5875C16.1433 29.3094 16.1433 28.0314 16.1433 25.731C16.1433 23.4305 16.1433 21.8969 17.4045 20.8745C18.4135 19.852 19.4224 19.3408 20.6837 19.3408C22.9538 19.3408 24.4673 20.6189 24.9718 23.1749H23.2061C22.9538 21.8969 22.1971 21.1301 20.6837 21.1301C19.9269 21.1301 19.4224 21.3857 18.918 21.8969C18.4135 22.6637 18.1612 23.1749 18.1612 25.731C18.1612 28.287 18.4135 28.7982 18.918 29.565C19.4224 30.0762 19.9269 30.3319 20.6837 30.3319C21.9449 30.3319 22.9538 29.565 23.2061 28.287H24.9718C24.7195 30.3319 22.9538 31.8655 20.6837 31.8655ZM7.06252 31.6099V19.3408H14.8821V21.1301H8.82822V24.7085H13.8731V26.2422H8.82822V29.8206H14.6298V31.6099H7.06252ZM47.1692 31.6099V23.4305L44.3945 29.565H42.8811L40.1064 23.6861V31.8655H38.3407V19.3408H40.1064L43.6378 27.009L47.1692 19.3408H48.9349V31.6099H47.1692Z" fill="#DCE1D6"/>
</svg>
