<?xml version="1.0" encoding="UTF-8" standalone="no"?>
<!DOCTYPE svg PUBLIC "-//W3C//DTD SVG 1.1//EN" "http://www.w3.org/Graphics/SVG/1.1/DTD/svg11.dtd">
<svg width="100%" height="100%" viewBox="0 0 382 208" version="1.1" xmlns="http://www.w3.org/2000/svg" xmlns:xlink="http://www.w3.org/1999/xlink" xml:space="preserve" xmlns:serif="http://www.serif.com/" style="fill-rule:evenodd;clip-rule:evenodd;stroke-linejoin:round;stroke-miterlimit:2;">
    <g id="Artboard1" transform="matrix(0.88206,0,0,1,0,0)">
        <rect x="0" y="0" width="432" height="208" style="fill:none;"/>
        <g transform="matrix(2.42763,0,0,2.14131,33.5886,26.7853)">
            <path d="M0,72.119C0,71.99 -0.024,71.88 -0.073,71.789C-0.121,71.698 -0.192,71.628 -0.284,71.58C-0.377,71.532 -0.488,71.508 -0.618,71.508L-1.894,71.508C-2.025,71.508 -2.137,71.532 -2.229,71.58C-2.322,71.628 -2.392,71.698 -2.44,71.789C-2.488,71.88 -2.512,71.99 -2.512,72.119C-2.512,72.248 -2.488,72.358 -2.44,72.449C-2.392,72.541 -2.322,72.61 -2.229,72.658C-2.137,72.706 -2.025,72.73 -1.894,72.73L-0.618,72.73C-0.488,72.73 -0.377,72.706 -0.284,72.658C-0.192,72.61 -0.121,72.541 -0.073,72.449C-0.024,72.358 0,72.248 0,72.119M0,75.764C0,75.643 -0.022,75.541 -0.067,75.457C-0.111,75.374 -0.177,75.31 -0.263,75.267C-0.35,75.223 -0.455,75.202 -0.579,75.202L-2.487,75.202L-2.487,75.523L-0.565,75.523C-0.484,75.523 -0.422,75.544 -0.379,75.585C-0.335,75.626 -0.313,75.686 -0.313,75.764C-0.313,75.84 -0.335,75.899 -0.379,75.94C-0.422,75.98 -0.484,76.001 -0.565,76.001L-2.487,76.001L-2.487,76.322L-0.579,76.322C-0.455,76.322 -0.35,76.301 -0.263,76.258C-0.177,76.215 -0.111,76.152 -0.067,76.068C-0.022,75.985 0,75.883 0,75.764M-0.026,73.066L-2.487,73.066L-2.487,73.387L-0.026,73.387L-0.026,73.066ZM-2.487,74.237L-2.487,74.88L-0.026,74.88L-0.026,74.238C-0.026,74.129 -0.045,74.036 -0.086,73.959C-0.126,73.882 -0.184,73.824 -0.262,73.783C-0.339,73.743 -0.432,73.722 -0.54,73.722L-1.972,73.722C-2.081,73.722 -2.175,73.742 -2.251,73.782C-2.328,73.822 -2.386,73.881 -2.427,73.957C-2.467,74.034 -2.487,74.127 -2.487,74.237M-0.026,76.474L-2.487,77.043L-2.487,77.338L-0.026,77.907L-0.026,77.561L-0.562,77.46L-0.562,76.921L-0.026,76.82L-0.026,76.474ZM-3.433,54.169C-3.433,54.04 -3.457,53.93 -3.506,53.839C-3.554,53.747 -3.625,53.678 -3.717,53.63C-3.81,53.582 -3.921,53.558 -4.051,53.558L-5.327,53.558C-5.458,53.558 -5.57,53.582 -5.662,53.63C-5.755,53.678 -5.825,53.747 -5.873,53.839C-5.921,53.93 -5.945,54.04 -5.945,54.169C-5.945,54.298 -5.921,54.407 -5.873,54.499C-5.825,54.59 -5.755,54.66 -5.662,54.708C-5.57,54.756 -5.458,54.78 -5.327,54.78L-4.051,54.78C-3.921,54.78 -3.81,54.756 -3.717,54.708C-3.625,54.66 -3.554,54.59 -3.506,54.499C-3.457,54.407 -3.433,54.298 -3.433,54.169M-3.433,77.216C-3.433,77.095 -3.458,76.992 -3.507,76.906C-3.557,76.821 -3.629,76.755 -3.723,76.711C-3.817,76.666 -3.931,76.644 -4.063,76.644L-4.168,76.644L-4.168,76.969L-4.063,76.969C-3.996,76.969 -3.939,76.978 -3.892,76.998C-3.844,77.017 -3.808,77.045 -3.783,77.082C-3.759,77.12 -3.746,77.164 -3.746,77.216C-3.746,77.268 -3.759,77.312 -3.783,77.349C-3.808,77.385 -3.844,77.414 -3.892,77.434C-3.939,77.453 -3.996,77.463 -4.063,77.463L-5.313,77.463C-5.381,77.463 -5.439,77.453 -5.486,77.434C-5.534,77.414 -5.57,77.385 -5.595,77.349C-5.619,77.312 -5.632,77.268 -5.632,77.216C-5.632,77.164 -5.619,77.12 -5.595,77.082C-5.57,77.045 -5.534,77.017 -5.486,76.998C-5.439,76.978 -5.382,76.969 -5.315,76.969L-5.21,76.969L-5.21,76.644L-5.315,76.644C-5.447,76.644 -5.56,76.666 -5.655,76.711C-5.749,76.755 -5.821,76.821 -5.87,76.906C-5.92,76.992 -5.945,77.095 -5.945,77.216C-5.945,77.337 -5.92,77.44 -5.87,77.525C-5.821,77.61 -5.749,77.676 -5.655,77.721C-5.56,77.766 -5.447,77.788 -5.313,77.788L-4.063,77.788C-3.931,77.788 -3.817,77.766 -3.723,77.721C-3.629,77.676 -3.557,77.61 -3.507,77.524C-3.458,77.438 -3.433,77.336 -3.433,77.216M-3.458,74.138L-3.458,73.082L-3.763,73.082L-3.763,73.817L-4.528,73.817L-4.528,73.167L-4.833,73.167L-4.833,73.817L-5.615,73.817L-5.615,73.082L-5.92,73.082L-5.92,74.138L-3.458,74.138ZM-5.92,76.342L-3.459,76.342L-3.459,76.02L-5.92,76.02L-5.92,76.342ZM-4.18,74.784L-5.92,75.405L-5.92,75.686L-3.46,75.686L-3.46,75.379L-5.145,75.379L-3.46,74.762L-3.46,74.477L-5.92,74.477L-5.92,74.784L-4.18,74.784ZM-3.995,72.5L-3.995,71.962L-3.458,71.86L-3.458,71.515L-5.92,72.083L-5.92,72.378L-3.458,72.947L-3.458,72.601L-3.995,72.5ZM-5.945,70.765C-5.945,70.892 -5.923,71.001 -5.879,71.09C-5.835,71.179 -5.77,71.246 -5.685,71.292C-5.6,71.338 -5.497,71.361 -5.375,71.361L-5.232,71.361C-5.109,71.361 -5.008,71.337 -4.928,71.291C-4.847,71.245 -4.785,71.189 -4.74,71.123C-4.695,71.057 -4.648,70.972 -4.601,70.868L-4.591,70.844C-4.59,70.842 -4.589,70.84 -4.588,70.837C-4.588,70.835 -4.587,70.833 -4.586,70.831C-4.551,70.753 -4.52,70.692 -4.493,70.648C-4.467,70.604 -4.433,70.567 -4.391,70.538C-4.349,70.509 -4.299,70.494 -4.239,70.494L-4.024,70.494C-3.933,70.494 -3.865,70.517 -3.817,70.563C-3.77,70.61 -3.746,70.676 -3.746,70.763C-3.746,70.852 -3.77,70.921 -3.818,70.969C-3.866,71.017 -3.935,71.041 -4.024,71.041L-4.134,71.041L-4.134,71.362L-4.012,71.362C-3.888,71.362 -3.783,71.339 -3.696,71.293C-3.61,71.247 -3.544,71.179 -3.5,71.09C-3.455,71.001 -3.433,70.892 -3.433,70.763C-3.433,70.637 -3.455,70.529 -3.5,70.442C-3.544,70.353 -3.61,70.287 -3.696,70.241C-3.783,70.195 -3.888,70.172 -4.012,70.172L-4.237,70.172C-4.359,70.172 -4.458,70.193 -4.533,70.235C-4.609,70.277 -4.667,70.328 -4.707,70.387C-4.747,70.447 -4.789,70.526 -4.833,70.624C-4.835,70.63 -4.838,70.636 -4.84,70.642C-4.843,70.648 -4.846,70.654 -4.848,70.66C-4.852,70.668 -4.855,70.675 -4.858,70.682C-4.862,70.689 -4.865,70.696 -4.869,70.704C-4.902,70.781 -4.932,70.841 -4.958,70.885C-4.984,70.929 -5.018,70.966 -5.061,70.995C-5.103,71.024 -5.155,71.039 -5.217,71.039L-5.371,71.039C-5.455,71.039 -5.519,71.016 -5.564,70.969C-5.609,70.922 -5.632,70.854 -5.632,70.765C-5.632,70.682 -5.608,70.618 -5.561,70.574C-5.514,70.529 -5.445,70.507 -5.354,70.507L-5.239,70.507L-5.239,70.186L-5.368,70.186C-5.491,70.186 -5.596,70.208 -5.682,70.253C-5.768,70.298 -5.834,70.363 -5.878,70.449C-5.923,70.536 -5.945,70.641 -5.945,70.765M-6.866,66.951C-6.866,66.822 -6.89,66.712 -6.939,66.621C-6.987,66.529 -7.058,66.46 -7.15,66.412C-7.243,66.364 -7.354,66.34 -7.484,66.34L-8.76,66.34C-8.891,66.34 -9.003,66.364 -9.095,66.412C-9.188,66.46 -9.258,66.529 -9.306,66.621C-9.354,66.712 -9.378,66.822 -9.378,66.951C-9.378,67.08 -9.354,67.19 -9.306,67.281C-9.258,67.372 -9.188,67.442 -9.095,67.49C-9.003,67.538 -8.891,67.562 -8.76,67.562L-7.484,67.562C-7.354,67.562 -7.243,67.538 -7.15,67.49C-7.058,67.442 -6.987,67.372 -6.939,67.281C-6.89,67.19 -6.866,67.08 -6.866,66.951M-6.866,74.199C-6.866,74.071 -6.89,73.961 -6.939,73.869C-6.987,73.778 -7.058,73.708 -7.15,73.66C-7.243,73.613 -7.354,73.589 -7.484,73.589L-8.76,73.589C-8.891,73.589 -9.003,73.613 -9.095,73.66C-9.188,73.708 -9.258,73.778 -9.306,73.869C-9.354,73.961 -9.378,74.071 -9.378,74.199C-9.378,74.328 -9.354,74.438 -9.306,74.529C-9.258,74.621 -9.188,74.691 -9.095,74.739C-9.003,74.787 -8.891,74.811 -8.76,74.811L-7.484,74.811C-7.354,74.811 -7.243,74.787 -7.15,74.739C-7.058,74.691 -6.987,74.621 -6.939,74.529C-6.89,74.438 -6.866,74.328 -6.866,74.199M-6.866,75.723C-6.866,75.597 -6.888,75.489 -6.933,75.402C-6.977,75.313 -7.043,75.247 -7.129,75.201C-7.215,75.155 -7.321,75.132 -7.445,75.132L-7.67,75.132C-7.792,75.132 -7.891,75.153 -7.966,75.195C-8.042,75.237 -8.099,75.287 -8.14,75.347C-8.18,75.407 -8.222,75.486 -8.266,75.584C-8.268,75.59 -8.27,75.596 -8.273,75.602C-8.276,75.608 -8.279,75.614 -8.281,75.62C-8.284,75.628 -8.288,75.635 -8.291,75.642C-8.295,75.648 -8.298,75.656 -8.301,75.664C-8.335,75.74 -8.365,75.801 -8.391,75.845C-8.417,75.889 -8.451,75.925 -8.493,75.955C-8.536,75.984 -8.588,75.999 -8.65,75.999L-8.804,75.999C-8.888,75.999 -8.952,75.976 -8.997,75.929C-9.042,75.882 -9.065,75.814 -9.065,75.725C-9.065,75.641 -9.041,75.577 -8.994,75.533C-8.946,75.489 -8.877,75.467 -8.787,75.467L-8.672,75.467L-8.672,75.146L-8.801,75.146C-8.924,75.146 -9.029,75.168 -9.115,75.213C-9.201,75.257 -9.267,75.323 -9.311,75.409C-9.356,75.495 -9.378,75.601 -9.378,75.725C-9.378,75.852 -9.356,75.961 -9.312,76.05C-9.268,76.139 -9.203,76.206 -9.118,76.252C-9.033,76.298 -8.929,76.321 -8.807,76.321L-8.665,76.321C-8.542,76.321 -8.441,76.297 -8.36,76.251C-8.28,76.205 -8.218,76.149 -8.173,76.083C-8.128,76.017 -8.081,75.932 -8.034,75.828L-8.024,75.804C-8.022,75.802 -8.022,75.8 -8.021,75.797C-8.021,75.795 -8.02,75.793 -8.019,75.791C-7.984,75.713 -7.953,75.652 -7.926,75.608C-7.9,75.564 -7.866,75.527 -7.824,75.498C-7.782,75.469 -7.731,75.454 -7.672,75.454L-7.457,75.454C-7.366,75.454 -7.298,75.477 -7.25,75.523C-7.203,75.57 -7.179,75.636 -7.179,75.723C-7.179,75.812 -7.203,75.881 -7.251,75.929C-7.299,75.977 -7.368,76.001 -7.457,76.001L-7.567,76.001L-7.567,76.322L-7.445,76.322C-7.321,76.322 -7.215,76.299 -7.129,76.253C-7.043,76.207 -6.977,76.139 -6.933,76.05C-6.888,75.961 -6.866,75.852 -6.866,75.723M-6.891,76.474L-9.353,77.043L-9.353,77.338L-6.891,77.907L-6.891,77.561L-7.428,77.46L-7.428,76.921L-6.891,76.82L-6.891,76.474ZM-9.505,66.929L-9.893,66.474L-10.126,66.714L-9.691,67.127L-9.505,66.929ZM-9.378,72.678C-9.378,72.799 -9.353,72.901 -9.303,72.986C-9.254,73.072 -9.182,73.137 -9.088,73.182C-8.993,73.227 -8.88,73.25 -8.746,73.25L-7.496,73.25C-7.363,73.25 -7.25,73.227 -7.156,73.182C-7.062,73.137 -6.99,73.072 -6.94,72.986C-6.891,72.9 -6.866,72.797 -6.866,72.678C-6.866,72.557 -6.891,72.454 -6.94,72.368C-6.99,72.282 -7.062,72.217 -7.156,72.172C-7.25,72.128 -7.363,72.106 -7.496,72.106L-7.6,72.106L-7.6,72.431L-7.496,72.431C-7.429,72.431 -7.372,72.44 -7.325,72.459C-7.277,72.478 -7.241,72.507 -7.216,72.544C-7.192,72.581 -7.179,72.626 -7.179,72.678C-7.179,72.73 -7.192,72.774 -7.216,72.811C-7.241,72.847 -7.277,72.876 -7.325,72.895C-7.372,72.915 -7.429,72.925 -7.496,72.925L-8.746,72.925C-8.814,72.925 -8.872,72.915 -8.919,72.895C-8.967,72.876 -9.003,72.847 -9.028,72.811C-9.052,72.774 -9.065,72.73 -9.065,72.678C-9.065,72.626 -9.052,72.581 -9.028,72.544C-9.003,72.507 -8.967,72.478 -8.919,72.459C-8.872,72.44 -8.815,72.431 -8.748,72.431L-8.643,72.431L-8.643,72.106L-8.748,72.106C-8.88,72.106 -8.993,72.128 -9.088,72.172C-9.182,72.217 -9.254,72.282 -9.303,72.368C-9.353,72.454 -9.378,72.557 -9.378,72.678M-9.353,71.804L-6.892,71.804L-6.892,71.483L-9.353,71.483L-9.353,71.804ZM-7.428,70.819L-7.428,70.281L-6.891,70.179L-6.891,69.834L-9.353,70.403L-9.353,70.697L-6.891,71.266L-6.891,70.921L-7.428,70.819ZM-6.891,67.897L-9.352,67.897L-9.352,68.219L-6.891,68.219L-6.891,67.897ZM-9.378,69.092C-9.378,69.213 -9.353,69.316 -9.303,69.401C-9.254,69.487 -9.182,69.552 -9.088,69.597C-8.993,69.642 -8.88,69.665 -8.746,69.665L-7.496,69.665C-7.363,69.665 -7.25,69.642 -7.156,69.597C-7.062,69.552 -6.99,69.486 -6.94,69.4C-6.891,69.315 -6.866,69.212 -6.866,69.092C-6.866,68.972 -6.891,68.868 -6.94,68.783C-6.99,68.697 -7.062,68.632 -7.156,68.587C-7.25,68.543 -7.363,68.52 -7.496,68.52L-7.6,68.52L-7.6,68.845L-7.496,68.845C-7.429,68.845 -7.372,68.855 -7.325,68.874C-7.277,68.893 -7.241,68.921 -7.216,68.959C-7.192,68.996 -7.179,69.041 -7.179,69.092C-7.179,69.144 -7.192,69.189 -7.216,69.225C-7.241,69.262 -7.277,69.29 -7.325,69.31C-7.372,69.33 -7.429,69.34 -7.496,69.34L-8.746,69.34C-8.814,69.34 -8.872,69.33 -8.919,69.31C-8.967,69.29 -9.003,69.262 -9.028,69.225C-9.052,69.189 -9.065,69.144 -9.065,69.092C-9.065,69.041 -9.052,68.996 -9.028,68.959C-9.003,68.921 -8.967,68.893 -8.919,68.874C-8.872,68.855 -8.815,68.845 -8.748,68.845L-8.643,68.845L-8.643,68.52L-8.748,68.52C-8.88,68.52 -8.993,68.543 -9.088,68.587C-9.182,68.632 -9.254,68.697 -9.303,68.783C-9.353,68.868 -9.378,68.972 -9.378,69.092M-9.378,51.34C-9.378,51.468 -9.356,51.576 -9.312,51.665C-9.268,51.754 -9.203,51.822 -9.118,51.867C-9.033,51.913 -8.929,51.936 -8.807,51.936L-8.665,51.936C-8.542,51.936 -8.441,51.913 -8.36,51.866C-8.28,51.82 -8.218,51.764 -8.173,51.698C-8.128,51.632 -8.081,51.547 -8.034,51.444L-8.024,51.42C-8.022,51.418 -8.022,51.415 -8.021,51.413C-8.021,51.411 -8.02,51.408 -8.019,51.406C-7.984,51.328 -7.953,51.267 -7.926,51.223C-7.9,51.179 -7.866,51.143 -7.824,51.113C-7.782,51.084 -7.731,51.069 -7.672,51.069L-7.457,51.069C-7.366,51.069 -7.298,51.092 -7.25,51.139C-7.203,51.185 -7.179,51.252 -7.179,51.338C-7.179,51.428 -7.203,51.496 -7.251,51.544C-7.299,51.592 -7.368,51.616 -7.457,51.616L-7.567,51.616L-7.567,51.938L-7.445,51.938C-7.321,51.938 -7.215,51.914 -7.129,51.868C-7.043,51.822 -6.977,51.754 -6.933,51.665C-6.888,51.576 -6.866,51.467 -6.866,51.338C-6.866,51.212 -6.888,51.105 -6.933,51.017C-6.977,50.929 -7.043,50.862 -7.129,50.816C-7.215,50.771 -7.321,50.748 -7.445,50.748L-7.67,50.748C-7.792,50.748 -7.891,50.768 -7.966,50.81C-8.042,50.852 -8.099,50.903 -8.14,50.963C-8.18,51.022 -8.222,51.101 -8.266,51.199C-8.268,51.205 -8.27,51.211 -8.273,51.218C-8.276,51.224 -8.279,51.229 -8.281,51.235C-8.284,51.243 -8.288,51.251 -8.291,51.257C-8.295,51.264 -8.298,51.271 -8.301,51.279C-8.335,51.356 -8.365,51.416 -8.391,51.46C-8.417,51.505 -8.451,51.541 -8.493,51.57C-8.536,51.6 -8.588,51.614 -8.65,51.614L-8.804,51.614C-8.888,51.614 -8.952,51.591 -8.997,51.544C-9.042,51.498 -9.065,51.429 -9.065,51.34C-9.065,51.257 -9.041,51.193 -8.994,51.149C-8.946,51.105 -8.877,51.083 -8.787,51.083L-8.672,51.083L-8.672,50.761L-8.801,50.761C-8.924,50.761 -9.029,50.783 -9.115,50.828C-9.201,50.873 -9.267,50.938 -9.311,51.024C-9.356,51.111 -9.378,51.216 -9.378,51.34M-9.354,54.221L-9.354,54.797L-6.891,54.797L-6.891,54.475L-7.932,54.475L-7.932,54.221C-7.932,54.214 -7.934,54.208 -7.934,54.2L-6.891,53.879L-6.891,53.527L-7.998,53.891C-7.999,53.889 -7.999,53.886 -8,53.884C-8.045,53.791 -8.111,53.719 -8.197,53.67C-8.284,53.621 -8.387,53.597 -8.508,53.597L-8.796,53.597C-8.913,53.597 -9.014,53.621 -9.098,53.67C-9.182,53.719 -9.245,53.791 -9.289,53.884C-9.332,53.978 -9.354,54.09 -9.354,54.221M-9.048,55.785L-9.048,55.051L-9.353,55.051L-9.353,56.107L-6.891,56.107L-6.891,55.051L-7.196,55.051L-7.196,55.785L-7.961,55.785L-7.961,55.135L-8.266,55.135L-8.266,55.785L-9.048,55.785ZM-9.048,52.909L-9.048,52.175L-9.353,52.175L-9.353,53.231L-6.891,53.231L-6.891,52.175L-7.196,52.175L-7.196,52.909L-7.961,52.909L-7.961,52.259L-8.266,52.259L-8.266,52.909L-9.048,52.909ZM-6.866,56.994C-6.866,56.878 -6.888,56.779 -6.931,56.697C-6.974,56.615 -7.038,56.553 -7.12,56.51C-7.203,56.467 -7.303,56.445 -7.419,56.445L-9.353,56.445L-9.353,56.767L-7.43,56.767C-7.35,56.767 -7.289,56.786 -7.245,56.823C-7.201,56.86 -7.179,56.912 -7.179,56.979C-7.179,57.029 -7.191,57.076 -7.215,57.121C-7.24,57.166 -7.273,57.205 -7.316,57.238L-7.118,57.487C-7.038,57.432 -6.976,57.363 -6.932,57.277C-6.888,57.191 -6.866,57.097 -6.866,56.994M-6.866,58.167C-6.866,58.046 -6.888,57.944 -6.933,57.861C-6.977,57.777 -7.043,57.714 -7.129,57.67C-7.215,57.627 -7.321,57.605 -7.445,57.605L-9.352,57.605L-9.352,57.927L-7.431,57.927C-7.35,57.927 -7.288,57.947 -7.244,57.989C-7.201,58.03 -7.179,58.089 -7.179,58.167C-7.179,58.244 -7.201,58.303 -7.244,58.343C-7.288,58.384 -7.35,58.404 -7.431,58.404L-9.352,58.404L-9.352,58.726L-7.445,58.726C-7.321,58.726 -7.215,58.704 -7.129,58.661C-7.043,58.619 -6.977,58.555 -6.933,58.472C-6.888,58.388 -6.866,58.287 -6.866,58.167M-6.891,62.45L-6.891,61.394L-7.196,61.394L-7.196,62.128L-7.961,62.128L-7.961,61.478L-8.266,61.478L-8.266,62.128L-9.048,62.128L-9.048,61.394L-9.353,61.394L-9.353,62.45L-6.891,62.45ZM-6.891,63.946L-6.891,63.305C-6.891,63.195 -6.911,63.102 -6.951,63.025C-6.992,62.949 -7.05,62.89 -7.127,62.849C-7.205,62.809 -7.298,62.788 -7.406,62.788L-8.838,62.788C-8.947,62.788 -9.041,62.809 -9.117,62.848C-9.194,62.888 -9.252,62.947 -9.292,63.024C-9.332,63.101 -9.353,63.194 -9.353,63.303L-9.353,63.946L-6.891,63.946ZM-7.807,59.84L-9.353,60.337L-9.353,60.632L-6.891,60.632L-6.891,60.325L-8.491,60.325L-7.294,59.943L-7.294,59.736L-8.555,59.342L-6.891,59.342L-6.891,59.047L-9.353,59.047L-9.353,59.33L-7.807,59.84ZM-8.578,65.695L-6.893,65.077L-6.893,64.793L-9.353,64.793L-9.353,65.099L-7.612,65.099L-9.353,65.721L-9.353,66.001L-6.893,66.001L-6.893,65.695L-8.578,65.695ZM-5.615,69.262L-5.615,68.825L-5.92,68.825L-5.92,70.02L-5.615,70.02L-5.615,69.583L-3.458,69.583L-3.458,69.262L-5.615,69.262ZM-3.995,68.361L-3.995,67.823L-3.458,67.721L-3.458,67.376L-5.92,67.945L-5.92,68.239L-3.458,68.808L-3.458,68.463L-3.995,68.361ZM-5.92,62.834L-5.92,63.477L-3.458,63.477L-3.458,62.836C-3.458,62.726 -3.478,62.633 -3.518,62.556C-3.558,62.48 -3.617,62.421 -3.694,62.38C-3.772,62.34 -3.865,62.319 -3.973,62.319L-5.405,62.319C-5.515,62.319 -5.608,62.34 -5.685,62.379C-5.761,62.42 -5.82,62.478 -5.86,62.555C-5.9,62.632 -5.92,62.725 -5.92,62.834M-5.92,60.925L-5.92,61.981L-3.458,61.981L-3.458,60.925L-3.763,60.925L-3.763,61.659L-4.528,61.659L-4.528,61.009L-4.833,61.009L-4.833,61.659L-5.615,61.659L-5.615,60.925L-5.92,60.925ZM-5.92,57.184L-5.92,58.24L-3.458,58.24L-3.458,57.184L-3.763,57.184L-3.763,57.918L-4.528,57.918L-4.528,57.268L-4.833,57.268L-4.833,57.918L-5.615,57.918L-5.615,57.184L-5.92,57.184ZM-5.92,56.286L-5.92,56.929L-3.458,56.929L-3.458,56.288C-3.458,56.179 -3.478,56.086 -3.518,56.009C-3.558,55.932 -3.617,55.873 -3.694,55.833C-3.772,55.792 -3.865,55.772 -3.973,55.772L-5.405,55.772C-5.515,55.772 -5.608,55.792 -5.685,55.832C-5.761,55.872 -5.82,55.93 -5.86,56.007C-5.9,56.084 -5.92,56.177 -5.92,56.286M-3.458,55.115L-5.919,55.115L-5.919,55.436L-3.458,55.436L-3.458,55.115ZM-4.86,64.755L-5.92,65.08L-5.92,65.407L-4.488,64.916L-3.458,64.916L-3.458,64.595L-4.488,64.595L-5.92,64.121L-5.92,64.447L-4.86,64.755ZM-4.374,59.371L-5.92,59.868L-5.92,60.163L-3.458,60.163L-3.458,59.856L-5.058,59.856L-3.861,59.474L-3.861,59.267L-5.122,58.873L-3.458,58.873L-3.458,58.578L-5.92,58.578L-5.92,58.861L-4.374,59.371ZM-5.945,66.626C-5.945,66.753 -5.923,66.862 -5.879,66.951C-5.835,67.04 -5.77,67.107 -5.685,67.153C-5.6,67.199 -5.497,67.222 -5.375,67.222L-5.232,67.222C-5.109,67.222 -5.008,67.199 -4.928,67.153C-4.847,67.106 -4.785,67.05 -4.74,66.984C-4.695,66.918 -4.648,66.833 -4.601,66.729L-4.591,66.706C-4.59,66.703 -4.589,66.701 -4.588,66.699C-4.588,66.697 -4.587,66.694 -4.586,66.692C-4.551,66.614 -4.52,66.553 -4.493,66.509C-4.467,66.465 -4.433,66.429 -4.391,66.399C-4.349,66.37 -4.299,66.355 -4.239,66.355L-4.024,66.355C-3.933,66.355 -3.865,66.378 -3.817,66.425C-3.77,66.471 -3.746,66.538 -3.746,66.624C-3.746,66.714 -3.77,66.782 -3.818,66.83C-3.866,66.878 -3.935,66.902 -4.024,66.902L-4.134,66.902L-4.134,67.224L-4.012,67.224C-3.888,67.224 -3.783,67.2 -3.696,67.154C-3.61,67.108 -3.544,67.04 -3.5,66.951C-3.455,66.862 -3.433,66.753 -3.433,66.624C-3.433,66.498 -3.455,66.391 -3.5,66.303C-3.544,66.215 -3.61,66.148 -3.696,66.102C-3.783,66.056 -3.888,66.033 -4.012,66.033L-4.237,66.033C-4.359,66.033 -4.458,66.054 -4.533,66.096C-4.609,66.138 -4.667,66.189 -4.707,66.248C-4.747,66.308 -4.789,66.387 -4.833,66.485C-4.835,66.491 -4.838,66.497 -4.84,66.503C-4.843,66.509 -4.846,66.515 -4.848,66.521C-4.852,66.529 -4.855,66.536 -4.858,66.543C-4.862,66.55 -4.865,66.557 -4.869,66.565C-4.902,66.642 -4.932,66.702 -4.958,66.746C-4.984,66.79 -5.018,66.827 -5.061,66.856C-5.103,66.885 -5.155,66.9 -5.217,66.9L-5.371,66.9C-5.455,66.9 -5.519,66.877 -5.564,66.83C-5.609,66.783 -5.632,66.715 -5.632,66.626C-5.632,66.543 -5.608,66.479 -5.561,66.435C-5.514,66.391 -5.445,66.369 -5.354,66.369L-5.239,66.369L-5.239,66.047L-5.368,66.047C-5.491,66.047 -5.596,66.069 -5.682,66.114C-5.768,66.159 -5.834,66.224 -5.878,66.31C-5.923,66.397 -5.945,66.502 -5.945,66.626M-5.945,52.638C-5.945,52.766 -5.923,52.874 -5.879,52.964C-5.835,53.053 -5.77,53.12 -5.685,53.166C-5.6,53.212 -5.497,53.235 -5.375,53.235L-5.232,53.235C-5.109,53.235 -5.008,53.211 -4.928,53.165C-4.847,53.119 -4.785,53.063 -4.74,52.997C-4.695,52.93 -4.648,52.846 -4.601,52.742L-4.591,52.718C-4.59,52.716 -4.589,52.713 -4.588,52.711C-4.588,52.709 -4.587,52.707 -4.586,52.705C-4.551,52.627 -4.52,52.566 -4.493,52.522C-4.467,52.478 -4.433,52.441 -4.391,52.412C-4.349,52.382 -4.299,52.368 -4.239,52.368L-4.024,52.368C-3.933,52.368 -3.865,52.391 -3.817,52.437C-3.77,52.483 -3.746,52.55 -3.746,52.637C-3.746,52.726 -3.77,52.795 -3.818,52.843C-3.866,52.89 -3.935,52.914 -4.024,52.914L-4.134,52.914L-4.134,53.236L-4.012,53.236C-3.888,53.236 -3.783,53.213 -3.696,53.167C-3.61,53.12 -3.544,53.053 -3.5,52.964C-3.455,52.874 -3.433,52.766 -3.433,52.637C-3.433,52.511 -3.455,52.403 -3.5,52.315C-3.544,52.227 -3.61,52.16 -3.696,52.114C-3.783,52.069 -3.888,52.046 -4.012,52.046L-4.237,52.046C-4.359,52.046 -4.458,52.067 -4.533,52.109C-4.609,52.151 -4.667,52.201 -4.707,52.261C-4.747,52.321 -4.789,52.4 -4.833,52.498C-4.835,52.504 -4.838,52.51 -4.84,52.516C-4.843,52.522 -4.846,52.528 -4.848,52.534C-4.852,52.542 -4.855,52.549 -4.858,52.556C-4.862,52.562 -4.865,52.57 -4.869,52.578C-4.902,52.654 -4.932,52.715 -4.958,52.759C-4.984,52.803 -5.018,52.839 -5.061,52.869C-5.103,52.898 -5.155,52.913 -5.217,52.913L-5.371,52.913C-5.455,52.913 -5.519,52.89 -5.564,52.843C-5.609,52.796 -5.632,52.728 -5.632,52.638C-5.632,52.555 -5.608,52.491 -5.561,52.447C-5.514,52.403 -5.445,52.381 -5.354,52.381L-5.239,52.381L-5.239,52.059L-5.368,52.059C-5.491,52.059 -5.596,52.082 -5.682,52.127C-5.768,52.171 -5.834,52.236 -5.878,52.323C-5.923,52.409 -5.945,52.514 -5.945,52.638M-0.026,69.527L-2.487,69.527L-2.487,69.849L-0.026,69.849L-0.026,69.527ZM-2.487,71.356L-0.026,70.861L-0.026,70.526L-2.487,70.032L-2.487,70.367L-0.597,70.694L-2.487,71.02L-2.487,71.356ZM-2.512,68.612C-2.512,68.739 -2.49,68.847 -2.446,68.937C-2.402,69.026 -2.338,69.093 -2.252,69.139C-2.167,69.184 -2.064,69.208 -1.942,69.208L-1.8,69.208C-1.677,69.208 -1.575,69.184 -1.495,69.138C-1.415,69.092 -1.352,69.036 -1.307,68.97C-1.262,68.903 -1.216,68.819 -1.168,68.715L-1.158,68.691C-1.157,68.689 -1.156,68.687 -1.156,68.684C-1.155,68.682 -1.154,68.68 -1.153,68.677C-1.118,68.6 -1.087,68.539 -1.061,68.495C-1.034,68.451 -1,68.414 -0.958,68.385C-0.917,68.355 -0.866,68.341 -0.806,68.341L-0.591,68.341C-0.5,68.341 -0.432,68.364 -0.384,68.41C-0.337,68.456 -0.313,68.523 -0.313,68.61C-0.313,68.699 -0.337,68.768 -0.385,68.816C-0.433,68.863 -0.501,68.887 -0.591,68.887L-0.701,68.887L-0.701,69.209L-0.579,69.209C-0.455,69.209 -0.35,69.186 -0.263,69.14C-0.177,69.093 -0.111,69.026 -0.067,68.937C-0.022,68.847 0,68.739 0,68.61C0,68.484 -0.022,68.376 -0.067,68.288C-0.111,68.2 -0.177,68.133 -0.263,68.088C-0.35,68.042 -0.455,68.019 -0.579,68.019L-0.804,68.019C-0.926,68.019 -1.025,68.04 -1.1,68.082C-1.176,68.124 -1.234,68.174 -1.274,68.234C-1.314,68.294 -1.356,68.373 -1.4,68.471C-1.402,68.477 -1.405,68.483 -1.408,68.489C-1.41,68.495 -1.413,68.501 -1.415,68.507C-1.418,68.515 -1.422,68.522 -1.425,68.529C-1.429,68.535 -1.432,68.543 -1.436,68.551C-1.469,68.627 -1.499,68.688 -1.525,68.732C-1.551,68.776 -1.585,68.813 -1.628,68.842C-1.67,68.871 -1.722,68.886 -1.784,68.886L-1.938,68.886C-2.022,68.886 -2.086,68.862 -2.131,68.816C-2.177,68.769 -2.199,68.701 -2.199,68.612C-2.199,68.528 -2.175,68.464 -2.128,68.42C-2.08,68.376 -2.012,68.354 -1.921,68.354L-1.806,68.354L-1.806,68.033L-1.935,68.033C-2.058,68.033 -2.163,68.055 -2.249,68.1C-2.335,68.144 -2.401,68.209 -2.445,68.296C-2.49,68.382 -2.512,68.487 -2.512,68.612M-2.487,67.714L-0.579,67.714C-0.455,67.714 -0.35,67.693 -0.263,67.65C-0.177,67.607 -0.111,67.544 -0.067,67.461C-0.022,67.377 0,67.276 0,67.156C0,67.035 -0.022,66.933 -0.067,66.849C-0.111,66.766 -0.177,66.702 -0.263,66.659C-0.35,66.616 -0.455,66.594 -0.579,66.594L-2.487,66.594L-2.487,66.916L-0.565,66.916C-0.484,66.916 -0.422,66.936 -0.379,66.977C-0.335,67.018 -0.313,67.078 -0.313,67.156C-0.313,67.233 -0.335,67.291 -0.379,67.332C-0.422,67.372 -0.484,67.393 -0.565,67.393L-2.487,67.393L-2.487,67.714ZM-2.487,65.578L-2.487,65.873L-0.026,66.441L-0.026,66.096L-0.562,65.995L-0.562,65.457L-0.026,65.355L-0.026,65.01L-2.487,65.578ZM-2.487,64.468L-2.487,64.789L-0.026,64.789L-0.026,64.617L-0.025,64.617L-0.025,63.767L-0.33,63.767L-0.33,64.468L-2.487,64.468ZM-2.182,63.191L-2.182,62.457L-2.487,62.457L-2.487,63.513L-0.026,63.513L-0.026,63.345L-0.025,63.345L-0.025,62.457L-0.33,62.457L-0.33,63.191L-1.095,63.191L-1.095,62.541L-1.4,62.541L-1.4,63.191L-2.182,63.191ZM-2.512,61.622C-2.512,61.75 -2.49,61.858 -2.446,61.947C-2.402,62.036 -2.338,62.104 -2.252,62.149C-2.167,62.195 -2.064,62.218 -1.942,62.218L-1.8,62.218C-1.677,62.218 -1.575,62.195 -1.495,62.148C-1.415,62.102 -1.352,62.046 -1.307,61.98C-1.262,61.914 -1.216,61.829 -1.168,61.725L-1.158,61.701C-1.157,61.7 -1.156,61.697 -1.156,61.695C-1.155,61.693 -1.154,61.69 -1.153,61.688C-1.118,61.61 -1.087,61.549 -1.061,61.505C-1.034,61.461 -1,61.424 -0.958,61.395C-0.917,61.366 -0.866,61.351 -0.806,61.351L-0.591,61.351C-0.5,61.351 -0.432,61.375 -0.384,61.421C-0.337,61.467 -0.313,61.534 -0.313,61.62C-0.313,61.709 -0.337,61.778 -0.385,61.826C-0.433,61.874 -0.501,61.898 -0.591,61.898L-0.701,61.898L-0.701,62.22L-0.579,62.22C-0.455,62.22 -0.35,62.197 -0.263,62.15C-0.177,62.104 -0.111,62.036 -0.067,61.947C-0.022,61.858 0,61.749 0,61.62C0,61.494 -0.022,61.387 -0.067,61.299C-0.111,61.211 -0.177,61.144 -0.263,61.098C-0.35,61.053 -0.455,61.03 -0.579,61.03L-0.804,61.03C-0.926,61.03 -1.025,61.05 -1.1,61.092C-1.176,61.134 -1.234,61.185 -1.274,61.245C-1.314,61.304 -1.356,61.383 -1.4,61.482C-1.402,61.487 -1.405,61.493 -1.408,61.5C-1.41,61.506 -1.413,61.512 -1.415,61.517C-1.418,61.525 -1.422,61.532 -1.425,61.539C-1.429,61.546 -1.432,61.553 -1.436,61.561C-1.469,61.638 -1.499,61.698 -1.525,61.742C-1.551,61.786 -1.585,61.823 -1.628,61.852C-1.67,61.882 -1.722,61.896 -1.784,61.896L-1.938,61.896C-2.022,61.896 -2.086,61.873 -2.131,61.826C-2.177,61.779 -2.199,61.711 -2.199,61.622C-2.199,61.539 -2.175,61.475 -2.128,61.431C-2.08,61.387 -2.012,61.365 -1.921,61.365L-1.806,61.365L-1.806,61.043L-1.935,61.043C-2.058,61.043 -2.163,61.065 -2.249,61.11C-2.335,61.155 -2.401,61.22 -2.445,61.307C-2.49,61.393 -2.512,61.498 -2.512,61.622M-8.22,-10.224L30.08,-10.224L30.08,33.591L14.955,33.591L14.955,10.527L10.019,10.527L10.019,61.592L14.955,61.592L14.955,38.528L30.08,38.528L30.08,82.343L-8.22,82.343C-11.322,82.343 -13.836,79.829 -13.836,76.727L-13.836,53.913L-13.779,53.913C-13.816,52.479 -13.836,50.981 -13.836,49.409L-13.836,22.482C-13.836,22.09 -13.833,21.724 -13.832,21.344L-13.836,21.344C-13.836,21.344 -13.835,4.464 -13.835,-4.609C-13.835,-7.71 -11.321,-10.224 -8.22,-10.224ZM-0.33,74.227C-0.33,74.168 -0.348,74.123 -0.382,74.091C-0.418,74.059 -0.467,74.044 -0.532,74.044L-1.98,74.044C-2.045,74.044 -2.094,74.059 -2.13,74.091C-2.164,74.123 -2.182,74.168 -2.182,74.227L-2.182,74.558L-0.33,74.558L-0.33,74.227ZM-0.865,65.514L-1.982,65.725L-0.865,65.937L-0.865,65.514ZM-0.865,76.979L-1.982,77.191L-0.865,77.402L-0.865,76.979ZM-3.881,53.913C-3.926,53.891 -3.979,53.879 -4.041,53.879L-5.337,53.879C-5.399,53.879 -5.452,53.891 -5.496,53.913C-5.541,53.936 -5.574,53.969 -5.597,54.012C-5.62,54.056 -5.632,54.108 -5.632,54.169C-5.632,54.23 -5.62,54.282 -5.597,54.325C-5.574,54.369 -5.541,54.402 -5.496,54.424C-5.452,54.447 -5.399,54.458 -5.337,54.458L-4.041,54.458C-3.979,54.458 -3.926,54.447 -3.881,54.424C-3.838,54.402 -3.804,54.369 -3.781,54.325C-3.758,54.282 -3.746,54.23 -3.746,54.169C-3.746,54.108 -3.758,54.056 -3.781,54.012C-3.804,53.969 -3.838,53.936 -3.881,53.913M-0.449,71.863C-0.493,71.841 -0.546,71.83 -0.608,71.83L-1.904,71.83C-1.966,71.83 -2.02,71.841 -2.064,71.863C-2.108,71.886 -2.141,71.919 -2.164,71.962C-2.187,72.006 -2.199,72.058 -2.199,72.119C-2.199,72.18 -2.187,72.232 -2.164,72.276C-2.141,72.319 -2.108,72.352 -2.064,72.375C-2.02,72.397 -1.966,72.408 -1.904,72.408L-0.608,72.408C-0.546,72.408 -0.493,72.397 -0.449,72.375C-0.405,72.352 -0.371,72.319 -0.348,72.276C-0.325,72.232 -0.313,72.18 -0.313,72.119C-0.313,72.058 -0.325,72.006 -0.348,71.962C-0.371,71.919 -0.405,71.886 -0.449,71.863M-4.298,72.442L-4.298,72.019L-5.415,72.231L-4.298,72.442ZM-7.731,70.762L-7.731,70.338L-8.848,70.55L-7.731,70.762ZM-8.237,54.193C-8.237,54.135 -8.248,54.086 -8.269,54.044C-8.291,54.003 -8.322,53.972 -8.362,53.95C-8.403,53.929 -8.452,53.918 -8.509,53.918L-8.76,53.918C-8.821,53.918 -8.873,53.929 -8.917,53.95C-8.96,53.972 -8.993,54.003 -9.016,54.044C-9.038,54.086 -9.049,54.135 -9.049,54.193L-9.049,54.475L-8.237,54.475L-8.237,54.193ZM-3.763,62.824C-3.763,62.765 -3.78,62.72 -3.816,62.689C-3.85,62.657 -3.9,62.641 -3.964,62.641L-5.414,62.641C-5.478,62.641 -5.527,62.657 -5.562,62.689C-5.597,62.72 -5.615,62.765 -5.615,62.824L-5.615,63.156L-3.763,63.156L-3.763,62.824ZM-7.397,63.11L-8.846,63.11C-8.911,63.11 -8.96,63.126 -8.995,63.157C-9.031,63.189 -9.048,63.234 -9.048,63.293L-9.048,63.625L-7.196,63.625L-7.196,63.293C-7.196,63.234 -7.213,63.189 -7.248,63.157C-7.284,63.126 -7.333,63.11 -7.397,63.11M-4.298,68.304L-4.298,67.88L-5.415,68.092L-4.298,68.304ZM-7.314,73.944C-7.358,73.921 -7.411,73.91 -7.473,73.91L-8.77,73.91C-8.832,73.91 -8.885,73.921 -8.929,73.944C-8.973,73.967 -9.007,73.999 -9.03,74.043C-9.053,74.086 -9.065,74.138 -9.065,74.199C-9.065,74.26 -9.053,74.313 -9.03,74.356C-9.007,74.399 -8.973,74.433 -8.929,74.455C-8.885,74.478 -8.832,74.489 -8.77,74.489L-7.473,74.489C-7.411,74.489 -7.358,74.478 -7.314,74.455C-7.271,74.433 -7.237,74.399 -7.214,74.356C-7.191,74.313 -7.179,74.26 -7.179,74.199C-7.179,74.138 -7.191,74.086 -7.214,74.043C-7.237,73.999 -7.271,73.967 -7.314,73.944M-7.731,76.979L-8.848,77.191L-7.731,77.402L-7.731,76.979ZM-7.314,66.695C-7.358,66.673 -7.411,66.662 -7.473,66.662L-8.77,66.662C-8.832,66.662 -8.885,66.673 -8.929,66.695C-8.973,66.718 -9.007,66.751 -9.03,66.794C-9.053,66.838 -9.065,66.89 -9.065,66.951C-9.065,67.012 -9.053,67.064 -9.03,67.108C-9.007,67.151 -8.973,67.184 -8.929,67.207C-8.885,67.229 -8.832,67.24 -8.77,67.24L-7.473,67.24C-7.411,67.24 -7.358,67.229 -7.314,67.207C-7.271,67.184 -7.237,67.151 -7.214,67.108C-7.191,67.064 -7.179,67.012 -7.179,66.951C-7.179,66.89 -7.191,66.838 -7.214,66.794C-7.237,66.751 -7.271,66.718 -7.314,66.695M-3.763,56.276C-3.763,56.218 -3.78,56.173 -3.816,56.141C-3.85,56.109 -3.9,56.093 -3.964,56.093L-5.414,56.093C-5.478,56.093 -5.527,56.109 -5.562,56.141C-5.597,56.173 -5.615,56.218 -5.615,56.276L-5.615,56.608L-3.763,56.608L-3.763,56.276ZM135.775,10.527L131.222,10.527L131.222,49.239L135.775,49.239L135.775,10.527ZM161.665,18.206L161.608,18.206C161.646,19.64 161.665,21.138 161.665,22.71L161.665,49.637C161.665,50.029 161.662,50.396 161.661,50.775L161.665,50.775L161.665,76.727C161.665,79.829 159.151,82.343 156.049,82.343L135.775,82.343L135.775,65.578L131.222,65.578L131.222,82.343L116.097,82.343L116.097,-10.224L135.775,-10.224L156.058,-10.195C159.156,-10.19 161.665,-7.677 161.665,-4.579L161.665,18.206ZM84.064,33.014L81.227,9.569C80.412,2.047 79.622,-4.681 78.855,-10.224L55.326,-10.224L55.326,82.343L70.467,82.343L70.49,21.344L77.823,82.343L90.21,82.343L97.163,21.344L97.187,82.343L112.327,82.343L112.327,-10.224L88.655,-10.224L84.064,33.014ZM33.873,-10.224L51.529,-10.224L51.529,82.343L33.873,82.343L33.873,-10.224Z" style="fill:rgb(220,225,214);fill-rule:nonzero;"/>
        </g>
    </g>
</svg>
