<?xml version="1.0" encoding="UTF-8" standalone="no"?>
<!DOCTYPE svg PUBLIC "-//W3C//DTD SVG 1.1//EN" "http://www.w3.org/Graphics/SVG/1.1/DTD/svg11.dtd">
<svg width="100%" height="100%" viewBox="0 0 247 208" version="1.1" xmlns="http://www.w3.org/2000/svg" xmlns:xlink="http://www.w3.org/1999/xlink" xml:space="preserve" xmlns:serif="http://www.serif.com/" style="fill-rule:evenodd;clip-rule:evenodd;stroke-linejoin:round;stroke-miterlimit:2;">
    <g id="Artboard1" transform="matrix(0.569836,0,0,1,0,0)">
        <rect x="0" y="0" width="432" height="208" style="fill:none;"/>
        <clipPath id="_clip1">
            <rect x="0" y="0" width="432" height="208"/>
        </clipPath>
        <g clip-path="url(#_clip1)">
            <g transform="matrix(2.79805,0,0,1.59443,371.092,53.1603)">
                <path d="M0,66.049L0,61.65C-0.073,61.65 -0.146,61.649 -0.219,61.649L-0.219,66.047L0,66.049ZM-93.388,61.632L-93.388,66.365L-93.127,66.363L-93.127,61.63L-93.388,61.632ZM-5.879,72.942C-5.756,72.943 -5.633,72.944 -5.51,72.944C-5.51,72.129 -5.474,71.312 -5.519,70.499C-5.57,69.561 -5.521,68.736 -4.313,68.58L-7.153,68.58C-7.157,68.645 -7.161,68.71 -7.165,68.775C-6.81,68.842 -6.456,68.908 -5.879,69.017L-5.879,72.942ZM-107.432,66.362L-107.432,61.641C-107.522,61.639 -107.612,61.637 -107.702,61.635L-107.702,66.338C-107.612,66.346 -107.522,66.354 -107.432,66.362M-22.547,61.49C-21.289,61.689 -21.263,62.563 -21.321,63.507C-21.347,63.93 -21.336,64.355 -21.322,64.779C-21.309,65.182 -21.271,65.584 -21.234,66.142C-20.208,64.609 -22.204,62.411 -19.424,61.49L-22.547,61.49ZM-9.539,61.812C-7.902,61.547 -8.057,62.534 -8.05,63.401C-8.044,64.26 -8.049,65.119 -8.049,65.979C-7.91,65.97 -7.771,65.96 -7.632,65.951C-7.632,65.243 -7.641,64.534 -7.63,63.825C-7.615,62.848 -7.956,61.678 -6.416,61.446L-9.259,61.446C-9.352,61.568 -9.445,61.69 -9.539,61.812M-99.077,61.523C-97.74,61.544 -97.535,62.317 -97.62,63.422C-97.692,64.359 -97.635,65.307 -97.635,66.25C-97.518,66.248 -97.401,66.246 -97.284,66.244C-97.284,65.288 -97.249,64.331 -97.294,63.377C-97.342,62.336 -97.131,61.572 -95.857,61.523L-99.077,61.523ZM-17.182,61.426C-17.472,61.481 -17.889,61.891 -17.909,62.166C-17.993,63.264 -17.993,64.377 -17.909,65.475C-17.886,65.768 -17.489,66.21 -17.202,66.267C-16.585,66.389 -15.927,66.305 -15.086,66.305C-15.931,65.479 -17.324,66.579 -17.555,65.122C-17.773,63.742 -16.427,64.289 -15.723,63.903C-16.441,63.455 -17.685,64.129 -17.571,62.726C-17.436,61.066 -15.946,62.22 -15.054,61.391C-15.932,61.391 -16.575,61.311 -17.182,61.426M-16.769,72.182C-17.1,70.635 -15.484,71.502 -14.937,70.911C-15.577,70.476 -16.811,71.241 -16.801,69.878C-16.786,67.936 -14.962,69.457 -14.085,68.287C-15.306,68.505 -16.906,68.513 -16.981,68.854C-17.27,70.18 -17.211,71.639 -16.948,72.983C-16.895,73.255 -15.388,73.243 -14.551,73.361C-15.179,72.446 -16.481,73.525 -16.769,72.182M-38.138,-19.846C-37.779,-20.369 -37.166,-20.873 -37.123,-21.421C-37.066,-22.153 -37.613,-22.724 -38.511,-22.694C-39.395,-22.664 -39.935,-22.103 -39.82,-21.352C-39.736,-20.802 -39.106,-20.334 -38.719,-19.83C-38.526,-19.835 -38.332,-19.84 -38.138,-19.846M-74.004,-22.908C-74.376,-22.392 -75.007,-21.901 -75.06,-21.354C-75.134,-20.593 -74.497,-19.907 -73.676,-20.112C-73.153,-20.242 -72.433,-20.883 -72.403,-21.334C-72.371,-21.833 -73.026,-22.376 -73.382,-22.899C-73.589,-22.902 -73.796,-22.905 -74.004,-22.908M-104.761,62.243C-105.716,63.294 -105.6,65.06 -104.514,66.008C-103.535,66.863 -102.103,66.816 -101.248,65.75C-102.568,66.404 -103.786,66.486 -104.513,65.275C-104.862,64.693 -104.948,63.681 -104.687,63.059C-104.044,61.528 -102.651,61.787 -101.161,62.233C-102.401,61.12 -103.807,61.194 -104.761,62.243M-4.161,61.522C-4.713,63.02 -5.266,64.518 -5.869,66.152C-5.116,65.424 -4.499,64.386 -3.97,64.429C-3.335,64.48 -2.775,65.453 -1.966,66.236C-2.616,64.499 -3.181,62.992 -3.745,61.486C-3.884,61.498 -4.022,61.51 -4.161,61.522M-12.543,63.485C-12.738,63.49 -13.075,62.938 -13.106,62.614C-13.127,62.405 -12.677,61.935 -12.5,61.964C-12.13,62.023 -11.8,62.336 -11.13,62.739C-11.825,63.134 -12.18,63.475 -12.543,63.485M-10.632,66.043C-11.38,64.997 -11.772,63.959 -11.225,62.715C-11.118,62.472 -11.798,61.702 -12.263,61.455C-12.542,61.307 -13.474,61.674 -13.488,61.859C-13.595,63.228 -13.546,64.61 -13.546,65.988C-13.466,65.983 -13.386,65.978 -13.306,65.973C-13.18,65.324 -13.053,64.674 -12.927,64.024C-12.804,64.009 -12.68,63.993 -12.556,63.978C-12.047,64.707 -11.537,65.437 -11.027,66.167C-10.896,66.126 -10.764,66.085 -10.632,66.043M-111.382,61.742C-110.977,61.735 -110.573,61.704 -110.168,61.684C-110.998,61.409 -111.803,61.357 -112.594,61.435C-112.892,61.465 -113.393,61.786 -113.403,61.994C-113.475,63.438 -113.441,64.887 -113.441,66.334C-113.315,66.339 -113.19,66.345 -113.064,66.35C-112.98,65.685 -112.896,65.02 -112.808,64.326C-112.085,64.271 -111.447,64.222 -110.808,64.173C-110.808,64.06 -110.808,63.947 -110.809,63.834C-111.448,63.765 -112.087,63.695 -112.795,63.619C-113.058,61.832 -113.007,61.771 -111.382,61.742M-32.739,63.89C-32.739,64.44 -32.81,65.005 -32.704,65.535C-32.647,65.821 -32.313,66.23 -32.059,66.266C-31.353,66.367 -30.623,66.301 -29.902,66.301C-32.165,65.6 -32.123,65.596 -32.181,65.014C-32.307,63.742 -31.106,64.31 -30.421,63.798C-31.095,63.711 -31.565,63.651 -32.012,63.594C-32.28,62.129 -32.28,62.129 -29.521,61.545C-32.739,61.121 -32.74,61.121 -32.739,63.89M-24.824,61.717L-24.824,64.734C-24.936,64.773 -25.049,64.812 -25.161,64.85C-26.075,63.753 -26.989,62.655 -28.1,61.319L-28.1,65.79L-27.797,65.796L-27.797,63L-27.474,62.883C-26.57,63.977 -25.667,65.071 -24.525,66.454L-24.525,61.731L-24.824,61.717ZM4.938,64.799C4.046,63.708 3.154,62.616 2.076,61.297L2.076,65.782L2.28,65.782C2.323,64.843 2.366,63.904 2.409,62.966C2.507,62.938 2.605,62.911 2.703,62.883C3.599,63.987 4.494,65.09 5.389,66.194C5.471,66.134 5.552,66.074 5.633,66.013L5.633,61.694C5.531,61.689 5.43,61.684 5.329,61.679L5.329,64.709C5.199,64.739 5.069,64.769 4.938,64.799M-9.06,73.094L-9.06,68.812C-9.12,68.808 -9.18,68.804 -9.24,68.8C-9.308,69.803 -9.377,70.805 -9.468,72.151C-10.639,70.757 -11.555,69.666 -12.471,68.575C-12.551,68.635 -12.631,68.694 -12.711,68.754L-12.711,72.908C-12.64,72.913 -12.569,72.917 -12.498,72.921C-12.43,71.933 -12.362,70.946 -12.294,69.958C-12.191,69.94 -12.089,69.922 -11.986,69.904L-9.329,73.197C-9.24,73.162 -9.15,73.128 -9.06,73.094M-80.052,66.36L-80.052,61.695L-80.245,61.688C-80.314,62.814 -80.384,63.939 -80.454,65.065C-80.563,65.087 -80.673,65.108 -80.782,65.129C-81.789,63.901 -82.796,62.673 -83.982,61.227L-83.982,66.268C-83.865,66.266 -83.749,66.264 -83.633,66.262L-83.633,62.958C-83.522,62.927 -83.411,62.896 -83.299,62.865C-82.298,64.083 -81.297,65.301 -80.296,66.518C-80.215,66.466 -80.133,66.413 -80.052,66.36M-88.624,66.22C-89.72,66.153 -90.696,65.11 -90.685,64.017C-90.674,62.873 -89.59,61.811 -88.463,61.841C-87.256,61.873 -86.353,62.86 -86.394,64.103C-86.433,65.318 -87.459,66.291 -88.624,66.22M-85.841,63.971C-85.866,62.572 -87.056,61.416 -88.483,61.401C-89.969,61.386 -91.193,62.587 -91.184,64.051C-91.175,65.429 -89.968,66.589 -88.531,66.6C-87.029,66.612 -85.814,65.424 -85.841,63.971M-18.801,72.892L-18.801,68.698C-18.893,68.685 -18.984,68.671 -19.076,68.658C-19.626,69.797 -20.176,70.936 -20.858,72.349C-21.552,70.883 -22.084,69.758 -22.616,68.634C-22.709,68.656 -22.802,68.678 -22.896,68.7L-22.896,72.924L-22.747,72.947C-22.667,72.206 -22.586,71.465 -22.506,70.725C-22.407,70.713 -22.309,70.701 -22.211,70.689C-21.799,71.528 -21.388,72.366 -20.833,73.496C-20.473,72.756 -20.265,72.313 -20.043,71.877C-19.836,71.471 -19.615,71.072 -19.401,70.67C-19.295,70.71 -19.19,70.75 -19.084,70.79C-19.048,71.492 -19.011,72.195 -18.975,72.898L-18.801,72.892ZM-27.567,6.592C-27.563,5.92 -27.59,5.227 -28.472,5.196C-29.478,5.161 -29.442,5.936 -29.444,6.634C-29.447,7.315 -29.459,7.996 -29.442,8.676C-29.425,9.379 -29.401,10.009 -30.345,10.21C-30.607,10.265 -30.9,10.834 -30.913,11.178C-30.923,11.424 -30.468,11.671 -30.259,11.947C-29.969,12.331 -29.511,12.729 -29.484,13.144C-29.389,14.627 -29.457,16.119 -29.441,17.608C-29.416,19.989 -28.476,21.035 -26.096,21.457C-25.345,21.59 -24.693,21.596 -24.513,20.709C-24.327,19.801 -25.073,19.699 -25.689,19.54C-27.182,19.156 -27.546,18.71 -27.565,17.137C-27.58,15.946 -27.515,14.752 -27.584,13.565C-27.646,12.498 -27.437,11.849 -26.165,11.905C-25.877,11.917 -25.32,11.38 -25.326,11.107C-25.334,10.762 -25.73,10.312 -26.076,10.122C-26.414,9.936 -26.901,10.021 -27.569,9.967C-27.569,8.784 -27.574,7.688 -27.567,6.592M-41.376,20.827C-39.443,21.879 -37.467,21.778 -35.588,20.598C-34.993,20.224 -34.393,19.724 -34.855,18.949C-35.345,18.127 -35.976,18.544 -36.597,18.92C-38.317,19.961 -40.377,19.67 -41.555,18.266C-42.721,16.875 -42.715,14.723 -41.54,13.35C-40.318,11.922 -38.332,11.654 -36.595,12.71C-35.99,13.079 -35.35,13.539 -34.853,12.704C-34.415,11.968 -34.899,11.443 -35.541,11.043C-37.424,9.871 -39.384,9.717 -41.332,10.767C-43.317,11.837 -44.392,13.526 -44.313,15.849C-44.381,18.126 -43.307,19.776 -41.376,20.827M-100.116,16.314C-100.393,14.469 -99.038,12.572 -97.169,12.129C-95.957,11.841 -94.949,12.226 -93.926,12.839C-93.59,13.041 -92.991,12.948 -92.578,12.803C-92.427,12.749 -92.325,12.087 -92.452,11.825C-92.622,11.473 -92.999,11.177 -93.353,10.965C-95.357,9.764 -97.409,9.779 -99.361,11.016C-101.427,12.325 -102.291,14.322 -101.933,16.709C-101.623,18.775 -100.416,20.301 -98.437,21.077C-96.536,21.821 -94.668,21.648 -93.026,20.408C-92.674,20.142 -92.659,19.43 -92.489,18.923C-93.007,18.892 -93.557,18.735 -94.037,18.857C-94.753,19.038 -95.42,19.415 -96.108,19.709C-98.112,19.646 -99.828,18.232 -100.116,16.314M-73.002,10.223C-73.209,10.823 -73.58,11.419 -73.595,12.024C-73.661,14.66 -73.616,17.298 -73.628,19.935C-73.631,20.665 -73.57,21.423 -72.674,21.451C-71.691,21.482 -71.775,20.657 -71.759,19.967C-71.717,18.228 -71.818,16.465 -71.561,14.758C-71.287,12.938 -69.627,11.842 -67.97,12.056C-66.16,12.29 -64.958,13.665 -64.939,15.554C-64.923,17.128 -65.005,18.707 -64.885,20.272C-64.852,20.7 -64.244,21.084 -63.9,21.488C-63.625,21.081 -63.136,20.685 -63.113,20.263C-63.022,18.567 -63.062,16.862 -63.078,15.161C-63.1,12.924 -64.731,10.914 -66.895,10.299C-68.524,9.835 -69.985,10.26 -71.148,10.874C-71.92,10.603 -72.461,10.413 -73.002,10.223M-42.88,-4.117C-43.172,-4.413 -43.417,-4.884 -43.763,-4.977C-45.882,-5.543 -46.371,-6.093 -46.399,-8.32C-46.426,-10.446 -46.317,-12.578 -46.446,-14.697C-46.51,-15.754 -46.988,-16.784 -47.241,-17.835C-47.319,-18.159 -47.34,-18.529 -47.269,-18.851C-47.009,-20.027 -46.525,-21.181 -46.445,-22.364C-46.306,-24.439 -46.439,-26.53 -46.391,-28.613C-46.344,-30.657 -45.682,-31.417 -43.979,-31.821C-43.566,-31.92 -43.245,-32.404 -42.881,-32.711C-43.326,-32.933 -43.784,-33.368 -44.212,-33.34C-46.543,-33.189 -47.814,-31.776 -47.836,-29.42C-47.857,-27.038 -47.811,-24.656 -47.855,-22.275C-47.891,-20.259 -48.535,-19.556 -50.459,-19.094C-50.802,-19.012 -51.082,-18.671 -51.391,-18.45C-51.08,-18.173 -50.792,-17.691 -50.456,-17.655C-48.413,-17.431 -47.85,-16.058 -47.844,-14.221C-47.836,-11.839 -47.869,-9.457 -47.827,-7.076C-47.789,-4.932 -46.31,-3.492 -43.798,-3.431C-43.657,-3.536 -43.269,-3.827 -42.88,-4.117M-82.834,19.583C-84.908,19.638 -86.725,17.902 -86.749,15.843C-86.771,13.837 -84.921,11.981 -82.911,11.994C-80.917,12.008 -79.188,13.749 -79.16,15.771C-79.132,17.807 -80.792,19.529 -82.834,19.583M-82.945,10.086C-85.987,9.969 -88.642,12.716 -88.683,15.761C-88.724,18.821 -85.972,21.583 -82.91,21.558C-79.859,21.532 -77.223,18.91 -77.179,15.855C-77.444,12.289 -79.681,10.212 -82.945,10.086M-65.702,-11.52C-65.702,-10.455 -65.699,-9.391 -65.703,-8.327C-65.711,-6.047 -66.11,-5.578 -68.299,-4.981C-68.662,-4.882 -68.927,-4.42 -69.237,-4.125C-68.877,-3.898 -68.532,-3.506 -68.155,-3.473C-66.282,-3.305 -64.58,-4.451 -64.397,-6.328C-64.134,-9.026 -64.179,-11.755 -64.129,-14.472C-64.09,-16.575 -63.723,-17.045 -61.738,-17.606C-61.326,-17.722 -61,-18.144 -60.634,-18.425C-60.992,-18.656 -61.322,-19.004 -61.713,-19.098C-63.525,-19.532 -64.114,-20.222 -64.121,-22.122C-64.129,-24.421 -64.095,-26.72 -64.131,-29.019C-64.173,-31.647 -65.456,-33.159 -67.851,-33.332C-68.294,-33.365 -68.771,-32.931 -69.233,-32.713C-68.858,-32.408 -68.524,-31.925 -68.101,-31.829C-66.474,-31.458 -65.739,-30.709 -65.714,-29.024C-65.679,-26.683 -65.719,-24.341 -65.691,-21.999C-65.684,-21.414 -65.588,-20.817 -65.447,-20.247C-65.253,-19.458 -65.346,-17.269 -65.443,-16.466C-65.642,-14.829 -65.695,-13.174 -65.808,-11.527C-65.773,-11.524 -65.737,-11.522 -65.702,-11.52M-19.643,15.701C-19.588,13.708 -17.822,12.001 -15.832,12.017C-13.812,12.034 -12.022,13.891 -12.081,15.908C-12.14,17.925 -13.874,19.572 -15.912,19.548C-18.019,19.523 -19.7,17.789 -19.643,15.701M-10.844,21.361C-10.515,21.265 -10.249,20.45 -10.218,19.939C-10.134,18.541 -10.183,17.135 -10.19,15.732C-10.206,12.667 -12.632,10.185 -15.739,10.047C-18.418,9.928 -21.194,12.239 -21.501,14.843C-21.894,18.177 -20.029,20.977 -16.881,21.333C-15.41,21.5 -13.868,21.041 -12.266,20.855C-11.857,21.021 -11.264,21.485 -10.844,21.361M-57.09,14.76C-56.841,13.202 -55.532,12.133 -53.865,12.023C-52.239,11.916 -50.734,12.989 -50.228,14.76L-57.09,14.76ZM-49.653,16.742C-48.168,16.738 -47.779,16.255 -48.042,14.772C-48.502,12.181 -50.985,10.089 -53.645,10.051C-56.26,10.013 -58.91,12.186 -59.3,14.688C-59.757,17.619 -58.253,20.286 -55.583,21.19C-53.693,21.829 -51.88,21.588 -50.307,20.352C-49.994,20.106 -50.031,19.415 -49.906,18.929C-50.385,18.876 -50.869,18.761 -51.341,18.794C-51.604,18.812 -51.839,19.101 -52.105,19.228C-54.031,20.143 -56.936,19.065 -57.117,16.744C-54.573,16.744 -52.113,16.748 -49.653,16.742M-77.929,86.693C-75.901,87.629 -74.048,87.249 -72.401,85.761C-62.676,76.969 -52.949,68.179 -43.223,59.387C-39.876,56.362 -36.519,53.347 -33.186,50.306C-31.388,48.665 -30.962,46.505 -31.954,44.403C-32.874,42.455 -34.845,41.296 -37.111,41.771C-38.239,42.007 -39.378,42.734 -40.259,43.522C-47.242,49.76 -54.164,56.067 -61.106,62.353C-67.006,67.695 -72.903,73.042 -78.811,78.376C-79.964,79.416 -80.76,80.612 -80.793,82.446C-80.682,84.256 -79.809,85.825 -77.929,86.693M-87.146,94.349C-84.223,93.255 -82.778,90.375 -83.757,87.729C-84.742,85.067 -87.837,83.77 -90.735,84.911C-94.676,86.463 -98.722,86.816 -102.879,86.18C-114.256,84.441 -124.349,73.899 -122.4,60.601C-120.542,47.925 -108.626,39.725 -96.042,41.899C-89.741,42.987 -84.594,46.033 -80.799,51.268C-79.655,52.845 -77.957,53.498 -76.083,53.165C-72.057,52.449 -70.411,48.225 -72.917,44.963C-79.781,36.029 -89.012,31.698 -100.165,31.57C-104.776,31.517 -109.246,32.641 -113.501,34.543C-127.125,40.633 -134.831,55.068 -132.067,69.378C-128.959,85.468 -114.92,96.635 -98.892,96.456C-94.891,96.589 -90.959,95.776 -87.146,94.349M20.563,67.171C20.242,68.913 20.04,70.687 19.581,72.393C16.176,85.033 7.928,92.89 -4.606,96.135C-17.28,99.417 -31.405,94.224 -39.216,83.759C-41.062,81.286 -40.737,78.099 -38.461,76.362C-36.267,74.687 -32.92,75.243 -31.122,77.668C-23.196,88.353 -7.552,89.847 2.062,82.163C13.765,72.81 13.092,55.02 0.597,46.481C-6.213,41.827 -13.616,40.704 -21.456,43.743C-24.3,44.846 -27.356,43.661 -28.393,41.034C-29.439,38.385 -28.064,35.411 -25.206,34.308C-10.055,28.457 7.849,34.176 16.326,49.329C18.527,53.264 19.897,57.48 20.271,61.998C20.301,62.365 20.462,62.721 20.563,63.083L20.563,67.171Z" style="fill:rgb(220,225,214);fill-rule:nonzero;"/>
            </g>
        </g>
    </g>
</svg>
