<svg width="248" height="84" viewBox="0 0 248 84" fill="none" xmlns="http://www.w3.org/2000/svg">
<path d="M0 83.8205H21.7914V70.7807H12.86V13.5534H21.7914V0H0V83.8205Z" fill="white"/>
<path d="M225.973 0.00195312V13.5535H234.832V70.7826H225.973V83.8225H247.692V0.00195312H225.973Z" fill="white"/>
<path d="M24.3506 66.4864H43.4259V51.5012H57.9296V38.2356H43.4259V31.3618H61.2878V17.3398H24.3506V66.4864Z" fill="white"/>
<path d="M81.8842 17.3398H62.666V66.4864H81.8842V17.3398Z" fill="white"/>
<path d="M115.533 40.1592L104.459 17.3379H83.2402V66.4853H100.173V39.6771L114.32 66.4853H132.394V17.3379H115.533V40.1592Z" fill="white"/>
<path d="M154.755 17.3379H133.607V66.4844H154.827C172.901 66.4844 182.904 57.9612 182.904 41.7394V41.2582C182.904 25.174 173.258 17.3379 154.755 17.3379ZM163.042 42.1513C163.042 49.7824 160.614 52.5317 154.184 52.5317H152.684V31.2906H154.041C160.184 31.2906 163.042 33.2854 163.042 41.6018V42.1513Z" fill="white"/>
<path d="M203.051 48.134H218.197V35.4863H203.051V31.2925H222.27V17.3398H184.119V66.4864H223.341V52.5337H203.051V48.134Z" fill="white"/>
</svg>
