<?xml version="1.0" encoding="utf-8"?>
<!-- Generator: Adobe Illustrator 22.0.1, SVG Export Plug-In . SVG Version: 6.00 Build 0)  -->
<svg version="1.1" id="Capa_1" xmlns="http://www.w3.org/2000/svg" xmlns:xlink="http://www.w3.org/1999/xlink" x="0px" y="0px"
	 viewBox="0 0 514.8 208" style="enable-background:new 0 0 514.8 208;" xml:space="preserve">
<style type="text/css">
	.st0{fill:#DCE1D6;}
</style>
<g>
	<path id="Fill-1" class="st0" d="M51,153.1c-9-10.6-15.6-21.4-21.8-32.9v-0.9l14.7-16.4c5.7-6.2,6.9-9.5,6.9-11
		c0-2.1-1.7-3.7-5.3-4.8l-2-0.5V85h26.9v1.7l-2,0.7c-4.8,1.5-7.5,2.8-12.3,7.9l-13.5,14.1c6.7,12.8,18.1,29.3,25.1,37.8
		c2,2.2,2.6,2.9,5.2,3.8l1.5,0.4v1.7H51z M27.3,143.2c0,6.1,0.4,6.5,4.8,7.5l2.9,0.7v1.7H0.7v-1.7l3.2-0.8c5-1.1,5.2-1.8,5.2-7.4
		V67.5c0-5.7-0.3-6.6-4.8-8.6L0,57.1v-1.3l26.9-2.5l0.9,0.5l-0.3,4.8c-0.1,3-0.3,7-0.3,11.4V143.2z"/>
	<path id="Fill-4" class="st0" d="M96.4,56.7c5.7,0,9.8,3.7,9.8,9.4c0,5.7-4.1,9.2-9.8,9.2s-9.8-3.6-9.8-9.2
		C86.7,60.4,90.7,56.7,96.4,56.7L96.4,56.7z M79.5,151.4l3.2-0.8c5-1.1,5.2-1.8,5.2-7.1V97.9c0-5.2-0.5-5.7-4.9-8.2l-3.7-2.4v-1.1
		l26.6-3l0.9,0.4c-0.4,3.8-0.5,8.5-0.5,16v43.9c0,5.3,0.4,6.1,5.3,7.1l3,0.8v1.7h-35V151.4z"/>
	<path id="Fill-6" class="st0" d="M121.3,151.4l3.2-0.8c5-1.1,5.2-1.8,5.2-7.1V97.9c0-5.3-0.5-5.7-4.8-8.2l-3.6-2.2v-1.2l25.5-3
		l0.9,0.4l-0.1,9h0.3c6.7-4.6,15.6-9.6,25-9.6c11.5,0,17.3,5.9,17.3,17.7v42.8c0,5.4,0.4,6.1,5.2,7.1l3.3,0.8v1.7h-34.6v-1.7l3-0.7
		c4.4-1.1,4.8-1.3,4.8-7.3V104c0-8.5-2.6-11.2-9.4-11.2c-6.5,0-11.2,1.5-14.4,2.5v48.2c0,5.9,0.4,6.2,4.8,7.3l3.2,0.7v1.7h-34.6
		V151.4z"/>
	<path id="Fill-8" class="st0" d="M226.7,76.1L242,60.9c2.1-2,3.8-3,6.5-3c4.1,0,7,3.4,7,7.7c0,3-1.6,5.9-5.8,6.9l-22.5,4.8
		L226.7,76.1z M255.5,120c0-26.6-5.7-34-15.9-34c-9.9,0-15.2,7.5-15.2,31.4c0,26.6,5.2,33.9,16,33.9
		C250.6,151.4,255.5,144.2,255.5,120L255.5,120z M205.1,119.1c0-24.6,17.3-36.1,34.7-36.1c18.6,0,34.9,11.5,34.9,35.4
		c0,24.7-17.3,36.2-34.9,36.2C221,154.6,205.1,143,205.1,119.1L205.1,119.1z"/>
	<path id="Fill-10" class="st0" d="M289.9,137.7V90.5h-7.5v-1.3c10-3.7,18-11.6,22.1-21h3.8V85h17l-0.7,5.5h-16.4v46.9
		c0,7,2.2,9.1,8.7,9.1c3.6,0,7-0.7,9.2-1.6v1.7c-3.2,3.6-9.4,7.9-18.9,7.9C295.8,154.6,289.9,149.4,289.9,137.7"/>
	<path id="Fill-12" class="st0" d="M349.8,56.7c5.7,0,9.8,3.7,9.8,9.4c0,5.7-4.1,9.2-9.8,9.2c-5.7,0-9.8-3.6-9.8-9.2
		C340,60.4,344.1,56.7,349.8,56.7L349.8,56.7z M332.9,151.4l3.2-0.8c5-1.1,5.2-1.8,5.2-7.1V97.9c0-5.2-0.5-5.7-4.9-8.2l-3.7-2.4
		v-1.1l26.6-3l0.9,0.4c-0.4,3.8-0.5,8.5-0.5,16v43.9c0,5.3,0.4,6.1,5.3,7.1l3,0.8v1.7h-35V151.4z"/>
	<path id="Fill-14" class="st0" d="M376.3,120.8c0-26.7,20.5-37.8,37.4-37.8c13.2,0,20.7,4.6,20.7,12.7c0,5.2-2.8,7.9-8.6,7.9
		c-6.2,0-7.9-2.9-8.9-10.3c-0.9-5.2-1.3-6.9-6.1-6.9c-7.9,0-16,7.1-16,28.7c0,19.9,5.9,30.5,21.8,30.5c6.2,0,12-1.7,17.2-4.5v2
		c-3.6,4.6-12.9,11.6-25.8,11.6C388.1,154.7,376.3,142,376.3,120.8"/>
	<path id="Fill-17" class="st0" d="M494.4,120c0-26.6-5.7-33.9-15.9-33.9c-9.9,0-15.2,7.5-15.2,31.4c0,26.6,5.2,33.9,16,33.9
		C489.5,151.4,494.4,144.2,494.4,120 M444.1,119.1c0-24.6,17.3-36.1,34.7-36.1c18.6,0,34.9,11.5,34.9,35.4
		c0,24.7-17.3,36.2-34.9,36.2C459.9,154.6,444.1,143,444.1,119.1"/>
</g>
</svg>
