<?xml version="1.0" encoding="utf-8"?>
<!-- Generator: Adobe Illustrator 22.0.1, SVG Export Plug-In . SVG Version: 6.00 Build 0)  -->
<svg version="1.1" id="Capa_1" xmlns="http://www.w3.org/2000/svg" xmlns:xlink="http://www.w3.org/1999/xlink" x="0px" y="0px"
	 viewBox="0 0 401.9 169" style="enable-background:new 0 0 401.9 169;" xml:space="preserve">
<style type="text/css">
	.st0{fill:#DCE1D6;}
</style>
<g id="Shape" transform="matrix(0.658774,0,0,0.403212,767.786,361.767)">
	<path class="st0" d="M-679-559.3v-257c0-6.3,2.5-10.4,6.3-10.4h33.6c3.6,0,5.5,2.7,6.6,8l20.5,97.9c1,3.7,1.1,4.5,2.4,4.5
		c1.1,0,1.7-1,1.7-2.7v-97.2c0-6.3,2.5-10.4,6.3-10.4h37c3.8,0,6.3,4.1,6.3,10.4v256.9c0,6.3-2.5,10.4-6.3,10.4h-33.9
		c-3.2,0-5.4-3.1-6.2-7.2l-20.2-96.8c-1.1-4.5-1.3-6.3-2.8-6.3c-1.1,0-1.7,1-1.7,2.7v97.2c0,6.3-2.5,10.4-6.3,10.4h-37
		C-676.5-548.9-679-553-679-559.3z M-747.3-559.3v-256.9c0-6.3,2.5-10.4,6.3-10.4h41c3.8,0,6.3,4.1,6.3,10.4v256.9
		c0,6.3-2.5,10.4-6.3,10.4h-41C-744.8-548.9-747.3-553-747.3-559.3z M-905.5-548.9c-3.8,0-6.3-4.3-6.7-10.4v-256.9
		c0-6.3,2.5-10.4,6.3-10.4h49.8c3.8,0,6.1,4.1,6.6,10.4l9.8,115.5c0.2,2.7,1.1,4.1,2.4,4.1c1.3,0,2.2-1.4,2.4-4.1l10-115.5
		c0.6-6.3,2.5-10.4,6.6-10.4h49.8c3.8,0,6.3,4.1,6.3,10.4v256.9c0,6.3-2.5,10.4-6.3,10.4h-35.1c-3.8,0-6.3-4.1-6.3-10.4v-123.1
		c0-4.1-0.4-5.5-1.4-5.5c-1.1,0-1.9,0.6-2.5,5.5l-14,126.1c-0.5,4.1-2.8,7.6-5.7,7.6h-6.8c-3,0-5.3-3.5-5.7-7.6L-860-682.4
		c-0.5-4.5-1.3-5.5-2.4-5.5c-0.8,0-1.7,1.4-1.7,5.5v123.1c0,6.3-2.5,10.4-6.3,10.4H-905.5z M-1003.4-559.3v-256.9
		c0-5.9,2.8-10.4,6.3-10.4h41.2c3.6,0,6.3,4.5,6.3,10.4v205.8c0,5.3,1.4,7.6,4.7,7.6h18.1c3.8,0,6.3,4.5,6.3,10.4v33
		c0,6.3-2.5,10.4-6.3,10.4H-997C-1000.6-548.9-1003.4-553-1003.4-559.3z M-1071.7-559.3v-256.9c0-6.3,2.5-10.4,6.3-10.4h41
		c3.8,0,6.3,4.1,6.3,10.4v256.9c0,6.3-2.5,10.4-6.3,10.4h-41C-1069.2-548.9-1071.7-553-1071.7-559.3z M-1159.1-548.9
		c-3.8,0-6.3-4.3-6.3-10.4v-256.9c0-6.3,2.5-10.4,6.3-10.4h70.3c3.8,0,6.3,4.1,6.3,10.4v33c0,6.3-2.5,10.4-6.3,10.4h-18.1
		c-3.2,0-4.9,2.7-4.9,8v54.5c0,5.3,1.7,8,4.9,8h16.6c3.8,0,6.3,4.1,6.3,10.4v24.2c0,6.3-2.5,10.4-6.3,10.4h-16.6
		c-3.2,0-4.9,2.7-4.9,8v89.9c0,6.3-2.5,10.4-6.3,10.4H-1159.1z"/>
</g>
</svg>
