<?xml version="1.0" encoding="UTF-8" standalone="no"?>
<!DOCTYPE svg PUBLIC "-//W3C//DTD SVG 1.1//EN" "http://www.w3.org/Graphics/SVG/1.1/DTD/svg11.dtd">
<svg width="100%" height="100%" viewBox="0 0 272 78" version="1.1" xmlns="http://www.w3.org/2000/svg" xmlns:xlink="http://www.w3.org/1999/xlink" xml:space="preserve" xmlns:serif="http://www.serif.com/" style="fill-rule:evenodd;clip-rule:evenodd;stroke-linejoin:round;stroke-miterlimit:2;">
    <g transform="matrix(1,0,0,1,-719.926726,0.000013)">
        <g transform="matrix(1,0,0,1,156.757999,0.000721)">
            <g transform="matrix(0.504248,0,0,0.504248,330.845,7.13657)">
                <g transform="matrix(-1.430135,0,0,1.430135,880.919799,-103.051503)">
                    <rect x="47.724" y="87.648" width="3.225" height="15.874" style="fill:rgb(38,31,30);"/>
                </g>
                <g transform="matrix(-1.430135,0,0,1.430135,1030.084284,-103.051503)">
                    <rect x="99.875" y="87.648" width="3.224" height="15.874" style="fill:rgb(38,31,30);"/>
                </g>
                <g transform="matrix(1.430135,0,0,1.430135,739.804113,-16.318121)">
                    <rect x="140.971" y="57.237" width="3.226" height="16.049" style="fill:rgb(38,31,30);"/>
                </g>
                <g transform="matrix(1.430135,0,0,1.430135,739.804113,-45.953373)">
                    <path d="M47.508,103.566L52.112,103.566L52.112,104.34L48.342,104.34L48.342,106.257L51.829,106.257L51.829,106.988L48.342,106.988L48.342,109.129L52.177,109.129L52.177,109.882L47.508,109.882L47.508,103.566Z" style="fill:rgb(38,31,30);fill-rule:nonzero;"/>
                </g>
                <g transform="matrix(1.430135,0,0,1.430135,739.804113,-45.953373)">
                    <path d="M53.649,108.437C53.672,108.695 53.737,108.893 53.843,109.03C54.038,109.28 54.376,109.404 54.857,109.404C55.144,109.404 55.396,109.342 55.614,109.217C55.832,109.093 55.941,108.9 55.941,108.639C55.941,108.441 55.853,108.291 55.678,108.188C55.567,108.125 55.346,108.052 55.016,107.968L54.402,107.814C54.009,107.716 53.719,107.607 53.533,107.487C53.201,107.278 53.034,106.988 53.034,106.618C53.034,106.183 53.191,105.83 53.505,105.561C53.819,105.291 54.241,105.157 54.771,105.157C55.465,105.157 55.965,105.36 56.272,105.767C56.464,106.025 56.557,106.303 56.551,106.601L55.82,106.601C55.806,106.426 55.744,106.267 55.635,106.124C55.458,105.921 55.15,105.819 54.711,105.819C54.419,105.819 54.197,105.875 54.047,105.986C53.896,106.098 53.821,106.246 53.821,106.429C53.821,106.63 53.92,106.79 54.118,106.911C54.232,106.982 54.402,107.046 54.625,107.1L55.137,107.225C55.693,107.359 56.065,107.49 56.255,107.616C56.555,107.814 56.706,108.125 56.706,108.549C56.706,108.959 56.55,109.313 56.239,109.611C55.929,109.909 55.455,110.058 54.819,110.058C54.134,110.058 53.648,109.902 53.363,109.591C53.078,109.281 52.925,108.896 52.905,108.437L53.649,108.437Z" style="fill:rgb(38,31,30);fill-rule:nonzero;"/>
                </g>
                <g transform="matrix(1.430135,0,0,1.430135,739.804113,-45.953373)">
                    <path d="M59.528,109.361C59.889,109.361 60.19,109.21 60.429,108.908C60.668,108.606 60.788,108.153 60.788,107.551C60.788,107.185 60.735,106.869 60.629,106.606C60.428,106.098 60.061,105.845 59.528,105.845C58.992,105.845 58.625,106.113 58.428,106.649C58.322,106.935 58.268,107.299 58.268,107.741C58.268,108.096 58.322,108.398 58.428,108.648C58.628,109.124 58.995,109.361 59.528,109.361ZM57.525,105.299L58.277,105.299L58.277,105.909C58.432,105.7 58.601,105.538 58.784,105.423C59.045,105.251 59.352,105.165 59.704,105.165C60.226,105.165 60.669,105.365 61.033,105.765C61.397,106.165 61.579,106.736 61.579,107.478C61.579,108.482 61.317,109.198 60.792,109.628C60.46,109.9 60.073,110.036 59.631,110.036C59.285,110.036 58.994,109.961 58.759,109.809C58.621,109.723 58.468,109.575 58.299,109.366L58.299,111.718L57.525,111.718L57.525,105.299Z" style="fill:rgb(38,31,30);fill-rule:nonzero;"/>
                </g>
                <g transform="matrix(1.430135,0,0,1.430135,739.804113,-45.953373)">
                    <path d="M63.068,108.656C63.068,108.88 63.15,109.056 63.313,109.185C63.477,109.314 63.67,109.379 63.894,109.379C64.166,109.379 64.43,109.316 64.685,109.19C65.115,108.98 65.33,108.638 65.33,108.162L65.33,107.539C65.235,107.599 65.113,107.649 64.964,107.689C64.815,107.729 64.669,107.758 64.526,107.775L64.057,107.835C63.776,107.872 63.566,107.931 63.425,108.011C63.187,108.146 63.068,108.361 63.068,108.656ZM64.943,107.091C65.121,107.068 65.24,106.994 65.3,106.868C65.334,106.799 65.351,106.7 65.351,106.571C65.351,106.307 65.258,106.116 65.07,105.997C64.882,105.878 64.613,105.819 64.264,105.819C63.86,105.819 63.573,105.928 63.404,106.146C63.309,106.266 63.248,106.445 63.219,106.683L62.497,106.683C62.511,106.115 62.695,105.721 63.049,105.498C63.403,105.276 63.814,105.165 64.281,105.165C64.823,105.165 65.263,105.268 65.601,105.475C65.936,105.681 66.104,106.002 66.104,106.438L66.104,109.091C66.104,109.171 66.12,109.235 66.153,109.284C66.186,109.333 66.256,109.357 66.362,109.357C66.396,109.357 66.435,109.355 66.478,109.351C66.521,109.346 66.567,109.34 66.615,109.331L66.615,109.903C66.495,109.938 66.403,109.959 66.34,109.968C66.277,109.976 66.191,109.981 66.082,109.981C65.816,109.981 65.622,109.886 65.502,109.697C65.439,109.597 65.394,109.455 65.369,109.271C65.211,109.478 64.985,109.657 64.689,109.809C64.394,109.961 64.069,110.036 63.713,110.036C63.286,110.036 62.937,109.907 62.666,109.647C62.396,109.388 62.26,109.063 62.26,108.674C62.26,108.247 62.393,107.915 62.66,107.68C62.927,107.445 63.276,107.301 63.709,107.246L64.943,107.091Z" style="fill:rgb(38,31,30);fill-rule:nonzero;"/>
                </g>
                <g transform="matrix(1.430135,0,0,1.430135,739.804113,-45.953373)">
                    <path d="M68.991,105.195C69.352,105.195 69.667,105.284 69.936,105.462C70.083,105.562 70.232,105.708 70.383,105.9L70.383,105.32L71.097,105.32L71.097,109.508C71.097,110.092 71.011,110.554 70.839,110.892C70.518,111.517 69.912,111.829 69.021,111.829C68.525,111.829 68.108,111.718 67.769,111.496C67.431,111.274 67.242,110.926 67.202,110.454L67.989,110.454C68.026,110.66 68.101,110.819 68.212,110.931C68.387,111.103 68.662,111.189 69.038,111.189C69.631,111.189 70.019,110.979 70.203,110.561C70.312,110.315 70.362,109.875 70.353,109.241C70.199,109.476 70.012,109.651 69.794,109.766C69.577,109.88 69.289,109.938 68.93,109.938C68.432,109.938 67.995,109.761 67.621,109.407C67.247,109.053 67.06,108.467 67.06,107.65C67.06,106.879 67.249,106.277 67.625,105.845C68.002,105.412 68.457,105.195 68.991,105.195ZM70.383,107.56C70.383,106.99 70.266,106.567 70.031,106.292C69.796,106.017 69.496,105.879 69.132,105.879C68.588,105.879 68.215,106.134 68.015,106.644C67.908,106.917 67.855,107.273 67.855,107.715C67.855,108.234 67.961,108.628 68.171,108.899C68.382,109.17 68.665,109.306 69.021,109.306C69.577,109.306 69.968,109.055 70.194,108.553C70.32,108.269 70.383,107.938 70.383,107.56Z" style="fill:rgb(38,31,30);fill-rule:nonzero;"/>
                </g>
                <g transform="matrix(1.430135,0,0,1.430135,739.804113,-45.953373)">
                    <path d="M72.256,105.277L72.991,105.277L72.991,105.931C73.209,105.661 73.439,105.468 73.683,105.35C73.927,105.233 74.197,105.174 74.496,105.174C75.149,105.174 75.59,105.402 75.82,105.857C75.946,106.107 76.009,106.464 76.009,106.928L76.009,109.882L75.222,109.882L75.222,106.98C75.222,106.699 75.181,106.472 75.097,106.3C74.96,106.014 74.711,105.87 74.349,105.87C74.166,105.87 74.015,105.889 73.898,105.926C73.686,105.989 73.5,106.115 73.339,106.305C73.21,106.457 73.126,106.613 73.087,106.775C73.049,106.937 73.029,107.169 73.029,107.47L73.029,109.882L72.256,109.882L72.256,105.277Z" style="fill:rgb(38,31,30);fill-rule:nonzero;"/>
                </g>
                <g transform="matrix(1.430135,0,0,1.430135,739.804113,-45.953373)">
                    <path d="M79.063,105.174C79.39,105.174 79.707,105.251 80.013,105.404C80.32,105.557 80.554,105.756 80.714,105.999C80.869,106.232 80.972,106.502 81.024,106.812C81.07,107.024 81.093,107.362 81.093,107.827L77.718,107.827C77.732,108.294 77.842,108.669 78.049,108.951C78.255,109.233 78.575,109.374 79.007,109.374C79.412,109.374 79.734,109.241 79.975,108.975C80.112,108.82 80.21,108.641 80.267,108.437L81.028,108.437C81.008,108.606 80.941,108.795 80.828,109.002C80.715,109.21 80.588,109.38 80.448,109.512C80.213,109.741 79.922,109.896 79.575,109.976C79.389,110.022 79.178,110.045 78.943,110.045C78.37,110.045 77.884,109.837 77.485,109.42C77.087,109.002 76.888,108.418 76.888,107.668C76.888,106.928 77.088,106.328 77.49,105.866C77.891,105.405 78.416,105.174 79.063,105.174ZM80.297,107.212C80.266,106.876 80.193,106.608 80.078,106.408C79.866,106.035 79.512,105.849 79.016,105.849C78.661,105.849 78.363,105.977 78.122,106.234C77.881,106.49 77.753,106.816 77.739,107.212L80.297,107.212Z" style="fill:rgb(38,31,30);fill-rule:nonzero;"/>
                </g>
                <g transform="matrix(1.430135,0,0,1.430135,739.804113,-45.950513)">
                    <path d="M25.489,125.754L178.788,125.754L178.788,25.487L25.489,25.487L25.489,125.754ZM182.043,129.009L22.234,129.009L22.234,22.234L182.043,22.234L182.043,129.009Z" style="fill:rgb(38,31,30);fill-rule:nonzero;"/>
                </g>
                <g transform="matrix(1.430135,0,0,1.430135,877.93425,49.535866)">
                    <path d="M0,-15.668L0,-19.044L-11.425,-19.044L-11.425,-15.668L-7.325,-15.668L-7.325,3.376L-4.098,3.376L-4.098,-15.668L0,-15.668Z" style="fill:rgb(38,31,30);fill-rule:nonzero;"/>
                </g>
                <g transform="matrix(1.430135,0,0,1.430135,924.306799,35.948728)">
                    <path d="M0,27.194L0.813,23.26C1.067,21.994 1.419,20.029 1.632,18.826L1.795,18.826C2.007,20.034 2.363,22.021 2.613,23.26L3.424,27.194L0,27.194ZM5.359,7.2L5.359,-9.545L2.166,-9.545L2.166,7.303C2.166,8.478 1.866,11.214 -0.924,11.214C-3.763,11.214 -3.986,8.195 -3.986,7.269L-3.986,-9.545L-7.211,-9.545L-7.211,7.402C-7.211,11.693 -4.625,14.69 -0.924,14.69C-0.699,14.69 -0.481,14.675 -0.267,14.661L-5.351,36.739L-1.93,36.739L-0.657,30.463L4.086,30.463L5.387,36.739L8.904,36.739L3.45,12.913C4.672,11.616 5.359,9.657 5.359,7.2" style="fill:rgb(38,31,30);fill-rule:nonzero;"/>
                </g>
                <g transform="matrix(1.430135,0,0,1.430135,951.888663,56.670236)">
                    <path d="M0,-24.035L-11.425,-24.035L-11.425,-20.664L-7.325,-20.664L-7.325,0L-4.102,0L-4.102,-20.664L0,-20.664L0,-24.035Z" style="fill:rgb(38,31,30);fill-rule:nonzero;"/>
                </g>
                <g transform="matrix(1.430135,0,0,1.430135,836.18876,41.820146)">
                    <path d="M0,18.982L-2.839,18.982L-2.839,12.112L0,12.112C2.054,12.112 3.188,13.318 3.188,15.512C3.188,17.814 2.113,18.982 0,18.982M3.095,21.659C5.357,20.649 6.507,18.548 6.507,15.413C6.507,11.389 4.314,8.94 0.624,8.783L0.624,-13.651L-2.537,-13.651L-2.537,-3.145C-2.537,-2.256 -2.519,-0.363 -2.493,0.835L-2.653,0.872L-2.913,0.205C-3.254,-0.677 -3.66,-1.712 -3.927,-2.321L-8.688,-13.651L-11.945,-13.651L-11.945,8.772L-19.671,8.772L-19.671,32.633L-16.447,32.633L-16.447,21.814L-11.646,21.814L-11.646,18.508L-16.447,18.508L-16.447,12.112L-8.787,12.112L-8.787,-1.725C-8.787,-2.611 -8.803,-4.505 -8.829,-5.705L-8.671,-5.744L-8.408,-5.067C-8.064,-4.187 -7.661,-3.155 -7.397,-2.545L-2.664,8.772L-6.063,8.772L-6.063,32.633L-2.839,32.633L-2.839,22.286L-0.341,22.345L2.953,32.633L6.592,32.633L3.025,21.684L3.095,21.659Z" style="fill:rgb(38,31,30);fill-rule:nonzero;"/>
                </g>
                <g transform="matrix(1.430135,0,0,1.430135,855.684786,35.415288)">
                    <path d="M0,27.567L0.811,23.633C1.066,22.367 1.417,20.402 1.63,19.199L1.794,19.199C2.009,20.407 2.361,22.394 2.613,23.633L3.424,27.567L0,27.567ZM0.526,13.25C1.718,12.036 2.487,10.34 2.487,8.462C2.487,4.63 -0.214,2.614 -2.939,0.74C-5.464,-0.986 -6.171,-1.682 -6.171,-3.398C-6.171,-4.869 -5.057,-6.107 -3.636,-6.107C-2.458,-6.107 -1.461,-5.393 -0.736,-4.244L1.683,-6.31C0.581,-8.349 -1.346,-9.545 -3.632,-9.545C-7.068,-9.545 -9.518,-6.54 -9.518,-3.272C-9.518,0.532 -7.436,1.99 -4.969,3.72C-2.034,5.79 -0.941,6.718 -0.941,8.574C-0.941,10.112 -2.137,11.62 -3.799,11.62C-5.015,11.62 -5.857,10.862 -7.257,9.036L-9.788,11.256C-8.326,13.809 -6.303,15.124 -3.757,15.124C-2.359,15.124 -1.031,14.587 0.041,13.696L-5.349,37.112L-1.93,37.112L-0.659,30.836L4.083,30.836L5.387,37.112L8.901,37.112L3.44,13.25L0.526,13.25Z" style="fill:rgb(38,31,30);fill-rule:nonzero;"/>
                </g>
                <g transform="matrix(1.430135,0,0,1.430135,885.529839,73.469028)">
                    <path d="M0,-2.855C0,-1.96 0.017,-0.068 0.041,1.13L-0.119,1.169L-0.378,0.498C-0.722,-0.38 -1.126,-1.418 -1.392,-2.028L-6.152,-13.359L-9.411,-13.359L-9.411,10.504L-6.25,10.504L-6.25,-1.427C-6.25,-2.318 -6.268,-4.211 -6.293,-5.408L-6.133,-5.447L-5.873,-4.778C-5.53,-3.896 -5.127,-2.86 -4.86,-2.251L0.473,10.504L3.16,10.504L3.16,-13.359L0,-13.359L0,-2.855Z" style="fill:rgb(38,31,30);fill-rule:nonzero;"/>
                </g>
                <g transform="matrix(1.430135,0,0,1.430135,960.54341,74.305943)">
                    <path d="M0,-4.03C-2.521,-5.759 -3.23,-6.447 -3.23,-8.17C-3.23,-9.634 -2.117,-10.877 -0.695,-10.877C0.481,-10.877 1.479,-10.162 2.205,-9.014L4.622,-11.081C3.521,-13.119 1.596,-14.317 -0.691,-14.317C-4.129,-14.317 -6.579,-11.306 -6.579,-8.037C-6.579,-4.237 -4.495,-2.781 -2.029,-1.051C0.905,1.023 1.713,1.885 1.713,3.742C1.713,5.28 0.518,6.785 -1.145,6.785C-2.361,6.785 -3.204,6.031 -4.604,4.203L-7.136,6.423C-5.673,8.975 -3.646,10.287 -1.103,10.287C2.211,10.287 5.14,7.303 5.14,3.629C5.14,-0.202 2.729,-2.157 0,-4.03" style="fill:rgb(38,31,30);fill-rule:nonzero;"/>
                </g>
                <g transform="matrix(1.430135,0,0,1.430135,908.825304,38.979755)">
                    <path d="M0,27.932C-0.628,30.578 -1.35,31.52 -2.745,31.52C-5.997,31.52 -6.25,24.737 -6.25,22.656C-6.25,19.372 -5.823,13.859 -2.967,13.859C-1.249,13.859 -0.686,15.049 -0.286,17.101L-0.275,17.163L2.977,16.284L2.967,16.237C2.341,12.299 0.433,10.385 -2.874,10.385C-3.292,10.385 -3.693,10.431 -4.074,10.517L-4.074,-8.294L0.025,-8.294L0.025,-11.665L-11.4,-11.665L-11.4,-8.294L-7.3,-8.294L-7.3,12.785C-8.775,14.865 -9.57,18.248 -9.57,22.723C-9.57,29.26 -7.934,33.443 -4.945,34.641L-5.953,39.597L-2.781,39.597L-1.913,34.923C0.724,34.524 2.293,32.607 2.999,28.944L3.01,28.889L0.015,27.872L0,27.932Z" style="fill:rgb(38,31,30);fill-rule:nonzero;"/>
                </g>
            </g>
        </g>
        <g transform="matrix(1,0,0,1,-195.863639,0.000721)">
            <g transform="matrix(0.504248,0,0,0.504248,330.845,7.13657)">
                <g transform="matrix(0.268443,0,0,0.268443,1138.619461,-36.645581)">
                    <path d="M103.211,651.703L103.674,650.268C97.515,649.11 96.727,649.11 99.182,642.396L101.683,635.496L108.49,635.496C111.546,635.496 111.592,636.746 111.129,640.08L112.889,640.08L116.964,628.92L115.204,628.92C113.676,631.56 112.472,633.505 109.138,633.505L102.424,633.505L105.989,623.734C107.101,620.631 107.749,619.983 111.917,619.983L114.88,619.983C119.187,619.983 119.696,621.141 119.696,625.493L121.409,625.493L122.845,617.899L97.283,617.899L96.82,619.335C101.775,620.353 102.238,620.816 99.923,627.207L94.366,642.396C92.05,648.74 91.078,649.249 85.382,650.268L84.965,651.703L103.211,651.703ZM138.681,633.088C139.561,630.078 139.098,627.438 136.783,627.438C134.051,627.438 133.356,629.522 130.578,635.496L130.578,632.069C130.578,629.615 129.789,627.438 127.568,627.438C124.974,627.438 122.613,631.467 120.807,635.449L122.011,635.449C123.261,633.643 124.419,632.578 125.345,632.578C126.456,632.578 127.058,634.292 125.345,638.089L120.344,649.203C119.418,651.286 120.39,652.629 122.428,652.629C123.678,652.629 124.234,652.305 124.743,650.962L129.651,637.95C131.041,636.237 132.291,634.755 133.865,633.088L138.681,633.088ZM161.186,626.373L159.241,626.234L157.065,628.365L156.602,628.365C146.044,628.365 136.921,640.219 136.921,648.832C136.921,651.24 138.403,652.629 140.718,652.629C143.45,652.629 146.136,648.74 149.146,644.572L149.007,646.054C148.637,650.314 149.933,652.629 152.156,652.629C154.749,652.629 157.111,648.601 158.917,644.618L157.713,644.618C156.463,646.424 155.305,647.489 154.379,647.489C153.406,647.489 152.712,645.73 154.379,641.979L161.186,626.373ZM141.691,645.405C141.691,639.71 148.035,631.976 151.6,631.976C152.388,631.976 153.129,632.069 153.777,632.254L150.072,642.118C147.942,644.711 144.654,647.86 143.126,647.86C142.246,647.86 141.691,647.119 141.691,645.405ZM165.075,631.004L169.335,631.004L162.575,649.48C161.973,651.055 162.806,652.629 164.427,652.629C168.27,652.629 174.475,648.832 176.652,643.646L175.448,643.646C173.734,645.452 170.447,647.86 167.622,648.369L173.827,631.004L180.171,631.004L180.958,628.365L174.8,628.365L177.161,621.696L174.707,621.696L170.308,628.365L165.075,629.105L165.075,631.004ZM195.313,643.692L193.739,643.692C191.748,646.054 189.618,647.906 187.488,647.906C185.311,647.906 184.2,646.609 184.2,643.692C184.2,642.488 184.339,641.284 184.57,640.173L197.397,635.959C199.898,630.031 196.888,627.438 193.369,627.438C187.302,627.438 180.403,637.58 180.403,646.47C180.403,650.453 182.301,652.629 185.265,652.629C188.738,652.629 192.35,649.249 195.313,643.692ZM190.914,630.865C192.628,630.865 194.109,632.162 193.322,635.449L185.358,637.302C186.747,633.597 189.062,630.865 190.914,630.865ZM219.347,633.088C220.227,630.078 219.764,627.438 217.448,627.438C214.716,627.438 214.021,629.522 211.243,635.496L211.243,632.069C211.243,629.615 210.456,627.438 208.233,627.438C205.64,627.438 203.278,631.467 201.472,635.449L202.676,635.449C203.927,633.643 205.084,632.578 206.01,632.578C207.122,632.578 207.724,634.292 206.01,638.089L201.009,649.203C200.083,651.286 201.056,652.629 203.093,652.629C204.343,652.629 204.899,652.305 205.408,650.962L210.317,637.95C211.706,636.237 212.956,634.755 214.531,633.088L219.347,633.088ZM219.439,649.203C218.513,651.286 219.485,652.629 221.523,652.629C222.773,652.629 223.329,652.305 223.838,650.962L228.747,637.95C231.016,635.172 235.693,632.208 237.545,632.208C238.888,632.208 238.703,633.319 237.823,634.986L230.275,649.48C229.534,650.916 230.506,652.629 232.127,652.629C235.832,652.629 240.231,649.295 241.99,644.618L240.786,644.618C239.582,646.332 237.545,648.23 235.646,648.554L242.129,635.449C242.963,633.782 243.38,632.208 243.38,630.958C243.38,628.828 242.176,627.438 239.953,627.438C236.758,627.438 233.516,631.05 229.673,635.496L229.673,632.069C229.673,629.615 228.885,627.438 226.663,627.438C225.274,627.438 223.931,628.642 222.68,630.356L222.68,630.819C225.088,630.68 226.153,634.292 224.44,638.089L219.439,649.203ZM260.234,620.863C261.902,620.863 263.291,619.52 263.291,617.807C263.291,616.139 261.902,614.75 260.234,614.75C258.521,614.75 257.178,616.139 257.178,617.807C257.178,619.52 258.521,620.863 260.234,620.863ZM258.937,630.124C259.448,628.411 258.29,627.438 257.41,627.438C253.705,627.438 249.306,630.772 247.547,635.449L248.751,635.449C249.955,633.736 251.992,631.838 253.891,631.513L246.806,649.943C246.157,651.657 247.454,652.629 248.334,652.629C251.853,652.629 255.974,649.249 257.734,644.618L256.53,644.618C255.326,646.332 253.289,648.23 251.39,648.554L258.937,630.124ZM264.68,631.004L268.94,631.004L262.179,649.48C261.577,651.055 262.411,652.629 264.031,652.629C267.875,652.629 274.08,648.832 276.256,643.646L275.052,643.646C273.339,645.452 270.051,647.86 267.226,648.369L273.432,631.004L279.776,631.004L280.563,628.365L274.404,628.365L276.766,621.696L274.311,621.696L269.912,628.365L264.68,629.105L264.68,631.004ZM292.371,625.077L301.4,616.649L301.4,615.676L296.538,615.676L290.981,625.077L292.371,625.077ZM294.917,643.692L293.343,643.692C291.352,646.054 289.222,647.906 287.092,647.906C284.915,647.906 283.804,646.609 283.804,643.692C283.804,642.488 283.943,641.284 284.174,640.173L297.001,635.959C299.502,630.031 296.492,627.438 292.973,627.438C286.906,627.438 280.007,637.58 280.007,646.47C280.007,650.453 281.905,652.629 284.869,652.629C288.342,652.629 291.954,649.249 294.917,643.692ZM290.518,630.865C292.232,630.865 293.714,632.162 292.926,635.449L284.961,637.302C286.351,633.597 288.666,630.865 290.518,630.865Z" style="fill:rgb(38,31,30);"/>
                    <path d="M112.38,557.746L121.409,551.541L121.409,550.569L115.945,550.569L110.944,557.746L112.38,557.746ZM108.675,577.149C111.731,577.149 111.778,578.399 111.314,581.733L113.074,581.733L117.149,570.573L115.39,570.573C113.861,573.213 112.657,575.158 109.323,575.158L102.609,575.158L105.989,565.85C107.101,562.747 107.749,562.145 111.917,562.145L114.88,562.145C119.187,562.145 119.696,563.303 119.696,567.61L121.409,567.61L122.845,560.015L97.283,560.015L96.82,561.451C101.775,562.47 102.238,562.933 99.923,569.323L94.366,584.512C92.05,590.856 91.078,591.365 85.382,592.384L84.965,593.819L113.398,593.819L118.492,585.762L116.547,585.762C113.306,588.818 109.231,591.736 103.535,591.736C95.986,591.736 96.681,591.411 99.182,584.512L101.868,577.149L108.675,577.149ZM141.044,596.968C141.044,594.005 138.404,592.94 134.098,591.643C130.393,590.532 128.726,590.207 128.726,589.003C128.726,588.031 129.513,586.873 131.088,586.04C137.154,585.716 141.09,580.252 141.09,575.667C141.09,574.695 140.905,573.861 140.58,573.12L145.721,573.12L146.508,570.481L138.358,570.481C137.385,569.879 136.228,569.555 135.07,569.555C128.632,569.555 124.466,575.204 124.466,579.788C124.466,583.261 126.688,585.438 129.373,585.947C126.364,587.29 124.697,588.865 124.697,590.717C124.697,591.782 125.068,592.523 125.948,593.217C119.001,595.255 116.269,597.57 116.269,600.858C116.269,604.053 120.483,605.396 125.484,605.396C133.959,605.396 141.044,600.812 141.044,596.968ZM130.994,584.28C129.466,584.28 128.865,582.984 128.865,581.502C128.865,577.38 131.088,571.314 134.561,571.314C136.089,571.314 136.691,572.611 136.691,574.093C136.691,578.214 134.468,584.28 130.994,584.28ZM121.409,599.237C121.409,596.783 123.771,595.255 127.151,593.912C128.263,594.468 129.929,595.07 132.153,595.811C135.672,596.968 137.015,597.431 137.015,598.496C137.015,600.766 133.171,602.479 127.939,602.479C123.54,602.479 121.409,601.553 121.409,599.237ZM168.549,568.49L166.604,568.351L164.428,570.481L163.965,570.481C153.407,570.481 144.284,582.335 144.284,590.948C144.284,593.356 145.766,594.746 148.082,594.746C150.814,594.746 153.5,590.856 156.51,586.688L156.371,588.17C156,592.43 157.297,594.746 159.519,594.746C162.113,594.746 164.474,590.717 166.28,586.734L165.076,586.734C163.826,588.54 162.668,589.606 161.742,589.606C160.77,589.606 160.075,587.846 161.742,584.095L168.549,568.49ZM149.054,587.522C149.054,581.826 155.398,574.093 158.964,574.093C159.751,574.093 160.492,574.185 161.14,574.371L157.436,584.234C155.306,586.827 152.018,589.976 150.49,589.976C149.61,589.976 149.054,589.235 149.054,587.522ZM173.596,590.671L186.516,556.82L186.099,556.311L177.995,557.237L177.995,558.209L179.57,559.413C181.005,560.525 180.542,561.59 179.246,565.017L169.151,591.597C168.41,593.032 169.382,594.746 171.003,594.746C174.708,594.746 178.644,591.411 180.403,586.734L179.199,586.734C177.995,588.448 175.495,590.346 173.596,590.671ZM198.231,562.979C199.899,562.979 201.288,561.636 201.288,559.923C201.288,558.256 199.899,556.867 198.231,556.867C196.518,556.867 195.175,558.256 195.175,559.923C195.175,561.636 196.518,562.979 198.231,562.979ZM196.935,572.24C197.444,570.527 196.287,569.555 195.407,569.555C191.702,569.555 187.303,572.889 185.543,577.566L186.747,577.566C187.951,575.852 189.989,573.954 191.887,573.63L184.802,592.06C184.154,593.773 185.451,594.746 186.331,594.746C189.85,594.746 193.971,591.365 195.731,586.734L194.527,586.734C193.323,588.448 191.285,590.346 189.387,590.671L196.935,572.24ZM202.676,573.12L206.937,573.12L200.176,591.597C199.574,593.171 200.407,594.746 202.028,594.746C205.872,594.746 212.077,590.948 214.253,585.762L213.049,585.762C211.336,587.568 208.048,589.976 205.223,590.485L211.428,573.12L217.772,573.12L218.56,570.481L212.401,570.481L214.762,563.813L212.308,563.813L207.909,570.481L202.676,571.222L202.676,573.12ZM230.367,567.193L239.397,558.765L239.397,557.793L234.535,557.793L228.978,567.193L230.367,567.193ZM232.914,585.808L231.34,585.808C229.349,588.17 227.219,590.022 225.088,590.022C222.912,590.022 221.801,588.726 221.801,585.808C221.801,584.604 221.939,583.4 222.171,582.289L234.998,578.075C237.499,572.148 234.489,569.555 230.969,569.555C224.903,569.555 218.003,579.696 218.003,588.587C218.003,592.569 219.902,594.746 222.866,594.746C226.339,594.746 229.951,591.365 232.914,585.808ZM228.515,572.981C230.228,572.981 231.71,574.278 230.923,577.566L222.958,579.418C224.347,575.713 226.663,572.981 228.515,572.981Z" style="fill:rgb(38,31,30);"/>
                    <path d="M114.047,502.132L97.19,502.132L96.727,503.567C101.683,504.586 102.146,505.049 99.83,511.439L94.366,526.628C92.05,532.972 91.078,533.482 85.382,534.5L84.965,535.936L110.62,535.936L116.177,526.026L114.232,526.026C111.083,529.499 107.378,533.852 101.683,533.852C97.376,533.852 96.866,533.111 99.182,526.628L104.646,511.439C106.915,505.095 107.934,504.586 113.63,503.567L114.047,502.132ZM132.708,505.095C134.375,505.095 135.764,503.752 135.764,502.039C135.764,500.372 134.375,498.983 132.708,498.983C130.994,498.983 129.651,500.372 129.651,502.039C129.651,503.752 130.994,505.095 132.708,505.095ZM131.411,514.357C131.921,512.643 130.763,511.671 129.882,511.671C126.178,511.671 121.779,515.005 120.02,519.682L121.224,519.682C122.428,517.969 124.465,516.07 126.364,515.746L119.279,534.176C118.63,535.889 119.927,536.862 120.807,536.862C124.326,536.862 128.448,533.482 130.207,528.851L129.003,528.851C127.799,530.564 125.762,532.463 123.863,532.787L131.411,514.357ZM156.602,516.811C156.602,513.06 155.212,511.671 152.619,511.671C149.378,511.671 146.321,515.099 143.265,519.265L150.998,498.936L150.582,498.427L142.478,499.353L142.478,500.326L144.052,501.53C145.488,502.641 145.025,503.799 143.728,507.133L135.393,528.619C134.791,530.194 134.05,532.046 134.05,532.555C134.05,534.778 137.06,536.862 139.792,536.862C146.09,536.862 156.602,525.517 156.602,516.811ZM142.015,533.111C140.765,533.111 138.959,531.953 138.959,530.935C138.959,530.61 139.514,529.175 140.209,527.369L142.293,521.858C144.515,519.219 147.896,516.394 149.794,516.394C150.952,516.394 151.832,517.135 151.832,518.849C151.832,523.896 147.109,533.111 142.015,533.111ZM173.457,527.925L171.882,527.925C169.891,530.286 167.761,532.139 165.631,532.139C163.454,532.139 162.343,530.842 162.343,527.925C162.343,526.721 162.482,525.517 162.714,524.405L175.54,520.191C178.041,514.264 175.031,511.671 171.512,511.671C165.446,511.671 158.546,521.812 158.546,530.703C158.546,534.685 160.444,536.862 163.408,536.862C166.881,536.862 170.493,533.482 173.457,527.925ZM169.057,515.099C170.771,515.099 172.253,516.394 171.465,519.682L163.501,521.534C164.89,517.831 167.205,515.099 169.057,515.099ZM197.49,517.32C198.37,514.31 197.907,511.671 195.591,511.671C192.859,511.671 192.165,513.755 189.386,519.729L189.386,516.302C189.386,513.847 188.599,511.671 186.376,511.671C183.783,511.671 181.422,515.7 179.615,519.682L180.819,519.682C182.07,517.876 183.227,516.811 184.154,516.811C185.265,516.811 185.867,518.524 184.154,522.321L179.152,533.435C178.226,535.519 179.199,536.862 181.236,536.862C182.486,536.862 183.042,536.538 183.552,535.195L188.46,522.183C189.849,520.469 191.1,518.987 192.674,517.32L197.49,517.32ZM200.823,515.237L204.204,515.237L197.443,533.713C196.841,535.287 197.675,536.862 199.295,536.862C203.139,536.862 209.344,533.065 211.52,527.878L210.316,527.878C208.603,529.684 205.315,532.092 202.49,532.602L208.696,515.237L215.04,515.237L215.827,512.597L209.668,512.597L212.03,505.929L209.575,505.929L205.176,512.597L200.823,513.338L200.823,515.237ZM227.357,509.309L236.387,500.881L236.387,499.909L231.524,499.909L225.968,509.309L227.357,509.309ZM229.904,527.925L228.329,527.925C226.338,530.286 224.208,532.139 222.078,532.139C219.901,532.139 218.79,530.842 218.79,527.925C218.79,526.721 218.929,525.517 219.16,524.405L231.987,520.191C234.488,514.264 231.478,511.671 227.959,511.671C221.893,511.671 214.993,521.812 214.993,530.703C214.993,534.685 216.891,536.862 219.855,536.862C223.328,536.862 226.94,533.482 229.904,527.925ZM225.505,515.099C227.218,515.099 228.7,516.394 227.912,519.682L219.948,521.534C221.337,517.831 223.652,515.099 225.505,515.099Z" style="fill:rgb(38,31,30);"/>
                    <path d="M77.619,274.174L91.209,274.174L97.239,257.794L122.439,257.794L128.469,274.174L142.059,274.174L118.209,211.174L101.469,211.174L77.619,274.174ZM101.199,246.904L109.839,223.234L118.479,246.904L101.199,246.904Z" style="fill:rgb(38,31,30);"/>
                    <path d="M151.868,274.175L164.648,274.175L164.648,229.355L178.688,252.575L187.688,252.575L201.728,229.355L201.728,274.175L214.508,274.175L214.508,211.174L198.398,211.174L183.188,237.095L167.978,211.174L151.868,211.174L151.868,274.175Z" style="fill:rgb(38,31,30);"/>
                    <path d="M232.146,274.175L251.406,274.175C265.896,274.175 274.806,267.155 274.806,255.635C274.806,249.065 271.116,243.665 264.456,240.695C268.776,237.725 271.116,233.315 271.116,228.275C271.116,217.655 263.196,211.175 250.056,211.175L232.146,211.175L232.146,274.175ZM250.326,222.065C255.186,222.065 257.976,224.675 257.976,228.905C257.976,233.405 255.186,235.835 250.326,235.835L244.926,235.835L244.926,222.065L250.326,222.065ZM252.126,246.815C258.066,246.815 261.666,249.695 261.666,254.915C261.666,260.135 258.066,263.285 252.126,263.285L244.926,263.285L244.926,246.815L252.126,246.815Z" style="fill:rgb(38,31,30);"/>
                    <path d="M279.217,274.175L292.807,274.175L298.837,257.795L324.037,257.795L330.067,274.175L343.657,274.175L319.807,211.175L303.067,211.175L279.217,274.175ZM302.797,246.905L311.437,223.235L320.077,246.905L302.797,246.905Z" style="fill:rgb(38,31,30);"/>
                    <path d="M347.616,265.445C353.196,272.105 360.396,275.975 371.016,275.975C382.536,275.975 391.716,268.775 391.896,257.075C391.896,235.745 363.096,238.355 363.096,227.105C363.096,223.415 365.976,220.535 370.386,220.535C375.156,220.535 379.296,223.595 382.986,228.365L392.346,219.995C387.036,213.605 379.746,209.375 370.296,209.375C358.326,209.375 350.136,217.655 350.136,227.645C350.136,248.615 378.936,246.095 378.936,257.345C378.936,261.935 375.876,264.635 370.836,264.635C365.706,264.635 360.666,261.755 356.886,256.895L347.616,265.445Z" style="fill:rgb(38,31,30);"/>
                    <path d="M399.097,265.445C404.677,272.105 411.877,275.975 422.497,275.975C434.017,275.975 443.197,268.775 443.377,257.075C443.377,235.745 414.577,238.355 414.577,227.105C414.577,223.415 417.457,220.535 421.867,220.535C426.637,220.535 430.777,223.595 434.467,228.365L443.827,219.995C438.517,213.605 431.227,209.375 421.777,209.375C409.807,209.375 401.617,217.655 401.617,227.645C401.617,248.615 430.417,246.095 430.417,257.345C430.417,261.935 427.357,264.635 422.317,264.635C417.187,264.635 412.147,261.755 408.367,256.895L399.097,265.445Z" style="fill:rgb(38,31,30);"/>
                    <path d="M448.597,274.175L462.187,274.175L468.217,257.795L493.417,257.795L499.447,274.175L513.037,274.175L489.187,211.175L472.447,211.175L448.597,274.175ZM472.177,246.905L480.817,223.235L489.457,246.905L472.177,246.905Z" style="fill:rgb(38,31,30);"/>
                    <path d="M522.846,274.175L547.596,274.175C567.576,274.175 581.076,259.685 581.076,242.675C581.076,225.665 567.576,211.175 547.596,211.175L522.846,211.175L522.846,274.175ZM547.776,222.785C559.476,222.785 567.936,231.425 567.936,242.675C567.936,253.835 559.476,262.565 547.776,262.565L535.626,262.565L535.626,222.785L547.776,222.785Z" style="fill:rgb(38,31,30);"/>
                    <path d="M593.495,274.175L630.215,274.175L630.215,263.285L606.275,263.285L606.275,247.535L626.615,247.535L626.615,236.645L606.275,236.645L606.275,222.065L630.215,222.065L630.215,211.175L593.495,211.175L593.495,274.175Z" style="fill:rgb(38,31,30);"/>
                    <path d="M85.539,366.174L110.289,366.174C130.269,366.174 143.769,351.684 143.769,334.674C143.769,317.664 130.269,303.174 110.289,303.174L85.539,303.174L85.539,366.174ZM110.469,314.784C122.169,314.784 130.629,323.424 130.629,334.674C130.629,345.834 122.169,354.564 110.469,354.564L98.319,354.564L98.319,314.784L110.469,314.784Z" style="fill:rgb(38,31,30);"/>
                    <path d="M156.188,366.175L192.908,366.175L192.908,355.285L168.968,355.285L168.968,339.535L189.308,339.535L189.308,328.645L168.968,328.645L168.968,314.065L192.908,314.065L192.908,303.175L156.188,303.175L156.188,366.175Z" style="fill:rgb(38,31,30);"/>
                    <path d="M231.336,366.175L244.116,366.175L244.116,339.535L264.456,339.535L264.456,328.645L244.116,328.645L244.116,314.065L268.056,314.065L268.056,303.175L231.336,303.175L231.336,366.175Z" style="fill:rgb(38,31,30);"/>
                    <path d="M279.396,366.175L292.176,366.175L292.176,340.705L298.746,340.705L315.486,366.175L330.786,366.175L310.986,338.275C317.376,335.215 321.066,329.545 321.066,321.985C321.066,310.285 312.516,303.175 298.656,303.175L279.396,303.175L279.396,366.175ZM299.376,314.065C304.776,314.065 307.926,317.035 307.926,321.805C307.926,326.935 304.776,329.815 299.376,329.815L292.176,329.815L292.176,314.065L299.376,314.065Z" style="fill:rgb(38,31,30);"/>
                    <path d="M333.575,366.175L347.165,366.175L353.195,349.795L378.395,349.795L384.425,366.175L398.015,366.175L374.165,303.175L357.425,303.175L333.575,366.175ZM357.155,338.905L365.795,315.235L374.435,338.905L357.155,338.905Z" style="fill:rgb(38,31,30);"/>
                    <path d="M407.824,366.175L420.604,366.175L420.604,320.905L448.774,366.175L465.154,366.175L465.154,303.175L452.374,303.175L452.374,348.265L424.204,303.175L407.824,303.175L407.824,366.175Z" style="fill:rgb(38,31,30);"/>
                    <path d="M510.962,356.005C499.082,356.005 490.622,346.735 490.622,334.675C490.622,322.615 499.082,313.345 510.962,313.345C518.162,313.345 523.832,316.855 527.432,321.985L537.512,314.155C531.752,306.505 522.392,301.375 510.962,301.375C491.072,301.375 477.482,316.675 477.482,334.675C477.482,352.675 491.072,367.975 510.962,367.975C522.392,367.975 531.752,362.935 537.512,355.105L527.432,347.365C523.832,352.495 518.162,356.005 510.962,356.005Z" style="fill:rgb(38,31,30);"/>
                    <path d="M548.672,366.175L585.392,366.175L585.392,355.285L561.452,355.285L561.452,339.535L581.792,339.535L581.792,328.645L561.452,328.645L561.452,314.065L585.392,314.065L585.392,303.175L548.672,303.175L548.672,366.175Z" style="fill:rgb(38,31,30);"/>
                    <path d="M85.539,458.174L122.259,458.174L122.259,447.284L98.319,447.284L98.319,431.534L118.659,431.534L118.659,420.644L98.319,420.644L98.319,406.064L122.259,406.064L122.259,395.174L85.539,395.174L85.539,458.174Z" style="fill:rgb(38,31,30);"/>
                    <path d="M137.198,458.175L149.978,458.175L149.978,412.905L178.148,458.175L194.528,458.175L194.528,395.175L181.748,395.175L181.748,440.265L153.578,395.175L137.198,395.175L137.198,458.175Z" style="fill:rgb(38,31,30);"/>
                    <path d="M235.746,458.175L272.466,458.175L272.466,447.285L248.526,447.285L248.526,431.535L268.866,431.535L268.866,420.645L248.526,420.645L248.526,406.065L272.466,406.065L272.466,395.175L235.746,395.175L235.746,458.175Z" style="fill:rgb(38,31,30);"/>
                    <path d="M281.735,449.445C287.315,456.105 294.515,459.975 305.135,459.975C316.655,459.975 325.835,452.775 326.015,441.075C326.015,419.745 297.215,422.355 297.215,411.105C297.215,407.415 300.095,404.535 304.505,404.535C309.275,404.535 313.415,407.595 317.105,412.365L326.465,403.995C321.155,397.605 313.865,393.375 304.415,393.375C292.445,393.375 284.255,401.655 284.255,411.645C284.255,432.615 313.055,430.095 313.055,441.345C313.055,445.935 309.995,448.635 304.955,448.635C299.825,448.635 294.785,445.755 291.005,440.895L281.735,449.445Z" style="fill:rgb(38,31,30);"/>
                    <path d="M339.515,458.175L352.295,458.175L352.295,432.705L360.305,432.705C374.165,432.705 382.625,425.595 382.625,413.985C382.625,402.285 374.165,395.175 360.305,395.175L339.515,395.175L339.515,458.175ZM360.845,406.065C366.245,406.065 369.485,409.035 369.485,413.805C369.485,418.935 366.245,421.815 360.845,421.815L352.295,421.815L352.295,406.065L360.845,406.065Z" style="fill:rgb(38,31,30);"/>
                    <path d="M379.924,458.175L393.514,458.175L399.544,441.795L424.744,441.795L430.774,458.175L444.364,458.175L420.514,395.175L403.774,395.175L379.924,458.175ZM403.504,430.905L412.144,407.235L420.784,430.905L403.504,430.905Z" style="fill:rgb(38,31,30);"/>
                    <path d="M481.714,448.005C469.384,448.005 460.474,438.735 460.474,426.675C460.474,414.615 468.934,405.345 480.814,405.345C488.014,405.345 493.684,408.855 497.284,413.985L507.364,406.155C501.604,398.505 492.244,393.375 480.814,393.375C460.924,393.375 447.334,408.675 447.334,426.675C447.334,444.675 461.284,459.975 481.714,459.975C493.504,459.975 503.314,454.935 509.164,447.105L509.164,420.285L480.364,420.285L480.364,431.895L496.384,431.895L496.384,442.515C492.784,445.935 487.654,448.005 481.714,448.005Z" style="fill:rgb(38,31,30);"/>
                    <path d="M523.474,458.175L536.254,458.175L536.254,412.905L564.424,458.175L580.804,458.175L580.804,395.175L568.024,395.175L568.024,440.265L539.854,395.175L523.474,395.175L523.474,458.175Z" style="fill:rgb(38,31,30);"/>
                    <path d="M598.532,458.175L635.252,458.175L635.252,447.285L611.312,447.285L611.312,431.535L631.652,431.535L631.652,420.645L611.312,420.645L611.312,406.065L635.252,406.065L635.252,395.175L598.532,395.175L598.532,458.175Z" style="fill:rgb(38,31,30);"/>
                    <path d="M151.312,143.869C151.154,143.711 151.787,143.869 151.946,143.553L150.678,143.553C150.52,143.553 150.52,143.394 150.52,143.235C149.727,143.394 148.776,143.711 147.984,143.869C146.875,144.186 145.924,144.979 144.656,145.296C142.913,145.93 141.487,147.356 139.585,147.99C139.426,147.99 139.426,147.831 139.426,147.673C139.585,147.197 140.219,147.039 140.535,146.563C140.535,146.405 140.535,146.247 140.377,146.247C141.645,144.503 143.388,143.553 144.973,142.126L144.973,141.651C145.448,141.017 146.241,140.7 146.558,139.907C146.716,139.432 147.35,138.798 148.143,138.481C147.984,138.323 147.667,138.323 147.667,138.006C147.033,138.006 146.399,138.323 145.765,137.847C146.061,137.552 146.4,137.389 146.759,137.284C146.622,137.257 146.5,137.189 146.399,137.055C146.241,136.738 146.705,136.384 147.192,136.263C147.826,136.104 148.618,136.104 149.093,135.629C147.984,135.47 146.716,135.946 145.607,135.312C146.399,133.251 147.667,131.508 149.569,130.557C149.727,130.557 150.044,130.557 150.044,130.716C150.044,131.508 149.569,132.142 148.776,132.301C150.044,132.618 151.312,132.618 152.58,133.251C152.421,133.568 152.104,133.41 151.946,133.41C152.738,133.885 153.689,133.568 154.481,134.202C154.006,134.678 153.531,134.202 153.055,134.202C157.968,135.629 163.198,136.738 167.318,139.907C163.832,141.651 160.187,142.443 156.383,143.235C155.908,143.235 155.591,143.235 155.115,143.077C155.115,143.235 155.115,143.553 154.957,143.553C154.323,143.553 153.848,143.553 153.372,143.869C152.738,144.186 151.787,144.345 151.312,143.869ZM148.067,154.893C148.054,154.903 148.04,154.912 148.027,154.921C147.434,155.339 146.843,155.765 146.218,156.128C145.54,156.521 144.83,156.82 144.127,157.154C144.122,157.141 144.116,157.128 144.107,157.116C144.053,157.042 143.943,156.996 143.839,157.052C143.239,157.377 142.728,157.805 142.244,158.266C142.17,158.337 142.097,158.408 142.024,158.48C142.019,158.484 142.015,158.488 142.011,158.492C142.006,158.496 142.002,158.5 141.998,158.504C141.923,158.579 141.848,158.653 141.773,158.729C141.764,158.737 141.755,158.746 141.746,158.755C141.742,158.76 141.741,158.765 141.737,158.769C141.624,158.882 141.515,158.995 141.392,159.14C141.313,159.234 141.286,159.292 141.18,159.362C141.082,159.427 140.809,159.426 140.835,159.243C140.836,159.233 140.835,159.222 140.836,159.212C140.743,159.261 140.649,159.311 140.555,159.356C140.468,159.398 140.388,159.445 140.307,159.492C140.273,159.479 140.236,159.474 140.198,159.476C140.158,159.478 140.118,159.488 140.084,159.515C139.89,159.666 139.698,159.828 139.512,159.997C139.181,160.297 138.869,160.624 138.592,160.975C138.587,160.98 138.583,160.985 138.578,160.989C138.568,161.004 138.557,161.019 138.547,161.033C138.531,161.054 138.515,161.074 138.499,161.095C138.483,161.116 138.465,161.138 138.449,161.16C138.444,161.167 138.439,161.173 138.434,161.18C138.396,161.231 138.362,161.285 138.326,161.337C138.324,161.34 138.322,161.344 138.32,161.347C138.293,161.377 138.248,161.398 138.19,161.409C138.169,161.378 138.146,161.347 138.126,161.315C138.111,161.29 138.097,161.264 138.082,161.238C138.034,161.156 137.989,161.071 137.947,160.984C137.945,160.981 137.944,160.978 137.943,160.975C137.93,160.949 137.917,160.923 137.905,160.896C138.077,160.712 138.242,160.52 138.402,160.326C138.413,160.313 138.424,160.3 138.434,160.287C138.489,160.219 138.544,160.152 138.599,160.084C138.688,159.971 138.777,159.858 138.864,159.745C138.896,159.703 138.929,159.661 138.961,159.619C139.135,159.392 139.302,159.172 139.457,158.95C139.461,158.944 139.464,158.938 139.468,158.933C139.492,158.9 139.514,158.866 139.537,158.833C139.613,158.721 139.686,158.607 139.754,158.492C139.815,158.389 139.874,158.284 139.927,158.176C139.932,158.168 139.936,158.161 139.94,158.153C139.945,158.142 139.951,158.131 139.957,158.12C139.966,158.101 139.974,158.08 139.983,158.061C140.038,157.942 140.088,157.818 140.133,157.691C140.138,157.678 140.143,157.664 140.147,157.65C140.159,157.616 140.172,157.582 140.183,157.546C140.2,157.489 140.217,157.431 140.232,157.372L140.233,157.371C140.236,157.358 140.238,157.345 140.242,157.332C140.261,157.256 140.282,157.18 140.297,157.1C140.305,157.058 140.294,157.024 140.277,156.993C140.448,156.696 140.662,156.41 140.906,156.138C140.882,156.152 140.856,156.164 140.833,156.179C140.606,156.325 140.456,156.529 140.245,156.687C140.072,156.816 139.754,156.602 139.958,156.45C140.098,156.346 140.203,156.232 140.319,156.123C140.325,156.114 140.328,156.106 140.336,156.097C140.597,155.84 140.846,155.51 141.144,155.293C141.326,155.16 141.484,155.049 141.632,154.921C141.655,154.901 141.678,154.879 141.701,154.858C141.811,154.712 141.93,154.581 142.056,154.458C142.061,154.453 142.066,154.447 142.072,154.442C143.589,152.978 146.142,153.044 148.143,152.11C148.935,151.793 149.885,152.269 150.678,152.11C151.154,152.11 151.629,152.11 152.104,152.427C150.681,153.203 149.365,154.079 148.067,154.893ZM150.906,156.203C150.835,156.377 150.673,156.527 150.516,156.665C150.714,156.706 150.853,156.793 150.725,156.911C150.357,157.248 150.007,157.586 149.524,157.749C149.49,157.76 149.394,157.775 149.28,157.782C149.086,157.97 148.891,158.157 148.689,158.336C148.501,158.503 147.63,158.382 147.896,158.146C148.298,157.789 148.671,157.402 149.068,157.04C149.292,156.835 149.528,156.639 149.727,156.409C149.837,156.281 149.928,156.156 150.067,156.058C150.197,155.966 151.035,155.892 150.906,156.203ZM143.547,132.459C143.388,132.776 143.213,132.81 143.071,133.093C142.913,133.41 142.754,133.568 142.437,133.727C142.279,133.727 142.12,133.727 142.12,133.568C142.279,132.935 142.754,132.301 143.388,132.142C143.547,132.142 143.547,132.301 143.547,132.459ZM130.393,142.919C130.393,142.919 130.235,142.76 130.235,142.602C132.295,139.907 133.879,137.372 135.306,134.519C137.366,133.41 139.076,131.795 140.694,130.082C143.388,127.229 146.241,124.694 149.569,123.109C150.836,122.634 152.421,122.792 153.689,123.268C153.214,123.901 152.421,123.743 151.787,124.218C151.629,124.218 151.47,124.218 151.312,124.06C151.47,123.901 151.47,123.743 151.47,123.584C149.885,125.328 147.667,126.12 146.399,128.18C145.448,129.765 144.814,131.825 142.754,132.301C142.12,132.459 142.913,131.825 142.596,131.984C137.683,134.995 134.197,138.64 130.393,142.919ZM154.64,146.405C154.323,146.405 153.689,146.563 153.848,146.247C154.006,145.454 155.115,145.454 155.749,145.137C156.066,144.979 156.542,144.662 156.859,144.82C157.176,145.296 157.651,145.137 157.968,145.454C157.017,146.405 155.749,145.93 154.64,146.405ZM179.01,157.758C179.91,156.858 180.819,155.891 181.723,154.921L181.703,154.921C183.387,153.016 185.037,151.199 186.989,149.526C187.584,148.995 188.161,148.527 188.712,148.148C188.871,147.99 188.871,147.673 189.029,147.514C188.237,147.831 187.761,148.465 186.969,148.782C186.81,148.782 186.652,148.624 186.81,148.465C187.375,148.042 187.94,147.619 188.504,147.195C188.469,147.197 188.432,147.197 188.396,147.197C188.237,147.197 188.237,147.039 188.237,146.88C186.177,146.563 184.592,147.99 183.166,149.258C182.849,149.416 182.532,149.099 182.373,149.099C179.996,149.891 178.253,151.952 175.876,152.903L175.876,152.586C174.925,152.903 174.001,153.478 173.023,153.695C171.597,154.012 170.329,153.853 169.061,153.853C167.141,154.046 165.219,154.469 163.299,154.879C163.244,154.894 163.188,154.906 163.133,154.921C162.103,155.203 161.13,155.587 160.18,156.11C160.143,156.13 160.107,156.151 160.072,156.173C159.993,156.272 159.916,156.367 159.843,156.447C159.502,156.822 159.208,157.165 158.756,157.395C157.781,157.891 156.987,158.754 156.128,159.455C156.066,159.505 155.972,159.53 155.874,159.535C155.023,160.35 154.185,161.178 153.321,161.978C153.26,162.035 153.015,162.066 152.838,162.037C152.842,162.031 152.848,162.028 152.851,162.022C152.881,161.971 152.912,161.921 152.942,161.871C153.076,161.647 153.212,161.424 153.348,161.202C153.502,160.955 153.658,160.709 153.819,160.466C154.035,160.139 154.257,159.815 154.493,159.502C154.555,159.42 154.538,159.347 154.487,159.294C154.437,159.241 154.353,159.21 154.268,159.211C155.059,158.444 155.998,157.79 156.928,157.225L156.928,157.199C156.822,157.235 156.669,157.151 156.749,157.039C156.849,156.899 156.928,156.75 157.022,156.607C157.04,156.56 157.056,156.513 157.073,156.466C157.033,156.424 156.992,156.383 156.953,156.341C156.697,156.508 156.425,156.665 156.208,156.861C155.829,157.203 155.532,157.902 154.956,157.895C154.919,157.895 154.807,157.889 154.716,157.861C154.648,157.849 154.588,157.83 154.55,157.805C154.557,157.792 154.564,157.78 154.57,157.768C154.578,157.753 154.586,157.739 154.594,157.724C154.602,157.711 154.609,157.697 154.617,157.683C154.642,157.638 154.667,157.592 154.692,157.547C154.718,157.501 154.742,157.456 154.768,157.41C154.788,157.374 154.808,157.337 154.829,157.3C154.866,157.233 154.903,157.166 154.941,157.099C154.968,157.051 154.997,157.004 155.024,156.956C155.092,156.839 155.16,156.723 155.229,156.606C155.261,156.55 155.294,156.494 155.327,156.438C155.383,156.342 155.438,156.245 155.495,156.15C155.573,156.018 155.491,155.91 155.376,155.867C155.67,155.486 156.029,155.167 156.461,154.921L156.413,154.921C157.02,154.616 157.627,154.244 158.233,153.904C158.321,153.828 158.407,153.751 158.495,153.677C157.591,153.98 156.778,154.392 155.975,154.921C155.975,154.921 155.766,155.006 155.707,155.065C155.707,155.065 155.525,155.134 155.312,154.921C155.29,154.892 155.274,154.856 155.274,154.804C155.432,154.487 155.908,154.329 156.225,154.012C156.383,154.012 156.542,154.012 156.542,154.17C161.613,150.208 168.586,151.159 174.45,149.099C174.925,148.782 175.4,148.465 175.876,148.148C176.668,147.831 177.302,147.039 178.253,146.563C179.521,145.613 180.472,144.503 180.947,142.919C180.947,142.76 180.789,142.602 180.789,142.602C178.729,144.82 176.351,146.563 173.816,147.831C170.488,149.575 166.843,149.258 163.356,149.733C163.515,149.416 163.832,149.416 164.148,149.416C164.148,148.941 164.465,148.782 164.782,148.465L165.258,148.465C165.416,148.465 165.416,148.148 165.575,148.148C165.892,148.148 166.367,147.99 166.209,147.99C165.733,147.356 164.782,148.465 163.99,147.99C164.307,147.673 164.148,147.197 164.465,147.039L165.099,147.039C165.099,146.722 165.416,146.405 165.416,146.405C167.793,144.979 170.012,143.869 172.231,142.602C171.755,142.602 171.438,143.077 170.963,142.76C171.28,142.76 170.963,142.285 171.28,142.285C173.023,141.809 174.45,140.858 176.193,140.225C175.559,140.225 175.083,140.7 174.45,140.225C174.766,140.066 174.925,139.749 175.4,139.749L175.4,139.274C175.4,139.115 175.559,139.115 175.717,139.115C175.559,139.115 175.4,138.957 175.4,138.957C175.559,138.64 176.034,138.798 176.351,138.481C176.193,138.481 175.876,138.481 175.876,138.323C176.351,137.689 177.144,137.53 177.936,137.372C177.777,137.055 177.302,137.372 177.302,137.055C177.302,136.896 177.461,136.896 177.619,136.896L177.302,136.896C176.985,136.738 177.144,136.421 177.144,136.263C178.094,135.153 178.094,133.727 178.57,132.459C178.411,132.459 178.253,132.459 178.253,132.301C176.668,134.044 174.132,134.678 171.755,135.312L170.963,135.312C170.171,135.629 169.061,135.629 168.269,135.153C167.635,134.836 167.318,134.361 166.684,133.885C165.416,133.093 164.148,132.459 162.722,131.984C158.76,130.716 154.64,130.082 150.52,130.24C152.263,129.29 154.186,129.209 156.066,128.656C158.76,127.863 161.296,126.912 164.148,127.071C163.673,126.912 163.039,127.071 162.564,127.071C160.345,126.912 158.126,127.546 155.749,128.022C154.165,128.339 152.738,128.973 151.154,129.29C150.203,129.607 149.727,130.557 148.618,130.399L148.618,129.923C150.203,128.022 152.104,126.12 154.64,125.962C157.492,125.486 160.187,125.962 163.039,126.279C165.099,126.437 167.001,126.912 169.061,127.388C169.854,127.388 170.012,128.656 170.646,128.814C171.597,129.131 172.548,128.814 173.498,129.448C173.498,129.131 173.34,128.814 173.498,128.497C174.132,127.863 174.925,128.656 175.559,128.339C176.827,127.546 174.45,126.12 173.816,125.011C173.816,124.852 173.974,124.694 173.974,124.694C175.242,125.803 176.193,127.071 177.777,127.863C178.57,128.18 180.472,128.656 180.154,127.705C179.362,125.962 177.777,124.535 176.51,122.951L176.51,122.317C176.193,122.317 176.193,122.158 176.034,122L176.034,121.366C175.4,121.049 175.559,120.415 175.242,119.94C174.766,119.147 175.083,118.038 174.766,117.087C174.45,116.136 174.291,115.344 174.132,114.393C173.657,111.699 173.023,109.322 172.706,106.786C172.389,103.775 174.45,101.398 175.876,98.704C176.985,96.802 178.253,94.901 180.313,93.633C180.789,91.731 182.057,90.147 183.324,88.562C184.59,87.015 186.693,86.073 188.216,85.392C190.43,84.403 192.427,83.785 192.428,83.784L83.667,83.784L83.667,167.648L160.689,167.648C163.706,165.476 166.719,164.444 170.931,162.369C172.919,161.389 177.469,159.299 179.01,157.758Z" style="fill:rgb(38,31,30);"/>
                    <path d="M314.293,83.784L224.079,83.784C224.08,83.784 224.249,83.812 224.935,84.181C225.668,84.574 226.616,85.081 227.211,85.392C228.374,86 229.505,86.762 230.233,87.928C230.55,88.403 231.026,89.354 230.709,89.988C230.392,90.78 230.233,92.048 229.441,92.365C228.49,92.841 227.222,92.841 226.113,92.682C225.479,92.682 224.845,92.523 224.211,92.365C226.588,93.316 228.807,94.425 230.392,96.644C230.55,96.961 231.184,97.119 231.818,97.119C231.977,97.119 231.977,97.436 231.977,97.595C231.659,97.912 231.343,98.07 231.501,98.546L231.977,98.546C232.769,98.229 232.61,96.644 233.72,97.119C234.512,97.595 234.829,98.704 234.354,99.497C233.72,100.13 233.086,100.605 232.452,101.081C232.293,101.398 232.293,101.873 232.452,102.19C232.927,102.824 233.086,103.458 233.244,104.092C233.72,105.201 233.878,106.469 234.354,107.578C234.988,109.956 235.621,112.333 235.463,114.71C235.463,115.978 234.829,117.087 235.304,118.355C235.621,119.622 236.414,120.573 237.048,121.683C237.681,122.634 238.316,123.268 238.791,124.218C239.742,125.803 241.485,127.388 240.693,129.29C240.217,130.399 238.474,130.24 237.365,130.874C236.414,131.667 237.206,132.935 237.681,133.727C238.474,135.153 236.73,136.104 235.621,136.579C235.938,137.055 236.572,136.896 236.73,137.213C236.889,138.006 237.681,138.481 237.206,139.274C236.572,140.225 234.67,140.7 235.621,142.126C236.255,143.235 235.845,144.468 235.463,145.613C234.988,147.039 233.72,147.673 232.61,147.99C231.659,148.307 230.55,148.307 229.599,148.148C229.282,147.99 228.965,147.831 228.649,147.831C225.954,147.514 223.26,146.722 220.566,146.722C219.774,146.88 218.981,147.039 218.348,147.356C217.631,147.882 216.994,148.452 216.429,149.052C216.423,149.059 216.417,149.066 216.41,149.073C216.291,149.199 216.177,149.328 216.065,149.457C215.995,149.537 215.928,149.618 215.86,149.7C215.815,149.754 215.77,149.809 215.725,149.864C215.263,150.443 214.848,151.054 214.478,151.69C214.454,151.73 214.431,151.771 214.408,151.811C214.366,151.884 214.326,151.959 214.285,152.033C213.765,152.996 213.371,153.979 213.086,154.941C212.008,158.57 212.479,161.683 213.236,162.439C213.446,162.649 218.466,164.199 221.963,165.755C223.604,166.485 224.751,167.047 225.703,167.648L314.293,167.648L314.293,83.784Z" style="fill:rgb(38,31,30);"/>
                    <path d="M229.445,114.378C230.079,114.537 231.029,114.537 231.029,114.854C230.712,116.121 228.81,116.438 227.859,117.707L227.384,117.707C226.909,118.023 227.067,118.816 226.592,118.816C226.116,118.657 225.64,118.816 225.166,118.974C225.799,119.608 226.592,120.084 227.542,119.925C227.702,119.925 228.018,120.243 228.018,120.56C228.018,120.56 228.176,120.56 228.335,120.4C228.494,120.4 228.652,120.4 228.652,120.56L228.652,121.193C228.176,121.827 227.384,121.51 226.75,121.669C228.018,121.986 229.286,121.986 230.395,121.669C231.346,121.352 230.395,119.767 231.029,118.974C230.712,118.974 231.029,118.499 230.712,118.499C231.029,118.182 231.346,117.707 231.663,117.548C231.981,117.548 232.455,117.39 232.614,117.072C232.614,116.756 231.981,116.597 232.139,116.28C233.089,115.647 233.881,114.695 233.565,113.744C233.406,113.269 232.139,113.269 231.346,112.952C230.554,112.635 229.603,112.952 228.652,113.111C227.859,113.111 227.067,113.586 226.275,113.744C225.166,114.061 224.215,114.695 223.263,115.329C224.373,114.854 225.483,114.695 226.75,114.378C227.702,114.378 228.509,114.144 229.445,114.378Z" style="fill:rgb(38,31,30);"/>
                </g>
            </g>
        </g>
    </g>
</svg>
