<?xml version="1.0" encoding="UTF-8" standalone="no"?>
<!DOCTYPE svg PUBLIC "-//W3C//DTD SVG 1.1//EN" "http://www.w3.org/Graphics/SVG/1.1/DTD/svg11.dtd">
<svg width="100%" height="100%" viewBox="0 0 3425 600" version="1.1" xmlns="http://www.w3.org/2000/svg" xmlns:xlink="http://www.w3.org/1999/xlink" xml:space="preserve" xmlns:serif="http://www.serif.com/" style="fill-rule:evenodd;clip-rule:evenodd;stroke-linejoin:round;stroke-miterlimit:2;">
    <g transform="matrix(1,0,0,1,-52.746812,-41.416047)">
        <g id="Fondo" transform="matrix(3.348633,0,0,3.348633,51,93)">
            <path d="M655.014,73.535C654.896,69.945 654.847,70.039 654.782,66.498C653.545,-1.189 740.964,-10.611 768.19,31.702C790.737,66.743 770.727,128.661 711.511,124.352C665.919,121.035 658.522,93.1 655.014,73.535ZM692.964,58.544C694.025,49.701 697.454,34.484 716.493,34.749C748.34,35.192 745.213,93.633 719.533,95.79C688.055,98.434 692.786,61.7 692.964,58.544Z" style="fill:rgb(220,225,214);"/>
            <path d="M937.5,8.096C941.503,8.224 944.452,5.365 946.933,13.388C980.08,120.616 981.52,122.012 979.465,122.357C979.382,122.371 944.912,122.375 944.514,122.337C939.741,121.885 940.536,103.785 935.507,103.394C926.442,102.688 906.979,103.299 904.499,103.377C900.139,103.514 900.959,105.673 899.106,112.401C896.612,121.459 896.616,122.351 893.499,122.36C864.544,122.443 862.748,122.827 863.271,120.462C865.076,112.31 894.71,20.201 897.508,11.503C899.371,5.711 901.387,8.101 907.5,8.096L937.5,8.096ZM925.5,79.034C909.306,79.035 908.432,78.84 908.687,77.513C909.484,73.36 917.226,48.519 918.584,39.534C919.538,33.218 922.559,48.85 924.924,57.397C930.201,76.462 931.518,78.795 928.558,78.962C927.54,79.02 926.518,78.977 925.5,79.034Z" style="fill:rgb(220,225,214);"/>
            <path d="M363.5,149.999L331.5,149.999C332.679,142.441 331.807,82.955 332.046,41.488C332.055,40.069 332.234,38.907 334.506,38.966C359.392,39.603 359.323,38.852 361.478,38.969C366.208,39.227 361.186,55.308 365.831,47.845C377.274,29.464 418.218,32.74 423.107,68.558C431.082,126.979 382.672,136.502 365.236,112.749C362.61,109.173 363.925,114.635 363.5,149.999ZM392.061,84.473C388.953,107.709 367.98,102.345 364.322,91.564C359.016,75.927 365.707,53.873 383.606,61.262C386.918,62.63 388.987,66.068 389.31,66.604C392.078,71.202 392.063,83.027 392.061,84.473Z" style="fill:rgb(220,225,214);"/>
            <path d="M189.5,149.999L157.5,149.999C158.303,140.251 157.953,140.318 157.953,130.5C157.953,113.075 159.077,112.868 158.194,111.645C156.796,109.709 156.83,111.82 155.131,114.163C142.308,131.853 100.431,128.948 97.974,87.465C94.363,26.499 145.965,30.406 156.228,47.841C159.299,53.058 157.432,40.479 158.485,39.484C159.376,38.641 187.867,38.942 188.621,39.315C190.393,40.191 188.65,109.347 189.5,149.999ZM158.917,80.503C158.413,90.028 157.155,99.547 144.498,100.434C124.292,101.85 125.334,61.472 141.453,60.14C157.664,58.799 158.596,72.02 158.917,80.503Z" style="fill:rgb(220,225,214);"/>
            <path d="M624.5,42.988C623.58,42.993 614.75,43.892 613.75,41.414C613.077,39.745 612.271,31.306 599.534,31.989C591.187,32.436 580.878,46.388 604.477,49.689C619.556,51.799 656.356,52.318 650.125,93.442C644.318,131.767 571.864,134.542 557.432,103.536C549.486,86.466 555.086,85.869 556.502,85.853C586.154,85.533 587.259,84.952 587.904,87.383C592.899,106.207 613.695,98.658 615.733,92.59C623.576,69.244 560.475,92.923 556.16,48.541C551.277,-1.67 626.666,-3.931 642.335,24.595C646.574,32.312 647.275,39.793 647.267,41.48C647.258,43.503 642.86,42.988 624.5,42.988Z" style="fill:rgb(220,225,214);"/>
            <path d="M839.53,84.992C823.158,85.619 820.948,83.648 820.838,87.515C820.448,101.141 822.063,121.732 819.446,122.279C819.269,122.316 786.683,122.616 785.718,122.109C784.833,121.644 784.861,121.296 784.874,14.5C784.874,13.976 784.875,8.209 786.426,8.132C787.398,8.084 831.749,8.073 834.509,8.132C868.741,8.856 874.546,30.717 875.547,34.488C878.616,46.048 880.916,76.614 847.544,83.747C846.909,83.883 846.901,83.735 839.53,84.992ZM825.5,61.034C822.096,60.666 821.024,61.691 820.861,59.45C820.841,59.182 820.808,36.842 820.863,36.552C821.583,32.804 847.945,32.815 842.168,52.397C839.359,61.919 828.893,60.869 825.5,61.034Z" style="fill:rgb(220,225,214);"/>
            <path d="M471.453,37.038C476.294,36.766 514.996,34.591 522.654,69.469C533.89,120.636 470.792,141.166 440.902,110.133C427.902,96.636 418.321,45.071 471.453,37.038ZM462.987,86.449C462.879,82.704 459.865,64.222 473.457,60.337C496.029,53.884 498.839,100.263 478.485,101.255C463.916,101.965 463.278,87.955 462.987,86.449Z" style="fill:rgb(220,225,214);"/>
            <path d="M89.961,75.476C89.986,76.903 91.181,87.517 88.522,87.633C77.366,88.12 33.813,86.626 32.797,88.594C30.435,93.169 42.115,108.987 56.312,101.179C61.358,98.403 58.72,94.171 64.499,94.128C87.799,93.955 88.023,93.146 89.515,94.48C90.367,95.242 89.438,121.414 54.534,123.992C-11.547,128.871 -7.601,63.672 16.856,45.964C40.697,28.702 87.163,32.445 89.961,75.476ZM53.5,71.034C36.886,70.805 32.985,71.526 32.944,69.513C32.702,57.678 53.906,50.651 58.703,64.429C61.725,73.105 56.272,70.79 53.5,71.034Z" style="fill:rgb(220,225,214);"/>
            <path d="M252.12,111.609C251.088,111.059 250.886,110.958 250.234,112.01C239.643,129.099 217.284,124.942 210.756,121.043C195.945,112.197 197.153,102.922 197.346,47.5C197.366,41.614 195.664,38.939 201.5,39.034C226.505,39.444 228.92,37.492 228.945,41.488C229.24,90.191 226.441,99.691 237.439,100.889C254.955,102.797 251.597,87.982 251.772,41.504C251.785,37.987 256.862,39.105 274.5,39.034C280.246,39.011 283.13,36.696 283.118,42.496C283.089,57.205 283.125,120.312 283.098,120.468C282.727,122.547 281.793,122.439 254.502,122.361C251.893,122.353 251.03,121.084 252.12,111.609Z" style="fill:rgb(220,225,214);"/>
            <path d="M318.5,39.034C322.021,39.242 323.299,37.895 323.401,40.517C323.454,41.89 323.395,120.429 323.389,120.488C323.11,123.027 318.679,122.361 300.5,122.361C299.815,122.361 292.196,123.245 292.104,120.559C292.09,120.148 292.064,41.162 292.147,40.418C292.346,38.617 294.936,39.034 318.5,39.034Z" style="fill:rgb(220,225,214);"/>
            <path d="M1005.5,123.984C982.516,122.914 984.348,96.65 998.418,91.282C1024.256,81.424 1035.033,122.739 1005.5,123.984Z" style="fill:rgb(220,225,214);"/>
            <g transform="matrix(1,0,0,1,-697.903784,-91.430908)">
                <path d="M1005.5,123.984C982.516,122.914 984.348,96.65 998.418,91.282C1024.256,81.424 1035.033,122.739 1005.5,123.984Z" style="fill:rgb(220,225,214);"/>
            </g>
        </g>
    </g>
</svg>
