<?xml version="1.0" encoding="UTF-8" standalone="no"?>
<!DOCTYPE svg PUBLIC "-//W3C//DTD SVG 1.1//EN" "http://www.w3.org/Graphics/SVG/1.1/DTD/svg11.dtd">
<svg width="100%" height="100%" viewBox="0 0 902 208" version="1.1" xmlns="http://www.w3.org/2000/svg" xmlns:xlink="http://www.w3.org/1999/xlink" xml:space="preserve" xmlns:serif="http://www.serif.com/" style="fill-rule:evenodd;clip-rule:evenodd;stroke-linejoin:round;stroke-miterlimit:2;">
    <g id="Artboard1" transform="matrix(2.08615,0,0,1,0,0)">
        <rect x="0" y="0" width="432" height="208" style="fill:none;"/>
        <clipPath id="_clip1">
            <rect x="0" y="0" width="432" height="208"/>
        </clipPath>
        <g clip-path="url(#_clip1)">
            <g transform="matrix(0.845961,0,0,1.7648,424.677,16.2078)">
                <path d="M0,99.478L-1.552,94.823C-2.501,94.789 -3.416,94.615 -4.276,94.321C-2.393,95.58 -0.897,97.371 0,99.478M8.322,66.322L2.874,71.77C5.648,74.547 7.51,78.092 8.189,82.039C8.251,82.405 8.281,82.77 8.322,83.135L8.322,66.322ZM8.322,87.695C7.936,90.781 6.794,93.745 4.949,96.356C4.325,97.239 3.611,98.035 2.859,98.789L8.322,104.254L8.322,87.695ZM8.255,104.325L2.789,98.858C2.067,99.575 1.299,100.237 0.479,100.827C0.773,101.853 0.933,102.936 0.933,104.057C0.933,104.147 0.929,104.236 0.926,104.325L8.255,104.325ZM0.739,104.057C0.739,102.982 0.584,101.945 0.309,100.958C-2.26,102.763 -5.245,103.939 -8.401,104.325L0.733,104.325C0.735,104.236 0.739,104.147 0.739,104.057M-10.682,104.131C-6.737,104.121 -2.954,102.859 0.186,100.632L-10.682,92.585L-10.682,104.131ZM-10.78,92.546L-10.682,92.546L-10.682,92.553C-5.565,92.593 -1.244,95.966 0.212,100.612C0.257,100.58 0.299,100.543 0.344,100.511L0,99.478C0.14,99.807 0.265,100.143 0.375,100.487C1.147,99.925 1.871,99.3 2.554,98.622L-1.236,94.831C-1.342,94.83 -1.447,94.827 -1.552,94.823L-1.617,94.626C-1.557,94.629 -1.497,94.629 -1.437,94.631L-1.706,94.362L-1.617,94.626C-6.578,94.409 -10.547,90.307 -10.547,85.294C-10.547,82.348 -9.174,79.717 -7.036,78.003L-6.595,79.401L-4.896,79.401L-1.469,75.974C-3.569,76.034 -5.502,76.773 -7.036,78.003L-7.099,77.804C-5.488,76.533 -3.459,75.772 -1.255,75.76L2.567,71.938C1.825,71.204 1.032,70.513 0.163,69.898C-3.034,67.639 -6.785,66.445 -10.684,66.442L-7.099,77.804C-9.315,79.552 -10.742,82.259 -10.742,85.294C-10.742,88.507 -9.145,91.352 -6.703,93.08C-7.97,92.611 -9.34,92.352 -10.771,92.352C-15.598,92.352 -19.739,95.276 -21.528,99.448L-19.89,94.534L-23.993,98.637C-23.344,99.28 -22.648,99.882 -21.901,100.433C-21.791,100.098 -21.666,99.769 -21.528,99.448L-21.866,100.461C-21.823,100.493 -21.783,100.528 -21.739,100.56C-20.26,95.915 -15.914,92.55 -10.78,92.546ZM-10.78,92.585L-21.723,100.573C-21.677,100.606 -21.636,100.644 -21.59,100.677C-18.404,102.928 -14.667,104.119 -10.78,104.13L-10.78,92.585ZM-12.588,104.325C-15.887,104.005 -19.04,102.888 -21.782,100.95C-21.802,100.936 -21.82,100.919 -21.84,100.905C-22.125,101.907 -22.282,102.963 -22.282,104.057C-22.282,104.147 -22.278,104.236 -22.276,104.325L-12.588,104.325ZM-22.469,104.325C-22.471,104.236 -22.475,104.147 -22.475,104.057C-22.475,102.917 -22.307,101.818 -22.004,100.777C-22.801,100.196 -23.54,99.556 -24.229,98.874L-29.681,104.325L-22.469,104.325ZM-29.734,104.239L-24.3,98.806C-27.075,96.029 -28.937,92.483 -29.615,88.535C-29.671,88.212 -29.695,87.889 -29.734,87.565L-29.734,104.239ZM-29.734,82.79C-29.337,79.736 -28.204,76.805 -26.376,74.219C-25.75,73.333 -25.034,72.535 -24.281,71.78L-29.734,66.325L-29.734,82.79ZM-29.651,66.269L-24.21,71.711C-21.219,68.741 -17.332,66.807 -13.132,66.269L-29.651,66.269ZM-16.522,79.401L-14.921,79.401L-10.776,66.446C-15.767,66.467 -20.491,68.489 -23.975,71.947L-16.522,79.401ZM-16.661,79.401L-24.045,72.015C-24.785,72.758 -25.488,73.542 -26.103,74.411C-27.2,75.963 -28.025,77.646 -28.601,79.401L-16.661,79.401ZM-29.543,85.356C-29.537,86.393 -29.465,87.436 -29.286,88.479C-28.62,92.358 -26.79,95.841 -24.064,98.57L-19.82,94.326L-17.541,87.494L-20.478,85.346L-29.543,85.356ZM-29.545,85.258L-20.612,85.248L-28.602,79.403C-29.219,81.288 -29.546,83.258 -29.545,85.258M7.168,79.401C6.254,76.604 4.714,74.084 2.638,72.006L-1.116,75.761C1.884,75.788 4.557,77.206 6.288,79.401L7.168,79.401ZM7.919,82.591C7.896,82.426 7.887,82.261 7.859,82.096C7.702,81.185 7.462,80.304 7.181,79.441L6.621,79.849C7.197,80.675 7.628,81.603 7.919,82.591M8.117,85.258C8.116,85.143 8.111,85.028 8.109,84.913C8.034,83.081 7.449,81.377 6.463,79.963L-0.806,85.248L8.117,85.258ZM6.04,79.401C4.325,77.298 1.716,75.951 -1.204,75.951C-1.242,75.951 -1.278,75.961 -1.316,75.961L-4.757,79.401L6.04,79.401ZM-1.107,94.822L2.624,98.554C3.361,97.813 4.063,97.031 4.676,96.164C6.48,93.611 7.596,90.717 7.982,87.702C6.917,91.759 3.272,94.777 -1.107,94.822M8.122,85.464C8.122,85.428 8.119,85.392 8.119,85.356L-0.941,85.346L-3.975,87.552L-1.775,94.154L-1.294,94.634C-1.264,94.635 -1.234,94.637 -1.204,94.637C3.89,94.637 8.029,90.535 8.122,85.464M-8.584,66.269C-5.379,66.624 -2.317,67.736 0.355,69.625C1.241,70.251 2.048,70.954 2.803,71.702L8.236,66.269L-8.584,66.269ZM8.656,104.659L-30.068,104.659L-30.068,65.935L8.656,65.935L8.656,104.659ZM-58.445,46.678L-54.814,46.678C-54.828,45.644 -55.603,45.046 -56.527,45.046C-57.479,45.046 -58.227,45.685 -58.445,46.678M-56.337,50.812C-58.404,50.812 -59.927,49.302 -59.927,47.331C-59.927,45.372 -58.417,43.836 -56.473,43.836C-54.692,43.836 -53.386,45.141 -53.386,46.895C-53.386,47.263 -53.454,47.616 -53.495,47.793L-58.472,47.793C-58.281,48.894 -57.452,49.547 -56.296,49.547C-55.521,49.547 -54.909,49.248 -54.352,48.758L-53.672,49.737C-54.379,50.404 -55.276,50.812 -56.337,50.812M-63.134,44.856L-63.134,43.985L-64.467,43.985L-64.467,50.662L-63.039,50.662L-63.039,47.099C-63.039,45.862 -62.141,45.25 -61.081,45.25L-60.645,45.25L-60.645,43.985C-60.795,43.945 -60.958,43.917 -61.189,43.917C-61.951,43.917 -62.672,44.244 -63.134,44.856M-67.238,42.435C-66.708,42.435 -66.259,42.027 -66.259,41.497C-66.259,40.966 -66.708,40.545 -67.238,40.545C-67.782,40.545 -68.218,40.966 -68.218,41.497C-68.218,42.027 -67.782,42.435 -67.238,42.435M-67.959,50.662L-66.531,50.662L-66.531,43.985L-67.959,43.985L-67.959,50.662ZM-71.381,48.011L-73.095,48.011C-73.856,48.011 -74.278,48.282 -74.278,48.826C-74.278,49.411 -73.761,49.71 -73.108,49.71C-72.17,49.71 -71.381,49.044 -71.381,48.133L-71.381,48.011ZM-71.381,46.977L-71.381,46.542C-71.381,45.617 -71.898,45.114 -72.809,45.114C-73.584,45.114 -74.128,45.481 -74.659,46.107L-75.488,45.264C-74.795,44.285 -73.802,43.836 -72.673,43.836C-71.069,43.836 -69.94,44.774 -69.94,46.623L-69.94,50.662L-71.273,50.662L-71.273,49.914C-71.749,50.485 -72.483,50.812 -73.408,50.812C-74.808,50.812 -75.733,50.037 -75.733,48.881C-75.733,47.711 -74.767,46.977 -73.272,46.977L-71.381,46.977ZM-81.628,46.678C-81.628,45.767 -80.989,45.128 -80.105,45.128C-79.221,45.128 -78.65,45.767 -78.65,46.678L-78.65,50.662L-77.222,50.662L-77.222,46.487C-77.222,44.924 -78.147,43.836 -79.724,43.836C-80.567,43.836 -81.261,44.149 -81.723,44.652L-81.723,43.985L-83.056,43.985L-83.056,50.662L-81.628,50.662L-81.628,46.678ZM-89.742,46.678L-86.111,46.678C-86.124,45.644 -86.9,45.046 -87.824,45.046C-88.776,45.046 -89.524,45.685 -89.742,46.678M-87.634,50.812C-89.701,50.812 -91.224,49.302 -91.224,47.331C-91.224,45.372 -89.714,43.836 -87.77,43.836C-85.988,43.836 -84.683,45.141 -84.683,46.895C-84.683,47.263 -84.751,47.616 -84.792,47.793L-89.769,47.793C-89.578,48.894 -88.749,49.547 -87.593,49.547C-86.818,49.547 -86.206,49.248 -85.648,48.758L-84.969,49.737C-85.676,50.404 -86.573,50.812 -87.634,50.812M-95.75,48.486C-95.75,50.105 -94.771,50.812 -93.289,50.812C-92.84,50.812 -92.473,50.744 -92.105,50.662L-92.105,49.452C-92.459,49.493 -92.745,49.52 -92.989,49.52C-93.819,49.52 -94.308,49.248 -94.308,48.364L-94.308,45.223L-92.323,45.223L-92.323,43.985L-94.308,43.985L-94.308,42.231L-95.75,42.231L-95.75,43.985L-96.838,43.985L-96.838,45.223L-95.75,45.223L-95.75,48.486ZM-99.743,47.099C-99.743,45.862 -98.846,45.25 -97.785,45.25L-97.35,45.25L-97.35,43.985C-97.5,43.945 -97.663,43.917 -97.894,43.917C-98.656,43.917 -99.376,44.244 -99.839,44.856L-99.839,43.985L-101.171,43.985L-101.171,50.662L-99.743,50.662L-99.743,47.099ZM-104.594,48.011L-106.307,48.011C-107.068,48.011 -107.49,48.282 -107.49,48.826C-107.49,49.411 -106.973,49.71 -106.32,49.71C-105.382,49.71 -104.594,49.044 -104.594,48.133L-104.594,48.011ZM-104.594,46.977L-104.594,46.542C-104.594,45.617 -105.11,45.114 -106.021,45.114C-106.796,45.114 -107.34,45.481 -107.871,46.107L-108.7,45.264C-108.007,44.285 -107.014,43.836 -105.885,43.836C-104.281,43.836 -103.152,44.774 -103.152,46.623L-103.152,50.662L-104.485,50.662L-104.485,49.914C-104.961,50.485 -105.695,50.812 -106.62,50.812C-108.02,50.812 -108.945,50.037 -108.945,48.881C-108.945,47.711 -107.979,46.977 -106.484,46.977L-104.594,46.977ZM-115.617,47.317C-115.617,48.826 -114.611,49.506 -113.605,49.506C-112.463,49.506 -111.565,48.622 -111.565,47.331C-111.565,46.039 -112.449,45.141 -113.605,45.141C-114.597,45.141 -115.617,45.794 -115.617,47.317M-115.604,53.11L-117.032,53.11L-117.032,43.985L-115.699,43.985L-115.699,44.937C-115.209,44.244 -114.353,43.836 -113.374,43.836C-111.47,43.836 -110.096,45.332 -110.096,47.317C-110.096,49.316 -111.47,50.812 -113.374,50.812C-114.271,50.812 -115.087,50.472 -115.604,49.86L-115.604,53.11ZM-53.447,66.058L-57.905,66.058L-57.905,104.686L-35.557,104.686L-35.557,100.589L-53.447,100.589L-53.447,66.058ZM-72.341,83.792L-76.513,81.743C-79.943,80.046 -82.572,78.758 -82.572,75.247C-82.572,71.443 -79.371,69.628 -75.885,69.628C-72.455,69.628 -69.255,71.384 -67.254,74.486L-63.996,71.969C-66.339,68.165 -70.683,65.414 -75.828,65.414C-81.943,65.414 -87.201,69.336 -87.201,75.481C-87.201,80.924 -83.086,83.675 -78.685,85.84L-74.456,87.888C-70.74,89.703 -68.169,91.108 -68.169,94.678C-68.169,98.599 -71.312,101.115 -75.77,101.115C-80.629,101.115 -84.001,98.072 -86.287,94.502L-89.602,97.019C-86.687,102.111 -81.715,105.33 -75.713,105.33C-68.74,105.33 -63.539,101.057 -63.539,94.561C-63.539,89.352 -66.854,86.484 -72.341,83.792M-96.346,77.295C-96.346,73.199 -98.918,70.155 -103.891,70.155L-112.579,70.155L-112.579,84.435L-103.891,84.435C-98.918,84.435 -96.346,81.451 -96.346,77.295M-91.716,77.237C-91.716,83.792 -96.346,88.532 -103.776,88.532L-112.579,88.532L-112.579,104.686L-117.037,104.686L-117.037,66.058L-103.776,66.058C-96.346,66.058 -91.716,70.74 -91.716,77.237M-161.74,104.626L-159.419,104.626L-159.419,65.899L-161.74,65.899L-161.74,104.626ZM-213.225,82.422C-219.875,78.417 -220.666,77.633 -220.67,74.922C-220.679,71.862 -218.325,69.672 -215.004,69.664C-210.984,69.655 -208.878,72.008 -207.904,77.601L-205.719,77.596L-205.739,68.768C-209.064,66.854 -211.514,66.159 -214.923,66.167C-221.74,66.184 -226.538,70.39 -226.522,76.422C-226.513,80.967 -224.233,83.933 -216.967,88.722C-211.716,92.206 -210.401,93.862 -210.394,96.748C-210.388,99.893 -212.566,101.822 -216.235,101.831C-220.956,101.843 -222.971,99.923 -224.557,93.897L-227.268,93.903L-226.366,105.176L-224.53,105.172L-224.095,104.732C-223.66,104.209 -223.311,104.034 -222.873,104.032C-222.61,104.032 -222.173,104.204 -221.649,104.379C-219.637,104.986 -217.801,105.242 -215.791,105.238C-208.624,105.22 -203.915,101.101 -203.931,94.721C-203.942,90.003 -206.573,86.512 -213.225,82.422M-239.504,94.284L-239.568,66.926L-240.882,65.966L-252.582,70.976L-252.577,72.637L-249.168,73.417C-246.632,73.936 -246.281,74.371 -246.274,77.256L-246.233,94.386C-246.218,100.505 -247.264,101.729 -252.332,101.917L-252.328,104.626L-232.662,104.578L-232.669,101.87C-238.348,101.886 -239.489,100.664 -239.504,94.284M-248.003,48.416C-247.997,50.952 -245.984,52.958 -243.448,52.953C-241,52.946 -238.997,50.931 -239.004,48.395C-239.008,45.949 -241.023,43.943 -243.471,43.95C-246.004,43.956 -248.01,45.971 -248.003,48.416M-256.967,102.015C-261.86,102.026 -263.526,100.721 -263.535,96.875C-263.535,96.088 -263.537,95.302 -263.451,94.427C-263.283,91.367 -263.202,89.534 -263.202,89.008C-263.118,87.523 -263.122,85.95 -263.127,84.464C-263.136,80.618 -263.315,78.521 -263.76,75.899C-264.646,70.657 -268.237,67.256 -272.869,67.267C-276.278,67.275 -279.247,68.42 -287.015,72.721L-288.849,73.775C-290.693,69.32 -293.408,67.316 -297.69,67.327C-301.186,67.335 -303.893,68.566 -312.534,73.657L-312.55,67.102L-313.95,66.142L-325.561,71.152L-325.558,72.814L-322.147,73.592C-319.612,74.111 -319.261,74.546 -319.254,77.431L-319.213,94.561C-319.198,100.68 -320.244,101.904 -325.226,102.094L-325.219,104.803L-306.078,104.755L-306.085,102.047C-311.417,101.972 -312.469,100.664 -312.484,94.458L-312.527,76.454C-307.989,73.472 -303.972,71.886 -301.089,71.879C-296.369,71.868 -294.789,74.838 -294.769,83.315L-294.741,94.502C-294.727,100.621 -295.773,101.845 -300.929,102.035L-300.922,104.744L-282.044,104.698L-282.051,101.99C-287.033,101.65 -287.909,100.517 -287.924,94.4L-287.967,76.395C-283.779,73.499 -280.286,72.006 -277.14,71.998C-271.721,71.986 -269.966,75.391 -269.941,85.878C-269.938,87.102 -270.023,88.237 -270.019,89.461L-270.182,94.443C-270.429,100.474 -271.825,101.965 -277.331,101.979L-277.324,104.687L-256.525,104.637L-256.53,101.929L-256.967,102.015ZM-355.436,78.129L-339.093,78.09C-340.156,72.584 -342.608,69.971 -346.716,69.98C-350.648,69.99 -353.528,72.617 -355.436,78.129M-356.041,80.84C-356.474,82.678 -356.56,83.378 -356.554,85.388C-356.534,94.128 -351.098,101.106 -344.282,101.09C-340.523,101.081 -337.817,99.676 -332.759,94.941L-330.833,96.512C-336.498,102.992 -341.735,105.89 -347.242,105.904C-356.156,105.924 -363.078,98.425 -363.102,88.287C-363.132,75.965 -355.376,66.504 -345.238,66.48C-338.596,66.464 -334.306,69.599 -331.667,76.411C-331.052,77.984 -330.789,78.245 -329.477,78.943L-329.472,80.776L-356.041,80.84ZM-368.311,67.671L-379.147,67.697L-379.165,60.181C-379.179,54.499 -378.666,50.392 -377.709,47.942C-376.319,44.792 -373.788,43.039 -370.38,43.03C-368.108,43.026 -366.533,43.633 -362.594,45.983L-361.456,46.678L-357.624,40.901C-362.001,38.464 -363.488,37.944 -366.284,37.951C-369.955,37.959 -373.883,39.717 -377.721,42.96C-383.566,47.955 -386,53.205 -385.98,61.158L-385.965,67.712L-392.862,70.615L-392.857,73.064L-385.952,73.045L-385.9,94.721C-385.885,100.927 -386.843,102.153 -392.175,102.253L-392.168,104.961L-369.182,104.907L-369.189,102.198L-370.062,102.201L-371.724,102.205C-378.104,102.221 -379.067,101.174 -379.083,94.706L-379.135,73.029L-368.298,73.005L-368.311,67.671ZM-433.104,96.759L-433.123,88.718L-434.452,89.244L-437.376,90.474L-440.479,91.707C-443.758,92.938 -445.35,94.601 -445.345,96.963C-445.339,99.322 -443.295,101.153 -440.722,101.147C-438.062,101.14 -435.048,99.472 -433.104,96.759M-419.439,97.686L-417.749,99.692L-418.901,100.569C-424.656,105.04 -426.162,105.917 -428.025,105.922C-430.597,105.929 -432.465,104.009 -433.095,100.428C-436.457,103.932 -439.912,105.6 -443.55,105.609C-448.695,105.621 -452.428,102.484 -452.439,97.94C-452.451,93.044 -450.325,91.381 -440.664,88.561C-436.586,87.412 -435.522,86.975 -433.13,85.658L-433.145,79.453C-433.158,74.031 -435.472,70.891 -439.375,70.901C-440.973,70.905 -442.478,71.695 -443.628,73.011C-444.248,73.709 -444.512,74.412 -444.511,75.11C-444.51,75.634 -444.419,76.071 -444.062,77.03L-451.063,80.021C-451.686,79.058 -451.864,78.537 -451.866,77.925C-451.871,76.089 -450.279,74.074 -446.56,71.268C-442.84,68.462 -440.094,67.231 -437.521,67.225C-434.504,67.217 -430.953,68.959 -428.729,71.576C-426.771,73.932 -426.323,75.853 -426.31,81.184L-426.274,96.392C-426.267,99.188 -425.643,100.236 -424.135,100.231C-422.804,100.229 -421.388,99.438 -419.439,97.686M-459.935,91.326C-460.018,91.41 -460.515,92.16 -461.509,93.493C-465.898,99.819 -466.978,100.487 -472.048,100.499L-482.437,100.523C-486.259,100.532 -486.511,100.283 -486.52,96.294L-486.605,61.138C-486.621,54.239 -485.543,52.989 -478.895,52.64L-478.901,49.816L-502.006,49.871L-502,52.695C-495.764,53.179 -494.682,54.423 -494.667,61.157L-494.587,93.906C-494.571,100.721 -495.648,101.97 -501.881,102.4L-501.874,105.226L-463.559,105.133L-456.193,91.9L-459.106,90.245C-459.521,90.746 -459.769,91.077 -459.935,91.326M-147.127,-0.453L-148.036,-0.26C-148.165,-0.232 -148.197,-0.214 -148.197,-0.069L-148.199,3.591C-148.206,3.988 -148.174,4.558 -148.122,4.864L-148.143,4.868C-148.274,4.569 -148.437,4.175 -148.693,3.764L-150.609,0.432C-150.681,0.314 -150.695,0.305 -150.835,0.335L-151.613,0.501C-151.744,0.528 -151.771,0.553 -151.773,0.691L-151.773,7.976C-151.776,8.023 -151.769,8.112 -151.762,8.143C-151.749,8.209 -151.714,8.259 -151.574,8.229L-150.665,8.036C-150.536,8.008 -150.507,7.99 -150.504,7.843L-150.502,3.911C-150.509,3.517 -150.514,3.076 -150.541,2.779L-150.52,2.774C-150.371,3.105 -150.273,3.343 -150.078,3.676L-148.004,7.323C-147.946,7.445 -147.909,7.45 -147.78,7.422L-147.078,7.273C-146.948,7.246 -146.939,7.232 -146.937,7.085L-146.928,-0.204C-146.926,-0.249 -146.932,-0.338 -146.942,-0.369C-146.955,-0.435 -146.987,-0.483 -147.127,-0.453M-155.617,3.54C-155.783,2.763 -156.023,2.431 -156.542,2.541C-157.829,2.814 -157.965,5.565 -157.592,7.326C-157.428,8.094 -157.188,8.428 -156.66,8.314C-155.373,8.041 -155.243,5.303 -155.617,3.54M-154.167,3.199C-153.63,5.717 -154.094,8.957 -156.569,9.483C-157.845,9.753 -158.734,9.13 -159.044,7.671C-159.581,5.141 -159.105,1.899 -156.621,1.371C-155.368,1.104 -154.475,1.742 -154.167,3.199M-160.889,7.744C-161.021,7.117 -161.36,6.748 -161.802,6.527C-162.806,6.006 -163.851,6.025 -164.023,5.216C-164.164,4.557 -163.731,4.102 -163.037,3.955C-162.315,3.801 -161.623,4.129 -161.503,4.104C-161.428,4.089 -161.433,4.066 -161.408,3.98L-161.163,3.104C-161.145,3.034 -161.113,2.97 -161.12,2.938C-161.163,2.732 -162.355,2.591 -163.113,2.751C-164.767,3.103 -165.714,4.172 -165.383,5.729C-165.145,6.854 -164.289,7.112 -163.545,7.362C-162.949,7.563 -162.412,7.753 -162.285,8.347C-162.118,9.136 -162.639,9.551 -163.298,9.691C-164.098,9.861 -164.876,9.554 -164.994,9.58C-165.071,9.596 -165.066,9.616 -165.091,9.702L-165.336,10.576C-165.354,10.649 -165.386,10.712 -165.379,10.746C-165.338,10.939 -164.055,11.074 -163.246,10.901C-161.408,10.511 -160.581,9.192 -160.889,7.744M-172.731,5.113C-172.745,5.047 -172.779,5 -172.919,5.029L-173.935,5.244C-174.066,5.273 -174.095,5.291 -174.098,5.436L-174.08,10.414C-174.084,11.194 -174.213,12.011 -175.154,12.21C-175.716,12.329 -176.16,12.202 -176.287,11.606C-176.337,11.371 -176.357,11.123 -176.339,10.882L-176.305,6.04C-176.305,5.996 -176.314,5.906 -176.321,5.874C-176.335,5.809 -176.366,5.761 -176.507,5.792L-177.556,6.015C-177.686,6.042 -177.715,6.06 -177.717,6.205L-177.704,11.161C-177.704,11.478 -177.683,11.789 -177.615,12.101C-177.359,13.312 -176.396,13.697 -175.057,13.413C-172.788,12.93 -172.711,11.376 -172.711,10.099L-172.72,5.279C-172.717,5.233 -172.724,5.145 -172.731,5.113M-181.473,9.353C-181.708,8.252 -182.284,8.204 -183.073,8.372L-183.506,8.464L-183.494,13.827L-182.76,13.671C-181.094,13.317 -181.182,10.725 -181.473,9.353M-180.038,8.934C-179.852,9.809 -179.222,14.105 -182.604,14.825L-184.679,15.265C-184.82,15.295 -184.852,15.246 -184.868,15.18C-184.875,15.149 -184.881,15.059 -184.879,15.011L-184.881,7.728C-184.879,7.583 -184.847,7.565 -184.718,7.537L-182.957,7.163C-181.618,6.878 -180.414,7.164 -180.038,8.934M-192.179,9.122L-196.599,10.063C-196.741,10.092 -196.771,10.11 -196.762,10.253L-196.776,11.102C-196.782,11.163 -196.782,11.218 -196.771,11.274C-196.75,11.372 -196.682,11.375 -196.562,11.35L-195.18,11.057L-195.193,17.204C-195.196,17.252 -195.189,17.34 -195.182,17.372C-195.166,17.438 -195.135,17.488 -194.994,17.458L-193.945,17.235C-193.816,17.208 -193.786,17.19 -193.784,17.042L-193.775,10.759L-192.433,10.473C-192.315,10.448 -192.286,10.432 -192.238,10.287L-192.002,9.376C-191.991,9.317 -191.964,9.233 -191.97,9.202C-191.989,9.113 -192.007,9.086 -192.179,9.122M-198.582,11.669C-198.462,11.643 -198.432,11.627 -198.385,11.479L-198.169,10.687C-198.158,10.628 -198.131,10.544 -198.138,10.513C-198.156,10.424 -198.174,10.397 -198.348,10.435L-201.957,11.201C-202.086,11.229 -202.117,11.247 -202.12,11.392L-202.117,18.676C-202.12,18.724 -202.113,18.812 -202.106,18.844C-202.09,18.91 -202.058,18.96 -201.918,18.929L-198.33,18.168C-198.201,18.139 -198.169,18.121 -198.167,17.974L-198.167,17.24C-198.167,17.182 -198.167,17.082 -198.176,17.037C-198.192,16.962 -198.258,16.965 -198.375,16.99L-200.701,17.484L-200.708,15.214L-198.849,14.819C-198.709,14.788 -198.69,14.774 -198.688,14.627L-198.688,13.882C-198.688,13.825 -198.686,13.78 -198.697,13.725C-198.711,13.662 -198.766,13.614 -198.874,13.637L-200.712,14.028L-200.71,12.121L-198.582,11.669ZM-209.952,14.086C-209.835,14.061 -209.803,14.044 -209.757,13.897L-209.54,13.104C-209.529,13.045 -209.504,12.961 -209.511,12.93C-209.529,12.842 -209.547,12.814 -209.719,12.851L-213.329,13.619C-213.458,13.646 -213.488,13.664 -213.493,13.809L-213.49,21.093C-213.49,21.141 -213.484,21.229 -213.477,21.261C-213.463,21.327 -213.429,21.377 -213.289,21.347L-209.701,20.583C-209.572,20.556 -209.542,20.538 -209.54,20.391L-209.538,19.657C-209.538,19.6 -209.535,19.499 -209.544,19.454C-209.56,19.379 -209.628,19.382 -209.748,19.407L-212.072,19.901L-212.081,17.63L-210.222,17.236C-210.079,17.206 -210.061,17.191 -210.057,17.044L-210.059,16.299C-210.059,16.242 -210.057,16.197 -210.068,16.142C-210.082,16.079 -210.138,16.031 -210.247,16.055L-212.083,16.445L-212.083,14.538L-209.952,14.086ZM-218.048,22.55C-217.108,22.35 -215.942,21.662 -215.942,21.243L-215.942,18.002C-215.942,17.945 -215.94,17.9 -215.949,17.857C-215.963,17.794 -216.008,17.744 -216.115,17.766L-218.062,18.18C-218.189,18.207 -218.218,18.237 -218.223,18.374L-218.225,19.165C-218.225,19.221 -218.227,19.267 -218.218,19.31C-218.205,19.373 -218.157,19.423 -218.05,19.4L-217.273,19.235L-217.266,20.96C-217.373,21.04 -217.604,21.233 -218.08,21.334C-218.782,21.483 -219.154,21.169 -219.349,20.249C-219.705,18.577 -219.58,15.974 -217.894,15.614C-217.073,15.44 -216.609,15.817 -216.477,15.79C-216.437,15.781 -216.407,15.763 -216.35,15.649L-216.017,14.831C-216.004,14.784 -215.99,14.745 -215.999,14.704C-216.049,14.467 -217.148,14.236 -218.034,14.425C-220.759,15.004 -221.33,18.107 -220.818,20.519C-220.448,22.257 -219.442,22.846 -218.048,22.55M-225.672,20.907L-224.224,20.598L-224.721,18.739C-224.82,18.376 -224.911,18.056 -224.999,17.635L-225.022,17.64C-225.033,17.957 -225.156,18.39 -225.248,18.862L-225.672,20.907ZM-226.452,24.144L-227.565,24.381C-227.674,24.405 -227.721,24.334 -227.732,24.291C-227.742,24.248 -227.719,24.198 -227.708,24.138L-225.65,16.336C-225.627,16.232 -225.595,16.225 -225.475,16.2L-224.439,15.98C-224.319,15.954 -224.265,15.943 -224.204,16.122L-222.098,22.946C-222.091,22.98 -222.071,23.021 -222.064,23.053C-222.037,23.182 -222.096,23.218 -222.216,23.244L-223.351,23.486C-223.426,23.501 -223.501,23.461 -223.517,23.395L-223.984,21.564L-225.822,21.955L-226.268,23.947C-226.311,24.058 -226.311,24.115 -226.452,24.144M-230.108,17.309C-230.121,17.243 -230.166,17.197 -230.273,17.22L-231.257,17.429C-231.343,17.448 -231.406,17.473 -231.44,17.579L-232.385,20.682C-232.553,21.218 -232.646,21.789 -232.671,22.145L-232.694,22.15C-232.737,21.943 -232.759,21.735 -232.805,21.517C-232.857,21.27 -232.92,21.023 -232.997,20.781L-233.802,18.151C-233.856,18.012 -233.895,17.99 -234.004,18.013L-235.062,18.238C-235.191,18.265 -235.218,18.29 -235.223,18.428L-235.574,25.811C-235.574,25.868 -235.577,25.913 -235.568,25.956C-235.554,26.022 -235.509,26.069 -235.4,26.047L-234.514,25.858C-234.384,25.83 -234.357,25.801 -234.353,25.665L-234.264,21.66C-234.269,21.275 -234.28,20.476 -234.312,19.952L-234.292,19.948C-234.217,20.304 -233.99,21.095 -233.852,21.537L-233.172,23.675C-233.111,23.854 -233.068,23.845 -232.938,23.818L-232.451,23.713C-232.322,23.686 -232.324,23.675 -232.284,23.552L-231.486,20.931C-231.284,20.28 -231.148,19.642 -231.094,19.268L-231.064,19.286C-231.096,19.674 -231.125,20.282 -231.119,20.844L-230.983,24.835C-230.98,24.892 -230.983,24.937 -230.973,24.98C-230.96,25.046 -230.915,25.094 -230.808,25.07L-229.922,24.882C-229.79,24.853 -229.765,24.824 -229.759,24.688L-230.099,17.454C-230.101,17.397 -230.099,17.352 -230.108,17.309M-237.793,19.867C-237.661,19.84 -237.634,19.811 -237.63,19.675L-237.637,19.056C-237.639,18.999 -237.637,18.954 -237.646,18.911C-237.66,18.845 -237.702,18.8 -237.811,18.822L-240.461,19.385C-240.59,19.413 -240.617,19.438 -240.622,19.576L-240.615,20.195C-240.613,20.251 -240.615,20.297 -240.606,20.34C-240.592,20.406 -240.549,20.453 -240.44,20.431L-239.815,20.298L-239.812,25.935L-240.461,26.073C-240.59,26.1 -240.619,26.125 -240.624,26.263L-240.617,26.883C-240.615,26.94 -240.617,26.985 -240.608,27.028C-240.594,27.094 -240.549,27.14 -240.443,27.118L-237.793,26.555C-237.664,26.528 -237.637,26.498 -237.632,26.362L-237.639,25.743C-237.641,25.686 -237.639,25.641 -237.648,25.596C-237.661,25.532 -237.705,25.487 -237.814,25.51L-238.441,25.643L-238.441,20.006L-237.793,19.867ZM-243.586,22.657C-243.539,22.669 -243.473,22.712 -243.409,22.698C-243.355,22.687 -243.332,22.626 -243.31,22.576L-242.009,19.655C-241.986,19.608 -241.957,19.533 -241.973,19.467C-241.988,19.392 -242.041,19.359 -242.181,19.389L-243.337,19.634C-243.455,19.659 -243.475,19.676 -243.507,19.794L-244.13,22.22C-244.15,22.292 -244.173,22.342 -244.159,22.408C-244.15,22.449 -244.112,22.465 -244.026,22.503L-243.586,22.657ZM-248.436,21.236L-248.434,28.52C-248.434,28.568 -248.427,28.656 -248.42,28.688C-248.407,28.754 -248.373,28.804 -248.232,28.774L-244.59,28C-244.472,27.974 -244.456,27.947 -244.429,27.807L-244.234,26.917C-244.216,26.847 -244.216,26.788 -244.227,26.736C-244.243,26.661 -244.316,26.641 -244.434,26.667L-247.029,27.217L-247.024,21.072C-247.022,21.027 -247.031,20.938 -247.038,20.907C-247.051,20.841 -247.083,20.793 -247.224,20.824L-248.273,21.046C-248.414,21.075 -248.432,21.091 -248.436,21.236M-256.266,23.93C-256.149,23.904 -256.117,23.888 -256.069,23.741L-255.856,22.95C-255.843,22.89 -255.816,22.806 -255.825,22.774C-255.843,22.686 -255.861,22.658 -256.033,22.696L-259.641,23.462C-259.773,23.49 -259.802,23.508 -259.805,23.653L-259.802,30.938C-259.805,30.985 -259.798,31.074 -259.791,31.105C-259.777,31.171 -259.743,31.221 -259.603,31.19L-256.015,30.429C-255.886,30.401 -255.856,30.382 -255.854,30.235L-255.852,29.501C-255.852,29.443 -255.852,29.344 -255.861,29.299C-255.877,29.224 -255.943,29.226 -256.063,29.252L-258.386,29.746L-258.395,27.476L-256.536,27.08C-256.394,27.051 -256.375,27.035 -256.373,26.89L-256.373,26.143C-256.373,26.086 -256.373,26.041 -256.385,25.987C-256.398,25.923 -256.453,25.876 -256.561,25.898L-258.399,26.289L-258.395,24.382L-256.266,23.93ZM-265.692,25.932L-265.68,31.296L-264.946,31.139C-263.281,30.786 -263.367,28.194 -263.657,26.823C-263.893,25.722 -264.47,25.673 -265.259,25.84L-265.692,25.932ZM-267.065,32.48L-267.067,25.197C-267.064,25.052 -267.033,25.034 -266.903,25.005L-265.142,24.631C-263.802,24.347 -262.599,24.634 -262.223,26.404C-262.037,27.279 -261.407,31.574 -264.791,32.293L-266.865,32.734C-267.005,32.763 -267.039,32.715 -267.052,32.649C-267.059,32.617 -267.066,32.529 -267.065,32.48M-276.601,28.092C-275.876,27.938 -275.186,28.268 -275.067,28.243C-274.992,28.227 -274.996,28.204 -274.969,28.117L-274.726,27.242C-274.706,27.172 -274.674,27.107 -274.682,27.076C-274.726,26.869 -275.919,26.728 -276.676,26.889C-278.33,27.24 -279.278,28.311 -278.947,29.868C-278.708,30.992 -277.85,31.25 -277.107,31.5C-276.511,31.7 -275.974,31.892 -275.848,32.486C-275.681,33.274 -276.201,33.688 -276.86,33.828C-277.661,33.999 -278.438,33.692 -278.557,33.717C-278.632,33.733 -278.628,33.754 -278.654,33.84L-278.898,34.715C-278.917,34.787 -278.949,34.851 -278.942,34.885C-278.9,35.077 -277.618,35.211 -276.806,35.039C-274.97,34.649 -274.143,33.331 -274.451,31.883C-274.585,31.255 -274.923,30.887 -275.365,30.666C-276.368,30.144 -277.414,30.164 -277.586,29.354C-277.726,28.695 -277.292,28.239 -276.601,28.092M-283.324,29.714L-283.777,29.81L-283.773,32.012L-283.448,31.943C-282.477,31.737 -281.969,31.197 -282.171,30.25C-282.303,29.622 -282.762,29.594 -283.324,29.714M-283.42,28.516C-282.274,28.274 -281.127,28.254 -280.82,29.7C-280.571,30.87 -281.044,32.042 -282.03,32.612L-280.431,35.188C-280.413,35.228 -280.335,35.324 -280.326,35.367C-280.315,35.422 -280.351,35.465 -280.421,35.502L-281.382,35.977C-281.434,36 -281.494,36.036 -281.549,36.047C-281.602,36.059 -281.656,36.022 -281.694,35.952L-283.234,33.117L-283.773,33.232L-283.77,36.168C-283.773,36.316 -283.802,36.334 -283.934,36.362L-284.981,36.584C-285.121,36.615 -285.156,36.565 -285.169,36.499C-285.176,36.468 -285.183,36.379 -285.182,36.332L-285.182,29.048C-285.179,28.902 -285.15,28.884 -285.02,28.856L-283.42,28.516ZM-290.96,30.119C-291.09,30.147 -291.12,30.165 -291.123,30.31L-291.123,37.594C-291.123,37.642 -291.116,37.73 -291.109,37.762C-291.096,37.828 -291.063,37.878 -290.923,37.848L-287.335,37.085C-287.204,37.057 -287.175,37.039 -287.171,36.892L-287.169,36.157C-287.171,36.1 -287.168,36 -287.177,35.954C-287.194,35.88 -287.262,35.883 -287.38,35.908L-289.704,36.402L-289.712,34.132L-287.853,33.737C-287.712,33.707 -287.693,33.691 -287.689,33.545L-287.692,32.8C-287.692,32.743 -287.689,32.697 -287.701,32.643C-287.714,32.58 -287.771,32.532 -287.877,32.555L-289.715,32.946L-289.715,31.039L-287.586,30.586C-287.467,30.561 -287.436,30.544 -287.388,30.397L-287.172,29.605C-287.162,29.546 -287.135,29.462 -287.142,29.43C-287.161,29.342 -287.178,29.315 -287.351,29.352L-290.96,30.119ZM-293.445,31.697C-293.313,31.669 -293.286,31.639 -293.282,31.503L-293.29,30.884C-293.29,30.828 -293.289,30.782 -293.298,30.739C-293.311,30.674 -293.354,30.628 -293.463,30.651L-296.111,31.214C-296.241,31.241 -296.268,31.266 -296.273,31.404L-296.266,32.024C-296.266,32.081 -296.267,32.126 -296.258,32.17C-296.244,32.235 -296.201,32.283 -296.092,32.259L-295.465,32.126L-295.464,37.763L-296.113,37.901C-296.242,37.928 -296.272,37.955 -296.276,38.093L-296.268,38.711C-296.268,38.768 -296.269,38.814 -296.26,38.856C-296.246,38.922 -296.202,38.97 -296.094,38.947L-293.446,38.384C-293.317,38.357 -293.289,38.327 -293.283,38.191L-293.29,37.571C-293.292,37.515 -293.291,37.47 -293.3,37.424C-293.313,37.361 -293.357,37.315 -293.464,37.339L-294.092,37.472L-294.092,31.834L-293.445,31.697ZM-300.741,39.81C-300.727,39.875 -300.694,39.925 -300.554,39.894L-299.505,39.671C-299.375,39.644 -299.346,39.626 -299.342,39.479L-299.334,33.195L-297.995,32.911C-297.875,32.885 -297.845,32.869 -297.798,32.724L-297.561,31.814C-297.551,31.755 -297.523,31.671 -297.53,31.639C-297.548,31.551 -297.567,31.524 -297.739,31.56L-302.158,32.499C-302.3,32.53 -302.329,32.548 -302.321,32.691L-302.333,33.538C-302.343,33.599 -302.343,33.654 -302.33,33.711C-302.31,33.808 -302.242,33.813 -302.122,33.788L-300.739,33.493L-300.754,39.642C-300.754,39.689 -300.747,39.778 -300.741,39.81M-307.478,41.367L-303.89,40.604C-303.76,40.577 -303.73,40.559 -303.727,40.41L-303.726,39.676C-303.726,39.619 -303.724,39.52 -303.733,39.474C-303.75,39.399 -303.817,39.402 -303.936,39.426L-306.259,39.921L-306.267,37.651L-304.409,37.255C-304.268,37.226 -304.249,37.21 -304.246,37.065L-304.248,36.319C-304.248,36.263 -304.246,36.217 -304.257,36.163C-304.271,36.099 -304.326,36.052 -304.433,36.074L-306.271,36.464L-306.272,34.558L-304.142,34.105C-304.023,34.08 -303.992,34.064 -303.944,33.917L-303.728,33.125C-303.719,33.066 -303.691,32.981 -303.698,32.949C-303.717,32.861 -303.733,32.835 -303.907,32.871L-307.516,33.638C-307.645,33.665 -307.676,33.683 -307.679,33.83L-307.679,41.113C-307.678,41.16 -307.671,41.249 -307.664,41.281C-307.651,41.346 -307.619,41.396 -307.478,41.367M-306.914,32.695C-306.849,32.793 -306.811,32.809 -306.768,32.8C-306.702,32.786 -306.664,32.754 -306.605,32.72L-304.729,31.553C-304.618,31.485 -304.604,31.447 -304.617,31.383C-304.63,31.329 -304.674,31.281 -304.706,31.234L-305.099,30.661C-305.176,30.564 -305.215,30.548 -305.258,30.557C-305.321,30.57 -305.388,30.633 -305.415,30.662L-307.118,32.106C-307.197,32.167 -307.221,32.209 -307.211,32.261C-307.199,32.316 -307.165,32.364 -307.121,32.41L-306.914,32.695ZM-314.267,35.253C-314.318,35.115 -314.357,35.092 -314.466,35.116L-315.524,35.34C-315.654,35.367 -315.682,35.392 -315.687,35.53L-316.038,42.913C-316.038,42.971 -316.039,43.016 -316.03,43.06C-316.016,43.125 -315.972,43.172 -315.864,43.149L-314.978,42.961C-314.848,42.933 -314.821,42.903 -314.815,42.767L-314.729,38.762C-314.732,38.377 -314.745,37.579 -314.776,37.056L-314.755,37.05C-314.679,37.406 -314.455,38.197 -314.314,38.639L-313.635,40.777C-313.574,40.956 -313.531,40.947 -313.402,40.92L-312.915,40.817C-312.786,40.789 -312.788,40.777 -312.746,40.655L-311.948,38.034C-311.747,37.382 -311.611,36.745 -311.556,36.37L-311.529,36.388C-311.559,36.777 -311.589,37.385 -311.582,37.947L-311.444,41.938C-311.444,41.994 -311.446,42.04 -311.437,42.083C-311.423,42.149 -311.379,42.196 -311.271,42.173L-310.385,41.984C-310.255,41.957 -310.227,41.928 -310.222,41.792L-310.563,34.556C-310.564,34.499 -310.562,34.454 -310.571,34.411C-310.585,34.345 -310.628,34.3 -310.737,34.323L-311.72,34.532C-311.806,34.55 -311.87,34.575 -311.903,34.682L-312.848,37.784C-313.016,38.321 -313.109,38.892 -313.135,39.248L-313.157,39.252C-313.2,39.046 -313.223,38.837 -313.268,38.62C-313.321,38.373 -313.384,38.126 -313.46,37.883L-314.267,35.253ZM-323.337,42.273C-323.469,41.645 -323.807,41.277 -324.249,41.056C-325.253,40.535 -326.3,40.554 -326.471,39.745C-326.612,39.086 -326.178,38.631 -325.485,38.484C-324.761,38.33 -324.07,38.658 -323.952,38.633C-323.876,38.617 -323.881,38.595 -323.854,38.509L-323.61,37.633C-323.592,37.562 -323.56,37.498 -323.567,37.466C-323.611,37.26 -324.804,37.118 -325.561,37.279C-327.215,37.631 -328.162,38.701 -327.831,40.258C-327.592,41.382 -326.734,41.641 -325.992,41.89C-325.397,42.092 -324.859,42.282 -324.733,42.876C-324.565,43.665 -325.085,44.079 -325.745,44.219C-326.545,44.389 -327.322,44.083 -327.441,44.108C-327.516,44.125 -327.513,44.145 -327.54,44.231L-327.782,45.105C-327.802,45.178 -327.833,45.241 -327.827,45.275C-327.785,45.468 -326.503,45.603 -325.692,45.43C-323.855,45.039 -323.028,43.721 -323.337,42.273M-329.816,39.562C-329.697,39.538 -329.666,39.522 -329.619,39.374L-329.404,38.582C-329.393,38.522 -329.365,38.438 -329.372,38.407C-329.391,38.318 -329.409,38.291 -329.582,38.328L-333.191,39.096C-333.32,39.123 -333.351,39.141 -333.354,39.286L-333.353,46.57C-333.353,46.618 -333.346,46.706 -333.34,46.738C-333.326,46.804 -333.293,46.854 -333.152,46.824L-329.565,46.061C-329.436,46.033 -329.404,46.015 -329.401,45.868L-329.401,45.133C-329.401,45.077 -329.4,44.977 -329.41,44.932C-329.425,44.857 -329.492,44.859 -329.611,44.884L-331.936,45.378L-331.943,43.108L-330.084,42.713C-329.942,42.683 -329.924,42.667 -329.922,42.522L-329.922,41.777C-329.922,41.719 -329.922,41.675 -329.933,41.62C-329.947,41.557 -330,41.509 -330.109,41.532L-331.947,41.922L-331.944,40.015L-329.816,39.562ZM-339.239,41.565L-339.228,46.928L-338.493,46.772C-336.829,46.418 -336.915,43.827 -337.206,42.456C-337.441,41.354 -338.017,41.305 -338.806,41.473L-339.239,41.565ZM-340.45,40.639L-338.689,40.264C-337.35,39.979 -336.148,40.266 -335.772,42.036C-335.586,42.911 -334.956,47.207 -338.338,47.926L-340.413,48.368C-340.552,48.397 -340.587,48.347 -340.6,48.281C-340.607,48.25 -340.614,48.161 -340.613,48.114L-340.615,40.829C-340.611,40.684 -340.581,40.666 -340.45,40.639M-177.597,1.127L-177.597,0.392C-177.597,0.333 -177.597,0.233 -177.606,0.19C-177.622,0.113 -177.687,0.118 -177.808,0.144L-180.131,0.638L-180.14,-1.632L-178.279,-2.027C-178.139,-2.058 -178.121,-2.074 -178.118,-2.221L-178.118,-2.967C-178.118,-3.021 -178.118,-3.069 -178.13,-3.121C-178.143,-3.184 -178.195,-3.232 -178.304,-3.209L-180.142,-2.818L-180.14,-4.728L-178.012,-5.18C-177.892,-5.206 -177.862,-5.222 -177.815,-5.367L-177.599,-6.159C-177.588,-6.218 -177.561,-6.302 -177.57,-6.336C-177.588,-6.422 -177.606,-6.451 -177.778,-6.414L-181.386,-5.648C-181.518,-5.62 -181.547,-5.601 -181.55,-5.454L-181.547,1.829C-181.55,1.878 -181.543,1.966 -181.536,1.998C-181.522,2.063 -181.488,2.11 -181.348,2.08L-177.76,1.319C-177.631,1.291 -177.599,1.272 -177.597,1.127M-185.484,-2.777C-185.616,-3.403 -186.076,-3.432 -186.638,-3.311L-187.091,-3.215L-187.084,-1.013L-186.762,-1.082C-185.788,-1.288 -185.282,-1.828 -185.484,-2.777M-184.863,3.022C-184.918,3.034 -184.968,2.997 -185.006,2.927L-186.547,0.092L-187.086,0.207L-187.084,3.144C-187.086,3.289 -187.116,3.307 -187.245,3.334L-188.295,3.557C-188.435,3.588 -188.467,3.54 -188.48,3.474C-188.489,3.443 -188.496,3.354 -188.494,3.307L-188.494,-3.978C-188.494,-4.125 -188.462,-4.143 -188.333,-4.17L-186.735,-4.51C-185.588,-4.755 -184.439,-4.773 -184.133,-3.325C-183.884,-2.158 -184.358,-0.984 -185.344,-0.413L-183.746,2.162C-183.725,2.203 -183.648,2.3 -183.639,2.341C-183.628,2.398 -183.664,2.441 -183.734,2.475L-184.695,2.951C-184.748,2.973 -184.809,3.01 -184.863,3.022M-191.139,-3.452C-191.152,-3.515 -191.187,-3.565 -191.327,-3.535L-192.342,-3.318C-192.474,-3.291 -192.501,-3.273 -192.503,-3.125L-192.485,1.852C-192.492,2.632 -192.621,3.449 -193.562,3.649C-194.124,3.768 -194.568,3.637 -194.695,3.044C-194.745,2.806 -194.765,2.561 -194.747,2.321L-194.713,-2.52C-194.713,-2.566 -194.72,-2.654 -194.726,-2.688C-194.74,-2.752 -194.772,-2.801 -194.915,-2.772L-195.964,-2.55C-196.091,-2.522 -196.123,-2.503 -196.125,-2.356L-196.111,2.6C-196.111,2.917 -196.091,3.227 -196.023,3.54C-195.767,4.75 -194.804,5.136 -193.464,4.85C-191.196,4.367 -191.119,2.815 -191.119,1.538L-191.128,-3.284C-191.125,-3.329 -191.132,-3.418 -191.139,-3.452M-198.471,5.72C-198.342,5.693 -198.312,5.675 -198.308,5.53L-198.308,4.795C-198.308,4.736 -198.308,4.636 -198.317,4.593C-198.333,4.516 -198.4,4.52 -198.518,4.546L-200.841,5.04L-200.85,2.769L-198.992,2.375C-198.851,2.344 -198.831,2.329 -198.829,2.181L-198.829,1.436C-198.829,1.381 -198.826,1.334 -198.838,1.281C-198.851,1.218 -198.908,1.171 -199.015,1.193L-200.853,1.584L-200.853,-0.325L-198.725,-0.778C-198.604,-0.803 -198.575,-0.819 -198.525,-0.964L-198.31,-1.757C-198.301,-1.816 -198.274,-1.899 -198.28,-1.933C-198.298,-2.02 -198.317,-2.049 -198.489,-2.013L-202.097,-1.246C-202.229,-1.217 -202.258,-1.199 -202.26,-1.052L-202.26,6.232C-202.262,6.28 -202.253,6.368 -202.247,6.4C-202.233,6.466 -202.201,6.514 -202.061,6.483L-198.471,5.72ZM-207.595,6.77L-207.589,7.389C-207.589,7.443 -207.589,7.49 -207.579,7.534C-207.566,7.599 -207.523,7.644 -207.414,7.622L-204.767,7.059C-204.638,7.03 -204.61,7.003 -204.604,6.867L-204.61,6.248C-204.613,6.19 -204.61,6.146 -204.622,6.101C-204.635,6.038 -204.676,5.99 -204.785,6.013L-205.413,6.146L-205.413,0.509L-204.765,0.372C-204.635,0.343 -204.606,0.316 -204.604,0.18L-204.61,-0.439C-204.61,-0.498 -204.608,-0.542 -204.617,-0.587C-204.631,-0.65 -204.676,-0.697 -204.785,-0.674L-207.432,-0.111C-207.561,-0.084 -207.591,-0.057 -207.593,0.081L-207.586,0.7C-207.586,0.755 -207.586,0.802 -207.579,0.845C-207.564,0.911 -207.521,0.956 -207.412,0.934L-206.786,0.801L-206.784,6.439L-207.432,6.576C-207.564,6.603 -207.591,6.632 -207.595,6.77M-212.64,2.215L-212.636,4.417L-212.309,4.348C-211.339,4.142 -210.832,3.602 -211.033,2.653C-211.167,2.027 -211.623,1.999 -212.185,2.119L-212.64,2.215ZM-214.032,8.905C-214.037,8.873 -214.046,8.784 -214.043,8.737L-214.043,1.453C-214.041,1.305 -214.012,1.287 -213.882,1.26L-212.282,0.92C-211.136,0.675 -209.989,0.657 -209.68,2.106C-209.431,3.273 -209.907,4.447 -210.891,5.018L-209.293,7.592C-209.275,7.633 -209.198,7.731 -209.189,7.772C-209.177,7.828 -209.211,7.871 -209.284,7.905L-210.245,8.381C-210.297,8.404 -210.356,8.441 -210.41,8.453C-210.465,8.464 -210.517,8.428 -210.555,8.357L-212.094,5.522L-212.636,5.638L-212.631,8.574C-212.634,8.719 -212.665,8.737 -212.795,8.765L-213.842,8.987C-213.984,9.018 -214.016,8.97 -214.032,8.905M-219.404,1.62C-219.34,1.718 -219.304,1.734 -219.258,1.725C-219.195,1.711 -219.154,1.679 -219.095,1.645L-217.218,0.476C-217.108,0.41 -217.096,0.372 -217.11,0.308C-217.121,0.252 -217.164,0.206 -217.198,0.156L-217.59,-0.414C-217.665,-0.511 -217.704,-0.527 -217.747,-0.518C-217.812,-0.503 -217.878,-0.444 -217.905,-0.415L-219.61,1.031C-219.687,1.094 -219.712,1.132 -219.7,1.186C-219.689,1.241 -219.657,1.291 -219.612,1.336L-219.404,1.62ZM-219.968,10.29L-216.38,9.527C-216.251,9.5 -216.221,9.481 -216.217,9.335L-216.214,8.601C-216.217,8.542 -216.214,8.442 -216.224,8.399C-216.24,8.322 -216.308,8.327 -216.425,8.352L-218.748,8.846L-218.757,6.576L-216.899,6.182C-216.758,6.151 -216.738,6.135 -216.736,5.988L-216.738,5.242C-216.738,5.188 -216.736,5.14 -216.747,5.088C-216.761,5.025 -216.815,4.977 -216.924,5L-218.76,5.391L-218.762,3.481L-216.632,3.028C-216.514,3.003 -216.482,2.987 -216.434,2.842L-216.217,2.05C-216.208,1.991 -216.181,1.907 -216.19,1.873C-216.208,1.787 -216.224,1.758 -216.398,1.794L-220.006,2.561C-220.135,2.588 -220.165,2.606 -220.169,2.755L-220.169,10.038C-220.169,10.086 -220.16,10.174 -220.156,10.206C-220.14,10.271 -220.108,10.319 -219.968,10.29M-225.409,4.929L-225.405,7.131L-225.079,7.062C-224.106,6.856 -223.601,6.316 -223.803,5.367C-223.936,4.741 -224.394,4.714 -224.954,4.833L-225.409,4.929ZM-226.799,11.619C-226.806,11.587 -226.815,11.499 -226.812,11.451L-226.812,4.167C-226.81,4.019 -226.778,4.001 -226.651,3.973L-225.051,3.633C-223.904,3.39 -222.758,3.371 -222.45,4.819C-222.037,6.766 -223.243,7.892 -224.843,8.232L-225.405,8.352L-225.4,11.288C-225.405,11.434 -225.434,11.452 -225.564,11.479L-226.613,11.702C-226.753,11.732 -226.785,11.684 -226.799,11.619M-229.564,4.716C-229.577,4.653 -229.611,4.603 -229.752,4.633L-230.767,4.849C-230.896,4.876 -230.926,4.894 -230.928,5.042L-230.91,10.02C-230.912,10.8 -231.046,11.616 -231.987,11.816C-232.549,11.935 -232.993,11.806 -233.12,11.212C-233.17,10.974 -233.188,10.728 -233.172,10.488L-233.14,5.647C-233.138,5.601 -233.145,5.513 -233.151,5.479C-233.165,5.416 -233.199,5.366 -233.337,5.395L-234.387,5.618C-234.516,5.646 -234.547,5.664 -234.55,5.811L-234.534,10.765C-234.536,11.084 -234.516,11.394 -234.448,11.707C-234.192,12.917 -233.229,13.303 -231.887,13.017C-229.62,12.535 -229.541,10.982 -229.543,9.705L-229.55,4.884C-229.55,4.839 -229.557,4.75 -229.564,4.716M-239.373,11.006C-238.777,11.203 -238.24,11.397 -238.113,11.99C-237.945,12.779 -238.466,13.194 -239.126,13.333C-239.926,13.503 -240.703,13.197 -240.821,13.222C-240.898,13.238 -240.894,13.256 -240.919,13.346L-241.163,14.219C-241.181,14.292 -241.213,14.355 -241.206,14.387C-241.166,14.58 -239.883,14.717 -239.072,14.545C-237.235,14.154 -236.406,12.835 -236.714,11.389C-236.848,10.761 -237.188,10.391 -237.63,10.171C-238.632,9.649 -239.679,9.669 -239.851,8.859C-239.991,8.198 -239.556,7.745 -238.865,7.598C-238.142,7.444 -237.451,7.772 -237.331,7.745C-237.256,7.729 -237.26,7.707 -237.235,7.623L-236.991,6.747C-236.973,6.677 -236.941,6.613 -236.948,6.579C-236.991,6.373 -238.183,6.232 -238.94,6.393C-240.594,6.745 -241.542,7.816 -241.211,9.373C-240.971,10.497 -240.114,10.754 -239.373,11.006M-252.371,17.055C-252.357,17.12 -252.325,17.167 -252.185,17.137L-248.597,16.375C-248.468,16.348 -248.436,16.33 -248.434,16.185L-248.432,15.449C-248.432,15.39 -248.432,15.29 -248.443,15.247C-248.459,15.17 -248.525,15.175 -248.642,15.201L-250.968,15.695L-250.975,13.424L-249.116,13.029C-248.975,12.999 -248.957,12.983 -248.955,12.836L-248.955,12.09C-248.955,12.036 -248.953,11.988 -248.964,11.936C-248.978,11.873 -249.032,11.825 -249.141,11.848L-250.979,12.239L-250.977,10.328L-248.849,9.877C-248.729,9.851 -248.699,9.835 -248.651,9.69L-248.436,8.898C-248.425,8.839 -248.398,8.755 -248.404,8.721C-248.425,8.635 -248.441,8.606 -248.613,8.642L-252.224,9.409C-252.353,9.437 -252.384,9.456 -252.387,9.603L-252.384,16.886C-252.387,16.935 -252.38,17.023 -252.371,17.055M-257.017,16.867L-257.012,10.721C-257.01,10.676 -257.019,10.586 -257.026,10.552C-257.04,10.489 -257.071,10.44 -257.212,10.47L-258.261,10.693C-258.402,10.722 -258.422,10.738 -258.424,10.886L-258.424,18.17C-258.424,18.217 -258.417,18.306 -258.408,18.337C-258.395,18.403 -258.363,18.451 -258.223,18.421L-254.58,17.646C-254.463,17.621 -254.444,17.596 -254.419,17.456L-254.222,16.566C-254.204,16.494 -254.204,16.437 -254.216,16.385C-254.231,16.308 -254.306,16.29 -254.424,16.316L-257.017,16.867ZM-264.121,16.602L-262.672,16.294L-263.168,14.436C-263.27,14.071 -263.358,13.754 -263.449,13.332L-263.469,13.337C-263.48,13.655 -263.603,14.088 -263.696,14.559L-264.121,16.602ZM-266.18,19.989C-266.189,19.945 -266.165,19.893 -266.155,19.837L-264.097,12.032C-264.074,11.928 -264.043,11.921 -263.924,11.896L-262.887,11.675C-262.767,11.649 -262.712,11.638 -262.651,11.819L-260.546,18.645C-260.539,18.679 -260.519,18.717 -260.511,18.751C-260.484,18.88 -260.546,18.914 -260.664,18.94L-261.797,19.181C-261.874,19.196 -261.949,19.158 -261.962,19.092L-262.434,17.262L-264.271,17.653L-264.717,19.645C-264.76,19.756 -264.761,19.811 -264.902,19.84L-266.014,20.077C-266.122,20.1 -266.171,20.032 -266.18,19.989M-273.124,21.587L-272.217,21.395C-272.086,21.368 -272.057,21.35 -272.053,21.205L-272.053,17.272C-272.058,16.88 -272.061,16.437 -272.091,16.14L-272.068,16.136C-271.92,16.464 -271.825,16.704 -271.63,17.034L-269.555,20.684C-269.495,20.804 -269.461,20.809 -269.331,20.782L-268.628,20.632C-268.499,20.605 -268.489,20.591 -268.487,20.445L-268.478,13.158C-268.475,13.112 -268.484,13.024 -268.491,12.99C-268.504,12.927 -268.537,12.877 -268.676,12.906L-269.585,13.1C-269.714,13.127 -269.745,13.145 -269.748,13.292L-269.75,16.951C-269.755,17.349 -269.726,17.918 -269.671,18.222L-269.693,18.227C-269.825,17.928 -269.987,17.534 -270.244,17.126L-272.16,13.793C-272.23,13.673 -272.244,13.664 -272.384,13.695L-273.163,13.859C-273.292,13.887 -273.32,13.915 -273.325,14.053L-273.325,21.337C-273.326,21.385 -273.319,21.473 -273.312,21.505C-273.298,21.571 -273.265,21.618 -273.124,21.587M-279.325,20.726C-279.162,21.492 -278.922,21.828 -278.393,21.716C-277.106,21.442 -276.978,18.702 -277.352,16.941C-277.518,16.162 -277.757,15.831 -278.276,15.942C-279.562,16.215 -279.7,18.963 -279.325,20.726M-280.778,21.071C-281.315,18.541 -280.84,15.299 -278.354,14.771C-277.101,14.505 -276.21,15.14 -275.9,16.599C-275.365,19.117 -275.828,22.357 -278.303,22.883C-279.579,23.154 -280.467,22.528 -280.778,21.071M-285.88,23.409L-285.872,24.027C-285.871,24.082 -285.873,24.129 -285.864,24.172C-285.849,24.238 -285.806,24.283 -285.698,24.261L-283.05,23.698C-282.921,23.67 -282.892,23.643 -282.887,23.507L-282.894,22.887C-282.896,22.83 -282.895,22.786 -282.904,22.741C-282.917,22.678 -282.96,22.63 -283.068,22.653L-283.696,22.785L-283.696,17.148L-283.049,17.011C-282.917,16.982 -282.89,16.955 -282.886,16.819L-282.894,16.2C-282.894,16.141 -282.892,16.098 -282.902,16.053C-282.915,15.989 -282.958,15.942 -283.067,15.965L-285.715,16.528C-285.845,16.555 -285.872,16.582 -285.877,16.721L-285.87,17.34C-285.868,17.395 -285.871,17.442 -285.862,17.485C-285.848,17.551 -285.805,17.596 -285.696,17.573L-285.069,17.44L-285.067,23.078L-285.716,23.215C-285.846,23.242 -285.874,23.27 -285.88,23.409M-291.91,19.142L-290.526,18.849L-290.543,24.996C-290.542,25.044 -290.535,25.132 -290.528,25.164C-290.513,25.23 -290.483,25.277 -290.341,25.248L-289.293,25.025C-289.164,24.997 -289.133,24.979 -289.131,24.834L-289.121,18.549L-287.782,18.265C-287.662,18.24 -287.633,18.222 -287.585,18.077L-287.348,17.168C-287.339,17.109 -287.311,17.025 -287.318,16.991C-287.336,16.905 -287.354,16.876 -287.527,16.913L-291.947,17.852C-292.087,17.882 -292.117,17.9 -292.11,18.045L-292.12,18.894C-292.132,18.953 -292.132,19.01 -292.119,19.064C-292.099,19.161 -292.028,19.168 -291.91,19.142M-296.512,23.487L-295.064,23.179L-295.561,21.32C-295.661,20.956 -295.751,20.639 -295.841,20.218L-295.861,20.222C-295.874,20.539 -295.996,20.973 -296.087,21.445L-296.512,23.487ZM-298.572,26.874C-298.581,26.831 -298.556,26.778 -298.547,26.721L-296.489,18.918C-296.466,18.813 -296.433,18.807 -296.315,18.781L-295.277,18.56C-295.157,18.535 -295.104,18.523 -295.044,18.705L-292.937,25.529C-292.93,25.563 -292.91,25.601 -292.903,25.635C-292.876,25.764 -292.937,25.8 -293.056,25.825L-294.19,26.066C-294.266,26.082 -294.341,26.043 -294.356,25.978L-294.824,24.146L-296.662,24.537L-297.109,26.529C-297.151,26.641 -297.151,26.695 -297.292,26.726L-298.405,26.961C-298.513,26.984 -298.563,26.917 -298.572,26.874M-305.703,28.389C-305.689,28.455 -305.655,28.502 -305.515,28.473L-304.607,28.28C-304.478,28.252 -304.447,28.234 -304.445,28.089L-304.445,24.157C-304.448,23.764 -304.453,23.323 -304.482,23.026L-304.46,23.02C-304.31,23.349 -304.215,23.589 -304.021,23.92L-301.945,27.57C-301.886,27.69 -301.851,27.694 -301.722,27.666L-301.019,27.516C-300.889,27.489 -300.881,27.476 -300.878,27.331L-300.87,20.042C-300.866,19.997 -300.874,19.908 -300.881,19.874C-300.895,19.811 -300.929,19.761 -301.068,19.792L-301.977,19.984C-302.105,20.011 -302.137,20.03 -302.139,20.178L-302.14,23.836C-302.147,24.235 -302.115,24.804 -302.063,25.107L-302.083,25.112C-302.216,24.813 -302.378,24.418 -302.634,24.012L-304.552,20.679C-304.622,20.559 -304.635,20.55 -304.776,20.579L-305.553,20.744C-305.684,20.772 -305.711,20.799 -305.716,20.937L-305.714,28.221C-305.716,28.269 -305.709,28.357 -305.703,28.389M-317.394,30.875C-317.38,30.941 -317.348,30.987 -317.208,30.958L-313.619,30.195C-313.49,30.168 -313.46,30.15 -313.456,30.005L-313.455,29.27C-313.455,29.211 -313.455,29.111 -313.464,29.068C-313.481,28.991 -313.547,28.995 -313.665,29.021L-315.99,29.515L-315.997,27.244L-314.138,26.85C-313.998,26.82 -313.979,26.804 -313.977,26.656L-313.977,25.911C-313.977,25.856 -313.975,25.809 -313.986,25.757C-314,25.693 -314.054,25.646 -314.163,25.668L-316.001,26.059L-315.999,24.149L-313.871,23.698C-313.751,23.672 -313.721,23.656 -313.674,23.511L-313.458,22.718C-313.448,22.659 -313.421,22.576 -313.428,22.542C-313.446,22.456 -313.463,22.426 -313.637,22.462L-317.246,23.229C-317.375,23.258 -317.407,23.276 -317.409,23.423L-317.407,30.706C-317.409,30.755 -317.401,30.844 -317.394,30.875M-323.246,32.242L-319.603,31.467C-319.485,31.442 -319.467,31.417 -319.441,31.276L-319.246,30.387C-319.227,30.314 -319.227,30.258 -319.238,30.206C-319.255,30.129 -319.327,30.11 -319.446,30.136L-322.041,30.687L-322.036,24.542C-322.035,24.496 -322.042,24.407 -322.048,24.373C-322.062,24.31 -322.095,24.261 -322.235,24.29L-323.283,24.514C-323.424,24.543 -323.443,24.559 -323.447,24.706L-323.447,31.99C-323.447,32.038 -323.439,32.126 -323.432,32.158C-323.417,32.224 -323.386,32.271 -323.246,32.242M-327.495,27.599C-327.66,26.82 -327.9,26.49 -328.419,26.6C-329.705,26.873 -329.845,29.622 -329.47,31.385C-329.307,32.151 -329.065,32.486 -328.536,32.374C-327.25,32.1 -327.12,29.36 -327.495,27.599M-328.445,33.541C-329.72,33.813 -330.611,33.187 -330.921,31.73C-331.459,29.2 -330.985,25.958 -328.499,25.429C-327.245,25.163 -326.352,25.799 -326.043,27.258C-325.507,29.776 -325.97,33.015 -328.445,33.541M-334.484,34.824C-333.803,34.679 -332.739,34.001 -332.79,33.763C-332.806,33.686 -332.83,33.681 -332.849,33.638L-333.267,33.005C-333.312,32.948 -333.326,32.939 -333.358,32.946C-333.541,32.985 -333.846,33.467 -334.463,33.597C-335.143,33.742 -335.512,33.494 -335.737,32.436C-336.114,30.664 -335.867,28.216 -334.46,27.917C-333.899,27.797 -333.536,28.239 -333.297,28.189C-333.265,28.182 -333.233,28.165 -333.202,28.099L-332.864,27.25C-332.852,27.2 -332.821,27.182 -332.832,27.13C-332.886,26.869 -333.802,26.557 -334.634,26.733C-337.12,27.263 -337.768,30.053 -337.196,32.745C-336.809,34.561 -335.835,35.111 -334.484,34.824M-343.137,36.347C-343.124,36.412 -343.09,36.46 -342.95,36.43L-339.363,35.668C-339.232,35.639 -339.202,35.621 -339.199,35.476L-339.198,34.742C-339.198,34.683 -339.197,34.583 -339.206,34.54C-339.223,34.463 -339.289,34.468 -339.409,34.493L-341.732,34.987L-341.74,32.717L-339.882,32.321C-339.74,32.292 -339.722,32.276 -339.719,32.129L-339.719,31.382C-339.719,31.328 -339.719,31.28 -339.731,31.228C-339.745,31.164 -339.798,31.117 -339.906,31.14L-341.745,31.53L-341.741,29.621L-339.613,29.169C-339.495,29.144 -339.463,29.128 -339.417,28.982L-339.202,28.19C-339.19,28.131 -339.163,28.047 -339.17,28.013C-339.188,27.927 -339.206,27.897 -339.38,27.935L-342.988,28.702C-343.118,28.729 -343.149,28.747 -343.152,28.895L-343.149,36.179C-343.151,36.226 -343.144,36.315 -343.137,36.347M-342.594,27.476C-342.638,27.43 -342.67,27.38 -342.682,27.326C-342.693,27.272 -342.668,27.233 -342.591,27.172L-340.888,25.725C-340.86,25.695 -340.794,25.637 -340.728,25.623C-340.685,25.614 -340.649,25.63 -340.572,25.726L-340.18,26.297C-340.146,26.347 -340.103,26.392 -340.09,26.449C-340.076,26.513 -340.092,26.551 -340.201,26.617L-342.077,27.785C-342.136,27.819 -342.175,27.851 -342.241,27.865C-342.284,27.875 -342.32,27.859 -342.387,27.761L-342.594,27.476Z" style="fill:rgb(220,225,214);fill-rule:nonzero;"/>
            </g>
        </g>
    </g>
</svg>
