<?xml version="1.0" encoding="UTF-8" standalone="no"?>
<!DOCTYPE svg PUBLIC "-//W3C//DTD SVG 1.1//EN" "http://www.w3.org/Graphics/SVG/1.1/DTD/svg11.dtd">
<svg width="100%" height="100%" viewBox="0 0 2208 485" version="1.1" xmlns="http://www.w3.org/2000/svg" xmlns:xlink="http://www.w3.org/1999/xlink" xml:space="preserve" xmlns:serif="http://www.serif.com/" style="fill-rule:evenodd;clip-rule:evenodd;stroke-linejoin:round;stroke-miterlimit:2;">
    <g transform="matrix(1,0,0,1,-199.268333,-214.2375)">
        <g id="Capa-1" serif:id="Capa 1" transform="matrix(4.166667,0,0,4.166667,0,0)">
            <g transform="matrix(1,0,0,1,0,0.345)">
                <rect x="160.474" y="51.09" width="3.34" height="116.276" style="fill:rgb(220,225,214);"/>
            </g>
            <g transform="matrix(1,0,0,1,115.4649,111.1243)">
                <path d="M0,27.05C0,34.483 -1.833,39.85 -5.416,43.573C-4.328,41.563 -4.045,39.519 -5.115,37.768L-9.631,31.006L-15.043,17.621L-15.436,12.168L-14.226,11.576C-13.378,11.18 -12.94,10.188 -13.258,9.391L-13.617,8.458C-13.929,7.644 -14.971,7.111 -15.929,7.262L-17.686,7.532L-20.257,5.754C-20.64,5.497 -21.337,5.354 -21.823,5.439L-23.406,5.709L-27.067,3.2C-27.447,2.923 -27.997,3.002 -28.278,3.34L-30.414,5.925C-30.838,6.441 -30.872,7.292 -30.493,7.839L-27.228,12.445L-27.228,20.67L-30.978,21.31C-32.257,21.31 -38.606,19.47 -38.606,17.973L-38.606,1.767C-37.898,1.723 -37.191,1.665 -36.476,1.596C-19.891,0.034 -7.388,-6.489 0,-17.361L0,27.05ZM-29.686,50.876C-32.944,50.876 -35.939,50.664 -38.668,50.244L-38.674,24.476C-38.674,24.476 -29.361,30.677 -28.616,30.503L-25.368,30.031L-25.368,31.033C-25.368,32.23 -25.283,33.286 -25.142,34.206C-24.472,38.472 -22.51,39.895 -21.59,40.336L-22.322,41.218C-22.674,41.642 -22.356,42.749 -22.014,43.454L-19.959,50.124C-22.886,50.623 -26.127,50.876 -29.686,50.876M-44.548,48.89C-54.302,46.004 -59.389,39.331 -59.389,27.05L-59.389,0.79C-56.319,1.289 -50.965,1.962 -44.548,1.966L-44.548,48.89ZM-3.142,-23.594C-9.217,-12.691 -20.954,-5.816 -36.972,-4.274C-46.076,-3.395 -55.01,-4.277 -59.389,-4.855L-59.389,-23.594L-3.142,-23.594ZM-65.369,-29.522L-65.369,29.248C-65.369,46.65 -53.321,56.572 -29.713,56.572C-6.113,56.572 5.935,46.65 5.935,29.248L5.935,-29.522L-65.369,-29.522Z" style="fill:rgb(220,225,214);fill-rule:nonzero;"/>
            </g>
            <g transform="matrix(1,0,0,1,53.3538,78.5166)">
                <path d="M0,-9.737L0.868,-7.016C0.903,-6.91 1.009,-6.845 1.118,-6.872L3.908,-7.481C4.113,-7.525 4.253,-7.279 4.113,-7.125L2.188,-5.016C2.116,-4.933 2.116,-4.807 2.188,-4.725L4.113,-2.612C4.253,-2.458 4.113,-2.212 3.908,-2.256L1.118,-2.868C1.009,-2.889 0.903,-2.827 0.868,-2.725L0,-0.003C-0.065,0.198 -0.349,0.198 -0.414,-0.003L-1.275,-2.725C-1.309,-2.827 -1.422,-2.889 -1.528,-2.868L-4.318,-2.256C-4.523,-2.212 -4.667,-2.458 -4.523,-2.612L-2.602,-4.725C-2.523,-4.807 -2.523,-4.933 -2.602,-5.016L-4.523,-7.125C-4.667,-7.279 -4.523,-7.525 -4.318,-7.481L-1.528,-6.872C-1.422,-6.845 -1.309,-6.91 -1.275,-7.016L-0.414,-9.737C-0.349,-9.935 -0.065,-9.935 0,-9.737" style="fill:rgb(220,225,214);fill-rule:nonzero;"/>
            </g>
            <g transform="matrix(1,0,0,1,64.2187,78.5166)">
                <path d="M0,-9.737L0.868,-7.016C0.903,-6.91 1.009,-6.845 1.118,-6.872L3.908,-7.481C4.113,-7.525 4.253,-7.279 4.113,-7.125L2.188,-5.016C2.116,-4.933 2.116,-4.807 2.188,-4.725L4.113,-2.612C4.253,-2.458 4.113,-2.212 3.908,-2.256L1.118,-2.868C1.009,-2.889 0.903,-2.827 0.868,-2.725L0,-0.003C-0.065,0.198 -0.349,0.198 -0.41,-0.003L-1.275,-2.725C-1.309,-2.827 -1.422,-2.889 -1.528,-2.868L-4.318,-2.256C-4.523,-2.212 -4.667,-2.458 -4.523,-2.612L-2.602,-4.725C-2.523,-4.807 -2.523,-4.933 -2.602,-5.016L-4.523,-7.125C-4.667,-7.279 -4.523,-7.525 -4.318,-7.481L-1.528,-6.872C-1.422,-6.845 -1.309,-6.91 -1.275,-7.016L-0.41,-9.737C-0.349,-9.935 -0.065,-9.935 0,-9.737" style="fill:rgb(220,225,214);fill-rule:nonzero;"/>
            </g>
            <g transform="matrix(1,0,0,1,75.0832,78.5166)">
                <path d="M0,-9.737L0.868,-7.016C0.903,-6.91 1.009,-6.845 1.118,-6.872L3.908,-7.481C4.113,-7.525 4.257,-7.279 4.113,-7.125L2.188,-5.016C2.116,-4.933 2.116,-4.807 2.188,-4.725L4.113,-2.612C4.257,-2.458 4.113,-2.212 3.908,-2.256L1.118,-2.868C1.009,-2.889 0.903,-2.827 0.868,-2.725L0,-0.003C-0.062,0.198 -0.345,0.198 -0.41,-0.003L-1.275,-2.725C-1.309,-2.827 -1.419,-2.889 -1.528,-2.868L-4.318,-2.256C-4.523,-2.212 -4.667,-2.458 -4.523,-2.612L-2.602,-4.725C-2.523,-4.807 -2.523,-4.933 -2.602,-5.016L-4.523,-7.125C-4.667,-7.279 -4.523,-7.525 -4.318,-7.481L-1.528,-6.872C-1.419,-6.845 -1.309,-6.91 -1.275,-7.016L-0.41,-9.737C-0.345,-9.935 -0.062,-9.935 0,-9.737" style="fill:rgb(220,225,214);fill-rule:nonzero;"/>
            </g>
            <g transform="matrix(1,0,0,1,85.948,78.5166)">
                <path d="M0,-9.737L0.868,-7.016C0.903,-6.91 1.009,-6.845 1.118,-6.872L3.908,-7.481C4.113,-7.525 4.257,-7.279 4.113,-7.125L2.188,-5.016C2.116,-4.933 2.116,-4.807 2.188,-4.725L4.113,-2.612C4.257,-2.458 4.113,-2.212 3.908,-2.256L1.118,-2.868C1.009,-2.889 0.903,-2.827 0.868,-2.725L0,-0.003C-0.062,0.198 -0.345,0.198 -0.41,-0.003L-1.275,-2.725C-1.309,-2.827 -1.419,-2.889 -1.528,-2.868L-4.318,-2.256C-4.523,-2.212 -4.667,-2.458 -4.523,-2.612L-2.602,-4.725C-2.523,-4.807 -2.523,-4.933 -2.602,-5.016L-4.523,-7.125C-4.667,-7.279 -4.523,-7.525 -4.318,-7.481L-1.528,-6.872C-1.419,-6.845 -1.309,-6.91 -1.275,-7.016L-0.41,-9.737C-0.345,-9.935 -0.062,-9.935 0,-9.737" style="fill:rgb(220,225,214);fill-rule:nonzero;"/>
            </g>
            <g transform="matrix(1,0,0,1,96.8132,78.5166)">
                <path d="M0,-9.737L0.868,-7.016C0.903,-6.91 1.009,-6.845 1.118,-6.872L3.908,-7.481C4.113,-7.525 4.257,-7.279 4.113,-7.125L2.188,-5.016C2.116,-4.933 2.116,-4.807 2.188,-4.725L4.113,-2.612C4.257,-2.458 4.113,-2.212 3.908,-2.256L1.118,-2.868C1.009,-2.889 0.903,-2.827 0.868,-2.725L0,-0.003C-0.062,0.198 -0.349,0.198 -0.41,-0.003L-1.275,-2.725C-1.309,-2.827 -1.419,-2.889 -1.532,-2.868L-4.318,-2.256C-4.523,-2.212 -4.667,-2.458 -4.523,-2.612L-2.602,-4.725C-2.527,-4.807 -2.527,-4.933 -2.602,-5.016L-4.523,-7.125C-4.667,-7.279 -4.523,-7.525 -4.318,-7.481L-1.532,-6.872C-1.419,-6.845 -1.309,-6.91 -1.275,-7.016L-0.41,-9.737C-0.349,-9.935 -0.062,-9.935 0,-9.737" style="fill:rgb(220,225,214);fill-rule:nonzero;"/>
            </g>
            <g transform="matrix(1,0,0,1,107.6781,78.5166)">
                <path d="M0,-9.737L0.868,-7.016C0.903,-6.91 1.009,-6.845 1.118,-6.872L3.908,-7.481C4.113,-7.525 4.253,-7.279 4.113,-7.125L2.188,-5.016C2.116,-4.933 2.116,-4.807 2.188,-4.725L4.113,-2.612C4.253,-2.458 4.113,-2.212 3.908,-2.256L1.118,-2.868C1.009,-2.889 0.903,-2.827 0.868,-2.725L0,-0.003C-0.065,0.198 -0.345,0.198 -0.414,-0.003L-1.275,-2.725C-1.309,-2.827 -1.422,-2.889 -1.528,-2.868L-4.318,-2.256C-4.523,-2.212 -4.667,-2.458 -4.523,-2.612L-2.602,-4.725C-2.523,-4.807 -2.523,-4.933 -2.602,-5.016L-4.523,-7.125C-4.667,-7.279 -4.523,-7.525 -4.318,-7.481L-1.528,-6.872C-1.422,-6.845 -1.309,-6.91 -1.275,-7.016L-0.414,-9.737C-0.345,-9.935 -0.065,-9.935 0,-9.737" style="fill:rgb(220,225,214);fill-rule:nonzero;"/>
            </g>
            <g transform="matrix(1,0,0,1,118.5429,78.5166)">
                <path d="M0,-9.737L0.868,-7.016C0.903,-6.91 1.009,-6.845 1.118,-6.872L3.908,-7.481C4.113,-7.525 4.253,-7.279 4.113,-7.125L2.188,-5.016C2.116,-4.933 2.116,-4.807 2.188,-4.725L4.113,-2.612C4.253,-2.458 4.113,-2.212 3.908,-2.256L1.118,-2.868C1.009,-2.889 0.903,-2.827 0.868,-2.725L0,-0.003C-0.062,0.198 -0.345,0.198 -0.41,-0.003L-1.275,-2.725C-1.309,-2.827 -1.419,-2.889 -1.528,-2.868L-4.318,-2.256C-4.523,-2.212 -4.667,-2.458 -4.523,-2.612L-2.602,-4.725C-2.523,-4.807 -2.523,-4.933 -2.602,-5.016L-4.523,-7.125C-4.667,-7.279 -4.523,-7.525 -4.318,-7.481L-1.528,-6.872C-1.419,-6.845 -1.309,-6.91 -1.275,-7.016L-0.41,-9.737C-0.345,-9.935 -0.062,-9.935 0,-9.737" style="fill:rgb(220,225,214);fill-rule:nonzero;"/>
            </g>
            <g transform="matrix(1,0,0,1,120.6024,66.47)">
                <path d="M0,-15.022L-0.048,-14.851C-0.051,-14.841 -0.352,-13.822 -0.67,-13.302C-1.128,-12.536 -2.472,-11.795 -3.436,-11.863L-3.436,-8.372L-3.357,-8.372C-2.708,-8.372 -1.983,-8.512 -1.347,-8.7L-1.347,-7.422C-1.347,-6.499 -1.607,-4.348 -3.997,-4.348C-5.077,-4.348 -5.733,-5.025 -6.113,-5.671C-5.901,-6.047 -5.795,-6.471 -5.795,-6.902C-5.795,-7.576 -6.055,-8.212 -6.537,-8.7C-7.016,-9.176 -7.655,-9.442 -8.335,-9.442C-9.73,-9.442 -10.869,-8.304 -10.869,-6.902C-10.869,-6.468 -10.759,-6.044 -10.551,-5.671C-10.93,-5.025 -11.59,-4.348 -12.667,-4.348C-15.057,-4.348 -15.317,-6.499 -15.317,-7.422L-15.317,-9.094C-15.217,-9.094 -15.122,-9.07 -15.029,-9.036C-14.004,-8.598 -12.934,-8.389 -12.127,-8.403L-12.127,-11.894C-13.105,-11.825 -14.431,-12.567 -14.893,-13.33C-15.228,-13.884 -15.426,-14.287 -15.508,-14.848L-15.535,-15.053L-18.831,-15.053L-18.879,-14.882C-18.882,-14.872 -19.183,-13.853 -19.501,-13.33C-19.963,-12.567 -21.3,-11.822 -22.267,-11.894L-22.267,-8.403C-21.324,-8.383 -20.185,-8.69 -19.443,-9.005C-19.32,-9.056 -19.19,-9.087 -19.053,-9.09L-19.053,-7.422C-19.053,-6.499 -19.296,-4.348 -21.689,-4.348C-22.763,-4.348 -23.419,-5.018 -23.799,-5.661C-23.583,-6.041 -23.474,-6.468 -23.474,-6.902C-23.474,-8.304 -24.613,-9.442 -26.014,-9.442C-27.413,-9.442 -28.551,-8.304 -28.551,-6.902C-28.551,-6.471 -28.442,-6.051 -28.237,-5.678C-28.616,-5.029 -29.272,-4.348 -30.356,-4.348C-32.746,-4.348 -33.002,-6.499 -33.002,-7.422C-33.002,-7.552 -32.989,-8.8 -32.989,-8.8L-32.985,-9.094L-32.965,-9.094C-32.869,-9.094 -32.77,-9.07 -32.681,-9.036C-31.655,-8.598 -30.589,-8.389 -29.778,-8.403L-29.778,-11.894C-30.756,-11.825 -32.086,-12.567 -32.548,-13.33C-32.883,-13.884 -33.078,-14.287 -33.16,-14.848L-33.187,-15.053L-36.531,-15.053L-36.561,-14.848C-36.64,-14.287 -36.835,-13.884 -37.173,-13.33C-37.632,-12.567 -38.962,-11.825 -39.939,-11.894L-39.939,-8.403C-39.132,-8.389 -38.062,-8.598 -37.037,-9.036C-36.948,-9.07 -36.849,-9.094 -36.75,-9.094L-36.732,-9.094L-36.732,-8.8C-36.732,-8.8 -36.715,-7.552 -36.715,-7.422C-36.715,-6.499 -36.968,-4.348 -39.362,-4.348C-40.449,-4.348 -41.102,-5.029 -41.485,-5.678C-41.276,-6.051 -41.17,-6.471 -41.17,-6.902C-41.17,-8.304 -42.305,-9.442 -43.707,-9.442C-45.105,-9.442 -46.244,-8.304 -46.244,-6.902C-46.244,-6.468 -46.134,-6.041 -45.919,-5.661C-46.302,-5.018 -46.955,-4.348 -48.028,-4.348C-50.422,-4.348 -50.664,-6.499 -50.664,-7.422L-50.664,-9.09C-50.528,-9.087 -50.398,-9.056 -50.275,-9.005C-49.533,-8.69 -48.398,-8.383 -47.454,-8.403L-47.454,-11.894C-48.418,-11.822 -49.758,-12.567 -50.22,-13.33C-50.538,-13.853 -50.835,-14.872 -50.839,-14.882L-50.887,-15.053L-54.182,-15.053L-54.213,-14.848C-54.292,-14.287 -54.49,-13.884 -54.829,-13.33C-55.287,-12.567 -56.617,-11.825 -57.594,-11.894L-57.594,-8.403C-56.788,-8.389 -55.714,-8.598 -54.692,-9.036C-54.596,-9.07 -54.5,-9.094 -54.401,-9.094L-54.401,-7.422C-54.401,-6.499 -54.661,-4.348 -57.054,-4.348C-58.131,-4.348 -58.788,-5.025 -59.167,-5.671C-58.959,-6.044 -58.849,-6.468 -58.849,-6.902C-58.849,-8.304 -59.988,-9.442 -61.383,-9.442C-62.066,-9.442 -62.702,-9.176 -63.184,-8.7C-63.66,-8.212 -63.926,-7.576 -63.926,-6.902C-63.926,-6.471 -63.817,-6.047 -63.608,-5.671C-63.988,-5.025 -64.644,-4.348 -65.721,-4.348C-68.111,-4.348 -68.374,-6.499 -68.374,-7.422L-68.374,-8.7C-67.738,-8.512 -67.013,-8.372 -66.36,-8.372L-66.282,-8.372L-66.282,-11.863C-67.249,-11.795 -68.59,-12.536 -69.051,-13.302C-69.369,-13.822 -69.666,-14.841 -69.673,-14.851L-69.721,-15.022L-72.778,-15.022L-72.778,-8.153C-72.778,-3.029 -70.179,0.031 -65.837,0.031C-63.943,0.031 -62.07,-1.104 -61.383,-1.562C-60.706,-1.104 -58.832,0.031 -56.938,0.031C-54.969,0.031 -53.215,-1.135 -52.541,-1.644C-51.864,-1.135 -50.121,0.031 -48.145,0.031C-46.254,0.031 -44.38,-1.104 -43.697,-1.562C-43.013,-1.104 -41.139,0.031 -39.249,0.031C-37.283,0.031 -35.543,-1.128 -34.859,-1.64C-34.179,-1.128 -32.435,0.031 -30.472,0.031C-28.578,0.031 -26.705,-1.104 -26.021,-1.562C-25.341,-1.104 -23.467,0.031 -21.573,0.031C-19.6,0.031 -17.853,-1.135 -17.176,-1.644C-16.503,-1.135 -14.749,0.031 -12.78,0.031C-10.889,0.031 -9.016,-1.104 -8.335,-1.562C-7.648,-1.104 -5.774,0.031 -3.884,0.031C0.462,0.031 3.06,-3.029 3.06,-8.153L3.06,-15.022L0,-15.022Z" style="fill:rgb(220,225,214);fill-rule:nonzero;"/>
            </g>
            <g transform="matrix(1,0,0,1,279.7355,166.6822)">
                <path d="M0,-68.077L-22.264,-45.413L-44.616,-68.077L-66.966,-68.077L-66.966,0L-44.616,0L-44.616,-22.667L-22.264,0L0,-22.667L0,0L22.353,0L22.353,-68.077L0,-68.077Z" style="fill:rgb(220,225,214);fill-rule:nonzero;"/>
            </g>
            <g transform="matrix(0.252975,0.967473,0.967473,-0.252975,225.457516,72.13216)">
                <path d="M-1.867,-18.571L20.867,-18.571L20.654,-1.529L-1.842,-14.503L-1.867,-18.571Z" style="fill:rgb(220,225,214);fill-rule:nonzero;"/>
            </g>
            <g transform="matrix(1,0,0,1,293.212,73.5182)">
                <path d="M0,-21.994L-12.407,-18.568L5.833,0L0,-21.994Z" style="fill:rgb(220,225,214);fill-rule:nonzero;"/>
            </g>
            <g transform="matrix(-0.700837,-0.713322,-0.713322,0.700837,279.625517,57.858538)">
                <path d="M-14.665,15.174L11.366,15.174L6.362,6.148L-19.662,6.146L-14.665,15.174Z" style="fill:rgb(220,225,214);fill-rule:nonzero;"/>
            </g>
            <g transform="matrix(-0.700778,-0.71338,-0.71338,0.700778,259.63242,63.366277)">
                <path d="M-14.633,15.103L11.395,15.103L6.28,6.081L-19.63,6.075L-14.633,15.103Z" style="fill:rgb(220,225,214);fill-rule:nonzero;"/>
            </g>
            <g transform="matrix(-0.700778,-0.71338,-0.71338,0.700778,239.66552,68.801977)">
                <path d="M-14.633,15.103L11.395,15.103L6.28,6.081L-19.632,6.077L-14.633,15.103Z" style="fill:rgb(220,225,214);fill-rule:nonzero;"/>
            </g>
            <g transform="matrix(1,0,0,1,393.7889,56.9943)">
                <path d="M0,54.829L-23.806,54.829L-23.806,52.087C-22.944,52.06 -21.836,51.967 -20.479,51.814C-19.125,51.663 -18.202,51.441 -17.689,51.157C-16.91,50.672 -16.332,50.111 -15.966,49.475C-15.594,48.843 -15.412,48.053 -15.412,47.106L-15.412,7.225L-15.98,7.225L-34.36,53.94L-36.261,53.94L-53.758,6.26L-54.251,6.26L-54.251,38.986C-54.251,42.152 -54.052,44.562 -53.659,46.21C-53.27,47.861 -52.671,49.044 -51.858,49.769C-51.307,50.309 -50.152,50.825 -48.405,51.311C-46.657,51.803 -45.519,52.06 -44.986,52.087L-44.986,54.829L-66.74,54.829L-66.74,52.087C-65.605,51.985 -64.408,51.793 -63.154,51.502C-61.902,51.225 -60.931,50.802 -60.251,50.234C-59.369,49.509 -58.757,48.402 -58.429,46.907C-58.1,45.417 -57.933,42.918 -57.933,39.41L-57.933,11.361C-57.933,9.734 -58.124,8.411 -58.504,7.378C-58.883,6.353 -59.43,5.515 -60.138,4.869C-60.921,4.175 -61.882,3.662 -63.024,3.32C-64.159,2.992 -65.284,2.794 -66.401,2.742L-66.401,0L-48.032,0L-32.599,41.157L-19.426,6.729C-18.947,5.464 -18.537,4.141 -18.192,2.763C-17.85,1.385 -17.669,0.465 -17.645,0L-0.079,0L-0.079,2.742C-0.786,2.77 -1.689,2.886 -2.79,3.088C-3.894,3.3 -4.694,3.491 -5.2,3.672C-6.062,3.983 -6.646,4.5 -6.951,5.214C-7.251,5.939 -7.405,6.725 -7.405,7.577L-7.405,47.106C-7.405,48.008 -7.251,48.76 -6.951,49.379C-6.646,50.002 -6.062,50.538 -5.2,51.003C-4.745,51.26 -3.935,51.499 -2.773,51.714C-1.607,51.937 -0.68,52.06 0,52.087L0,54.829Z" style="fill:rgb(220,225,214);fill-rule:nonzero;"/>
            </g>
            <g transform="matrix(1,0,0,1,420.3167,94.7088)">
                <path d="M0,-3.983C-2.154,-3.337 -4.038,-2.708 -5.655,-2.089C-7.275,-1.463 -8.783,-0.687 -10.171,0.236C-11.443,1.115 -12.438,2.15 -13.173,3.354C-13.911,4.557 -14.274,5.983 -14.274,7.631C-14.274,9.778 -13.723,11.347 -12.619,12.359C-11.525,13.368 -10.12,13.867 -8.428,13.867C-6.629,13.867 -5.05,13.423 -3.682,12.53C-2.315,11.641 -1.162,10.588 -0.226,9.375L0,-3.983ZM13.252,16.417C12.058,16.858 11.019,17.214 10.116,17.477C9.217,17.751 8.198,17.884 7.063,17.884C5.087,17.884 3.511,17.416 2.339,16.476C1.156,15.535 0.403,14.168 0.079,12.359L-0.15,12.359C-1.798,14.219 -3.563,15.635 -5.446,16.609C-7.333,17.59 -9.604,18.082 -12.264,18.082C-15.074,18.082 -17.382,17.204 -19.194,15.453C-21.002,13.703 -21.905,11.409 -21.905,8.575C-21.905,7.108 -21.703,5.792 -21.296,4.636C-20.893,3.474 -20.288,2.431 -19.471,1.504C-18.841,0.732 -18.011,0.041 -16.968,-0.564C-15.929,-1.169 -14.958,-1.648 -14.045,-2.01C-12.903,-2.448 -10.595,-3.262 -7.122,-4.448C-3.634,-5.631 -1.292,-6.561 -0.079,-7.231L-0.079,-11.053C-0.079,-11.388 -0.144,-12.034 -0.284,-12.985C-0.424,-13.939 -0.718,-14.841 -1.176,-15.689C-1.682,-16.643 -2.397,-17.477 -3.32,-18.182C-4.243,-18.889 -5.556,-19.248 -7.248,-19.248C-8.41,-19.248 -9.494,-19.047 -10.496,-18.643C-11.494,-18.247 -12.202,-17.826 -12.605,-17.392C-12.605,-16.876 -12.486,-16.113 -12.243,-15.111C-12,-14.103 -11.881,-13.18 -11.881,-12.328C-11.881,-11.422 -12.284,-10.602 -13.074,-9.853C-13.874,-9.104 -14.982,-8.732 -16.4,-8.732C-17.665,-8.732 -18.595,-9.193 -19.194,-10.106C-19.788,-11.022 -20.082,-12.045 -20.082,-13.18C-20.082,-14.363 -19.669,-15.498 -18.848,-16.578C-18.028,-17.662 -16.958,-18.626 -15.641,-19.481C-14.499,-20.195 -13.122,-20.811 -11.505,-21.313C-9.884,-21.812 -8.304,-22.065 -6.759,-22.065C-4.633,-22.065 -2.776,-21.915 -1.197,-21.621C0.386,-21.327 1.822,-20.688 3.115,-19.71C4.404,-18.756 5.385,-17.46 6.058,-15.829C6.728,-14.192 7.063,-12.086 7.063,-9.508C7.063,-5.822 7.029,-2.557 6.951,0.287C6.872,3.132 6.838,6.246 6.838,9.617C6.838,10.619 7.009,11.426 7.347,12.014C7.689,12.609 8.216,13.108 8.923,13.522C9.299,13.754 9.904,13.884 10.725,13.908C11.552,13.935 12.387,13.946 13.252,13.946L13.252,16.417Z" style="fill:rgb(220,225,214);fill-rule:nonzero;"/>
            </g>
            <g transform="matrix(1,0,0,1,464.5443,60.4706)">
                <path d="M0,43.97L0,21.679C-0.202,21.005 -0.527,20.291 -0.988,19.515C-1.439,18.739 -2.003,18.031 -2.684,17.388C-3.419,16.745 -4.28,16.209 -5.262,15.788C-6.25,15.364 -7.398,15.145 -8.711,15.145C-10.229,15.145 -11.624,15.549 -12.899,16.345C-14.175,17.145 -15.306,18.291 -16.291,19.785C-17.228,21.228 -17.963,23.064 -18.506,25.289C-19.05,27.518 -19.324,29.987 -19.324,32.688C-19.324,34.855 -19.122,36.818 -18.718,38.578C-18.312,40.346 -17.628,41.994 -16.667,43.512C-15.785,44.955 -14.653,46.114 -13.276,46.985C-11.901,47.864 -10.267,48.298 -8.369,48.298C-6.352,48.298 -4.677,47.847 -3.351,46.944C-2.024,46.045 -0.909,45.054 0,43.97M13.747,50.657L0.65,51.509L0.079,50.965L0.079,47.409L-0.226,47.331C-1.539,48.828 -3.166,50.052 -5.098,51.003C-7.033,51.953 -9.022,52.432 -11.067,52.432C-13.193,52.432 -15.241,51.946 -17.231,50.989C-19.214,50.018 -20.937,48.664 -22.404,46.907C-23.891,45.132 -25.074,42.996 -25.949,40.496C-26.821,37.997 -27.259,35.238 -27.259,32.226C-27.259,29.471 -26.79,26.859 -25.854,24.383C-24.92,21.911 -23.628,19.747 -21.987,17.894C-20.441,16.168 -18.558,14.786 -16.318,13.757C-14.082,12.728 -11.799,12.212 -9.477,12.212C-7.73,12.212 -6.021,12.434 -4.342,12.889C-2.66,13.34 -1.207,13.911 0,14.609L0,1.33C0,0.243 -0.174,-0.742 -0.527,-1.634C-0.882,-2.523 -1.378,-3.2 -2.007,-3.665C-2.721,-4.154 -3.675,-4.513 -4.879,-4.728C-6.079,-4.951 -7.378,-5.111 -8.769,-5.214L-8.769,-7.611L6.568,-8.462L7.142,-7.877L7.142,43.474C7.142,44.377 7.313,45.136 7.651,45.772C7.993,46.401 8.492,46.934 9.149,47.372C9.631,47.683 10.328,47.874 11.241,47.95C12.151,48.028 12.985,48.079 13.747,48.107L13.747,50.657Z" style="fill:rgb(220,225,214);fill-rule:nonzero;"/>
            </g>
            <g transform="matrix(1,0,0,1,510.5966,105.9865)">
                <path d="M0,-27.354C0,-26.041 -0.315,-24.875 -0.951,-23.86C-1.58,-22.841 -2.557,-22.328 -3.874,-22.328C-5.289,-22.328 -6.373,-22.708 -7.122,-23.45C-7.863,-24.198 -8.236,-25.019 -8.236,-25.925C-8.236,-26.492 -8.195,-27.009 -8.106,-27.467C-8.017,-27.932 -7.935,-28.397 -7.86,-28.862C-9.046,-28.862 -10.441,-28.373 -12.038,-27.395C-13.628,-26.414 -14.985,-25.019 -16.096,-23.224L-16.096,-1.039C-16.096,-0.136 -15.925,0.599 -15.583,1.159C-15.241,1.727 -14.705,2.158 -13.97,2.435C-13.337,2.695 -12.523,2.889 -11.525,3.012C-10.523,3.149 -9.655,3.235 -8.923,3.286L-8.923,5.836L-28.664,5.836L-28.664,3.286C-28.079,3.235 -27.481,3.183 -26.862,3.132C-26.236,3.081 -25.7,2.978 -25.245,2.824C-24.537,2.589 -24.011,2.189 -23.669,1.607C-23.33,1.03 -23.159,0.277 -23.159,-0.653L-23.159,-24.154C-23.159,-24.947 -23.341,-25.737 -23.707,-26.506C-24.072,-27.275 -24.589,-27.898 -25.245,-28.359C-25.727,-28.667 -26.298,-28.892 -26.954,-29.036C-27.614,-29.176 -28.322,-29.269 -29.081,-29.327L-29.081,-31.874L-16.626,-32.725L-16.096,-32.181L-16.096,-26.81L-15.908,-26.81C-14.339,-28.899 -12.595,-30.482 -10.667,-31.566C-8.749,-32.646 -6.985,-33.19 -5.392,-33.19C-3.795,-33.19 -2.499,-32.664 -1.504,-31.604C-0.503,-30.551 0,-29.132 0,-27.354" style="fill:rgb(220,225,214);fill-rule:nonzero;"/>
            </g>
            <g transform="matrix(1,0,0,1,527.1881,106.8826)">
                <path d="M0,-48.654C0,-47.18 -0.475,-45.902 -1.426,-44.808C-2.369,-43.714 -3.549,-43.167 -4.937,-43.167C-6.226,-43.167 -7.347,-43.686 -8.294,-44.729C-9.248,-45.772 -9.716,-46.965 -9.716,-48.302C-9.716,-49.724 -9.248,-50.958 -8.294,-52.011C-7.347,-53.068 -6.226,-53.594 -4.937,-53.594C-3.491,-53.594 -2.308,-53.099 -1.385,-52.114C-0.465,-51.116 0,-49.967 0,-48.654M4.745,4.94L-13.327,4.94L-13.327,2.39C-12.746,2.339 -12.144,2.291 -11.525,2.236C-10.899,2.181 -10.363,2.079 -9.908,1.925C-9.2,1.696 -8.674,1.289 -8.335,0.711C-7.99,0.133 -7.822,-0.622 -7.822,-1.545L-7.822,-25.05C-7.822,-25.871 -8.004,-26.626 -8.37,-27.307C-8.739,-27.99 -9.255,-28.561 -9.908,-29.026C-10.39,-29.33 -11.087,-29.601 -11.997,-29.816C-12.91,-30.035 -13.747,-30.168 -14.503,-30.219L-14.503,-32.77L-1.292,-33.621L-0.759,-33.081L-0.759,-2.014C-0.759,-1.111 -0.588,-0.369 -0.253,0.226C0.089,0.821 0.619,1.258 1.354,1.542C1.904,1.774 2.448,1.959 2.974,2.099C3.501,2.246 4.089,2.339 4.745,2.39L4.745,4.94Z" style="fill:rgb(220,225,214);fill-rule:nonzero;"/>
            </g>
            <g transform="matrix(1,0,0,1,563.8214,60.4706)">
                <path d="M0,43.97L0,21.679C-0.202,21.005 -0.527,20.291 -0.981,19.515C-1.436,18.739 -2.007,18.031 -2.684,17.388C-3.419,16.745 -4.28,16.209 -5.262,15.788C-6.25,15.364 -7.398,15.145 -8.711,15.145C-10.229,15.145 -11.624,15.549 -12.899,16.345C-14.175,17.145 -15.306,18.291 -16.291,19.785C-17.228,21.228 -17.966,23.064 -18.506,25.289C-19.05,27.518 -19.324,29.987 -19.324,32.688C-19.324,34.855 -19.122,36.818 -18.718,38.578C-18.312,40.346 -17.628,41.994 -16.667,43.512C-15.785,44.955 -14.653,46.114 -13.276,46.985C-11.901,47.864 -10.267,48.298 -8.369,48.298C-6.352,48.298 -4.677,47.847 -3.351,46.944C-2.024,46.045 -0.909,45.054 0,43.97M13.747,50.657L0.65,51.509L0.079,50.965L0.079,47.409L-0.226,47.331C-1.539,48.828 -3.166,50.052 -5.098,51.003C-7.033,51.953 -9.022,52.432 -11.067,52.432C-13.193,52.432 -15.241,51.946 -17.231,50.989C-19.214,50.018 -20.937,48.664 -22.404,46.907C-23.891,45.132 -25.074,42.996 -25.949,40.496C-26.821,37.997 -27.259,35.238 -27.259,32.226C-27.259,29.471 -26.79,26.859 -25.854,24.383C-24.92,21.911 -23.628,19.747 -21.987,17.894C-20.441,16.168 -18.558,14.786 -16.318,13.757C-14.082,12.728 -11.799,12.212 -9.477,12.212C-7.73,12.212 -6.021,12.434 -4.342,12.889C-2.66,13.34 -1.207,13.911 0,14.609L0,1.33C0,0.243 -0.174,-0.742 -0.527,-1.634C-0.882,-2.523 -1.378,-3.2 -2.007,-3.665C-2.721,-4.154 -3.675,-4.513 -4.879,-4.728C-6.079,-4.951 -7.378,-5.111 -8.769,-5.214L-8.769,-7.611L6.568,-8.462L7.142,-7.877L7.142,43.474C7.142,44.377 7.313,45.136 7.651,45.772C7.993,46.401 8.492,46.934 9.149,47.372C9.631,47.683 10.328,47.874 11.241,47.95C12.151,48.028 12.988,48.079 13.747,48.107L13.747,50.657Z" style="fill:rgb(220,225,214);fill-rule:nonzero;"/>
            </g>
            <g transform="matrix(1,0,0,1,355.639,157.6994)">
                <path d="M0,-17.921L-1.863,-17.921C-2.209,-19.254 -2.937,-20.68 -4.038,-22.191C-5.139,-23.709 -6.195,-24.547 -7.204,-24.697C-7.72,-24.762 -8.325,-24.813 -9.033,-24.851C-9.734,-24.882 -10.534,-24.896 -11.426,-24.896L-17.341,-24.896L-17.341,-10.492L-13.282,-10.492C-12.052,-10.492 -11.098,-10.618 -10.414,-10.878C-9.74,-11.141 -9.156,-11.545 -8.674,-12.082C-8.339,-12.454 -8.041,-13.032 -7.768,-13.812C-7.487,-14.594 -7.313,-15.432 -7.231,-16.331L-5.364,-16.331L-5.364,-2.225L-7.231,-2.225C-7.282,-2.963 -7.446,-3.804 -7.74,-4.748C-8.031,-5.692 -8.339,-6.375 -8.674,-6.799C-9.169,-7.418 -9.795,-7.846 -10.554,-8.075C-11.31,-8.3 -12.219,-8.417 -13.282,-8.417L-17.341,-8.417L-17.341,3.926C-17.341,4.483 -17.231,4.979 -17.016,5.42C-16.804,5.854 -16.421,6.209 -15.874,6.476C-15.624,6.596 -15.088,6.736 -14.257,6.907C-13.429,7.078 -12.8,7.17 -12.373,7.184L-12.373,8.975L-27.645,8.975L-27.645,7.184C-27.149,7.15 -26.489,7.098 -25.662,7.02C-24.831,6.941 -24.295,6.849 -24.048,6.729C-23.553,6.507 -23.19,6.182 -22.961,5.755C-22.742,5.327 -22.626,4.804 -22.626,4.199L-22.626,-21.692C-22.626,-22.242 -22.722,-22.738 -22.906,-23.169C-23.088,-23.596 -23.471,-23.948 -24.048,-24.215C-24.493,-24.434 -25.095,-24.629 -25.843,-24.8C-26.602,-24.964 -27.204,-25.066 -27.645,-25.104L-27.645,-26.896L0,-26.896L0,-17.921Z" style="fill:rgb(220,225,214);fill-rule:nonzero;"/>
            </g>
            <g transform="matrix(1,0,0,1,366.8933,163.4415)">
                <path d="M0,-31.829C0,-30.868 -0.311,-30.027 -0.933,-29.313C-1.556,-28.598 -2.318,-28.239 -3.234,-28.239C-4.075,-28.239 -4.807,-28.581 -5.426,-29.261C-6.051,-29.949 -6.363,-30.725 -6.363,-31.603C-6.363,-32.526 -6.051,-33.337 -5.426,-34.027C-4.807,-34.721 -4.075,-35.067 -3.234,-35.067C-2.287,-35.067 -1.515,-34.742 -0.909,-34.089C-0.304,-33.439 0,-32.691 0,-31.829M3.104,3.238L-8.722,3.238L-8.722,1.57C-8.339,1.532 -7.945,1.502 -7.539,1.467C-7.135,1.437 -6.786,1.368 -6.486,1.266C-6.021,1.115 -5.675,0.845 -5.453,0.469C-5.231,0.093 -5.118,-0.403 -5.118,-1.008L-5.118,-16.386C-5.118,-16.926 -5.241,-17.418 -5.48,-17.863C-5.716,-18.311 -6.051,-18.683 -6.486,-18.988C-6.8,-19.189 -7.255,-19.36 -7.85,-19.504C-8.448,-19.648 -8.995,-19.736 -9.491,-19.771L-9.491,-21.439L-0.848,-21.993L-0.503,-21.641L-0.503,-1.312C-0.503,-0.724 -0.386,-0.239 -0.164,0.151C0.058,0.541 0.407,0.825 0.882,1.013C1.244,1.163 1.6,1.286 1.942,1.379C2.287,1.471 2.674,1.532 3.104,1.57L3.104,3.238Z" style="fill:rgb(220,225,214);fill-rule:nonzero;"/>
            </g>
            <g transform="matrix(1,0,0,1,384.5039,127.5425)">
                <path d="M0,39.136L-11.949,39.136L-11.949,37.468C-11.566,37.433 -11.163,37.396 -10.728,37.355C-10.301,37.314 -9.946,37.245 -9.662,37.163C-9.2,37.013 -8.851,36.746 -8.619,36.367C-8.39,35.987 -8.274,35.495 -8.274,34.886L-8.274,5.997C-8.274,5.385 -8.4,4.817 -8.66,4.287C-8.913,3.754 -9.248,3.34 -9.662,3.036C-9.959,2.831 -10.506,2.643 -11.303,2.479C-12.099,2.308 -12.739,2.209 -13.214,2.174L-13.214,0.554L-4,0L-3.651,0.376L-3.651,34.585C-3.651,35.177 -3.542,35.662 -3.33,36.038C-3.115,36.421 -2.766,36.709 -2.287,36.91C-1.921,37.081 -1.559,37.204 -1.203,37.293C-0.848,37.375 -0.448,37.433 0,37.468L0,39.136Z" style="fill:rgb(220,225,214);fill-rule:nonzero;"/>
            </g>
            <g transform="matrix(1,0,0,1,429.4905,141.0675)">
                <path d="M0,25.611L-11.922,25.611L-11.922,23.943C-11.546,23.908 -11.159,23.874 -10.766,23.84C-10.38,23.809 -10.038,23.741 -9.74,23.638C-9.275,23.488 -8.934,23.221 -8.704,22.842C-8.486,22.462 -8.369,21.97 -8.369,21.361L-8.369,8.493C-8.369,6.742 -8.763,5.392 -9.552,4.441C-10.339,3.484 -11.32,3.009 -12.496,3.009C-13.306,3.009 -14.072,3.135 -14.78,3.385C-15.498,3.638 -16.147,3.997 -16.746,4.452C-17.228,4.821 -17.624,5.221 -17.949,5.655C-18.27,6.082 -18.517,6.438 -18.681,6.722L-18.681,21.108C-18.681,21.703 -18.578,22.189 -18.383,22.565C-18.182,22.948 -17.847,23.235 -17.364,23.437C-16.982,23.587 -16.643,23.707 -16.332,23.778C-16.028,23.854 -15.624,23.908 -15.129,23.943L-15.129,25.611L-26.804,25.611L-26.804,23.943C-26.421,23.908 -26.055,23.874 -25.7,23.84C-25.344,23.809 -25.019,23.741 -24.718,23.638C-24.254,23.488 -23.908,23.221 -23.686,22.842C-23.464,22.462 -23.351,21.97 -23.351,21.361L-23.351,8.493C-23.351,6.742 -23.744,5.392 -24.534,4.441C-25.324,3.484 -26.305,3.009 -27.488,3.009C-28.298,3.009 -29.06,3.139 -29.775,3.402C-30.493,3.658 -31.143,4.021 -31.741,4.475C-32.22,4.848 -32.63,5.265 -32.961,5.727C-33.296,6.192 -33.543,6.54 -33.707,6.773L-33.707,21.06C-33.707,21.635 -33.594,22.117 -33.361,22.503C-33.129,22.89 -32.784,23.184 -32.319,23.385C-31.97,23.556 -31.618,23.679 -31.252,23.768C-30.89,23.85 -30.483,23.908 -30.031,23.943L-30.031,25.611L-41.929,25.611L-41.929,23.943C-41.553,23.908 -41.16,23.874 -40.753,23.84C-40.343,23.809 -39.994,23.741 -39.693,23.638C-39.235,23.488 -38.886,23.221 -38.668,22.842C-38.445,22.466 -38.329,21.977 -38.329,21.365L-38.329,5.884C-38.329,5.347 -38.449,4.862 -38.691,4.434C-38.931,4.007 -39.266,3.638 -39.693,3.334C-40.015,3.135 -40.401,2.975 -40.859,2.845C-41.324,2.722 -41.806,2.636 -42.305,2.602L-42.305,0.934L-34.107,0.38L-33.761,0.732L-33.761,4.301L-33.584,4.301C-33.17,3.877 -32.664,3.381 -32.073,2.807C-31.474,2.236 -30.92,1.771 -30.404,1.412C-29.826,1.012 -29.101,0.677 -28.23,0.407C-27.361,0.137 -26.421,0 -25.409,0C-23.819,0 -22.459,0.434 -21.317,1.299C-20.168,2.168 -19.347,3.221 -18.852,4.452C-18.26,3.86 -17.737,3.34 -17.279,2.896C-16.828,2.448 -16.226,1.973 -15.481,1.467C-14.855,1.026 -14.113,0.677 -13.262,0.407C-12.407,0.137 -11.464,0 -10.421,0C-8.356,0 -6.718,0.691 -5.511,2.075C-4.308,3.46 -3.703,5.58 -3.703,8.448L-3.703,21.108C-3.703,21.703 -3.603,22.189 -3.402,22.565C-3.2,22.948 -2.865,23.235 -2.386,23.437C-2.003,23.587 -1.627,23.707 -1.255,23.778C-0.882,23.854 -0.465,23.908 0,23.943L0,25.611Z" style="fill:rgb(220,225,214);fill-rule:nonzero;"/>
            </g>
            <g transform="matrix(1,0,0,1,466.1628,137.0048)">
                <path d="M0,23.477C0.93,21.949 1.6,20.209 2.024,18.273C2.448,16.335 2.66,14.167 2.66,11.774C2.66,9.313 2.421,7.056 1.952,5.001C1.48,2.94 0.786,1.189 -0.123,-0.26C-1.033,-1.693 -2.178,-2.811 -3.552,-3.611C-4.927,-4.411 -6.503,-4.811 -8.274,-4.811C-10.26,-4.811 -11.949,-4.346 -13.337,-3.419C-14.732,-2.493 -15.864,-1.252 -16.742,0.297C-17.573,1.781 -18.185,3.514 -18.588,5.501C-18.999,7.494 -19.204,9.583 -19.204,11.774C-19.204,14.198 -18.988,16.393 -18.558,18.349C-18.123,20.301 -17.447,22.038 -16.52,23.556C-15.624,25.036 -14.499,26.198 -13.142,27.029C-11.785,27.867 -10.158,28.284 -8.274,28.284C-6.503,28.284 -4.899,27.86 -3.474,27.019C-2.055,26.178 -0.892,24.995 0,23.477M3.703,-1.956C5.258,-0.301 6.475,1.692 7.354,4.024C8.229,6.359 8.67,8.94 8.67,11.774C8.67,14.622 8.226,17.207 7.327,19.538C6.434,21.86 5.193,23.843 3.603,25.477C2.062,27.098 0.273,28.342 -1.761,29.221C-3.802,30.096 -5.969,30.537 -8.274,30.537C-10.725,30.537 -12.988,30.065 -15.064,29.132C-17.142,28.192 -18.923,26.896 -20.418,25.221C-21.908,23.59 -23.081,21.607 -23.932,19.268C-24.787,16.933 -25.214,14.441 -25.214,11.774C-25.214,8.858 -24.766,6.263 -23.871,3.972C-22.978,1.692 -21.744,-0.288 -20.168,-1.956C-18.616,-3.607 -16.804,-4.872 -14.742,-5.744C-12.684,-6.623 -10.523,-7.06 -8.274,-7.06C-5.939,-7.06 -3.733,-6.613 -1.662,-5.724C0.407,-4.824 2.195,-3.57 3.703,-1.956" style="fill:rgb(220,225,214);fill-rule:nonzero;"/>
            </g>
            <g transform="matrix(1,0,0,1,496.8421,163.6455)">
                <path d="M0,-33.07C0,-32.311 -0.202,-31.672 -0.598,-31.149C-0.992,-30.629 -1.6,-30.362 -2.41,-30.362C-2.923,-30.362 -3.378,-30.472 -3.764,-30.694C-4.151,-30.913 -4.513,-31.207 -4.845,-31.579C-5.173,-31.949 -5.484,-32.369 -5.761,-32.844C-6.048,-33.313 -6.284,-33.689 -6.486,-33.979C-7.597,-33.932 -8.451,-33.142 -9.057,-31.62C-9.662,-30.102 -9.959,-27.675 -9.959,-24.345L-9.959,-21.791L-3.651,-21.791L-3.651,-19.364L-9.959,-19.364L-9.959,-1.469C-9.959,-0.874 -9.853,-0.396 -9.624,-0.027C-9.402,0.343 -9.053,0.623 -8.571,0.808C-8.175,0.958 -7.641,1.085 -6.981,1.177C-6.322,1.269 -5.747,1.331 -5.265,1.362L-5.265,3.033L-18.182,3.033L-18.182,1.362C-17.806,1.331 -17.412,1.3 -17.006,1.262C-16.595,1.228 -16.243,1.16 -15.946,1.061C-15.488,0.907 -15.139,0.644 -14.917,0.267C-14.694,-0.115 -14.582,-0.611 -14.582,-1.216L-14.582,-19.364L-19.426,-19.364L-19.426,-21.791L-14.582,-21.791L-14.582,-23.384C-14.582,-27.172 -13.617,-30.236 -11.689,-32.585C-9.758,-34.93 -7.344,-36.103 -4.445,-36.103C-2.974,-36.103 -1.863,-35.805 -1.121,-35.217C-0.373,-34.629 0,-33.911 0,-33.07" style="fill:rgb(220,225,214);fill-rule:nonzero;"/>
            </g>
            <g transform="matrix(1,0,0,1,516.4374,163.6455)">
                <path d="M0,-33.07C0,-32.311 -0.202,-31.672 -0.598,-31.149C-0.992,-30.629 -1.6,-30.362 -2.41,-30.362C-2.923,-30.362 -3.378,-30.472 -3.764,-30.694C-4.151,-30.913 -4.513,-31.207 -4.845,-31.579C-5.173,-31.949 -5.484,-32.369 -5.764,-32.844C-6.048,-33.313 -6.284,-33.689 -6.482,-33.979C-7.597,-33.932 -8.455,-33.142 -9.057,-31.62C-9.662,-30.102 -9.963,-27.675 -9.963,-24.345L-9.963,-21.791L-3.651,-21.791L-3.651,-19.364L-9.963,-19.364L-9.963,-1.469C-9.963,-0.874 -9.853,-0.396 -9.624,-0.027C-9.402,0.343 -9.053,0.623 -8.571,0.808C-8.175,0.958 -7.641,1.085 -6.981,1.177C-6.322,1.269 -5.747,1.331 -5.269,1.362L-5.269,3.033L-18.182,3.033L-18.182,1.362C-17.806,1.331 -17.406,1.3 -17.006,1.262C-16.595,1.228 -16.247,1.16 -15.946,1.061C-15.488,0.907 -15.139,0.644 -14.917,0.267C-14.694,-0.115 -14.582,-0.611 -14.582,-1.216L-14.582,-19.364L-19.426,-19.364L-19.426,-21.791L-14.582,-21.791L-14.582,-23.384C-14.582,-27.172 -13.617,-30.236 -11.689,-32.585C-9.761,-34.93 -7.344,-36.103 -4.445,-36.103C-2.974,-36.103 -1.863,-35.805 -1.115,-35.217C-0.373,-34.629 0,-33.911 0,-33.07" style="fill:rgb(220,225,214);fill-rule:nonzero;"/>
            </g>
            <g transform="matrix(1,0,0,1,526.571,163.4415)">
                <path d="M0,-31.829C0,-30.868 -0.311,-30.027 -0.933,-29.313C-1.556,-28.598 -2.325,-28.239 -3.231,-28.239C-4.075,-28.239 -4.807,-28.581 -5.426,-29.261C-6.051,-29.949 -6.363,-30.725 -6.363,-31.603C-6.363,-32.526 -6.051,-33.337 -5.426,-34.027C-4.807,-34.721 -4.075,-35.067 -3.231,-35.067C-2.287,-35.067 -1.515,-34.742 -0.909,-34.089C-0.304,-33.439 0,-32.691 0,-31.829M3.104,3.238L-8.722,3.238L-8.722,1.57C-8.339,1.532 -7.945,1.502 -7.539,1.467C-7.135,1.437 -6.78,1.368 -6.486,1.266C-6.021,1.115 -5.675,0.845 -5.453,0.469C-5.231,0.093 -5.118,-0.403 -5.118,-1.008L-5.118,-16.386C-5.118,-16.926 -5.241,-17.418 -5.477,-17.863C-5.716,-18.311 -6.051,-18.683 -6.486,-18.988C-6.8,-19.189 -7.255,-19.36 -7.85,-19.504C-8.448,-19.648 -8.995,-19.736 -9.491,-19.771L-9.491,-21.439L-0.848,-21.993L-0.499,-21.641L-0.499,-1.312C-0.499,-0.724 -0.386,-0.239 -0.164,0.151C0.058,0.541 0.407,0.825 0.882,1.013C1.244,1.163 1.6,1.286 1.942,1.379C2.287,1.471 2.674,1.532 3.104,1.57L3.104,3.238Z" style="fill:rgb(220,225,214);fill-rule:nonzero;"/>
            </g>
            <g transform="matrix(1,0,0,1,544.0325,141.0403)">
                <path d="M0,26.295C-3.542,26.295 -6.322,25.098 -8.325,22.705C-10.328,20.312 -11.33,17.105 -11.33,13.071C-11.33,11.32 -11.057,9.683 -10.516,8.154C-9.98,6.633 -9.2,5.242 -8.175,3.997C-7.197,2.8 -5.969,1.833 -4.496,1.101C-3.019,0.37 -1.415,0 0.325,0C2.721,0 4.677,0.585 6.185,1.758C7.693,2.93 8.448,4.53 8.448,6.548C8.448,7.395 8.246,8.141 7.85,8.784C7.453,9.437 6.797,9.761 5.887,9.761C4.909,9.761 4.151,9.508 3.614,9.006C3.077,8.5 2.81,7.939 2.81,7.317C2.81,6.558 2.906,5.785 3.104,4.985C3.306,4.185 3.419,3.607 3.453,3.235C3.156,2.712 2.711,2.366 2.127,2.192C1.539,2.011 0.909,1.922 0.232,1.922C-0.564,1.922 -1.316,2.1 -2.034,2.445C-2.752,2.783 -3.45,3.426 -4.13,4.349C-4.739,5.197 -5.234,6.332 -5.614,7.761C-5.993,9.197 -6.185,10.907 -6.185,12.896C-6.185,16.028 -5.504,18.592 -4.14,20.568C-2.773,22.551 -0.985,23.536 1.231,23.536C2.834,23.536 4.178,23.139 5.262,22.346C6.342,21.55 7.347,20.356 8.277,18.76L9.863,19.826C8.769,21.813 7.327,23.389 5.542,24.551C3.75,25.71 1.904,26.295 0,26.295" style="fill:rgb(220,225,214);fill-rule:nonzero;"/>
            </g>
            <g transform="matrix(1,0,0,1,572.0783,157.0679)">
                <path d="M0,-5.761C0,-6.701 -0.079,-7.706 -0.239,-8.787C-0.393,-9.86 -0.646,-10.759 -0.992,-11.484C-1.374,-12.257 -1.894,-12.886 -2.557,-13.371C-3.224,-13.864 -4.075,-14.106 -5.118,-14.106C-6.858,-14.106 -8.305,-13.371 -9.45,-11.901C-10.605,-10.428 -11.231,-8.383 -11.33,-5.761L0,-5.761ZM5.487,3.743C4.462,5.733 3.087,7.32 1.367,8.496C-0.356,9.679 -2.335,10.267 -4.571,10.267C-6.544,10.267 -8.267,9.915 -9.751,9.203C-11.231,8.496 -12.455,7.535 -13.416,6.321C-14.376,5.108 -15.094,3.692 -15.563,2.078C-16.038,0.455 -16.27,-1.255 -16.27,-3.057C-16.27,-4.67 -16.018,-6.264 -15.511,-7.823C-15.005,-9.382 -14.267,-10.787 -13.293,-12.031C-12.346,-13.228 -11.173,-14.192 -9.775,-14.927C-8.376,-15.659 -6.807,-16.028 -5.07,-16.028C-3.279,-16.028 -1.751,-15.737 -0.472,-15.163C0.8,-14.592 1.839,-13.812 2.632,-12.814C3.391,-11.871 3.959,-10.759 4.332,-9.481C4.708,-8.199 4.896,-6.804 4.896,-5.306L4.896,-3.638L-11.33,-3.638C-11.33,-2.004 -11.173,-0.51 -10.869,0.824C-10.561,2.161 -10.079,3.333 -9.412,4.345C-8.769,5.326 -7.925,6.096 -6.882,6.663C-5.839,7.231 -4.595,7.515 -3.156,7.515C-1.682,7.515 -0.407,7.159 0.656,6.455C1.723,5.754 2.756,4.489 3.747,2.656L5.487,3.743Z" style="fill:rgb(220,225,214);fill-rule:nonzero;"/>
            </g>
        </g>
    </g>
</svg>
