<?xml version="1.0" encoding="UTF-8" standalone="no"?>
<!DOCTYPE svg PUBLIC "-//W3C//DTD SVG 1.1//EN" "http://www.w3.org/Graphics/SVG/1.1/DTD/svg11.dtd">
<svg width="100%" height="100%" viewBox="0 0 843 427" version="1.1" xmlns="http://www.w3.org/2000/svg" xmlns:xlink="http://www.w3.org/1999/xlink" xml:space="preserve" xmlns:serif="http://www.serif.com/" style="fill-rule:evenodd;clip-rule:evenodd;stroke-linejoin:round;stroke-miterlimit:2;">
    <g transform="matrix(1,0,0,1,0,-0.057007)">
        <path d="M132.837,423.055L132.837,325.345L69.263,325.345L69.263,351.566L100.431,351.566L100.431,353.792C100.431,378.776 91.278,396.834 70.005,396.834C50.71,396.834 38.094,379.766 38.094,335.24C38.094,290.466 49.968,273.398 70.994,273.398C87.073,273.398 94.989,283.787 96.72,302.834L132.094,297.887C130.61,274.14 114.531,243.219 71.489,243.219C24.984,243.219 0,277.85 0,335.24C0,396.339 28.694,427.013 67.778,427.013C85.341,427.013 100.431,417.613 106.616,401.287L107.11,401.287L111.068,423.055L132.837,423.055ZM246.873,385.455C243.657,398.071 235.247,402.029 225.6,402.029C210.757,402.029 201.11,393.124 200.615,371.603L277.794,371.603C278.289,367.397 278.536,362.945 278.536,358.245C278.536,321.634 256.768,298.382 224.61,298.382C190.226,298.382 167.468,322.871 167.468,361.955C167.468,401.039 188,426.518 225.105,426.518C256.768,426.518 271.363,406.729 275.32,388.918L246.873,385.455ZM200.863,351.071C201.11,334.003 210.015,322.871 223.868,322.871C239.205,322.871 245.884,333.508 246.131,351.071L200.863,351.071ZM343.586,317.429C343.338,312.234 343.091,306.545 342.596,301.598L311.181,301.598C311.923,313.966 312.417,328.066 312.417,339.94L312.417,423.055L345.565,423.055L345.565,355.771C345.565,333.013 357.191,325.592 368.075,325.592C375.001,325.592 379.949,328.561 382.423,332.519C385.391,336.971 386.628,342.661 386.628,351.318L386.628,423.055L419.775,423.055L419.775,345.629C419.775,332.024 416.807,321.634 411.117,313.471C404.686,304.319 394.544,298.382 377.228,298.382C364.117,298.382 349.275,305.803 344.081,317.429L343.586,317.429ZM531.585,385.455C528.37,398.071 519.959,402.029 510.312,402.029C495.47,402.029 485.822,393.124 485.328,371.603L562.506,371.603C563.001,367.397 563.248,362.945 563.248,358.245C563.248,321.634 541.48,298.382 509.322,298.382C474.938,298.382 452.18,322.871 452.18,361.955C452.18,401.039 472.712,426.518 509.817,426.518C541.48,426.518 556.075,406.729 560.033,388.918L531.585,385.455ZM485.575,351.071C485.822,334.003 494.728,322.871 508.58,322.871C523.917,322.871 530.596,333.508 530.843,351.071L485.575,351.071ZM538.017,288.982L544.696,275.871L486.564,238.271L474.691,264.245L538.017,288.982ZM617.414,301.598L582.04,301.598L626.566,423.055L656.498,423.055L701.024,301.598L666.887,301.598L650.561,354.782C647.098,366.161 645.119,374.324 642.645,384.961L642.151,384.961C639.677,374.324 637.698,366.161 634.235,354.782L617.414,301.598ZM799.477,385.455C796.261,398.071 787.85,402.029 778.203,402.029C763.361,402.029 753.713,393.124 753.219,371.603L830.398,371.603C830.892,367.397 831.14,362.945 831.14,358.245C831.14,321.634 809.371,298.382 777.213,298.382C742.829,298.382 720.071,322.871 720.071,361.955C720.071,401.039 740.603,426.518 777.708,426.518C809.371,426.518 823.966,406.729 827.924,388.918L799.477,385.455ZM753.466,351.071C753.713,334.003 762.619,322.871 776.471,322.871C791.808,322.871 798.487,333.508 798.734,351.071L753.466,351.071Z" style="fill:rgb(220,225,214);fill-rule:nonzero;"/>
        <path d="M173.916,79.709L12.83,79.709L12.83,94.056L173.916,94.056L173.916,79.709ZM353.588,175.687L353.588,0.057L316.482,0.057L316.482,70.804L267.256,70.804L267.256,0.057L230.151,0.057L230.151,175.687L267.256,175.687L267.256,100.982L316.482,100.982L316.482,175.687L353.588,175.687ZM512.645,175.687L512.645,145.508L440.166,145.508L440.166,99.498L499.287,99.498L499.287,71.051L440.166,71.051L440.166,30.235L512.645,30.235L512.645,0.057L403.061,0.057L403.061,175.687L512.645,175.687ZM681.837,175.687L626.426,0.057L591.3,0.057L536.137,175.687L573.49,175.687L582.395,143.282L634.095,143.282L642.752,175.687L681.837,175.687ZM626.426,114.835L590.063,114.835L599.463,79.214C602.432,68.33 605.647,55.467 608.368,42.356L608.616,42.356C611.337,55.467 614.8,68.33 617.521,78.967L626.426,114.835ZM842.131,84.904C842.131,50.025 830.505,17.125 799.584,5.004C791.421,1.788 781.773,0.057 770.394,0.057L712.51,0.057L712.51,175.687L770.147,175.687C781.526,175.687 790.926,174.203 799.089,171.235C831.247,159.608 842.131,126.956 842.131,84.904ZM804.778,87.872C804.778,121.514 795.873,146.498 770.147,146.498L749.368,146.498L749.368,29.246L766.684,29.246C798.1,29.246 804.778,58.435 804.778,87.872Z" style="fill:rgb(220,225,214);fill-rule:nonzero;"/>
    </g>
</svg>
