<?xml version="1.0" encoding="UTF-8" standalone="no"?>
<!DOCTYPE svg PUBLIC "-//W3C//DTD SVG 1.1//EN" "http://www.w3.org/Graphics/SVG/1.1/DTD/svg11.dtd">
<svg width="100%" height="100%" viewBox="0 0 863 208" version="1.1" xmlns="http://www.w3.org/2000/svg" xmlns:xlink="http://www.w3.org/1999/xlink" xml:space="preserve" xmlns:serif="http://www.serif.com/" style="fill-rule:evenodd;clip-rule:evenodd;stroke-linejoin:round;stroke-miterlimit:2;">
    <g id="Artboard1" transform="matrix(1.99586,0,0,1,0,0)">
        <rect x="0" y="0" width="432" height="208" style="fill:none;"/>
        <clipPath id="_clip1">
            <rect x="0" y="0" width="432" height="208"/>
        </clipPath>
        <g clip-path="url(#_clip1)">
            <g transform="matrix(0.925536,0,0,1.84724,365.253,75.2116)">
                <path d="M0,31.169C-0.636,30.673 -1.59,30.429 -2.831,30.429C-5.295,30.429 -7.347,31.408 -9.001,33.367C-10.639,35.331 -11.45,37.891 -11.45,41.054L-11.45,42.385L-15.568,42.385L-15.568,44.409L-11.45,44.409L-11.45,59.576C-11.45,60.082 -11.545,60.494 -11.736,60.813C-11.927,61.126 -12.229,61.353 -12.61,61.478C-12.865,61.563 -13.167,61.62 -13.517,61.647C-13.851,61.676 -14.185,61.704 -14.518,61.731L-14.518,63.124L-3.53,63.124L-3.53,61.731C-3.943,61.704 -4.421,61.651 -4.994,61.572C-5.55,61.497 -6.011,61.394 -6.345,61.268C-6.743,61.112 -7.045,60.879 -7.235,60.568C-7.427,60.26 -7.522,59.861 -7.522,59.365L-7.522,44.409L-2.163,44.409L-2.163,42.385L-7.522,42.385L-7.522,40.252C-7.522,37.473 -7.268,35.444 -6.758,34.173C-6.234,32.904 -5.518,32.242 -4.564,32.201C-4.389,32.444 -4.199,32.758 -3.96,33.152C-3.721,33.545 -3.451,33.896 -3.165,34.211C-2.894,34.519 -2.592,34.764 -2.258,34.947C-1.924,35.13 -1.543,35.224 -1.098,35.224C-0.413,35.224 0.111,35.003 0.445,34.567C0.779,34.132 0.954,33.598 0.954,32.964C0.954,32.261 0.635,31.662 0,31.169M-22.884,48.173C-22.884,46.115 -23.09,44.226 -23.488,42.512C-23.884,40.791 -24.473,39.328 -25.252,38.115C-26.016,36.92 -26.985,35.987 -28.162,35.318C-29.323,34.646 -30.674,34.314 -32.17,34.314C-33.871,34.314 -35.303,34.703 -36.479,35.476C-37.672,36.25 -38.626,37.285 -39.374,38.579C-40.073,39.821 -40.598,41.273 -40.948,42.934C-41.297,44.592 -41.473,46.339 -41.473,48.173C-41.473,50.198 -41.282,52.029 -40.916,53.661C-40.55,55.297 -39.978,56.744 -39.182,58.015C-38.42,59.252 -37.465,60.222 -36.32,60.92C-35.159,61.615 -33.775,61.966 -32.17,61.966C-30.674,61.966 -29.308,61.615 -28.099,60.907C-26.891,60.204 -25.904,59.22 -25.141,57.949C-24.346,56.669 -23.774,55.217 -23.424,53.6C-23.058,51.983 -22.884,50.169 -22.884,48.173M-18.892,41.696C-18.144,43.646 -17.763,45.805 -17.763,48.173C-17.763,50.554 -18.144,52.714 -18.908,54.654C-19.671,56.599 -20.721,58.253 -22.072,59.623C-23.392,60.973 -24.903,62.013 -26.636,62.744C-28.369,63.48 -30.214,63.846 -32.17,63.846C-34.253,63.846 -36.193,63.451 -37.958,62.674C-39.723,61.892 -41.234,60.804 -42.506,59.407C-43.762,58.043 -44.765,56.383 -45.495,54.434C-46.227,52.484 -46.577,50.4 -46.577,48.173C-46.577,45.735 -46.195,43.562 -45.432,41.653C-44.685,39.747 -43.635,38.096 -42.299,36.7C-40.963,35.321 -39.436,34.267 -37.672,33.532C-35.922,32.8 -34.094,32.435 -32.17,32.435C-30.182,32.435 -28.321,32.81 -26.556,33.554C-24.792,34.3 -23.281,35.35 -21.992,36.7C-20.672,38.082 -19.639,39.747 -18.892,41.696M-217.411,-2.887L-232.916,-18.379L-241.455,-16.134L-225.903,-0.575L-217.411,-2.887ZM-388.708,-11.024L-385.686,-11.024C-384.938,-11.024 -384.334,-11.625 -384.334,-12.372C-384.334,-13.113 -384.938,-13.716 -385.686,-13.716L-388.708,-13.716C-389.455,-13.716 -390.059,-13.113 -390.059,-12.372C-390.059,-11.625 -389.455,-11.024 -388.708,-11.024M16.65,31.169C16.029,30.673 15.075,30.429 13.819,30.429C11.37,30.429 9.319,31.408 7.664,33.367C6.027,35.331 5.216,37.891 5.216,41.054L5.216,42.385L1.097,42.385L1.097,44.409L5.216,44.409L5.216,59.576C5.216,60.082 5.121,60.494 4.913,60.813C4.739,61.126 4.437,61.353 4.054,61.478C3.8,61.563 3.498,61.62 3.149,61.647C2.814,61.676 2.464,61.704 2.146,61.731L2.146,63.124L13.135,63.124L13.135,61.731C12.722,61.704 12.245,61.651 11.672,61.572C11.116,61.497 10.654,61.394 10.321,61.268C9.907,61.112 9.621,60.879 9.43,60.568C9.239,60.26 9.144,59.861 9.144,59.365L9.144,44.409L14.502,44.409L14.502,42.385L9.144,42.385L9.144,40.252C9.144,37.473 9.398,35.444 9.907,34.173C10.432,32.904 11.147,32.242 12.101,32.201C12.26,32.444 12.467,32.758 12.705,33.152C12.944,33.545 13.214,33.896 13.485,34.211C13.771,34.519 14.073,34.764 14.407,34.947C14.741,35.13 15.123,35.224 15.567,35.224C16.252,35.224 16.761,35.003 17.095,34.567C17.445,34.132 17.602,33.598 17.602,32.964C17.602,32.261 17.285,31.662 16.65,31.169M27.908,14.456C27.272,14.217 26.826,13.852 26.541,13.356C26.255,12.863 26.111,12.239 26.111,11.486L26.111,-14.469L25.65,-14.924L14.423,-14.212L14.423,-12.085C15.059,-12.038 15.775,-11.925 16.554,-11.743C17.318,-11.56 17.906,-11.34 18.319,-11.081C18.875,-10.693 19.321,-10.214 19.638,-9.648C19.941,-9.075 20.1,-8.447 20.1,-7.763L20.1,11.873C20.1,12.648 19.957,13.276 19.655,13.762C19.368,14.246 18.923,14.584 18.319,14.776C17.938,14.906 17.476,14.99 16.952,15.033C16.426,15.08 15.918,15.122 15.425,15.163L15.425,17.296L30.786,17.296L30.786,15.163C30.229,15.122 29.72,15.043 29.275,14.925C28.83,14.803 28.369,14.648 27.908,14.456M25.427,35.932C25.968,35.33 26.223,34.632 26.223,33.826C26.223,33.109 25.968,32.481 25.459,31.939C24.935,31.395 24.282,31.127 23.471,31.127C22.756,31.127 22.135,31.412 21.61,31.99C21.086,32.57 20.815,33.246 20.815,34.019C20.815,34.751 21.086,35.402 21.61,35.973C22.135,36.545 22.756,36.827 23.471,36.827C24.25,36.827 24.902,36.531 25.427,35.932M26.97,61.268C26.572,61.112 26.27,60.874 26.079,60.551C25.905,60.226 25.809,59.82 25.809,59.322L25.809,42.342L25.506,42.047L18.16,42.512L18.16,43.903C18.573,43.936 19.051,44.006 19.543,44.128C20.052,44.245 20.45,44.39 20.705,44.56C21.07,44.813 21.356,45.126 21.563,45.497C21.77,45.867 21.881,46.279 21.881,46.734L21.881,59.581C21.881,60.086 21.786,60.498 21.595,60.813C21.404,61.132 21.101,61.353 20.705,61.478C20.465,61.563 20.163,61.62 19.813,61.647C19.464,61.676 19.13,61.704 18.812,61.731L18.812,63.129L28.862,63.129L28.862,61.731C28.496,61.704 28.178,61.651 27.876,61.572C27.589,61.497 27.287,61.394 26.97,61.268M-386.131,21.457L-387.292,23.035L-385.336,22.829L-384.541,24.611L-383.73,22.829L-381.79,23.035L-382.951,21.457L-381.79,19.881L-383.73,20.093L-384.541,18.295L-385.336,20.093L-387.292,19.881L-386.131,21.457ZM-386.131,-2.192L-387.292,-0.608L-385.336,-0.821L-384.541,0.97L-383.73,-0.821L-381.79,-0.608L-382.951,-2.192L-381.79,-3.769L-383.73,-3.564L-384.541,-5.346L-385.336,-3.564L-387.292,-3.769L-386.131,-2.192ZM-382.586,45.107L-381.441,43.536L-383.38,43.749L-384.175,41.966L-384.97,43.749L-386.911,43.536L-385.765,45.107L-386.911,46.675L-384.97,46.472L-384.175,48.268L-383.38,46.472L-381.441,46.675L-382.586,45.107ZM-379.93,40.45C-379.93,41.814 -379.802,43.602 -379.103,45.45L-364.25,45.45C-362.914,45.45 -361.833,44.379 -361.833,43.068L-361.833,20.67C-368.066,20.071 -372.821,16.659 -372.821,12.551C-372.821,8.01 -367.001,4.32 -359.83,4.32C-352.642,4.32 -346.838,8.01 -346.838,12.551C-346.838,16.659 -351.592,20.071 -357.81,20.67L-357.81,25.565L-356.967,26.424C-356.824,26.562 -356.713,26.832 -356.713,27.032L-356.713,28.256C-356.713,28.946 -356.283,29.496 -355.759,29.496L-354.821,29.496L-354.821,25.681L-356.14,23.555C-356.299,23.305 -356.283,22.901 -356.109,22.666L-355.25,21.47C-355.122,21.31 -354.916,21.273 -354.757,21.405L-353.278,22.565L-352.625,22.446C-352.435,22.403 -352.149,22.469 -352.005,22.586L-350.956,23.408L-350.241,23.29C-349.859,23.216 -349.43,23.468 -349.302,23.841L-349.159,24.274C-349.032,24.64 -349.207,25.095 -349.556,25.293L-350.05,25.549L-349.875,28.081L-347.697,34.286L-345.868,37.411C-345.533,37.976 -345.343,38.622 -345.343,39.311C-345.343,40.316 -345.74,41.218 -346.377,41.894L-344.818,45.45L-340.143,45.45C-339.459,43.602 -339.332,41.814 -339.332,40.45L-339.332,2.281L-379.93,2.281L-379.93,40.45ZM-361.213,-2.192L-362.374,-0.608L-360.417,-0.821L-359.638,0.97L-358.828,-0.821L-356.871,-0.608L-358.049,-2.192L-356.871,-3.769L-358.828,-3.564L-359.638,-5.346L-360.417,-3.564L-362.374,-3.769L-361.213,-2.192ZM-336.661,45.107L-337.821,46.675L-335.865,46.472L-335.07,48.268L-334.275,46.472L-332.335,46.675L-333.495,45.107L-332.335,43.536L-334.275,43.749L-335.07,41.966L-335.865,43.749L-337.821,43.536L-336.661,45.107ZM-336.311,21.457L-337.471,23.035L-335.515,22.829L-334.72,24.611L-333.925,22.829L-331.969,23.035L-333.13,21.457L-331.969,19.881L-333.925,20.093L-334.72,18.295L-335.515,20.093L-337.471,19.881L-336.311,21.457ZM-336.311,-2.192L-337.471,-0.608L-335.515,-0.821L-334.72,0.97L-333.925,-0.821L-331.969,-0.608L-333.13,-2.192L-331.969,-3.769L-333.925,-3.564L-334.72,-5.346L-335.515,-3.564L-337.471,-3.769L-336.311,-2.192ZM-354.789,35.6L-354.789,35.041L-355.441,35.217C-355.806,35.313 -356.235,35.108 -356.426,34.749L-357.81,31.989L-357.81,43.068C-357.81,44.379 -356.745,45.45 -355.409,45.45L-353.087,45.45L-352.864,45.128C-352.753,44.967 -352.514,44.784 -352.323,44.717L-351.29,44.372L-353.293,42.032C-353.468,41.804 -353.501,41.424 -353.326,41.181L-352.96,40.704C-353.421,40.462 -354.359,39.692 -354.677,37.331C-354.757,36.832 -354.789,36.253 -354.789,35.6M-341.049,47.314L-378.196,47.314C-375.97,50.981 -370.913,54.341 -359.638,54.341C-348.332,54.341 -343.291,50.981 -341.049,47.314M-389.152,-6.668L-330.108,-6.668L-330.108,41.445C-330.108,55.699 -340.079,63.833 -359.638,63.833C-379.166,63.833 -389.152,55.699 -389.152,41.445L-389.152,-6.668ZM-380.009,-12.421C-380.009,-13.237 -380.661,-13.897 -381.472,-13.897C-382.299,-13.897 -382.967,-13.237 -382.967,-12.421C-382.967,-11.614 -382.299,-10.955 -381.472,-10.955C-380.661,-10.955 -380.009,-11.614 -380.009,-12.421M-108.801,61.268C-109.199,61.112 -109.501,60.874 -109.692,60.551C-109.883,60.226 -109.979,59.82 -109.979,59.322L-109.979,42.342L-110.28,42.047L-117.626,42.512L-117.626,43.903C-117.198,43.936 -116.737,44.006 -116.228,44.128C-115.719,44.245 -115.337,44.39 -115.067,44.56C-114.701,44.813 -114.415,45.126 -114.208,45.497C-114.001,45.867 -113.906,46.279 -113.906,46.734L-113.906,59.581C-113.906,60.086 -114.001,60.498 -114.192,60.813C-114.383,61.132 -114.669,61.353 -115.067,61.478C-115.321,61.563 -115.624,61.62 -115.958,61.647C-116.307,61.676 -116.641,61.704 -116.959,61.731L-116.959,63.129L-106.908,63.129L-106.908,61.731C-107.275,61.704 -107.609,61.651 -107.895,61.572C-108.197,61.497 -108.499,61.394 -108.801,61.268M-114.176,31.99C-114.701,32.57 -114.955,33.246 -114.955,34.019C-114.955,34.75 -114.701,35.402 -114.176,35.972C-113.651,36.545 -113.015,36.827 -112.3,36.827C-111.52,36.827 -110.868,36.531 -110.344,35.931C-109.819,35.331 -109.549,34.633 -109.549,33.826C-109.549,33.109 -109.803,32.481 -110.328,31.938C-110.836,31.395 -111.504,31.128 -112.3,31.128C-113.015,31.128 -113.651,31.413 -114.176,31.99M-142.625,34.651C-142.259,34.68 -141.735,34.765 -141.097,34.905C-140.462,35.046 -139.953,35.21 -139.572,35.393C-139.079,35.617 -138.76,35.908 -138.602,36.269C-138.443,36.629 -138.363,37.037 -138.363,37.506L-138.363,59.136C-138.363,59.641 -138.458,60.072 -138.649,60.433C-138.84,60.789 -139.142,61.067 -139.572,61.244C-139.778,61.347 -140.239,61.427 -140.939,61.487C-141.639,61.553 -142.211,61.601 -142.625,61.625L-142.625,63.124L-129.632,63.124L-129.632,61.625C-130.015,61.615 -130.54,61.535 -131.239,61.394C-131.954,61.254 -132.415,61.131 -132.623,61.038C-133.084,60.814 -133.402,60.517 -133.593,60.152C-133.767,59.786 -133.863,59.369 -133.863,58.905L-133.863,48.595L-130.412,48.595C-129.506,48.595 -128.743,48.688 -128.09,48.875C-127.454,49.068 -126.914,49.425 -126.5,49.944C-126.214,50.296 -125.944,50.869 -125.705,51.656C-125.451,52.447 -125.307,53.15 -125.275,53.769L-123.685,53.769L-123.685,41.982L-125.275,41.982C-125.339,42.731 -125.499,43.43 -125.721,44.086C-125.96,44.738 -126.214,45.22 -126.5,45.53C-126.914,45.98 -127.407,46.317 -127.979,46.532C-128.552,46.753 -129.378,46.861 -130.412,46.861L-133.863,46.861L-133.863,34.82L-128.838,34.82C-128.074,34.82 -127.407,34.835 -126.803,34.863C-126.198,34.895 -125.689,34.933 -125.244,34.989C-124.385,35.115 -123.495,35.814 -122.557,37.085C-121.618,38.349 -120.998,39.54 -120.711,40.651L-119.122,40.651L-119.122,33.152L-142.625,33.152L-142.625,34.651ZM-64.117,-0.329C-65.961,0.209 -67.551,0.734 -68.935,1.254C-70.318,1.774 -71.591,2.421 -72.767,3.194C-73.849,3.931 -74.707,4.797 -75.328,5.8C-75.948,6.802 -76.266,7.994 -76.266,9.371C-76.266,11.166 -75.789,12.478 -74.85,13.322C-73.928,14.162 -72.736,14.583 -71.288,14.583C-69.762,14.583 -68.41,14.212 -67.25,13.467C-66.088,12.723 -65.119,11.847 -64.324,10.829L-64.117,-0.329ZM-55.005,14.615C-54.306,14.634 -53.59,14.649 -52.858,14.649L-52.858,16.715C-53.876,17.082 -54.751,17.376 -55.53,17.601C-56.293,17.826 -57.151,17.939 -58.122,17.939C-59.792,17.939 -61.143,17.544 -62.129,16.762C-63.147,15.975 -63.783,14.832 -64.053,13.322L-64.26,13.322C-65.643,14.875 -67.154,16.059 -68.76,16.875C-70.366,17.695 -72.291,18.102 -74.549,18.102C-76.933,18.102 -78.906,17.371 -80.448,15.905C-81.974,14.442 -82.754,12.531 -82.754,10.159C-82.754,8.935 -82.579,7.84 -82.229,6.869C-81.896,5.899 -81.371,5.026 -80.687,4.253C-80.146,3.606 -79.446,3.031 -78.556,2.528C-77.665,2.022 -76.838,1.62 -76.075,1.315C-75.105,0.949 -73.133,0.275 -70.175,-0.719C-67.218,-1.709 -65.214,-2.481 -64.197,-3.044L-64.197,-6.24C-64.197,-6.517 -64.244,-7.056 -64.371,-7.853C-64.482,-8.65 -64.737,-9.404 -65.119,-10.111C-65.563,-10.908 -66.168,-11.602 -66.947,-12.197C-67.742,-12.787 -68.855,-13.083 -70.287,-13.083C-71.272,-13.083 -72.195,-12.919 -73.054,-12.582C-73.896,-12.248 -74.5,-11.897 -74.834,-11.53C-74.834,-11.1 -74.739,-10.467 -74.533,-9.629C-74.325,-8.79 -74.23,-8.017 -74.23,-7.304C-74.23,-6.549 -74.564,-5.86 -75.248,-5.237C-75.932,-4.614 -76.87,-4.301 -78.079,-4.301C-79.144,-4.301 -79.939,-4.684 -80.448,-5.448C-80.942,-6.211 -81.195,-7.066 -81.195,-8.017C-81.195,-9.006 -80.846,-9.952 -80.146,-10.857C-79.446,-11.757 -78.54,-12.568 -77.427,-13.275C-76.457,-13.879 -75.28,-14.39 -73.913,-14.812C-72.529,-15.23 -71.177,-15.44 -69.874,-15.44C-68.06,-15.44 -66.486,-15.314 -65.134,-15.071C-63.799,-14.821 -62.574,-14.287 -61.477,-13.473C-60.38,-12.676 -59.537,-11.593 -58.981,-10.228C-58.408,-8.86 -58.122,-7.097 -58.122,-4.946C-58.122,-1.867 -58.154,0.855 -58.217,3.236C-58.281,5.613 -58.313,8.213 -58.313,11.031C-58.313,11.869 -58.169,12.539 -57.883,13.031C-57.597,13.529 -57.136,13.95 -56.547,14.292C-56.214,14.484 -55.705,14.597 -55.005,14.615M-210.271,25.783L-229.338,6.788L-248.405,6.788L-248.405,63.846L-229.338,63.846L-229.338,44.85L-210.271,63.846L-191.269,44.85L-191.269,63.846L-172.203,63.846L-172.203,6.788L-191.269,6.788L-210.271,25.783ZM-42.951,1.705C-42.951,3.512 -42.777,5.154 -42.427,6.625C-42.092,8.102 -41.504,9.474 -40.693,10.74C-39.945,11.948 -38.975,12.92 -37.815,13.646C-36.638,14.382 -35.255,14.742 -33.633,14.742C-31.915,14.742 -30.5,14.367 -29.371,13.613C-28.242,12.863 -27.287,12.033 -26.525,11.129L-26.525,-7.497C-26.684,-8.058 -26.97,-8.659 -27.352,-9.304C-27.734,-9.951 -28.226,-10.542 -28.799,-11.081C-29.434,-11.62 -30.166,-12.065 -30.993,-12.421C-31.836,-12.773 -32.806,-12.951 -33.919,-12.951C-35.223,-12.951 -36.4,-12.619 -37.481,-11.954C-38.578,-11.283 -39.533,-10.327 -40.375,-9.08C-41.17,-7.872 -41.79,-6.344 -42.252,-4.479C-42.712,-2.617 -42.951,-0.56 -42.951,1.705M-45.575,13.585C-46.832,12.099 -47.849,10.313 -48.581,8.222C-49.328,6.138 -49.694,3.832 -49.694,1.314C-49.694,-0.986 -49.296,-3.169 -48.501,-5.237C-47.706,-7.304 -46.609,-9.113 -45.209,-10.66C-43.905,-12.104 -42.299,-13.256 -40.391,-14.118C-38.499,-14.976 -36.558,-15.408 -34.571,-15.408C-33.092,-15.408 -31.63,-15.221 -30.214,-14.84C-28.783,-14.465 -27.542,-13.987 -26.525,-13.406L-26.525,-24.499C-26.525,-25.404 -26.667,-26.229 -26.97,-26.975C-27.272,-27.714 -27.686,-28.282 -28.226,-28.672C-28.83,-29.078 -29.642,-29.379 -30.659,-29.56C-31.692,-29.743 -32.79,-29.875 -33.967,-29.964L-33.967,-31.965L-20.927,-32.677L-20.45,-32.195L-20.45,10.711C-20.45,11.466 -20.306,12.105 -20.005,12.634C-19.718,13.158 -19.289,13.603 -18.733,13.97C-18.335,14.227 -17.73,14.391 -16.968,14.451C-16.189,14.518 -15.473,14.565 -14.821,14.583L-14.821,16.716L-25.968,17.423L-26.445,16.973L-26.445,14.001L-26.716,13.936C-27.829,15.187 -29.212,16.211 -30.849,17.007C-32.504,17.799 -34.189,18.201 -35.922,18.201C-37.735,18.201 -39.485,17.794 -41.17,16.988C-42.856,16.182 -44.319,15.047 -45.575,13.585M-330.522,-10.289L-388.708,-10.289C-389.455,-10.289 -390.075,-9.688 -390.075,-8.947C-390.075,-8.2 -389.455,-7.605 -388.708,-7.605L-330.522,-7.605C-329.775,-7.605 -329.171,-8.2 -329.171,-8.947C-329.171,-9.688 -329.775,-10.289 -330.522,-10.289M55.292,50.281L64.927,50.281C64.927,49.5 64.849,48.655 64.721,47.757C64.593,46.857 64.371,46.105 64.084,45.501C63.75,44.859 63.305,44.329 62.749,43.927C62.176,43.513 61.461,43.313 60.571,43.313C59.092,43.313 57.867,43.927 56.881,45.155C55.911,46.383 55.37,48.093 55.292,50.281M68.108,57.317L69.586,58.226C68.712,59.89 67.551,61.211 66.088,62.195C64.609,63.18 62.94,63.676 61.032,63.676C59.362,63.676 57.883,63.382 56.626,62.786C55.37,62.195 54.337,61.394 53.51,60.382C52.699,59.365 52.095,58.183 51.697,56.833C51.284,55.48 51.092,54.051 51.092,52.546C51.092,51.191 51.3,49.865 51.729,48.561C52.158,47.259 52.794,46.087 53.622,45.046C54.417,44.043 55.418,43.237 56.611,42.628C57.803,42.014 59.139,41.711 60.618,41.711C62.129,41.711 63.433,41.949 64.514,42.428C65.612,42.905 66.486,43.561 67.153,44.39C67.806,45.178 68.283,46.111 68.601,47.179C68.919,48.248 69.078,49.41 69.078,50.662L69.078,52.058L55.292,52.058C55.292,53.427 55.418,54.669 55.672,55.784C55.943,56.9 56.357,57.879 56.913,58.727C57.47,59.543 58.185,60.19 59.075,60.662C59.951,61.136 61.016,61.375 62.24,61.375C63.496,61.375 64.578,61.08 65.484,60.489C66.391,59.904 67.265,58.845 68.108,57.317M-345.072,-13.945L-349.541,-12.42L-345.072,-10.895L-340.62,-12.42L-345.072,-13.945ZM-331.603,-30.108C-331.762,-30.144 -332.462,-30.254 -332.685,-30.254C-333.544,-30.254 -334.02,-30.166 -334.323,-29.945C-333.719,-29.572 -332.971,-29.022 -332.827,-27.693C-334.131,-27.848 -334.689,-28.595 -335.07,-29.182C-335.293,-28.875 -335.373,-28.42 -335.373,-27.555C-335.373,-27.371 -335.373,-27.158 -335.356,-26.975C-336.327,-26.879 -337.281,-26.307 -337.678,-25.75C-337.281,-25.192 -336.327,-24.62 -335.356,-24.533C-335.373,-24.349 -335.373,-24.129 -335.373,-23.952C-335.373,-23.095 -335.293,-22.625 -335.07,-22.324C-334.641,-22.984 -334.005,-23.842 -332.287,-23.842L-332.048,-23.842C-332.033,-23.726 -332.033,-23.623 -332.033,-23.519C-332.033,-22.025 -332.716,-20.681 -334.545,-20.681C-335.754,-20.681 -336.389,-21.56 -336.676,-22.118C-336.486,-22.39 -336.358,-22.736 -336.358,-23.101C-336.358,-24.041 -337.121,-24.788 -338.06,-24.788C-338.999,-24.788 -339.761,-24.041 -339.761,-23.101C-339.761,-22.736 -339.65,-22.39 -339.443,-22.118C-339.73,-21.56 -340.365,-20.681 -341.589,-20.681C-343.402,-20.681 -344.102,-22.025 -344.102,-23.519C-344.102,-23.623 -344.087,-23.726 -344.087,-23.842L-343.831,-23.842C-342.115,-23.842 -341.478,-22.984 -341.049,-22.324C-340.843,-22.625 -340.747,-23.095 -340.747,-23.952C-340.747,-24.129 -340.763,-24.349 -340.763,-24.533C-339.793,-24.62 -338.839,-25.192 -338.441,-25.75C-338.839,-26.307 -339.793,-26.879 -340.763,-26.975C-340.763,-27.158 -340.747,-27.371 -340.747,-27.555C-340.747,-28.42 -340.843,-28.875 -341.049,-29.182C-341.432,-28.595 -341.972,-27.848 -343.308,-27.693C-343.148,-29.022 -342.401,-29.572 -341.797,-29.945C-342.115,-30.166 -342.576,-30.254 -343.435,-30.254C-343.61,-30.254 -343.831,-30.246 -344.022,-30.232C-344.102,-31.2 -344.691,-32.139 -345.247,-32.542C-345.804,-32.139 -346.377,-31.2 -346.472,-30.232C-346.663,-30.246 -346.869,-30.254 -347.06,-30.254C-347.919,-30.254 -348.38,-30.166 -348.698,-29.945C-348.11,-29.572 -347.347,-29.022 -347.203,-27.693C-348.507,-27.848 -349.063,-28.595 -349.445,-29.182C-349.668,-28.875 -349.747,-28.42 -349.747,-27.555C-349.747,-27.371 -349.747,-27.158 -349.732,-26.975C-350.701,-26.879 -351.656,-26.307 -352.054,-25.75C-351.656,-25.192 -350.701,-24.62 -349.732,-24.533C-349.747,-24.349 -349.747,-24.129 -349.747,-23.952C-349.747,-23.095 -349.668,-22.625 -349.445,-22.324C-349.016,-22.984 -348.38,-23.842 -346.663,-23.842L-346.408,-23.842C-346.393,-23.726 -346.393,-23.623 -346.393,-23.519C-346.393,-22.025 -347.092,-20.681 -348.905,-20.681C-350.13,-20.681 -350.765,-21.56 -351.051,-22.118C-350.861,-22.39 -350.734,-22.736 -350.734,-23.101C-350.734,-24.041 -351.496,-24.788 -352.435,-24.788C-352.547,-24.788 -352.657,-24.78 -352.769,-24.752C-353.548,-24.597 -354.137,-23.915 -354.137,-23.101C-354.137,-22.736 -354.026,-22.39 -353.818,-22.118C-354.104,-21.56 -354.741,-20.681 -355.949,-20.681C-357.778,-20.681 -358.478,-22.025 -358.478,-23.519C-358.478,-23.623 -358.478,-23.726 -358.462,-23.842L-358.208,-23.842C-356.49,-23.842 -355.854,-22.984 -355.409,-22.324C-355.217,-22.625 -355.122,-23.095 -355.122,-23.952C-355.122,-24.129 -355.122,-24.349 -355.138,-24.533C-354.168,-24.62 -353.214,-25.192 -352.817,-25.75C-353.214,-26.307 -354.168,-26.879 -355.138,-26.975C-355.122,-27.158 -355.122,-27.371 -355.122,-27.555C-355.122,-28.42 -355.217,-28.875 -355.409,-29.182C-355.806,-28.595 -356.346,-27.848 -357.683,-27.693C-357.524,-29.022 -356.76,-29.572 -356.171,-29.945C-356.474,-30.166 -356.951,-30.254 -357.81,-30.254C-358.001,-30.254 -358.208,-30.246 -358.398,-30.232C-358.494,-31.2 -359.067,-32.139 -359.623,-32.542C-360.179,-32.139 -360.752,-31.2 -360.847,-30.232C-361.037,-30.246 -361.245,-30.254 -361.435,-30.254C-362.294,-30.254 -362.755,-30.166 -363.058,-29.945C-362.47,-29.572 -361.721,-29.022 -361.562,-27.693C-362.883,-27.848 -363.439,-28.595 -363.821,-29.182C-364.028,-28.875 -364.123,-28.42 -364.123,-27.555C-364.123,-27.371 -364.107,-27.158 -364.107,-26.975C-365.077,-26.879 -366.016,-26.307 -366.429,-25.75C-366.016,-25.192 -365.077,-24.62 -364.107,-24.533C-364.107,-24.349 -364.123,-24.129 -364.123,-23.952C-364.123,-23.095 -364.028,-22.625 -363.821,-22.324C-363.375,-22.984 -362.755,-23.842 -361.037,-23.842L-360.784,-23.842C-360.784,-23.726 -360.768,-23.623 -360.768,-23.519C-360.768,-22.025 -361.467,-20.681 -363.28,-20.681C-364.504,-20.681 -365.141,-21.57 -365.427,-22.126C-365.22,-22.397 -365.108,-22.736 -365.108,-23.101C-365.108,-24.041 -365.872,-24.788 -366.81,-24.788C-367.764,-24.788 -368.511,-24.041 -368.511,-23.101C-368.511,-22.736 -368.385,-22.39 -368.194,-22.112C-368.48,-21.554 -369.116,-20.681 -370.325,-20.681C-372.153,-20.681 -372.837,-22.025 -372.837,-23.519L-372.837,-23.842L-372.583,-23.842C-370.866,-23.842 -370.229,-22.984 -369.8,-22.324C-369.594,-22.625 -369.498,-23.095 -369.498,-23.952C-369.498,-24.129 -369.498,-24.349 -369.514,-24.533C-368.544,-24.62 -367.59,-25.192 -367.176,-25.75C-367.59,-26.307 -368.544,-26.879 -369.514,-26.975C-369.498,-27.158 -369.498,-27.371 -369.498,-27.555C-369.498,-28.42 -369.594,-28.875 -369.8,-29.182C-370.182,-28.595 -370.722,-27.848 -372.058,-27.693C-371.899,-29.022 -371.152,-29.572 -370.547,-29.945C-370.85,-30.166 -371.311,-30.254 -372.185,-30.254C-372.376,-30.254 -372.583,-30.246 -372.774,-30.232C-372.869,-31.2 -373.441,-32.139 -373.998,-32.542C-374.554,-32.139 -375.128,-31.2 -375.223,-30.232C-375.397,-30.246 -375.62,-30.254 -375.796,-30.254C-376.67,-30.254 -377.131,-30.166 -377.448,-29.945C-376.845,-29.572 -376.097,-29.022 -375.938,-27.693C-377.258,-27.848 -377.815,-28.595 -378.196,-29.182C-378.403,-28.875 -378.482,-28.42 -378.482,-27.555L-378.482,-26.975C-379.453,-26.879 -380.407,-26.307 -380.804,-25.75C-380.407,-25.192 -379.453,-24.62 -378.482,-24.533L-378.482,-23.952C-378.482,-23.095 -378.403,-22.625 -378.196,-22.324C-377.767,-22.984 -377.131,-23.842 -375.413,-23.842L-375.159,-23.842C-375.143,-23.726 -375.143,-23.623 -375.143,-23.519C-375.143,-22.025 -375.842,-20.681 -377.655,-20.681C-378.88,-20.681 -379.516,-21.56 -379.802,-22.118C-379.596,-22.39 -379.485,-22.736 -379.485,-23.101C-379.485,-24.041 -380.248,-24.788 -381.169,-24.788C-381.647,-24.788 -382.076,-24.597 -382.378,-24.297C-382.681,-23.989 -382.887,-23.572 -382.887,-23.101C-382.887,-22.736 -382.76,-22.39 -382.569,-22.118C-382.855,-21.56 -383.491,-20.681 -384.7,-20.681C-386.529,-20.681 -387.212,-22.025 -387.212,-23.519C-387.212,-23.623 -387.212,-23.726 -387.197,-23.842L-386.958,-23.842C-385.24,-23.842 -384.605,-22.984 -384.16,-22.324C-383.953,-22.625 -383.874,-23.095 -383.874,-23.952C-383.874,-24.129 -383.874,-24.349 -383.889,-24.533C-382.903,-24.62 -381.966,-25.192 -381.552,-25.75C-381.966,-26.307 -382.903,-26.879 -383.889,-26.975C-383.874,-27.158 -383.874,-27.371 -383.874,-27.555C-383.874,-28.42 -383.953,-28.875 -384.16,-29.182C-384.557,-28.595 -385.098,-27.848 -386.418,-27.693C-386.274,-29.022 -385.511,-29.572 -384.923,-29.945C-385.225,-30.166 -385.687,-30.254 -386.561,-30.254C-386.783,-30.254 -387.483,-30.144 -387.642,-30.108C-387.992,-30.709 -389.311,-32.623 -391.618,-32.623C-393.081,-32.623 -394.432,-31.904 -394.639,-31.714C-393.876,-31.714 -392.651,-31.647 -391.633,-30.633C-390.186,-29.205 -390.075,-28.053 -390.075,-24.114C-390.075,-19.918 -387.912,-17.864 -384.795,-17.864C-382.998,-17.864 -381.169,-19.228 -381.169,-19.228C-381.169,-19.228 -379.357,-17.864 -377.561,-17.864C-375.668,-17.864 -373.998,-19.316 -373.998,-19.316C-373.998,-19.316 -372.312,-17.864 -370.421,-17.864C-368.624,-17.864 -366.81,-19.228 -366.81,-19.228C-366.81,-19.228 -364.982,-17.864 -363.201,-17.864C-361.292,-17.864 -359.623,-19.316 -359.623,-19.316C-359.623,-19.316 -357.953,-17.864 -356.045,-17.864C-354.264,-17.864 -352.435,-19.228 -352.435,-19.228C-352.435,-19.228 -350.606,-17.864 -348.825,-17.864C-346.917,-17.864 -345.247,-19.316 -345.247,-19.316C-345.247,-19.316 -343.577,-17.864 -341.685,-17.864C-339.888,-17.864 -338.06,-19.228 -338.06,-19.228C-338.06,-19.228 -336.232,-17.864 -334.45,-17.864C-331.333,-17.864 -329.17,-19.918 -329.17,-24.114C-329.17,-28.053 -329.06,-29.205 -327.627,-30.633C-326.595,-31.647 -325.37,-31.714 -324.607,-31.714C-324.813,-31.904 -326.165,-32.623 -327.627,-32.623C-329.918,-32.623 -331.253,-30.709 -331.603,-30.108M45.543,60.378C44.621,61.037 43.492,61.37 42.124,61.37C40.232,61.37 38.705,60.547 37.56,58.891C36.4,57.237 35.811,55.1 35.811,52.479C35.811,50.821 35.97,49.391 36.304,48.192C36.622,46.997 37.051,46.045 37.56,45.342C38.149,44.568 38.737,44.034 39.342,43.749C39.961,43.458 40.598,43.313 41.265,43.313C41.854,43.313 42.379,43.388 42.888,43.533C43.38,43.682 43.763,43.973 44.017,44.409C43.984,44.719 43.889,45.201 43.714,45.872C43.539,46.537 43.46,47.189 43.46,47.817C43.46,48.336 43.683,48.81 44.144,49.228C44.604,49.649 45.241,49.86 46.084,49.86C46.847,49.86 47.404,49.588 47.754,49.045C48.088,48.505 48.262,47.882 48.262,47.18C48.262,45.487 47.61,44.156 46.339,43.177C45.05,42.197 43.396,41.706 41.345,41.706C39.866,41.706 38.498,42.014 37.259,42.623C36.002,43.237 34.952,44.043 34.126,45.046C33.251,46.087 32.583,47.244 32.122,48.52C31.676,49.795 31.439,51.163 31.439,52.625C31.439,55.995 32.297,58.676 33.998,60.677C35.7,62.679 38.069,63.676 41.075,63.676C42.696,63.676 44.255,63.19 45.782,62.219C47.308,61.249 48.533,59.933 49.454,58.268L48.104,57.382C47.324,58.713 46.466,59.712 45.543,60.378M-350.908,-12.421C-350.908,-13.237 -351.576,-13.897 -352.388,-13.897C-353.199,-13.897 -353.85,-13.237 -353.85,-12.421C-353.85,-11.614 -353.199,-10.955 -352.388,-10.955C-351.576,-10.955 -350.908,-11.614 -350.908,-12.421M-96.525,61.268C-96.939,61.098 -97.225,60.855 -97.415,60.537C-97.59,60.222 -97.686,59.82 -97.686,59.322L-97.686,30.743L-97.988,30.429L-105.812,30.893L-105.812,32.242C-105.414,32.276 -104.858,32.36 -104.189,32.496C-103.505,32.642 -103.045,32.796 -102.79,32.964C-102.44,33.217 -102.154,33.563 -101.948,34.009C-101.725,34.455 -101.614,34.929 -101.614,35.434L-101.614,59.576C-101.614,60.082 -101.709,60.494 -101.915,60.813C-102.106,61.126 -102.393,61.353 -102.79,61.478C-103.029,61.548 -103.33,61.6 -103.697,61.637C-104.063,61.67 -104.413,61.704 -104.747,61.731L-104.747,63.129L-94.585,63.129L-94.585,61.731C-94.951,61.704 -95.301,61.656 -95.603,61.586C-95.905,61.516 -96.207,61.408 -96.525,61.268M-58.344,61.31C-58.758,61.141 -59.044,60.898 -59.219,60.578C-59.394,60.265 -59.474,59.861 -59.474,59.365L-59.474,48.782C-59.474,46.392 -59.983,44.616 -61.016,43.463C-62.033,42.305 -63.433,41.728 -65.182,41.728C-66.073,41.728 -66.868,41.841 -67.599,42.067C-68.331,42.29 -68.951,42.587 -69.492,42.953C-70.127,43.378 -70.636,43.771 -71.019,44.146C-71.4,44.522 -71.845,44.953 -72.354,45.446C-72.783,44.418 -73.468,43.543 -74.453,42.815C-75.423,42.089 -76.584,41.728 -77.935,41.728C-78.794,41.728 -79.589,41.841 -80.336,42.067C-81.068,42.29 -81.689,42.572 -82.181,42.91C-82.611,43.205 -83.088,43.594 -83.597,44.072C-84.105,44.556 -84.535,44.967 -84.884,45.319L-85.027,45.319L-85.027,42.342L-85.33,42.047L-92.295,42.512L-92.295,43.903C-91.866,43.932 -91.468,44.002 -91.071,44.105C-90.673,44.212 -90.339,44.348 -90.084,44.517C-89.719,44.77 -89.433,45.075 -89.226,45.436C-89.019,45.792 -88.924,46.195 -88.924,46.649L-88.924,59.581C-88.924,60.086 -89.019,60.498 -89.194,60.813C-89.4,61.132 -89.687,61.353 -90.084,61.478C-90.339,61.563 -90.626,61.62 -90.976,61.647C-91.325,61.676 -91.659,61.704 -91.977,61.731L-91.977,63.129L-81.864,63.129L-81.864,61.731C-82.245,61.704 -82.595,61.656 -82.897,61.586C-83.215,61.516 -83.501,61.408 -83.804,61.268C-84.201,61.098 -84.503,60.85 -84.693,60.527C-84.884,60.205 -84.996,59.8 -84.996,59.322L-84.996,47.391C-84.853,47.193 -84.63,46.903 -84.344,46.514C-84.073,46.125 -83.724,45.778 -83.31,45.468C-82.802,45.09 -82.245,44.789 -81.641,44.568C-81.037,44.354 -80.385,44.241 -79.701,44.241C-78.699,44.241 -77.856,44.639 -77.188,45.436C-76.52,46.233 -76.17,47.362 -76.17,48.825L-76.17,59.577C-76.17,60.086 -76.281,60.494 -76.456,60.813C-76.664,61.127 -76.95,61.353 -77.348,61.478C-77.601,61.563 -77.872,61.62 -78.174,61.647C-78.477,61.676 -78.794,61.704 -79.112,61.731L-79.112,63.129L-69.19,63.129L-69.19,61.731C-69.619,61.704 -69.952,61.656 -70.207,61.596C-70.477,61.53 -70.764,61.437 -71.081,61.31C-71.495,61.141 -71.781,60.898 -71.957,60.578C-72.131,60.265 -72.211,59.861 -72.211,59.365L-72.211,47.348C-72.068,47.109 -71.861,46.808 -71.59,46.448C-71.32,46.091 -70.97,45.754 -70.557,45.446C-70.048,45.065 -69.492,44.77 -68.887,44.56C-68.283,44.348 -67.631,44.241 -66.947,44.241C-65.945,44.241 -65.119,44.639 -64.451,45.436C-63.783,46.233 -63.448,47.362 -63.448,48.825L-63.448,59.577C-63.448,60.086 -63.545,60.494 -63.735,60.813C-63.911,61.127 -64.212,61.353 -64.61,61.478C-64.864,61.563 -65.15,61.62 -65.485,61.647C-65.819,61.676 -66.136,61.704 -66.454,61.731L-66.454,63.129L-56.325,63.129L-56.325,61.731C-56.722,61.704 -57.073,61.656 -57.391,61.596C-57.708,61.53 -58.026,61.437 -58.344,61.31M-124.942,15C-125.387,14.981 -126.357,14.767 -127.852,14.357C-129.331,13.951 -130.316,13.519 -130.778,13.065C-131.478,12.466 -131.97,11.476 -132.321,10.097C-132.655,8.72 -132.813,6.704 -132.813,4.061L-132.813,-23.281L-132.399,-23.281L-117.516,16.552L-115.893,16.552L-100.278,-22.475L-99.785,-22.475L-99.785,10.838C-99.785,11.635 -99.944,12.297 -100.261,12.822C-100.564,13.351 -101.057,13.819 -101.725,14.227C-102.154,14.466 -102.949,14.648 -104.094,14.776C-105.255,14.906 -106.193,14.981 -106.925,15L-106.925,17.297L-86.682,17.297L-86.682,15C-87.254,14.981 -88.049,14.878 -89.035,14.697C-90.021,14.513 -90.721,14.316 -91.102,14.1C-91.834,13.712 -92.327,13.262 -92.597,12.745C-92.852,12.225 -92.978,11.592 -92.978,10.838L-92.978,-22.18C-92.978,-22.896 -92.852,-23.553 -92.597,-24.157C-92.327,-24.758 -91.834,-25.19 -91.102,-25.442C-90.673,-25.592 -89.989,-25.755 -89.051,-25.928C-88.113,-26.097 -87.349,-26.2 -86.745,-26.22L-86.745,-28.511L-101.677,-28.511C-101.709,-28.128 -101.868,-27.349 -102.154,-26.205C-102.44,-25.048 -102.79,-23.947 -103.204,-22.893L-114.399,5.871L-127.518,-28.511L-143.149,-28.511L-143.149,-26.22C-142.195,-26.179 -141.241,-26.013 -140.271,-25.738C-139.301,-25.452 -138.491,-25.025 -137.823,-24.448C-137.218,-23.909 -136.757,-23.206 -136.423,-22.349C-136.104,-21.48 -135.946,-20.38 -135.946,-19.016L-135.946,4.413C-135.946,7.342 -136.089,9.428 -136.359,10.679C-136.646,11.926 -137.154,12.853 -137.917,13.455C-138.491,13.927 -139.317,14.283 -140.382,14.518C-141.449,14.757 -142.465,14.92 -143.436,15L-143.436,17.297L-124.942,17.297L-124.942,15ZM-330.522,-13.717L-333.543,-13.717C-334.307,-13.717 -334.911,-13.114 -334.911,-12.368C-334.911,-11.626 -334.307,-11.023 -333.543,-11.023L-330.522,-11.023C-329.775,-11.023 -329.171,-11.626 -329.171,-12.368C-329.171,-13.114 -329.775,-13.717 -330.522,-13.717M-336.279,-12.421C-336.279,-13.237 -336.946,-13.897 -337.758,-13.897C-338.584,-13.897 -339.237,-13.237 -339.237,-12.421C-339.237,-11.614 -338.584,-10.955 -337.758,-10.955C-336.946,-10.955 -336.279,-11.614 -336.279,-12.421M-330.522,-17.149L-388.708,-17.149C-389.455,-17.149 -390.075,-16.548 -390.075,-15.8C-390.075,-15.06 -389.455,-14.457 -388.708,-14.457L-330.522,-14.457C-329.775,-14.457 -329.171,-15.06 -329.171,-15.8C-329.171,-16.548 -329.775,-17.149 -330.522,-17.149M-293.884,63.846L-291.095,63.846L-291.095,-32.606L-293.884,-32.606L-293.884,63.846ZM-365.379,-12.421C-365.379,-13.237 -366.047,-13.897 -366.858,-13.897C-367.669,-13.897 -368.337,-13.237 -368.337,-12.421C-368.337,-11.614 -367.669,-10.955 -366.858,-10.955C-366.047,-10.955 -365.379,-11.614 -365.379,-12.421M57.898,-7.497C57.724,-8.058 57.453,-8.659 57.072,-9.305C56.674,-9.952 56.197,-10.542 55.625,-11.081C54.989,-11.62 54.257,-12.065 53.43,-12.421C52.587,-12.773 51.618,-12.951 50.489,-12.951C49.201,-12.951 48.024,-12.619 46.927,-11.954C45.845,-11.283 44.891,-10.327 44.049,-9.08C43.253,-7.872 42.633,-6.344 42.156,-4.478C41.711,-2.617 41.472,-0.56 41.472,1.705C41.472,3.512 41.647,5.154 41.981,6.625C42.331,8.102 42.904,9.474 43.73,10.739C44.478,11.948 45.432,12.92 46.608,13.645C47.769,14.381 49.169,14.742 50.774,14.742C52.508,14.742 53.923,14.367 55.052,13.613C56.181,12.863 57.135,12.033 57.898,11.129L57.898,-7.497ZM69.587,14.583L69.587,16.716L58.456,17.424L57.963,16.973L57.963,14.001L57.708,13.936C56.595,15.187 55.211,16.21 53.558,17.007C51.919,17.799 50.234,18.201 48.485,18.201C46.688,18.201 44.939,17.794 43.253,16.988C41.568,16.182 40.089,15.047 38.849,13.584C37.576,12.099 36.575,10.313 35.843,8.222C35.095,6.138 34.73,3.832 34.73,1.314C34.73,-0.986 35.127,-3.17 35.922,-5.237C36.717,-7.304 37.815,-9.113 39.199,-10.66C40.518,-12.104 42.124,-13.256 44.016,-14.119C45.924,-14.977 47.865,-15.408 49.836,-15.408C51.332,-15.408 52.778,-15.221 54.21,-14.84C55.641,-14.465 56.881,-13.987 57.898,-13.406L57.898,-24.499C57.898,-25.404 57.755,-26.229 57.453,-26.975C57.152,-27.714 56.722,-28.282 56.197,-28.672C55.594,-29.078 54.782,-29.379 53.749,-29.56C52.731,-29.743 51.633,-29.875 50.441,-29.964L50.441,-31.965L63.481,-32.677L63.973,-32.195L63.973,10.711C63.973,11.466 64.117,12.105 64.403,12.634C64.688,13.158 65.118,13.604 65.675,13.969C66.088,14.227 66.677,14.391 67.455,14.451C68.235,14.518 68.934,14.565 69.587,14.583M-183.349,-12L-198.918,-27.562L-207.394,-25.248L-191.841,-9.686L-183.349,-12ZM-234.379,1.669L-249.947,-13.823L-253.302,-12.981L-248.405,5.454L-234.379,1.669ZM-179.771,-32.677L-190.363,-29.804L-174.794,-14.244L-179.771,-32.677ZM-374.157,-13.945L-378.625,-12.42L-374.157,-10.895L-369.705,-12.42L-374.157,-13.945ZM-200.38,-7.444L-215.869,-22.934L-224.424,-20.692L-208.872,-5.13L-200.38,-7.444ZM22.549,-22.896C23.741,-22.896 24.727,-23.351 25.538,-24.265C26.349,-25.179 26.747,-26.253 26.747,-27.48C26.747,-28.573 26.365,-29.543 25.571,-30.372C24.791,-31.197 23.774,-31.613 22.549,-31.613C21.452,-31.613 20.497,-31.168 19.703,-30.287C18.891,-29.406 18.478,-28.371 18.478,-27.189C18.478,-26.07 18.891,-25.076 19.703,-24.2C20.497,-23.333 21.452,-22.896 22.549,-22.896M-8.826,-11.278C-8.269,-10.89 -7.824,-10.373 -7.522,-9.727C-7.203,-9.086 -7.045,-8.429 -7.045,-7.759L-7.045,11.874C-7.045,12.648 -7.188,13.279 -7.49,13.763C-7.777,14.246 -8.222,14.583 -8.826,14.775C-9.207,14.906 -9.669,14.991 -10.194,15.033C-10.718,15.08 -11.243,15.123 -11.736,15.164L-11.736,17.296L5.057,17.296L5.057,15.164C4.436,15.123 3.688,15.047 2.846,14.94C1.988,14.831 1.304,14.672 0.764,14.456C0.143,14.217 -0.319,13.862 -0.604,13.388C-0.906,12.915 -1.049,12.305 -1.049,11.551L-1.049,-6.981C-0.095,-8.486 1.049,-9.648 2.417,-10.467C3.768,-11.283 4.945,-11.696 5.964,-11.696C5.9,-11.307 5.82,-10.917 5.756,-10.534C5.676,-10.145 5.645,-9.713 5.645,-9.239C5.645,-8.486 5.964,-7.796 6.583,-7.172C7.219,-6.548 8.142,-6.241 9.35,-6.241C10.464,-6.241 11.29,-6.661 11.831,-7.516C12.371,-8.363 12.642,-9.338 12.642,-10.435C12.642,-11.921 12.213,-13.102 11.37,-13.987C10.511,-14.869 9.414,-15.31 8.062,-15.31C6.694,-15.31 5.2,-14.859 3.578,-13.954C1.94,-13.05 0.445,-11.728 -0.891,-9.986L-1.049,-9.986L-1.049,-14.469L-1.495,-14.925L-12.085,-14.212L-12.085,-12.084C-11.434,-12.038 -10.829,-11.958 -10.272,-11.841C-9.716,-11.723 -9.239,-11.531 -8.826,-11.278M-362.644,-11.024C-363.392,-11.024 -364.012,-11.625 -364.012,-12.372C-364.012,-13.113 -363.392,-13.716 -362.644,-13.716L-356.585,-13.716C-355.838,-13.716 -355.234,-13.113 -355.234,-12.372C-355.234,-11.625 -355.838,-11.024 -356.585,-11.024L-362.644,-11.024Z" style="fill:rgb(220,225,214);fill-rule:nonzero;"/>
            </g>
        </g>
    </g>
</svg>
