<?xml version="1.0" encoding="UTF-8" standalone="no"?>
<!DOCTYPE svg PUBLIC "-//W3C//DTD SVG 1.1//EN" "http://www.w3.org/Graphics/SVG/1.1/DTD/svg11.dtd">
<svg width="100%" height="100%" viewBox="0 0 569 208" version="1.1" xmlns="http://www.w3.org/2000/svg" xmlns:xlink="http://www.w3.org/1999/xlink" xml:space="preserve" xmlns:serif="http://www.serif.com/" style="fill-rule:evenodd;clip-rule:evenodd;stroke-linejoin:round;stroke-miterlimit:2;">
    <g id="Artboard1" transform="matrix(1.31575,0,0,1,0,0)">
        <rect x="0" y="0" width="432" height="208" style="fill:none;"/>
        <clipPath id="_clip1">
            <rect x="0" y="0" width="432" height="208"/>
        </clipPath>
        <g clip-path="url(#_clip1)">
            <g transform="matrix(1.53786,0,0,2.02344,375.051,43.3961)">
                <path d="M0,59.902L-2.662,59.902L-2.662,69.307L3.63,69.307L3.63,67.611L0,67.611L0,59.902ZM-16.849,65.704L-17.856,62.233L-18.942,65.704L-16.849,65.704ZM-16.147,59.902L-12.995,69.307L-15.803,69.307L-16.359,67.386L-19.459,67.386L-20.068,69.307L-22.214,69.307L-19.048,59.902L-16.147,59.902ZM-34.878,64.948L-37.765,59.902L-40.269,59.902L-40.269,69.307L-37.938,69.307L-37.938,64.048L-35.036,69.307L-32.547,69.307L-32.547,59.902L-34.878,59.902L-34.878,64.948ZM-53.568,64.604C-53.568,62.962 -53.86,61.464 -55.29,61.464C-56.721,61.464 -57.012,62.962 -57.012,64.604C-57.012,66.247 -56.721,67.744 -55.29,67.744C-53.86,67.744 -53.568,66.247 -53.568,64.604M-50.733,64.617C-50.733,67.002 -51.833,69.492 -55.29,69.492C-58.748,69.492 -59.847,66.988 -59.847,64.604C-59.847,62.219 -58.748,59.716 -55.29,59.716C-51.833,59.716 -50.733,62.233 -50.733,64.617M-72.974,69.306L-70.312,69.306L-70.312,59.901L-72.974,59.901L-72.974,69.306ZM-91.135,61.598L-88.552,61.598L-88.552,69.307L-85.889,69.307L-85.889,61.598L-83.306,61.598L-83.306,59.902L-91.135,59.902L-91.135,61.598ZM-104.54,65.704L-105.547,62.233L-106.633,65.704L-104.54,65.704ZM-103.838,59.902L-100.686,69.307L-103.494,69.307L-104.05,67.386L-107.15,67.386L-107.76,69.307L-109.905,69.307L-106.739,59.902L-103.838,59.902ZM-122.569,64.948L-125.456,59.902L-127.96,59.902L-127.96,69.307L-125.629,69.307L-125.629,64.048L-122.728,69.307L-120.238,69.307L-120.238,59.902L-122.569,59.902L-122.569,64.948ZM-141.763,62.803C-141.763,61.822 -142.094,61.598 -143.219,61.598L-144.147,61.598L-144.147,64.007L-143.352,64.007C-142.001,64.007 -141.763,63.968 -141.763,62.803M-140.332,65.253L-138.689,69.307L-141.432,69.307L-142.703,65.704L-144.147,65.704L-144.147,69.307L-146.797,69.307L-146.797,59.902L-143.021,59.902C-139.67,59.902 -139.047,61.292 -139.047,62.83C-139.047,64.485 -139.776,65.015 -140.332,65.253M-163.567,69.307L-157.261,69.307L-157.261,67.611L-160.904,67.611L-160.904,65.399L-157.884,65.399L-157.645,63.704L-160.904,63.704L-160.904,61.598L-157.261,61.598L-157.261,59.902L-163.567,59.902L-163.567,69.307ZM-181.728,61.598L-179.145,61.598L-179.145,69.307L-176.482,69.307L-176.482,61.598L-173.899,61.598L-173.899,59.902L-181.728,59.902L-181.728,61.598ZM-194.14,64.948L-197.027,59.902L-199.531,59.902L-199.531,69.307L-197.199,69.307L-197.199,64.048L-194.298,69.307L-191.808,69.307L-191.808,59.902L-194.14,59.902L-194.14,64.948ZM-213.055,69.306L-210.392,69.306L-210.392,59.901L-213.055,59.901L-213.055,69.306ZM21.543,-8.408L21.543,23.762L4.824,-8.408L-9.699,-8.408L-9.699,51.542L3.811,51.542C3.811,51.542 3.98,18.19 3.811,18.021L20.614,51.542L35.052,51.542L35.052,-8.408L21.543,-8.408ZM-14.766,40.735L-35.875,40.735L-35.875,26.634L-18.312,26.634L-16.961,15.826L-35.875,15.826L-35.875,2.4L-14.766,2.4L-14.766,-8.408L-51.242,-8.408L-51.242,51.542L-14.766,51.542L-14.766,40.735ZM-56.308,40.735L-77.417,40.735L-77.417,26.634L-59.854,26.634L-58.504,15.826L-77.417,15.826L-77.417,2.4L-56.308,2.4L-56.308,-8.408L-92.785,-8.408L-92.785,51.542L-56.308,51.542L-56.308,40.735ZM-114.4,10.084C-114.4,3.836 -116.342,2.4 -122.843,2.4L-128.163,2.4L-128.163,17.768L-123.604,17.768C-115.751,17.768 -114.4,17.514 -114.4,10.084M-106.041,25.705L-96.584,51.542L-112.458,51.542L-119.804,28.575L-128.163,28.575L-128.163,51.542L-143.531,51.542L-143.531,-8.408L-121.662,-8.408C-102.241,-8.408 -98.61,0.458 -98.61,10.253C-98.61,20.807 -102.832,24.185 -106.041,25.705M-161.769,27.731C-161.347,39.046 -165.484,41.157 -169.705,41.157C-173.252,41.157 -178.825,40.734 -178.656,21.483C-178.571,11.013 -177.98,1.977 -169.705,1.977C-165.737,1.977 -161.599,4.764 -161.769,14.137L-148.174,14.137C-147.668,-1.316 -154.929,-9.59 -169.199,-9.59C-189.21,-9.59 -194.783,5.693 -194.783,20.891C-194.783,46.392 -185.495,52.724 -169.705,52.724C-158.813,52.724 -147.414,48.84 -148.174,27.731L-161.769,27.731ZM-217.328,14.39C-222.056,12.87 -228.727,11.942 -228.727,6.959C-228.727,2.823 -225.518,1.134 -221.296,1.134C-217.581,1.134 -212.093,2.062 -212.515,11.604L-198.92,11.604C-198.836,-5.283 -210.488,-9.59 -222.056,-9.59C-234.721,-9.59 -242.912,-1.147 -242.912,7.297C-242.912,20.47 -237.508,23.086 -226.531,26.211C-223.238,27.14 -212.853,28.913 -212.853,35.331C-212.853,41.663 -218.51,42.086 -221.043,42.086C-226.616,42.086 -230.5,39.89 -230.246,29.843L-243.841,29.843C-244.601,47.743 -233.539,52.724 -221.296,52.724C-206.435,52.724 -198.583,44.45 -198.583,33.81C-198.583,18.444 -212.43,15.994 -217.328,14.39M-202.203,66.648L-202.175,66.634L-202.206,66.65L-202.203,66.648Z" style="fill:rgb(220,225,214);fill-rule:nonzero;"/>
            </g>
        </g>
    </g>
</svg>
