<?xml version="1.0" encoding="utf-8"?>
<!-- Generator: Adobe Illustrator 22.0.1, SVG Export Plug-In . SVG Version: 6.00 Build 0)  -->
<svg version="1.1" id="Capa_1" xmlns="http://www.w3.org/2000/svg" xmlns:xlink="http://www.w3.org/1999/xlink" x="0px" y="0px"
	 viewBox="0 0 593.2 208" style="enable-background:new 0 0 593.2 208;" xml:space="preserve">
<style type="text/css">
	.st0{fill:#DCE1D6;}
</style>
<g>
	<polygon class="st0" points="569,44.6 574.1,44.6 574.1,41.9 561,41.9 561,44.6 566.1,44.6 566.1,58.1 569,58.1 	"/>
	<polygon class="st0" points="590.3,46.5 590.3,58.1 593.1,58.1 593.1,41.9 590.1,41.9 585.2,49.6 580.3,41.9 577.2,41.9 
		577.2,58.1 580,58.1 580,46.6 585.1,54.1 585.2,54.1 	"/>
	<path class="st0" d="M0,120.8V37.5h38.7c16.9,0,27.8,8.6,27.8,22c0,7.7-3.1,13.5-9.5,17.6c9.7,4.2,14,10.5,14,20.2
		c0,15-11.5,23.5-31.4,23.5H0z M39.7,103.1c7.8,0,11.7-2.6,11.7-7.8c0-5.4-4.1-8.1-12.3-8.1H19.4v15.9H39.7z M34.9,70.4
		c7.9,0,11.9-2.6,11.9-7.6c0-6.7-6.7-7.6-10.8-7.6H19.4v15.2H34.9z"/>
	<path class="st0" d="M146.9,120.8l-17.4-26h-12.6v26H97.1V37.5h38.2c19.8,0,31.7,10.4,31.7,27.8c0,12.3-6,21.4-16.9,25.9l20.2,29.6
		H146.9z M134.1,77c7.9,0,12.7-4,12.7-10.5c0-7.1-4.6-10.9-13.1-10.9h-16.8V77H134.1z"/>
	<path class="st0" d="M229.1,122.1c-23,0-36.2-13.5-36.2-37.1V37.5h19.9v47c0,12.3,5.9,19.1,16.6,19.1c10.7,0,16.6-6.6,16.6-18.5
		V37.5h19.9v46.9C265.7,108.3,252.4,122.1,229.1,122.1"/>
	<polygon class="st0" points="314.1,120.8 314.1,56 289.4,56 289.4,37.5 358.7,37.5 358.7,56 334,56 334,120.8 	"/>
	<path class="st0" d="M418.3,122.1c-23,0-36.2-13.5-36.2-37.1V37.5h19.9v47c0,12.3,5.9,19.1,16.6,19.1s16.6-6.6,16.6-18.5V37.5h19.9
		v46.9C454.9,108.3,441.6,122.1,418.3,122.1"/>
	<path class="st0" d="M514.3,121.9c-13.1,0-25.6-4.7-35.2-13.3l-0.7-0.6l11.8-14.1l0.8,0.6c8,6.6,15.5,9.7,23.7,9.7
		c6.7,0,10.8-2.5,10.8-6.7c0-4-2.2-6.2-15.6-9.6c-15.7-4-27.7-8.5-27.7-25.8c0-15.2,12.1-25.7,29.4-25.7c11.7,0,22.1,3.6,30.8,10.6
		l0.7,0.6l-10.4,15l-0.8-0.6c-7.6-5.3-14.3-7.8-20.6-7.8c-5.8,0-9.5,2.4-9.5,6.1c0,4.8,2.8,6.4,16.8,10
		c15.9,4.2,26.5,10.1,26.5,25.4C545.2,111.9,533.3,121.9,514.3,121.9"/>
	<polygon class="st0" points="53.7,171.3 53.7,157.4 47.6,157.4 47.6,154.9 62.5,154.9 62.5,157.4 56.5,157.4 56.5,171.3 	"/>
	<polygon class="st0" points="81.8,171.3 81.8,163.7 72.8,163.7 72.8,171.3 70.1,171.3 70.1,154.9 72.8,154.9 72.8,161.1 
		81.8,161.1 81.8,154.9 84.5,154.9 84.5,171.3 	"/>
	<polygon class="st0" points="94.3,171.3 94.3,154.9 107.6,154.9 107.6,157.4 97,157.4 97,161.4 103.4,161.4 103.4,163.9 97,163.9 
		97,168.7 108.1,168.7 108.1,171.3 	"/>
	<path class="st0" d="M126,171.3v-16.4h8.8c2,0,3.6,0.6,4.6,1.7c0.9,1,1.3,2,1.3,3.3c0,1.4-0.5,2.5-1.5,3.5c-1.1,1-2.5,1.5-4.4,1.5
		h-6.1v6.4H126z M134.8,162.3c1.1,0,1.9-0.3,2.5-0.8c0.5-0.5,0.7-1,0.7-1.7c0-0.6-0.2-1.1-0.7-1.6c-0.5-0.6-1.4-0.9-2.5-0.9h-6.1
		v4.9H134.8z"/>
	<path class="st0" d="M160.9,171.3l-3.9-6.6l-5.8,0.2v6.4h-2.8v-16.4h9c2,0,3.6,0.6,4.6,1.7c0.9,0.9,1.3,2,1.3,3.3
		c0,1.1-0.4,2.1-1.1,3c-0.6,0.7-1.4,1.3-2.4,1.6l4,6.8H160.9z M158,162.3c0.8,0,1.4-0.2,1.9-0.7c0.5-0.5,0.8-1.1,0.8-1.7
		c0-0.6-0.2-1.1-0.7-1.6c-0.6-0.6-1.4-0.9-2.5-0.9h-6.2v4.9H158z"/>
	<polygon class="st0" points="172,171.3 172,154.9 185.3,154.9 185.3,157.4 174.8,157.4 174.8,161.4 181.1,161.4 181.1,163.9 
		174.8,163.9 174.8,168.7 185.9,168.7 185.9,171.3 	"/>
	<polygon class="st0" points="207.8,171.3 207.8,159.9 202.6,168.9 201.9,168.9 196.5,160 196.5,171.3 193.8,171.3 193.8,154.9 
		196.4,154.9 202.2,164.5 207.9,154.9 210.6,154.9 210.6,171.3 	"/>
	<rect x="220.3" y="154.9" class="st0" width="2.8" height="16.4"/>
	<path class="st0" d="M239.6,171.7c-2.1,0-3.8-0.6-5.2-1.7c-1.4-1.1-2-2.7-2-4.6v-10.5h2.7v10.5c0,1.2,0.4,2.1,1.2,2.8
		c0.8,0.7,1.9,1,3.2,1c1.3,0,2.4-0.3,3.3-1c0.8-0.7,1.2-1.6,1.2-2.8v-10.5h2.8v10.5c0,2-0.7,3.5-2.1,4.6
		C243.5,171.1,241.7,171.7,239.6,171.7"/>
	<polygon class="st0" points="270.3,171.3 270.3,159.9 265,168.9 264.4,168.9 258.9,160 258.9,171.3 256.3,171.3 256.3,154.9 
		258.8,154.9 264.7,164.5 270.4,154.9 273,154.9 273,171.3 	"/>
	<polygon class="st0" points="292.7,171.3 292.7,154.9 295.5,154.9 295.5,168.7 305.4,168.7 305.4,171.3 	"/>
	<path class="st0" d="M326.1,171.3l-2.4-4.8l-7.6,0l-1.9,4.7l-2.4,0h-0.5l7.6-16.4h2.2l7.8,16.4H326.1z M322.6,164.2l-2.6-5.8
		l-2.6,5.8H322.6z"/>
	<path class="st0" d="M342.8,171.7c-2.5,0-4.7-0.8-6.4-2.5c-1.7-1.7-2.6-3.7-2.6-6.1c0-2.4,0.9-4.4,2.6-6.1c1.7-1.7,3.9-2.5,6.3-2.5
		c2.7,0,5.1,0.9,7.3,2.7l0.3,0.3l-2,1.8L348,159c-0.7-0.6-1.5-1.1-2.4-1.5c-1-0.4-2-0.5-2.9-0.5c-1.8,0-3.2,0.6-4.4,1.8
		c-1.2,1.2-1.7,2.6-1.7,4.3c0,1.7,0.6,3.1,1.7,4.3c1.1,1.2,2.7,1.8,4.6,1.8c0.9,0,1.8-0.1,2.7-0.4c0.9-0.3,1.6-0.6,2.2-1.1l-0.1-3.1
		h-5.1V162h7.7v6.9c-1.1,1-2.2,1.6-3.5,2.1C345.3,171.5,344,171.7,342.8,171.7"/>
	<polygon class="st0" points="359.2,171.3 359.2,154.9 372.5,154.9 372.5,157.4 362,157.4 362,161.4 368.3,161.4 368.3,163.9 
		362,163.9 362,168.7 373.1,168.7 373.1,171.3 	"/>
	<path class="st0" d="M393.4,171.3l-3.9-6.6l-5.8,0.2v6.4H381v-16.4h9c2,0,3.6,0.6,4.6,1.7c0.9,0.9,1.3,2,1.3,3.3
		c0,1.1-0.4,2.1-1.1,3c-0.6,0.7-1.4,1.3-2.4,1.6l4,6.8H393.4z M390.5,162.3c0.8,0,1.4-0.2,1.9-0.7c0.5-0.5,0.8-1.1,0.8-1.7
		c0-0.6-0.2-1.1-0.7-1.6c-0.6-0.6-1.4-0.9-2.5-0.9h-6.2v4.9H390.5z"/>
	<path class="st0" d="M414.4,171.3v-16.4h9.5c1.7,0,3.1,0.5,4.1,1.5c0.8,0.8,1.2,1.7,1.2,2.7c0,0.8-0.2,1.6-0.7,2.2
		c-0.3,0.4-0.6,0.7-1,1c0.6,0.3,1.2,0.7,1.6,1.2c0.6,0.8,0.9,1.7,0.9,2.8c0,1.4-0.5,2.5-1.5,3.5c-1,1-2.4,1.4-4.3,1.4H414.4z
		 M424.2,168.7c0.9,0,1.7-0.3,2.2-0.8c0.5-0.5,0.7-1,0.7-1.7c0-0.6-0.2-1.1-0.6-1.5c-0.5-0.6-1.1-0.8-1.9-0.8h-7.3v4.8H424.2z
		 M424,161.6c0.7,0,1.3-0.2,1.7-0.6c0.4-0.4,0.6-0.9,0.6-1.6c0-0.5-0.2-1-0.6-1.4c-0.5-0.4-1.1-0.7-2-0.7h-6.5v4.2H424z"/>
	<polygon class="st0" points="438.7,171.3 438.7,154.9 452,154.9 452,157.4 441.4,157.4 441.4,161.4 447.8,161.4 447.8,163.9 
		441.4,163.9 441.4,168.7 452.5,168.7 452.5,171.3 	"/>
	<polygon class="st0" points="460.4,171.3 460.4,154.9 473.7,154.9 473.7,157.4 463.2,157.4 463.2,161.4 469.6,161.4 469.6,163.9 
		463.2,163.9 463.2,168.7 474.3,168.7 474.3,171.3 	"/>
	<path class="st0" d="M494.7,171.3l-3.9-6.6l-5.8,0.2v6.4h-2.8v-16.4h9c2,0,3.6,0.6,4.6,1.7c0.9,0.9,1.3,2,1.3,3.3
		c0,1.1-0.4,2.1-1.1,3c-0.6,0.7-1.4,1.3-2.4,1.6l4,6.8H494.7z M491.7,162.3c0.8,0,1.4-0.2,1.9-0.7c0.5-0.5,0.8-1.1,0.8-1.7
		c0-0.6-0.2-1.1-0.7-1.6c-0.6-0.6-1.4-0.9-2.5-0.9H485v4.9H491.7z"/>
</g>
</svg>
