<?xml version="1.0" encoding="UTF-8" standalone="no"?>
<!DOCTYPE svg PUBLIC "-//W3C//DTD SVG 1.1//EN" "http://www.w3.org/Graphics/SVG/1.1/DTD/svg11.dtd">
<svg width="100%" height="100%" viewBox="0 0 279 208" version="1.1" xmlns="http://www.w3.org/2000/svg" xmlns:xlink="http://www.w3.org/1999/xlink" xml:space="preserve" xmlns:serif="http://www.serif.com/" style="fill-rule:evenodd;clip-rule:evenodd;stroke-linejoin:round;stroke-miterlimit:2;">
    <g id="Artboard1" transform="matrix(0.644777,0,0,1,0,0)">
        <rect x="0" y="0" width="432" height="208" style="fill:none;"/>
        <clipPath id="_clip1">
            <rect x="0" y="0" width="432" height="208"/>
        </clipPath>
        <g clip-path="url(#_clip1)">
            <g transform="matrix(2.53347,0,0,1.63352,227.301,174.941)">
                <path d="M0,-86.856L0,-85.906C0,-85.776 -0.105,-85.666 -0.242,-85.666C-0.378,-85.666 -0.483,-85.776 -0.483,-85.906L-0.483,-86.746L-0.882,-86.649L-0.882,-84.356C-0.882,-84.227 -0.993,-84.126 -1.117,-84.126C-1.258,-84.126 -1.366,-84.227 -1.366,-84.356L-1.366,-87.105C-1.366,-87.724 -0.805,-88.222 -0.122,-88.222C0.549,-88.222 1.104,-87.724 1.104,-87.105L0,-86.856ZM0.062,-90.419C-0.271,-90.74 -0.649,-91.001 -1.079,-91.184C-1.52,-91.364 -1.987,-91.47 -2.47,-91.47C-2.956,-91.47 -3.421,-91.364 -3.869,-91.184C-4.292,-91.001 -4.674,-90.74 -5.012,-90.419C-5.334,-90.088 -5.59,-89.705 -5.761,-89.273C-5.958,-88.841 -6.054,-88.363 -6.054,-87.881L-6.054,-87.107C-6.052,-87.726 -5.5,-88.222 -4.816,-88.222C-4.133,-88.222 -3.586,-87.724 -3.586,-87.105L-3.586,-85.68C-3.586,-85.546 -3.691,-85.441 -3.823,-85.441C-3.955,-85.441 -4.058,-85.546 -4.058,-85.68L-4.058,-86.649L-4.464,-86.746L-4.464,-86.342C-4.464,-86.218 -4.572,-86.098 -4.701,-86.098C-4.835,-86.098 -4.942,-86.218 -4.942,-86.342L-4.942,-86.856L-6.054,-87.105L-6.054,-85.316C-6.054,-84.826 -5.958,-84.361 -5.761,-83.92C-5.59,-83.492 -5.334,-83.115 -5.012,-82.788C-4.674,-82.45 -4.292,-82.192 -3.869,-82.009C-3.421,-81.824 -2.956,-81.732 -2.47,-81.732C-1.987,-81.732 -1.52,-81.824 -1.079,-82.009C-0.649,-82.192 -0.271,-82.45 0.062,-82.788C0.384,-83.115 0.646,-83.492 0.823,-83.92C1.013,-84.361 1.104,-84.826 1.104,-85.316L1.104,-87.881C1.104,-88.363 1.013,-88.841 0.823,-89.273C0.646,-89.705 0.384,-90.088 0.062,-90.419M-0.378,-70.9C-0.378,-69.681 -0.911,-68.578 -1.751,-67.816L-2.471,-25.311L-3.187,-67.816C-4.03,-68.578 -4.565,-69.681 -4.565,-70.9C-4.565,-72.233 -3.948,-73.404 -2.981,-74.162L-4.33,-80.48C-3.748,-80.259 -3.128,-80.144 -2.471,-80.144C-1.821,-80.144 -1.199,-80.259 -0.622,-80.48L-1.969,-74.162C-1.002,-73.404 -0.378,-72.233 -0.378,-70.9M7.885,15.024C7.512,15.651 7.19,15.982 6.84,15.982C6.571,15.982 6.401,15.757 6.401,15.393C6.401,14.025 7.301,12.323 7.808,11.685C8.11,11.311 8.343,11.142 8.575,11.142C8.885,11.142 8.981,11.436 8.981,11.736C8.981,12.821 8.275,14.386 7.885,15.024M8.481,10.509C7.836,10.509 7.075,10.696 6.254,11.417C5.305,12.241 4.773,13.527 4.763,14.63C4.745,15.618 5.374,16.611 6.822,16.611C7.653,16.611 8.498,16.325 9.248,15.609C10.07,14.813 10.567,13.618 10.567,12.586C10.567,11.565 10.004,10.509 8.481,10.509M15.73,11.656C15.73,12.203 15.303,12.386 15.085,12.386C14.951,12.386 14.841,12.294 14.754,12.189C14.188,11.532 13.914,11.386 13.632,11.386C13.426,11.386 13.261,11.564 13.261,11.752C13.261,11.909 13.348,12.111 13.632,12.386L14.181,12.947C14.662,13.465 14.902,13.895 14.902,14.4C14.902,14.979 14.585,15.543 14.043,15.984C13.555,16.385 12.949,16.61 12.257,16.61C11.614,16.61 10.851,16.209 10.851,15.517C10.851,15.047 11.184,14.683 11.555,14.683C11.712,14.683 11.818,14.831 11.992,15C12.55,15.585 12.829,15.742 13.113,15.742C13.376,15.742 13.602,15.543 13.602,15.327C13.602,15.125 13.475,14.904 13.189,14.606L12.719,14.101C12.278,13.646 12.024,13.172 12.024,12.658C12.024,12.05 12.393,11.478 12.82,11.109C13.229,10.769 13.761,10.508 14.343,10.508C15.113,10.508 15.73,11.013 15.73,11.656M4.017,14.703C3.536,15.43 2.083,16.611 0.91,16.611C0.523,16.611 0.257,16.298 0.257,15.993C0.257,15.801 0.286,15.608 0.412,15.231L1.713,11.45L0.666,11.45C0.513,11.33 0.614,10.999 0.774,10.907L2.013,10.659L3.036,9.29C3.168,9.203 3.348,9.171 3.513,9.171C3.719,9.171 3.951,9.267 4.048,9.405L3.663,10.706L4.97,10.706C5.203,10.893 5.05,11.349 4.895,11.45L3.464,11.45L2.14,15.144C2.069,15.341 2.069,15.47 2.22,15.47C2.478,15.47 3.168,14.947 3.74,14.372C3.945,14.386 4.027,14.515 4.017,14.703M-12.046,9.516C-12.154,9.669 -12.527,9.669 -12.593,9.516C-12.461,8.059 -13.001,7.435 -14.33,7.435C-16.756,7.435 -18.69,10.371 -18.69,13.004C-18.69,15.325 -17.514,15.982 -16.465,15.982C-15.275,15.982 -14.456,15.253 -13.471,13.943C-13.313,13.832 -12.989,13.872 -12.947,14.03C-13.215,14.889 -13.722,15.905 -13.958,16.28C-14.496,16.337 -15.275,16.64 -16.505,16.64C-19.427,16.64 -20.866,15.022 -20.845,12.894C-20.838,11.042 -19.885,9.383 -18.812,8.437C-17.899,7.622 -16.348,6.782 -14.203,6.782C-12.778,6.782 -11.771,7.136 -11.351,7.31C-11.666,8.019 -11.849,8.768 -12.046,9.516M-27.374,12.66C-27.787,13.084 -28.221,13.331 -28.728,13.479C-28.602,12.946 -28.259,12.063 -27.74,11.507C-27.527,11.263 -27.313,11.143 -27.127,11.143C-26.961,11.143 -26.858,11.31 -26.858,11.47C-26.874,11.829 -27.088,12.366 -27.374,12.66M-26.633,10.51C-27.297,10.51 -28.076,10.725 -28.864,11.329C-29.996,12.188 -30.789,13.685 -30.789,14.971C-30.789,15.882 -30.287,16.612 -29.263,16.612C-27.984,16.612 -26.851,15.969 -26.163,14.903C-26.149,14.711 -26.29,14.568 -26.447,14.568C-27.104,15.229 -27.787,15.57 -28.296,15.57C-28.728,15.57 -28.916,15.173 -28.916,14.783C-28.916,14.485 -28.893,14.274 -28.836,14.103C-27.684,13.805 -25.245,13.115 -25.245,11.655C-25.245,11.028 -25.799,10.51 -26.633,10.51M19.541,-21.861C19.541,-20.923 19.297,-20.261 18.807,-19.876C18.326,-19.498 17.551,-19.301 16.479,-19.301L14.082,-19.301L14.082,-26.271L16.391,-26.271C17.485,-26.271 18.285,-26.098 18.783,-25.753C19.283,-25.408 19.541,-24.713 19.541,-23.662L19.541,-21.861ZM5.292,-3.211C5.292,-0.956 1.809,0.866 -2.471,0.866C-6.757,0.866 -10.233,-0.956 -10.233,-3.211L-11.031,-16.758C-11.031,-19.316 -9.897,-21.623 -8.109,-23.182L-11.031,-72.81C-11.031,-75.502 -9.771,-77.914 -7.823,-79.482L-6.757,-90.142C-6.757,-92.496 -4.835,-94.411 -2.471,-94.411C-0.106,-94.411 1.809,-92.496 1.809,-90.142L2.87,-79.482C4.821,-77.914 6.081,-75.502 6.081,-72.81L3.168,-23.182C4.952,-21.623 6.081,-19.316 6.081,-16.758L5.292,-3.211ZM-18.308,-17.218C-18.308,-15.673 -18.369,-14.413 -18.463,-13.444C-18.583,-12.484 -18.768,-11.735 -19.036,-11.193C-19.315,-10.66 -19.646,-10.306 -20.078,-10.123C-20.493,-9.956 -21.021,-9.869 -21.65,-9.869C-22.279,-9.869 -22.807,-9.965 -23.225,-10.149C-23.654,-10.343 -23.992,-10.7 -24.267,-11.217C-24.532,-11.74 -24.722,-12.46 -24.844,-13.399C-24.973,-14.336 -25.032,-15.563 -25.032,-17.07L-25.032,-20.539C-25.032,-21.771 -24.992,-22.769 -24.877,-23.55C-24.767,-24.318 -24.584,-24.918 -24.328,-25.355C-24.072,-25.777 -23.744,-26.068 -23.312,-26.228C-22.892,-26.385 -22.38,-26.467 -21.742,-26.467C-21.12,-26.467 -20.582,-26.39 -20.139,-26.247C-19.704,-26.113 -19.353,-25.829 -19.087,-25.397C-18.815,-24.965 -18.615,-24.386 -18.496,-23.642C-18.369,-22.898 -18.308,-21.919 -18.308,-20.727L-18.308,-17.218ZM-20.352,-51.7C-20.352,-50.151 -20.424,-48.896 -20.53,-47.926C-20.638,-46.962 -20.823,-46.218 -21.091,-45.671C-21.365,-45.134 -21.706,-44.784 -22.128,-44.61C-22.546,-44.434 -23.076,-44.352 -23.701,-44.352C-24.328,-44.352 -24.856,-44.448 -25.281,-44.641C-25.7,-44.821 -26.052,-45.173 -26.32,-45.699C-26.583,-46.223 -26.773,-46.952 -26.902,-47.877C-27.029,-48.809 -27.09,-50.046 -27.09,-51.553L-27.09,-55.012C-27.09,-56.249 -27.041,-57.256 -26.933,-58.023C-26.818,-58.805 -26.637,-59.406 -26.386,-59.823C-26.132,-60.255 -25.797,-60.551 -25.377,-60.706C-24.954,-60.873 -24.426,-60.95 -23.797,-60.95C-23.168,-60.95 -22.642,-60.877 -22.194,-60.73C-21.76,-60.591 -21.412,-60.307 -21.136,-59.875C-20.873,-59.448 -20.68,-58.864 -20.553,-58.129C-20.424,-57.376 -20.352,-56.413 -20.352,-55.209L-20.352,-51.7ZM31.03,-3.135L27.826,-11.241L23.648,-14.748C25.963,-15.348 27.641,-16.308 28.673,-17.623C29.704,-18.937 30.234,-20.74 30.234,-23.051C30.234,-25.234 29.896,-27.02 29.211,-28.431C28.547,-29.846 27.601,-30.963 26.392,-31.782C25.181,-32.599 23.729,-33.174 22.01,-33.51C20.295,-33.836 18.417,-34.01 16.345,-34.01L5.125,-34.01L5.469,-39.869C6.287,-39.185 7.189,-38.577 8.257,-38.12C10.047,-37.343 12.225,-36.944 14.805,-36.944C15.425,-36.944 16.1,-36.998 16.812,-37.089C17.516,-37.195 18.016,-37.265 18.333,-37.329L22.052,-42.499L24.414,-37.237L27.751,-37.237L27.751,-55.631L15.084,-55.631L15.084,-49.235L18.806,-49.235L18.806,-45.489C18.333,-45.269 17.837,-45.104 17.325,-44.985C16.812,-44.879 16.199,-44.823 15.504,-44.823C14.943,-44.823 14.429,-44.898 13.981,-45.067C13.523,-45.21 13.131,-45.536 12.808,-46.008C12.472,-46.482 12.216,-47.158 12.023,-48.045C11.845,-48.937 11.742,-50.104 11.742,-51.547L11.742,-55.164C11.742,-56.206 11.852,-57.051 12.07,-57.703C12.291,-58.346 12.615,-58.863 13.037,-59.243C13.455,-59.621 13.992,-59.877 14.636,-60.02C15.281,-60.163 16.03,-60.231 16.87,-60.231C18.382,-60.231 19.741,-60.121 20.949,-59.877C22.16,-59.642 23.465,-59.353 24.869,-59.008L25.826,-67.493C24.913,-67.84 23.648,-68.185 22.01,-68.535C20.374,-68.88 18.546,-69.058 16.549,-69.058C13.627,-69.058 11.172,-68.654 9.181,-67.845C8.407,-67.534 7.708,-67.161 7.047,-66.757L7.398,-72.729L7.398,-72.808C7.398,-74.052 7.175,-75.247 6.743,-76.341C11.292,-79.343 14.287,-84.494 14.287,-90.343C14.287,-99.593 6.785,-107.094 -2.471,-107.094C-11.735,-107.094 -19.224,-99.593 -19.224,-90.343C-19.224,-84.494 -16.23,-79.343 -11.693,-76.341C-12.108,-75.247 -12.338,-74.052 -12.338,-72.808L-12.338,-72.766L-11.781,-63.256C-12.043,-63.657 -12.268,-64.089 -12.573,-64.456C-13.745,-65.877 -15.256,-67.001 -17.089,-67.824C-18.925,-68.646 -21.126,-69.057 -23.701,-69.057C-26.247,-69.057 -28.437,-68.646 -30.28,-67.824C-32.101,-67.001 -33.615,-65.872 -34.816,-64.433C-36.004,-62.999 -36.889,-61.3 -37.45,-59.354C-38.015,-57.415 -38.297,-55.338 -38.297,-53.12C-38.297,-51.039 -38.015,-49.006 -37.45,-47.058C-36.889,-45.091 -36.011,-43.369 -34.844,-41.881C-33.652,-40.404 -32.164,-39.205 -30.341,-38.313C-28.522,-37.395 -26.339,-36.945 -23.797,-36.945C-21.189,-36.945 -18.974,-37.395 -17.139,-38.313C-15.303,-39.205 -13.785,-40.404 -12.593,-41.906C-11.811,-42.885 -11.223,-43.998 -10.721,-45.172L-9.763,-28.834C-10.013,-29.213 -10.225,-29.624 -10.511,-29.974C-11.694,-31.394 -13.201,-32.523 -15.031,-33.337C-16.869,-34.173 -19.075,-34.574 -21.65,-34.574C-24.192,-34.574 -26.375,-34.173 -28.217,-33.337C-30.052,-32.523 -31.566,-31.389 -32.77,-29.955C-33.956,-28.512 -34.833,-26.827 -35.396,-24.881C-35.955,-22.928 -36.241,-20.846 -36.241,-18.638C-36.241,-16.551 -35.955,-14.528 -35.396,-12.571C-34.833,-10.613 -33.956,-8.881 -32.782,-7.398C-31.604,-5.917 -30.111,-4.718 -28.29,-3.821C-26.471,-2.927 -24.283,-2.471 -21.742,-2.471C-19.139,-2.471 -16.914,-2.927 -15.085,-3.821C-13.781,-4.456 -12.703,-5.301 -11.729,-6.24L-11.55,-3.172C-11.528,-1.583 -10.475,-0.154 -8.567,0.843C-6.926,1.712 -4.75,2.186 -2.471,2.186C-0.185,2.186 1.976,1.712 3.629,0.843C5.519,-0.146 6.563,-1.561 6.603,-3.135L14.413,-3.135L14.413,-13.286L16.15,-13.286L19.875,-3.135L31.03,-3.135ZM0.072,11.373C0.072,12.178 -0.484,12.76 -0.867,12.76C-1.153,12.76 -1.212,12.476 -1.29,12.112C-1.325,11.873 -1.393,11.781 -1.508,11.781C-1.752,11.781 -2.125,12.366 -2.489,13.018C-3.134,14.171 -3.526,15.234 -3.989,16.353C-4.075,16.548 -4.362,16.611 -4.66,16.611C-5.021,16.611 -5.598,16.496 -5.448,16.041C-5.031,14.727 -4.514,13.234 -4.111,12.011C-4.026,11.737 -4.017,11.551 -4.174,11.551C-4.411,11.551 -4.951,11.967 -5.347,12.42C-5.523,12.399 -5.634,12.255 -5.605,12.098C-5.324,11.516 -4.411,10.509 -3.374,10.509C-2.552,10.509 -2.522,11.157 -2.759,11.878L-3.275,13.386L-3.207,13.386C-2.735,12.549 -2.36,11.939 -2.024,11.497C-1.578,10.894 -1.142,10.509 -0.618,10.509C-0.215,10.509 0.072,10.788 0.072,11.373M-9.117,15.024C-9.506,15.651 -9.814,15.982 -10.17,15.982C-10.433,15.982 -10.612,15.757 -10.612,15.393C-10.612,14.025 -9.715,12.323 -9.201,11.685C-8.903,11.311 -8.661,11.142 -8.434,11.142C-8.117,11.142 -8.025,11.436 -8.025,11.736C-8.025,12.821 -8.727,14.386 -9.117,15.024M-8.534,10.509C-9.175,10.509 -9.924,10.696 -10.75,11.417C-11.705,12.241 -12.231,13.527 -12.245,14.63C-12.264,15.618 -11.63,16.611 -10.182,16.611C-9.351,16.611 -8.492,16.325 -7.758,15.609C-6.934,14.813 -6.441,13.618 -6.441,12.586C-6.441,11.565 -7.011,10.509 -8.534,10.509M79.326,-13.137C79.326,-11.395 79.113,-9.87 78.693,-8.541C78.272,-7.211 77.578,-6.098 76.627,-5.202C75.667,-4.291 74.407,-3.613 72.853,-3.157C71.299,-2.697 69.41,-2.472 67.176,-2.472C64.646,-2.472 62.547,-2.679 60.902,-3.082C59.25,-3.498 57.823,-3.974 56.633,-4.502L58.196,-11.813C59.513,-11.372 60.78,-11.006 62.031,-10.724C63.268,-10.435 64.603,-10.297 66.049,-10.297C66.84,-10.297 67.474,-10.32 67.962,-10.363C68.441,-10.412 68.816,-10.487 69.096,-10.597C69.358,-10.715 69.544,-10.858 69.633,-11.029C69.717,-11.198 69.776,-11.433 69.776,-11.712C69.776,-11.999 69.717,-12.215 69.61,-12.388C69.492,-12.541 69.304,-12.665 69.044,-12.761C68.774,-12.858 68.399,-12.94 67.943,-13.022C67.464,-13.102 66.868,-13.184 66.15,-13.289C64.603,-13.477 63.261,-13.759 62.097,-14.139C60.937,-14.512 59.966,-15.094 59.182,-15.866C58.403,-16.639 57.799,-17.669 57.391,-18.95C56.983,-20.227 56.783,-21.868 56.783,-23.858C56.783,-27.116 57.738,-29.711 59.67,-31.66C61.599,-33.601 64.561,-34.575 68.544,-34.575C70.809,-34.575 72.635,-34.436 74.029,-34.173C75.428,-33.894 76.627,-33.568 77.634,-33.155L76.841,-24.942C75.639,-25.196 74.527,-25.402 73.494,-25.567C72.454,-25.724 71.327,-25.801 70.098,-25.801C68.497,-25.801 67.443,-25.691 66.92,-25.447C66.413,-25.21 66.15,-24.827 66.15,-24.281C66.15,-23.752 66.392,-23.393 66.859,-23.234C67.328,-23.081 68.267,-22.922 69.677,-22.764C71.18,-22.612 72.548,-22.347 73.75,-22.011C74.954,-21.661 75.979,-21.133 76.784,-20.424C77.604,-19.709 78.23,-18.772 78.674,-17.594C79.101,-16.423 79.326,-14.939 79.326,-13.137M72.248,14.126C71.819,14.703 71.035,15.541 70.72,15.541C70.607,15.541 70.546,15.445 70.525,15.311L70.525,15.182C70.525,14.386 71.22,12.98 71.933,12.084C72.422,11.469 72.671,11.33 72.884,11.33C73.116,11.33 73.323,11.469 73.494,11.877C73.323,12.347 72.75,13.445 72.248,14.126M75.593,10.725C75.522,10.586 75.309,10.427 75.069,10.356C74.898,10.298 74.719,10.269 74.548,10.269C74.386,10.269 74.246,10.312 74.158,10.37L73.837,11.042C73.63,10.84 73.342,10.706 73.213,10.706C72.455,10.706 71.607,11.089 70.671,11.938C69.368,13.105 68.535,14.884 68.535,15.729C68.535,16.193 68.962,16.611 69.406,16.611C70.446,16.611 71.804,15.475 72.647,14.372L72.703,14.372L72.274,15.471C72.197,15.696 72.116,15.907 72.116,16.06C72.116,16.299 72.302,16.621 72.671,16.621C73.68,16.621 74.898,15.839 75.522,14.952C75.541,14.75 75.396,14.64 75.262,14.64C74.816,15.095 74.107,15.532 73.914,15.532C73.818,15.532 73.837,15.407 73.882,15.229C74.426,13.652 75.055,12.058 75.593,10.725M68.212,14.703C67.738,15.43 66.278,16.611 65.114,16.611C64.72,16.611 64.459,16.298 64.459,15.993C64.459,15.801 64.487,15.608 64.614,15.231L65.907,11.45L64.858,11.45C64.712,11.33 64.816,10.999 64.973,10.907L66.208,10.659L67.236,9.29C67.365,9.203 67.552,9.171 67.731,9.171C67.921,9.171 68.17,9.267 68.247,9.405L67.865,10.706L69.177,10.706C69.402,10.893 69.251,11.349 69.094,11.45L67.663,11.45L66.339,15.144C66.264,15.341 66.264,15.47 66.431,15.47C66.682,15.47 67.365,14.947 67.945,14.372C68.148,14.386 68.235,14.515 68.212,14.703M-33.509,12.111C-33.798,12.979 -34.189,13.575 -34.673,14.197C-35.33,15.038 -36.325,15.8 -36.574,15.8C-36.717,15.8 -36.788,15.695 -36.788,15.474C-36.788,15.115 -36.269,13.892 -35.581,12.893C-34.99,12.05 -34.478,11.574 -34.211,11.388C-33.894,11.156 -33.76,11.142 -33.671,11.142C-33.443,11.142 -33.323,11.564 -33.509,12.111M-31.415,14.601C-31.861,15.071 -32.559,15.498 -32.716,15.498C-32.8,15.498 -32.847,15.413 -32.847,15.326C-32.826,15.2 -32.756,14.869 -32.601,14.413L-30.533,8.222C-30.279,7.473 -30.106,6.964 -29.885,6.363C-29.885,6.279 -29.923,6.243 -30.026,6.225C-30.688,6.26 -32.164,6.523 -32.601,6.71C-32.716,6.816 -32.716,6.936 -32.669,7.06L-32.27,7.281C-32.016,7.424 -32.007,7.579 -32.181,8.091L-33.098,10.869C-33.232,10.663 -33.509,10.508 -33.863,10.508C-34.689,10.508 -35.666,10.869 -36.602,11.698C-37.703,12.658 -38.388,14.101 -38.409,15.254C-38.438,16.049 -38.006,16.61 -37.377,16.61C-35.812,16.61 -34.708,15.047 -34.037,14.05L-34.016,14.05L-34.337,14.986C-34.478,15.392 -34.619,15.786 -34.619,16.012C-34.619,16.31 -34.478,16.61 -34.084,16.61C-32.669,16.61 -31.5,15.392 -31.195,14.923C-31.155,14.711 -31.251,14.615 -31.415,14.601M75.708,7.204C75.938,7.434 76.055,7.596 76.041,7.737C76.029,7.89 75.886,8.077 75.701,8.221L73.591,9.971C73.396,9.985 73.274,9.885 73.264,9.718L74.734,7.329C74.91,7.017 75.055,6.934 75.201,6.956C75.36,6.97 75.482,7.04 75.708,7.204M40.526,11.11C39.962,11.11 39.916,11.065 40.038,10.711L40.862,8.15C41.019,7.655 41.059,7.622 41.54,7.622C42.488,7.622 42.988,8.202 42.988,8.95C42.988,10.197 41.967,11.11 40.526,11.11M39.582,15.806C38.869,15.806 38.557,15.445 38.855,14.515L39.592,12.164C39.721,11.767 39.761,11.736 40.373,11.736C41.488,11.736 42.117,12.318 42.117,13.335C42.117,14.837 40.873,15.806 39.582,15.806M41.124,6.965C39.916,6.965 39.092,7.017 38.301,7.094C38.139,7.167 38.097,7.472 38.223,7.577L38.634,7.66C39.141,7.77 39.108,8.019 38.813,8.988L37.125,14.36C36.709,15.682 36.618,15.787 35.97,15.891L35.562,15.968C35.384,15.992 35.367,16.362 35.494,16.459C36.217,16.414 36.871,16.409 37.447,16.409C37.592,16.409 37.85,16.414 38.139,16.437C38.425,16.459 38.751,16.468 39.045,16.468C39.916,16.468 40.629,16.437 41.453,16.271C42.967,15.968 44.164,14.919 44.164,13.335C44.164,12.419 43.593,11.694 42.828,11.415C42.596,11.321 42.511,11.29 42.544,11.258C42.525,11.234 42.596,11.185 42.96,11.11C43.892,10.941 44.917,10.293 44.917,9.134C44.917,8.533 44.687,8.009 44.164,7.603C43.584,7.167 42.556,6.965 41.124,6.965M30.265,12.66C29.854,13.084 29.406,13.331 28.906,13.479C29.04,12.946 29.383,12.063 29.894,11.507C30.101,11.263 30.324,11.143 30.509,11.143C30.685,11.143 30.783,11.31 30.783,11.47C30.765,11.829 30.549,12.366 30.265,12.66M31.009,10.51C30.333,10.51 29.561,10.725 28.772,11.329C27.641,12.188 26.853,13.685 26.853,14.971C26.853,15.882 27.352,16.612 28.359,16.612C29.65,16.612 30.791,15.969 31.478,14.903C31.492,14.711 31.347,14.568 31.192,14.568C30.53,15.229 29.854,15.57 29.34,15.57C28.906,15.57 28.723,15.173 28.723,14.783C28.723,14.485 28.742,14.274 28.793,14.103C29.955,13.805 32.377,13.115 32.377,11.655C32.377,11.028 31.837,10.51 31.009,10.51M24.125,12.111C23.836,12.979 23.447,13.575 22.956,14.197C22.311,15.038 21.311,15.8 21.062,15.8C20.928,15.8 20.846,15.695 20.846,15.474C20.846,15.115 21.358,13.892 22.06,12.893C22.647,12.05 23.153,11.574 23.426,11.388C23.74,11.156 23.867,11.142 23.952,11.142C24.198,11.142 24.311,11.564 24.125,12.111M26.221,14.601C25.782,15.071 25.083,15.498 24.923,15.498C24.843,15.498 24.789,15.413 24.789,15.326C24.811,15.2 24.881,14.869 25.038,14.413L27.104,8.222C27.359,7.473 27.531,6.964 27.756,6.363C27.756,6.279 27.721,6.243 27.613,6.225C26.942,6.26 25.472,6.523 25.038,6.71C24.923,6.816 24.923,6.936 24.965,7.06L25.367,7.281C25.623,7.424 25.634,7.579 25.465,8.091L24.545,10.869C24.4,10.663 24.125,10.508 23.766,10.508C22.945,10.508 21.973,10.869 21.039,11.698C19.926,12.658 19.258,14.101 19.229,15.254C19.203,16.049 19.621,16.61 20.255,16.61C21.818,16.61 22.928,15.047 23.602,14.05L23.632,14.05L23.301,14.986C23.153,15.392 23.02,15.786 23.02,16.012C23.02,16.31 23.153,16.61 23.552,16.61C24.965,16.61 26.139,15.392 26.447,14.923C26.475,14.711 26.392,14.615 26.221,14.601M54.821,13.401C54.467,14.03 54.105,14.462 53.795,14.462C53.553,14.462 53.406,14.314 53.406,14.049C53.406,13.391 53.882,12.284 54.295,11.718C54.591,11.319 54.859,11.143 55.084,11.143C55.271,11.143 55.436,11.291 55.436,11.603C55.436,11.986 55.105,12.908 54.821,13.401M54.499,17.858C54.92,18.137 55.199,18.454 55.199,18.818C55.199,19.259 54.635,19.543 53.833,19.543C52.929,19.543 52.169,19.168 52.169,18.51C52.169,18.161 52.387,17.844 52.626,17.642C52.863,17.44 53.248,17.316 53.398,17.316C53.553,17.316 53.962,17.518 54.499,17.858M58.149,11.185C58.149,10.768 57.924,10.601 57.663,10.601C57.454,10.601 57.191,10.683 56.966,10.768C56.795,10.826 56.586,10.887 56.393,10.887C56.253,10.887 56.074,10.725 55.84,10.653C55.57,10.552 55.368,10.509 55.143,10.509C52.81,10.509 51.875,12.399 51.875,13.391C51.857,14.415 52.479,14.884 53.101,15.023L53.101,15.048C52.795,15.279 52.211,15.821 52.211,16.175C52.211,16.548 52.479,16.75 52.76,16.947C51.998,17.191 50.399,17.705 50.399,18.818C50.399,19.949 52.07,20.238 53.065,20.238C54.246,20.238 56.663,19.82 56.663,18.313C56.663,17.191 55.337,16.569 54.546,16.166C54.06,15.922 53.553,15.619 53.553,15.431C53.553,15.311 53.685,15.159 53.767,15.081C55.563,14.999 56.87,13.748 56.87,12.15C56.87,12.049 56.839,11.871 56.821,11.746C56.814,11.657 56.87,11.603 56.926,11.603C57.027,11.603 57.156,11.636 57.281,11.685C57.438,11.737 57.553,11.765 57.679,11.765C57.837,11.765 58.149,11.671 58.149,11.185M48.266,15.024C47.888,15.651 47.566,15.982 47.212,15.982C46.937,15.982 46.768,15.757 46.768,15.393C46.768,14.025 47.667,12.323 48.188,11.685C48.484,11.311 48.721,11.142 48.951,11.142C49.26,11.142 49.352,11.436 49.352,11.736C49.352,12.821 48.65,14.386 48.266,15.024M48.841,10.509C48.211,10.509 47.453,10.696 46.627,11.417C45.677,12.241 45.151,13.527 45.135,14.63C45.123,15.618 45.75,16.611 47.195,16.611C48.026,16.611 48.876,16.325 49.622,15.609C50.441,14.813 50.939,13.618 50.939,12.586C50.939,11.565 50.371,10.509 48.841,10.509M60.855,15.024C60.466,15.651 60.154,15.982 59.802,15.982C59.527,15.982 59.361,15.757 59.361,15.393C59.361,14.025 60.257,12.323 60.771,11.685C61.069,11.311 61.306,11.142 61.539,11.142C61.855,11.142 61.938,11.436 61.938,11.736C61.938,12.821 61.238,14.386 60.855,15.024M61.436,10.509C60.788,10.509 60.039,10.696 59.222,11.417C58.264,12.241 57.736,13.527 57.716,14.63C57.716,15.618 58.333,16.611 59.79,16.611C60.607,16.611 61.464,16.325 62.203,15.609C63.034,14.813 63.531,13.618 63.531,12.586C63.531,11.565 62.966,10.509 61.436,10.509M-64.312,14.703C-64.798,15.43 -66.258,16.611 -67.413,16.611C-67.804,16.611 -68.07,16.298 -68.07,15.993C-68.07,15.801 -68.042,15.608 -67.915,15.231L-66.626,11.45L-67.673,11.45C-67.812,11.33 -67.713,10.999 -67.568,10.907L-66.314,10.659L-65.303,9.29C-65.169,9.203 -64.976,9.171 -64.81,9.171C-64.622,9.171 -64.368,9.267 -64.293,9.405L-64.669,10.706L-63.359,10.706C-63.134,10.893 -63.293,11.349 -63.432,11.45L-64.871,11.45L-66.199,15.144C-66.27,15.341 -66.27,15.47 -66.103,15.47C-65.854,15.47 -65.169,14.947 -64.598,14.372C-64.383,14.386 -64.305,14.515 -64.312,14.703M-68.442,11.656C-68.442,12.203 -68.893,12.386 -69.104,12.386C-69.221,12.386 -69.344,12.294 -69.428,12.189C-70.001,11.532 -70.268,11.386 -70.55,11.386C-70.757,11.386 -70.923,11.564 -70.923,11.752C-70.923,11.909 -70.839,12.111 -70.55,12.386L-70.012,12.947C-69.51,13.465 -69.282,13.895 -69.282,14.4C-69.282,14.979 -69.602,15.543 -70.142,15.984C-70.63,16.385 -71.235,16.61 -71.923,16.61C-72.575,16.61 -73.334,16.209 -73.334,15.517C-73.334,15.047 -72.998,14.683 -72.632,14.683C-72.472,14.683 -72.362,14.831 -72.188,15C-71.635,15.585 -71.35,15.742 -71.064,15.742C-70.803,15.742 -70.59,15.543 -70.59,15.327C-70.59,15.125 -70.709,14.904 -71.001,14.606L-71.458,14.101C-71.906,13.646 -72.16,13.172 -72.16,12.658C-72.16,12.05 -71.799,11.478 -71.369,11.109C-70.958,10.769 -70.428,10.508 -69.841,10.508C-69.071,10.508 -68.442,11.013 -68.442,11.656M38.227,-3.135L38.227,-25.331L31.271,-25.331L31.271,-34.01L55.884,-34.01L55.884,-25.331L48.871,-25.331L48.871,-3.135L38.227,-3.135ZM-61.566,15.254C-61.613,15.383 -61.606,15.47 -61.51,15.47C-61.307,15.47 -60.531,14.918 -60.169,14.573C-60,14.573 -59.857,14.726 -59.899,14.918C-60.456,15.653 -61.721,16.61 -62.88,16.61C-63.253,16.61 -63.546,16.209 -63.546,16.04C-63.546,15.883 -63.488,15.704 -63.378,15.432L-61.899,11.876C-61.847,11.766 -61.847,11.684 -61.923,11.684C-62.159,11.684 -62.96,12.285 -63.19,12.496C-63.361,12.465 -63.471,12.285 -63.417,12.151C-62.65,11.21 -61.307,10.51 -60.554,10.51C-60.242,10.51 -59.899,10.825 -59.899,11.137C-59.899,11.278 -60,11.55 -60.082,11.766L-61.566,15.254ZM-54.912,-50.517L-51.807,-50.517C-50.932,-50.517 -50.322,-50.33 -49.967,-49.971C-49.636,-49.6 -49.448,-48.996 -49.448,-48.137L-49.448,-46.948C-49.448,-46.037 -49.65,-45.394 -50.045,-45.009C-50.437,-44.636 -51.089,-44.448 -51.997,-44.448L-54.912,-44.448L-54.912,-50.517ZM-54.912,-60.898L-52.511,-60.898C-50.819,-60.898 -49.967,-60.222 -49.967,-58.863L-49.967,-57.476C-49.967,-56.791 -50.162,-56.272 -50.542,-55.946C-50.911,-55.61 -51.429,-55.448 -52.089,-55.448L-54.912,-55.448L-54.912,-60.898ZM-42.112,-39.679C-40.103,-41.047 -39.103,-43.12 -39.103,-45.859C-39.103,-47.351 -39.333,-48.56 -39.772,-49.466C-40.229,-50.391 -40.84,-51.121 -41.596,-51.653C-42.346,-52.191 -43.203,-52.585 -44.161,-52.839C-45.116,-53.087 -46.102,-53.28 -47.106,-53.404C-46.102,-53.592 -45.161,-53.831 -44.302,-54.12C-43.431,-54.406 -42.675,-54.801 -42.013,-55.329C-41.358,-55.845 -40.84,-56.488 -40.462,-57.251C-40.086,-58.004 -39.896,-58.955 -39.896,-60.091C-39.896,-61.771 -40.201,-63.147 -40.809,-64.217C-41.431,-65.292 -42.295,-66.151 -43.405,-66.78C-44.52,-67.406 -45.863,-67.855 -47.43,-68.113C-48.998,-68.362 -50.74,-68.481 -52.659,-68.481L-65.181,-68.481L-65.181,-37.606L-52.188,-37.606C-47.477,-37.606 -44.121,-38.313 -42.112,-39.679M-75.544,11.507C-75.338,11.263 -75.124,11.143 -74.941,11.143C-74.777,11.143 -74.669,11.31 -74.669,11.47C-74.678,11.829 -74.904,12.366 -75.181,12.66C-75.594,13.084 -76.037,13.331 -76.537,13.479C-76.406,12.946 -76.063,12.063 -75.544,11.507M-73.057,11.655C-73.057,11.028 -73.615,10.51 -74.441,10.51C-75.106,10.51 -75.878,10.725 -76.676,11.329C-77.802,12.188 -78.589,13.685 -78.589,14.971C-78.589,15.882 -78.093,16.612 -77.079,16.612C-75.8,16.612 -74.655,15.969 -73.974,14.903C-73.948,14.711 -74.099,14.568 -74.258,14.568C-74.911,15.229 -75.594,15.57 -76.108,15.57C-76.537,15.57 -76.723,15.173 -76.723,14.783C-76.723,14.485 -76.706,14.274 -76.648,14.103C-75.495,13.805 -73.057,13.115 -73.057,11.655M-76.724,-11.029C-76.641,-11.198 -76.59,-11.433 -76.59,-11.712C-76.59,-11.999 -76.648,-12.215 -76.757,-12.388C-76.862,-12.541 -77.062,-12.665 -77.322,-12.761C-77.585,-12.858 -77.956,-12.94 -78.425,-13.022C-78.897,-13.102 -79.486,-13.184 -80.216,-13.289C-81.758,-13.477 -83.103,-13.759 -84.255,-14.139C-85.426,-14.512 -86.396,-15.094 -87.173,-15.866C-87.961,-16.639 -88.56,-17.669 -88.97,-18.95C-89.376,-20.227 -89.578,-21.868 -89.578,-23.858C-89.578,-27.116 -88.606,-29.711 -86.696,-31.66C-84.757,-33.601 -81.793,-34.575 -77.82,-34.575C-75.557,-34.575 -73.724,-34.436 -72.323,-34.173C-70.943,-33.894 -69.732,-33.568 -68.72,-33.155L-69.53,-24.942C-70.718,-25.196 -71.832,-25.402 -72.872,-25.567C-73.905,-25.724 -75.027,-25.801 -76.263,-25.801C-77.862,-25.801 -78.923,-25.691 -79.439,-25.447C-79.955,-25.21 -80.216,-24.827 -80.216,-24.281C-80.216,-23.752 -79.979,-23.393 -79.507,-23.234C-79.031,-23.081 -78.092,-22.922 -76.688,-22.764C-75.174,-22.612 -73.818,-22.347 -72.611,-22.011C-71.398,-21.661 -70.391,-21.133 -69.567,-20.424C-68.755,-19.709 -68.133,-18.772 -67.692,-17.594C-67.253,-16.423 -67.028,-14.939 -67.028,-13.137C-67.028,-11.395 -67.246,-9.87 -67.664,-8.541C-68.091,-7.211 -68.783,-6.098 -69.739,-5.202C-70.689,-4.291 -71.952,-3.613 -73.501,-3.157C-75.06,-2.697 -76.951,-2.472 -79.176,-2.472C-81.718,-2.472 -83.809,-2.679 -85.469,-3.082C-87.109,-3.498 -88.531,-3.974 -89.719,-4.502L-88.167,-11.813C-86.851,-11.372 -85.574,-11.006 -84.33,-10.724C-83.093,-10.435 -81.758,-10.297 -80.307,-10.297C-79.523,-10.297 -78.894,-10.32 -78.397,-10.363C-77.918,-10.412 -77.535,-10.487 -77.275,-10.597C-77.005,-10.715 -76.822,-10.858 -76.724,-11.029M-59.146,8.231C-59.146,8.858 -59.571,9.381 -60.228,9.381C-60.754,9.381 -61.066,9.036 -61.066,8.572C-61.066,7.952 -60.601,7.396 -59.941,7.396C-59.458,7.396 -59.146,7.699 -59.146,8.231M-54.552,-3.135L-65.198,-3.135L-65.198,-34.01L-54.552,-34.01L-54.552,-23.051L-48.863,-23.051L-48.863,-34.01L-38.217,-34.01L-38.217,-3.135L-48.863,-3.135L-48.863,-14.614L-54.552,-14.614L-54.552,-3.135ZM-49.419,14.127C-49.839,14.702 -50.628,15.543 -50.942,15.543C-51.057,15.543 -51.123,15.446 -51.14,15.313L-51.14,15.181C-51.14,14.386 -50.438,12.98 -49.731,12.083C-49.245,11.468 -48.992,11.33 -48.776,11.33C-48.551,11.33 -48.344,11.468 -48.18,11.876C-48.344,12.346 -48.91,13.444 -49.419,14.127M-46.07,10.724C-46.14,10.586 -46.359,10.428 -46.593,10.356C-46.767,10.299 -46.955,10.274 -47.126,10.274C-47.276,10.274 -47.431,10.313 -47.513,10.37L-47.837,11.041C-48.039,10.842 -48.328,10.705 -48.464,10.705C-49.224,10.705 -50.064,11.09 -51.001,11.94C-52.29,13.104 -53.137,14.885 -53.137,15.728C-53.137,16.195 -52.709,16.61 -52.268,16.61C-51.226,16.61 -49.858,15.475 -49.02,14.371L-48.961,14.371L-49.391,15.47C-49.471,15.695 -49.551,15.906 -49.551,16.068C-49.551,16.301 -49.36,16.622 -48.992,16.622C-47.997,16.622 -46.767,15.838 -46.14,14.951C-46.133,14.749 -46.267,14.639 -46.403,14.639C-46.856,15.097 -47.549,15.533 -47.748,15.533C-47.849,15.533 -47.837,15.407 -47.779,15.23C-47.241,13.651 -46.607,12.06 -46.07,10.724M-40.933,6.224C-40.83,6.245 -40.785,6.278 -40.785,6.365C-40.999,6.963 -41.2,7.482 -41.456,8.231L-43.792,15C-43.935,15.394 -43.977,15.652 -43.771,15.652C-43.463,15.652 -42.639,14.784 -42.299,14.385C-42.139,14.371 -41.991,14.509 -42.027,14.702C-42.435,15.493 -43.226,16.612 -44.846,16.612C-45.554,16.612 -45.761,16.281 -45.761,15.993C-45.761,15.786 -45.705,15.542 -45.554,15.143L-43.13,8.092C-42.956,7.578 -42.972,7.424 -43.226,7.28L-43.618,7.06C-43.665,6.935 -43.665,6.811 -43.55,6.71C-43.097,6.522 -41.644,6.259 -40.933,6.224M-53.042,11.579C-53.042,12.658 -54.19,14.524 -55.526,15.594C-56.635,16.496 -57.281,16.611 -57.842,16.611C-58.464,16.611 -58.757,15.968 -58.757,15.618C-58.757,15.355 -58.708,14.975 -58.544,14.482L-57.701,12.179C-57.603,11.919 -57.574,11.684 -57.732,11.684C-58.013,11.684 -58.591,12.189 -58.91,12.506C-59.065,12.506 -59.196,12.386 -59.203,12.285C-58.832,11.532 -57.633,10.513 -56.415,10.513C-55.953,10.513 -55.732,10.907 -55.732,11.234C-55.732,11.435 -55.831,11.781 -55.953,12.121L-56.739,14.231C-56.88,14.63 -56.964,14.979 -56.964,15.144C-56.964,15.292 -56.88,15.54 -56.635,15.54C-56.394,15.54 -55.838,15.231 -55.312,14.482C-54.913,13.916 -54.603,12.879 -54.603,12.419C-54.603,12.029 -54.629,11.607 -54.732,11.386C-54.704,10.811 -54.364,10.513 -53.866,10.513C-53.164,10.586 -53.042,11.09 -53.042,11.579M-78.3,10.141C-78.473,10.587 -78.647,11.11 -78.83,11.657C-79.008,12.173 -79.125,12.706 -79.264,13.152C-79.37,13.276 -79.741,13.288 -79.794,13.161L-79.771,12.821C-79.71,12.136 -79.82,12.025 -80.569,12.025L-81.672,12.025C-82.033,12.025 -82.092,12.058 -82.203,12.443L-82.806,14.361C-83.156,15.518 -83.174,15.806 -82.442,15.891L-81.972,15.954C-81.911,16.041 -81.937,16.358 -82.071,16.454C-82.869,16.419 -83.604,16.41 -84.277,16.41C-84.958,16.41 -85.601,16.419 -86.322,16.454C-86.46,16.358 -86.441,16.013 -86.305,15.954L-85.857,15.881C-85.247,15.785 -85.136,15.68 -84.716,14.361L-83.059,9.066C-82.698,7.909 -82.686,7.636 -83.353,7.521L-83.702,7.467C-83.808,7.385 -83.801,7.059 -83.604,6.97C-82.918,6.993 -82.203,7.012 -81.644,7.012L-78.588,7.012C-77.673,7.012 -76.861,6.993 -76.647,6.97C-76.748,7.205 -77.119,8.23 -77.368,9.204C-77.436,9.359 -77.821,9.373 -77.919,9.268C-77.872,8.749 -77.919,8.336 -77.973,8.164C-78.086,7.834 -78.459,7.66 -79.152,7.66L-80.215,7.66C-80.687,7.66 -80.71,7.697 -80.886,8.23L-81.71,10.84C-81.832,11.23 -81.811,11.253 -81.44,11.253L-80.325,11.253C-79.581,11.253 -79.398,11.171 -79.027,10.472L-78.844,10.127C-78.699,10 -78.347,10.009 -78.3,10.141M40.458,-55.012C40.458,-56.249 40.519,-57.256 40.627,-58.023C40.732,-58.805 40.918,-59.406 41.159,-59.823C41.418,-60.255 41.758,-60.551 42.178,-60.706C42.603,-60.873 43.131,-60.95 43.758,-60.95C44.384,-60.95 44.917,-60.877 45.356,-60.73C45.797,-60.591 46.147,-60.307 46.407,-59.875C46.684,-59.448 46.879,-58.864 47.006,-58.129C47.135,-57.376 47.191,-56.413 47.191,-55.209L47.191,-51.7C47.191,-50.151 47.135,-48.896 47.025,-47.926C46.919,-46.962 46.738,-46.218 46.459,-45.671C46.196,-45.134 45.849,-44.784 45.431,-44.61C45.009,-44.434 44.483,-44.352 43.854,-44.352C43.218,-44.352 42.695,-44.448 42.277,-44.641C41.845,-44.821 41.5,-45.173 41.24,-45.699C40.969,-46.223 40.77,-46.952 40.653,-47.877C40.519,-48.809 40.458,-50.046 40.458,-51.553L40.458,-55.012ZM32.715,-41.881C33.891,-40.404 35.39,-39.205 37.221,-38.313C39.035,-37.395 41.211,-36.945 43.758,-36.945C46.361,-36.945 48.586,-37.395 50.421,-38.313C52.254,-39.205 53.768,-40.404 54.962,-41.906C56.145,-43.406 57.025,-45.134 57.579,-47.091C58.122,-49.053 58.401,-51.097 58.401,-53.217C58.401,-55.428 58.122,-57.502 57.579,-59.434C57.025,-61.358 56.159,-63.037 54.981,-64.456C53.805,-65.877 52.303,-67.001 50.47,-67.824C48.628,-68.646 46.433,-69.057 43.854,-69.057C41.312,-69.057 39.11,-68.646 37.28,-67.824C35.445,-67.001 33.933,-65.872 32.734,-64.433C31.551,-62.999 30.678,-61.3 30.1,-59.354C29.539,-57.415 29.262,-55.338 29.262,-53.12C29.262,-51.039 29.539,-49.006 30.1,-47.058C30.678,-45.091 31.544,-43.369 32.715,-41.881" style="fill:rgb(220,225,214);fill-rule:nonzero;"/>
            </g>
        </g>
    </g>
</svg>
