<?xml version="1.0" encoding="UTF-8" standalone="no"?>
<!DOCTYPE svg PUBLIC "-//W3C//DTD SVG 1.1//EN" "http://www.w3.org/Graphics/SVG/1.1/DTD/svg11.dtd">
<svg width="100%" height="100%" viewBox="0 0 2156 2728" version="1.1" xmlns="http://www.w3.org/2000/svg" xmlns:xlink="http://www.w3.org/1999/xlink" xml:space="preserve" xmlns:serif="http://www.serif.com/" style="fill-rule:evenodd;clip-rule:evenodd;stroke-linejoin:round;stroke-miterlimit:2;">
    <g transform="matrix(4.16667,0,0,4.16667,355.306,1532.13)">
        <path d="M0,81.151C-5.015,83.657 -9.349,84.112 -14.822,84.112L-34.193,84.112L-34.193,-2.287L-15.047,-2.287C-4.791,-2.287 -0.916,-0.691 3.875,2.274C18.922,12.074 18.463,39.206 18.463,40.576C18.463,43.079 18.922,72.029 0,81.151M-34.193,-167.096L-5.472,-167.096C-2.742,-167.096 7.975,-167.096 12.991,-157.978C15.503,-153.416 15.503,-148.633 15.503,-146.808C15.503,-134.039 8.433,-129.025 3.875,-127.427C0.453,-126.29 -4.559,-126.062 -5.245,-126.062L-34.193,-126.062L-34.193,-167.096ZM-85.262,281.983L49.011,281.983L49.011,247.1L-34.426,247.1L-34.426,215.189L37.156,215.189L37.156,180.305L-34.193,180.305L-34.193,156.372L42.171,156.372L42.171,121.037L-10.134,121.037C0.779,120.97 12.179,120.497 22.564,117.4C56.536,107.596 64.742,75.451 67.25,64.966C68.161,60.63 69.754,51.743 69.754,39.889C69.754,7.288 58.586,-10.721 48.104,-20.979C31.912,-36.483 12.309,-38.533 -9.122,-39.447C-16.187,-39.674 -23.48,-39.902 -30.551,-39.902L-34.193,-39.902L-34.193,-92.321L5.016,-92.321C15.04,-92.321 24.619,-92.779 34.192,-96.425C51.973,-103.034 60.184,-119.907 62.234,-125.376C65.881,-134.952 66.11,-145.215 66.11,-148.403C66.11,-155.471 65.652,-174.846 49.469,-188.752C36.928,-199.695 22.339,-200.832 6.608,-200.832L-85.262,-200.832L-85.262,281.983Z" style="fill:white;fill-rule:nonzero;"/>
    </g>
    <g transform="matrix(4.16667,0,0,4.16667,1070.26,1118.01)">
        <path d="M0,279.925C-3.646,290.411 -14.133,291.548 -23.481,291.548L-44.68,291.548L-44.68,254.162L-23.936,254.162C-18.011,254.162 -12.08,254.394 -6.838,257.354C-5.927,257.811 -3.646,259.177 -2.052,261.458C0,264.648 1.142,268.979 1.142,272.857C1.142,276.048 0.229,279.008 0,279.925M-33.731,2.734L-2.502,59.498L0.636,59.498L0.636,160.018C0.636,164.806 0.636,168.457 -0.963,172.565C-5.521,184.64 -18.288,185.325 -21.71,185.325C-25.355,185.325 -38.121,184.64 -42.226,172.332C-44.049,167.319 -43.823,161.615 -43.823,160.018L-43.823,59.486L-48.55,59.486L-48.55,2.734L-33.731,2.734ZM-48.55,-67.709L-27.806,-67.709C-21.877,-67.709 -15.951,-67.479 -10.708,-64.517C-9.797,-64.062 -7.516,-62.694 -5.923,-60.411C-3.867,-57.22 -2.728,-52.889 -2.728,-49.015C-2.728,-45.828 -3.641,-42.859 -3.867,-41.951C-7.516,-31.462 -18.003,-30.325 -27.345,-30.325L-48.55,-30.325L-48.55,-67.709ZM33.054,309.784C46.051,301.128 51.977,287.221 51.977,271.946C51.977,257.811 47.188,247.78 44.457,242.988C32.829,223.616 12.312,221.793 5.242,221.108C5.161,221.1 5.077,221.094 4.995,221.086C23.42,215.742 39.324,204.239 46.913,184.415C50.56,174.838 51.929,166.172 51.929,155.913L51.929,59.498L54.49,59.498L15.054,-5.471C22.803,-8.436 25.769,-9.805 29.191,-12.082C42.181,-20.747 48.11,-34.652 48.11,-49.927C48.11,-64.062 43.326,-74.091 40.584,-78.879C28.958,-98.254 8.443,-100.081 1.376,-100.766C-3.18,-101.217 -7.971,-101.445 -12.53,-101.445L-99.613,-101.445L-99.613,59.498L-94.885,59.498L-94.885,155.007C-94.885,171.877 -93.747,178.486 -90.785,186.465C-83.259,206.299 -66.846,214.276 -60.007,217.243C-57.16,218.503 -54.313,219.55 -51.523,220.424L-95.746,220.424L-95.746,381.37L-44.68,381.37L-44.68,324.606L-29.861,324.606L1.37,381.37L58.359,381.37L18.921,316.399C26.674,313.43 29.636,312.064 33.054,309.784" style="fill:white;fill-rule:nonzero;"/>
    </g>
    <g transform="matrix(4.16667,0,0,4.16667,1483.61,2368.89)">
        <path d="M0,-321.185C0,-340.107 5.93,-351.507 11.626,-357.431C20.061,-366.327 31.687,-367.007 35.563,-367.007C38.529,-367.007 46.052,-366.554 53.347,-362.219C71.128,-351.507 70.445,-327.115 70.445,-322.779C70.445,-303.405 65.202,-292.916 59.052,-286.308C52.66,-279.013 45.142,-276.274 35.563,-276.274C27.815,-276.274 22.801,-278.1 19.608,-279.469C15.276,-281.519 11.858,-284.259 8.895,-287.902C-0.227,-299.53 0,-318.222 0,-321.185M84.937,-15.274C68.978,-20.519 53.935,-22.568 48.231,-23.478C43.903,-24.164 34.322,-25.991 30.228,-28.495C27.943,-30.086 26.121,-32.83 26.121,-35.789C26.121,-41.261 31.591,-43.768 32.505,-44.226C37.289,-46.278 43.445,-46.278 44.583,-46.278C56.667,-46.278 72.853,-43.768 82.201,-35.113C83.573,-33.966 84.71,-32.599 86.759,-29.869L118.904,-56.536C114.572,-60.872 111.606,-64.061 106.592,-67.71C97.617,-74.288 87.744,-78.362 78.546,-80.893C93.61,-86.672 103.585,-95.419 109.446,-102.118C113.323,-106.678 116.285,-110.782 121.989,-121.267L78.443,-142.242C76.846,-137.456 75.939,-135.406 74.796,-133.124C71.602,-127.647 63.399,-115.796 45.844,-115.796C41.968,-115.796 34.677,-116.024 26.696,-122.18C18.945,-128.334 11.878,-140.194 11.878,-162.305C11.878,-166.41 11.193,-189.661 27.15,-201.515C30.341,-203.795 36.271,-207.213 45.615,-207.213C66.133,-207.441 74.114,-190.799 76.846,-185.329C77.533,-183.735 78.443,-182.135 79.131,-180.54L121.756,-201.741C118.34,-207.897 116.058,-211.773 111.271,-217.246C105.012,-224.467 92.303,-236.087 72.529,-242.338C80.813,-245.785 89.35,-250.955 97.117,-258.721C120.145,-281.747 121.738,-312.75 121.738,-322.552C121.738,-356.295 106.463,-376.124 96.888,-385.477C74.547,-407.361 46.052,-407.588 35.563,-407.588C2.056,-407.588 -17.096,-394.137 -27.124,-384.331C-49.235,-362.219 -51.061,-331.9 -51.061,-321.185C-51.061,-297.707 -43.313,-274.224 -27.583,-258.496C-16.922,-247.617 -4.463,-241.883 6.736,-238.855C-3.544,-233.951 -14.122,-226.005 -23.23,-213.141C-38.73,-191.482 -39.872,-169.141 -39.872,-159.341C-39.872,-147.944 -37.821,-115.796 -10.922,-93.228C-3.755,-87.101 3.938,-82.74 12.124,-79.79C0.297,-75.695 -11.695,-68.403 -18.792,-55.398C-24.489,-45.14 -24.713,-35.331 -24.713,-31.005C-24.945,-13.451 -15.826,-2.731 -10.809,1.594C-3.061,8.433 8.792,13.906 30.905,18.234C45.271,21.203 55.53,22.567 61.228,24.625C66.017,26.219 67.842,28.271 68.978,30.545C69.207,31.234 70.12,32.6 70.12,34.425C70.12,42.4 60.087,46.738 45.728,46.738C34.556,46.738 17.686,43.316 8.564,35.332C6.288,33.514 4.237,31.006 0.816,25.533L-38.166,50.383C-32.696,57.451 -28.363,62.238 -21.07,67.711C-1.919,82.068 20.419,85.946 43.903,85.946C50.743,85.946 77.87,86.403 98.617,71.128C105.686,65.885 119.817,52.887 119.817,28.95C119.817,-3.191 94.966,-12.081 84.937,-15.274" style="fill:white;fill-rule:nonzero;"/>
    </g>
    <g transform="matrix(-4.16667,0,0,4.16667,4503.38,2180.33)">
        <rect x="563.556" y="91.522" width="34.872" height="34.891" style="fill:rgb(35,31,32);"/>
    </g>
    <g transform="matrix(4.16667,0,0,4.16667,376.142,504.403)">
        <path d="M0,-69.309L-17.557,-12.542L17.098,-12.542L0,-69.309ZM34.654,45.816L27.584,23.248L-28.493,23.248L-35.562,45.816L-90.274,45.816L-28.725,-115.125L29.181,-115.125L89.364,45.816L34.654,45.816Z" style="fill:rgb(35,31,32);fill-rule:nonzero;"/>
    </g>
    <g transform="matrix(4.16667,0,0,4.16667,1322.48,113.988)">
        <path d="M0,117.175C-9.575,128.121 -30.09,144.532 -65.888,144.532C-86.401,144.532 -104.637,139.516 -120.369,126.07C-147.268,103.498 -149.319,71.359 -149.319,59.955C-149.319,50.155 -148.184,27.812 -132.682,6.158C-110.568,-25.077 -79.79,-27.357 -65.656,-27.357C-28.95,-27.357 -7.068,-8.207 1.824,2.052C6.611,7.523 8.892,11.402 12.313,17.555L-30.322,38.758C-31.004,37.159 -31.917,35.564 -32.6,33.967C-35.335,28.499 -43.314,11.852 -63.831,12.08C-73.177,12.08 -79.108,15.498 -82.298,17.783C-98.255,29.636 -97.568,52.889 -97.568,56.991C-97.568,79.104 -90.503,90.955 -82.755,97.116C-74.774,103.269 -67.482,103.498 -63.604,103.498C-46.052,103.498 -37.843,91.645 -34.651,86.173C-33.513,83.895 -32.6,81.842 -31.004,77.054L12.538,98.027C6.841,108.513 3.878,112.62 0,117.175" style="fill:rgb(35,31,32);fill-rule:nonzero;"/>
    </g>
    <g transform="matrix(4.16667,0,0,4.16667,1419.01,24.7158)">
        <path d="M0,160.941L0,0L127.433,0L127.433,35.331L51.062,35.331L51.062,59.267L122.414,59.267L122.414,94.148L50.833,94.148L50.833,126.061L134.269,126.061L134.269,160.941L0,160.941Z" style="fill:rgb(35,31,32);fill-rule:nonzero;"/>
    </g>
</svg>
