<?xml version="1.0" encoding="UTF-8" standalone="no"?>
<!DOCTYPE svg PUBLIC "-//W3C//DTD SVG 1.1//EN" "http://www.w3.org/Graphics/SVG/1.1/DTD/svg11.dtd">
<svg width="100%" height="100%" viewBox="0 0 243 74" version="1.1" xmlns="http://www.w3.org/2000/svg" xmlns:xlink="http://www.w3.org/1999/xlink" xml:space="preserve" xmlns:serif="http://www.serif.com/" style="fill-rule:evenodd;clip-rule:evenodd;stroke-miterlimit:10;">
    <g transform="matrix(1,0,0,1,-15.9822,-11.9276)">
        <path d="M177.32,31.15C177.3,29.909 177.567,28.68 178.1,27.56C179.075,25.487 181.19,24.178 183.48,24.23C185.198,24.156 186.86,24.863 188,26.15C189.2,27.573 189.815,29.401 189.72,31.26L189.72,31.42C189.737,32.649 189.477,33.865 188.96,34.98C188.489,35.99 187.735,36.841 186.79,37.43C185.813,38.027 184.685,38.333 183.54,38.31C181.815,38.391 180.143,37.684 179,36.39C177.811,34.973 177.2,33.158 177.29,31.31L177.32,31.15ZM179.65,31.42C179.57,32.707 179.922,33.985 180.65,35.05C181.32,35.92 182.357,36.43 183.455,36.43C184.553,36.43 185.59,35.92 186.26,35.05C187.024,33.906 187.393,32.543 187.31,31.17C187.368,29.879 186.995,28.606 186.25,27.55C185.598,26.651 184.541,26.13 183.43,26.16C182.339,26.135 181.302,26.647 180.66,27.53C179.903,28.679 179.548,30.048 179.65,31.42Z" style="fill-rule:nonzero;"/>
        <path d="M193.73,38.06L193.73,26.28L191.58,26.28L191.58,24.48L193.73,24.48L193.73,23.09C193.653,21.858 194.07,20.644 194.89,19.72C195.775,18.88 196.972,18.445 198.19,18.52C198.731,18.524 199.268,18.598 199.79,18.74L199.66,20.61C199.248,20.528 198.83,20.488 198.41,20.49C197.758,20.454 197.121,20.698 196.66,21.16C196.221,21.688 196.003,22.365 196.05,23.05L196.05,24.48L199,24.48L199,26.28L196.1,26.28L196.1,38.06L193.73,38.06Z" style="fill-rule:nonzero;"/>
        <path d="M201.52,20.88C201.51,20.532 201.632,20.193 201.86,19.93C202.121,19.662 202.486,19.52 202.86,19.54C203.233,19.524 203.596,19.665 203.86,19.93C204.092,20.191 204.217,20.531 204.21,20.88C204.211,20.902 204.212,20.924 204.212,20.946C204.212,21.637 203.643,22.206 202.952,22.206C202.911,22.206 202.87,22.204 202.83,22.2C202.458,22.224 202.092,22.085 201.83,21.82C201.61,21.558 201.499,21.221 201.52,20.88ZM204,38.06L201.68,38.06L201.68,24.48L204,24.48L204,38.06Z" style="fill-rule:nonzero;"/>
        <path d="M213.19,36.42C213.98,36.428 214.748,36.159 215.36,35.66C215.941,35.201 216.304,34.519 216.36,33.78L218.55,33.78C218.501,34.581 218.223,35.352 217.75,36C217.235,36.719 216.547,37.297 215.75,37.68C213.407,38.844 210.561,38.348 208.75,36.46C207.593,35.037 207.008,33.231 207.11,31.4L207.11,31C207.086,29.784 207.336,28.577 207.84,27.47C208.306,26.479 209.058,25.65 210,25.09C210.965,24.502 212.08,24.203 213.21,24.23C214.601,24.187 215.958,24.677 217,25.6C218.005,26.509 218.589,27.795 218.61,29.15L216.42,29.15C216.379,28.328 216.02,27.553 215.42,26.99C214.823,26.423 214.023,26.117 213.2,26.14C212.134,26.088 211.109,26.563 210.46,27.41C209.733,28.498 209.382,29.794 209.46,31.1L209.46,31.53C209.386,32.814 209.737,34.087 210.46,35.15C211.109,35.991 212.129,36.466 213.19,36.42Z" style="fill-rule:nonzero;"/>
        <path d="M221.2,20.88C221.193,20.531 221.318,20.191 221.55,19.93C221.811,19.661 222.176,19.519 222.55,19.54C222.924,19.521 223.288,19.663 223.55,19.93C223.782,20.191 223.907,20.531 223.9,20.88C223.91,21.227 223.785,21.564 223.55,21.82C223.286,22.083 222.922,22.221 222.55,22.2C222.178,22.224 221.812,22.085 221.55,21.82C221.315,21.564 221.19,21.227 221.2,20.88ZM223.71,38.06L221.39,38.06L221.39,24.48L223.71,24.48L223.71,38.06Z" style="fill-rule:nonzero;"/>
        <path d="M229.62,24.48L229.7,26.19C230.656,24.915 232.166,24.171 233.76,24.19C236.633,24.19 238.08,25.81 238.1,29.05L238.1,38.05L235.78,38.05L235.78,29.05C235.838,28.268 235.599,27.493 235.11,26.88C234.558,26.365 233.812,26.107 233.06,26.17C232.345,26.151 231.643,26.365 231.06,26.78C230.486,27.181 230.027,27.726 229.73,28.36L229.73,38.03L227.41,38.03L227.41,24.48L229.62,24.48Z" style="fill-rule:nonzero;"/>
        <path d="M250,38.06C249.824,37.602 249.716,37.12 249.68,36.63C248.687,37.712 247.279,38.323 245.81,38.31C244.61,38.356 243.435,37.949 242.52,37.17C241.678,36.459 241.203,35.402 241.23,34.3C241.172,32.997 241.784,31.751 242.85,31C244.199,30.143 245.785,29.733 247.38,29.83L249.64,29.83L249.64,28.76C249.675,28.041 249.41,27.338 248.91,26.82C248.323,26.302 247.551,26.042 246.77,26.1C246.023,26.074 245.288,26.295 244.68,26.73C244.165,27.065 243.85,27.636 243.84,28.25L241.51,28.25C241.518,27.521 241.772,26.817 242.23,26.25C242.754,25.586 243.444,25.072 244.23,24.76C245.083,24.382 246.007,24.191 246.94,24.2C248.271,24.12 249.584,24.541 250.62,25.38C251.528,26.204 252.033,27.384 252,28.61L252,34.86C251.957,35.882 252.12,36.902 252.48,37.86L252.48,38.06L250,38.06ZM246.15,36.29C246.877,36.289 247.591,36.096 248.22,35.73C248.83,35.394 249.326,34.882 249.64,34.26L249.64,31.47L247.8,31.47C244.96,31.47 243.54,32.303 243.54,33.97C243.506,34.62 243.772,35.25 244.26,35.68C244.789,36.102 245.454,36.319 246.13,36.29L246.15,36.29Z" style="fill-rule:nonzero;"/>
        <path d="M183.72,61.35C181.968,61.42 180.264,60.756 179.02,59.52C177.786,58.212 177.136,56.456 177.22,54.66L177.22,54.28C177.199,53.026 177.466,51.784 178,50.65C178.969,48.57 181.076,47.244 183.37,47.27C184.984,47.167 186.561,47.804 187.65,49C188.738,50.43 189.275,52.206 189.16,54L189.16,55.23L180.29,55.23C180.327,56.225 180.729,57.173 181.42,57.89C182.07,58.549 182.964,58.911 183.89,58.89C185.234,58.92 186.51,58.288 187.3,57.2L189,58.79C188.455,59.6 187.702,60.25 186.82,60.67C185.855,61.139 184.793,61.372 183.72,61.35ZM183.35,49.72C182.588,49.699 181.854,50.018 181.35,50.59C180.779,51.288 180.431,52.142 180.35,53.04L186.16,53.04L186.16,52.81C186.157,51.971 185.871,51.157 185.35,50.5C184.829,49.961 184.098,49.676 183.35,49.72Z" style="fill-rule:nonzero;"/>
        <path d="M199.14,57.41C199.158,56.901 198.897,56.421 198.46,56.16C197.765,55.792 197.016,55.538 196.24,55.41C195.343,55.239 194.47,54.96 193.64,54.58C192.292,54.091 191.382,52.813 191.36,51.38C191.352,50.223 191.904,49.13 192.84,48.45C193.917,47.631 195.248,47.213 196.6,47.27C198.009,47.202 199.399,47.626 200.53,48.47C201.488,49.221 202.034,50.384 202,51.6L199,51.6C199.013,51.039 198.77,50.501 198.34,50.14C197.859,49.731 197.24,49.52 196.61,49.55C196.039,49.527 195.476,49.685 195,50C194.594,50.28 194.357,50.747 194.37,51.24C194.358,51.682 194.583,52.098 194.96,52.33C195.707,52.713 196.511,52.977 197.34,53.11C198.316,53.302 199.264,53.618 200.16,54.05C200.769,54.356 201.292,54.81 201.68,55.37C202.02,55.926 202.191,56.569 202.17,57.22C202.203,58.409 201.635,59.538 200.66,60.22C199.488,61.029 198.082,61.43 196.66,61.36C195.627,61.381 194.603,61.172 193.66,60.75C192.858,60.388 192.168,59.818 191.66,59.1C191.195,58.434 190.944,57.642 190.94,56.83L193.94,56.83C193.945,57.477 194.243,58.088 194.75,58.49C195.332,58.903 196.037,59.107 196.75,59.07C197.393,59.114 198.034,58.953 198.58,58.61C198.956,58.329 199.166,57.878 199.14,57.41Z" style="fill-rule:nonzero;"/>
        <path d="M216.67,54.44C216.759,56.219 216.256,57.977 215.24,59.44C214.291,60.615 212.86,61.299 211.35,61.299C210.032,61.299 208.766,60.778 207.83,59.85L207.83,66.28L204.78,66.28L204.78,47.52L207.59,47.52L207.72,48.9C208.611,47.812 209.965,47.207 211.37,47.27C212.891,47.209 214.347,47.902 215.26,49.12C216.283,50.631 216.779,52.439 216.67,54.26L216.67,54.44ZM213.67,54.18C213.729,53.05 213.447,51.928 212.86,50.96C212.354,50.18 211.469,49.726 210.54,49.77C209.421,49.699 208.362,50.307 207.86,51.31L207.86,57.31C208.363,58.331 209.434,58.955 210.57,58.89C211.48,58.92 212.343,58.477 212.85,57.72C213.455,56.643 213.729,55.412 213.64,54.18L213.67,54.18Z" style="fill-rule:nonzero;"/>
        <path d="M227.36,61.09C227.187,60.688 227.069,60.264 227.01,59.83C225.157,61.705 222.143,61.858 220.11,60.18C219.274,59.455 218.801,58.396 218.82,57.29C218.773,55.994 219.378,54.758 220.43,54C221.794,53.14 223.39,52.721 225,52.8L226.87,52.8L226.87,51.91C226.897,51.292 226.685,50.687 226.28,50.22C225.799,49.767 225.149,49.538 224.49,49.59C223.877,49.561 223.273,49.745 222.78,50.11C222.361,50.418 222.115,50.91 222.12,51.43L219.12,51.43C219.121,50.673 219.383,49.938 219.86,49.35C220.382,48.675 221.071,48.147 221.86,47.82C222.758,47.442 223.726,47.255 224.7,47.27C226.073,47.199 227.426,47.625 228.51,48.47C229.487,49.312 230.034,50.551 230,51.84L230,58C229.96,58.999 230.134,59.994 230.51,60.92L230.51,61.13L227.36,61.09ZM224,58.9C224.595,58.902 225.18,58.75 225.7,58.46C226.204,58.189 226.621,57.78 226.9,57.28L226.9,54.72L225.26,54.72C224.371,54.661 223.483,54.867 222.71,55.31C222.153,55.678 221.83,56.313 221.86,56.98C221.837,57.509 222.049,58.022 222.44,58.38C222.876,58.744 223.433,58.93 224,58.9Z" style="fill-rule:nonzero;"/>
        <path d="M236,47.52L236.09,49.09C237.059,47.884 238.545,47.208 240.09,47.27C242.917,47.27 244.357,48.887 244.41,52.12L244.41,61.12L241.36,61.12L241.36,52.3C241.414,51.616 241.215,50.936 240.8,50.39C240.312,49.93 239.647,49.704 238.98,49.77C237.817,49.727 236.734,50.381 236.23,51.43L236.23,61.09L233.23,61.09L233.23,47.52L236,47.52ZM243.4,42.1C243.431,42.938 243.149,43.758 242.61,44.4C242.116,44.991 241.38,45.326 240.61,45.31C240.323,45.319 240.036,45.282 239.76,45.2C239.411,45.075 239.076,44.914 238.76,44.72C238.468,44.541 238.16,44.391 237.84,44.27C237.644,44.217 237.443,44.19 237.24,44.19C236.931,44.186 236.634,44.318 236.43,44.55C236.202,44.809 236.084,45.146 236.1,45.49L234.23,45.39C234.201,44.546 234.482,43.72 235.02,43.07C235.494,42.443 236.234,42.073 237.02,42.07C237.635,42.113 238.23,42.309 238.75,42.64C239.249,42.961 239.819,43.153 240.41,43.2C240.721,43.207 241.02,43.079 241.23,42.85C241.457,42.587 241.575,42.247 241.56,41.9L243.4,42.1Z" style="fill-rule:nonzero;"/>
        <path d="M255.55,61.09C255.377,60.688 255.259,60.264 255.2,59.83C254.284,60.82 252.988,61.373 251.64,61.35C250.419,61.401 249.223,60.982 248.3,60.18C247.46,59.457 246.984,58.398 247,57.29C246.955,55.992 247.564,54.755 248.62,54C250,53.146 251.611,52.741 253.23,52.84L255.1,52.84L255.1,51.95C255.132,51.331 254.92,50.724 254.51,50.26C254.029,49.807 253.379,49.578 252.72,49.63C252.107,49.603 251.504,49.786 251.01,50.15C250.591,50.458 250.345,50.95 250.35,51.47L247.35,51.47C247.356,50.713 247.617,49.98 248.09,49.39C248.612,48.715 249.301,48.187 250.09,47.86C250.988,47.482 251.956,47.295 252.93,47.31C254.303,47.239 255.656,47.665 256.74,48.51C257.705,49.357 258.238,50.597 258.19,51.88L258.19,58C258.147,59 258.325,59.997 258.71,60.92L258.71,61.13L255.55,61.09ZM252.2,58.9C252.795,58.902 253.38,58.75 253.9,58.46C254.404,58.189 254.821,57.78 255.1,57.28L255.1,54.72L253.46,54.72C252.571,54.661 251.683,54.867 250.91,55.31C250.353,55.678 250.03,56.313 250.06,56.98C250.037,57.509 250.249,58.022 250.64,58.38C251.076,58.744 251.633,58.93 252.2,58.9Z" style="fill-rule:nonzero;"/>
        <path d="M25.33,18.67C23.61,18.626 21.91,19.048 20.41,19.89C19.032,20.698 17.93,21.904 17.25,23.35C16.504,24.962 16.135,26.724 16.17,28.5L16.17,29C16.069,31.547 17.055,34.021 18.88,35.8C20.805,37.591 23.373,38.533 26,38.41C27.505,38.422 28.995,38.112 30.37,37.5C31.614,36.984 32.698,36.145 33.51,35.07L30.8,31.86C29.739,33.192 28.101,33.936 26.4,33.86C25.392,33.902 24.403,33.575 23.62,32.94C22.866,32.284 22.364,31.386 22.2,30.4L34,30.4L34,28.1C34.155,25.574 33.323,23.085 31.68,21.16C30.022,19.454 27.705,18.545 25.33,18.67ZM28.18,26.67L22.18,26.67C22.513,24.37 23.547,23.22 25.28,23.22C26.079,23.164 26.865,23.452 27.44,24.01C27.978,24.609 28.239,25.408 28.16,26.21L28.18,26.67Z" style="fill-rule:nonzero;"/>
        <path d="M54.21,19L48.21,19L48.21,32.38C47.597,33.373 46.473,33.939 45.31,33.84C45.246,33.846 45.181,33.849 45.116,33.849C43.942,33.849 42.976,32.883 42.976,31.709C42.976,31.602 42.984,31.496 43,31.39L43,19L37,19L37,31.35C36.87,33.234 37.44,35.1 38.6,36.59C39.834,37.87 41.576,38.538 43.35,38.41C45.347,38.495 47.263,37.593 48.47,36L48.65,38.06L54.21,38.06L54.21,19Z" style="fill-rule:nonzero;"/>
        <path d="M67,18.67C65.179,18.687 63.535,19.791 62.83,21.47L62.6,19L57,19L57,38L63,38L63,26C63.53,24.83 64.73,24.25 66.59,24.25L68.59,24.39L68.69,18.88C68.14,18.727 67.571,18.656 67,18.67Z" style="fill-rule:nonzero;"/>
        <path d="M71.72,36C73.471,37.671 75.832,38.553 78.25,38.44C80.749,38.563 83.185,37.613 84.94,35.83C86.664,33.892 87.556,31.35 87.42,28.76L87.42,28.55C87.583,25.918 86.715,23.323 85,21.32C83.243,19.505 80.783,18.537 78.26,18.67C76.56,18.631 74.88,19.041 73.39,19.86C72.005,20.655 70.893,21.851 70.2,23.29C69.441,24.87 69.064,26.607 69.1,28.36L69.1,29.36C69.079,31.829 70.019,34.211 71.72,36ZM75,27.66C75.17,24.72 76.24,23.24 78.22,23.24C80.4,23.24 81.5,24.95 81.5,28.36L81.5,29C81.447,32.253 80.367,33.88 78.26,33.88C77.271,33.924 76.331,33.435 75.8,32.6C75.172,31.412 74.895,30.07 75,28.73L75,27.66Z" style="fill-rule:nonzero;"/>
        <path d="M99.42,38.41C101.544,38.479 103.567,37.484 104.81,35.76C106.236,33.684 106.94,31.195 106.81,28.68L106.81,28.4C106.939,25.866 106.237,23.358 104.81,21.26C103.527,19.543 101.471,18.571 99.33,18.67C97.587,18.62 95.921,19.405 94.85,20.78L94.72,19L89.18,19L89.18,47.54L86.76,47.54L86.76,51.66L89.19,51.66L89.19,61.11C89.064,62.707 89.591,64.288 90.65,65.49C91.907,66.547 93.533,67.065 95.17,66.93C96.306,66.934 97.436,66.762 98.52,66.42L98.52,62.18C98.031,62.259 97.536,62.296 97.04,62.29C96.493,62.355 95.943,62.2 95.51,61.86C95.205,61.427 95.066,60.897 95.12,60.37L95.12,51.66L98.25,51.66L98.25,47.54L95.12,47.54L95.12,36.49C96.19,37.745 97.771,38.451 99.42,38.41ZM95.11,24.76C95.634,23.717 96.76,23.107 97.92,23.24C99.92,23.24 100.92,24.93 100.92,28.31L100.92,28.94C100.86,32.207 99.887,33.84 98,33.84C96.814,33.954 95.676,33.319 95.15,32.25L95.11,24.76Z" style="fill-rule:nonzero;"/>
        <path d="M116.73,26.43C114.407,26.281 112.091,26.827 110.08,28C108.559,29.057 107.691,30.831 107.79,32.68C107.759,34.26 108.456,35.77 109.68,36.77C110.947,37.863 112.577,38.445 114.25,38.4C116.017,38.486 117.722,37.719 118.83,36.34C118.939,36.933 119.127,37.508 119.39,38.05L125.32,38.05L125.32,37.75C124.73,36.502 124.452,35.129 124.51,33.75L124.51,25.32C124.561,23.455 123.767,21.664 122.35,20.45C120.706,19.185 118.661,18.553 116.59,18.67C114.457,18.578 112.351,19.182 110.59,20.39C109.101,21.389 108.216,23.077 108.24,24.87L114.17,24.87C114.159,24.787 114.153,24.703 114.153,24.619C114.153,23.604 114.988,22.769 116.003,22.769C116.096,22.769 116.188,22.776 116.28,22.79C117.8,22.79 118.55,23.66 118.55,25.42L118.55,26.42L116.73,26.43ZM118.56,32.64C118.323,33.076 117.979,33.444 117.56,33.71C117.007,34.048 116.367,34.215 115.72,34.19C115.21,34.207 114.712,34.028 114.33,33.69C113.963,33.356 113.762,32.876 113.78,32.38C113.78,30.52 114.78,29.59 116.88,29.59L118.6,29.59L118.56,32.64Z" style="fill-rule:nonzero;"/>
        <path d="M24.75,51.76C25.48,51.729 26.189,52.018 26.69,52.55C27.208,53.192 27.465,54.007 27.41,54.83L33,54.83C33.104,52.745 32.31,50.712 30.82,49.25C29.202,47.814 27.08,47.073 24.92,47.19C23.258,47.144 21.614,47.556 20.17,48.38C18.83,49.177 17.76,50.358 17.1,51.77C16.351,53.364 15.974,55.109 16,56.87L16,57.11C15.845,59.733 16.701,62.318 18.39,64.33C20.106,66.121 22.524,67.072 25,66.93C27.109,67.017 29.176,66.302 30.78,64.93C32.249,63.634 33.064,61.747 33,59.79L27.41,59.79C27.463,60.486 27.219,61.173 26.74,61.68C26.214,62.157 25.518,62.402 24.81,62.36C23.932,62.422 23.089,61.994 22.62,61.25C22.065,59.994 21.831,58.619 21.94,57.25C21.928,56.392 21.968,55.533 22.06,54.68C22.32,52.74 23.22,51.76 24.75,51.76Z" style="fill-rule:nonzero;"/>
        <path d="M42.27,50L42.08,47.55L36.52,47.55L36.52,66.55L42.45,66.55L42.45,54.55C42.97,53.37 44.17,52.79 46.04,52.79L48.04,52.93L48.14,47.42C47.603,47.271 47.047,47.2 46.49,47.21C44.655,47.211 42.99,48.312 42.27,50Z" style="fill-rule:nonzero;"/>
        <path d="M58,47.19C56.277,47.147 54.574,47.569 53.07,48.41C51.728,49.236 50.66,50.44 50,51.87C49.24,53.472 48.853,55.227 48.87,57L48.87,57.5C48.769,60.047 49.755,62.521 51.58,64.3C53.499,66.082 56.054,67.023 58.67,66.91C60.162,66.918 61.638,66.607 63,66C64.249,65.487 65.337,64.647 66.15,63.57L63.44,60.36C62.377,61.689 60.74,62.433 59.04,62.36C58.032,62.404 57.043,62.077 56.26,61.44C55.518,60.787 55.026,59.896 54.87,58.92L66.69,58.92L66.69,56.62C66.845,54.094 66.013,51.605 64.37,49.68C62.709,47.967 60.382,47.058 58,47.19ZM60.85,55.19L54.85,55.19C55.17,52.89 56.21,51.74 57.94,51.74C58.742,51.687 59.53,51.974 60.11,52.53C60.634,53.137 60.894,53.93 60.83,54.73L60.85,55.19Z" style="fill-rule:nonzero;"/>
        <path d="M85.34,53.84C85.382,51.983 84.584,50.203 83.17,49C81.531,47.734 79.488,47.101 77.42,47.22C75.287,47.127 73.18,47.731 71.42,48.94C69.931,49.939 69.046,51.627 69.07,53.42L75,53.42C74.989,53.337 74.983,53.253 74.983,53.169C74.983,52.154 75.818,51.319 76.833,51.319C76.926,51.319 77.018,51.326 77.11,51.34C78.62,51.34 79.38,52.21 79.38,53.97L79.38,54.97L77.56,54.97C74.653,54.97 72.437,55.497 70.91,56.55C69.384,57.603 68.515,59.379 68.62,61.23C68.592,62.81 69.289,64.318 70.51,65.32C71.777,66.413 73.407,66.995 75.08,66.95C76.844,67.036 78.546,66.269 79.65,64.89C79.766,65.482 79.957,66.057 80.22,66.6L86.15,66.6L86.15,66.3C85.56,65.052 85.282,63.679 85.34,62.3L85.34,53.84ZM79.34,61.16C79.104,61.597 78.76,61.965 78.34,62.23C77.788,62.569 77.147,62.736 76.5,62.71C75.99,62.727 75.492,62.548 75.11,62.21C74.751,61.871 74.555,61.393 74.57,60.9C74.57,59.04 75.57,58.12 77.67,58.12L79.39,58.12L79.34,61.16Z" style="fill-rule:nonzero;"/>
        <path d="M103.65,39.75C102.788,39.708 101.94,39.994 101.28,40.55C100.694,41.082 100.359,41.838 100.359,42.63C100.359,43.422 100.694,44.178 101.28,44.71C101.939,45.269 102.786,45.558 103.65,45.52C104.516,45.557 105.366,45.268 106.03,44.71C106.61,44.174 106.941,43.42 106.941,42.63C106.941,41.84 106.61,41.086 106.03,40.55C105.365,39.995 104.515,39.709 103.65,39.75Z" style="fill-rule:nonzero;"/>
        <rect x="100.71" y="47.54" width="5.95" height="19.04"/>
        <path d="M117.9,59.52L114.95,47.54L108.68,47.54L114.89,66.58L120.95,66.58L127.16,47.54L120.91,47.54L117.9,59.52Z" style="fill-rule:nonzero;"/>
        <path d="M144.51,62.27L144.51,53.84C144.552,51.983 143.754,50.203 142.34,49C140.701,47.734 138.658,47.101 136.59,47.22C134.457,47.127 132.35,47.731 130.59,48.94C129.101,49.939 128.216,51.627 128.24,53.42L134.17,53.42C134.159,53.337 134.153,53.253 134.153,53.169C134.153,52.154 134.988,51.319 136.003,51.319C136.096,51.319 136.188,51.326 136.28,51.34C137.79,51.34 138.55,52.21 138.55,53.97L138.55,54.97L136.72,54.97C133.813,54.97 131.597,55.497 130.07,56.55C128.544,57.603 127.675,59.379 127.78,61.23C127.752,62.807 128.445,64.314 129.66,65.32C130.931,66.413 132.564,66.994 134.24,66.95C136.004,67.036 137.706,66.269 138.81,64.89C138.926,65.482 139.117,66.057 139.38,66.6L145.31,66.6L145.31,66.3C144.719,65.042 144.444,63.658 144.51,62.27ZM138.56,61.16C138.31,61.603 137.948,61.972 137.51,62.23C136.958,62.569 136.317,62.736 135.67,62.71C135.16,62.727 134.662,62.548 134.28,62.21C133.921,61.871 133.725,61.393 133.74,60.9C133.74,59.04 134.74,58.12 136.84,58.12L138.56,58.12L138.56,61.16Z" style="fill-rule:nonzero;"/>
        <path d="M209.66,73.43L213.66,83.36L217.66,73.43L219.74,73.43L219.74,85.61L218.1,85.61L218.1,80.86L218.25,75.75L214.25,85.61L213,85.61L209,75.77L209.16,80.86L209.16,85.61L207.55,85.61L207.55,73.43L209.66,73.43Z" style="fill-rule:nonzero;"/>
        <path d="M229.43,80L224.15,80L224.15,84.31L230.28,84.31L230.28,85.63L222.54,85.63L222.54,73.43L230.2,73.43L230.2,74.74L224.2,74.74L224.2,78.66L229.48,78.66L229.43,80Z" style="fill-rule:nonzero;"/>
        <path d="M232.28,85.61L232.28,73.43L235.72,73.43C236.702,73.41 237.672,73.651 238.53,74.13C239.339,74.598 239.992,75.294 240.41,76.13C240.874,77.061 241.107,78.09 241.09,79.13L241.09,79.91C241.11,80.949 240.88,81.978 240.42,82.91C240.002,83.752 239.34,84.449 238.52,84.91C237.639,85.387 236.651,85.631 235.65,85.62L232.28,85.61ZM233.89,74.74L233.89,84.29L235.58,84.29C236.663,84.354 237.719,83.932 238.46,83.14C239.191,82.206 239.547,81.033 239.46,79.85L239.46,79.14C239.525,77.979 239.17,76.832 238.46,75.91C237.767,75.12 236.75,74.689 235.7,74.74L233.89,74.74Z" style="fill-rule:nonzero;"/>
        <rect x="243.63" y="73.43" width="1.61" height="12.18" style="fill-rule:nonzero;"/>
        <path d="M255.05,82.42L249.94,82.42L248.8,85.61L247.14,85.61L251.79,73.43L253.2,73.43L257.86,85.61L256.21,85.61L255.05,82.42ZM250.43,81.11L254.57,81.11L252.49,75.41L250.43,81.11Z" style="fill-rule:nonzero;"/>
        <path d="M161.27,69.15L161.27,16.45" style="fill:none;fill-rule:nonzero;stroke:black;stroke-width:0.9px;"/>
    </g>
</svg>
