<?xml version="1.0" encoding="utf-8"?>
<!-- Generator: Adobe Illustrator 22.0.1, SVG Export Plug-In . SVG Version: 6.00 Build 0)  -->
<svg version="1.1" id="Capa_1" xmlns="http://www.w3.org/2000/svg" xmlns:xlink="http://www.w3.org/1999/xlink" x="0px" y="0px"
	 viewBox="0 0 191.9 168.9" style="enable-background:new 0 0 191.9 168.9;" xml:space="preserve">
<style type="text/css">
	.st0{fill:#DCE1D6;}
</style>
<g id="Trazado_22" transform="matrix(3.05075,0,0,1.86725,1950.52,451.668)">
	<path class="st0" d="M-591.7-225.8c1.8,4.6,2.8,9.9,2.8,15.4c0,16.4-8.5,29.7-19,29.7c-10.5,0-19-13.3-19-29.7
		c0-5.5,1-10.8,2.8-15.4l0-0.1l0-0.1c-0.6-1.6-0.9-3.4-0.9-5.3v-0.1c0-2.6,0.7-5,2-6.6c1.1-1.5,2.4-2.3,3.8-2.3h0.1
		c1,0,2,0.4,2.9,1.1c0.4,0.3,0.8,0.7,1.2,1.1l0,0l0,0c2.3-1.5,4.7-2.2,7.2-2.2c2.5,0,4.9,0.7,7.2,2.2l0,0l0,0
		c0.4-0.4,0.8-0.8,1.2-1.1c0.9-0.7,1.9-1.1,2.9-1.1h0.1c1.4,0,2.7,0.9,3.8,2.3c1.2,1.6,1.9,4,2,6.6v0.1c0,1.9-0.3,3.7-0.9,5.3
		V-225.8L-591.7-225.8z M-608-183.8c1.8,0,3.5-0.4,5.2-1.2l0.1-0.1l-0.2-0.2c-1.2-1.2-2.4-2.6-3.5-4.2c-0.6-0.8-1.1-1.7-1.7-2.6
		l-0.1-0.1l-0.1,0.1c-0.5,0.9-1.1,1.8-1.7,2.6c-1.1,1.6-2.3,3-3.5,4.3l-0.1,0.1l0.1,0.1C-611.5-184.2-609.7-183.8-608-183.8z
		 M-603.1-218L-603.1-218c0.1,0.1,0.1,0.1,0.2,0.2c0.3,0.3,0.7,0.5,1,0.5h0c0.3,0,0.6-0.1,0.9-0.4c0.2-0.2,0.4-0.5,0.6-0.9
		c0.1-0.4,0.2-0.8,0.2-1.3c0-0.6-0.1-1.2-0.3-1.8l0-0.1l-0.1,0c-0.2,0.1-0.5,0.3-0.7,0.4c-0.5,0.3-1,0.8-1.3,1.5
		c-0.2,0.5-0.4,1-0.5,1.5C-603.1-218.2-603.1-218.2-603.1-218L-603.1-218z M-593.2-229.1l0.1,0.1l0-0.1c0.2-0.6,0.3-1.3,0.3-2.1
		v-0.1c0-1.7-0.5-3.3-1.3-4.4c-0.7-1-1.7-1.6-2.6-1.6h0c-0.6,0-1.3,0.3-1.8,0.9l-0.1,0.1l0.1,0.1
		C-596.4-234.3-594.6-231.9-593.2-229.1z M-611.1-203.4L-611.1-203.4c0.9,2.1,2,4.3,3.1,6.5l0.1,0.1l0.1-0.1
		c1.1-2.2,2.2-4.4,3.1-6.5l0.1-0.2h-6.4L-611.1-203.4z M-615.6-186.6L-615.6-186.6c1.7-1.3,3.2-3,4.6-5.1c0.6-0.8,1.1-1.7,1.7-2.7
		l0-0.1l0-0.1c-1.6-3.1-3.1-6.4-4.5-9.7c-0.1-0.3-0.2-0.6-0.2-0.9c0-0.2,0-0.4,0.1-0.6c0.6-2.8,0.9-5.7,1.1-8.7l0-0.2l-0.1,0.1
		c-0.4,0.2-0.8,0.3-1.3,0.4h0c-0.6,0-1.2-0.3-1.8-0.7c-0.6-0.5-1-1.2-1.3-2.1c-0.3-0.8-0.4-1.8-0.4-2.7c0-0.7,0.1-1.4,0.2-2l0-0.2
		l-0.1,0c-0.5,0.1-1.1,0.5-1.5,0.9l-0.1,0.1c-0.1,0.1-0.2,0.1-0.3,0.2c-0.1,0.1-0.2,0.2-0.4,0.2c-0.1,0-0.2-0.1-0.3-0.2
		c-0.2-0.4-0.4-0.9-0.6-1.4c0-0.1-0.1-0.2-0.1-0.4c0-0.2,0.1-0.5,0.2-0.6c0.1-0.1,0.3-0.3,0.4-0.5c1-1,2.1-1.5,3.2-1.5h0
		c1.1,0,2.1,0.4,3.1,1.2c0.8,0.6,1.5,1.4,2.1,2.5c0.4,0.8,0.6,1.6,0.7,2.6c0.1,1,0.2,2,0.2,3c-0.1,3.1-0.4,6.2-0.9,9.2l0,0.1h7.6
		l0-0.1c-0.6-3-0.9-6.1-0.9-9.2c0-1,0.1-2,0.2-3c0.1-0.9,0.4-1.8,0.7-2.6c0.6-1.1,1.3-1.9,2.1-2.5c1-0.7,2-1.1,3.1-1.2h0
		c1.1,0,2.3,0.5,3.2,1.5c0.1,0.1,0.3,0.3,0.4,0.5c0.1,0.1,0.2,0.4,0.2,0.6c0,0.1,0,0.3-0.1,0.4c-0.2,0.5-0.4,1-0.6,1.4
		c-0.1,0.1-0.2,0.2-0.3,0.2c-0.1,0-0.2-0.1-0.4-0.2c-0.1-0.1-0.2-0.2-0.3-0.2l-0.1-0.1c-0.5-0.5-1-0.8-1.6-0.9l-0.1,0l0,0.2
		c0.1,0.7,0.2,1.3,0.2,2c0,1-0.1,1.9-0.4,2.7c-0.3,0.9-0.8,1.6-1.3,2.1c-0.5,0.5-1.2,0.7-1.8,0.7h0c-0.4,0-0.8-0.1-1.2-0.3l-0.1-0.1
		l0,0.2c0.2,2.9,0.6,5.9,1.1,8.7c0,0.2,0.1,0.4,0.1,0.6c0,0.3-0.1,0.7-0.2,1c-1.4,3.4-2.9,6.6-4.5,9.7l0,0.1l0,0.1
		c0.6,1,1.1,1.9,1.7,2.7c1.3,2.1,2.9,3.8,4.6,5.1l0,0l0,0c1.6-1.3,3.1-2.9,4.4-5c0.1-0.2,0.3-0.4,0.4-0.7l0.1-0.1l-0.1-0.1l-4.6-4.4
		c-0.1-0.1-0.2-0.4-0.3-0.7c0-0.1,0-0.2,0.1-0.4l0.5-1.3c0.1-0.2,0.2-0.4,0.4-0.4c0.1,0,0.2,0,0.3,0.1l4.9,4.7l0-0.1
		c0.2-0.5,0.5-1,0.7-1.6l0-0.1l-0.1-0.1l-4.9-4.7c-0.1-0.1-0.2-0.4-0.3-0.7c0-0.1,0-0.2,0.1-0.4l0.5-1.3c0.1-0.2,0.2-0.4,0.4-0.4
		c0.1,0,0.2,0,0.3,0.1l4.9,4.7l0-0.1c0.2-0.6,0.3-1.2,0.5-1.8l0-0.1l-0.1,0l-4.6-4.5c-0.1-0.1-0.2-0.4-0.3-0.7c0-0.1,0-0.2,0.1-0.4
		l0.5-1.3c0.1-0.2,0.2-0.4,0.4-0.4c0.1,0,0.2,0,0.3,0.1l4.2,4.1l0-0.1c0.3-2,0.5-4.1,0.5-6.1c0-7.1-1.8-14-5-18.8
		c-2.2-3.4-4.8-5.7-7.7-6.9l-0.1,0v8.4c0,0.4-0.2,0.8-0.5,0.8c0,0,0,0,0,0h-1c-0.2,0-0.5-0.3-0.5-0.7c0,0,0,0,0,0v-9l-0.1,0
		c-0.4-0.1-0.8-0.1-1.2-0.2h-0.1v9.2c0,0.4-0.2,0.8-0.5,0.8c0,0,0,0,0,0h-1c-0.2,0-0.5-0.3-0.5-0.7c0,0,0,0,0,0v-9.2h-0.1
		c-0.4,0-0.8,0.1-1.2,0.2l-0.1,0v9c0,0.4-0.2,0.8-0.5,0.8c0,0,0,0,0,0h-1c-0.2,0-0.5-0.3-0.5-0.7c0,0,0,0,0,0v-8.4l-0.1,0
		c-2.9,1.2-5.5,3.6-7.7,6.9c-3.2,4.9-5,11.7-5,18.8c0,2.1,0.2,4.1,0.5,6.1l0,0.1l4.2-4.1c0.1-0.1,0.2-0.1,0.3-0.1
		c0.2,0,0.3,0.1,0.4,0.4l0.5,1.3c0,0.1,0.1,0.2,0.1,0.4c0,0.3-0.1,0.5-0.3,0.7l-4.6,4.5l0,0l0,0.1c0.1,0.6,0.3,1.2,0.5,1.8l0,0.1
		l4.9-4.7c0.1-0.1,0.2-0.1,0.3-0.1c0.2,0,0.3,0.1,0.4,0.4l0.5,1.3c0,0.1,0.1,0.2,0.1,0.4c0,0.3-0.1,0.5-0.3,0.7l-4.9,4.7l-0.1,0.1
		l0,0.1c0.2,0.5,0.4,1.1,0.7,1.6l0,0.1l4.9-4.7c0.1-0.1,0.2-0.1,0.3-0.1c0.2,0,0.3,0.1,0.4,0.4l0.5,1.3c0,0.1,0.1,0.2,0.1,0.4
		c0,0.3-0.1,0.5-0.3,0.7l-4.6,4.4l-0.1,0.1l0.1,0.1c0.1,0.2,0.3,0.4,0.4,0.7C-618.7-189.6-617.2-187.9-615.6-186.6z M-612.9-218.2
		C-612.9-218.2-612.9-218.2-612.9-218.2c-0.1-0.6-0.2-1.2-0.5-1.6c-0.4-0.7-0.8-1.2-1.3-1.5c-0.2-0.2-0.8-0.5-0.8-0.5l0,0.1
		c-0.2,0.6-0.3,1.2-0.3,1.8c0,0,0,0,0,0c0,0.4,0.1,0.9,0.2,1.3c0.1,0.4,0.3,0.7,0.6,0.9c0.3,0.2,0.6,0.4,0.9,0.4h0
		c0.3,0,0.7-0.2,1-0.4c0.1-0.1,0.2-0.2,0.3-0.3L-612.9-218.2L-612.9-218.2z M-622.9-229.1l0,0.1l0.1-0.1c1.5-2.9,3.3-5.2,5.3-7
		l0.1-0.1l-0.1-0.1c-0.5-0.6-1.1-0.9-1.8-0.9h0c-1,0-1.9,0.6-2.6,1.6c-0.8,1.1-1.3,2.7-1.3,4.4v0.1
		C-623.2-230.4-623.1-229.7-622.9-229.1z M-632.3-162c0,0-0.1,0-0.1,0c-0.2,0-0.4-0.2-0.4-0.5c-0.3-1.4-1.2-2.4-2.1-2.3
		c-1.3,0-2.4,1.8-2.4,4c0,0.2,0,0.3,0,0.5c0,0.2,0,0.3,0,0.5c0,2.2,1.1,4,2.4,4c1.1,0.1,2-1.3,2.2-3.1c0-0.3,0.2-0.6,0.4-0.6
		c0,0,0.1,0,0.1,0l1.1,0.2c0,0,0,0,0,0c0.2,0,0.4,0.3,0.4,0.6c0,0.1,0,0.1,0,0.2c-0.4,3.2-2.1,5.5-4.1,5.3c-0.1,0-0.2,0-0.3,0
		c-2.3,0-4.1-3.1-4.1-6.8c0-0.1,0-0.3,0-0.4c0-0.1,0-0.3,0-0.4c0-3.7,1.9-6.8,4.1-6.8c0.1,0,0.2,0,0.3,0c1.8-0.2,3.4,1.5,4,4.3
		c0,0.1,0,0.2,0,0.2c0,0.3-0.2,0.6-0.4,0.6L-632.3-162z M-629.4-166.5C-629.4-166.5-629.4-166.5-629.4-166.5c0-0.4,0.2-0.7,0.4-0.7
		c0,0,0,0,0.1,0h1c0,0,0,0,0,0c0.2,0,0.4,0.3,0.4,0.6c0,0,0,0,0,0.1v12.4c0,0,0,0,0,0.1c0,0.3-0.2,0.6-0.4,0.6c0,0,0,0-0.1,0h-1
		c0,0,0,0-0.1,0c-0.2,0-0.4-0.3-0.4-0.6c0,0,0,0,0-0.1V-166.5z M-623.9-161.6v7.5c0,0,0,0,0,0.1c0,0.3-0.2,0.6-0.4,0.6
		c0,0,0,0-0.1,0h-1c0,0,0,0-0.1,0c-0.2,0-0.4-0.3-0.4-0.6c0,0,0,0,0-0.1v-12.4c0,0,0,0,0-0.1c0-0.3,0.2-0.6,0.4-0.6c0,0,0,0,0.1,0
		h0.9c0.2-0.1,0.5,0.1,0.6,0.5l3.4,7.8v-7.7c0,0,0,0,0-0.1c0-0.3,0.2-0.6,0.4-0.6c0,0,0,0,0.1,0h1c0,0,0,0,0.1,0
		c0.2,0,0.4,0.3,0.4,0.6c0,0,0,0,0,0.1v12.4c0,0,0,0,0,0.1c0,0.3-0.2,0.6-0.4,0.6c0,0,0,0-0.1,0h-0.9c-0.2,0.1-0.5-0.1-0.6-0.5
		L-623.9-161.6z M-616.9-166.5C-616.9-166.5-616.9-166.5-616.9-166.5c0-0.4,0.2-0.7,0.4-0.7c0,0,0,0,0.1,0h5.6c0,0,0,0,0.1,0
		c0.2,0,0.4,0.3,0.4,0.6c0,0,0,0,0,0.1v1.4c0,0,0,0,0,0.1c0,0.3-0.2,0.6-0.4,0.6c0,0,0,0-0.1,0h-4.1v2.5h3.5c0,0,0,0,0.1,0
		c0.2,0,0.4,0.3,0.4,0.6c0,0,0,0,0,0.1v1.4c0,0,0,0,0,0.1c0,0.3-0.2,0.6-0.4,0.6c0,0,0,0-0.1,0h-3.5v2.9h4.2c0,0,0,0,0.1,0
		c0.2,0,0.4,0.3,0.4,0.6c0,0,0,0,0,0.1v1.4c0,0,0,0,0,0.1c0,0.3-0.2,0.6-0.4,0.6c0,0,0,0-0.1,0h-5.7c0,0,0,0-0.1,0
		c-0.2,0-0.4-0.3-0.4-0.6c0,0,0,0,0-0.1V-166.5z M-604.8-158.1l2-8.6c0.1-0.3,0.3-0.6,0.5-0.5h1.3c0,0,0,0,0.1,0
		c0.2,0,0.4,0.3,0.4,0.6c0,0,0,0,0,0.1v12.4c0,0,0,0,0,0.1c0,0.3-0.2,0.6-0.4,0.6c0,0,0,0-0.1,0h-1c0,0,0,0-0.1,0
		c-0.2,0-0.4-0.3-0.4-0.6c0,0,0,0,0-0.1l0-6.1l-1.5,6.2c-0.1,0.3-0.3,0.6-0.5,0.6h-0.8c-0.2,0-0.4-0.2-0.5-0.6l-1.5-6.3v6.1
		c0,0,0,0,0,0.1c0,0.3-0.2,0.6-0.4,0.6c0,0,0,0-0.1,0h-1.1c0,0,0,0-0.1,0c-0.2,0-0.4-0.3-0.4-0.6c0,0,0,0,0-0.1v-12.4c0,0,0,0,0-0.1
		c0-0.3,0.2-0.6,0.4-0.6c0,0,0,0,0.1,0h1.3c0.2,0,0.4,0.2,0.5,0.5L-604.8-158.1z M-594-155.9h-3l-0.4,1.8c-0.1,0.4-0.3,0.7-0.6,0.6
		h-1c0,0,0,0,0,0c-0.2,0-0.4-0.3-0.4-0.6c0-0.1,0-0.2,0-0.3l3-12.4c0.1-0.3,0.2-0.4,0.4-0.4h1.1c0.2,0,0.3,0.2,0.4,0.5l2.9,12.4
		c0,0.1,0,0.2,0,0.3c0,0.4-0.2,0.6-0.4,0.6c0,0,0,0-0.1,0h-1c-0.3,0-0.5-0.2-0.6-0.6L-594-155.9z M-595.5-162.8l-0.9,4.1h1.8
		L-595.5-162.8z M-590.7-166.5C-590.7-166.5-590.7-166.5-590.7-166.5c0-0.4,0.2-0.7,0.4-0.7c0,0,0,0,0.1,0h3.6c1.5,0,3,0.9,3,4.2
		c0.1,1.7-0.6,3.3-1.6,3.9l1.9,4.6c0.1,0.1,0.1,0.3,0.1,0.4c0,0.4-0.2,0.7-0.4,0.7c0,0,0,0-0.1,0h-1.2c-0.2,0-0.4-0.2-0.6-0.5
		l-1.9-4.8h-1.4v4.6c0,0,0,0,0,0.1c0,0.3-0.2,0.6-0.4,0.6c0,0,0,0-0.1,0h-1c0,0,0,0-0.1,0c-0.2,0-0.4-0.3-0.4-0.6c0,0,0,0,0-0.1
		V-166.5z M-588.8-161.5h1.9c0.7,0,1.2-0.3,1.2-1.5s-0.5-1.5-1.2-1.5h-1.9V-161.5z M-580.7-164.4h-2c0,0,0,0-0.1,0
		c-0.2,0-0.4-0.3-0.4-0.6c0,0,0,0,0-0.1v-1.4c0,0,0,0,0-0.1c0-0.3,0.2-0.6,0.4-0.6c0,0,0,0,0.1,0h5.8c0,0,0,0,0.1,0
		c0.2,0,0.4,0.3,0.4,0.6c0,0,0,0,0,0.1v1.4c0,0,0,0,0,0.1c0,0.3-0.2,0.6-0.4,0.6c0,0,0,0-0.1,0h-2v10.3c0,0,0,0,0,0
		c0,0.3-0.2,0.6-0.4,0.6c0,0,0,0,0,0h-1c0,0,0,0-0.1,0c-0.2,0-0.4-0.3-0.4-0.6c0,0,0,0,0-0.1V-164.4z"/>
</g>
</svg>
