<?xml version="1.0" encoding="UTF-8" standalone="no"?>
<!DOCTYPE svg PUBLIC "-//W3C//DTD SVG 1.1//EN" "http://www.w3.org/Graphics/SVG/1.1/DTD/svg11.dtd">
<svg width="100%" height="100%" viewBox="0 0 2039 583" version="1.1" xmlns="http://www.w3.org/2000/svg" xmlns:xlink="http://www.w3.org/1999/xlink" xml:space="preserve" xmlns:serif="http://www.serif.com/" style="fill-rule:evenodd;clip-rule:evenodd;stroke-linejoin:round;stroke-miterlimit:2;">
    <g transform="matrix(1,0,0,1,-36.432344,-14.929583)">
        <g transform="matrix(4.166667,0,0,4.166667,0,0)">
            <g transform="matrix(0.475612,0,0,0.475612,349.765882,141.629383)">
                <path d="M0,-286.667L0,0L-59.842,0L-59.842,-107.858L-77.4,0L-103.2,0L-120.758,-107.858L-120.758,0L-180.6,0L-180.6,-286.667L-120.758,-286.667L-90.3,-136.167L-59.842,-286.667L0,-286.667ZM-184.183,-78.833C-184.183,-21.142 -209.266,3.583 -253.341,3.583C-297.416,3.583 -322.499,-21.142 -322.499,-78.833L-322.499,-286.667L-262.658,-286.667L-262.658,-83.492C-262.658,-61.992 -262.299,-56.258 -253.341,-56.258C-244.383,-56.258 -244.024,-61.992 -244.024,-83.492L-244.024,-286.667L-184.183,-286.667L-184.183,-78.833ZM-405.629,-226.825L-405.629,-161.25C-392.37,-161.25 -386.278,-162.683 -386.278,-178.808L-386.278,-208.55C-386.278,-224.317 -392.37,-226.467 -405.629,-226.825M-322.495,0L-382.337,0C-385.562,-4.3 -385.92,-14.692 -385.92,-25.442L-385.92,-81.7C-385.92,-94.242 -387.712,-99.617 -399.537,-101.05C-401.687,-100.692 -403.479,-100.692 -405.629,-100.692L-405.629,0L-465.47,0L-465.47,-286.667L-405.629,-286.667C-347.937,-285.95 -326.437,-266.242 -326.437,-208.55L-326.437,-178.808C-326.437,-147.992 -335.754,-128.284 -351.879,-116.1C-333.962,-108.575 -326.437,-94.242 -326.437,-69.158L-326.437,-25.442C-326.437,-14.692 -326.079,-4.3 -322.495,0M-528.895,-203.175C-528.895,-224.675 -529.253,-230.408 -538.212,-230.408C-547.17,-230.408 -547.528,-224.675 -547.528,-203.175L-547.528,-83.492C-547.528,-61.992 -547.17,-56.258 -538.212,-56.258C-529.253,-56.258 -528.895,-61.992 -528.895,-83.492L-528.895,-203.175ZM-469.054,-207.833L-469.054,-78.833C-469.054,-21.142 -494.137,3.583 -538.212,3.583C-582.287,3.583 -607.37,-21.142 -607.37,-78.833L-607.37,-207.833C-607.37,-265.525 -582.287,-290.25 -538.212,-290.25C-494.137,-290.25 -469.054,-265.525 -469.054,-207.833M-657.176,-226.825L-657.176,-158.742L-611.31,-158.742L-611.31,-99.258L-657.176,-99.258L-657.176,0L-717.018,0L-717.018,-286.667L-611.31,-286.667L-611.31,-226.825L-657.176,-226.825Z" style="fill:rgb(32,19,46);fill-rule:nonzero;"/>
            </g>
        </g>
        <g transform="matrix(4.166667,0,0,4.166667,0,0)">
            <g transform="matrix(2.436111,0,0,2.436111,-67.21607,-21.590046)">
                <path d="M185.533,38.502L185.817,37.656L185.108,37.091L185.958,37.091L186.242,36.245L186.525,37.091L187.375,37.091L186.667,37.656L186.95,38.502L186.242,37.938L185.533,38.502ZM188.508,38.502L188.792,37.656L188.083,37.091L188.933,37.091L189.217,36.245L189.5,37.091L190.35,37.091L189.642,37.656L189.925,38.502L189.217,37.938L188.508,38.502ZM191.625,38.502L191.908,37.656L191.2,37.091L192.05,37.091L192.333,36.245L192.617,37.091L193.467,37.091L192.758,37.656L193.042,38.502L192.333,37.938L191.625,38.502ZM187.092,40.336L187.375,39.49L186.667,38.925L187.517,38.925L187.8,38.079L188.083,38.925L188.933,38.925L188.225,39.49L188.508,40.336L187.8,39.772L187.092,40.336ZM190.067,40.336L190.35,39.49L189.642,38.925L190.492,38.925L190.775,38.079L191.058,38.925L191.908,38.925L191.2,39.49L191.483,40.336L190.775,39.772L190.067,40.336ZM193.042,40.336L193.325,39.49L192.617,38.925L193.467,38.925L193.75,38.079L194.033,38.925L194.883,38.925L194.175,39.49L194.458,40.336L193.75,39.772L193.042,40.336ZM195.308,37.938L194.6,38.502L194.883,37.656L194.175,37.091L195.025,37.091L195.308,36.245L195.592,37.091L196.442,37.091L195.733,37.656L196.017,38.502L195.308,37.938ZM182.7,41.606L181,42.029L181,33L213.442,33L207.633,34.693L182.7,34.693L182.7,41.606ZM181.142,47.39L232,33.282L232,67L181.142,67L181.142,47.39ZM230.3,65.307L230.3,35.398L182.7,48.66L182.7,65.307L230.3,65.307ZM212.45,61.216L211.742,58.959L207.35,58.959L206.642,61.216L204.8,61.216L208.908,50.071L210.325,50.071L214.433,61.216L212.45,61.216ZM209.617,52.61L207.917,57.548L211.317,57.548L209.617,52.61ZM199.842,61.357C198.708,61.357 197.717,60.934 196.867,60.228C195.733,59.1 195.733,57.971 195.733,55.714C195.733,53.456 195.733,52.328 196.867,51.199C197.575,50.494 198.567,50.071 199.842,50.071C201.825,50.071 203.383,51.34 203.808,53.456L202.108,53.456C201.825,52.328 201.117,51.622 199.842,51.622C199.133,51.622 198.567,51.905 198.142,52.328C197.575,52.892 197.433,53.597 197.433,55.855C197.433,58.112 197.575,58.676 198.142,59.382C198.567,59.805 199.133,60.087 199.842,60.087C201.117,60.087 201.825,59.241 202.108,58.253L203.808,58.253C203.383,60.087 201.825,61.357 199.842,61.357ZM187.233,61.357L187.233,50.071L194.317,50.071L194.317,51.622L188.933,51.622L188.933,54.867L193.608,54.867L193.608,56.419L188.933,56.419L188.933,59.805L194.317,59.805L194.317,61.357L187.233,61.357ZM224.067,61.216L224.067,53.739L221.517,59.1L220.242,59.1L217.55,53.739L217.55,61.216L215.992,61.216L215.992,50.071L217.692,50.071L220.95,56.983L224.208,50.071L225.908,50.071L225.908,61.216L224.067,61.216Z" style="fill:rgb(32,19,46);"/>
            </g>
        </g>
    </g>
</svg>
