<?xml version="1.0" encoding="utf-8"?>
<!-- Generator: Adobe Illustrator 22.0.1, SVG Export Plug-In . SVG Version: 6.00 Build 0)  -->
<svg version="1.1" id="Capa_1" xmlns="http://www.w3.org/2000/svg" xmlns:xlink="http://www.w3.org/1999/xlink" x="0px" y="0px"
	 viewBox="0 0 219.1 203.1" style="enable-background:new 0 0 219.1 203.1;" xml:space="preserve">
<style type="text/css">
	.st0{fill:#DCE1D6;}
</style>
<path class="st0" d="M22.8,111v10.9h27.1v13.2H22.8v23.3H3.6V97.6h48.1V111H22.8z M80.1,97.6v60.8H60.8V97.6H80.1z M91.2,158.5V97.6
	h19.2v45.5h23.5v15.3H91.2z M197.6,158.5l0.2-44.1l-12.1,44.1h-14.3l-12-44.1l0.1,44.1h-18.3V97.6h27.6l9.9,38.3l9.7-38.3h27.6v60.8
	H197.6z M15.8,17.7v15.5H9.3V17.7H4v-5.1H21v5.1H15.8z M36.2,33.2v-7.9H30v7.9h-6.5V12.7H30v7.5h6.2v-7.5h6.6v20.6H36.2z M46.4,33.2
	V12.7h16.3v4.5H53v3.1h9.1v4.5h-9.1v4.1h10.7v4.5H46.4z M148,190.5V167h7.4v17.5h9.1v5.9H148z M184,190.5l-1-3.3h-8.2l-1,3.3h-8
	l9-23.5h8.4l8.8,23.5H184z M179,173.7l-2.6,8.3h5L179,173.7z M215.2,188.6c-0.6,0.6-1.3,0.9-1.6,1.1c-1.5,0.7-2.8,0.8-4.3,0.8h-14.4
	V167h13.9c0.7,0,1.3,0,2,0.1c1.4,0.2,3.1,0.8,4.1,1.8c0.2,0.2,0.6,0.7,0.9,1.4c0.4,0.8,0.6,1.7,0.6,2.6c0,0.8-0.2,3-2.1,4.5
	c-0.4,0.3-0.7,0.5-1.6,0.9l1,0.3c0.7,0.2,1.3,0.6,1.9,1.2c1.4,1.5,1.5,3.2,1.5,4C217,184.5,216.9,187,215.2,188.6z M208.5,172.8
	c-0.6-0.9-1.7-0.8-2-0.8h-4.3v4h4.1c0.8,0,1.7-0.1,2.2-0.9c0.3-0.4,0.3-0.9,0.3-1.1C208.8,173.3,208.7,173,208.5,172.8z
	 M209.1,181.9c-0.7-1.1-2.1-1.1-2.4-1.1h-4.5v4.6h4.7c0.8,0,1.6-0.2,2.1-0.9c0.4-0.5,0.4-1.1,0.4-1.3
	C209.5,182.9,209.4,182.4,209.1,181.9z M36.4,83C30.9,87.1,23.6,87,21.8,87c-6.2,0-12.2-1-17.3-4.9c-1.9-1.5-3.1-2.7-4.5-4.6
	l10.4-6.6c0.9,1.5,1.5,2.1,2.1,2.6c2.4,2.1,6.9,3,9.9,3c3.8,0,6.5-1.2,6.5-3.3c0-0.5-0.2-0.8-0.3-1c-0.3-0.6-0.8-1.2-2.1-1.6
	c-1.5-0.5-4.2-0.9-8.1-1.7c-5.9-1.2-9-2.6-11.1-4.4c-1.3-1.2-3.8-4-3.7-8.7c0-1.2,0.1-3.8,1.6-6.5c4.4-8,15.7-7.9,17.3-7.9
	c2.2,0,9.9,0.1,16,4.6c1.3,1,2.1,1.8,3.3,3l-8.5,7.1c-0.5-0.7-0.8-1.1-1.2-1.4c-2.5-2.3-6.8-3-10-3c-0.3,0-1.9,0-3.2,0.5
	c-0.2,0.1-1.7,0.8-1.7,2.2c0,0.8,0.5,1.5,1.1,1.9c1.1,0.7,3.6,1.2,4.8,1.3c1.5,0.2,5.5,0.8,9.8,2.2c2.7,0.8,9.3,3.2,9.3,11.8
	C42,78.2,38.3,81.6,36.4,83z M72.9,85.7V69.2H60v16.5H46.4V42.9H60v15.6h12.9V42.9h13.6v42.8H72.9z M130.2,80.9
	c-6.1,6.1-13.9,6.2-16.6,6.2c-2.7,0-10.7-0.1-16.6-6.1c-4.2-4.2-6.2-10.4-6.2-16.7c0-2.8,0.5-10.9,6.4-16.8
	c2.7-2.6,7.8-6.2,16.7-6.2c2.8,0,10.4,0.1,16.3,5.9c2.5,2.5,6.6,7.8,6.6,16.7C136.8,66.5,136.4,74.8,130.2,80.9z M118.6,53.4
	c-1.9-1.2-3.9-1.3-4.7-1.3c-1,0-4.1,0.2-6.4,2.5c-1.5,1.6-3.1,4.6-3.1,9.6c0,0.8-0.1,5.8,2.4,8.9c0.8,1,1.7,1.7,2.8,2.2
	c0.8,0.4,2.2,0.8,4.2,0.8c2.5,0,4.5-0.7,6.2-2.7c1.6-1.8,3-4.5,3-9.7C123.1,62.7,123.3,56.2,118.6,53.4z M167,85.7l-8.3-15.1h-3.9
	v15.1h-13.6V42.9h23.2c1.2,0,2.5,0.1,3.7,0.2c1.9,0.2,7.3,0.7,10.4,5.8c0.7,1.3,2,3.9,2,7.7c0,4.1-1.6,7.8-5,10.1
	c-0.9,0.6-1.7,1-3.8,1.8l10.5,17.3H167z M166.1,53.8c-0.4-0.6-1-1-1.3-1.1c-1.4-0.8-3-0.8-4.5-0.8h-5.5v9.9h5.6
	c2.5,0,5.3-0.3,6.2-3.1c0.1-0.2,0.3-1,0.3-1.9C166.9,55.8,166.6,54.7,166.1,53.8z M205.8,53.5v32.3h-13.5V53.5h-10.9V42.9h35.3v10.5
	H205.8z"/>
</svg>
