<?xml version="1.0" encoding="utf-8"?>
<!-- Generator: Adobe Illustrator 22.0.1, SVG Export Plug-In . SVG Version: 6.00 Build 0)  -->
<svg version="1.1" id="Capa_1" xmlns="http://www.w3.org/2000/svg" xmlns:xlink="http://www.w3.org/1999/xlink" x="0px" y="0px"
	 viewBox="0 0 432 169" style="enable-background:new 0 0 432 169;" xml:space="preserve">
<style type="text/css">
	.st0{fill:#DCE1D6;}
</style>
<g transform="matrix(0.599068,0,0,0.366668,3027.2,373.974)">
	<path class="st0" d="M-4912-695.9c0,0,0,0,0.1-0.7v-0.2l0.5-1.6c0.1-0.6,0.2-1.2,0.4-1.6c0.2-0.8,0.5-1.6,0.8-2.4
		c0.6-1.6,1.6-3.1,2.5-4.3c1.9-2.5,4.1-3.7,5.8-4.1c3.4-0.8,5.6,0,7.8,0.6c4.2,1.6,7.7,3.9,11.3,6.5c3.1,2.2,6.4,4.9,9.5,7.4
		c-0.4-1.2-0.7-2.5-1.1-3.9c-0.7-2.9-1.6-5.9-2.4-8.6l-2.5-8.8c-1.7-5.9-3.1-11.6-4.4-17c-0.6-2.5-1.3-5.3-1.9-7.8s-1.1-5.1-1.7-7.4
		c-1.1-4.9-2-9.4-2.8-13.3c-0.8-3.9-1.4-7.4-1.9-10.4c-1-5.9-1.3-9.4-1.3-9.4c-0.4-3.3,1-6.5,3-7.1c1.3-0.4,2.5,0.4,3.4,1.8
		c0,0,1.6,2.7,3.8,7.4c1.2,2.5,2.5,5.3,4.1,8.8c1.6,3.3,3.1,7.2,4.9,11.6c1.7,4.3,3.6,9,5.4,14.1c1.8,5.1,3.6,10.4,5.4,16.1
		c0.8,2.7,1.8,5.7,2.6,8.6c1,3.1,1.9,6.1,2.8,9.4c1.8,6.5,3.5,12.9,4.9,20.8c0.4,2,0.7,4.1,0.8,6.3c0.2,2.4,0.5,5.1,0.2,9.2
		c-0.2,2.2-0.5,4.7-1.7,8.2c-0.6,1.6-1.4,3.5-2.6,4.9c-1.1,1.6-2.4,2.5-3.6,3.1c-2.4,1.2-4.1,0.8-5.4,0.6c-1.3-0.2-2.3-0.8-3.1-1.2
		c-0.4-0.2-0.7-0.4-1.2-0.8l-1-0.6l-4.6-3.7c-1.8-1.6-3.5-2.9-5.3-4.5c-3.5-2.9-6.7-5.7-9.7-7.8c-2.9-2.2-5.5-3.7-7.4-4.5
		c-0.1,0.4-0.2,1-0.4,1.4c-0.1,0.8-0.2,1.6-0.4,2.2c-0.1,0.2-0.1,0.2-0.1,0.4v0.6c-0.1,0.2-0.1,0.6-0.1,0.8
		c-0.1,0.6-0.1,0.8-0.1,0.8c-1,5.7-4.6,8.6-7.9,7.1c-0.7-0.4-1.3-1-1.9-1.6c0,0-0.1,0-0.4-0.4l-0.4-0.6c-0.1-0.2-0.2-0.6-0.5-1
		c-0.1-0.4-0.4-1-0.6-1.6c-0.1-0.6-0.4-1.2-0.6-2c-0.5-1.6-0.8-3.3-1.2-5.7s-0.5-5.3-0.4-8.2c0-1.4,0.1-2.7,0.2-3.7
		c0-0.6,0-1.2,0.1-1.6L-4912-695.9z M-4912-695.9c0,0,0-0.2,0-0.1L-4912-695.9z M-4931.3-884.9c-0.1,0.1-0.2,0.2-0.3,0.4l-0.1,0.2
		l-1,0.8c-0.2,0.2-0.6,0.6-0.8,0.8c-0.5,0.4-1,0.6-1.6,1c-1.1,0.8-2.4,1.2-3.6,1.2c-2.5,0.2-4.6-1-6.1-2.2c-3.1-2.5-4.6-5.3-6.1-7.8
		c-2.9-5.1-4.8-10.4-6.8-15.9c-1.7-4.9-3.4-10-4.9-15.1c-0.2,1.4-0.5,2.9-0.6,4.3c-0.4,3.1-0.7,6.5-1.1,9.4
		c-0.4,3.3-0.7,6.5-1.1,9.6c-0.8,6.3-1.7,12.3-2.5,18c-0.5,2.7-1,5.5-1.3,8.2c-0.4,2.5-0.8,5.1-1.2,7.6c-0.8,4.9-1.7,9.4-2.5,13.3
		c-0.7,3.9-1.6,7.2-2.2,10.2c-1.3,5.7-2.3,8.8-2.3,8.8c-0.8,3.1-3.1,4.3-4.9,2.9c-1.1-1-1.9-2.7-2-4.7c0,0-0.4-3.5-0.5-9.6
		c0-3.1-0.1-6.9,0-11.2c-0.1-4.1,0-9,0.1-14.1c0.2-5.3,0.4-10.8,0.7-16.7c0.4-5.7,0.7-12,1.3-18.2c0.4-3.1,0.6-6.3,1-9.6
		c0.4-3.5,0.7-6.7,1.2-10.2c1-6.9,1.8-13.9,3.5-21.6c0.5-2,1-3.9,1.6-6.1s1.3-4.5,3-7.6c1-1.6,2-3.5,4.3-5.1c1.1-0.8,2.5-1.6,4-1.6
		c1.4,0,2.8,0.4,4,1c2.3,1.4,3.6,3.3,4.6,4.7c1,1.4,1.6,2.7,2,3.9l0.7,1.8l0.5,1.4l0.8,2.5l1.4,4.7c0.8,2.9,1.8,5.9,2.6,8.8
		c1.7,5.5,3.4,10.8,5,15.5c1.6,4.3,3.1,8.2,4.4,10.8c0.2-0.2,0.5-0.6,0.7-0.8c0.4-0.6,0.7-1,1.1-1.4c0.1,0,0.1-0.2,0.2-0.2l0.6-1
		c0.2-0.2,0.4-0.4,0.4-0.4c2.9-3.5,6.8-2.5,9,2c0.5,1,0.8,2,1.1,3.1c0,0,0.1,0.4,0.1,0.8c0,0.2,0.1,0.4,0.1,0.8v3.3
		c-0.1,0.6-0.1,1.4-0.2,2.2c-0.2,1.6-0.5,3.3-1.1,5.7c-0.6,2.2-1.6,4.9-2.6,7.1c-0.5,1-1.1,2-1.6,2.7c-0.4,0.4-0.5,0.6-0.7,1
		L-4931.3-884.9C-4931.3-884.9-4931.3-884.9-4931.3-884.9z M-4931.3-884.9C-4931.1-885-4931.3-884.8-4931.3-884.9z M-4879.2-802
		c-0.1-0.1-0.2-0.2-0.3-0.4l-0.1-0.2l-0.5-0.4l-1.1-1.8c-0.4-0.8-0.7-1.4-1.1-2.2c-0.7-1.6-1.3-3.3-1.8-5.3
		c-0.8-3.7-0.8-7.4-0.6-10.2c0.5-5.5,1.6-8.8,2.6-12c2-5.9,4.6-10.8,7.1-15.5c2.3-4.3,4.7-8.4,7.2-12.5c-0.8,0.2-1.8,0.4-2.6,0.6
		c-1.9,0.4-4,0.8-5.8,1.2c-1.9,0.4-4,1-5.9,1.4c-4,0.8-7.7,1.4-11.3,1.8c-1.8,0.2-3.5,0.4-5.2,0.6c-1.7,0-3.4,0.2-4.9,0.4
		c-3.1,0.2-6,0.4-8.5,0.4c-2.6,0-4.9,0-6.7-0.2c-3.7-0.2-5.9-0.6-5.9-0.6c-2-0.4-3.5-3.5-3.2-6.9c0.1-2.2,1-3.7,2-4.7
		c0,0,1.9-1.6,5.4-3.7c1.8-1.2,4-2.4,6.4-3.7c2.5-1.4,5.3-2.7,8.3-4.1c3-1.2,6.4-2.7,9.8-4.1c3.5-1.4,7.2-2.5,11-3.7
		c1.9-0.6,3.8-1,5.9-1.6c2.2-0.6,4.2-1,6.4-1.4c4.3-0.8,8.6-1.6,13.7-1.4c1.3,0,2.6,0.2,4.1,0.4c1.4,0.4,3,0.8,5.4,2.4
		c1.2,1,2.6,2.2,4.3,5.1c0.8,1.6,1.7,3.5,2.2,5.7c0.5,2.2,0.7,4.5,0.7,7.1c-0.1,3.9-0.7,6.5-1.3,8.4s-1.2,3.3-1.7,4.5
		c-0.4,0.6-0.5,1.2-0.8,1.8l-0.7,1.2l-1.2,2.2c-0.8,1.2-1.6,2.5-2.3,3.7l-4.2,6.9c-2.8,4.5-5.3,8.6-7.4,12.7
		c-2,3.7-3.8,7.4-4.8,10.2c0.2,0.4,0.5,0.8,0.7,1c0.5,0.4,0.8,0.8,1.2,1.2c0.1,0,0.1,0.2,0.2,0.2s0.2,0.2,0.4,0.2
		c0.2,0.2,0.4,0.2,0.5,0.4c0.2,0.2,0.4,0.4,0.4,0.4c2.9,3.3,3.7,9.8,1.7,14.5c-0.5,1-1,2-1.6,2.5c0,0-0.1,0.2-0.4,0.4
		c-0.1,0-0.2,0.2-0.5,0.4c0,0-0.1,0.2-0.2,0.2c-0.1,0-0.4,0.2-0.5,0.2l-1.1,0.6c-0.4,0.2-0.8,0.2-1.3,0.4c-1.1,0.2-2.3,0.4-3.7,0.2
		c-1.4-0.2-3.2-1-4.9-2c-0.8-0.6-1.6-1-2.2-1.6c-0.4-0.4-0.6-0.6-0.8-0.8L-4879.2-802C-4879.2-802-4879.2-802-4879.2-802z
		 M-4928.3-713.8c1.8-1.8,4.1-0.8,4.8,1.2c0.6,1.8,0.6,3.9,0.1,5.7c0,0-1,3.3-2.9,8.4c-1,2.5-2.2,5.7-3.6,9.2
		c-1.4,3.5-3.1,7.4-5,11.6c-1,2.2-1.9,4.3-3,6.5c-1.1,2.2-2.3,4.3-3.4,6.7c-2.3,4.5-4.8,9.2-7.4,13.9c-1.3,2.4-2.6,4.7-4.1,7.1
		l-4.6,7.4c-3.1,4.9-6.2,9.8-10.3,14.7c-1,1.4-2,2.5-3.4,3.7c-1.3,1.2-2.6,2.5-5.2,3.5c-1.3,0.4-2.9,1-5.3,0.2
		c-1.2-0.4-2.5-1.2-3.7-2.4s-2.3-2.9-3-4.5c-1.4-3.1-1.9-5.9-2.2-8c-0.2-2.2-0.4-3.9-0.4-5.3v-2.2l0.1-1.8l0.1-2.9
		c0.1-1.6,0.2-3.3,0.4-5.1c0.4-3.1,0.6-6.5,0.8-9.6c0.5-6.3,1-12.1,1.2-17.4c0.2-5.1,0.4-9.8,0.1-12.9h-0.8
		c-0.6,0.2-1.1,0.2-1.4,0.2h-0.2c-0.1,0.2-0.2,0.2-0.4,0.2c-0.1,0.2-0.4,0.2-0.5,0.2h-0.5c-3.5,0.4-6.5-4.1-6.7-9.8
		c-0.1-1.2,0-2.4,0.2-3.5c0,0,0-0.2,0.1-0.6c0.1-0.2,0.1-0.4,0.2-0.8c0-0.4,0.1-0.8,0.4-1.2c0.2-0.6,0.5-1,0.7-1.6
		c0.4-0.4,0.6-1,1-1.6c0.7-1.2,1.7-2.4,2.9-3.7c1.3-1.2,3-2.5,4.7-3.3c0.8-0.4,1.7-0.6,2.3-0.8c0.4,0,0.7-0.2,1-0.2h1.9
		c0.2,0.2,0.7,0.2,1,0.2c0.6,0.2,1.1,0.4,1.7,0.6c1.2,0.4,2.3,1.4,3.4,2.4c2.2,2.2,3.5,5.1,4.3,7.4c1.6,4.9,1.9,8.6,2.3,12.1
		c0.6,6.9,0.4,13.1,0.1,19.4c-0.2,5.7-0.6,11.4-1.1,17c0.6-1,1.3-2,1.9-2.9l4.1-6.7c1.4-2.4,2.9-4.5,4.2-6.9
		c2.8-4.5,5.6-8.6,8.3-12.5c2.8-3.7,5.3-7.4,7.7-10.8s4.7-6.3,6.7-8.8c2-2.5,3.8-4.7,5.4-6.5
		C-4930.2-712.1-4928.3-713.8-4928.3-713.8z M-4996.4-831.2c0,0,0,0,0.1,0.7v0.2l0.2,0.8l0.1,0.8c0.1,0.6,0.2,1.2,0.2,1.6
		c0.1,1,0.2,1.8,0.2,2.7c0.1,2,0,3.9-0.4,5.9c-0.6,3.9-1.8,7.1-3,9c-2.3,3.9-4.4,5.7-6.4,7.2c-3.8,2.9-7.4,4.5-11.3,6.1
		c-3.4,1.4-6.8,2.5-10.3,3.5c0.8,0.8,1.7,1.6,2.4,2.2c1.7,1.4,3.5,2.9,5.2,4.3c1.8,1.4,3.5,2.9,5.3,4.3c3.5,2.9,6.7,6.1,9.8,9
		c1.4,1.4,3,2.9,4.4,4.3c1.4,1.4,2.9,2.7,4.2,4.1c2.6,2.7,5,5.3,7.2,7.6c2.2,2.4,4,4.7,5.4,6.5c3,3.7,4.6,6.1,4.6,6.1
		c1.6,2.4,1.7,6.1,0.2,8.6c-0.8,1.6-2.2,2.2-3.4,2c0,0-2.2-0.4-5.8-2c-1.8-0.6-4-1.6-6.5-2.7c-2.5-1.2-5.3-2.7-8.3-4.3
		c-3-1.8-6.2-3.7-9.6-5.9c-3.4-2.4-6.8-4.7-10.3-7.4c-1.8-1.4-3.6-2.9-5.4-4.3c-1.9-1.6-3.7-2.9-5.6-4.7c-3.7-3.3-7.6-6.9-11.6-11.6
		c-1-1.2-2-2.5-3.1-4.1c-1.2-1.8-2.4-3.5-3.7-7.1c-0.7-2-1.4-4.3-1.8-8.2c-0.1-2-0.1-4.1,0.2-6.5c0.4-2.4,1-4.5,1.7-6.1
		c1.6-3.3,3-4.9,4.1-5.9c1.1-1.2,2-1.8,2.9-2.2c0.5-0.2,0.8-0.4,1.3-0.6l1-0.4l1.8-0.6c1.1-0.4,2-0.6,3.1-1c1.9-0.6,4-1.2,5.9-1.8
		c3.8-1.2,7.3-2.4,10.6-3.5c3-1,5.8-2.4,7.6-3.7c0-0.4-0.1-1-0.2-1.4c-0.2-0.8-0.4-1.6-0.5-2.2c-0.1-0.2-0.1-0.2-0.1-0.4
		c0,0-0.1-0.2-0.1-0.4c-0.1-0.4-0.2-0.6-0.2-0.8c-0.2-0.4-0.2-0.6-0.2-0.6c-1.2-5.5,0.4-11.4,3.7-13.5c0.7-0.4,1.4-0.6,2.2-0.6h1
		c0.2,0,0.5,0.2,0.8,0.4l1.1,0.6c0.4,0.4,0.7,0.6,1.2,1c1,0.8,1.9,1.8,3.1,3.3c1.1,1.6,2.4,3.9,3.4,6.3c0.5,1.2,1,2.4,1.2,3.3
		c0.1,0.6,0.2,1,0.4,1.4L-4996.4-831.2z M-4345.3-771.1c-1.4,1,3.6-2.7,0.1-0.1c4.9-3.5,11.1,2.1,11.4,11.5
		c0.2,5.5-1.8,10.2-3.6,14.3c-1.8,4.1-3.8,8-6,12c-8.2,14.5-17.7,26.8-28.5,35.9c-14.4,12-31.8,19-47.6,11
		c-7.3-3.7-13.9-11.6-18.5-21.7c-5.8-13.1-7.7-31.9-7.1-47.8c-7.4-5.7-14-13.3-19.9-22.7c-0.6,1.6-1.1,3.1-1.7,4.7
		c-5.2,15.1-10.6,30.6-17.1,44.1c-6.1,12.7-13.7,23.9-22.1,32.5c-8.3,8.4-18.1,15.3-28.1,13.9c-8.6-1.2-16.3-9.4-20.1-22.1
		c-10.1,11.6-22.3,15.1-33.9,8.6c-10.8-6.1-17.1-21.2-19.8-38.8c-9.6,22.3-23.1,47.2-40.7,51.7c-17.5,4.5-33-17.8-37.5-44.1
		c-6.7,8.4-13.9,16.1-21.5,22.5c-17.4,14.9-37.9,25.5-57.7,21.2c-9.1-2.2-18.1-7.8-25.2-17.8c-7.1-10-11.4-23.9-13-39
		c-3.2-0.6-6.6-1-9.1-4.7c-1.7-2.5-2.8-6.3-2.9-10.2c-0.1-3.9,0.7-7.8,2.4-10.6c2.8-4.5,6.2-4.3,9.8-4.3c3-28,12.8-55.6,28.7-81.3
		s36.3-37.2,46.4-40.4c8.9-2.7,18.7-2.9,26.9,4.1c8.2,7.1,12.8,20.8,12.6,35.9c-0.2,15.5-4.4,30.4-9.5,43.1
		c-4.9,12.5-11.2,23.7-18.2,32.9c-15.6,20.4-35,31.3-54.7,35.5c0.4,7.6,5.5,17.6,19.4,17.2c13.8-0.4,25.4-5.7,37.5-14.9
		c12.1-9.2,18.8-16.7,26.9-28.2c3.6-35.5,15.9-68.2,31.3-93.5c7-11.4,14.6-21.4,23.7-27.6c9-6.1,19.8-7.6,29.4-4.3
		c9.4,3.1,18.1,11.8,23.1,25.5c2.4,6.5,3,14.1-1,19.4c-3.7,4.9-7.4,3.1-9.8,0s-7.6-5.7-13-4.5c-5.5,1-12,3.9-21.6,19
		c-9.4,14.9-13.7,25.3-17.7,35.5c-4.1,10.2-10.3,31.5-11.8,40c-1.4,7.8-1.9,17,0.2,22.5c2,5.7,7.2,0.4,8.6-1.2
		c2.5-2.9,4.9-6.1,7.1-9.6c4.6-7.1,8.6-14.9,12.5-22.9c4.1-8.2,7.8-17,11.4-26.1c1.8-4.3,3.5-8.8,5-13.3c1.6-4.3,2.8-8,4.7-13.1
		c1.9-5.1,7.3-9.6,11.2-8.2c3.8,1.4,6.7,3.7,9.1,10.2s0.1,20-0.8,28c-1.1,9-1.9,18-2.2,27.2c-0.4,10.2-0.8,28.4,6,33.7
		c4.7,3.5,9.5-1.2,13.4-5.1c4.3-4.3,8.3-9.4,11.9-15.3c1.7-17.8,4.4-38.4,5.9-56.2c-4.1,2-7.9,5.9-12.1,2.5
		c-3.4-2.7-5.4-8.8-4.7-14.9c0.8-7.2,4.2-13.5,7.4-18.2c3.6-5.1,7.9-9.6,12.4-12.7c8.2-5.7,17.9,2.4,21.3,14.9
		c4,14.3,1.8,35.3,0.5,50.2l-2.5,27c-0.8,8.8-1.6,17.6-1.2,26.5c2.8-1.2,5.4-4.1,7.7-6.7c2.5-2.9,5-6.1,7.3-9.6
		c4.4-6.7,8.3-14.5,11.8-22.7c7.1-17,13.4-35.1,19.3-53.5c-1-4.1-1.6-8.6-2-12.9c-1.4-14.1-0.4-29.6,4.9-41.5
		c5-11.2,13.9-17,22.3-13.9c8.6,3.1,13.1,15.5,13,29.2c-0.1,15.7-4.3,31.3-8,45.5c0.8,2,4.1,8.8,6.2,12.9c2.2,4.1,5.4,8.4,7.4,10.8
		c3.8-16.1,9-31.2,15.1-45.1c5.8-13.1,12.6-25.1,20.7-34.3c8.4-9.4,18-16.1,27.9-19c9-2.5,18.7-2.7,27.2,3.3
		c8,5.7,13.9,17,14.9,31.5s-4.7,43.7-24.1,71.5c-19.3,27.8-37.9,40.4-58.2,40.6c-0.6,13.7,9.2,18.8,12.1,19.4
		c7.4,1.4,15-1.6,21.9-5.7c7-4.3,13.7-9.8,19.8-16.7c3-3.3,5.9-7.1,8.6-10.8c1.4-2,2.8-3.9,4.1-6.1
		C-4348.1-767.7-4346.9-769.9-4345.3-771.1z M-4716.3-852c-11.8,1.4-21,11.4-30.8,26.1c-10,14.5-15.8,37.2-18,44.9
		c10.4-5.9,16.3-9.6,29.4-25.1C-4722.6-821.6-4717.6-843.2-4716.3-852z M-4389.7-826.7c-9.7,13.7-15.6,34.1-18.5,43.7
		c11.4-2.2,19.4-8,30.9-23.5c11.5-15.7,18.3-40.6,18.6-44.9C-4366.9-852.4-4379.9-840.4-4389.7-826.7z"/>
</g>
</svg>
