<?xml version="1.0" encoding="utf-8"?>
<!-- Generator: Adobe Illustrator 22.0.1, SVG Export Plug-In . SVG Version: 6.00 Build 0)  -->
<svg version="1.1" id="Capa_1" xmlns="http://www.w3.org/2000/svg" xmlns:xlink="http://www.w3.org/1999/xlink" x="0px" y="0px"
	 viewBox="0 0 217.1 203.1" style="enable-background:new 0 0 217.1 203.1;" xml:space="preserve">
<style type="text/css">
	.st0{fill:#DCE1D6;}
</style>
<g transform="matrix(3.20425,0,0,1.9612,1305.3,595.733)">
	<path class="st0" d="M-340-242.8v-36.7h-67.4v36.7h22.5v36.7h22.5v-36.7H-340z M-342.3-285.6h2.3l-2.5-12.2h-2.5l-2.5,12.1l0,0.1
		h2.1l0.3-2.1h2.3L-342.3-285.6z M-343-290.5h-1.5l0.5-3.4l0.2-1.3h0l0.2,1.3L-343-290.5z M-347.5-285.6l0-0.1l-1.6-4.8
		c0.7-0.5,1.1-1.7,1.1-3.3c0-2.7-1-4-3-4h-2.9v12.2h2.1v-4.3h0.8l1.1,4.3H-347.5z M-350.1-293.8c0,1.2-0.2,1.4-0.8,1.4h-0.8v-2.8
		h0.8C-350.3-295.1-350.1-294.8-350.1-293.8 M-357.8-288.5v-2.1h2.6v-2.6h-2.6v-1.8h3.1l0-2.9h-5.2v12.2h5.3l0-2.9H-357.8z
		 M-360.6-285.6l0-2.9h-2.8v-9.3h-2.1v12.2H-360.6z M-368.2-285.6h2.3l-2.5-12.2h-2.5l-2.5,12.2h2.2l0.3-2.1h2.3L-368.2-285.6z
		 M-369-290.5h-1.5l0.5-3.4l0.2-1.3h0l0.2,1.3L-369-290.5z M-373.4-285.6l-2.1-6.4l2-5.8h-2.4l-1.5,4.7h-0.6v-4.7h-2.1v12.2h2.1
		v-4.9h0.6l1.5,4.9H-373.4z M-383-285.6h2.3l-2.5-12.2h-2.5l-2.5,12.2h2.2l0.3-2.1h2.3L-383-285.6z M-383.8-290.5h-1.5l0.5-3.4
		l0.2-1.3h0l0.2,1.3L-383.8-290.5z M-389.5-292.1L-389.5-292.1c0.6-0.5,1-1.3,1-2.6c0-1.9-0.9-3.2-2.6-3.2h-3.2v12.2h3.2
		c2,0,2.8-1.4,2.8-3.6C-388.3-290.7-388.7-291.7-389.5-292.1 M-390.6-294.1c0,0.8-0.2,1.1-0.6,1.1h-1.1v-2.1h1.1
		C-390.7-295.1-390.6-294.9-390.6-294.1 M-390.4-289.5c0,0.9-0.2,1.2-0.7,1.2h-1.2v-2.3h1.2C-390.6-290.6-390.4-290.3-390.4-289.5
		 M-397.1-285.6h2.3l-2.5-12.2h-2.5l-2.5,12.2h2.2l0.3-2.1h2.3L-397.1-285.6z M-397.9-290.5h-1.5l0.5-3.4l0.2-1.3h0l0.2,1.3
		L-397.9-290.5z M-403.4-294.9h1.9l0-3h-5.8l0,3h1.9v9.3h2.1V-294.9z"/>
</g>
</svg>
