<?xml version="1.0" encoding="UTF-8" standalone="no"?>
<!DOCTYPE svg PUBLIC "-//W3C//DTD SVG 1.1//EN" "http://www.w3.org/Graphics/SVG/1.1/DTD/svg11.dtd">
<svg width="100%" height="100%" viewBox="0 0 5266 427" version="1.1" xmlns="http://www.w3.org/2000/svg" xmlns:xlink="http://www.w3.org/1999/xlink" xml:space="preserve" xmlns:serif="http://www.serif.com/" style="fill-rule:evenodd;clip-rule:evenodd;stroke-linejoin:round;stroke-miterlimit:2;">
    <g transform="matrix(1,0,0,1,-261.759831,-150.75625)">
        <g transform="matrix(4.166667,0,0,4.166667,0,-0.33125)">
            <g transform="matrix(1,0,0,1,514.08,0)">
                <g transform="matrix(-1,0,0,1,865.989,4.898)">
                    <rect x="431.684" y="31.363" width="2.621" height="102.455" style="fill:rgb(36,31,31);"/>
                </g>
                <g transform="matrix(1,0,0,1,111.7281,72.0458)">
                    <path d="M0,38.687L0,0C0,-2.352 -0.077,-6.146 -0.304,-9.103L13.426,-9.103L27.536,30.949L41.039,-9.103L54.999,-9.103C54.77,-6.146 54.695,-2.352 54.695,0L54.695,38.687C54.695,41.039 54.77,44.909 54.999,47.79L42.935,47.79C43.162,44.909 43.239,41.039 43.239,38.687L43.239,11.758L30.799,47.79L23.896,47.79L10.62,10.62L10.62,38.687C10.62,41.039 10.697,44.909 10.924,47.79L-0.304,47.79C-0.077,44.909 0,41.039 0,38.687" style="fill:rgb(36,31,31);fill-rule:nonzero;"/>
                </g>
                <g transform="matrix(1,0,0,1,176.312,70.6799)">
                    <path d="M0,41.419L14.259,-1.82C14.943,-3.794 15.399,-5.764 15.626,-7.738L30.115,-7.738L46.35,41.419C47.106,43.619 48.321,46.728 49.533,49.157L35.88,49.157C35.501,46.501 34.817,43.846 33.984,41.419L33.453,39.748L12.211,39.748L11.68,41.419C10.847,43.846 10.163,46.501 9.784,49.157L-3.186,49.157C-1.973,46.728 -0.758,43.619 0,41.419M30.494,30.343L22.908,3.715L15.172,30.343L30.494,30.343Z" style="fill:rgb(36,31,31);fill-rule:nonzero;"/>
                </g>
                <g transform="matrix(1,0,0,1,232.2279,72.0458)">
                    <path d="M0,38.687L0,0C0,-2.504 -0.075,-6.069 -0.302,-9.103L17.904,-9.103C36.032,-9.103 45.667,0.834 45.667,19.039C45.667,37.624 36.032,47.79 17.904,47.79L-0.302,47.79C-0.075,44.909 0,41.039 0,38.687M11.381,0.302L11.381,38.383L17.904,38.383C29.13,38.383 34.211,32.313 34.211,19.419C34.211,6.524 29.13,0.302 17.904,0.302L11.381,0.302Z" style="fill:rgb(36,31,31);fill-rule:nonzero;"/>
                </g>
                <g transform="matrix(1,0,0,1,286.4006,86.8388)">
                    <path d="M0,23.894L0,-14.793C0,-17.145 -0.075,-20.939 -0.302,-23.896L18.889,-23.896C33.303,-23.896 41.039,-17.524 41.039,-6.373C41.039,1.44 37.018,6.294 30.419,8.722C34.743,11.224 36.337,15.472 39.143,23.44C42.937,34.212 48.321,38.153 58.26,38.153C61.597,38.153 63.798,37.926 65.693,37.397L65.087,46.65C62.964,47.486 60.839,47.79 58.11,47.79C40.737,47.79 33.984,40.962 28.449,26.626C24.2,15.624 22.152,13.349 15.931,13.349L11.381,13.349L11.381,23.894C11.381,26.246 11.455,30.116 11.682,32.997L-0.302,32.997C-0.075,30.116 0,26.246 0,23.894M11.381,-14.491L11.381,3.942L18.662,3.942C25.565,3.942 29.661,0.759 29.661,-5.388C29.661,-11.684 26.248,-14.491 18.662,-14.491L11.381,-14.491Z" style="fill:rgb(36,31,31);fill-rule:nonzero;"/>
                </g>
                <g transform="matrix(1,0,0,1,337.6913,72.0469)">
                    <path d="M0,34.323L0,0C0,-2.353 -0.077,-6.147 -0.304,-9.103L11.682,-9.103C11.453,-6.222 11.378,-2.353 11.378,0L11.378,34.323C11.378,36.675 11.453,40.545 11.682,43.426L-0.304,43.426C-0.077,40.545 0,36.675 0,34.323" style="fill:rgb(36,31,31);fill-rule:nonzero;"/>
                </g>
                <g transform="matrix(1,0,0,1,359.9968,72.0458)">
                    <path d="M0,38.687L0,0C0,-2.504 -0.077,-6.069 -0.304,-9.103L17.902,-9.103C36.032,-9.103 45.667,0.834 45.667,19.039C45.667,37.624 36.032,47.79 17.902,47.79L-0.304,47.79C-0.077,44.909 0,41.039 0,38.687M11.378,0.302L11.378,38.383L17.902,38.383C29.13,38.383 34.211,32.313 34.211,19.419C34.211,6.524 29.13,0.302 17.902,0.302L11.378,0.302Z" style="fill:rgb(36,31,31);fill-rule:nonzero;"/>
                </g>
                <g transform="matrix(1,0,0,1,22.827,138.5018)">
                    <path d="M0,-75.54L0,-23.976C0,-8.706 10.572,0 31.285,0C51.993,0 62.563,-8.706 62.563,-23.976L62.563,-75.54L0,-75.54ZM54.6,-70.339C49.269,-60.774 38.971,-54.742 24.916,-53.388C16.929,-52.617 9.09,-53.39 5.246,-53.899L5.246,-70.339L54.6,-70.339ZM18.268,-6.741C9.712,-9.273 5.246,-15.13 5.246,-25.904L5.246,-48.945C7.94,-48.508 12.64,-47.917 18.268,-47.915L18.268,-6.741ZM31.31,-5C28.451,-5 25.824,-5.184 23.43,-5.553L23.422,-28.164C23.422,-28.164 31.594,-22.721 32.248,-22.873L35.097,-23.288L35.099,-22.41C35.099,-21.359 35.174,-20.434 35.296,-19.625C35.885,-15.881 37.607,-14.634 38.412,-14.247L37.771,-13.474C37.462,-13.102 37.741,-12.129 38.041,-11.513L39.844,-5.658C37.277,-5.222 34.431,-5 31.31,-5M57.356,-25.904C57.356,-19.383 55.747,-14.674 52.604,-11.408C53.56,-13.172 53.809,-14.963 52.869,-16.5L48.905,-22.434L44.157,-34.177L43.813,-38.964L44.873,-39.483C45.619,-39.829 46.003,-40.7 45.724,-41.399L45.41,-42.217C45.135,-42.93 44.22,-43.399 43.382,-43.267L41.837,-43.03L39.582,-44.589C39.248,-44.816 38.634,-44.941 38.208,-44.866L36.821,-44.629L33.608,-46.832C33.276,-47.074 32.792,-47.004 32.545,-46.707L30.671,-44.44C30.297,-43.988 30.267,-43.24 30.602,-42.761L33.465,-38.719L33.465,-31.502L30.175,-30.941C29.055,-30.941 23.482,-32.555 23.482,-33.87L23.482,-48.087C24.103,-48.127 24.724,-48.179 25.353,-48.239C39.904,-49.608 50.875,-55.334 57.356,-64.871L57.356,-25.904Z" style="fill:rgb(36,31,31);fill-rule:nonzero;"/>
                </g>
                <g transform="matrix(1,0,0,1,25.6866,60.2537)">
                    <path d="M0,-8.544L0.761,-6.157C0.791,-6.064 0.886,-6.007 0.98,-6.029L3.428,-6.563C3.61,-6.603 3.732,-6.389 3.61,-6.251L1.921,-4.4C1.856,-4.328 1.856,-4.218 1.921,-4.146L3.61,-2.293C3.732,-2.158 3.61,-1.941 3.428,-1.981L0.98,-2.517C0.886,-2.537 0.791,-2.482 0.761,-2.39L0,-0.002C-0.057,0.175 -0.304,0.175 -0.362,-0.002L-1.12,-2.39C-1.15,-2.482 -1.247,-2.537 -1.342,-2.517L-3.789,-1.981C-3.969,-1.941 -4.094,-2.158 -3.969,-2.293L-2.283,-4.146C-2.215,-4.218 -2.215,-4.328 -2.283,-4.4L-3.969,-6.251C-4.094,-6.389 -3.969,-6.603 -3.789,-6.563L-1.342,-6.029C-1.247,-6.007 -1.15,-6.064 -1.12,-6.157L-0.362,-8.544C-0.304,-8.719 -0.057,-8.719 0,-8.544" style="fill:rgb(36,31,31);fill-rule:nonzero;"/>
                </g>
                <g transform="matrix(1,0,0,1,35.2195,60.2537)">
                    <path d="M0,-8.544L0.761,-6.157C0.791,-6.064 0.886,-6.007 0.98,-6.029L3.428,-6.563C3.61,-6.603 3.732,-6.389 3.61,-6.251L1.921,-4.4C1.856,-4.328 1.856,-4.218 1.921,-4.146L3.61,-2.293C3.732,-2.158 3.61,-1.941 3.428,-1.981L0.98,-2.517C0.886,-2.537 0.791,-2.482 0.761,-2.39L0,-0.002C-0.057,0.175 -0.304,0.175 -0.359,-0.002L-1.12,-2.39C-1.15,-2.482 -1.247,-2.537 -1.342,-2.517L-3.789,-1.981C-3.969,-1.941 -4.094,-2.158 -3.969,-2.293L-2.283,-4.146C-2.215,-4.218 -2.215,-4.328 -2.283,-4.4L-3.969,-6.251C-4.094,-6.389 -3.969,-6.603 -3.789,-6.563L-1.342,-6.029C-1.247,-6.007 -1.15,-6.064 -1.12,-6.157L-0.359,-8.544C-0.304,-8.719 -0.057,-8.719 0,-8.544" style="fill:rgb(36,31,31);fill-rule:nonzero;"/>
                </g>
                <g transform="matrix(1,0,0,1,44.7523,60.2537)">
                    <path d="M0,-8.544L0.761,-6.157C0.791,-6.064 0.886,-6.007 0.98,-6.029L3.428,-6.563C3.61,-6.603 3.734,-6.389 3.61,-6.251L1.921,-4.4C1.856,-4.328 1.856,-4.218 1.921,-4.146L3.61,-2.293C3.734,-2.158 3.61,-1.941 3.428,-1.981L0.98,-2.517C0.886,-2.537 0.791,-2.482 0.761,-2.39L0,-0.002C-0.055,0.175 -0.304,0.175 -0.359,-0.002L-1.12,-2.39C-1.15,-2.482 -1.245,-2.537 -1.342,-2.517L-3.789,-1.981C-3.969,-1.941 -4.094,-2.158 -3.969,-2.293L-2.283,-4.146C-2.215,-4.218 -2.215,-4.328 -2.283,-4.4L-3.969,-6.251C-4.094,-6.389 -3.969,-6.603 -3.789,-6.563L-1.342,-6.029C-1.245,-6.007 -1.15,-6.064 -1.12,-6.157L-0.359,-8.544C-0.304,-8.719 -0.055,-8.719 0,-8.544" style="fill:rgb(36,31,31);fill-rule:nonzero;"/>
                </g>
                <g transform="matrix(1,0,0,1,54.2853,60.2537)">
                    <path d="M0,-8.544L0.761,-6.157C0.791,-6.064 0.886,-6.007 0.98,-6.029L3.43,-6.563C3.61,-6.603 3.734,-6.389 3.61,-6.251L1.921,-4.4C1.856,-4.328 1.856,-4.218 1.921,-4.146L3.61,-2.293C3.734,-2.158 3.61,-1.941 3.43,-1.981L0.98,-2.517C0.886,-2.537 0.791,-2.482 0.761,-2.39L0,-0.002C-0.055,0.175 -0.304,0.175 -0.359,-0.002L-1.12,-2.39C-1.15,-2.482 -1.245,-2.537 -1.342,-2.517L-3.789,-1.981C-3.969,-1.941 -4.094,-2.158 -3.969,-2.293L-2.283,-4.146C-2.215,-4.218 -2.215,-4.328 -2.283,-4.4L-3.969,-6.251C-4.094,-6.389 -3.969,-6.603 -3.789,-6.563L-1.342,-6.029C-1.245,-6.007 -1.15,-6.064 -1.12,-6.157L-0.359,-8.544C-0.304,-8.719 -0.055,-8.719 0,-8.544" style="fill:rgb(36,31,31);fill-rule:nonzero;"/>
                </g>
                <g transform="matrix(1,0,0,1,63.8183,60.2537)">
                    <path d="M0,-8.544L0.761,-6.157C0.791,-6.064 0.886,-6.007 0.98,-6.029L3.43,-6.563C3.61,-6.603 3.734,-6.389 3.61,-6.251L1.921,-4.4C1.856,-4.328 1.856,-4.218 1.921,-4.146L3.61,-2.293C3.734,-2.158 3.61,-1.941 3.43,-1.981L0.98,-2.517C0.886,-2.537 0.791,-2.482 0.761,-2.39L0,-0.002C-0.055,0.175 -0.304,0.175 -0.359,-0.002L-1.12,-2.39C-1.15,-2.482 -1.245,-2.537 -1.342,-2.517L-3.789,-1.981C-3.969,-1.941 -4.094,-2.158 -3.969,-2.293L-2.283,-4.146C-2.215,-4.218 -2.215,-4.328 -2.283,-4.4L-3.969,-6.251C-4.094,-6.389 -3.969,-6.603 -3.789,-6.563L-1.342,-6.029C-1.245,-6.007 -1.15,-6.064 -1.12,-6.157L-0.359,-8.544C-0.304,-8.719 -0.055,-8.719 0,-8.544" style="fill:rgb(36,31,31);fill-rule:nonzero;"/>
                </g>
                <g transform="matrix(1,0,0,1,73.3514,60.2537)">
                    <path d="M0,-8.544L0.761,-6.157C0.791,-6.064 0.886,-6.007 0.98,-6.029L3.428,-6.563C3.61,-6.603 3.732,-6.389 3.61,-6.251L1.921,-4.4C1.856,-4.328 1.856,-4.218 1.921,-4.146L3.61,-2.293C3.732,-2.158 3.61,-1.941 3.428,-1.981L0.98,-2.517C0.886,-2.537 0.791,-2.482 0.761,-2.39L0,-0.002C-0.057,0.175 -0.304,0.175 -0.362,-0.002L-1.12,-2.39C-1.15,-2.482 -1.247,-2.537 -1.342,-2.517L-3.789,-1.981C-3.969,-1.941 -4.094,-2.158 -3.969,-2.293L-2.283,-4.146C-2.215,-4.218 -2.215,-4.328 -2.283,-4.4L-3.969,-6.251C-4.094,-6.389 -3.969,-6.603 -3.789,-6.563L-1.342,-6.029C-1.247,-6.007 -1.15,-6.064 -1.12,-6.157L-0.362,-8.544C-0.304,-8.719 -0.057,-8.719 0,-8.544" style="fill:rgb(36,31,31);fill-rule:nonzero;"/>
                </g>
                <g transform="matrix(1,0,0,1,82.8844,60.2537)">
                    <path d="M0,-8.544L0.761,-6.157C0.791,-6.064 0.886,-6.007 0.98,-6.029L3.428,-6.563C3.61,-6.603 3.732,-6.389 3.61,-6.251L1.921,-4.4C1.856,-4.328 1.856,-4.218 1.921,-4.146L3.61,-2.293C3.732,-2.158 3.61,-1.941 3.428,-1.981L0.98,-2.517C0.886,-2.537 0.791,-2.482 0.761,-2.39L0,-0.002C-0.055,0.175 -0.304,0.175 -0.359,-0.002L-1.12,-2.39C-1.15,-2.482 -1.245,-2.537 -1.342,-2.517L-3.789,-1.981C-3.969,-1.941 -4.094,-2.158 -3.969,-2.293L-2.283,-4.146C-2.215,-4.218 -2.215,-4.328 -2.283,-4.4L-3.969,-6.251C-4.094,-6.389 -3.969,-6.603 -3.789,-6.563L-1.342,-6.029C-1.245,-6.007 -1.15,-6.064 -1.12,-6.157L-0.359,-8.544C-0.304,-8.719 -0.055,-8.719 0,-8.544" style="fill:rgb(36,31,31);fill-rule:nonzero;"/>
                </g>
                <g transform="matrix(1,0,0,1,84.6913,49.6829)">
                    <path d="M0,-13.18L-0.042,-13.03C-0.045,-13.02 -0.309,-12.127 -0.589,-11.671C-0.99,-11 -2.168,-10.349 -3.016,-10.408L-3.016,-7.345L-2.946,-7.345C-2.375,-7.345 -1.739,-7.47 -1.182,-7.634L-1.182,-6.512C-1.182,-5.701 -1.409,-3.815 -3.507,-3.815C-4.455,-3.815 -5.029,-4.409 -5.364,-4.975C-5.179,-5.307 -5.084,-5.676 -5.084,-6.055C-5.084,-6.647 -5.314,-7.205 -5.735,-7.632C-6.157,-8.051 -6.716,-8.286 -7.312,-8.286C-8.537,-8.286 -9.537,-7.285 -9.537,-6.055C-9.537,-5.674 -9.44,-5.302 -9.258,-4.975C-9.589,-4.409 -10.168,-3.815 -11.114,-3.815C-13.212,-3.815 -13.439,-5.701 -13.439,-6.512L-13.439,-7.979C-13.351,-7.979 -13.266,-7.959 -13.187,-7.926C-12.286,-7.545 -11.348,-7.36 -10.64,-7.373L-10.64,-10.436C-11.498,-10.376 -12.663,-11.027 -13.067,-11.696C-13.361,-12.18 -13.533,-12.536 -13.606,-13.028L-13.631,-13.207L-16.522,-13.207L-16.564,-13.058C-16.567,-13.048 -16.831,-12.155 -17.111,-11.696C-17.515,-11.027 -18.69,-10.374 -19.538,-10.436L-19.538,-7.373C-18.71,-7.355 -17.712,-7.624 -17.058,-7.901C-16.951,-7.946 -16.839,-7.974 -16.716,-7.976L-16.716,-6.512C-16.716,-5.701 -16.931,-3.815 -19.032,-3.815C-19.972,-3.815 -20.548,-4.401 -20.882,-4.968C-20.693,-5.299 -20.596,-5.674 -20.596,-6.055C-20.596,-7.285 -21.596,-8.286 -22.826,-8.286C-24.053,-8.286 -25.051,-7.285 -25.051,-6.055C-25.051,-5.676 -24.956,-5.309 -24.774,-4.98C-25.108,-4.411 -25.685,-3.815 -26.635,-3.815C-28.733,-3.815 -28.958,-5.701 -28.958,-6.512C-28.958,-6.624 -28.945,-7.722 -28.945,-7.722L-28.943,-7.979L-28.925,-7.979C-28.84,-7.979 -28.753,-7.959 -28.676,-7.926C-27.775,-7.545 -26.837,-7.36 -26.129,-7.373L-26.129,-10.436C-26.987,-10.376 -28.152,-11.027 -28.556,-11.696C-28.85,-12.18 -29.022,-12.536 -29.095,-13.028L-29.12,-13.207L-32.051,-13.207L-32.078,-13.028C-32.148,-12.536 -32.32,-12.18 -32.617,-11.696C-33.019,-11.027 -34.186,-10.376 -35.044,-10.436L-35.044,-7.373C-34.336,-7.36 -33.396,-7.545 -32.497,-7.926C-32.418,-7.959 -32.33,-7.979 -32.246,-7.979L-32.231,-7.979L-32.228,-7.722C-32.228,-7.722 -32.213,-6.624 -32.213,-6.512C-32.213,-5.701 -32.438,-3.815 -34.536,-3.815C-35.489,-3.815 -36.062,-4.411 -36.399,-4.98C-36.217,-5.309 -36.122,-5.676 -36.122,-6.055C-36.122,-7.285 -37.12,-8.286 -38.347,-8.286C-39.575,-8.286 -40.575,-7.285 -40.575,-6.055C-40.575,-5.674 -40.478,-5.299 -40.291,-4.968C-40.625,-4.401 -41.199,-3.815 -42.142,-3.815C-44.24,-3.815 -44.454,-5.701 -44.454,-6.512L-44.454,-7.976C-44.334,-7.974 -44.22,-7.946 -44.112,-7.901C-43.461,-7.624 -42.463,-7.355 -41.635,-7.373L-41.635,-10.436C-42.484,-10.374 -43.658,-11.027 -44.063,-11.696C-44.342,-12.155 -44.604,-13.048 -44.606,-13.058L-44.649,-13.207L-47.54,-13.207L-47.568,-13.028C-47.637,-12.536 -47.809,-12.18 -48.106,-11.696C-48.508,-11.027 -49.676,-10.376 -50.534,-10.436L-50.534,-7.373C-49.825,-7.36 -48.885,-7.545 -47.987,-7.926C-47.904,-7.959 -47.82,-7.979 -47.732,-7.979L-47.732,-6.512C-47.732,-5.701 -47.959,-3.815 -50.06,-3.815C-51.005,-3.815 -51.581,-4.409 -51.913,-4.975C-51.731,-5.302 -51.634,-5.674 -51.634,-6.055C-51.634,-7.285 -52.634,-8.286 -53.859,-8.286C-54.458,-8.286 -55.017,-8.051 -55.438,-7.632C-55.857,-7.205 -56.089,-6.647 -56.089,-6.055C-56.089,-5.676 -55.994,-5.307 -55.81,-4.975C-56.144,-4.409 -56.718,-3.815 -57.663,-3.815C-59.761,-3.815 -59.991,-5.701 -59.991,-6.512L-59.991,-7.634C-59.435,-7.47 -58.798,-7.345 -58.225,-7.345L-58.157,-7.345L-58.157,-10.408C-59.005,-10.349 -60.18,-11 -60.585,-11.671C-60.864,-12.127 -61.126,-13.02 -61.131,-13.03L-61.173,-13.18L-63.855,-13.18L-63.855,-7.153C-63.855,-2.658 -61.577,0.027 -57.766,0.027C-56.104,0.027 -54.46,-0.969 -53.859,-1.37C-53.263,-0.969 -51.619,0.027 -49.957,0.027C-48.229,0.027 -46.692,-0.994 -46.101,-1.443C-45.507,-0.994 -43.975,0.027 -42.241,0.027C-40.583,0.027 -38.939,-0.969 -38.34,-1.37C-37.741,-0.969 -36.097,0.027 -34.436,0.027C-32.712,0.027 -31.185,-0.989 -30.587,-1.438C-29.988,-0.989 -28.459,0.027 -26.737,0.027C-25.076,0.027 -23.432,-0.969 -22.831,-1.37C-22.235,-0.969 -20.591,0.027 -18.929,0.027C-17.198,0.027 -15.664,-0.994 -15.07,-1.443C-14.479,-0.994 -12.942,0.027 -11.213,0.027C-9.554,0.027 -7.911,-0.969 -7.312,-1.37C-6.711,-0.969 -5.067,0.027 -3.408,0.027C0.407,0.027 2.684,-2.658 2.684,-7.153L2.684,-13.18L0,-13.18Z" style="fill:rgb(36,31,31);fill-rule:nonzero;"/>
                </g>
                <g transform="matrix(1,0,0,1,460.6064,78.2888)">
                    <path d="M0,22.536C0,38.674 8.594,46.122 21.581,46.122L21.867,46.122L21.867,32.181L21.772,32.181C18.43,32.181 16.233,30.461 16.233,24.828L16.233,-2.291C16.233,-7.926 18.43,-9.644 21.772,-9.644L21.867,-9.644L21.867,-23.586L21.581,-23.586C8.594,-23.586 0,-16.138 0,0.001L0,22.536ZM23.872,-9.644C27.31,-9.644 29.506,-7.926 29.506,-2.291L29.506,6.971L45.739,6.971L45.739,0.001C45.739,-16.138 37.145,-23.586 24.064,-23.586L23.777,-23.586L23.777,-9.644L23.872,-9.644ZM24.064,46.122C37.145,46.122 45.739,38.674 45.739,22.536L45.739,15.565L29.506,15.565L29.506,24.828C29.506,30.461 27.31,32.181 23.872,32.181L23.777,32.181L23.777,46.122L24.064,46.122ZM67.893,-22.822L51.66,-22.822L51.66,45.358L67.893,45.358L67.893,-22.822ZM75.34,-22.822L75.34,45.359L89.473,45.359L88.804,10.599L78.778,-22.822L75.34,-22.822ZM101.122,45.359L114.588,45.359L94.152,-22.822L80.688,-22.822L101.122,45.359ZM119.935,45.359L119.935,-22.822L105.802,-22.822L106.948,13.465L116.592,45.359L119.935,45.359ZM143.615,-22.822L127.382,-22.822L127.382,45.358L143.615,45.358L143.615,-22.822ZM166.342,-22.822L145.525,-22.822L145.525,-9.072L166.342,-9.072L166.342,-22.822ZM164.623,3.916L145.525,3.916L145.525,17.666L164.623,17.666L164.623,3.916ZM166.342,31.607L145.525,31.607L145.525,45.357L166.342,45.357L166.342,31.607ZM207.306,-22.822L168.441,-22.822L168.441,-9.072L207.306,-9.072L207.306,-22.822ZM179.71,45.359L195.943,45.359L195.943,-7.352L179.71,-7.352L179.71,45.359ZM227.167,-22.822L210.934,-22.822L210.934,45.358L227.167,45.358L227.167,-22.822ZM249.894,-22.822L229.077,-22.822L229.077,-9.072L249.894,-9.072L249.894,-22.822ZM248.175,3.916L229.077,3.916L229.077,17.666L248.175,17.666L248.175,3.916ZM249.894,31.607L229.077,31.607L229.077,45.357L249.894,45.357L249.894,31.607ZM254.859,22.536C254.859,38.674 263.453,46.122 276.439,46.122L276.726,46.122L276.726,32.181L276.631,32.181C273.288,32.181 271.092,30.461 271.092,24.828L271.092,-2.291C271.092,-7.926 273.288,-9.644 276.631,-9.644L276.726,-9.644L276.726,-23.586L276.439,-23.586C263.453,-23.586 254.859,-16.138 254.859,0.001L254.859,22.536ZM278.731,-9.644C282.169,-9.644 284.365,-7.926 284.365,-2.291L284.365,6.971L300.598,6.971L300.598,0.001C300.598,-16.138 292.004,-23.586 278.923,-23.586L278.635,-23.586L278.635,-9.644L278.731,-9.644ZM278.923,46.122C292.004,46.122 300.598,38.674 300.598,22.536L300.598,15.565L284.365,15.565L284.365,24.828C284.365,30.461 282.169,32.181 278.731,32.181L278.635,32.181L278.635,46.122L278.923,46.122ZM320.842,18.238L325.139,-4.201L322.084,-22.822L314.539,-22.822L300.598,45.359L315.59,45.359L318.36,30.748L330.964,30.748L328.958,18.238L320.842,18.238ZM323.993,-22.822L335.548,45.359L351.876,45.359L337.553,-22.822L323.993,-22.822Z" style="fill:rgb(36,31,31);fill-rule:nonzero;"/>
                </g>
            </g>
        </g>
        <g transform="matrix(4.166667,0,0,4.166667,0,-0.33125)">
            <g transform="matrix(0.408832,0,0,0.250231,417.442967,317.438592)">
                <path d="M-35.1,-797.9C-51.5,-819.2 -60.5,-867 -69.4,-913.6C-77.5,-956.6 -88.7,-1015.5 -102.3,-1015.5C-115.9,-1015.5 -127.1,-956.6 -135.2,-913.6C-147,-851.1 -159.3,-786.5 -189,-786.5C-218.8,-786.5 -231,-851.1 -242.8,-913.6C-250.9,-956.6 -262.1,-1015.5 -275.7,-1015.5C-289.3,-1015.5 -300.5,-956.6 -308.6,-913.6C-320.4,-851.1 -332.7,-786.5 -362.4,-786.5C-392.2,-786.5 -404.4,-851.1 -416.2,-913.6C-424.3,-956.6 -435.5,-1015.5 -449.1,-1015.5C-462.7,-1015.5 -473.9,-956.6 -482,-913.6C-493.8,-851.1 -506.1,-786.5 -535.8,-786.5C-565.5,-786.5 -577.8,-851.1 -589.6,-913.6C-597.7,-956.6 -608.9,-1015.5 -622.5,-1015.5C-636.1,-1015.5 -647.3,-956.6 -655.4,-913.6C-664.2,-867 -673.3,-819.2 -689.7,-797.9C-691.6,-798.4 -693.6,-799.5 -695.7,-801.3C-701.3,-806.3 -704.5,-815.3 -704.4,-824.7C-693,-836.4 -683.5,-886.3 -676.4,-924.1C-664.6,-986.6 -652.3,-1051.2 -622.6,-1051.2C-592.8,-1051.2 -580.6,-986.6 -568.8,-924.1C-560.7,-881.1 -549.5,-822.2 -535.9,-822.2C-522.3,-822.2 -511.1,-881.1 -503,-924.1C-491.2,-986.6 -478.9,-1051.2 -449.2,-1051.2C-419.4,-1051.2 -407.2,-986.6 -395.4,-924.1C-387.3,-881.1 -376.1,-822.2 -362.5,-822.2C-348.9,-822.2 -337.7,-881.1 -329.6,-924.1C-317.8,-986.6 -305.5,-1051.2 -275.8,-1051.2C-246,-1051.2 -233.8,-986.6 -222,-924.1C-213.9,-881.1 -202.7,-822.2 -189.1,-822.2C-175.5,-822.2 -164.3,-881.1 -156.2,-924.1C-144.4,-986.6 -132.1,-1051.2 -102.4,-1051.2C-72.6,-1051.2 -60.4,-986.6 -48.6,-924.1C-41.7,-887.9 -32.8,-840.4 -22,-826.3C-21.8,-812.5 -25.1,-800.8 -35.1,-797.9ZM-805.5,-1019C-767.5,-995.9 -728.3,-972 -728.3,-917C-728.3,-861.9 -767.5,-838.1 -805.5,-815C-821.7,-805.1 -838.2,-795.1 -850.3,-783.4C-851.3,-784.3 -852.3,-785.3 -853.3,-786.4C-857,-790.3 -860.8,-795.6 -862.5,-802.4C-863.5,-806.2 -863.2,-809.9 -862.3,-813.3C-848.3,-827.2 -830.6,-838 -813.1,-848.6C-782.1,-867.4 -750.1,-886.9 -750.1,-917.1C-750.1,-947.3 -782.1,-966.8 -813.1,-985.6C-832.7,-997.5 -852.7,-1009.7 -867.4,-1026.2C-866.3,-1038.7 -860.9,-1049.9 -853.9,-1054.5C-841.7,-1041.1 -823.4,-1029.9 -805.5,-1019ZM-81.6,-900.3C-81.6,-889.8 -86.8,-881.2 -93.3,-881.2L-111.4,-881.2C-117.8,-881.2 -123.1,-889.7 -123.1,-900.3C-123.1,-910.9 -117.9,-919.4 -111.4,-919.4L-93.3,-919.4C-86.9,-919.4 -81.6,-910.9 -81.6,-900.3ZM-602,-900.3C-602,-889.8 -607.2,-881.2 -613.7,-881.2L-631.8,-881.2C-638.2,-881.2 -643.5,-889.7 -643.5,-900.3C-643.5,-910.9 -638.3,-919.4 -631.8,-919.4L-613.7,-919.4C-607.3,-919.4 -602,-910.9 -602,-900.3Z" style="fill:rgb(32,19,46);fill-rule:nonzero;"/>
            </g>
        </g>
    </g>
</svg>
