<?xml version="1.0" encoding="UTF-8" standalone="no"?>
<!DOCTYPE svg PUBLIC "-//W3C//DTD SVG 1.1//EN" "http://www.w3.org/Graphics/SVG/1.1/DTD/svg11.dtd">
<svg width="100%" height="100%" viewBox="0 0 1734 763" version="1.1" xmlns="http://www.w3.org/2000/svg" xmlns:xlink="http://www.w3.org/1999/xlink" xml:space="preserve" xmlns:serif="http://www.serif.com/" style="fill-rule:evenodd;clip-rule:evenodd;stroke-linejoin:round;stroke-miterlimit:2;">
    <g transform="matrix(1,0,0,1,-1619.2375,-1372.641254)">
        <g transform="matrix(4.166667,0,0,4.166667,0,0)">
            <g transform="matrix(-1,0,0,1,954.709,-0.185)">
                <path d="M566.092,332.246L388.57,332.246L388.57,509.828L566.092,509.828L566.092,332.246ZM532.714,392.053L536.305,403.253L548.055,403.403L538.515,410.196L541.964,421.156L532.714,414.417L523.325,421.014L526.915,410.065L517.55,403.111L529.08,403.253L532.714,392.053ZM495.729,392.053L499.32,403.253L511.066,403.403L501.538,410.196L504.988,421.156L495.729,414.417L486.372,421.014L489.937,410.065L480.561,403.111L492.119,403.253L495.729,392.053ZM458.6,392.053L462.201,403.253L473.924,403.403L464.399,410.196L467.832,421.156L458.6,414.417L449.235,421.014L452.8,410.065L443.419,403.111L454.943,403.253L458.6,392.053ZM477.286,417.592L480.859,428.793L492.62,428.935L483.089,435.739L486.547,446.696L477.286,439.968L467.905,446.555L471.469,435.592L462.112,428.646L473.66,428.793L477.286,417.592ZM514.325,417.592L517.924,428.793L529.65,428.935L520.134,435.739L523.584,446.696L514.325,439.968L504.962,446.555L508.554,435.592L499.17,428.646L510.691,428.793L514.325,417.592ZM440.09,417.592L443.679,428.793L455.414,428.935L445.883,435.739L449.317,446.696L440.09,439.968L430.702,446.555L434.29,435.592L424.914,428.646L436.422,428.793L440.09,417.592ZM421.511,392.053L425.088,403.253L436.823,403.403L427.298,410.196L430.75,421.156L421.511,414.417L412.135,421.014L415.718,410.065L406.336,403.111L417.855,403.253L421.511,392.053Z" style="fill:rgb(220,225,214);"/>
            </g>
        </g>
        <g transform="matrix(4.166667,0,0,4.166667,0,0)">
            <g transform="matrix(1,0,0,1,578.6849,441.9843)">
                <path d="M0,-111.204L0,0C0,1.035 1.12,1.682 2.017,1.164L98.322,-54.438C99.219,-54.955 99.219,-56.249 98.322,-56.766L2.017,-112.368C1.121,-112.886 0,-112.239 0,-111.204" style="fill:rgb(220,225,214);fill-rule:nonzero;"/>
            </g>
        </g>
        <g transform="matrix(4.166667,0,0,4.166667,0,0)">
            <g transform="matrix(1,0,0,1,591.8754,454.25)">
                <path d="M0,1.537C-0.64,1.168 -0.64,0.251 0,-0.118L81.091,-46.936C81.564,-47.208 81.713,-47.311 81.967,-47.316C82.32,-47.323 82.742,-47.099 82.868,-46.774C82.957,-46.545 82.961,-46.479 82.961,-45.915L82.961,47.905C82.961,48.465 82.505,48.736 82.004,48.736C81.844,48.736 81.682,48.696 81.528,48.607L0,1.537ZM87.24,-56.332C87.081,-56.332 86.917,-56.292 86.762,-56.202L-10.475,-0.063C-11.115,0.307 -11.115,1.23 -10.475,1.599L86.762,57.739C86.917,57.828 87.081,57.869 87.24,57.869C87.742,57.869 88.201,57.468 88.201,56.908L88.201,-55.371C88.201,-55.931 87.741,-56.332 87.24,-56.332" style="fill:rgb(220,225,214);fill-rule:nonzero;"/>
            </g>
        </g>
        <g transform="matrix(4.166667,0,0,4.166667,0,0)">
            <g transform="matrix(1,0,0,1,691.4454,408.3378)">
                <path d="M0,-44.025L13.996,-44.025L13.996,-37.634L5.475,-37.634L5.475,-26.036L12.221,-26.036L12.221,-19.35L5.475,-19.35L5.475,0L-1.212,0L-1.212,-42.813C-1.212,-43.627 -0.516,-44.025 0,-44.025" style="fill:rgb(220,225,214);fill-rule:nonzero;"/>
            </g>
        </g>
        <g transform="matrix(4.166667,0,0,4.166667,0,0)">
            <g transform="matrix(-1,0,0,1,1422.305,-69.241)">
                <rect x="707.809" y="433.553" width="6.687" height="44.025" style="fill:rgb(220,225,214);"/>
            </g>
        </g>
        <g transform="matrix(4.166667,0,0,4.166667,0,0)">
            <g transform="matrix(1,0,0,1,724.3188,408.3378)">
                <path d="M0,-44.025L0,-6.805L8.166,-6.805L8.166,0L-6.687,0L-6.687,-44.025L0,-44.025Z" style="fill:rgb(220,225,214);fill-rule:nonzero;"/>
            </g>
        </g>
        <g transform="matrix(4.166667,0,0,4.166667,0,0)">
            <g transform="matrix(1,0,0,1,734.8522,408.3378)">
                <path d="M0,-44.025L8.58,-44.025L11.776,-20.77L15.03,-44.025L23.018,-44.025L23.018,0L16.746,0L16.746,-28.462L12.722,0L10.059,0L5.977,-28.462L5.977,0L0,0L0,-44.025Z" style="fill:rgb(220,225,214);fill-rule:nonzero;"/>
            </g>
        </g>
        <g transform="matrix(4.166667,0,0,4.166667,0,0)">
            <g transform="matrix(1,0,0,1,690.0598,460.1037)">
                <path d="M0,-44.025L8.58,-44.025L11.775,-20.77L15.03,-44.025L23.018,-44.025L23.018,0L16.746,0L16.746,-28.462L12.722,0L10.059,0L5.976,-28.462L5.976,0L0,0L0,-44.025Z" style="fill:rgb(220,225,214);fill-rule:nonzero;"/>
            </g>
        </g>
        <g transform="matrix(4.166667,0,0,4.166667,0,0)">
            <g transform="matrix(1,0,0,1,722.4847,430.9302)">
                <path d="M0,14.321L3.491,14.321L1.716,-1.952L0,14.321ZM4.201,20.889L-0.71,20.889L-1.538,29.173L-7.515,29.173L-2.13,-14.852L5.799,-14.852L11.539,29.173L5.089,29.173L4.201,20.889Z" style="fill:rgb(220,225,214);fill-rule:nonzero;"/>
            </g>
        </g>
        <g transform="matrix(4.166667,0,0,4.166667,0,0)">
            <g transform="matrix(1,0,0,1,742.4267,422.4696)">
                <path d="M0,31.243L1.598,31.243C3.669,31.243 4.201,30.178 4.201,27.811L4.201,3.018C4.201,0.473 3.551,-0.414 1.894,-0.414L0,-0.414L0,31.243ZM-6.687,-6.391L3.551,-6.391C9.29,-6.391 11.065,-3.136 11.065,2.07L11.065,28.876C11.065,34.32 9.053,37.634 3.551,37.634L-6.687,37.634L-6.687,-6.391Z" style="fill:rgb(220,225,214);fill-rule:nonzero;"/>
            </g>
        </g>
        <g transform="matrix(4.166667,0,0,4.166667,0,0)">
            <g transform="matrix(1,0,0,1,763.1976,441.9965)">
                <path d="M0,-7.811L1.775,-7.811C3.61,-7.811 4.201,-8.994 4.201,-10.947L4.201,-17.101C4.201,-18.995 3.846,-19.941 1.775,-19.941L0,-19.941L0,-7.811ZM0,18.107L-6.687,18.107L-6.687,-25.918L4.142,-25.918C8.64,-25.918 10.829,-24.083 10.829,-19.113L10.829,-11.302C10.829,-7.634 9.113,-6.154 7.929,-5.681C9.409,-5.03 10.829,-3.906 10.829,-0.888L10.829,14.557C10.829,16.391 11.184,17.16 11.48,17.811L11.48,18.107L4.852,18.107C4.557,17.633 4.201,16.864 4.201,14.497L4.201,1.243C4.201,-0.711 3.846,-1.538 1.716,-1.538L0,-1.538L0,18.107Z" style="fill:rgb(220,225,214);fill-rule:nonzero;"/>
            </g>
        </g>
        <g transform="matrix(4.166667,0,0,4.166667,0,0)">
            <g transform="matrix(-1,0,0,1,1560.657,34.291)">
                <rect x="776.985" y="381.787" width="6.687" height="44.025" style="fill:rgb(220,225,214);"/>
            </g>
        </g>
        <g transform="matrix(4.166667,0,0,4.166667,0,0)">
            <g transform="matrix(1,0,0,1,793.4952,422.4696)">
                <path d="M0,31.243L1.598,31.243C3.669,31.243 4.201,30.178 4.201,27.811L4.201,3.018C4.201,0.473 3.551,-0.414 1.894,-0.414L0,-0.414L0,31.243ZM-6.687,-6.391L3.551,-6.391C9.29,-6.391 11.065,-3.136 11.065,2.07L11.065,28.876C11.065,34.32 9.053,37.634 3.551,37.634L-6.687,37.634L-6.687,-6.391Z" style="fill:rgb(220,225,214);fill-rule:nonzero;"/>
            </g>
        </g>
        <g transform="matrix(4.166667,0,0,4.166667,0,0)">
            <g transform="matrix(1,0,0,1,696.9203,493.758)">
                <path d="M0,-7.811L1.775,-7.811C3.61,-7.811 4.201,-8.994 4.201,-10.947L4.201,-17.101C4.201,-18.995 3.846,-19.941 1.775,-19.941L0,-19.941L0,-7.811ZM0,18.107L-6.687,18.107L-6.687,-25.918L4.142,-25.918C8.64,-25.918 10.829,-24.083 10.829,-19.113L10.829,-11.302C10.829,-7.634 9.113,-6.154 7.929,-5.681C9.409,-5.03 10.829,-3.906 10.829,-0.888L10.829,14.557C10.829,16.391 11.184,17.16 11.48,17.811L11.48,18.107L4.852,18.107C4.557,17.633 4.201,16.864 4.201,14.497L4.201,1.243C4.201,-0.711 3.846,-1.538 1.716,-1.538L0,-1.538L0,18.107Z" style="fill:rgb(220,225,214);fill-rule:nonzero;"/>
            </g>
        </g>
        <g transform="matrix(4.166667,0,0,4.166667,0,0)">
            <g transform="matrix(1,0,0,1,725.9161,511.8652)">
                <path d="M0,-44.025L0,-37.634L-8.521,-37.634L-8.521,-26.096L-1.834,-26.096L-1.834,-19.409L-8.521,-19.409L-8.521,-6.687L0.355,-6.687L0.355,0L-15.208,0L-15.208,-44.025L0,-44.025Z" style="fill:rgb(220,225,214);fill-rule:nonzero;"/>
            </g>
        </g>
        <g transform="matrix(4.166667,0,0,4.166667,0,0)">
            <g transform="matrix(1,0,0,1,734.5563,467.4255)">
                <path d="M0,45.031C-3.964,45.031 -6.391,41.54 -6.391,36.983L-6.391,9.468C-6.391,4.557 -4.556,0 1.835,0L3.136,0C10.296,0 11.124,4.675 11.124,9.882L11.124,14.38L4.616,14.38L4.616,9.409C4.616,7.457 4.142,6.391 2.485,6.391C1.124,6.391 0.414,7.397 0.414,9.409L0.414,35.149C0.414,37.22 1.124,38.285 2.604,38.285C4.32,38.285 5.089,37.102 5.089,35.445L5.089,24.439L2.071,24.439L2.071,17.693L11.42,17.693L11.42,44.439L7.633,44.439C7.574,44.202 7.041,42.013 6.509,40.12C6.036,41.599 3.787,45.031 0.414,45.031L0,45.031Z" style="fill:rgb(220,225,214);fill-rule:nonzero;"/>
            </g>
        </g>
        <g transform="matrix(4.166667,0,0,4.166667,0,0)">
            <g transform="matrix(-1,0,0,1,1504.557,137.815)">
                <rect x="748.935" y="330.025" width="6.687" height="44.025" style="fill:rgb(220,225,214);"/>
            </g>
        </g>
        <g transform="matrix(4.166667,0,0,4.166667,0,0)">
            <g transform="matrix(1,0,0,1,770.0613,502.6335)">
                <path d="M0,-25.444C0,-27.693 -0.769,-28.817 -2.308,-28.817C-4.024,-28.817 -4.675,-27.751 -4.675,-25.444L-4.675,-0.118C-4.675,1.775 -4.142,3.255 -2.248,3.255C-0.414,3.255 0,1.775 0,-0.118L0,-25.444ZM6.805,-0.592C6.805,5.562 4.734,9.764 -1.716,9.764L-2.841,9.764C-9.231,9.764 -11.48,5.562 -11.48,-0.592L-11.48,-25.089C-11.48,-31.243 -9.231,-35.208 -2.9,-35.208L-1.775,-35.208C4.734,-35.208 6.805,-31.184 6.805,-25.149L6.805,-0.592Z" style="fill:rgb(220,225,214);fill-rule:nonzero;"/>
            </g>
        </g>
        <g transform="matrix(4.166667,0,0,4.166667,0,0)">
            <g transform="matrix(1,0,0,1,785.8617,511.8652)">
                <path d="M0,-44.025L5.74,-20.415L5.74,-44.025L11.834,-44.025L11.834,-1.18C11.834,-0.529 11.263,0 10.623,0L6.391,0L0,-25.326L0,0L-6.036,0L-6.036,-44.025L0,-44.025Z" style="fill:rgb(220,225,214);fill-rule:nonzero;"/>
            </g>
        </g>
    </g>
</svg>
