<?xml version="1.0" encoding="utf-8"?>
<!-- Generator: Adobe Illustrator 22.0.1, SVG Export Plug-In . SVG Version: 6.00 Build 0)  -->
<svg version="1.1" id="Capa_1" xmlns="http://www.w3.org/2000/svg" xmlns:xlink="http://www.w3.org/1999/xlink" x="0px" y="0px"
	 viewBox="0 0 643.2 169" style="enable-background:new 0 0 643.2 169;" xml:space="preserve">
<style type="text/css">
	.st0{fill:#DCE1D6;}
</style>
<g>
	<path class="st0" d="M497.6,4.2c4.8,4,7.2,8.6,5.3,14.7c-1.6,5-6.4,8.3-11.6,8.1c-5.2-0.2-9.8-3.9-11.1-8.8c-1.3-5,1-10.4,5.4-13.1
		c6.6-4,13.3-4.4,19.9-0.4c6.7,4.1,9.5,10.3,8.8,18.1c-0.3,3.6-1.8,6.8-4.1,9.1c-8.1,8.3-9,18.6-8.6,29.4c0.2,4.5,0.3,9.1,1.9,13.4
		c1.2,3.5,3.1,6.5,6.8,8c0.8,0.3,1.6,0.7,1.3,1.7c-0.3,1.3-1.2,0.7-2,0.5c-8-1.6-16.1-2.9-24.3-2.1c-1.6,0.2-3.3,0.2-4.9,0.7
		c-9.9,2.8-20.1,1.6-30.2,1.8c-5.2,0.1-10.3,0-15.5,0c-0.9,0-2.2,0.7-2.5-1c-0.2-1.3,0.9-1.3,1.7-1.7c5.3-2.9,6.9-8,7.6-13.4
		c1.2-10.5,1.3-21,0-31.5c-0.7-5.6-2.4-11-8.4-13.5c-0.8-0.3-1.1-1-0.8-1.7c0.4-1,1.4-0.8,2.1-0.8c7.1,0,14.3,0,21.4,0
		c4.8,0,9.5,0,14.3,0c0.7,0,1.5-0.1,1.8,0.8c0.3,1-0.4,1.4-1.2,1.8c-4.4,1.9-6.5,5.7-7.4,10.1c-1.8,9-1.7,18.1-1.3,27.2
		c0.2,4.5,0.4,9.1,1.9,13.4c0.4,1.2,0.9,2.3,1.6,3.3c4.1,6.5,9.6,6.2,13.2-0.6c0.4-0.8,0.9-1.7,1.1-2.5c2.9-11.7,3-23.5-0.2-35.2
		c-0.9-3.2-3-5.3-6-6.6c-1.1-0.5-2.3-1-1.7-2.4c0.6-1.4,1.8-0.5,2.7-0.3c8.3,1.9,16.7,2.9,25.2,1.1c7.6-1.6,11.5-5.4,11.7-11.2
		c0.2-7.3-4.6-13.9-11.5-15.8C499.2,4.5,498.4,4.3,497.6,4.2z"/>
	<path class="st0" d="M328.3,53.4c5.2-10.4,11.6-19.5,20.4-26.9c3.3-2.8,7-5.1,11.6-5.1c3.7,0,7,2.3,8.1,5.7
		c1.1,3.1-0.3,7.3-2.9,9.5c-1.1,0.9-1.6,0.8-2.4-0.4c-1.9-2.9-4.7-3.4-7.9-2.5c-4.2,1.2-8,3.1-11.1,6.2c0.5,1,1.4,0.7,2,0.7
		c4.7,0.4,8.2,2.7,10.3,6.8c2.7,5.1,3.4,10.8,4.1,16.4c0.4,3,0.7,6,1.4,8.9c1,4.3,2.9,8.2,7.4,10c0.9,0.4,1.4,0.9,1.2,1.8
		c-0.2,1-1.1,0.7-1.8,0.7c-8.8,0-17.6-0.1-26.3,0c-2,0-2-1-2-2.5c0-6.4,0.5-12.8-0.2-19.2c-0.3-2.3-1.2-4.4-2.6-6.2
		c-2.1-2.6-4.3-2.5-6.4,0.1c-2.2,2.8-2.8,6.2-2.8,9.6c-0.1,5.2-0.1,10.3,0,15.5c0,1.9-0.4,2.7-2.5,2.7c-8.4-0.1-16.7,0-25.1-0.1
		c-0.8,0-1.9,0.5-2.2-1c-0.2-1.3,0.8-1.4,1.6-1.8c5.1-2.7,6.9-7.6,7.6-12.8c1.4-10.9,1.4-21.9,0-32.7c-0.7-5.3-2.5-10.3-8-12.8
		c-0.7-0.3-1.3-0.7-1.1-1.6c0.2-1.2,1.2-1,2-1c3.7,0,7.4-0.1,11.2,0c4.6,0,9.3,0.1,13.9,0c2.3-0.1,3,0.7,3,3
		c-0.2,8.7-0.2,17.3-0.3,26C328.3,51.6,328.3,52.5,328.3,53.4z"/>
	<path class="st0" d="M543.1,43c1.3-2.2,2.4-4.5,3.9-6.5c3.6-4.9,8-8.6,14.6-7.4c6.5,1.1,9.6,5.9,11.7,11.6
		c1.5,4.2,1.7,8.7,1.7,13.1c0,6.2-0.2,12.4,1.3,18.5c1.1,4.5,2.9,8.6,7.7,10.5c0.9,0.4,1.1,0.9,1,1.6c-0.1,1.1-1,0.9-1.6,0.9
		c-12.2,0-24.4,0-36.5,0c-0.6,0-1.3,0.1-1.5-0.7c-0.1-0.6-0.2-1.3,0.6-1.6c7.2-3,8.2-9.5,8.9-16.1c0.6-5.3,0.7-10.7-0.8-16
		c-0.6-1.9-1.4-3.7-2.9-5c-2.9-2.6-5.2-2.2-6.6,1.5c-1.4,3.6-1.9,7.4-1.9,11.2c-0.1,8.1-0.1,16.1-0.1,24.2c0,1.5-0.1,2.5-2.1,2.5
		c-8.6-0.1-17.1,0-25.7-0.1c-0.7,0-1.5,0.3-1.8-0.7c-0.2-0.7,0-1.4,0.8-1.8c6-2.5,7.6-7.8,8.4-13.5c1.1-8.6,1.2-17.3-0.4-25.9
		c-0.9-4.9-2.9-9-7.7-11.3c-0.7-0.3-1.3-0.6-1.2-1.5c0.2-1,0.9-1,1.6-1c8.7,0,17.3,0,26,0c1.7,0,2.1,0.8,2,2.3
		c-0.1,3.6,0,7.2,0,10.8C542.7,42.9,542.9,43,543.1,43z"/>
	<path class="st0" d="M256.5,79.2c1.5,2.1,3.3,2.9,5.3,3.4c3.3,0.9,6.6,0.8,9.8,0.1c6.5-1.5,8.5-7,4.1-12.1c-1.7-2-2.5-4-2.7-6.5
		c-0.7-7.3-7.6-13.4-15.7-12.7c-4.6,0.4-6.5-1.8-8.5-5c-6.1-10-2.8-19.9,8.1-24.1c2.2-0.8,4.5-1.6,6.8-1.9c11-1.5,21.4,0,30.5,7
		c1.7,1.3,2.6,2.5,2,4.9c-1.1,4.4-1.7,8.9-2.5,13.4c-0.2,1-0.2,2.2-1.7,2.1c-1.6-0.1-1.2-1.4-1.3-2.4c-0.3-5.1-1.1-10.1-4.1-14.4
		c-3.6-5.1-8.2-8-14.7-7.1c-6.9,1-9.4,7-5.2,12.4c3.5,4.5,8.2,7.5,12.7,10.8c5.1,3.8,10.5,7.3,14,12.9c6.4,10,3.3,20.5-7.9,24.6
		c-11.5,4.2-23,3.4-33.8-2.3C243,77.8,240,67.2,244.9,60c3.7-5.4,11.5-7.4,18-4.6c6,2.6,8.6,8,7,14.8c-1.1,4.7-5.4,8.3-10.4,8.8
		C258.6,79.1,257.7,79.1,256.5,79.2z"/>
	<path class="st0" d="M408.9,81.7c-3.6,2.8-7,5-11.7,4.5c-5.4-0.6-9-4-10.7-10.5c-2.4-8.9-3.4-18-4.9-27.1c-0.5-3.4-1.2-6.7-2.7-9.8
		c-1.5-3.1-4-5.2-7.3-6.3c-0.8-0.3-1.9-0.5-1.7-1.8c0.2-1.2,1.3-0.9,2-0.9c7.9-0.1,15.7,0,23.6-0.2c2.5,0,2.5,1.6,2.7,3.2
		c1.5,9.2,3,18.3,4.5,27.5c0.5,2.9,1.1,5.9,3,8.4c2.7,3.4,5.4,3.2,7.3-0.8c2.4-5.1,3.1-10.7,4.6-16c1.1-4,1.7-7.9,0.3-11.8
		c-1.1-3.1-2.8-5.7-5.7-7.4c-0.8-0.5-1.7-0.9-1.4-2.1c0.3-1.2,1.3-0.8,2.1-0.8c6.1,0,12.2,0,18.3,0c0.8,0,1.8-0.2,1.9,1
		c0.1,1-0.6,1.1-1.3,1.4c-5.5,1.8-8.2,6.1-9.6,11.3c-3.8,14.1-7.5,28.3-12.1,42.2c-2.2,6.7-3.6,13.8-6.8,20.2
		c-4.2,8.6-11.1,12.8-19.2,11.7c-7.1-0.9-12.4-6.5-13.4-14.2c-0.9-6.8,2.5-13.1,8.2-15.4c6.3-2.5,13.4,0.3,15.5,6.1
		c2.2,6.2-1,12.6-7.4,14.5c-1.1,0.3-2.2,0.4-3.4,0.3c-2.3-0.2-1.8,0.9-1.1,2.2c1.8,2.9,6,4.2,9.6,3c3.6-1.1,6-3.7,7.8-6.7
		C404.9,99.5,406.2,90.4,408.9,81.7z"/>
	<path class="st0" d="M85.6,126.4c6.1-3.8,11.4-7.1,14.2-13.1c1.4-3,0.7-4.3-2.5-4.6c-9.4-0.9-18.6,0.5-27.1,4.8
		c-4.4,2.2-5.2,4.3-4.4,9.3c-2.9-1.9-5.7-3.6-5.9-7.2c-0.2-3.3,2.1-5.3,4.7-6.7c9.2-4.8,19.1-6.5,29.4-4.8c3.8,0.6,6.9,2.6,9.5,5.4
		c2.8,3,3.2,5.9,1.2,9.6c-2.3,4.2-6,7-10.3,10.2c1.9,0.3,3.4,0.6,4.8,0.8c4.6,0.7,8.6,2.7,11.9,6c3.7,3.7,3.9,7.3,0.3,11.1
		c-4.4,4.8-10.2,7.4-15.9,10c-9.4,4.3-18.9,8.2-29.2,9.9c-4.9,0.8-9.4,0.1-13.1-3.6c-2.8-2.8-3.4-4.9-1.9-8.6
		c2-4.8,5.4-8.8,8.8-12.6c2-2.2,3.1,0.2,4.2,1.1c1.1,0.9,2.7,1.8,1,3.7c-3.2,3.6-6.4,7.3-8.3,11.9c-1.5,3.4-1.2,3.8,2.4,3.4
		c11.4-1.5,21.9-5.8,32.2-10.6c4.2-2,8.4-3.9,12-7c0.7-0.6,1.4-1.2,2.1-1.9c1.5-1.6,3.2-3.5,2.5-5.7c-0.7-2.2-3.2-1.8-5-2.1
		c-6.3-1.2-12.5-0.4-18.8,0.4c-1.4,0.2-2.1,0.7-2.5,2.2c-1.4,5.4-3,10.7-3.2,16.4c0,0.6,0.2,1.4-0.5,1.7c-0.8,0.4-1.3-0.3-1.9-0.7
		c-2.2-1.6-3.5-3.4-3.2-6.5c0.8-8.3,3.3-16.1,5.9-24c1.3-4,3-7.9,4.4-11.9c0.8-2.3,1.9-2.2,3.6-0.9c2.3,1.7,3.1,3.5,1.7,6.3
		C87.7,120.3,86.9,123,85.6,126.4z"/>
	<path class="st0" d="M506.8,149.8c1.5-1.8,2.9-3.7,4.4-5.4c0.7-0.8,1.1-2.2,2.7-1.1c1.5,1.1,1.2,2.2,0.2,3.4
		c-1.5,1.8-2.9,3.7-4.6,5.5c-4.4,4.6-7.1,4.2-10.1-1.8c-1,0.9-2,1.8-3,2.6c-1.7,1.4-3.4,3.4-6,2.1c-2.8-1.4-4.4-3.6-4.1-6.9
		c0.2-3.1,0.8-6.1,1.6-9.1c1.8-7.2,4.3-14.2,6.7-21.2c0.3-0.7,1-1.6,0.4-2.3c-0.6-0.7-1.6-0.1-2.3,0.1c-2.2,0.6-4.8,0.7-6.3,2.9
		c-0.5,0.8-1.1,0.4-1.5,0c-1.7-1.5-4.1-2.8-3.8-5.3c0.3-2.2,2.9-2.3,4.7-2.9c3.1-0.9,6.2-1.5,9.5-1.4c2,0.1,3-0.6,3.6-2.5
		c0.9-2.6,2-5.2,3-7.8c0.5-1.4,1.1-1.5,2.3-0.8c3.5,2.1,4,3.5,2.3,7.6c-0.9,2.1-1,3.1,1.9,3c3.1-0.1,8,4,9,7.1
		c0.3,0.9-2.2,7.7-3,8.2c-0.7,0.4-1.2,0-1.7-0.3c-3.6-1.9-4.2-3.3-2.5-7.1c0.8-1.8,0.8-2.6-1.5-2.5c-6.3,0.2-5-1-7.1,4.9
		c-3.5,9.8-7.1,19.6-9,29.9c-0.2,0.9-0.6,1.8,0.1,3c3.5-3.4,7.4-6.3,9-11.1c1.6-4.6,3.1-9.2,4.5-13.8c0.7-2.3,1.6-2.8,3.6-1.2
		c2.1,1.7,3.1,3.2,1.9,6.2c-2.3,5.7-4.1,11.6-5.3,17.7C506.3,149.6,506.5,149.7,506.8,149.8z"/>
	<path class="st0" d="M516.4,123.9c6.7,1.6,8,5.1,7.2,17.2c1.2-0.7,1.7-1.8,2.3-2.8c2.7-4.2,5.8-8,9.2-11.6c1-1,1.7-1.3,2.8-0.4
		c1.2,1,0.9,1.8,0,2.8c-7.3,7.9-13.4,16.7-17.3,26.8c-0.3,0.7-0.5,1.3-1.5,1.1c-2.3-0.5-4.4-4-3.9-6.4c1.2-5.5,2.6-11,3.1-16.7
		C518.6,130.7,519.8,127.1,516.4,123.9z"/>
	<path class="st0" d="M258.8,134.7c-5.3,7.3-10.6,14.5-12.5,23.5c-0.5,2.2-1.1,2.6-2.9,1.1c-1.9-1.6-3.7-3-2.7-5.8
		c-1-0.2-1.4,0.4-1.8,0.8c-1.4,1.1-2.9,1.6-4.5,0.5c-1.8-1.3-2.8-3-2.5-5.3c0.5-4.2,2-8.2,3-12.3c-0.4-0.1-0.7-0.1-1-0.2
		c-4.3-1.3-6,1.6-7.9,4.6c-2.5,3.9-5.3,7.6-8.4,11.1c-5.6,6.2-11.7,5.2-15.4-2.3c-0.2-0.4-0.4-0.7-0.6-1.2c-1.7,1.6-3.3,3.2-5,4.7
		c-1.5,1.3-3.1,2.7-5.3,1.6c-2.2-1.2-4.1-2.8-4.3-5.6c0-0.6-0.1-1.2-0.2-2.3c-1.7,2.2-3.1,4.1-4.6,5.9c-3.7,4.5-6.5,4.3-9.5-0.7
		c-0.3-0.5-0.6-1-1.3-2.4c-1.3,1.6-2.2,3-3.4,4.2c-3.1,3-5.4,2.6-7.6-1c-0.4-0.7-0.7-1.5-1.1-2.5c-1.1,1.1-2.2,2.1-3.3,3.1
		c-1.8,1.6-3.7,1.6-5.7,0.6c-2-1-2.7-2.7-2.4-4.9c0.5-4.3,1.8-8.5,3-12.6c0.3-1,1.2-2,0.4-3.6c-5.8,7.7-12,15-14.5,24.4
		c-0.8,3.1-1.7,2.4-3.5,1.1c-2.9-1.9-2.7-4.6-1.9-7.5c-1.5,0.1-2.1,1.1-3,1.7c-2.7,1.9-5.4,3-8.6,1.2c-3.4-1.8-5.3-4.7-5-8.6
		c0.5-6.3,3-11.8,7.3-16.3c3.2-3.3,6.9-3.8,10-1.8c2.5,1.6,3.1,3.7,1.8,6.4c-2.5,5.1-6.4,8.9-11.2,11.6c-2.8,1.5-2.5,3.7-2.3,6.1
		c0.1,1.6,1.3,1.1,2.1,0.7c5.3-2.7,9.7-6.3,11.9-12c1.7-4.4,3.2-8.9,4.6-13.5c0.7-2.3,1.5-2.1,3.2-0.9c2.5,1.9,3.5,3.8,2,6.8
		c-1,2-1.5,4.2-2,6.4c3.1-3.5,5.4-7.6,8.7-10.9c0.8-0.8,1.6-1.7,2.6-2.2c1.8-0.9,3.5-0.6,5.2,0.7c1.6,1.3,1.8,2.6,1.2,4.6
		c-1.9,6-4.1,11.9-5,18.2c2.8-2.8,5.7-5.5,6.9-9.4c1.5-4.5,3-9,4.4-13.5c0.6-1.9,1.4-2.2,3.1-1c2.5,1.8,3.5,3.6,2.2,6.8
		c-2.4,5.9-4.1,12-5.3,18.4c2.9-3,6.3-5.4,7.2-10c0.8-4.3,2.5-8.3,5.2-11.8c2.8-3.7,4.9-4,8.6-1.1c1.2,0.9,2.4,1.9,3.8,3.1
		c3.3-9.9,6.6-19.5,10.2-28.9c0.1-0.3,0.1-0.7,0.3-0.9c1.1-1,0.1-4.1,2.9-3.2c3,0.9,4.3,3.6,3.3,6.1c-4.9,13-10,26-13.5,39.5
		c-0.6,2.5-1.1,5-1.3,7.7c3.9-3,7.8-5.9,9.4-10.6c1.8-5,4.8-8.7,9-11.7c3.1-2.2,7-1.3,9.8,2.2c1.5,1.9,2.1,4.2,2.5,6.9
		c2-2.2,3.3-3.8,2-7.1c-2.2-5.5,1.7-15.9,6.4-19.7c1.8-1.4,3.6-1.5,5.4-0.2c2.1,1.5,3.2,3.5,2.4,6.1c-1.5,4.9-4.5,9-7.1,13.4
		c-0.6,0.9-1.5,1.7-1.5,3.2c3.1-0.2,4.5-2.4,6.1-4.6c0.7-0.9,0.3-3.1,2.5-2.4c2.3,0.7,4.1,3.6,3.4,5.4c-1.9,5.1-3.7,10.3-5.1,15.6
		c-0.1,0.5-0.2,1-0.1,1.6c2.3-2,4.4-4,5.4-7.1c1.7-5.3,3.6-10.5,5.3-15.8c0.7-2.1,1.6-1.9,3.1-0.8c2.7,1.9,3.8,4.2,2.4,7.4
		c1.4-1.9,2.8-3.7,4.3-5.5c1.5-1.9,3.5-2.7,5.8-1.6c2.4,1.2,2.5,3.2,1.9,5.5c-0.7,2.9-1.3,5.8-1.7,8.8c3-4,5.3-8.3,8.4-12.1
		c2.6-3.1,5.2-3.6,7.7-1.5c1.4,1.2,1.9,2.3,1.3,4.3c-2,6-4.1,12.1-5.5,18.8c2.6-1.7,3.8-4.1,5.5-6c0.7-0.8,1.2-2.1,2.6-0.9
		c1.3,1,1.2,2,0.2,3.2c-2.2,2.7-4.3,5.5-7,7.8c-2,1.6-3.8,1.1-5.7,0.2c-1.9-0.9-2.3-2.5-2.1-4.4c0.4-5.2,2.4-10,3.2-15.2
		c-1.2,1.8-2.4,3.5-3.5,5.3c-3.1,5-6.2,10-8,15.7c-0.5,1.4-1,1.7-2.2,0.9c-2.4-1.6-4.3-3.2-3.4-6.8
		C257.3,144.9,257.9,139.7,258.8,134.7z M172.5,113.6c-1.8-0.6-1.5,1.7-2.2,2.7c-0.5,0.7-0.7,1.5-1,2.3c-0.9,2.2,1.7,6.2,4.1,6.3
		c0.5,0,0.8-0.1,1-0.5c0.9-2.1,1.8-4.1,2.7-6.2C176.5,115.7,174.6,114.3,172.5,113.6z M219.8,133.2c-1-0.7-2.3-0.1-3.2,0.6
		c-3.2,2.5-5.6,5.5-5.6,9.8c0,1.7-0.2,3.9,1.9,4.5c2.3,0.6,4.3-0.5,5.5-2.6c1.5-2.7,2.3-5.7,2.4-9
		C220.6,135.4,220.9,133.9,219.8,133.2z M189,136.2c0.8-1.5,0.1-3.6-1.1-4.5c-1.3-1-2.4,0.7-3.1,1.6c-4.5,5.5-6.3,12-6.9,19
		C182.7,147.6,185.9,141.9,189,136.2z M208.7,147.5c-0.9-0.9-1.6-0.9-1.7,0.6c-0.2,2-1.1,4.5,0.8,5.7c1.7,1.1,3.7-0.5,5.3-1.6
		c0.5-0.3,0.9-0.8,1.6-1.5C212.2,149.9,210.2,149.1,208.7,147.5z M122.3,141.8c4.2-2.5,7.3-6.1,8.5-10
		C126.5,134.1,124.3,137.5,122.3,141.8z M236.4,117.4c-2.6,2.3-4.3,5.1-4.6,8.6C234,123.5,235.4,120.6,236.4,117.4z"/>
	<path class="st0" d="M636.8,61.7c-2,1.4-3.6,2.8-5.8,3.3c-6.2,1.5-11.5-0.9-13.4-6.3c-2-5.6,0.6-11.6,6.2-14.2
		c6.1-2.9,11.3-1.2,14.8,4.6c4.8,8.2,3.3,19.5-3.8,27.6c-10.6,12-31.9,13.4-43.1,2.7c-16.5-15.8-10.6-40.9,11.5-48.6
		c6.2-2.1,12.4-2.8,18.8-0.8c3.2,1,6,2.8,8,5.6c2.4,3.2,2,4.4-1.9,5c-9,1.3-13.9,7-16.7,15c-2.1,6-0.7,11.8,3.4,15.3
		c4.3,3.7,12.7,4.6,17.6,1.8C635.9,70.7,637.8,66.2,636.8,61.7z M606.9,55c0.6-3.8,2.6-7.2,3.8-10.8c1.2-3.4,1.5-6.7-1-9.6
		c-2-2.3-4.3-2.1-5.2,0.7c-2.8,8.8-2.6,17.6,1.6,26C606.4,59.2,606.6,57.1,606.9,55z"/>
	<path class="st0" d="M477.2,108.2c-9.6,0.2-18.4,0.1-27.3,0.6c-2.1,0.1-3.2,0.8-3.8,2.8c-1.1,3.4-2.4,6.8-3.8,10.2
		c-0.8,2-0.1,2.4,1.7,2c3.1-0.6,6.2-1.2,9.2-0.3c3.6,1.1,7.1,2.6,10.4,4.4c2.3,1.2,3,3.5,1.7,6.1c-2.4,5-6.2,8.7-10.9,11.6
		c-0.8,0.5-1.8,0.9-2.2,1.6c-0.9,1.7-1.4,3.9-0.2,5.3c1,1.1,2.7-0.3,3.9-1c4.1-2.7,7.5-6.2,10.1-10.3c3.9-6,7.3-12.2,10.8-18.4
		c1.3-2.3,2.9-3.5,5.6-2.1c2.6,1.4,2.9,2.8,1.2,5.1c-3.6,5-2.1,10.5-1.5,15.9c0.4,4.5,1.4,9,0.2,13.5c-1.4,5.1-3.9,9.4-9.1,11.3
		c-4.3,1.6-9.4-0.8-11.6-5.3c-1.8-3.7-0.2-9.2,3.3-11.6c1.4-1,2.3-0.3,3.2,0.6c1.2,1.3-0.4,1.5-0.9,2c-2.1,2-3.5,4.2-3.6,7.3
		c-0.1,2.4,1,2.9,3,2.3c3.8-1,6.5-3.4,8.4-6.8c2.8-5.2,2.8-10.7,1.8-16.3c-0.3-1.9-0.6-3.9-0.9-6c-1.3,0.2-1.5,1.5-2.1,2.3
		c-3.7,6.2-7.3,12.5-13.1,17.1c-4.1,3.2-6.9,3.8-10.1,1.9c-3.8-2.2-5.1-5.4-4.4-10.3c0.9-6,3.7-11,8.2-15.7
		c-5.3-0.3-9.8,0.9-14.4,1.7c-1.1,0.2-1.1,1.1-1.3,1.9c-3.2,10.7-6.1,21.5-6.2,32.7c0,0.6,0.3,1.3-0.3,1.7c-0.8,0.4-1.4-0.2-1.9-0.6
		c-2-1.6-3.4-3.2-3.3-6.2c0.3-8.4,2.1-16.6,4.2-24.7c0.5-2,0.6-2.8-1.9-2.3c-2.7,0.5-3.2-2.1-4.2-3.7c-0.5-0.9,0.5-1.2,1.3-1.2
		c6.8,0,9.1-4.4,10.4-10.1c0.5-2.2,1.5-4.3,2.4-6.8c-6.5,0.8-12.5,1.8-17.7,5.5c-3.2,2.3-2.9,5.4-1.5,9c-2.7-1.7-4.5-3.5-5.5-5.9
		c-1.5-3.6-0.8-6.4,2.4-8.7c4.2-3.1,9.2-4.2,14.1-5.1c13.3-2.4,26.7-2,40.2-2C474,103.3,475.3,105.7,477.2,108.2z M454.4,141.4
		c3.5-2.3,6.3-5.2,7.9-9.2C458.1,134,456,137.5,454.4,141.4z"/>
	<path class="st0" d="M324.6,110.5c-6.4,0.9-12.2,1.8-17.2,5.2c-3.1,2.1-3.5,3.8-2.3,9.2c-2.4-1.4-4.1-3.2-5.2-5.6
		c-1.7-3.8-0.8-6.8,2.7-9.1c5.7-3.8,12.3-4.7,18.8-5.6c10.6-1.4,21.2-1.4,31.9-1.2c2.7,0,3.9-0.8,4.7-3.2c0.4-1.1,0-3.4,2.4-2.7
		c2.4,0.7,4.3,3.7,3.7,5.6c-2.2,6.1-4.6,12.2-6.8,18.3c-3.2,8.9-6.3,17.9-8.1,27.2c-0.2,0.9-0.6,1.7,0.1,3c3.6-3.7,7.6-6.6,9.2-11.8
		c1.3-4.3,3-8.6,4.4-12.9c0.6-2,1.5-2.1,3-0.9c2.6,1.9,3.9,4.2,2.5,7.5c1.5-1.9,3-3.9,4.5-5.8c1.6-1.9,3.6-2.5,5.8-1.3
		c2.3,1.2,2.3,3.2,1.7,5.3c-0.7,2.9-1.3,5.8-1.4,8.9c1.7-2.7,3.4-5.5,5.2-8.1c1.3-1.9,2.7-3.7,4.2-5.3c1.7-1.8,3.8-2,5.9-0.6
		c2,1.3,2.6,2.8,1.7,5.2c-2.1,5.8-3.9,11.7-5.3,18.2c2.7-1.7,3.9-4.2,5.7-6.2c0.7-0.8,1.2-1.8,2.4-0.7c1,0.9,1.4,1.7,0.5,2.9
		c-2.2,2.8-4.3,5.5-6.9,7.9c-1.9,1.7-3.9,1.5-6,0.4c-2-1-2.3-2.7-2.1-4.7c0.4-4,1.7-7.8,2.8-11.7c0.3-1.1,0.6-2.1,0.7-3.3
		c-4.5,6.5-9,13.1-11.6,20.7c-0.7,1.9-1.3,1.9-2.8,0.9c-2.2-1.6-3.7-3.2-2.9-6.4c1.2-5,1.8-10.1,2.7-15.2c-1-0.2-1.1,0.7-1.4,1.2
		c-4.7,7.2-9.5,14.3-11.2,22.9c-0.3,1.5-0.8,1.9-2.2,1c-2.7-1.8-4.5-4-2.8-7.6c-1.3-0.1-1.7,0.7-2.3,1.1c-3.7,3-5.6,3-8.5-0.7
		c-1.2-1.5-1.8-1.6-2.9-0.2c-0.6,0.8-1.4,1.5-2.2,2.2c-1.4,1.2-2.6,2.9-4.8,1.7c-2.2-1.2-3.8-2.9-3.6-5.6c0.3-4.5,1.6-8.7,2.9-13
		c0.7-2.5,1.5-4.9,2.4-7.4c0.5-1.4,0.3-2-1.3-1.6c-0.1,0-0.2,0-0.3,0c-9.3,0.6-9.4,0.6-11.9,9.6c-2.4,8.7-4.5,17.4-4.4,26.5
		c0,2.2-0.9,2-2.2,1.1c-2.1-1.5-3.5-3.2-3.4-6.1c0.2-8.4,2-16.6,4.1-24.7c0.5-2.1,0.7-3.2-2-2.5c-1.4,0.3-4.1-2.4-4.2-3.9
		c0-0.5,0.1-0.8,0.6-0.9c0.4-0.1,0.8-0.3,1.2-0.3c5.9-0.1,8.6-3.5,9.7-9C322.3,115.9,323.5,113.6,324.6,110.5z M353.9,110.5
		c0.8-2.1-0.1-2.3-1.8-2.2c-5.9,0.2-11.8,0.4-17.6,0.6c-0.9,0-1.9,0-2.4,1.1c-1.8,4.5-3.5,9.1-5.4,14.1c7.9-1.2,15.3-2.6,20.3,5.6
		C349.5,122.9,351.6,116.7,353.9,110.5z M346.7,131.3c0.4-1.2-1-2-2.1-2.3c-1.5-0.5-1.3,0.8-1.6,1.6c-0.7,2-1.5,4-2.1,6.1
		c-1.4,4.7-3.1,9.3-3.9,14.3C344.7,146.5,344.4,138.3,346.7,131.3z M343.7,113.5c-2-0.2-1.5,1.8-2.2,2.7c-0.4,0.6-0.6,1.3-0.9,2
		c-1,2.5,1.2,6.4,3.9,6.7c0.5,0.1,0.8,0,1-0.4c1-2.2,1.9-4.3,2.7-6.2C348.1,116.8,345,113.7,343.7,113.5z"/>
	<path class="st0" d="M557.4,149.9c2.6-2.6,5.3-5,6.2-8.9c3.5-14.4,8.9-28.1,14-41.9c0.8-2.3,1.7-2,3.3-0.8c2.4,1.7,3.2,3.4,2,6.5
		c-5.5,14.3-11.3,28.6-14.3,43.7c-0.2,0.9-0.3,1.8-0.5,3.4c3.3-2.3,5.4-5,7.6-7.6c0.9-1,1.6-2.2,3.2-0.8c1.5,1.3,0.4,2.1-0.3,3.1
		c-2,2.5-4.1,4.9-6.5,7c-3.3,2.8-5.7,2.4-8.4-1c-0.4-0.6-0.5-1.4-1.2-1.7c-2.8,1.4-3.9,6.4-8.3,4.2c-3.7-1.8-3.7-5.3-2.6-9.8
		c-2.6,2.9-4.5,5.2-6.6,7.4c-1.6,1.7-3.4,3.8-6.1,2.8c-2.9-1.1-4.9-3.3-5.6-6.5c-0.5-2.2-0.2-4.4,0.4-6.4c1.5-5.2,3.8-10,7.6-14
		c4.4-4.4,7.3-4.6,12-0.6c0.8,0.7,1.5,1.4,2.3,2.1c1.2-1,1.3-2.5,1.7-3.7c0.6-1.7,1.2-2.1,2.8-1c3.3,2.2,3.6,3.2,2.3,6.9
		C560.3,137.9,558.3,143.7,557.4,149.9z M543.1,149.3c3.9-4.3,7.1-9.1,10.4-13.8c1.1-1.6,1.6-2.9-0.1-4.5c-1.7-1.7-3.2-0.7-4.4,0.2
		c-6.6,5.4-9.9,12.6-10.7,21.4C540.9,151.9,541.9,150.5,543.1,149.3z"/>
	<path class="st0" d="M205.9,82.7c-5.3-2.1-7.1-6.8-7.9-11.9c-0.9-5.7-1.2-11.4-1.2-17.2c0-5.7,0.3-11.5,1.2-17.2
		c0.8-5.1,2.6-9.8,7.9-11.9c0.8-0.3,1.1-0.9,1-1.6c-0.1-0.8-0.6-0.9-1.2-0.9c-0.2,0-0.4,0-0.5,0c-1.7,0-9.2,0-19.1,0
		c-9.9,0-17.4,0-19.1,0c0,0,0,0,0,0c-0.1,0-0.2,0-0.2,0c0,0-0.1,0-0.1,0c0,0-0.1,0-0.1,0c-0.1,0-0.2,0-0.2,0c0,0,0,0,0,0
		c-1.7,0-9.2,0-19.1,0c-9.9,0-17.4,0-19.1,0c0,0,0,0,0,0c-0.1,0-0.2,0-0.2,0c0,0-0.1,0-0.1,0c0,0-0.1,0-0.1,0c-0.1,0-0.2,0-0.2,0
		c0,0,0,0,0,0c-1.7,0-9.2,0-19.1,0c-9.9,0-17.4,0-19.1,0c-0.2,0-0.3,0-0.5,0c-0.1,0-0.2,0-0.3,0c-3,0-6,0.3-9.1,0.5
		c-3.9,0.2-7.9,0.3-11.8,0.3c-3.3-0.1-6.6-0.3-9.9-0.7c-0.7-0.1-1.8-0.5-2,0.8c-0.1,1.2,1,1.1,1.7,1.4c8.1,3.3,11.6,11.4,8.4,19.6
		c-1.7,4.3-3.5,8.6-5.3,12.9c-0.5,1.1-0.6,2.6-2.1,3.5c-4.7-9.9-9.4-19.7-13.9-29.5c-1-2.3-1.9-4.7,0.9-6.6c0.6-0.4,0.6-1.2,0.2-1.7
		c-0.4-0.6-1.1-0.4-1.7-0.3c-8.3,1.7-16.6,0.9-24.9-0.3c-6.8-0.9-12.3,1.8-16.3,7.5c-2.9,4.3-3.3,9-0.8,13.5
		c2.5,4.6,6.9,5.9,11.9,5.5c5.2-0.4,9.1-4.4,9.6-9.7c0.5-5.1-2.9-9.8-8-11c-1.2-0.3-2.4-0.4-3.6-0.7c0.3-1.9,1.6-2.6,3-2.9
		c2.9-0.6,4.8,0.5,6.2,3.3c8.8,18.5,17.7,37,26.6,55.5c0.6,1.3,1,2.7,3,2.6c1.9-0.1,2-1.5,2.5-2.7c5.2-13.1,10.3-26.3,15.7-39.4
		c2.2-5.4,5.1-10.6,9.5-14.4c1.5-1.3,3.1-2.4,4.9-3.4c0.9-0.5,1.6-1,2.7-1c0.9,0,1.8,0,2.7,0.1c5.3,2.1,7,6.8,7.8,11.9
		c0.9,5.7,1.2,11.4,1.2,17.2c0,5.7-0.3,11.5-1.2,17.2c-0.8,5.1-2.6,9.8-7.9,11.9c-0.8,0.3-1.1,0.9-1,1.6c0.1,0.8,0.6,0.9,1.2,0.9
		c0.2,0,0.4,0,0.5,0c1.7,0,9.2,0,19.1,0c9.9,0,17.4,0,19.1,0c0,0,0,0,0,0c0.1,0,0.2,0,0.2,0c0,0,0.1,0,0.1,0c0,0,0.1,0,0.1,0
		c0.1,0,0.2,0,0.2,0c0,0,0,0,0,0c1.7,0,9.2,0,19.1,0c9.9,0,17.4,0,19.1,0c0,0,0,0,0,0c0.1,0,0.2,0,0.2,0c0,0,0.1,0,0.1,0
		c0,0,0.1,0,0.1,0c0.1,0,0.2,0,0.2,0c0,0,0,0,0,0c1.7,0,9.2,0,19.1,0c9.9,0,17.4,0,19.1,0c0.2,0,0.3,0,0.5,0c0.5,0,1-0.1,1.2-0.9
		C207,83.6,206.8,83.1,205.9,82.7z M135.2,70.8c-0.8,5-2.5,9.6-7.5,11.8c-5-2.2-6.8-6.8-7.5-11.8c-0.9-5.7-1.2-11.4-1.2-17.2
		c0-5.7,0.3-11.5,1.2-17.2c0.8-5,2.5-9.6,7.5-11.8c5,2.2,6.8,6.8,7.5,11.8c0.9,5.7,1.2,11.4,1.2,17.2
		C136.4,59.3,136.1,65.1,135.2,70.8z M174.2,70.8c-0.8,5-2.5,9.6-7.5,11.8c-5-2.2-6.8-6.8-7.5-11.8c-0.9-5.7-1.2-11.4-1.2-17.2
		c0-5.7,0.3-11.5,1.2-17.2c0.8-5,2.5-9.6,7.5-11.8c5,2.2,6.8,6.8,7.5,11.8c0.9,5.7,1.2,11.4,1.2,17.2
		C175.4,59.3,175.1,65.1,174.2,70.8z"/>
</g>
</svg>
