<?xml version="1.0" encoding="UTF-8" standalone="no"?>
<!DOCTYPE svg PUBLIC "-//W3C//DTD SVG 1.1//EN" "http://www.w3.org/Graphics/SVG/1.1/DTD/svg11.dtd">
<svg width="100%" height="100%" viewBox="0 0 1840 522" version="1.1" xmlns="http://www.w3.org/2000/svg" xmlns:xlink="http://www.w3.org/1999/xlink" xml:space="preserve" xmlns:serif="http://www.serif.com/" style="fill-rule:evenodd;clip-rule:evenodd;stroke-linejoin:round;stroke-miterlimit:2;">
    <g transform="matrix(1,0,0,1,-607.040092,-353.373333)">
        <g transform="matrix(4.166667,0,0,4.166667,0,0)">
            <g transform="matrix(1,0,0,1,181.4322,84.8096)">
                <path d="M0,98.631C-19.378,98.631 -36.887,90.747 -35.684,62.413L-14.167,62.413C-14.567,78.318 -8.419,81.792 0.401,81.792C4.411,81.792 13.365,81.125 13.365,71.1C13.365,60.943 -3.074,58.137 -8.286,56.666C-25.66,51.721 -34.214,47.578 -34.214,26.729C-34.214,13.364 -21.25,0 -1.203,0C17.107,0 35.55,6.816 35.417,33.545L13.899,33.545C14.567,18.443 5.881,16.973 0,16.973C-6.682,16.973 -11.761,19.647 -11.761,26.195C-11.761,34.08 -1.203,35.55 6.282,37.955C14.033,40.494 35.951,44.371 35.951,68.694C35.951,85.534 23.522,98.631 0,98.631" style="fill:rgb(220,225,214);fill-rule:nonzero;"/>
            </g>
        </g>
        <g transform="matrix(4.166667,0,0,4.166667,0,0)">
            <g transform="matrix(1,0,0,1,263.0904,84.8096)">
                <path d="M0,98.631C-24.992,98.631 -39.693,88.608 -39.693,48.246C-39.693,24.189 -30.873,0 0.802,0C23.388,0 34.882,13.097 34.08,37.555L12.563,37.555C12.83,22.72 6.281,18.309 0,18.309C-13.097,18.309 -14.033,32.61 -14.166,49.182C-14.434,79.654 -5.613,80.322 0,80.322C6.682,80.322 13.231,76.981 12.563,59.072L34.08,59.072C35.283,92.484 17.241,98.631 0,98.631" style="fill:rgb(220,225,214);fill-rule:nonzero;"/>
            </g>
        </g>
        <g transform="matrix(4.166667,0,0,4.166667,0,0)">
            <g transform="matrix(1,0,0,1,337.2637,164.4638)">
                <path d="M0,-60.677L-8.42,-60.677L-8.42,-36.353L-1.203,-36.353C11.226,-36.353 13.365,-36.754 13.365,-48.515C13.365,-58.404 10.291,-60.677 0,-60.677M16.438,17.106L4.811,-19.246L-8.42,-19.246L-8.42,17.106L-32.744,17.106L-32.744,-77.783L1.871,-77.783C32.61,-77.783 38.357,-63.75 38.357,-48.248C38.357,-31.541 31.675,-26.195 26.596,-23.79L41.564,17.106L16.438,17.106Z" style="fill:rgb(220,225,214);fill-rule:nonzero;"/>
            </g>
        </g>
        <g transform="matrix(4.166667,0,0,4.166667,0,0)">
            <g transform="matrix(1,0,0,1,384.8409,86.68)">
                <path d="M0,94.89L0,0L57.736,0L57.736,17.107L24.324,17.107L24.324,38.358L54.262,38.358L52.123,55.464L24.324,55.464L24.324,77.784L57.736,77.784L57.736,94.89L0,94.89Z" style="fill:rgb(220,225,214);fill-rule:nonzero;"/>
            </g>
        </g>
        <g transform="matrix(4.166667,0,0,4.166667,0,0)">
            <g transform="matrix(1,0,0,1,450.5948,86.68)">
                <path d="M0,94.89L0,0L57.736,0L57.736,17.107L24.324,17.107L24.324,38.358L54.262,38.358L52.123,55.464L24.324,55.464L24.324,77.784L57.736,77.784L57.736,94.89L0,94.89Z" style="fill:rgb(220,225,214);fill-rule:nonzero;"/>
            </g>
        </g>
        <g transform="matrix(4.166667,0,0,4.166667,0,0)">
            <g transform="matrix(1,0,0,1,564.3292,86.68)">
                <path d="M0,94.89L-26.596,41.832C-26.328,42.099 -26.596,94.89 -26.596,94.89L-47.979,94.89L-47.979,0L-24.992,0L1.471,50.92L1.471,0L22.854,0L22.854,94.89L0,94.89Z" style="fill:rgb(220,225,214);fill-rule:nonzero;"/>
            </g>
        </g>
        <g transform="matrix(4.166667,0,0,4.166667,0,0)">
            <g transform="matrix(1,0,0,1,0,106.85)">
                <rect x="194.476" y="87.951" width="4.215" height="14.886" style="fill:rgb(220,225,214);"/>
            </g>
        </g>
        <g transform="matrix(4.166667,0,0,4.166667,0,0)">
            <g transform="matrix(1,0,0,1,224.1646,194.8012)">
                <path d="M0,14.886L-4.592,6.563C-4.55,6.605 -4.592,14.886 -4.592,14.886L-8.282,14.886L-8.282,0L-4.319,0L0.251,7.989L0.251,0L3.942,0L3.942,14.886L0,14.886Z" style="fill:rgb(220,225,214);fill-rule:nonzero;"/>
            </g>
        </g>
        <g transform="matrix(4.166667,0,0,4.166667,0,0)">
            <g transform="matrix(1,0,0,1,252.3648,207.0035)">
                <path d="M0,-9.518L0,2.684L-4.214,2.684L-4.214,-9.518L-8.303,-9.518L-8.303,-12.202L4.088,-12.202L4.088,-9.518L0,-9.518Z" style="fill:rgb(220,225,214);fill-rule:nonzero;"/>
            </g>
        </g>
        <g transform="matrix(4.166667,0,0,4.166667,0,0)">
            <g transform="matrix(1,0,0,1,272.8067,194.8012)">
                <path d="M0,14.886L0,0L9.98,0L9.98,2.684L4.215,2.684L4.215,6.018L9.373,6.018L8.995,8.701L4.215,8.701L4.215,12.202L9.98,12.202L9.98,14.886L0,14.886Z" style="fill:rgb(220,225,214);fill-rule:nonzero;"/>
            </g>
        </g>
        <g transform="matrix(4.166667,0,0,4.166667,0,0)">
            <g transform="matrix(1,0,0,1,305.0128,207.0035)">
                <path d="M0,-9.518L-1.468,-9.518L-1.468,-5.703L-0.21,-5.703C1.929,-5.703 2.305,-5.765 2.305,-7.61C2.305,-9.163 1.782,-9.518 0,-9.518M2.83,2.684L0.817,-3.018L-1.468,-3.018L-1.468,2.684L-5.662,2.684L-5.662,-12.202L0.314,-12.202C5.619,-12.202 6.604,-10.001 6.604,-7.568C6.604,-4.947 5.451,-4.109 4.57,-3.732L7.17,2.684L2.83,2.684Z" style="fill:rgb(220,225,214);fill-rule:nonzero;"/>
            </g>
        </g>
        <g transform="matrix(4.166667,0,0,4.166667,0,0)">
            <g transform="matrix(1,0,0,1,337.4473,194.8012)">
                <path d="M0,14.886L-4.592,6.563C-4.55,6.605 -4.592,14.886 -4.592,14.886L-8.282,14.886L-8.282,0L-4.319,0L0.251,7.989L0.251,0L3.941,0L3.941,14.886L0,14.886Z" style="fill:rgb(220,225,214);fill-rule:nonzero;"/>
            </g>
        </g>
        <g transform="matrix(4.166667,0,0,4.166667,0,0)">
            <g transform="matrix(1,0,0,1,364.6412,205.9974)">
                <path d="M0,-7.506L-1.719,-2.012L1.593,-2.012L0,-7.506ZM3.25,3.69L2.37,0.651L-2.538,0.651L-3.501,3.69L-6.898,3.69L-1.887,-11.196L2.705,-11.196L7.695,3.69L3.25,3.69Z" style="fill:rgb(220,225,214);fill-rule:nonzero;"/>
            </g>
        </g>
        <g transform="matrix(4.166667,0,0,4.166667,0,0)">
            <g transform="matrix(1,0,0,1,395.7549,207.0035)">
                <path d="M0,-9.518L0,2.684L-4.214,2.684L-4.214,-9.518L-8.302,-9.518L-8.302,-12.202L4.09,-12.202L4.09,-9.518L0,-9.518Z" style="fill:rgb(220,225,214);fill-rule:nonzero;"/>
            </g>
        </g>
        <g transform="matrix(4.166667,0,0,4.166667,0,0)">
            <g transform="matrix(1,0,0,1,0,106.85)">
                <rect x="416.197" y="87.951" width="4.214" height="14.886" style="fill:rgb(220,225,214);"/>
            </g>
        </g>
        <g transform="matrix(4.166667,0,0,4.166667,0,0)">
            <g transform="matrix(1,0,0,1,444.1876,207.2146)">
                <path d="M0,-9.94C-2.264,-9.94 -2.726,-7.571 -2.726,-4.97C-2.726,-2.37 -2.264,-0.001 0,-0.001C2.265,-0.001 2.726,-2.37 2.726,-4.97C2.726,-7.571 2.265,-9.94 0,-9.94M0,2.767C-5.472,2.767 -7.212,-1.197 -7.212,-4.97C-7.212,-8.745 -5.472,-12.707 0,-12.707C5.473,-12.707 7.213,-8.723 7.213,-4.95C7.213,-1.175 5.473,2.767 0,2.767" style="fill:rgb(220,225,214);fill-rule:nonzero;"/>
            </g>
        </g>
        <g transform="matrix(4.166667,0,0,4.166667,0,0)">
            <g transform="matrix(1,0,0,1,476.2462,194.8012)">
                <path d="M0,14.886L-4.592,6.563C-4.551,6.605 -4.592,14.886 -4.592,14.886L-8.282,14.886L-8.282,0L-4.319,0L0.251,7.989L0.251,0L3.941,0L3.941,14.886L0,14.886Z" style="fill:rgb(220,225,214);fill-rule:nonzero;"/>
            </g>
        </g>
        <g transform="matrix(4.166667,0,0,4.166667,0,0)">
            <g transform="matrix(1,0,0,1,503.4395,205.9974)">
                <path d="M0,-7.506L-1.719,-2.012L1.594,-2.012L0,-7.506ZM3.25,3.69L2.369,0.651L-2.537,0.651L-3.502,3.69L-6.898,3.69L-1.887,-11.196L2.704,-11.196L7.694,3.69L3.25,3.69Z" style="fill:rgb(220,225,214);fill-rule:nonzero;"/>
            </g>
        </g>
        <g transform="matrix(4.166667,0,0,4.166667,0,0)">
            <g transform="matrix(1,0,0,1,527.4883,194.8012)">
                <path d="M0,14.886L0,0L4.214,0L4.214,12.202L9.959,12.202L9.959,14.886L0,14.886Z" style="fill:rgb(220,225,214);fill-rule:nonzero;"/>
            </g>
        </g>
    </g>
</svg>
