<?xml version="1.0" encoding="UTF-8" standalone="no"?>
<!DOCTYPE svg PUBLIC "-//W3C//DTD SVG 1.1//EN" "http://www.w3.org/Graphics/SVG/1.1/DTD/svg11.dtd">
<svg width="100%" height="100%" viewBox="0 0 465 208" version="1.1" xmlns="http://www.w3.org/2000/svg" xmlns:xlink="http://www.w3.org/1999/xlink" xml:space="preserve" xmlns:serif="http://www.serif.com/" style="fill-rule:evenodd;clip-rule:evenodd;stroke-linejoin:round;stroke-miterlimit:2;">
    <g id="Artboard1" transform="matrix(1.07419,0,0,1,0,0)">
        <rect x="0" y="0" width="432" height="208" style="fill:none;"/>
        <g transform="matrix(1.75957,0,0,1.89012,32.3955,152.889)">
            <path d="M0,-51.731L-2.186,-51.731L-2.186,-47.756L-4.936,-47.756L-4.936,-45.768L-2.186,-45.768L-2.186,-34.506C-2.186,-31.756 -0.596,-30.199 2.186,-30.199L4.505,-30.199L4.505,-32.154L2.186,-32.154C0.762,-32.154 0,-32.949 0,-34.506L0,-45.768L4.538,-45.768L4.538,-47.756L0,-47.756L0,-51.731ZM19.404,-38.978L14.866,-38.149C12.149,-37.686 9.665,-37.321 9.665,-34.704C9.665,-32.982 11.123,-31.723 13.872,-31.789C17.019,-31.822 19.437,-34.108 19.404,-38.083L19.404,-38.978ZM22.75,-32.187L23.412,-32.187L23.412,-30.199L22.418,-30.199C20.696,-30.199 19.305,-30.862 19.371,-33.28C18.476,-31.292 16.323,-29.835 13.508,-29.802C9.996,-29.835 7.379,-31.69 7.379,-34.704C7.379,-38.183 10.195,-39.176 13.806,-39.872L19.338,-40.932C19.305,-44.443 17.814,-46.066 14.667,-46.066C12.149,-46.066 10.526,-44.741 9.996,-42.39L7.677,-42.588C8.34,-46.033 10.957,-48.153 14.667,-48.153C19.139,-48.153 21.524,-45.57 21.524,-40.8L21.524,-33.578C21.524,-32.584 21.888,-32.187 22.75,-32.187M29.685,-33.446L29.685,-53.718L27.499,-53.718L27.499,-33.346C27.499,-31.425 28.758,-30.199 30.845,-30.199L32.402,-30.199L32.402,-32.154L31.043,-32.154C30.149,-32.154 29.685,-32.584 29.685,-33.446M50.969,-47.756L47.955,-47.756L38.547,-37.752L38.547,-53.718L36.361,-53.718L36.361,-30.199L38.547,-30.199L38.547,-34.936L42.257,-38.779L48.717,-30.199L51.4,-30.199L43.748,-40.27L50.969,-47.756ZM55.769,-50.538L58.088,-50.538L58.088,-53.42L55.769,-53.42L55.769,-50.538ZM55.835,-30.199L58.021,-30.199L58.021,-47.756L55.835,-47.756L55.835,-30.199ZM71.058,-48.153C68.507,-48.153 66.288,-47.027 65.459,-44.51L65.36,-47.756L63.373,-47.756L63.373,-30.199L65.559,-30.199L65.559,-40.7C65.559,-44.112 67.48,-46.166 70.594,-46.166C73.542,-46.166 74.735,-44.112 74.735,-40.7L74.735,-30.199L76.921,-30.199L76.921,-41.495C76.921,-45.205 75,-48.153 71.058,-48.153M93.669,-39.64C93.702,-43.185 91.549,-46.033 88.336,-46.033C84.957,-46.033 82.903,-43.35 82.903,-39.64C82.903,-35.864 84.957,-33.181 88.336,-33.181C91.483,-33.181 93.636,-36.029 93.669,-39.64M93.702,-47.756L95.789,-47.756L95.789,-31.988C95.789,-27.417 92.808,-24.833 88.336,-24.833C84.593,-24.833 81.744,-26.953 81.214,-29.967L83.533,-30.1C84.063,-28.179 85.818,-26.92 88.336,-26.92C91.582,-26.92 93.603,-28.642 93.603,-31.557L93.603,-34.605C92.543,-32.353 90.423,-31.094 88.336,-31.094C83.599,-31.094 80.618,-34.671 80.618,-39.64C80.618,-44.576 83.665,-48.12 88.336,-48.12C90.754,-48.12 92.874,-46.63 93.702,-44.51L93.702,-47.756ZM223.529,-10.076C223.529,-20.933 214.727,-29.735 203.87,-29.735L140.855,-29.735C136.979,-23.861 130.323,-19.983 122.759,-19.983L67.393,-19.983C65.692,-17.073 64.712,-13.69 64.712,-10.076C64.712,0.781 73.514,9.582 84.371,9.582L203.87,9.582C214.727,9.582 223.529,0.781 223.529,-10.076M122.759,-21.995C133.616,-21.995 142.418,-30.797 142.418,-41.654C142.418,-52.511 133.616,-61.312 122.759,-61.312L3.26,-61.312C-7.597,-61.312 -16.399,-52.511 -16.399,-41.654C-16.399,-30.797 -7.597,-21.995 3.26,-21.995L122.759,-21.995ZM225.541,-10.076C225.541,1.892 215.839,11.594 203.87,11.594L84.371,11.594C72.402,11.594 62.7,1.892 62.7,-10.076C62.7,-13.647 63.569,-17.013 65.099,-19.983L3.26,-19.983C-8.709,-19.983 -18.411,-29.685 -18.411,-41.654C-18.411,-53.622 -8.709,-63.325 3.26,-63.325L122.759,-63.325C134.728,-63.325 144.43,-53.622 144.43,-41.654C144.43,-38.083 143.561,-34.717 142.031,-31.747L203.87,-31.747C215.839,-31.747 225.541,-22.045 225.541,-10.076M148.677,-17.505C146.325,-17.505 144.106,-16.511 143.179,-14.325L143.179,-23.07L140.992,-23.07L140.992,0.449L143.179,0.449L143.179,-9.919C143.179,-13.331 145.1,-15.418 148.214,-15.418C151.162,-15.418 152.354,-13.364 152.354,-9.919L152.354,0.449L154.541,0.449L154.541,-10.846C154.541,-14.556 152.619,-17.505 148.677,-17.505M171.62,-8.329C171.62,-12.734 169.533,-15.418 166.088,-15.418C162.61,-15.418 160.523,-12.734 160.523,-8.329C160.523,-3.923 162.61,-1.24 166.088,-1.24C169.533,-1.24 171.62,-3.923 171.62,-8.329M173.906,-8.329C173.906,-2.962 170.991,0.847 166.088,0.847C161.186,0.847 158.237,-2.962 158.237,-8.329C158.237,-13.695 161.186,-17.505 166.088,-17.505C170.991,-17.505 173.906,-13.695 173.906,-8.329M208.357,-9.091C205.774,-9.72 203.786,-10.548 203.753,-12.304C203.72,-14.192 205.409,-15.418 207.695,-15.418C209.98,-15.418 212.001,-14.059 212.432,-11.84L214.718,-12.039C214.187,-15.318 211.405,-17.505 207.993,-17.505C204.051,-17.505 201.401,-15.418 201.467,-12.204C201.5,-9.157 204.349,-8.13 207.861,-7.203C209.948,-6.673 212.796,-6.341 212.796,-4.056C212.796,-2.035 210.643,-1.24 208.357,-1.24C205.476,-1.24 203.488,-2.83 203.256,-5.116L200.97,-4.95C201.169,-1.472 204.316,0.847 208.357,0.847C211.935,0.847 215.115,-0.71 215.115,-3.956C215.115,-7.103 212.432,-8.229 208.357,-9.091M180.246,-13.596L180.147,-17.107L178.259,-17.107L178.259,0.449L180.445,0.449L180.445,-10.018C180.445,-13.198 181.935,-15.186 184.652,-15.186L186.176,-15.186L186.176,-17.107L184.652,-17.107C182.333,-17.107 180.908,-15.948 180.246,-13.596M129.879,-9.091C127.295,-9.72 125.307,-10.548 125.274,-12.304C125.241,-14.192 126.93,-15.418 129.216,-15.418C131.502,-15.418 133.522,-14.059 133.953,-11.84L136.239,-12.039C135.709,-15.318 132.926,-17.505 129.514,-17.505C125.572,-17.505 122.922,-15.418 122.989,-12.204C123.022,-9.157 125.87,-8.13 129.382,-7.203C131.469,-6.673 134.317,-6.341 134.317,-4.056C134.317,-2.035 132.164,-1.24 129.879,-1.24C126.997,-1.24 125.009,-2.83 124.777,-5.116L122.492,-4.95C122.69,-1.472 125.837,0.847 129.879,0.847C133.456,0.847 136.636,-0.71 136.636,-3.956C136.636,-7.103 133.953,-8.229 129.879,-9.091M194.173,-17.107L198.711,-17.107L198.711,-15.12L194.173,-15.12L194.173,-3.857C194.173,-2.3 194.935,-1.505 196.36,-1.505L198.678,-1.505L198.678,0.449L196.36,0.449C193.577,0.449 191.987,-1.107 191.987,-3.857L191.987,-15.12L189.238,-15.12L189.238,-17.107L191.987,-17.107L191.987,-21.082L194.173,-21.082L194.173,-17.107Z" style="fill:rgb(220,225,214);fill-rule:nonzero;"/>
        </g>
    </g>
</svg>
