<?xml version="1.0" encoding="UTF-8" standalone="no"?>
<!DOCTYPE svg PUBLIC "-//W3C//DTD SVG 1.1//EN" "http://www.w3.org/Graphics/SVG/1.1/DTD/svg11.dtd">
<svg width="100%" height="100%" viewBox="0 0 1919 941" version="1.1" xmlns="http://www.w3.org/2000/svg" xmlns:xlink="http://www.w3.org/1999/xlink" xml:space="preserve" xmlns:serif="http://www.serif.com/" style="fill-rule:evenodd;clip-rule:evenodd;stroke-linejoin:round;stroke-miterlimit:2;">
    <g transform="matrix(1,0,0,1,-267.161179,-413.282721)">
        <g id="Fondo" transform="matrix(1.878906,0,0,1.878906,264,411)">
            <path d="M166.833,194.099C171.337,195.058 180.901,192.606 181.045,195.535C181.311,200.919 177.488,264.528 179.574,266.406C181.042,267.727 212.666,281.946 234.559,278.822C285.98,271.484 288.506,211.477 249.603,200.147C217.986,190.938 203.154,237.307 227.466,241.699C233.557,242.799 241.702,236.565 236.329,231.691C232.876,228.557 234.612,227.697 240.216,217.346C241.093,215.725 241.702,210.807 248.256,216.786C278.87,244.714 226.226,281.743 202.063,245.805C179.555,212.328 223.837,156.1 273.181,190.93C302.165,211.389 307.48,267.443 259.354,291.203C222.256,309.519 180.243,285.937 178.453,287.444C177.042,288.631 176.879,320.532 176.676,323.509C176.311,328.837 175.55,329.217 176.825,330.013C177.844,330.649 194.063,325.525 206.513,313.514C208.621,311.481 209.28,312.464 215.582,318.413C220.938,323.47 221.387,323.256 221.435,324.505C221.517,326.63 204.238,342.931 179.522,349.568C174.671,350.87 175.605,352.188 175.376,356.496C174.96,364.332 175.791,364.352 171.983,454.514C171.706,461.079 173.931,460.297 184.217,466.931C213.467,485.796 215.556,485.753 214.049,488.254C205.623,502.227 204.728,502.089 203.441,501.631C203.337,501.594 154.037,470.427 153.731,470.2C152.208,469.067 152.337,468.694 153.084,446.488C154.583,401.962 154.931,402.056 156.384,357.496C156.571,351.779 153.331,354.513 140.485,353.992C133.748,353.719 129.118,352.637 128.98,355.511C128.671,361.892 133.889,425.439 132.223,427.265C132.216,427.272 82.32,459.491 80.567,459.256C80.249,459.214 69.22,444.778 71.813,442.899C78.313,438.186 112.981,418.709 113.132,415.473C113.25,412.952 109.727,351.126 109.302,350.659C108.934,350.255 82.185,343.714 65.814,332.044C62.023,329.343 61.091,328.51 63.914,324.814C72.062,314.147 72.433,314.103 73.554,314.313C75.641,314.706 80.897,322.258 105.453,329.666C109.222,330.803 108.183,328.423 107.981,324.474C107.664,318.311 104.112,249.084 103.609,247.466C102.558,244.092 67.831,226.108 56.475,225.921C49.661,225.809 42.089,224.662 31.784,231.883C12.698,245.255 18.809,278.279 44.53,276.939C59.28,276.17 64.067,253.853 52.455,255.109C48.35,255.553 48.915,260.978 46.484,260.66C45.133,260.483 30.754,258.598 29.795,257.265C26.374,252.505 44.53,225.406 66.747,240.128C95.975,259.497 65.02,313.939 21.668,290.207C-8.898,273.474 -6.24,216.602 42.443,207.206C67.547,202.361 99.709,223.127 101.607,222.622C103.224,222.191 99.344,195.345 101.385,194.344C102.061,194.012 119.117,194.096 107.549,191.375C80.583,185.032 42.341,151.564 43.57,147.534C43.912,146.411 55.721,137.7 54.329,135.63C53.097,133.8 40.856,126.665 41.768,124.59C43.52,120.6 65.677,95.948 84.739,85.936C174.469,38.81 239.344,125.449 239.349,125.518C239.52,128.08 225.586,136.017 226.801,138.32C227.911,140.422 239.748,148.324 237.064,151.11C204.092,185.336 173.912,191.358 167.561,192.625C166.914,192.754 166.868,192.848 166.84,192.903C166.556,193.479 167.136,193.486 166.833,194.099ZM159.036,281.488C158.096,304.495 158.567,304.436 157.528,327.501C157.296,332.646 158.707,334.794 153.518,334.968C128.659,335.803 128.085,334.492 127.663,332.457C127.334,330.869 123.249,258.676 123.429,258.457C124.839,256.741 127.865,260.728 154.247,274.973C158.188,277.101 158.876,277.06 159.036,281.488ZM136.573,159.038C101.28,149.189 114.019,108.107 140.507,107.733C175.243,107.242 176.596,163.092 136.573,159.038ZM162.037,205.494C159.927,236.803 161.491,256.781 158.468,255.659C155.609,254.597 156.133,253.679 125.303,236.859C119.53,233.709 122.47,230.062 120.444,209.505C119.065,195.511 120.287,195.174 121.44,195.078C124.082,194.858 137.87,198.736 158.46,195.205C160.686,194.823 161.411,194.169 161.979,196.359C162.096,196.808 162.042,204.763 162.037,205.494ZM97.074,140.549C103.969,176.606 133.394,173.725 128.403,177.299C127.628,177.854 101.261,172.168 79.776,156.117C78.908,155.469 56.321,137.982 57.893,134.713C58.324,133.817 68.289,121.685 78.853,112.938C98.016,97.069 127.66,88.76 124.09,93.054C123.091,94.255 93.011,101.631 97.074,140.549ZM152.977,175.99C159.195,173.724 171.625,171.361 180.827,153.665C189.862,136.288 186.699,109.276 165.195,96.728C149.391,87.506 176.369,99.573 177.283,99.982C200.133,110.202 224.58,133.997 223.451,137.475C223.282,137.996 201.234,162.544 170.562,172.675C159.048,176.478 157.272,176.517 156.511,176.811C154.448,177.61 153.899,178.052 152.977,175.99Z" style="fill:rgb(220,225,214);fill-opacity:1;"/>
            <path d="M753.493,329.965C716.242,328.268 713.812,309.881 713.893,276.501C714.033,218.833 766.082,234.686 770.302,233.08C772.545,232.227 770.966,207.479 771.449,201.497C771.754,197.722 778.31,198.741 785.492,198.797C789.656,198.829 788.517,204.999 788.517,213.5C788.517,324.522 788.694,325.072 787.174,326.019C780.613,330.106 756.206,329.979 753.493,329.965ZM731.977,294.475C731.48,287.587 729.316,262.251 736.847,251.759C743.286,242.787 770.684,243.729 771.348,249.518C771.868,254.047 771.494,254.048 771.421,306.5C771.411,313.701 772.746,316.444 765.534,316.79C738.774,318.072 733.605,313.387 731.977,294.475Z" style="fill:rgb(220,225,214);fill-opacity:1;"/>
            <path d="M979.489,329.963C978.548,329.874 976.813,330.028 971.543,329.206C938.586,324.064 940.278,272.101 948.913,250.679C959.922,223.366 998.896,232.51 1006.396,236.676C1021.368,244.995 1022.908,272.856 1022.867,278.499C1022.481,331.789 997.412,330.08 979.489,329.963ZM960.959,274.511C962.269,264.113 961.489,263.989 964.021,256.346C970.441,236.969 997.122,247.964 997.146,247.98C1004.665,253.004 1005.021,267.689 1005.066,269.525C1005.865,302.481 1004.069,316.171 986.52,316.796C963.934,317.601 961.225,309.874 960.959,274.511Z" style="fill:rgb(220,225,214);fill-opacity:1;"/>
            <path d="M374.966,312.5C374.966,322.766 375.961,328.153 372.49,328.182C361.72,328.271 357.891,329.375 357.887,324.499C357.881,315.383 357.812,211.059 357.915,210.545C358.457,207.829 359.693,208.293 385.5,208.316C400.534,208.329 431.334,206.974 428.489,248.499C425.181,296.783 375.191,274.903 375.045,284.475C374.952,290.526 375.176,300.283 374.966,312.5ZM374.966,257.5C375.725,224.479 373.192,221.334 378.498,221.302C396.547,221.196 410.833,219.981 410.816,244.5C410.799,267.909 400.123,269.109 377.505,268.441C373.833,268.332 374.968,259.897 374.966,257.5Z" style="fill:rgb(220,225,214);fill-opacity:1;"/>
            <path d="M643.5,245.966C623.251,246.487 623.272,247.722 621.568,247.291C620.132,246.928 619.222,239.261 619.136,238.539C619.062,237.911 618.711,234.953 625.566,233.944C666.063,227.981 680.73,236.304 680.74,262.5C680.76,318.657 681.041,318.64 680.721,323.51C680.589,325.513 680.347,329.197 656.484,330.014C621.352,331.216 606.994,324.838 611.871,294.573C615.824,270.046 659.19,275.932 663.298,272.275C664.499,271.206 663.878,257.354 663.608,256.47C660.304,245.672 653.201,246.328 643.5,245.966ZM664.008,301.5C664.008,309.715 664.572,316.237 662.652,316.856C658.526,318.187 634.962,319.997 630.9,314.177C627.729,309.634 625.64,287.99 637.44,286.202C639.347,285.913 648.032,284.596 661.524,285.1C665.131,285.234 663.43,287.217 664.008,301.5Z" style="fill:rgb(220,225,214);fill-opacity:1;"/>
            <path d="M471.5,245.966C450.28,246.489 448.568,248.938 447.86,245.439C446.267,237.564 445.654,235.028 453.558,233.917C483.827,229.663 502.608,231.632 507.706,252.439C509.021,257.806 508.471,257.888 508.287,321.5C508.271,327.074 506.992,328.052 492.489,329.354C451.661,333.018 439.393,324.156 438.919,308.47C438.55,296.288 436.367,278.383 470.55,274.962C489.393,273.076 492.153,273.308 492.05,269.497C491.543,250.733 490.268,246.709 471.5,245.966ZM492.051,290.5C492.051,314.438 492.443,316.235 490.622,316.808C490.576,316.823 459.157,322.907 457.031,310.594C452.478,284.222 462.788,283.679 489.528,285.11C492.892,285.29 492.016,289.952 492.051,290.5Z" style="fill:rgb(220,225,214);fill-opacity:1;"/>
            <path d="M885.496,329.964C872.787,329.174 872.729,329.741 867.563,328.305C864.583,327.477 866.626,315.968 866.801,315.714C868.294,313.541 899.601,321.989 903.754,311.59C911.266,292.78 883.466,286.213 870.654,270.381C864.84,263.197 866.168,249.662 869.806,242.678C878.217,226.531 917.46,233.356 918.197,233.895C919.63,234.943 918.663,245.06 918.523,245.508C916.922,250.644 884.333,236.36 882.617,254.508C880.916,272.503 921.616,279.331 921.047,301.509C920.543,321.164 916.591,331.119 885.496,329.964Z" style="fill:rgb(220,225,214);fill-opacity:1;"/>
            <path d="M547.034,273.5C547.034,238.181 546.982,238.203 547.285,237.405C547.927,235.715 565.999,230.283 591.469,232.827C595.276,233.207 594.339,234.664 594.082,238.463C593.705,244.043 595.134,246.741 589.527,246.208C587.562,246.021 568.377,244.196 564.911,247.89C562.79,250.15 564.564,323.405 563.908,326.594C563.299,329.558 548.479,327.917 548.326,327.854C546.822,327.244 547.034,326.609 547.034,273.5Z" style="fill:rgb(220,225,214);fill-opacity:1;"/>
            <path d="M822.032,241.5C822.121,236.35 820.359,233.943 825.502,233.883C831.957,233.808 838.054,233.405 838.791,235.381C839.204,236.489 838.98,326.264 838.893,326.616C838.192,329.439 823.059,328.198 822.473,327.523C821.967,326.938 822.032,326.833 822.032,241.5Z" style="fill:rgb(220,225,214);fill-opacity:1;"/>
            <path d="M176.946,28.525C176.795,30.518 172.459,62.092 171.873,62.792C170.941,63.905 153.204,62.222 153.399,59.499C153.403,59.444 159.889,15.808 160.987,5.539C161.598,-0.175 163.774,1.124 169.441,1.969C177.013,3.099 181.084,0.806 180.016,8.431C179.79,10.041 177.934,23.288 176.946,28.525Z" style="fill:rgb(220,225,214);fill-opacity:1;"/>
            <path d="M487.966,163.5C487.413,180.359 483.431,184.628 467.466,183.824C451.135,183.002 451.174,147.284 464.411,144.246C489.604,138.464 487.863,159.696 487.966,163.5ZM480.039,165.485C479.937,166.87 481.159,178.926 470.454,177.888C458.553,176.733 462.673,152.417 466.517,150.531C468.763,149.429 476.101,148.856 478.036,151.826C479.77,154.489 480.012,164.381 480.039,165.485Z" style="fill:rgb(220,225,214);fill-opacity:1;"/>
            <path d="M664.5,183.93C660.928,183.784 645.926,186.416 647.956,157.53C649.191,139.957 672.9,139.791 678.086,149.728C682.494,158.176 681.04,171.384 678.112,177.306C674.589,184.43 667.134,183.847 664.5,183.93ZM664.497,178.012C655.447,176.633 655.682,174.053 655.921,158.511C656.122,145.478 670.373,148.914 671.575,153.471C673.526,160.87 673.468,166.171 671.667,173.555C670.882,176.775 665.16,177.884 664.497,178.012Z" style="fill:rgb(220,225,214);fill-opacity:1;"/>
            <path d="M126.965,12.481C127.315,15.234 131.028,57.974 130.118,59.188C130.02,59.318 112.581,62.52 111.774,59.418C111.574,58.647 111.634,58.644 108.176,13.53C108.129,12.928 107.633,6.451 108.721,5.997C109.45,5.693 125.92,3.944 126.594,5.446C126.824,5.96 126.621,5.964 126.965,12.481Z" style="fill:rgb(220,225,214);"/>
            <path d="M387.958,150.521C387.795,152.204 388.326,162.467 375.454,164.129C369.354,164.917 366.348,162.371 366.21,168.492C365.917,181.558 367.392,183.152 364.467,183.294C360.301,183.497 358.458,184.672 358.422,180.502C358.391,176.901 358.063,139.064 358.468,135.495C358.708,133.377 359.397,133.777 361.503,133.773C380.133,133.733 387.899,132.271 387.958,150.521ZM369.501,158.034C367.058,157.498 366.355,158.086 366.247,156.554C366.234,156.362 366.113,145.74 366.307,142.48C366.554,138.337 378.683,137.703 379.756,146.469C381.426,160.127 370.684,157.962 369.501,158.034Z" style="fill:rgb(220,225,214);fill-opacity:1;"/>
            <path d="M122.081,133.499C123.205,112.91 146.078,110.174 155.387,121.596C160.655,128.06 155.082,128.006 147.351,131.141C144.459,132.313 144.622,130.562 141.558,130.128C134.213,129.086 137.494,141.057 143.427,136.413C146.916,133.683 158.39,139.636 158.323,140.503C157.36,152.894 123.97,161.896 122.081,133.499Z" style="fill:rgb(220,225,214);fill-opacity:1;"/>
            <path d="M550.036,163.499C550.171,158.351 549.695,158.359 551.273,153.428C555.521,140.152 582.078,136.028 581.461,161.5C581.265,169.607 576.912,165.731 559.513,166.563C557.626,166.653 555.131,182.914 577.446,176.336C581.374,175.178 583.176,183.345 572.528,183.841C557.962,184.518 549.857,181.731 550.036,163.499ZM574.032,156.513C573.773,159.017 575.058,160.275 572.48,160.389C558.387,161.011 558.137,159.709 558.087,158.549C557.607,147.507 571.745,146.79 573.733,154.43C573.91,155.109 573.856,155.834 574.032,156.513Z" style="fill:rgb(220,225,214);fill-opacity:1;"/>
            <path d="M70.425,60.535C61.521,38.509 61.425,38.453 61.582,37.528C61.771,36.421 77.538,30.254 78.441,30.622C79.458,31.036 93.208,66.28 93.225,66.547C93.314,67.878 93.035,68.246 78.313,74.007C75.179,75.233 73.104,67.186 70.425,60.535Z" style="fill:rgb(220,225,214);fill-opacity:1;"/>
            <path d="M210.582,36.339C216.924,39.526 224.045,42.287 223.55,44.515C223.543,44.548 207.44,76.907 207.167,77.208C206.275,78.193 205.621,78.683 191.751,71.017C188.871,69.426 190.902,67.501 198.01,53.256C205.733,37.78 206.576,34.732 208.539,35.359C209.259,35.588 209.862,36.11 210.582,36.339Z" style="fill:rgb(220,225,214);fill-opacity:1;"/>
            <path d="M625.96,147.515C624.618,153.487 618.829,147.89 618.199,151.398C618.157,151.635 617.84,175.103 618.399,176.546C619.363,179.036 627.213,176.465 624.453,182.473C623.544,184.451 610.289,186.487 610.177,176.511C609.907,152.269 611.362,150.667 608.518,150.382C603.961,149.926 602.157,149.915 603.36,145.463C604.039,142.951 609.907,145.027 610.132,142.444C610.64,136.621 608.68,133.847 614.499,133.902C622.096,133.975 614.803,143.805 620.476,143.928C623.955,144.003 625.698,142.9 625.96,147.515Z" style="fill:rgb(220,225,214);fill-opacity:1;"/>
            <path d="M513.501,196.958C508.169,196.675 505.793,196.003 508.321,191.359C509.293,189.572 515.54,193.151 516.093,187.447C517.392,174.033 515.337,145.289 517.38,144.326C517.904,144.079 523.407,143.025 523.927,145.392C524.166,146.477 523.764,163.52 524.058,186.499C524.185,196.44 520.319,196.475 513.501,196.958Z" style="fill:rgb(220,225,214);fill-opacity:1;"/>
            <path d="M44.705,69.729C47.485,67.496 47.284,67.296 48.583,66.929C50.25,66.458 63.023,83.027 63.052,83.537C63.152,85.312 50.099,95.362 49.493,95.381C47.863,95.431 48.074,94.852 35.856,80.226C33.741,77.694 39.195,74.675 44.705,69.729Z" style="fill:rgb(220,225,214);fill-opacity:1;"/>
            <path d="M432.963,147.533C431.978,151.534 430.321,149.575 423.544,149.845C420.284,149.975 421.194,153.331 421.134,176.5C421.118,182.702 420.542,184.904 414.606,183.193C412.932,182.711 413.222,181.938 413.226,149.5C413.226,145.262 414.027,144.193 425.479,143.226C430.789,142.777 432.491,142.262 432.963,147.533Z" style="fill:rgb(220,225,214);fill-opacity:1;"/>
            <path d="M227.272,80.295C232.816,73.698 233.164,73.361 233.732,72.811C234.697,71.876 235.496,71.688 247.281,82.733C249.848,85.138 247.34,85.492 237.936,96.888C234.996,100.452 234.168,97.699 224.872,90.062C220.032,86.085 223.1,84.983 227.272,80.295Z" style="fill:rgb(220,225,214);"/>
            <path d="M839.966,207.5C839.871,213.419 840.698,213.785 839.121,215.062C838.752,215.36 821.888,217.436 821.115,213.588C820.908,212.562 821.206,212.549 820.968,200.506C820.886,196.361 825.752,196.983 836.504,197.161C841.526,197.243 839.945,204.684 839.966,207.5Z" style="fill:rgb(220,225,214);"/>
            <path d="M516.055,133.5C516.184,130.434 515.411,129.212 518.475,129.091C522.421,128.936 525.642,127.995 524.771,135.545C524.631,136.763 516.184,141.05 516.055,133.5Z" style="fill:rgb(220,225,214);fill-opacity:1;"/>
        </g>
    </g>
</svg>
