<?xml version="1.0" encoding="UTF-8" standalone="no"?>
<!DOCTYPE svg PUBLIC "-//W3C//DTD SVG 1.1//EN" "http://www.w3.org/Graphics/SVG/1.1/DTD/svg11.dtd">
<svg width="100%" height="100%" viewBox="0 0 202 208" version="1.1" xmlns="http://www.w3.org/2000/svg" xmlns:xlink="http://www.w3.org/1999/xlink" xml:space="preserve" xmlns:serif="http://www.serif.com/" style="fill-rule:evenodd;clip-rule:evenodd;stroke-linejoin:round;stroke-miterlimit:2;">
    <g id="Artboard1" transform="matrix(0.467058,0,0,1,0,0)">
        <rect x="0" y="0" width="432" height="208" style="fill:none;"/>
        <clipPath id="_clip1">
            <rect x="0" y="0" width="432" height="208"/>
        </clipPath>
        <g clip-path="url(#_clip1)">
            <g transform="matrix(2.69609,0,0,1.25923,-6070.37,-1534.11)">
                <g transform="matrix(1,0,0,1,2276.81,1311.32)">
                    <path d="M0,-24.526C1.346,-24.915 2.685,-25.295 4.016,-25.7C4.145,-25.74 4.264,-25.925 4.321,-26.069C5.059,-27.938 5.782,-29.814 6.517,-31.684C6.627,-31.963 6.557,-32.127 6.292,-32.259C5.85,-32.479 5.421,-32.726 4.985,-32.959C4.422,-33.26 3.858,-33.558 3.3,-33.854C2.207,-31.977 -0.106,-25.461 0,-24.526M91.095,-50.898C91.147,-50.972 91.2,-51.047 91.253,-51.122C91.049,-51.243 90.819,-51.336 90.645,-51.491C88.412,-53.476 86.053,-55.295 83.546,-56.923C83.147,-57.182 82.984,-57.068 82.808,-56.713C82.408,-55.904 82.029,-55.082 81.573,-54.305C81.314,-53.863 81.438,-53.68 81.811,-53.417C83.243,-52.404 84.674,-51.387 86.052,-50.302C86.607,-49.865 87.068,-49.645 87.785,-49.906C88.866,-50.299 89.99,-50.573 91.095,-50.898M-2.301,-36.908C-4.492,-32.298 -6.103,-27.565 -7.09,-22.558C-6.878,-22.569 -6.79,-22.557 -6.712,-22.579C-5.549,-22.911 -4.382,-23.234 -3.229,-23.596C-3.065,-23.648 -2.892,-23.879 -2.845,-24.059C-2.057,-27.095 -1.098,-30.073 0.134,-32.961C0.433,-33.661 0.744,-34.356 1.063,-35.084C-0.062,-35.694 -1.136,-36.276 -2.301,-36.908M98.142,-52.942C97.999,-53.125 97.947,-53.213 97.875,-53.28C96.331,-54.726 94.866,-56.271 93.22,-57.589C91.026,-59.346 88.69,-60.927 86.416,-62.584C86.229,-62.72 86.025,-62.875 85.866,-62.573C85.319,-61.538 84.786,-60.497 84.243,-59.449C84.37,-59.352 84.447,-59.285 84.531,-59.231C87.729,-57.206 90.703,-54.895 93.427,-52.268C93.835,-51.874 94.221,-51.674 94.778,-51.955C95.031,-52.083 95.334,-52.11 95.612,-52.192C96.425,-52.43 97.237,-52.673 98.142,-52.942M-14.167,-20.534C-13.991,-20.524 -13.903,-20.497 -13.828,-20.518C-12.681,-20.845 -11.531,-21.165 -10.394,-21.526C-10.238,-21.575 -10.085,-21.821 -10.04,-22.003C-9.493,-24.202 -9.024,-26.422 -8.42,-28.604C-7.543,-31.779 -6.326,-34.834 -4.924,-37.813C-4.766,-38.149 -4.834,-38.291 -5.137,-38.448C-5.984,-38.887 -6.831,-39.33 -7.653,-39.812C-8.022,-40.029 -8.2,-39.954 -8.347,-39.588C-9.359,-37.06 -10.478,-34.569 -11.359,-31.996C-12.169,-29.631 -12.766,-27.19 -13.376,-24.763C-13.72,-23.396 -13.901,-21.988 -14.167,-20.534M105.203,-55.039C100.476,-60.468 95.158,-65.017 89.037,-68.726C88.427,-67.542 87.861,-66.443 87.288,-65.33C87.464,-65.206 87.583,-65.113 87.71,-65.033C92.603,-61.984 96.996,-58.331 100.905,-54.096C101.139,-53.842 101.358,-53.849 101.633,-53.93C102.663,-54.23 103.695,-54.526 104.724,-54.83C104.862,-54.871 104.991,-54.945 105.203,-55.039M46.127,21.28C46.14,21.347 46.152,21.414 46.164,21.481C52.153,22.862 58.069,22.528 63.891,20.58C68.782,18.942 73.054,16.286 76.674,12.614C76.652,12.562 76.63,12.51 76.608,12.458C66.448,15.399 56.288,18.339 46.127,21.28M60.819,-42.126C60.808,-42.175 60.798,-42.224 60.787,-42.273C54.669,-43.832 46.869,-43.446 39.618,-40.065C36.094,-38.422 32.948,-36.23 30.241,-33.439C30.266,-33.391 30.291,-33.344 30.316,-33.296C40.484,-36.239 50.651,-39.182 60.819,-42.126M107.036,3.768C106.873,3.746 106.82,3.724 106.778,3.736C105.499,4.096 104.217,4.45 102.946,4.837C102.785,4.885 102.61,5.084 102.554,5.251C101.601,8.137 100.435,10.929 99.016,13.62C96.751,17.92 93.94,21.823 90.585,25.333C88.672,27.336 86.603,29.169 84.374,30.814C84.05,31.053 84.031,31.242 84.24,31.568C84.691,32.271 85.102,32.999 85.533,33.715C85.67,33.943 85.818,34.163 86.001,34.452C96.555,26.595 103.494,16.381 107.036,3.768M15.712,30.088C15.841,30.245 15.896,30.33 15.967,30.395C19.634,33.76 23.688,36.569 28.111,38.844C31.622,40.65 35.28,42.08 39.096,43.106C41.92,43.865 44.784,44.397 47.688,44.713C48.688,44.822 49.696,44.867 50.701,44.936C50.935,44.952 51.139,44.945 51.129,44.598C51.098,43.608 51.077,42.618 51.088,41.628C51.093,41.177 50.906,41.037 50.482,41.018C46.68,40.849 42.962,40.184 39.304,39.14C35.268,37.988 31.441,36.353 27.801,34.271C25.188,32.778 22.725,31.071 20.407,29.151C20.234,29.008 19.924,28.887 19.726,28.939C18.409,29.286 17.106,29.683 15.712,30.088M89.218,39.922C96.472,34.724 102.288,28.344 106.739,20.717C110.184,14.814 112.614,8.524 113.984,1.739C113.738,1.759 113.585,1.746 113.448,1.785C112.694,2.002 111.958,2.317 111.19,2.436C110.112,2.603 109.698,3.154 109.434,4.216C108.359,8.531 106.718,12.642 104.635,16.577C100.88,23.674 95.902,29.757 89.632,34.776C88.863,35.393 88.074,35.985 87.256,36.619C87.902,37.706 88.534,38.77 89.218,39.922M8.733,32.127C8.87,32.301 8.917,32.371 8.974,32.431C11.922,35.465 15.136,38.184 18.635,40.565C22.684,43.32 26.999,45.568 31.571,47.322C34.248,48.35 36.984,49.204 39.786,49.804C41.869,50.251 43.977,50.602 46.088,50.897C47.658,51.116 49.249,51.177 50.831,51.309C51.062,51.328 51.239,51.288 51.234,50.994C51.219,49.952 51.209,48.91 51.197,47.868C51.193,47.515 50.989,47.408 50.665,47.397C47.689,47.292 44.752,46.883 41.834,46.297C38.479,45.624 35.215,44.649 32.047,43.372C25.006,40.533 18.712,36.52 13.244,31.238C12.966,30.969 12.705,30.933 12.369,31.035C11.749,31.224 11.124,31.396 10.503,31.582C9.939,31.751 9.377,31.928 8.733,32.127M37.251,23.864C44.504,27.489 55.437,29.407 66.808,25.122C74.657,22.164 80.818,17.111 85.35,10.044C85.137,10.011 84.956,10.031 84.783,10.081C83.375,10.492 81.969,10.905 80.564,11.324C80.1,11.463 79.606,11.496 79.248,11.922C77.915,13.508 76.419,14.927 74.802,16.222C70.727,19.486 66.13,21.679 61.053,22.85C58.182,23.512 55.269,23.783 52.314,23.689C49.306,23.592 46.38,23.086 43.499,22.248C43.289,22.187 43.032,22.202 42.818,22.258C41.829,22.518 40.845,22.801 39.863,23.085C39.031,23.326 38.204,23.579 37.251,23.864M21.407,-30.797C21.717,-30.842 21.868,-30.846 22.009,-30.887C23.417,-31.295 24.827,-31.695 26.227,-32.128C26.703,-32.275 27.288,-32.386 27.592,-32.722C29.556,-34.898 31.684,-36.879 34.103,-38.54C38.198,-41.353 42.702,-43.176 47.588,-44.041C50.099,-44.486 52.633,-44.629 55.187,-44.499C57.861,-44.363 60.474,-43.924 63.041,-43.176C63.382,-43.077 63.786,-43.027 64.122,-43.111C65.346,-43.414 66.554,-43.778 67.766,-44.129C68.356,-44.299 68.941,-44.489 69.529,-44.67C69.519,-44.726 69.51,-44.781 69.5,-44.837C59.265,-49.395 48.927,-49.677 38.549,-45.337C31.367,-42.334 25.715,-37.459 21.407,-30.797M121.02,-0.295C120.848,-0.295 120.743,-0.317 120.652,-0.292C119.535,0.023 118.415,0.326 117.312,0.683C117.129,0.742 116.937,1.029 116.898,1.239C116.229,4.854 115.26,8.386 113.982,11.83C112.047,17.052 109.492,21.955 106.305,26.525C103.639,30.347 100.643,33.89 97.162,36.99C95.19,38.747 93.082,40.353 91.02,42.007C90.738,42.233 90.659,42.39 90.858,42.709C91.371,43.534 91.863,44.373 92.353,45.212C92.512,45.484 92.663,45.59 92.951,45.355C93.308,45.064 93.696,44.812 94.066,44.538C100.837,39.529 106.488,33.471 111.018,26.372C113.734,22.117 115.955,17.617 117.686,12.872C119.069,9.079 120.08,5.191 120.8,1.223C120.89,0.727 120.945,0.225 121.02,-0.295M51.245,55.766C51.253,55.766 51.261,55.766 51.269,55.765C51.269,55.355 51.252,54.944 51.274,54.535C51.294,54.163 51.159,54.038 50.777,54.026C47.683,53.931 44.614,53.571 41.575,52.998C37.613,52.25 33.751,51.141 29.996,49.662C24.523,47.506 19.428,44.671 14.714,41.153C11.629,38.851 8.776,36.287 6.167,33.457C5.815,33.076 5.502,32.998 5.008,33.171C4.092,33.49 3.147,33.727 2.213,33.996C1.717,34.138 1.683,34.215 2.018,34.581C2.997,35.649 3.954,36.742 4.978,37.767C7.247,40.038 9.661,42.148 12.227,44.083C17.24,47.864 22.67,50.902 28.507,53.206C31.539,54.403 34.631,55.432 37.827,56.092C40.231,56.587 42.648,57.037 45.077,57.386C46.965,57.657 48.88,57.736 50.782,57.914C51.188,57.951 51.354,57.807 51.326,57.401C51.289,56.857 51.271,56.311 51.245,55.766M93.028,7.8C92.76,7.816 92.656,7.804 92.564,7.831C91.189,8.227 89.819,8.645 88.437,9.021C88.036,9.13 87.807,9.353 87.608,9.696C85.96,12.527 83.982,15.108 81.686,17.444C78.866,20.313 75.675,22.69 72.122,24.576C67.906,26.814 63.427,28.253 58.702,28.889C56.008,29.252 53.302,29.369 50.58,29.148C48.344,28.966 46.135,28.642 43.963,28.104C40.924,27.351 38.009,26.251 35.232,24.797C34.914,24.63 34.63,24.584 34.266,24.71C33.542,24.961 32.791,25.133 32.054,25.347C31.33,25.556 30.608,25.776 29.886,25.992C29.885,26.059 29.885,26.126 29.885,26.194C39.763,32.361 50.463,34.614 61.922,32.245C76.228,29.288 86.477,20.976 93.028,7.8M13.881,-28.633C14.106,-28.633 14.177,-28.618 14.237,-28.635C15.597,-29.026 16.949,-29.445 18.318,-29.801C18.836,-29.935 19.113,-30.237 19.365,-30.669C20.971,-33.425 22.904,-35.937 25.134,-38.214C28.45,-41.601 32.263,-44.296 36.556,-46.307C40.18,-48.005 43.977,-49.14 47.937,-49.691C50.801,-50.089 53.688,-50.269 56.568,-49.918C58.699,-49.659 60.835,-49.36 62.928,-48.892C66.033,-48.198 68.981,-47.023 71.806,-45.549C71.968,-45.465 72.205,-45.428 72.378,-45.475C73.644,-45.821 74.904,-46.191 76.164,-46.559C76.455,-46.645 76.739,-46.756 77.088,-46.876C69.022,-52.362 55.45,-56.688 40.479,-51.952C28.281,-48.094 19.523,-40.208 13.881,-28.633M22.773,28.046C23.62,29.142 29.209,32.999 34.852,35.27C44.879,39.304 55.152,40.039 65.62,37.362C75.496,34.837 83.844,29.74 90.569,22.055C94.765,17.259 97.896,11.835 100.049,5.726C99.805,5.769 99.674,5.78 99.55,5.816C98.405,6.149 97.268,6.517 96.111,6.806C95.624,6.927 95.371,7.157 95.175,7.611C93.058,12.532 90.166,16.953 86.491,20.849C83.451,24.073 80.002,26.79 76.154,28.996C71.201,31.835 65.894,33.669 60.262,34.547C57.237,35.018 54.189,35.137 51.124,34.997C47.297,34.823 43.563,34.151 39.917,33.011C35.512,31.634 31.409,29.616 27.594,27.013C27.388,26.873 27.036,26.816 26.795,26.881C25.463,27.237 24.144,27.643 22.773,28.046M84.116,-48.873C83.194,-50.422 74.909,-55.157 69.584,-57.011C58.658,-60.815 47.691,-60.714 36.816,-56.836C26.094,-53.011 17.707,-46.192 11.633,-36.556C9.663,-33.431 8.061,-30.127 6.836,-26.505C8.381,-26.949 9.774,-27.336 11.156,-27.76C11.334,-27.814 11.505,-28.029 11.595,-28.21C12.247,-29.523 12.83,-30.87 13.521,-32.161C15.859,-36.533 18.878,-40.392 22.502,-43.769C25.897,-46.932 29.703,-49.495 33.902,-51.481C37.893,-53.369 42.067,-54.667 46.423,-55.346C49.667,-55.851 52.931,-56.031 56.222,-55.815C59.715,-55.586 63.135,-55 66.479,-53.995C71.07,-52.615 75.337,-50.547 79.295,-47.841C79.482,-47.713 79.79,-47.632 79.999,-47.688C81.363,-48.054 82.714,-48.464 84.116,-48.873M53.33,57.951C53.535,57.951 53.719,57.958 53.901,57.95C55.129,57.899 56.356,57.85 57.584,57.791C60.745,57.64 63.871,57.196 66.969,56.568C70.483,55.856 73.922,54.867 77.286,53.619C81.94,51.892 86.351,49.683 90.527,47C90.845,46.796 90.932,46.638 90.714,46.274C88.009,41.751 85.318,37.219 82.635,32.683C82.442,32.358 82.3,32.317 81.965,32.517C80.312,33.506 78.675,34.529 76.97,35.42C72.295,37.865 67.326,39.466 62.136,40.38C59.324,40.875 56.482,41.109 53.627,41.134C53.143,41.138 53.02,41.293 53.032,41.754C53.077,43.307 53.084,44.862 53.104,46.416C53.147,49.849 53.187,53.282 53.236,56.715C53.241,57.104 53.294,57.493 53.33,57.951M128.231,-2.411C128.003,-2.385 127.883,-2.387 127.773,-2.356C126.87,-2.1 125.981,-1.782 125.064,-1.598C124.362,-1.456 124.103,-1.075 124.084,-0.426C124.083,-0.393 124.074,-0.359 124.07,-0.325C123.623,3.065 122.885,6.395 121.92,9.67C120.61,14.111 118.88,18.386 116.738,22.498C112.501,30.634 106.92,37.697 99.974,43.686C92.964,49.731 85.06,54.215 76.298,57.175C71.549,58.779 66.681,59.874 61.696,60.454C57.271,60.97 52.842,61.093 48.402,60.769C44.155,60.46 39.965,59.791 35.836,58.735C31.18,57.544 26.693,55.902 22.369,53.806C16.828,51.12 11.709,47.788 7.028,43.79C4.063,41.257 1.324,38.494 -1.175,35.498C-1.37,35.265 -1.539,35.058 -1.896,35.165C-2.974,35.489 -4.056,35.797 -5.137,36.108C-5.451,36.197 -5.466,36.36 -5.274,36.588C-5.187,36.693 -5.102,36.8 -5.016,36.906C-1.965,40.671 1.409,44.119 5.135,47.22C12.858,53.648 21.504,58.382 31.097,61.391C35.097,62.646 39.171,63.546 43.317,64.124C48.338,64.824 53.388,65.009 58.439,64.615C61.31,64.391 64.176,64.008 67.019,63.546C70.303,63.012 73.519,62.145 76.682,61.11C81.128,59.656 85.42,57.831 89.527,55.578C96.511,51.746 102.737,46.939 108.199,41.138C110.956,38.21 113.459,35.082 115.708,31.752C119.539,26.081 122.587,20.016 124.728,13.515C125.527,11.088 126.211,8.617 126.812,6.133C127.296,4.13 127.591,2.08 127.941,0.046C128.076,-0.738 128.13,-1.537 128.231,-2.411M-21.357,-18.381C-21.12,-18.43 -20.956,-18.452 -20.799,-18.497C-19.816,-18.782 -18.84,-19.093 -17.85,-19.348C-17.451,-19.451 -17.288,-19.644 -17.24,-20.041C-16.813,-23.52 -16.064,-26.936 -15.09,-30.299C-13.7,-35.096 -11.81,-39.692 -9.456,-44.097C-6.142,-50.298 -2.03,-55.92 2.972,-60.852C5.167,-63.016 7.517,-65.044 9.938,-66.953C16.156,-71.856 23.087,-75.477 30.584,-78.006C34.811,-79.431 39.135,-80.462 43.559,-81.077C46.761,-81.522 49.975,-81.774 53.205,-81.786C56.641,-81.799 60.06,-81.541 63.465,-81.064C67.09,-80.556 70.653,-79.774 74.151,-78.71C78.368,-77.426 82.429,-75.755 86.344,-73.721C92.725,-70.407 98.481,-66.237 103.588,-61.186C105.176,-59.616 106.624,-57.904 108.148,-56.268C108.28,-56.127 108.534,-55.955 108.68,-55.994C109.835,-56.294 110.978,-56.641 112.122,-56.979C112.196,-57.001 112.255,-57.075 112.321,-57.125C96.917,-77.367 64.528,-93.551 29.146,-81.564C12.931,-76.071 0.102,-66.031 -9.353,-51.764C-16.054,-41.653 -20.02,-30.522 -21.357,-18.381M53.46,-78.826C51.653,-78.738 49.842,-78.694 48.039,-78.55C44.582,-78.274 41.164,-77.729 37.786,-76.925C34.546,-76.154 31.374,-75.174 28.279,-73.949C23.683,-72.131 19.328,-69.849 15.231,-67.078C10.311,-63.75 5.889,-59.861 1.986,-55.385C-1.46,-51.433 -4.408,-47.137 -6.882,-42.513C-7.109,-42.09 -7.053,-41.912 -6.636,-41.689C-2.026,-39.21 2.578,-36.717 7.175,-34.214C7.512,-34.031 7.669,-34.063 7.847,-34.403C11.04,-40.475 15.258,-45.721 20.541,-50.107C24.952,-53.769 29.847,-56.598 35.212,-58.613C37.833,-59.597 40.516,-60.362 43.262,-60.926C46.182,-61.524 49.128,-61.863 52.101,-61.948C55.403,-62.043 58.698,-61.881 61.943,-61.235C64.214,-60.783 66.486,-60.288 68.705,-59.633C72.379,-58.55 75.863,-56.989 79.173,-55.053C79.467,-54.881 79.623,-54.94 79.764,-55.247C79.985,-55.727 80.245,-56.188 80.488,-56.658C82.648,-60.837 84.803,-65.02 86.976,-69.193C87.199,-69.622 87.196,-69.838 86.722,-70.101C79.75,-73.964 72.347,-76.577 64.476,-77.86C60.828,-78.455 57.16,-78.781 53.46,-78.826M-22.019,-11.007C-22.071,-11.006 -22.123,-11.005 -22.175,-11.004C-22.086,-9.009 -22.046,-7.01 -21.897,-5.019C-21.639,-1.562 -21.164,1.867 -20.456,5.265C-19.836,8.242 -19.035,11.165 -18.052,14.04C-16.614,18.244 -14.854,22.313 -12.657,26.172C-11.216,28.704 -9.579,31.124 -8.027,33.592C-7.881,33.824 -7.752,34.024 -7.379,33.911C-5.683,33.398 -3.975,32.924 -2.272,32.43C1.101,31.451 4.471,30.464 7.844,29.488C11.201,28.517 14.562,27.56 17.918,26.588C21.292,25.612 24.661,24.621 28.034,23.644C31.834,22.545 35.637,21.46 39.437,20.361C42.793,19.389 46.145,18.4 49.502,17.429C53.301,16.33 57.105,15.246 60.905,14.149C65.671,12.773 70.435,11.394 75.199,10.011C79.865,8.656 84.527,7.29 89.194,5.939C93.009,4.835 96.83,3.75 100.646,2.648C105.412,1.272 110.176,-0.112 114.94,-1.493C119.442,-2.798 123.944,-4.108 128.449,-5.403C128.81,-5.507 128.938,-5.685 128.941,-6.052C128.959,-8.133 129.048,-10.215 129.01,-12.295C128.979,-14.051 128.864,-15.81 128.687,-17.558C128.354,-20.853 127.827,-24.12 127.084,-27.352C126.36,-30.499 125.436,-33.581 124.311,-36.606C123.012,-40.095 121.509,-43.499 119.662,-46.728C118.156,-49.36 116.48,-51.895 114.86,-54.46C114.764,-54.611 114.46,-54.767 114.308,-54.725C112.106,-54.117 109.912,-53.48 107.719,-52.843C104.395,-51.877 101.074,-50.903 97.75,-49.939C94.771,-49.074 91.789,-48.219 88.808,-47.358C85.86,-46.508 82.912,-45.658 79.964,-44.805C77.245,-44.018 74.528,-43.228 71.809,-42.44C69.124,-41.662 66.439,-40.884 63.753,-40.107C60.609,-39.198 57.464,-38.294 54.321,-37.383C50.309,-36.221 46.299,-35.053 42.287,-33.892C38.947,-32.926 35.603,-31.972 32.263,-31.003C28.252,-29.84 24.245,-28.66 20.233,-27.5C15.992,-26.273 11.745,-25.064 7.503,-23.84C2.738,-22.464 -2.026,-21.081 -6.79,-19.698C-11.701,-18.273 -16.611,-16.841 -21.525,-15.427C-21.86,-15.331 -22.025,-15.205 -22.023,-14.847C-22.013,-13.567 -22.019,-12.287 -22.019,-11.007M53.447,-89.172C96.823,-89.053 132.817,-54.027 132.15,-9.025C131.528,32.929 97.349,69.025 51.899,68.277C9.786,67.584 -25.437,33.521 -25.263,-10.835C-25.094,-54.104 9.675,-88.95 53.447,-89.172" style="fill:rgb(220,225,214);fill-rule:nonzero;"/>
                </g>
                <g transform="matrix(1,0,0,1,2389.99,1327.53)">
                    <path d="M0,-45.054C-0.059,-45.385 -0.108,-45.968 -0.273,-46.514C-0.562,-47.467 -1.241,-47.742 -2.146,-47.334C-3.236,-46.843 -3.782,-45.88 -4.25,-44.863C-5.129,-42.95 -5.517,-40.915 -5.693,-38.834C-5.746,-38.208 -5.42,-37.92 -4.734,-37.959C-3.84,-38.009 -3.095,-38.405 -2.468,-39.018C-0.843,-40.602 -0.164,-42.59 0,-45.054M-113.655,-5.622C-115.829,-5.622 -117.884,-5.006 -119.325,-3.929C-120.337,-3.173 -121.054,-2.217 -121.105,-0.906C-121.202,1.576 -118.713,3.459 -116.215,2.829C-114.073,2.289 -112.561,0.919 -111.348,-0.844C-110.705,-1.779 -110.231,-2.799 -110.034,-3.924C-109.902,-4.676 -109.974,-4.773 -110.644,-5.056C-111.633,-5.476 -112.666,-5.66 -113.655,-5.622M-98.632,-21.974L-98.688,-21.974C-98.688,-23.204 -98.662,-24.434 -98.696,-25.663C-98.731,-26.974 -98.81,-28.284 -98.904,-29.593C-98.916,-29.765 -99.127,-29.923 -99.246,-30.088C-99.388,-29.942 -99.606,-29.819 -99.66,-29.645C-99.932,-28.767 -100.171,-27.878 -100.405,-26.989C-101.189,-24.007 -101.993,-21.029 -102.741,-18.038C-103.584,-14.666 -104.379,-11.282 -105.186,-7.901C-105.338,-7.264 -105.145,-6.946 -104.551,-6.698C-102.989,-6.049 -101.335,-5.808 -99.676,-5.605C-99.077,-5.532 -98.671,-5.852 -98.547,-6.478C-98.454,-6.944 -98.376,-7.426 -98.39,-7.898C-98.451,-9.962 -98.588,-12.023 -98.621,-14.086C-98.663,-16.715 -98.632,-19.345 -98.632,-21.974M-8.838,-30.792C-9.302,-29.76 -9.685,-28.871 -10.098,-27.997C-10.819,-26.47 -11.717,-25.068 -13.081,-24.023C-14.07,-23.265 -15.19,-22.859 -16.433,-22.774C-17.583,-22.695 -18.397,-23.241 -19.006,-24.148C-19.778,-25.297 -20.112,-26.607 -20.224,-27.959C-20.394,-29.999 -20.078,-32.011 -19.76,-34.022C-19.43,-36.11 -19.005,-38.193 -19.127,-40.328C-19.134,-40.447 -19.137,-40.567 -19.15,-40.686C-19.28,-41.839 -20.042,-42.257 -21.095,-41.734C-22.684,-40.944 -23.661,-39.629 -24.235,-37.988C-24.983,-35.85 -25.088,-33.615 -25.24,-31.382C-25.447,-28.351 -25.705,-25.324 -25.96,-22.297C-26.004,-21.773 -26.16,-21.258 -26.236,-20.735C-26.309,-20.227 -26.629,-19.934 -27.072,-19.797C-27.523,-19.659 -27.996,-19.547 -28.464,-19.521C-29.142,-19.485 -29.381,-19.722 -29.473,-20.405C-29.531,-20.838 -29.554,-21.276 -29.701,-21.754C-29.827,-21.57 -29.957,-21.388 -30.078,-21.2C-31.21,-19.436 -32.692,-18.098 -34.72,-17.455C-36.496,-16.892 -38.126,-17.654 -38.891,-19.371C-39.002,-19.619 -39.089,-19.877 -39.226,-20.23C-39.375,-20.07 -39.507,-19.964 -39.594,-19.829C-40.133,-18.999 -40.622,-18.135 -41.201,-17.334C-42.381,-15.701 -43.89,-14.488 -45.947,-14.231C-46.789,-14.125 -47.67,-14.292 -48.53,-14.374C-49.274,-14.445 -50.012,-14.6 -50.757,-14.664C-51.627,-14.739 -52.353,-14.385 -52.971,-13.786C-53.314,-13.453 -53.677,-13.142 -54.016,-12.805C-54.701,-12.125 -56.217,-12.899 -56.429,-13.721C-56.471,-13.882 -56.407,-14.092 -56.338,-14.257C-55.09,-17.201 -53.497,-19.964 -51.889,-22.72C-50.489,-25.121 -49.07,-27.513 -47.683,-29.922C-47.405,-30.405 -47.174,-30.931 -47.024,-31.467C-46.857,-32.064 -47.034,-32.379 -47.623,-32.505C-49.228,-32.851 -50.829,-32.974 -52.385,-32.239C-53.779,-31.582 -54.518,-30.373 -54.966,-29.011C-55.444,-27.559 -55.84,-26.065 -56.104,-24.56C-56.758,-20.828 -57.727,-17.193 -59.32,-13.754C-60.232,-11.786 -61.569,-10.128 -63.582,-9.142C-64.392,-8.745 -65.258,-8.562 -66.16,-8.595C-67.073,-8.628 -67.755,-9.145 -68.391,-9.727C-69.073,-10.352 -69.273,-10.324 -69.742,-9.532C-70.665,-7.974 -71.897,-6.758 -73.635,-6.143C-75.682,-5.418 -77.32,-6.186 -78.126,-8.221C-78.213,-8.441 -78.299,-8.66 -78.43,-8.99C-78.572,-8.752 -78.681,-8.596 -78.762,-8.428C-79.635,-6.62 -80.723,-4.991 -82.434,-3.853C-83.338,-3.252 -84.332,-2.888 -85.4,-2.83C-86.519,-2.769 -87.379,-3.336 -87.934,-4.281C-88.249,-4.819 -88.429,-5.435 -88.668,-6.017C-88.71,-6.122 -88.744,-6.23 -88.797,-6.378C-88.904,-6.276 -88.992,-6.218 -89.045,-6.138C-90.186,-4.408 -91.932,-3.589 -93.809,-2.977C-94.579,-2.726 -94.791,-2.574 -94.8,-1.764C-94.812,-0.659 -94.75,0.449 -94.672,1.553C-94.578,2.897 -94.385,4.239 -94.762,5.57C-94.943,6.206 -95.131,6.249 -95.641,5.865C-96.021,5.58 -96.436,5.338 -96.855,5.111C-98.072,4.453 -98.592,3.505 -98.476,2.125C-98.402,1.257 -98.294,0.389 -98.281,-0.48C-98.253,-2.203 -98.595,-2.617 -100.262,-2.949C-101.783,-3.253 -103.31,-3.533 -104.837,-3.807C-105.747,-3.971 -106.213,-3.771 -106.666,-2.953C-107.326,-1.76 -107.928,-0.534 -108.576,0.666C-109.37,2.134 -110.291,3.508 -111.703,4.464C-113.573,5.73 -115.643,6.183 -117.882,5.963C-119.269,5.827 -120.56,5.42 -121.703,4.625C-123.737,3.21 -124.55,1.224 -124.385,-1.218C-124.176,-4.325 -122.352,-6.203 -119.69,-7.449C-118.233,-8.131 -116.675,-8.464 -115.087,-8.553C-114.213,-8.602 -113.324,-8.411 -112.443,-8.322C-111.731,-8.249 -111.021,-8.127 -110.308,-8.099C-109.464,-8.066 -108.791,-8.428 -108.5,-9.252C-108.092,-10.407 -107.695,-11.57 -107.384,-12.754C-106.742,-15.194 -106.164,-17.651 -105.551,-20.099C-104.711,-23.457 -103.899,-26.823 -103,-30.165C-102.689,-31.323 -102.242,-32.466 -101.696,-33.533C-101.169,-34.562 -100.209,-35.191 -99.05,-35.364C-97.587,-35.582 -96.46,-34.798 -95.903,-33.322C-95.409,-32.014 -95.38,-30.646 -95.355,-29.285C-95.251,-23.751 -95.185,-18.216 -95.092,-12.682C-95.064,-11.043 -95.003,-9.405 -94.938,-7.767C-94.923,-7.395 -94.856,-7.018 -94.758,-6.658C-94.551,-5.901 -93.591,-5.592 -92.753,-6.073C-91.287,-6.915 -90.111,-8.09 -89.66,-9.739C-89.117,-11.724 -88.663,-13.747 -88.357,-15.781C-87.904,-18.801 -87.602,-21.843 -87.261,-24.879C-87.026,-26.966 -86.849,-29.059 -86.615,-31.145C-86.521,-31.992 -86.378,-32.836 -86.188,-33.666C-86.129,-33.928 -85.893,-34.212 -85.659,-34.359C-84.99,-34.777 -84.272,-35.094 -83.446,-35.042C-83.081,-35.019 -82.855,-34.878 -82.864,-34.49C-82.896,-33.182 -82.872,-31.867 -82.988,-30.565C-83.155,-28.696 -83.426,-26.836 -83.655,-24.972C-83.931,-22.736 -84.226,-20.503 -84.482,-18.265C-84.67,-16.62 -84.82,-14.97 -84.968,-13.321C-85.084,-12.03 -85.239,-10.737 -85.25,-9.444C-85.257,-8.517 -85.127,-7.572 -84.923,-6.666C-84.746,-5.877 -84.018,-5.618 -83.369,-6.105C-82.834,-6.505 -82.325,-7.012 -81.981,-7.579C-80.46,-10.084 -79.283,-12.756 -78.577,-15.6C-78.238,-16.967 -78.13,-18.395 -77.97,-19.802C-77.686,-22.295 -77.442,-24.793 -77.18,-27.288C-77.122,-27.845 -76.916,-28.309 -76.345,-28.518C-75.725,-28.745 -75.118,-29.034 -74.479,-29.169C-73.849,-29.302 -73.567,-29.024 -73.491,-28.376C-73.459,-28.106 -73.451,-27.827 -73.48,-27.557C-73.685,-25.639 -73.908,-23.723 -74.115,-21.805C-74.285,-20.227 -74.445,-18.647 -74.602,-17.068C-74.762,-15.454 -74.94,-13.841 -75.054,-12.224C-75.103,-11.533 -75.084,-10.819 -74.962,-10.14C-74.779,-9.11 -73.902,-8.735 -73.106,-9.382C-72.512,-9.865 -71.984,-10.49 -71.596,-11.151C-70.483,-13.053 -69.76,-15.122 -69.461,-17.303C-68.972,-20.869 -68.568,-24.446 -68.124,-28.018C-68.039,-28.695 -67.923,-29.367 -67.837,-30.043C-67.742,-30.793 -67.276,-31.231 -66.621,-31.492C-66.179,-31.669 -65.725,-31.829 -65.262,-31.933C-64.506,-32.103 -64.105,-31.813 -64.065,-31.031C-64.031,-30.368 -64.045,-29.695 -64.124,-29.037C-64.458,-26.276 -64.835,-23.521 -65.177,-20.761C-65.407,-18.899 -65.64,-17.036 -65.802,-15.167C-65.87,-14.377 -65.808,-13.566 -65.714,-12.775C-65.646,-12.203 -65.367,-11.692 -64.733,-11.522C-64.173,-11.371 -63.792,-11.718 -63.429,-12.052C-62.416,-12.985 -61.733,-14.154 -61.207,-15.399C-60.131,-17.948 -59.259,-20.566 -58.687,-23.279C-58.198,-25.598 -57.731,-27.923 -57.19,-30.229C-56.81,-31.847 -56.215,-33.381 -55.183,-34.729C-54.382,-35.775 -53.329,-36.329 -52.071,-36.495C-51.143,-36.618 -50.196,-36.592 -49.265,-36.692C-47.844,-36.844 -46.426,-37.024 -45.014,-37.244C-44.662,-37.299 -44.298,-37.499 -44.013,-37.726C-43.436,-38.184 -42.825,-38.054 -41.984,-37.389C-41.424,-36.947 -41.341,-36.486 -41.713,-35.748C-42.15,-34.88 -42.637,-34.038 -43.109,-33.189C-44.735,-30.269 -46.372,-27.354 -47.989,-24.43C-48.781,-22.999 -49.575,-21.567 -50.301,-20.103C-50.786,-19.125 -50.622,-18.79 -49.593,-18.491C-48.081,-18.052 -46.52,-17.835 -44.991,-18.284C-43.281,-18.786 -42.219,-20.11 -41.402,-21.609C-40.092,-24.009 -39.499,-26.638 -39.108,-29.314C-38.656,-32.403 -38.265,-35.501 -37.811,-38.59C-37.625,-39.857 -36.806,-40.542 -35.521,-40.633C-35.317,-40.647 -35.108,-40.656 -34.906,-40.631C-34.483,-40.578 -34.196,-40.365 -34.226,-39.896C-34.301,-38.721 -34.342,-37.542 -34.479,-36.374C-34.751,-34.069 -35.11,-31.775 -35.375,-29.47C-35.603,-27.487 -35.786,-25.497 -35.916,-23.506C-35.964,-22.768 -35.877,-22.001 -35.719,-21.276C-35.476,-20.165 -34.541,-19.806 -33.698,-20.542C-33.044,-21.115 -32.438,-21.817 -32.024,-22.577C-30.599,-25.195 -29.528,-27.966 -28.98,-30.904C-28.689,-32.462 -28.539,-34.048 -28.374,-35.627C-28.17,-37.578 -28.018,-39.535 -27.84,-41.489C-27.779,-42.156 -27.072,-42.647 -26.44,-42.447C-25.97,-42.298 -25.512,-42.113 -25.051,-41.938C-24.623,-41.775 -24.317,-41.923 -24.009,-42.243C-23.146,-43.137 -22.309,-44.069 -21.359,-44.864C-20.107,-45.91 -18.667,-46.03 -17.189,-45.316C-16.383,-44.926 -15.948,-44.258 -15.748,-43.383C-15.223,-41.097 -15.521,-38.835 -15.858,-36.567C-16.245,-33.97 -16.851,-31.392 -16.674,-28.739C-16.633,-28.114 -16.508,-27.487 -16.351,-26.879C-16.087,-25.856 -15.487,-25.544 -14.552,-26.044C-13.987,-26.346 -13.444,-26.805 -13.065,-27.322C-11.915,-28.89 -11.118,-30.664 -10.65,-32.539C-10.048,-34.952 -9.613,-37.406 -9.098,-39.841C-8.626,-42.076 -8.289,-44.362 -7.271,-46.431C-6.149,-48.711 -4.293,-50.187 -1.813,-50.791C0.29,-51.303 2.202,-50.182 2.861,-47.975C3.706,-45.152 3.525,-42.398 1.857,-39.872C0.526,-37.858 -1.419,-36.683 -3.681,-35.974C-4.022,-35.867 -4.361,-35.751 -4.704,-35.648C-5.402,-35.436 -5.735,-34.971 -5.857,-34.245C-6.144,-32.536 -5.131,-30.327 -3.688,-29.684C-2.659,-29.225 -1.632,-29.369 -0.674,-29.857C1.723,-31.078 3.434,-32.985 4.618,-35.375C5.512,-37.179 6.326,-39.015 6.753,-41.001C6.849,-41.449 6.973,-41.939 7.608,-42.005C8.489,-42.097 9.029,-41.606 8.849,-40.734C7.925,-36.261 6.038,-32.291 2.589,-29.201C0.723,-27.529 -1.535,-26.761 -4.034,-26.75C-6.161,-26.741 -7.888,-28.025 -8.552,-30.044C-8.62,-30.25 -8.707,-30.451 -8.838,-30.792" style="fill:rgb(220,225,214);fill-rule:nonzero;"/>
                </g>
                <g transform="matrix(0.0390501,0.999237,0.999237,-0.0390501,2354.01,1279.61)">
                    <path d="M2.082,-2.321C0.736,-2.312 -0.079,-1.122 -0.057,0.349C-0.041,1.393 0.972,2.265 2.082,2.161C3.716,2.007 4.628,0.819 4.563,-0.437C4.506,-1.569 3.434,-2.382 2.082,-2.321" style="fill:rgb(220,225,214);fill-rule:nonzero;"/>
                </g>
                <g transform="matrix(1,0,0,1,2298.32,1251.38)">
                    <path d="M0,-7.456C0.614,-7.771 1.192,-8.096 1.798,-8.354C1.909,-8.401 2.185,-8.219 2.301,-8.076C3.415,-6.694 4.509,-5.297 5.612,-3.906C6.006,-3.41 6.407,-2.919 6.805,-2.426C6.841,-2.45 6.877,-2.473 6.912,-2.496C6.865,-2.615 6.828,-2.737 6.771,-2.85C5.781,-4.793 4.802,-6.743 3.787,-8.672C3.55,-9.123 3.572,-9.373 4.069,-9.55C4.355,-9.652 4.622,-9.805 4.938,-9.954C5.033,-9.799 5.13,-9.663 5.205,-9.516C6.704,-6.589 8.2,-3.66 9.698,-0.732C10.03,-0.083 10.03,-0.084 9.379,0.241C9.059,0.401 8.718,0.533 8.429,0.738C8.027,1.021 7.789,0.908 7.512,0.549C6.117,-1.262 4.702,-3.058 3.292,-4.858C3.158,-5.03 3.011,-5.19 2.774,-5.3C3.176,-4.503 3.574,-3.704 3.98,-2.909C4.686,-1.528 5.386,-0.144 6.113,1.226C6.323,1.623 6.295,1.839 5.865,2.053C5.041,2.465 5.036,2.498 4.607,1.667C3.118,-1.227 1.641,-4.127 0.161,-7.026C0.108,-7.132 0.077,-7.249 0,-7.456" style="fill:rgb(220,225,214);fill-rule:nonzero;"/>
                </g>
                <g transform="matrix(1,0,0,1,2330.89,1243.36)">
                    <path d="M0,-4.742C-0.036,-3.997 -0.081,-3.294 -0.101,-2.591C-0.15,-0.817 -0.194,0.958 -0.223,2.732C-0.229,3.098 -0.306,3.241 -0.723,3.201C-1.725,3.106 -1.735,3.131 -1.713,2.103C-1.643,-1.07 -1.572,-4.243 -1.48,-7.415C-1.476,-7.575 -1.284,-7.858 -1.166,-7.865C-0.624,-7.9 -0.073,-7.887 0.466,-7.824C0.622,-7.806 0.849,-7.584 0.878,-7.425C1.231,-5.496 1.552,-3.562 1.885,-1.63C1.965,-1.164 2.058,-0.7 2.259,-0.226C2.283,-0.356 2.326,-0.487 2.329,-0.618C2.377,-2.426 2.419,-4.234 2.461,-6.042C2.466,-6.213 2.452,-6.384 2.464,-6.554C2.571,-8.1 2.376,-7.744 3.757,-7.8C4.046,-7.811 4.148,-7.707 4.14,-7.415C4.041,-3.97 3.947,-0.525 3.865,2.921C3.856,3.274 3.697,3.358 3.388,3.343C2.945,3.322 2.499,3.286 2.058,3.32C1.626,3.353 1.437,3.188 1.375,2.775C1.234,1.848 1.074,0.924 0.919,-0.001C0.66,-1.549 0.398,-3.095 0.135,-4.642C0.131,-4.663 0.088,-4.678 0,-4.742" style="fill:rgb(220,225,214);fill-rule:nonzero;"/>
                </g>
                <g transform="matrix(1,0,0,1,2318.61,1242.88)">
                    <path d="M0,-1.308C1.081,-1.437 1.449,-1.651 1.396,-2.237C1.327,-2.995 1.164,-3.751 0.966,-4.487C0.85,-4.919 -0.277,-5.004 -0.532,-4.632C-0.575,-4.57 -0.583,-4.466 -0.57,-4.389C-0.385,-3.369 -0.194,-2.35 0,-1.308M-0.533,5.106C-1.218,1.472 -1.896,-2.122 -2.599,-5.851C-1.282,-6.031 -0.027,-6.236 1.235,-6.358C1.816,-6.414 2.301,-6.049 2.441,-5.502C2.701,-4.487 2.917,-3.45 3.012,-2.409C3.05,-1.996 2.719,-1.55 2.533,-1.055C2.653,-0.99 2.932,-0.922 3.07,-0.744C3.302,-0.446 3.526,-0.096 3.609,0.265C3.901,1.539 4.132,2.828 4.401,4.188C3.959,4.27 3.531,4.396 3.099,4.405C2.947,4.409 2.692,4.154 2.648,3.976C2.432,3.1 2.272,2.21 2.091,1.325C2.054,1.142 2.029,0.955 1.976,0.776C1.762,0.051 1.273,-0.207 0.58,0.082C0.462,0.132 0.353,0.408 0.376,0.559C0.514,1.469 0.692,2.373 0.855,3.279C0.904,3.547 0.945,3.817 0.998,4.084C1.149,4.853 1.15,4.851 0.354,4.959C0.202,4.98 0.054,5.024 -0.097,5.05C-0.225,5.072 -0.354,5.083 -0.533,5.106" style="fill:rgb(220,225,214);fill-rule:nonzero;"/>
                </g>
                <g transform="matrix(1,0,0,1,2290.75,1257.75)">
                    <path d="M0,-2.705C-1.047,-3.877 -2.064,-5.016 -3.124,-6.203C-2.735,-6.559 -2.404,-6.898 -2.029,-7.177C-1.952,-7.234 -1.658,-7.117 -1.551,-7C-0.603,-5.972 0.326,-4.925 1.26,-3.884C2.583,-2.411 3.897,-0.93 5.237,0.527C5.517,0.831 5.492,1.013 5.209,1.276C4.333,2.092 4.335,2.103 3.526,1.213C2.688,0.292 1.861,-0.637 0.985,-1.613C0.519,-1.209 0.075,-0.823 -0.432,-0.384C0.143,0.262 0.694,0.884 1.247,1.502C1.691,1.998 2.126,2.503 2.59,2.98C2.844,3.241 2.805,3.406 2.556,3.645C1.647,4.517 1.65,4.529 0.813,3.599C-1.298,1.253 -3.402,-1.1 -5.518,-3.442C-5.757,-3.706 -5.743,-3.867 -5.481,-4.109C-4.563,-4.957 -4.57,-4.969 -3.737,-4.05C-3.062,-3.305 -2.381,-2.562 -1.726,-1.798C-1.493,-1.527 -1.321,-1.495 -1.062,-1.749C-0.737,-2.07 -0.384,-2.362 0,-2.705" style="fill:rgb(220,225,214);fill-rule:nonzero;"/>
                </g>
                <g transform="matrix(1,0,0,1,2285.61,1264.9)">
                    <path d="M0,-7.295C-0.337,-6.907 -0.643,-6.526 -0.988,-6.185C-1.046,-6.126 -1.289,-6.207 -1.419,-6.277C-1.671,-6.412 -1.89,-6.676 -2.149,-6.716C-2.43,-6.759 -2.82,-6.693 -3.013,-6.513C-3.187,-6.352 -3.263,-5.942 -3.191,-5.697C-3.097,-5.374 -2.863,-5.054 -2.608,-4.822C-1.179,-3.527 0.266,-2.249 1.722,-0.984C2.529,-0.282 3.183,-0.381 3.702,-1.264C3.773,-1.386 3.77,-1.666 3.683,-1.747C3.024,-2.362 2.335,-2.946 1.667,-3.529C1.382,-3.311 1.058,-2.914 0.898,-2.972C0.523,-3.106 0.226,-3.459 -0.151,-3.761C0.458,-4.461 1.025,-5.112 1.654,-5.835C2.106,-5.436 2.534,-5.058 2.963,-4.681C3.835,-3.915 4.703,-3.143 5.583,-2.386C5.832,-2.172 5.9,-1.978 5.686,-1.7C5.176,-1.039 4.73,-0.32 4.165,0.288C3.147,1.382 2.053,1.478 0.898,0.535C-0.568,-0.663 -1.971,-1.939 -3.387,-3.197C-3.794,-3.558 -4.184,-3.947 -4.523,-4.371C-5.084,-5.073 -5.143,-5.889 -4.649,-6.613C-4.234,-7.219 -3.701,-7.779 -3.119,-8.227C-2.408,-8.773 -1.702,-8.698 -0.991,-8.163C-0.667,-7.918 -0.377,-7.627 0,-7.295" style="fill:rgb(220,225,214);fill-rule:nonzero;"/>
                </g>
                <g transform="matrix(1,0,0,1,2311.29,1248.26)">
                    <path d="M0,-6.74C-0.218,-6.641 -0.367,-6.558 -0.526,-6.503C-0.847,-6.392 -1.205,-6.164 -1.486,-6.234C-1.697,-6.287 -1.796,-6.739 -1.972,-6.994C-2.211,-7.342 -2.491,-7.649 -2.982,-7.51C-3.467,-7.373 -3.721,-7.064 -3.61,-6.493C-3.469,-5.763 -3.222,-5.05 -2.972,-4.347C-2.51,-3.047 -2.017,-1.758 -1.524,-0.469C-1.428,-0.217 -1.308,0.04 -1.139,0.245C-0.723,0.749 0.171,0.744 0.581,0.239C0.65,0.155 0.625,-0.047 0.582,-0.174C0.353,-0.833 0.066,-1.475 -0.126,-2.144C-0.263,-2.623 -0.48,-2.707 -0.891,-2.496C-0.994,-2.444 -1.116,-2.43 -1.218,-2.402C-1.261,-2.432 -1.301,-2.446 -1.314,-2.472C-1.893,-3.628 -1.893,-3.628 -0.712,-4.081C-0.347,-4.221 0.025,-4.348 0.383,-4.505C0.679,-4.636 0.816,-4.535 0.919,-4.252C1.464,-2.765 2.017,-1.28 2.575,0.202C2.695,0.521 2.679,0.77 2.328,0.913C1.386,1.296 0.468,1.753 -0.502,2.039C-1.418,2.309 -2.226,1.929 -2.657,1.08C-3.116,0.172 -3.458,-0.797 -3.824,-1.75C-4.277,-2.926 -4.719,-4.107 -5.138,-5.296C-5.889,-7.426 -5.033,-8.298 -3.116,-8.895C-2.812,-8.989 -2.477,-9.004 -2.155,-9.018C-1.395,-9.049 -0.835,-8.72 -0.52,-8.02C-0.34,-7.619 -0.187,-7.204 0,-6.74" style="fill:rgb(220,225,214);fill-rule:nonzero;"/>
                </g>
                <g transform="matrix(1,0,0,1,2344.43,1246.06)">
                    <path d="M0,-6.56C-0.046,-6.573 -0.092,-6.586 -0.137,-6.599C-0.723,-5.237 -1.308,-3.875 -1.921,-2.448C-1.316,-2.315 -0.795,-2.2 -0.204,-2.07C-0.133,-3.618 -0.067,-5.089 0,-6.56M-5.277,1.13C-4.801,0.112 -4.366,-0.828 -3.922,-1.763C-2.809,-4.101 -1.684,-6.434 -0.585,-8.778C-0.447,-9.072 -0.315,-9.167 -0.005,-9.073C0.465,-8.931 1.106,-8.961 1.371,-8.656C1.609,-8.381 1.451,-7.752 1.445,-7.28C1.407,-4.155 1.358,-1.03 1.325,2.095C1.321,2.456 1.21,2.607 0.843,2.52C0.527,2.446 0.197,2.414 -0.1,2.295C-0.222,2.247 -0.341,2.022 -0.343,1.875C-0.353,1.193 -0.341,0.509 -0.297,-0.173C-0.277,-0.494 -0.365,-0.639 -0.69,-0.695C-1.143,-0.773 -1.591,-0.887 -2.035,-1.007C-2.346,-1.091 -2.539,-1.049 -2.665,-0.704C-2.875,-0.129 -3.153,0.421 -3.374,0.992C-3.511,1.347 -3.693,1.525 -4.099,1.403C-4.454,1.295 -4.823,1.233 -5.277,1.13" style="fill:rgb(220,225,214);fill-rule:nonzero;"/>
                </g>
                <g transform="matrix(1,0,0,1,2357.16,1248.44)">
                    <path d="M0,-3.905C0.142,-4.234 0.275,-4.528 0.398,-4.827C0.593,-5.301 0.471,-5.65 0.047,-5.86C-0.358,-6.06 -0.745,-5.938 -1.017,-5.551C-1.625,-4.688 -1.406,-3.8 -1.117,-2.905C-0.857,-2.093 -0.541,-1.293 -0.364,-0.463C-0.062,0.953 -0.631,2.116 -1.652,3.057C-2.095,3.466 -2.674,3.568 -3.285,3.434C-4,3.277 -4.649,2.996 -5.186,2.493C-5.792,1.925 -5.963,1.154 -5.651,0.388C-5.504,0.025 -5.317,-0.322 -5.167,-0.683C-5.063,-0.933 -4.934,-0.948 -4.689,-0.856C-3.485,-0.404 -3.482,-0.412 -3.934,0.77C-4.139,1.307 -4.004,1.729 -3.557,1.947C-3.11,2.164 -2.693,2.023 -2.385,1.541C-1.872,0.741 -1.912,-0.077 -2.22,-0.953C-2.575,-1.96 -2.946,-2.982 -3.113,-4.03C-3.301,-5.207 -2.835,-6.256 -1.892,-7.014C-1.621,-7.231 -1.22,-7.35 -0.865,-7.387C-0.046,-7.473 0.676,-7.153 1.317,-6.667C2.203,-5.995 2.391,-5.241 1.919,-4.24C1.327,-2.983 1.707,-3.108 0.357,-3.685C0.249,-3.731 0.154,-3.809 0,-3.905" style="fill:rgb(220,225,214);fill-rule:nonzero;"/>
                </g>
                <g transform="matrix(1,0,0,1,2327.23,1246.99)">
                    <path d="M0,-11.443C0.298,-10.021 0.268,-9.983 -1.071,-9.911C-2.751,-9.821 -2.427,-9.937 -2.352,-8.444C-2.321,-7.834 -2.232,-7.227 -2.162,-6.539C-1.599,-6.592 -1.066,-6.648 -0.532,-6.692C0.255,-6.756 0.633,-6.304 0.409,-5.537C0.377,-5.427 0.166,-5.318 0.026,-5.3C-0.429,-5.239 -0.891,-5.217 -1.35,-5.187C-2.035,-5.142 -2.048,-5.144 -2.003,-4.479C-1.946,-3.644 -1.855,-2.813 -1.8,-1.978C-1.781,-1.687 -1.656,-1.585 -1.381,-1.612C-0.787,-1.671 -0.189,-1.7 0.401,-1.787C0.825,-1.849 0.955,-1.652 0.974,-1.289C0.98,-1.186 0.971,-1.081 0.99,-0.982C1.08,-0.528 0.915,-0.335 0.437,-0.31C-0.603,-0.254 -1.642,-0.175 -2.676,-0.058C-3.179,0 -3.34,-0.124 -3.382,-0.656C-3.623,-3.701 -3.912,-6.741 -4.181,-9.784C-4.318,-11.326 -4.54,-11.01 -2.973,-11.197C-1.994,-11.315 -1.008,-11.362 0,-11.443" style="fill:rgb(220,225,214);fill-rule:nonzero;"/>
                </g>
                <g transform="matrix(1,0,0,1,2290.66,1253.34)">
                    <path d="M0,-2.531C-0.054,-2.556 -0.073,-2.56 -0.084,-2.571C-1.021,-3.549 -1.014,-3.585 0.076,-4.37C1.045,-5.067 2.004,-5.779 2.97,-6.48C3.131,-6.597 3.306,-6.695 3.445,-6.783C3.516,-6.753 3.536,-6.751 3.546,-6.74C4.423,-5.75 4.438,-5.728 3.354,-4.982C2.93,-4.69 2.881,-4.513 3.204,-4.081C4.879,-1.841 6.515,0.427 8.163,2.687C8.282,2.85 8.388,3.023 8.53,3.235C8.139,3.522 7.776,3.794 7.406,4.057C7.132,4.252 7.009,4.024 6.879,3.848C5.47,1.92 4.062,-0.009 2.654,-1.937C2.342,-2.364 2.017,-2.782 1.72,-3.22C1.535,-3.493 1.365,-3.533 1.099,-3.323C0.74,-3.039 0.356,-2.785 0,-2.531" style="fill:rgb(220,225,214);fill-rule:nonzero;"/>
                </g>
                <g transform="matrix(1,0,0,1,2341.45,1246.3)">
                    <path d="M0,-9.947C-0.069,-9.511 -0.098,-9.154 -0.194,-8.815C-0.223,-8.712 -0.436,-8.597 -0.562,-8.599C-0.937,-8.604 -1.311,-8.658 -1.683,-8.708C-1.936,-8.742 -2.052,-8.667 -2.085,-8.395C-2.394,-5.889 -2.714,-3.384 -3.031,-0.88C-3.089,-0.423 -3.152,0.033 -3.213,0.49C-3.22,0.54 -3.23,0.634 -3.241,0.634C-3.695,0.652 -4.149,0.678 -4.603,0.665C-4.899,0.657 -4.94,0.441 -4.907,0.187C-4.754,-0.979 -4.608,-2.147 -4.458,-3.314C-4.241,-4.989 -4.032,-6.665 -3.797,-8.338C-3.729,-8.829 -3.837,-9.093 -4.386,-9.056C-4.552,-9.045 -4.722,-9.122 -4.891,-9.124C-5.447,-9.134 -5.599,-9.373 -5.495,-9.928C-5.371,-10.592 -5.416,-10.625 -4.755,-10.547C-3.199,-10.364 -1.646,-10.157 0,-9.947" style="fill:rgb(220,225,214);fill-rule:nonzero;"/>
                </g>
                <g transform="matrix(1,0,0,1,2275.33,1273.32)">
                    <path d="M0,-7.356C0.948,-6.755 1.867,-6.173 2.785,-5.591C4.426,-4.549 6.072,-3.517 7.701,-2.458C8.048,-2.232 8.225,-2.276 8.423,-2.621C8.703,-3.109 9.033,-3.568 9.324,-4.049C9.469,-4.289 9.612,-4.345 9.856,-4.18C10.897,-3.476 10.83,-3.737 10.222,-2.767C9.724,-1.972 9.2,-1.192 8.72,-0.387C8.513,-0.041 8.34,0 7.999,-0.219C5.347,-1.925 2.683,-3.613 0.025,-5.311C-0.949,-5.934 -0.946,-5.941 -0.322,-6.907C-0.232,-7.046 -0.129,-7.177 0,-7.356" style="fill:rgb(220,225,214);fill-rule:nonzero;"/>
                </g>
                <g transform="matrix(1,0,0,1,2346.24,1239.91)">
                    <path d="M0,8.988C0.242,8.248 0.459,7.555 0.695,6.869C1.609,4.214 2.536,1.564 3.436,-1.095C3.554,-1.446 3.673,-1.502 4.015,-1.39C5.177,-1.009 5.204,-1.015 4.826,0.112C3.991,2.595 3.143,5.074 2.273,7.546C2.108,8.014 2.144,8.268 2.665,8.399C3.142,8.519 3.599,8.715 4.071,8.855C4.408,8.954 4.516,9.144 4.387,9.466C3.978,10.49 4.279,10.448 3.151,10.072C2.121,9.728 1.098,9.366 0,8.988" style="fill:rgb(220,225,214);fill-rule:nonzero;"/>
                </g>
                <g transform="matrix(1,0,0,1,2286.5,1261.16)">
                    <path d="M0,8.003C-0.958,7.297 -1.875,6.624 -2.789,5.947C-4.677,4.545 -6.556,3.13 -8.459,1.748C-8.857,1.459 -8.85,1.251 -8.574,0.893C-7.899,0.016 -7.907,0 -7.027,0.652C-4.494,2.528 -1.97,4.418 0.571,6.283C0.95,6.561 1.014,6.774 0.685,7.123C0.443,7.379 0.248,7.68 0,8.003" style="fill:rgb(220,225,214);fill-rule:nonzero;"/>
                </g>
                <g transform="matrix(1,0,0,1,2300.95,1245.16)">
                    <path d="M0,10.222C-1.975,7.079 -3.914,3.993 -5.908,0.818C-5.478,0.549 -5.065,0.262 -4.621,0.039C-4.543,0 -4.279,0.198 -4.188,0.341C-3.107,2.037 -2.043,3.743 -0.974,5.446C-0.258,6.587 0.45,7.732 1.182,8.862C1.396,9.193 1.384,9.403 1.025,9.596C0.697,9.773 0.387,9.984 0,10.222" style="fill:rgb(220,225,214);fill-rule:nonzero;"/>
                </g>
                <g transform="matrix(1,0,0,1,2356.33,1355.38)">
                    <path d="M0,-2.792C0.357,-2.108 0.712,-1.422 1.073,-0.74C1.877,0.782 2.676,2.307 3.5,3.818C3.665,4.121 3.61,4.263 3.335,4.428C2.373,5.008 2.384,5.011 1.863,4.028C0.402,1.272 -1.062,-1.482 -2.529,-4.234C-2.901,-4.932 -2.909,-4.929 -2.234,-5.293C-2.054,-5.39 -1.872,-5.483 -1.69,-5.577C-0.761,-6.054 -0.987,-6.166 -0.231,-5.25C1.106,-3.631 2.43,-2.002 3.762,-0.38C3.89,-0.224 4.033,-0.08 4.261,0.012C3.964,-0.566 3.671,-1.147 3.366,-1.721C2.535,-3.287 1.707,-4.855 0.858,-6.411C0.698,-6.706 0.727,-6.886 1.019,-7.026C2.322,-7.653 1.97,-7.803 2.632,-6.571C4.124,-3.794 5.577,-0.996 7.075,1.779C7.314,2.222 7.202,2.408 6.801,2.591C6.399,2.774 6.001,2.976 5.626,3.21C5.327,3.398 5.143,3.335 4.936,3.076C3.481,1.267 2.018,-0.535 0.556,-2.339C0.412,-2.517 0.262,-2.69 0.114,-2.866C0.076,-2.841 0.038,-2.817 0,-2.792" style="fill:rgb(220,225,214);fill-rule:nonzero;"/>
                </g>
                <g transform="matrix(1,0,0,1,2348.04,1357.42)">
                    <path d="M0,2.392C0.64,2.176 1.144,2.005 1.679,1.824C0.947,0.437 0.262,-0.857 -0.422,-2.152C-0.468,-2.133 -0.513,-2.114 -0.558,-2.095C-0.376,-0.633 -0.194,0.83 0,2.392M-1.122,7.193C-1.206,6.166 -1.28,5.235 -1.358,4.304C-1.582,1.652 -1.802,-1 -2.038,-3.65C-2.075,-4.072 -1.987,-4.283 -1.528,-4.41C-0.216,-4.771 -0.219,-4.801 0.446,-3.614C1.985,-0.862 3.519,1.894 5.053,4.649C5.134,4.796 5.197,4.953 5.296,5.165C4.82,5.321 4.38,5.491 3.926,5.596C3.812,5.622 3.593,5.468 3.52,5.342C3.172,4.736 2.847,4.117 2.537,3.492C2.403,3.222 2.25,3.164 1.969,3.27C1.523,3.438 1.069,3.601 0.605,3.701C0.211,3.786 0.169,4.003 0.215,4.332C0.302,4.958 0.364,5.586 0.455,6.211C0.501,6.525 0.457,6.728 0.094,6.808C-0.283,6.892 -0.647,7.039 -1.122,7.193" style="fill:rgb(220,225,214);fill-rule:nonzero;"/>
                </g>
                <g transform="matrix(1,0,0,1,2340.91,1363.95)">
                    <path d="M0,-7.991C0.197,-6.974 0.375,-5.987 0.594,-5.008C0.623,-4.88 0.86,-4.727 1.011,-4.713C1.221,-4.694 1.44,-4.807 1.657,-4.846C2.109,-4.928 2.307,-5.199 2.252,-5.644C2.2,-6.066 2.132,-6.487 2.055,-6.906C1.788,-8.377 1.44,-8.565 0,-7.991M4.07,-5.532C3.975,-4.289 3.613,-3.825 2.423,-3.531C2.241,-3.486 2.061,-3.429 1.877,-3.391C0.97,-3.204 0.957,-3.203 1.135,-2.295C1.341,-1.24 1.559,-0.188 1.799,0.86C1.902,1.308 1.849,1.514 1.318,1.612C-0.039,1.864 0.253,1.892 -0.007,0.686C-0.528,-1.731 -1.002,-4.158 -1.494,-6.58C-1.633,-7.265 -1.765,-7.952 -1.905,-8.636C-1.972,-8.967 -1.928,-9.169 -1.516,-9.234C-0.573,-9.381 0.354,-9.653 1.301,-9.749C2.607,-9.883 3.084,-9.567 3.464,-8.322C3.741,-7.415 3.873,-6.464 4.07,-5.532" style="fill:rgb(220,225,214);fill-rule:nonzero;"/>
                </g>
                <g transform="matrix(1,0,0,1,2333.69,1357.18)">
                    <path d="M0,7.024C-0.022,6.766 -0.018,6.626 -0.048,6.495C-0.126,6.163 0.019,6.011 0.334,5.978C0.368,5.975 0.402,5.97 0.436,5.965C1.581,5.804 1.581,5.803 1.711,6.931C1.78,7.526 2.136,7.917 2.583,7.888C3.158,7.85 3.416,7.509 3.445,6.833C3.478,6.081 3.228,5.465 2.666,4.967C1.938,4.323 1.181,3.707 0.498,3.018C-0.542,1.969 -0.829,0.678 -0.375,-0.709C-0.242,-1.115 0.154,-1.511 0.532,-1.744C1.312,-2.223 2.214,-2.194 3.069,-1.986C3.905,-1.783 4.296,-1.211 4.356,-0.343C4.36,-0.292 4.359,-0.24 4.362,-0.189C4.425,0.952 4.425,0.936 3.266,0.99C2.906,1.007 2.822,0.867 2.811,0.557C2.802,0.321 2.757,0.083 2.708,-0.15C2.612,-0.618 2.308,-0.795 1.846,-0.74C1.404,-0.686 1.195,-0.429 1.145,0.003C1.03,0.983 1.554,1.656 2.212,2.264C2.801,2.808 3.419,3.321 3.992,3.881C5.126,4.99 5.309,6.361 4.893,7.81C4.617,8.771 3.772,9.115 2.867,9.197C2.319,9.247 1.73,9.206 1.205,9.052C0.465,8.834 0.117,8.217 0.025,7.465C0.002,7.279 0.003,7.09 0,7.024" style="fill:rgb(220,225,214);fill-rule:nonzero;"/>
                </g>
                <g transform="matrix(1,0,0,1,2356.16,1351.67)">
                    <path d="M0,9.58C-0.061,9.653 -0.109,9.761 -0.189,9.797C-0.545,9.959 -0.902,10.133 -1.277,10.23C-1.39,10.259 -1.642,10.081 -1.699,9.944C-2.78,7.352 -3.841,4.751 -4.907,2.152C-5.139,1.586 -5.373,1.02 -5.611,0.456C-5.74,0.153 -5.702,-0.018 -5.353,-0.169C-4.216,-0.658 -4.217,-0.679 -3.736,0.489C-2.53,3.417 -1.332,6.347 -0.13,9.276C-0.091,9.37 -0.05,9.463 0,9.58" style="fill:rgb(220,225,214);fill-rule:nonzero;"/>
                </g>
            </g>
        </g>
    </g>
</svg>
