<?xml version="1.0" encoding="utf-8"?>
<!-- Generator: Adobe Illustrator 22.0.1, SVG Export Plug-In . SVG Version: 6.00 Build 0)  -->
<svg version="1.1" id="Capa_1" xmlns="http://www.w3.org/2000/svg" xmlns:xlink="http://www.w3.org/1999/xlink" x="0px" y="0px"
	 viewBox="0 0 392.9 202.9" style="enable-background:new 0 0 392.9 202.9;" xml:space="preserve">
<style type="text/css">
	.st0{fill:#DCE1D6;}
</style>
<g transform="matrix(0.324302,0,0,0.198493,150.42,568.751)">
	<path class="st0" d="M-298.6-2148.1h-165.2v-563h29.2l138.9,242.9l137.6-242.9h33.3v429L3-2711h36.1l112.5,385.9V-2711h216.8v127.1
		H242v124.9h111.2v129.4H240.6v181.6H110l-22.9-68.4l-137.9,1.6l-18.5,66.8h-219.6c-0.1-7.2-0.3-14.4-0.4-21.6
		c10.5-11.3,24.9-24.3,43-34.2c13.3-7.3,25.5-11.3,35.6-13.4c0.2,1.2,1,5.5,3.6,8.4c3.7,4.1,7.9,1.6,8.3,1.3
		c5.4-2.6,9-10.7,8.7-19.4c-0.2-9.6-5-17.7-11.2-18.5c-1.1,0.2-4.9,1-8.1,6.3c-3.5,5.9-3.7,13.1-3.7,14.7c-4.7,0.8-9.5,1.6-14.3,2.6
		c-9.4,1.9-18.4,4-27.2,6.3c10.3-13.2,20.5-26.4,30.8-39.6c1,1,4.2,4,8.5,3.4c3.3-0.5,5.6-2.9,6.6-4.2c3.5-5.2,4.8-13,3.4-19.8
		c-1.7-8.3-7.1-13.7-12.8-12.5c-3.8,1.2-7,5.7-8.1,11.6c-1.5,7.9,1.3,14.3,1.7,15l-37.1,38.8c7.6-21.5,15.2-43.1,22.7-64.6
		c0.6,0.2,3.8,1.5,7-1.8c2.9-3,3.7-7.6,3.9-8.7c2.1-7.6,1.2-16.2-2.1-21.2c-4.1-6.4-11.6-6.2-16.2,1.9c-0.6,2-2.1,8.2-1,15.8
		c0.8,5.5,2.6,9.1,3.5,10.8c-4.5,13.9-10.4,29.7-18,46.1c-8.9,19.3-18,34.8-26,46.8c1.8-19.8,4.8-42.9,10.1-67.9
		c3.3-15.9,7-30.2,10.7-42.8c0.3,0.2,5.1,2.8,9.1-2.3c3.8-4.8,3.7-12.3,3.7-13c1.1-8.5-1.7-16.9-6.3-19.8
		c-5.1-3.2-11.3,1.1-13.5,10.1c-0.3,1.1-1.6,7,0.3,12.6c1,2.8,2.3,4.4,3.1,5.2c-3,8.1-5.9,17.1-8.8,26.9c-4.2,14.3-7.4,27.8-10,40.2
		c-0.9-9.4-1.7-19.8-2.1-30.9c-0.6-15.1-0.5-29,0-41.3c0.7-0.2,3.8-1.4,5.9-6.3c2.3-5.3,1.8-10.9,1.6-11.9
		c-0.7-8.7-4.6-15.5-9.4-16.7c-5.8-1.4-11.9,5.8-12.9,16.7c-0.9,6.4,0.4,12.9,3.3,16.6c2.9,3.6,6.3,3,7.1,2.8
		c0.4,11.8,0.4,25.1-0.3,39.7c-0.6,11.4-1.5,21.9-2.6,31.3c-5.8-22.3-11.5-44.7-17.3-67c0.7-1.6,1.9-4.8,2.1-9.4
		c0.4-7.4-2-12.8-2.6-14.1c-3.6-5.2-8.7-6.3-12.8-2.8c-4.5,3.8-7,12.2-5.9,20.6c0.3,1.9,1.2,6.3,3.9,9.8c4.6,6,10.3,3.4,11,3.2
		c4,16,8,33.5,11.7,52.5c4.2,21.8,7.5,42.4,10,61.4c-6.1-8.4-12.7-18.6-19.3-31.1c-12-22.7-19.9-45.2-25.2-63.4
		c0.7-1.4,3.1-7,2.8-15c-0.3-5.9-2-10.1-2.8-11.7c-3.4-5.1-8.2-6.7-12.5-3.9c-4.5,3-7.4,10.3-7.3,18.4c0,1.8,0.3,6.6,2.4,10.6
		c2.7,5.1,7.4,6.9,11.9,4.7l22.2,61.4c-11.9-12.3-23.8-24.7-35.7-37c0.3-2,0.9-7.8-0.8-14.3c-1.5-5.7-4-8.8-5-10c-4.7-3-10-0.9-13,5
		c-3.6,6.9-3.4,17.7,0.6,24.9c1.2,1.2,4.2,3.8,8.4,3.7c3.9-0.1,6.7-2.5,7.9-3.7c4.9,4.7,10.5,10.9,16.3,18.9
		c6.4,8.9,11.5,17.7,15.3,25.5c-4.3-3.1-9.1-6.1-14.6-8.7c-11.2-5.3-21.3-7.1-29.4-7.5c-0.2-1.7-0.9-7.4-4.1-11.9
		c-2.9-4.2-6.2-4.9-7.3-5.1c-5.3,1-9.4,7.9-9.7,16c-0.4,9.1,3.8,17.6,9.7,18.7c0.9,0.2,3,0.4,5.2-1.4c3.1-2.5,4.4-7.1,4.7-8.3
		c9.1,1.8,19.6,5,31.1,10.9c20.8,10.7,36.9,26.2,48,39.2V-2148.1z M18.5-2492.7l-39.1,153.5h82.1L18.5-2492.7z M381.5-2711h86.1v546
		l145.8-417.4H482.8V-2711H748v19.7l-144.4,419.7H748v127.1H381.5V-2711z M-429-1998.5h-8.1l-12-65v65h-9.7v-79.7h18l8.7,47.7
		l9.1-47.7h18.1v79.7h-11.7v-65L-429-1998.5z M-382.2-2078.2h13.4l15.4,79.7h-12.5l-3-16.5h-16l-3.1,16.5h-10.2L-382.2-2078.2z
		 M-376.7-2057.6l-5.3,28h10.5L-376.7-2057.6z M-381.5-2091.4l15-14.1l2.7,9.8l-16,10.9L-381.5-2091.4z M-334.4-2078.2v63.9h19.7
		v15.8h-31.4v-79.7H-334.4z M-296-2078.2h13.4l15.4,79.7h-12.5l-3-16.5h-16l-3.1,16.5h-10.2L-296-2078.2z M-290.5-2057.6l-5.3,28
		h10.5L-290.5-2057.6z M-243.3-2041.1h20.3v42.7h-5.3c-0.4-3-1-6.1-1.6-9.2c-3.6,6.9-8.1,10.4-13.5,10.4c-6.5,0-11.5-3.7-15.1-11.1
		c-3.6-7.4-5.4-17.1-5.4-28.8c0-12.8,1.9-22.9,5.7-30.6c3.9-7.8,9.1-11.6,15.7-11.6c5.5,0,10,2.5,13.3,7.4c3.4,5,5.5,11.6,6.2,19.8
		l-11,2.4c-0.9-9.7-3.7-14.5-8.5-14.5c-3.2,0-5.6,2.3-7.1,6.8c-1.6,4.7-2.5,11.2-2.5,19.7c0,8.1,0.9,14.3,2.6,18.8
		c1.8,4.3,4.2,6.5,7.5,6.5c2.1,0,3.9-1.1,5.6-3.2c1.6-2.3,2.5-5.7,2.5-10.5h-9.4V-2041.1z M-200.6-2078.2h13.4l15.4,79.7h-12.5
		l-3-16.5h-16l-3.1,16.5h-10.2L-200.6-2078.2z M-195.1-2057.6l-5.3,28h10.5L-195.1-2057.6z M-108.9-2078.2v15.8H-132v17.8h18.3v14.9
		H-132v31.2h-12v-79.7H-108.9z M-65.7-2078.2v15.2h-23.5v16.4h18.5v14.9h-18.5v17.4h23.5v15.8h-35.3v-79.7H-65.7z M-41.5-2079.4
		c9.7,0,16,6.2,18.8,18.8l-9.9,5.3c-1.3-6.3-4.2-9.4-8.5-9.4c-4.6,0-6.9,2.4-6.9,7.2c0,1.9,0.4,3.5,1.3,4.8c0.9,1.4,2.8,2.5,5.9,3.6
		c5,1.7,8.8,3.3,11.1,5c2.4,1.7,4.4,4.3,5.9,8c1.6,3.7,2.5,7.9,2.5,12.4c0,7.2-1.7,13.4-5.2,18.6c-3.4,5.3-8.5,7.9-15.3,7.9
		c-5.1,0-9.4-1.9-13-5.6c-3.6-3.7-5.9-9.2-7.1-16.5l10.8-3.9c1.2,7.4,4.5,11.1,10.1,11.1c2.6,0,4.6-0.8,5.9-2.5
		c1.3-1.7,1.9-3.6,1.9-5.9c0-2.4-0.6-4.2-1.8-5.5c-1.2-1.2-3.5-2.4-6.8-3.6c-6.3-2-10.8-4.9-13.5-8.6c-2.7-3.6-4-9-4-15.9
		c0-7,1.6-13,4.8-17.9C-51.3-2077-46.9-2079.4-41.5-2079.4z M-16.5-2078.2h36.3v15.8H7.5v63.9H-4.2v-63.9h-12.3V-2078.2z
		 M26.6-2078.2h11.6v79.7H26.6V-2078.2z M77.1-2078.2h9.7l-14.9,79.7H59.3l-14.9-79.7h12.3l10,57L77.1-2078.2z M101.7-2078.2h13.4
		l15.4,79.7h-12.5l-3-16.5h-16l-3.1,16.5H85.8L101.7-2078.2z M107.2-2057.6l-5.3,28h10.5L107.2-2057.6z M149.5-2078.2v63.9h19.7
		v15.8h-31.4v-79.7H149.5z M197.5-2078.2h11.6v79.7h-11.6V-2078.2z M249.9-2078.2h9v79.7h-10l-19.2-53.9c0,1.4,0.1,2.3,0.1,2.7
		c0.1,1.3,0.1,2.5,0.1,3.5v47.7h-9.1v-79.7h12.5l16.7,47c-0.1-2.3-0.2-4.1-0.2-5.3V-2078.2z M270.7-1998.5v-79.7h15.1
		c6.2,0,10.8,1.3,13.8,4.1c3,2.7,5.7,7.2,8.1,13c2.4,6,3.6,13.5,3.6,22.6c0,11.4-2.1,20.9-6.2,28.6c-4.2,7.6-10,11.5-17.3,11.5
		H270.7z M287-2063.5H282v50.1h4.8c4.2,0,7.4-2.5,9.4-7.6c2-5,3-11,3-17.9c0-4.8-0.6-9.2-1.8-13.4c-1.1-4.1-2.6-6.9-4.3-8.6
		C291.4-2062.6,289.3-2063.5,287-2063.5z M349.7-2078.2h10v49.6c0,8-0.6,14-1.7,17.9c-1.1,3.9-3.2,7-6.3,9.6
		c-3,2.5-6.9,3.8-11.7,3.8c-4.8,0-8.5-1.1-11.4-3.3c-2.7-2.3-4.9-5.5-6.3-9.7c-1.4-4.2-2.1-10.3-2.1-18.3v-49.6h12.5v49.7
		c0,4.2,0.2,7.4,0.7,9.4c0.4,2,1.3,3.6,2.7,4.8c1.3,1.2,3,1.8,5,1.8c2.2,0,3.9-0.6,5.3-1.8c1.4-1.1,2.3-2.6,2.7-4.7
		c0.4-1.9,0.7-5.1,0.7-9.6V-2078.2z M386.2-2079.4c9.7,0,16,6.2,18.8,18.8l-9.9,5.3c-1.3-6.3-4.2-9.4-8.5-9.4
		c-4.6,0-6.9,2.4-6.9,7.2c0,1.9,0.4,3.5,1.3,4.8c0.9,1.4,2.8,2.5,5.9,3.6c5,1.7,8.8,3.3,11.1,5c2.4,1.7,4.4,4.3,5.9,8
		c1.6,3.7,2.5,7.9,2.5,12.4c0,7.2-1.7,13.4-5.2,18.6c-3.4,5.3-8.5,7.9-15.3,7.9c-5.1,0-9.4-1.9-13-5.6c-3.6-3.7-5.9-9.2-7.1-16.5
		l10.8-3.9c1.2,7.4,4.5,11.1,10.1,11.1c2.6,0,4.6-0.8,5.9-2.5c1.3-1.7,1.9-3.6,1.9-5.9c0-2.4-0.6-4.2-1.8-5.5
		c-1.2-1.2-3.5-2.4-6.8-3.6c-6.3-2-10.8-4.9-13.5-8.6c-2.7-3.6-4-9-4-15.9c0-7,1.6-13,4.8-17.9S380.7-2079.4,386.2-2079.4z
		 M411.1-2078.2h36.3v15.8h-12.3v63.9h-11.7v-63.9h-12.3V-2078.2z M474.3-2029.9H466v31.4h-11.7v-79.7h21.8c4,0,7.3,0.7,9.7,2.3
		c2.5,1.4,4.5,4.3,6.1,8.2c1.6,4.1,2.4,8.5,2.4,13.4c0,9.7-2.9,16.6-8.6,20.7l9.1,35.1h-12.8L474.3-2029.9z M472.9-2063.8H466v20.3
		h7.1c2.3,0,4-0.2,5-0.8c1.1-0.5,2-1.7,2.8-3.5c0.8-1.8,1.3-3.8,1.3-6.2c0-2.3-0.4-4.2-1.3-6c-0.8-1.7-1.7-2.7-2.7-3.2
		C477.3-2063.6,475.5-2063.8,472.9-2063.8z M529.1-2078.2h10.4l-15.5,46.1v33.6h-11.6v-33.6l-15.5-46.1h13.4l9.4,30.1L529.1-2078.2z
		 M600.5-2078.2v13.7l-25,50.8h25.8v15.2h-40v-13.5l25-51.1H563v-15.1H600.5z M644.1-2009.2c-3.6,8-8.9,11.9-15.9,11.9
		c-6.7,0-11.8-4.1-15.4-12.1c-3.6-8-5.5-17.8-5.5-29.3c0-11.6,1.9-21.3,5.6-29c3.6-7.8,8.9-11.7,15.7-11.7c6.9,0,12.2,4.2,15.7,12.4
		c3.5,8.4,5.3,17.8,5.3,28.6C649.5-2026.9,647.7-2017.1,644.1-2009.2z M637.3-2038.3c0-17.3-3-25.9-8.8-25.9c-6,0-9.1,8.6-9.1,25.8
		c0,17.3,3,25.9,9.1,25.9C634.3-2012.5,637.3-2021.1,637.3-2038.3z M688-2078.2h9v79.7h-10l-19.2-53.9c0,1.4,0.1,2.3,0.1,2.7
		c0.1,1.3,0.1,2.5,0.1,3.5v47.7h-9.1v-79.7h12.5l16.7,47c-0.1-2.3-0.2-4.1-0.2-5.3V-2078.2z M744.1-2078.2v15.2h-23.5v16.4h18.5
		v14.9h-18.5v17.4h23.5v15.8h-35.3v-79.7H744.1z"/>
</g>
</svg>
