<?xml version="1.0" encoding="utf-8"?>
<!-- Generator: Adobe Illustrator 22.0.1, SVG Export Plug-In . SVG Version: 6.00 Build 0)  -->
<svg version="1.1" id="Capa_1" xmlns="http://www.w3.org/2000/svg" xmlns:xlink="http://www.w3.org/1999/xlink" x="0px" y="0px"
	 viewBox="0 0 574 169" style="enable-background:new 0 0 574 169;" xml:space="preserve">
<style type="text/css">
	.st0{fill:#20132E;}
</style>
<g transform="matrix(0.681175,0,0,0.416923,590.842,467.588)">
	<path class="st0" d="M-35.1-797.9c-16.4-21.3-25.4-69.1-34.3-115.7c-8.1-43-19.3-101.9-32.9-101.9s-24.8,58.9-32.9,101.9
		c-11.8,62.5-24.1,127.1-53.8,127.1c-29.8,0-42-64.6-53.8-127.1c-8.1-43-19.3-101.9-32.9-101.9s-24.8,58.9-32.9,101.9
		c-11.8,62.5-24.1,127.1-53.8,127.1c-29.8,0-42-64.6-53.8-127.1c-8.1-43-19.3-101.9-32.9-101.9s-24.8,58.9-32.9,101.9
		c-11.8,62.5-24.1,127.1-53.8,127.1s-42-64.6-53.8-127.1c-8.1-43-19.3-101.9-32.9-101.9c-13.6,0-24.8,58.9-32.9,101.9
		c-8.8,46.6-17.9,94.4-34.3,115.7c-1.9-0.5-3.9-1.6-6-3.4c-5.6-5-8.8-14-8.7-23.4c11.4-11.7,20.9-61.6,28-99.4
		c11.8-62.5,24.1-127.1,53.8-127.1c29.8,0,42,64.6,53.8,127.1c8.1,43,19.3,101.9,32.9,101.9c13.6,0,24.8-58.9,32.9-101.9
		c11.8-62.5,24.1-127.1,53.8-127.1c29.8,0,42,64.6,53.8,127.1c8.1,43,19.3,101.9,32.9,101.9s24.8-58.9,32.9-101.9
		c11.8-62.5,24.1-127.1,53.8-127.1c29.8,0,42,64.6,53.8,127.1c8.1,43,19.3,101.9,32.9,101.9s24.8-58.9,32.9-101.9
		c11.8-62.5,24.1-127.1,53.8-127.1c29.8,0,42,64.6,53.8,127.1c6.9,36.2,15.8,83.7,26.6,97.8C-21.8-812.5-25.1-800.8-35.1-797.9z
		 M-805.5-1019c38,23.1,77.2,47,77.2,102c0,55.1-39.2,78.9-77.2,102c-16.2,9.9-32.7,19.9-44.8,31.6c-1-0.9-2-1.9-3-3
		c-3.7-3.9-7.5-9.2-9.2-16c-1-3.8-0.7-7.5,0.2-10.9c14-13.9,31.7-24.7,49.2-35.3c31-18.8,63-38.3,63-68.5s-32-49.7-63-68.5
		c-19.6-11.9-39.6-24.1-54.3-40.6c1.1-12.5,6.5-23.7,13.5-28.3C-841.7-1041.1-823.4-1029.9-805.5-1019z M-81.6-900.3
		c0,10.5-5.2,19.1-11.7,19.1h-18.1c-6.4,0-11.7-8.5-11.7-19.1s5.2-19.1,11.7-19.1h18.1C-86.9-919.4-81.6-910.9-81.6-900.3z
		 M-602-900.3c0,10.5-5.2,19.1-11.7,19.1h-18.1c-6.4,0-11.7-8.5-11.7-19.1s5.2-19.1,11.7-19.1h18.1
		C-607.3-919.4-602-910.9-602-900.3z"/>
</g>
</svg>
