<?xml version="1.0" encoding="utf-8"?>
<!-- Generator: Adobe Illustrator 22.0.1, SVG Export Plug-In . SVG Version: 6.00 Build 0)  -->
<svg version="1.1" id="Capa_1" xmlns="http://www.w3.org/2000/svg" xmlns:xlink="http://www.w3.org/1999/xlink" x="0px" y="0px"
	 viewBox="0 0 369.1 208" style="enable-background:new 0 0 369.1 208;" xml:space="preserve">
<style type="text/css">
	.st0{fill:#DCE1D6;}
</style>
<path class="st0" d="M0.2,139.8l33.9-74.4c0.3-0.7,1.3-1.2,1.9-1.2h1.1c0.6,0,1.5,0.6,1.9,1.2l33.7,74.4c0.7,1.4-0.2,2.9-1.9,2.9h-7
	c-1.3,0-2.1-0.7-2.5-1.7l-6.9-15.1H18.3c-2.2,5.1-4.5,10.1-6.7,15.1c-0.3,0.8-1.2,1.7-2.5,1.7h-7C0.4,142.7-0.4,141.3,0.2,139.8z
	 M50.3,116.4L36.7,86.1h-0.6l-13.5,30.3H50.3z M297.7,139.8l33.9-74.4c0.3-0.7,1.3-1.2,1.9-1.2h1.1c0.6,0,1.5,0.6,1.9,1.2l33.7,74.4
	c0.7,1.4-0.2,2.9-1.9,2.9h-7c-1.3,0-2.1-0.7-2.5-1.7l-6.9-15.1h-36.1c-2.2,5.1-4.5,10.1-6.7,15.1c-0.3,0.8-1.2,1.7-2.5,1.7h-7
	C297.9,142.7,297,141.3,297.7,139.8z M347.7,116.4l-13.6-30.3h-0.6l-13.5,30.3H347.7z M81.9,67.4c0-1.1,1-2.1,2.1-2.1h7.4
	c1.2,0,2.1,1,2.1,2.1v45.6c0,11.1,7.1,19.7,18.3,19.7c11.4,0,18.6-8.5,18.6-19.4V67.4c0-1.1,0.9-2.1,2.1-2.1h7.4
	c1.1,0,2.1,1,2.1,2.1v46.4c0,16.8-12.7,29.9-30.2,29.9c-17.3,0-29.9-13.1-29.9-29.9V67.4z M151.1,139.8L185,65.5
	c0.3-0.7,1.3-1.2,1.9-1.2h1.1c0.6,0,1.5,0.6,1.9,1.2l33.7,74.4c0.7,1.4-0.2,2.9-1.9,2.9h-7c-1.3,0-2.1-0.7-2.5-1.7l-6.9-15.1h-36.1
	c-2.2,5.1-4.5,10.1-6.7,15.1c-0.3,0.8-1.2,1.7-2.5,1.7h-7C151.3,142.7,150.4,141.3,151.1,139.8z M201.1,116.4l-13.6-30.3H187
	l-13.5,30.3H201.1z M234.6,67.4c0-1.1,0.9-2.1,2.1-2.1h30.1c13.3,0,24.1,10.5,24.1,23.6c0,10.2-6.7,18.6-16.4,22.4l15.1,28.1
	c0.8,1.4,0,3.2-1.9,3.2h-8.6c-0.9,0-1.5-0.6-1.8-1l-14.7-29.3H246v28.2c0,1.1-1,2.1-2.1,2.1h-7.2c-1.2,0-2.1-1-2.1-2.1V67.4z
	 M265.9,102.9c7.2,0,13.5-6.1,13.5-13.7c0-7.2-6.3-13.2-13.5-13.2h-19.7v26.9H265.9z"/>
</svg>
