<?xml version="1.0" encoding="UTF-8" standalone="no"?>
<!DOCTYPE svg PUBLIC "-//W3C//DTD SVG 1.1//EN" "http://www.w3.org/Graphics/SVG/1.1/DTD/svg11.dtd">
<svg width="100%" height="100%" viewBox="0 0 3646 2814" version="1.1" xmlns="http://www.w3.org/2000/svg" xmlns:xlink="http://www.w3.org/1999/xlink" xml:space="preserve" xmlns:serif="http://www.serif.com/" style="fill-rule:evenodd;clip-rule:evenodd;stroke-linejoin:round;stroke-miterlimit:2;">
    <g transform="matrix(1,0,0,1,-2177.054757,-843.442641)">
        <g transform="matrix(4.166667,0,0,4.166667,2617.792917,3354.50125)">
            <path d="M0,-526.956C1.634,-543.066 26.141,-580 41.62,-585.037C44.918,-586.111 45.818,-584.329 45.658,-581.129C41.371,-567.998 36.151,-554.262 32.357,-541.045C29.652,-531.622 28.797,-514.734 20.811,-508.705C14.648,-504.053 10.289,-507.93 9.735,-497.73C9.645,-496.065 9.983,-494.526 10.506,-492.966L4.995,-491.661C4.851,-496.488 4.34,-502.149 7.96,-505.862C1.256,-511.772 -0.89,-518.188 0,-526.956M56.029,-537.365C60.91,-546.338 63.181,-540.966 70.745,-542.52C80.547,-544.535 88.571,-559.419 95.061,-566.768C104.163,-577.075 114.776,-587.238 124.287,-597.255C125.805,-600.076 125.757,-602.072 122.318,-602.519C106.175,-604.617 68.183,-581.786 59.789,-567.939C55.22,-560.403 54.403,-553.688 57.919,-545.472C53.055,-543.673 51.086,-538.341 49.143,-533.919L54.68,-532.731C54.877,-534.365 55.233,-535.9 56.029,-537.365M-29.498,-436.966C-31.61,-432.23 -29.172,-427.095 -27.367,-422.616L-22.647,-425.747C-23.678,-427.029 -24.528,-428.356 -25.019,-429.95C-28.028,-439.711 -22.597,-437.582 -18.423,-444.079C-13.016,-452.498 -18.055,-468.639 -18.777,-478.416C-19.79,-492.13 -19.644,-506.823 -20.163,-520.627C-21.12,-523.684 -22.581,-525.045 -25.304,-522.897C-38.085,-512.815 -48.302,-469.684 -44.263,-454.004C-42.064,-445.469 -37.832,-440.192 -29.498,-436.966M-54.719,-355.67C-55.835,-350.042 -51.945,-345.101 -48.898,-340.712L-44.576,-345.248C-46.002,-346.378 -47.245,-347.601 -48.166,-349.2C-53.807,-358.992 -47.426,-358.028 -44.518,-366.061C-40.75,-376.471 -50.149,-392.647 -53.327,-403.017C-57.785,-417.562 -61.234,-433.449 -65.182,-448.213C-66.965,-451.276 -68.874,-452.385 -71.285,-449.4C-82.599,-435.388 -83.035,-386.351 -74.829,-370.426C-70.363,-361.759 -64.502,-357.105 -54.719,-355.67M-55.34,-273.132C-54.819,-267.056 -49.388,-263.16 -44.982,-259.577L-41.907,-265.484C-43.698,-266.218 -45.327,-267.1 -46.74,-268.46C-55.39,-276.793 -48.59,-277.692 -47.992,-286.753C-47.218,-298.494 -61.589,-312.236 -67.895,-321.886C-76.74,-335.422 -84.951,-350.626 -93.341,-364.535C-96.065,-367.136 -98.342,-367.705 -99.923,-363.945C-107.338,-346.298 -93.309,-296.1 -80.229,-282.262C-73.111,-274.731 -65.753,-271.709 -55.34,-273.132M-64.823,-193.416C-55.714,-187.628 -47.514,-186.454 -37.364,-190.548C-35.287,-184.546 -28.809,-181.998 -23.447,-179.505L-21.85,-186.254C-23.845,-186.538 -25.715,-187.012 -27.488,-188.026C-38.348,-194.232 -31.712,-196.875 -33.421,-206.175C-35.635,-218.227 -53.651,-228.435 -62.48,-236.57C-74.865,-247.979 -87.034,-261.234 -99.054,-273.137C-102.469,-275.068 -104.913,-275.061 -105.549,-270.862C-108.533,-251.152 -81.56,-204.049 -64.823,-193.416M-2.7,-112.751C0.809,-107.458 7.718,-106.607 13.533,-105.532L13.395,-112.466C11.392,-112.242 9.463,-112.235 7.493,-112.774C-4.573,-116.073 1.193,-120.289 -2.783,-128.868C-7.936,-139.986 -27.93,-145.373 -38.51,-151.046C-53.351,-159.003 -68.444,-168.8 -83.054,-177.326C-86.843,-178.343 -89.209,-177.727 -88.776,-173.501C-86.746,-153.671 -48.868,-114.793 -30.006,-108.673C-19.741,-105.343 -11.507,-106.253 -2.7,-112.751M57.158,-42.933C62.227,-38.245 69.742,-39.124 76.16,-39.485L74.231,-46.773C72.173,-46.021 70.137,-45.518 67.918,-45.58C54.326,-45.96 59.332,-51.896 52.925,-59.935C44.623,-70.351 22.12,-70.898 9.485,-74.168C-8.236,-78.754 -26.697,-85.219 -44.321,-90.465C-48.585,-90.565 -50.924,-89.305 -49.381,-84.954C-42.135,-64.531 7.872,-33.213 29.367,-31.602C41.066,-30.725 49.529,-33.805 57.158,-42.933M97.955,25.043C109.462,22.76 116.793,17.53 121.705,6.694C127.842,9.856 134.848,7 140.937,4.936L137.129,-1.57C135.347,-0.296 133.52,0.734 131.365,1.267C118.166,4.535 121.403,-2.524 113.08,-8.557C102.295,-16.375 80.465,-10.885 67.416,-10.658C49.114,-10.339 29.596,-11.633 11.211,-11.976C7.076,-10.933 5.159,-9.094 7.81,-5.313C20.252,12.429 76.812,29.238 97.955,25.043M231.199,31.113C229.451,32.897 227.605,34.415 225.292,35.441C211.124,41.728 213.357,33.162 202.818,28.041C189.161,21.405 165.746,31.898 151.145,34.742C130.664,38.73 108.499,41.15 87.794,44.412C83.359,46.403 81.571,48.849 85.297,52.566C102.783,70.014 169.606,77.661 192.506,68.758C204.97,63.912 212.161,56.587 215.525,43.45C223.041,45.782 230.339,41.185 236.764,37.661L231.199,31.113ZM93.202,-521.514C78.983,-525.93 41.173,-511.301 31.442,-500.136C26.146,-494.059 24.358,-488.135 26.241,-480.181C21.576,-479.321 18.968,-474.824 16.525,-471.144L21.329,-469.207C21.762,-470.648 22.323,-471.976 23.27,-473.172C29.072,-480.494 30.279,-475.297 37.338,-475.515C46.486,-475.797 56.047,-487.954 63.044,-493.561C72.86,-501.425 84.014,-508.923 94.152,-516.462C95.962,-518.767 96.231,-520.572 93.202,-521.514M-16.685,-399.016C-21.201,-396.801 -22.576,-391.462 -24.015,-387.004L-18.555,-386.404C-18.526,-387.999 -18.334,-389.516 -17.709,-391.008C-13.885,-400.147 -11.163,-395.187 -4.018,-397.432C5.241,-400.342 11.517,-415.495 17.055,-423.225C24.822,-434.067 34.061,-444.92 42.251,-455.523C43.438,-458.395 43.195,-460.315 39.832,-460.408C24.05,-460.842 -10.36,-435.068 -17.095,-420.879C-20.761,-413.157 -20.888,-406.597 -16.685,-399.016M-18.214,-316.549C-9.04,-320.853 -4.663,-337.409 -0.013,-346.181C6.509,-358.485 14.552,-371.005 21.546,-383.121C22.372,-386.258 21.853,-388.212 18.361,-387.838C1.969,-386.082 -30.034,-354.605 -35.021,-338.983C-37.735,-330.481 -36.95,-323.675 -31.542,-316.417C-35.906,-313.495 -36.582,-307.778 -37.448,-302.965L-31.715,-303.106C-31.908,-304.761 -31.921,-306.357 -31.483,-307.988C-28.803,-317.979 -25.294,-313.227 -18.214,-316.549M28.427,-146.036C34.229,-155.591 28.145,-173.476 27.063,-184.374C25.546,-199.661 25.294,-216.075 24.325,-231.477C23.169,-234.864 21.5,-236.343 18.519,-233.867C4.529,-222.248 -5.665,-173.79 -0.711,-156.391C1.985,-146.922 6.86,-141.147 16.26,-137.78C14.034,-132.43 16.902,-126.765 19.044,-121.813L24.226,-125.443C23.039,-126.846 22.052,-128.304 21.459,-130.07C17.823,-140.887 23.949,-138.662 28.427,-146.036M70.296,-116.158C65.34,-130.699 61.36,-146.626 56.912,-161.403C55.016,-164.438 53.054,-165.498 50.715,-162.409C39.736,-147.911 40.835,-98.405 49.617,-82.59C54.397,-73.982 60.459,-69.469 70.377,-68.328C69.427,-62.612 73.509,-57.748 76.722,-53.414L80.942,-58.127C79.467,-59.223 78.174,-60.419 77.195,-62.003C71.193,-71.71 77.664,-70.937 80.347,-79.136C83.823,-89.76 73.829,-105.792 70.296,-116.158M97.747,-100.289C92.021,-82.117 110.546,-33.655 124.783,-21.144C132.531,-14.335 140.103,-12.016 150.292,-14.385C151.368,-8.41 157.109,-5.049 161.806,-1.903L164.31,-8.041C162.467,-8.603 160.771,-9.327 159.246,-10.546C149.905,-18.009 156.563,-19.526 156.321,-28.561C156.008,-40.269 140.499,-52.567 133.361,-61.551C123.348,-74.153 113.811,-88.466 104.216,-101.479C101.276,-103.807 98.967,-104.161 97.747,-100.289M-6.827,-227.346C0.628,-234.848 -1.002,-252.646 0.419,-262.91C2.412,-277.307 5.82,-292.46 8.343,-306.841C8.031,-310.212 6.823,-311.942 3.533,-310.326C-11.91,-302.741 -32.029,-260.431 -31.331,-243.33C-30.95,-234.023 -27.746,-227.631 -19.848,-222.45C-23.081,-218.023 -21.699,-212.176 -20.826,-207.147L-15.255,-209.336C-16.037,-210.89 -16.62,-212.45 -16.775,-214.206C-17.72,-224.961 -12.58,-221.556 -6.827,-227.346" style="fill:rgb(230,28,74);fill-rule:nonzero;"/>
        </g>
        <g transform="matrix(4.166667,0,0,4.166667,5349.040417,3266.611667)">
            <path d="M0,-484.769C3.62,-481.056 3.109,-475.395 2.965,-470.568L-2.546,-471.873C-2.022,-473.433 -1.684,-474.972 -1.775,-476.637C-2.328,-486.836 -6.688,-482.96 -12.851,-487.612C-20.837,-493.641 -21.692,-510.529 -24.397,-519.952C-28.191,-533.169 -33.411,-546.905 -37.698,-560.036C-37.858,-563.235 -36.958,-565.017 -33.66,-563.944C-18.181,-558.906 6.326,-521.972 7.96,-505.863C8.849,-497.095 6.704,-490.679 0,-484.769M-46.72,-511.638L-41.183,-512.826C-43.126,-517.247 -45.095,-522.579 -49.959,-524.378C-46.443,-532.594 -47.26,-539.309 -51.828,-546.846C-60.223,-560.693 -98.215,-583.524 -114.358,-581.425C-117.797,-580.978 -117.845,-578.983 -116.327,-576.162C-106.816,-566.144 -96.203,-555.981 -87.1,-545.674C-80.611,-538.326 -72.587,-523.441 -62.785,-521.427C-55.221,-519.872 -52.95,-525.245 -48.069,-516.272C-47.272,-514.806 -46.917,-513.272 -46.72,-511.638M52.223,-432.91C56.262,-448.591 46.045,-491.722 33.264,-501.803C30.541,-503.951 29.08,-502.59 28.123,-499.533C27.604,-485.73 27.75,-471.036 26.737,-457.323C26.016,-447.546 20.976,-431.405 26.384,-422.985C30.557,-416.488 35.988,-418.618 32.979,-408.856C32.488,-407.263 31.638,-405.936 30.607,-404.653L35.327,-401.522C37.131,-406.001 39.57,-411.136 37.458,-415.873C45.792,-419.098 50.024,-424.376 52.223,-432.91M82.789,-349.332C90.995,-365.257 90.559,-414.294 79.245,-428.306C76.834,-431.292 74.925,-430.182 73.142,-427.119C69.193,-412.356 65.745,-396.469 61.287,-381.923C58.109,-371.553 48.711,-355.377 52.478,-344.968C55.386,-336.934 61.767,-337.899 56.126,-328.107C55.205,-326.508 53.963,-325.285 52.536,-324.154L56.858,-319.619C59.905,-324.008 63.795,-328.948 62.679,-334.576C72.462,-336.011 78.323,-340.665 82.789,-349.332M88.189,-261.169C101.269,-275.007 115.298,-325.205 107.883,-342.851C106.302,-346.612 104.025,-346.042 101.301,-343.441C92.911,-329.532 84.7,-314.329 75.855,-300.793C69.549,-291.143 55.178,-277.4 55.952,-265.659C56.55,-256.599 63.35,-255.7 54.7,-247.367C53.287,-246.006 51.658,-245.124 49.867,-244.391L52.942,-238.484C57.348,-242.066 62.779,-245.962 63.301,-252.038C73.713,-250.615 81.071,-253.638 88.189,-261.169M113.509,-249.768C112.873,-253.968 110.429,-253.975 107.014,-252.043C94.994,-240.141 82.825,-226.886 70.44,-215.476C61.611,-207.342 43.595,-197.134 41.381,-185.082C39.672,-175.781 46.308,-173.138 35.448,-166.932C33.675,-165.919 31.805,-165.444 29.81,-165.161L31.407,-158.412C36.77,-160.905 43.247,-163.453 45.324,-169.454C55.474,-165.361 63.674,-166.535 72.783,-172.322C89.52,-182.956 116.494,-230.059 113.509,-249.768M37.966,-87.58C56.828,-93.699 94.706,-132.577 96.736,-152.408C97.169,-156.633 94.803,-157.25 91.015,-156.232C76.404,-147.707 61.311,-137.909 46.47,-129.952C35.89,-124.28 15.896,-118.892 10.743,-107.775C6.767,-99.195 12.533,-94.979 0.468,-91.68C-1.503,-91.142 -3.432,-91.149 -5.435,-91.373L-5.573,-84.439C0.242,-85.514 7.151,-86.364 10.66,-91.658C19.467,-85.16 27.701,-84.249 37.966,-87.58M-21.407,-10.509C0.088,-12.119 50.095,-43.438 57.341,-63.86C58.884,-68.212 56.545,-69.472 52.281,-69.372C34.657,-64.126 16.196,-57.66 -1.526,-53.074C-14.16,-49.805 -36.663,-49.258 -44.965,-38.841C-51.372,-30.802 -46.366,-24.866 -59.958,-24.486C-62.177,-24.424 -64.213,-24.928 -66.271,-25.679L-68.2,-18.391C-61.782,-18.031 -54.266,-17.152 -49.198,-21.84C-41.568,-12.712 -33.106,-9.632 -21.407,-10.509M0.15,15.78C2.801,12 0.884,10.16 -3.251,9.117C-21.636,9.46 -41.154,10.754 -59.456,10.436C-72.505,10.208 -94.335,4.718 -105.12,12.536C-113.443,18.57 -110.206,25.629 -123.405,22.361C-125.56,21.827 -127.387,20.797 -129.169,19.523L-132.977,26.03C-126.888,28.093 -119.881,30.95 -113.745,27.788C-108.833,38.623 -101.502,43.854 -89.995,46.137C-68.852,50.331 -12.292,33.522 0.15,15.78M-228.804,58.755C-222.379,62.279 -215.081,66.875 -207.565,64.543C-204.201,77.681 -197.01,85.006 -184.546,89.851C-161.645,98.755 -94.823,91.107 -77.337,73.66C-73.611,69.942 -75.399,67.497 -79.833,65.505C-100.539,62.243 -122.703,59.824 -143.185,55.835C-157.786,52.992 -181.201,42.498 -194.858,49.135C-205.397,54.256 -203.164,62.822 -217.331,56.535C-219.645,55.508 -221.491,53.99 -223.238,52.206L-228.804,58.755ZM-86.192,-495.368C-76.054,-487.829 -64.9,-480.331 -55.084,-472.467C-48.087,-466.861 -38.526,-454.703 -29.378,-454.421C-22.319,-454.204 -21.112,-459.401 -15.31,-452.078C-14.363,-450.882 -13.802,-449.555 -13.369,-448.113L-8.565,-450.05C-11.008,-453.731 -13.616,-458.228 -18.281,-459.088C-16.398,-467.042 -18.186,-472.966 -23.482,-479.042C-33.213,-490.207 -71.023,-504.837 -85.242,-500.42C-88.271,-499.479 -88.002,-497.673 -86.192,-495.368M25.055,-399.786C18.32,-413.974 -16.09,-439.748 -31.872,-439.314C-35.235,-439.222 -35.478,-437.301 -34.291,-434.429C-26.101,-423.826 -16.862,-412.974 -9.095,-402.131C-3.557,-394.401 2.719,-379.249 11.978,-376.339C19.123,-374.093 21.845,-379.054 25.67,-369.914C26.294,-368.422 26.486,-366.906 26.515,-365.31L31.975,-365.911C30.536,-370.368 29.161,-375.707 24.645,-377.922C28.848,-385.504 28.721,-392.064 25.055,-399.786M39.443,-286.895C39.881,-285.263 39.868,-283.668 39.675,-282.012L45.409,-281.871C44.542,-286.684 43.866,-292.401 39.502,-295.324C44.91,-302.582 45.695,-309.387 42.981,-317.89C37.995,-333.512 5.991,-364.988 -10.401,-366.745C-13.893,-367.119 -14.412,-365.165 -13.586,-362.028C-6.592,-349.912 1.451,-337.392 7.973,-325.088C12.623,-316.316 17,-299.76 26.174,-295.455C33.254,-292.133 36.763,-296.886 39.443,-286.895M-13.499,-108.977C-14.092,-107.211 -15.078,-105.753 -16.266,-104.349L-11.084,-100.72C-8.942,-105.671 -6.074,-111.337 -8.299,-116.686C1.1,-120.054 5.975,-125.828 8.671,-135.298C13.625,-152.696 3.431,-201.154 -10.559,-212.773C-13.54,-215.249 -15.209,-213.771 -16.364,-210.383C-17.334,-194.982 -17.585,-178.568 -19.103,-163.281C-20.185,-152.382 -26.269,-134.497 -20.466,-124.942C-15.989,-117.568 -9.863,-119.794 -13.499,-108.977M-72.387,-58.042C-69.704,-49.843 -63.233,-50.616 -69.234,-40.91C-70.214,-39.325 -71.506,-38.13 -72.982,-37.034L-68.762,-32.32C-65.549,-36.654 -61.467,-41.519 -62.417,-47.234C-52.499,-48.375 -46.437,-52.889 -41.657,-61.496C-32.875,-77.312 -31.776,-126.818 -42.755,-141.316C-45.094,-144.405 -47.056,-143.345 -48.952,-140.309C-53.401,-125.532 -57.38,-109.606 -62.336,-95.065C-65.869,-84.698 -75.863,-68.667 -72.387,-58.042M-96.256,-80.386C-105.851,-67.372 -115.388,-53.06 -125.401,-40.458C-132.539,-31.473 -148.048,-19.176 -148.361,-7.468C-148.603,1.568 -141.945,3.085 -151.286,10.548C-152.811,11.766 -154.507,12.49 -156.349,13.052L-153.846,19.19C-149.149,16.045 -143.408,12.683 -142.332,6.709C-132.142,9.077 -124.571,6.759 -116.823,-0.05C-102.585,-12.561 -84.061,-61.023 -89.786,-79.196C-91.007,-83.068 -93.316,-82.713 -96.256,-80.386M24.735,-193.112C24.58,-191.357 23.997,-189.797 23.215,-188.243L28.786,-186.053C29.659,-191.082 31.041,-196.929 27.808,-201.356C35.706,-206.537 38.91,-212.929 39.291,-222.237C39.99,-239.337 19.87,-281.647 4.427,-289.233C1.137,-290.849 -0.071,-289.119 -0.383,-285.747C2.14,-271.367 5.548,-256.214 7.541,-241.817C8.962,-231.553 7.332,-213.755 14.787,-206.253C20.54,-200.463 25.68,-203.867 24.735,-193.112" style="fill:rgb(230,28,74);fill-rule:nonzero;"/>
        </g>
    </g>
</svg>
