<svg width="16" height="15" viewBox="0 0 16 15" fill="none" xmlns="http://www.w3.org/2000/svg">
<path d="M0.344727 6.87704H4.69294C4.69437 6.86973 4.6948 6.86213 4.69631 6.85481L0.687728 5.17294L1.16988 4.02379L5.16261 5.69906L5.17523 5.71161C5.17645 5.70975 5.17746 5.70767 5.17875 5.7058L5.16261 5.69906L2.10084 2.63729L2.98194 1.75618L6.05627 4.83051C6.06243 4.82635 6.06918 4.82298 6.07542 4.81889L4.42955 0.793596L5.58293 0.322058L7.22163 4.32978V4.34821C7.22392 4.34778 7.22636 4.34764 7.22873 4.34713L7.22163 4.32978V0H8.46775V4.34821C8.47507 4.34964 8.48267 4.35008 8.48992 4.35158L10.1719 0.343003L11.321 0.825157L9.64581 4.81781L9.63312 4.83044C9.63498 4.83173 9.63706 4.83273 9.639 4.83402L9.64581 4.81781L12.7074 1.75618L13.5885 2.63729L10.5142 5.71154C10.5184 5.71778 10.5218 5.72445 10.5258 5.73069L14.5511 4.0849L15.0226 5.23828L11.0145 6.87704H10.9965C10.9969 6.87934 10.9972 6.88171 10.9976 6.884L11.0145 6.87704H15.3447V8.12324H10.9965C10.995 8.13049 10.9946 8.13816 10.9931 8.14541L15.0017 9.82735L14.5195 10.9765L10.5271 9.3013L10.5142 9.28846C10.5129 9.2904 10.5119 9.29248 10.5106 9.29442L10.5271 9.3013L13.5885 12.3628L12.7074 13.2439L9.63312 10.1696C9.62695 10.1737 9.6202 10.1771 9.61404 10.1812L11.2598 14.2064L10.1064 14.6779L8.46775 10.6702V10.6519C8.46546 10.6523 8.46302 10.6524 8.46072 10.6529L8.46775 10.6702V15H7.22163V10.6518C7.21431 10.6504 7.20671 10.6499 7.19939 10.6484L5.51752 14.657L4.36837 14.1748L6.04357 10.1823L6.05627 10.1696C6.0544 10.1683 6.05232 10.1673 6.05038 10.166L6.04357 10.1823L2.98194 13.2439L2.10084 12.3628L5.17523 9.28846C5.17107 9.28222 5.1677 9.27555 5.16361 9.26931L1.13832 10.9152L0.666784 9.76172L4.67422 8.12324H4.69294C4.69251 8.12088 4.69229 8.11837 4.69186 8.116L4.67422 8.12324H0.344727V6.87704Z" fill="white"/>
</svg>
