<svg width="56" height="38" viewBox="0 0 56 38" fill="none" xmlns="http://www.w3.org/2000/svg">
<path fill-rule="evenodd" clip-rule="evenodd" d="M5.29706 6.56055L5.54931 5.53813L4.79258 5.02692H5.80155L6.05379 4.0045L6.30604 5.02692H7.31501L6.55828 5.53813L6.81052 6.56055L6.05379 5.79374L5.29706 6.56055ZM8.57623 6.56055L8.82847 5.53813L8.07174 5.02692H9.08071L9.33296 4.0045L9.5852 5.02692H10.5942L9.83744 5.53813L10.0897 6.56055L9.33296 5.79374L8.57623 6.56055ZM11.6031 6.56055L11.8554 5.53813L11.0987 5.02692H12.1076L12.6121 4.0045L12.8644 5.02692H13.8733L13.1166 5.53813L13.3688 6.56055L12.6121 5.79374L11.6031 6.56055ZM6.81052 8.6054L7.06277 7.58298L6.30604 7.07177H7.31501L7.56725 6.04934L7.8195 7.07177H8.82847L8.07174 7.58298L8.32398 8.6054L7.56725 8.09419L6.81052 8.6054ZM10.0897 8.6054L10.3419 7.58298L9.5852 7.07177H10.5942L10.8464 6.04934L11.0987 7.07177H12.1076L11.3509 7.58298L11.6031 8.6054L10.8464 8.09419L10.0897 8.6054ZM13.3688 8.6054L13.6211 7.58298L12.8644 7.07177H13.8733L14.1256 6.04934L14.3778 7.07177H15.3868L14.6301 7.58298L14.8823 8.6054L14.1256 8.09419L13.3688 8.6054ZM15.8913 5.79374L14.8823 6.56055L15.1346 5.53813L14.3778 5.02692H15.3868L15.8913 4.0045L16.1435 5.02692H17.1525L16.3958 5.53813L16.648 6.56055L15.8913 5.79374ZM2.0179 9.88343L0.252197 10.3946V0.426025H35.5663L29.2602 2.21526H2.0179V9.88343ZM0.252197 16.2736L55.4935 0.681631V38H0.252197V16.2736ZM53.7278 36.2108V2.98208L2.0179 17.8072V36.2108H53.7278ZM34.5573 31.6099L33.8006 29.0538H29.0079L28.2512 31.6099H26.2333L30.7736 19.3408H32.2871L36.8275 31.6099H34.5573ZM31.2781 22.1525L29.5124 27.5202H33.2961L31.2781 22.1525ZM20.6839 31.8655C19.4227 31.8655 18.4137 31.3543 17.4047 30.5875C16.1435 29.3094 16.1435 28.0314 16.1435 25.731C16.1435 23.4305 16.1435 21.8969 17.4047 20.8745C18.4137 19.852 19.4227 19.3408 20.6839 19.3408C22.9541 19.3408 24.4676 20.6189 24.972 23.1749H23.2063C22.9541 21.8969 22.1974 21.1301 20.6839 21.1301C19.9272 21.1301 19.4227 21.3857 18.9182 21.8969C18.4137 22.6637 18.1615 23.1749 18.1615 25.731C18.1615 28.287 18.4137 28.7982 18.9182 29.565C19.4227 30.0762 19.9272 30.3319 20.6839 30.3319C21.9451 30.3319 22.9541 29.565 23.2063 28.287H24.972C24.7198 30.3319 22.9541 31.8655 20.6839 31.8655ZM7.06277 31.6099V19.3408H14.8823V21.1301H8.82847V24.7085H13.8733V26.2422H8.82847V29.8206H14.6301V31.6099H7.06277ZM47.1694 31.6099V23.4305L44.3948 29.565H42.8813L40.1066 23.6861V31.8655H38.3409V19.3408H40.1066L43.638 27.009L47.1694 19.3408H48.9351V31.6099H47.1694Z" fill="#20132E"/>
</svg>
