<?xml version="1.0" encoding="UTF-8" standalone="no"?>
<!DOCTYPE svg PUBLIC "-//W3C//DTD SVG 1.1//EN" "http://www.w3.org/Graphics/SVG/1.1/DTD/svg11.dtd">
<svg width="100%" height="100%" viewBox="0 0 187 208" version="1.1" xmlns="http://www.w3.org/2000/svg" xmlns:xlink="http://www.w3.org/1999/xlink" xml:space="preserve" xmlns:serif="http://www.serif.com/" style="fill-rule:evenodd;clip-rule:evenodd;stroke-linejoin:round;stroke-miterlimit:2;">
    <g id="Artboard1" transform="matrix(0.432675,0,0,1,0,0)">
        <rect x="0" y="0" width="432" height="208" style="fill:none;"/>
        <clipPath id="_clip1">
            <rect x="0" y="0" width="432" height="208"/>
        </clipPath>
        <g clip-path="url(#_clip1)">
            <g transform="matrix(3.81121,0,0,1.64902,-3515.68,-1403.63)">
                <path d="M989.155,877.121L986.775,877.121L986.775,885.45L989.155,885.45L989.155,877.121ZM982.346,883.466C982.346,883.564 982.391,883.655 982.478,883.738C982.566,883.821 982.678,883.863 982.81,883.863C982.977,883.863 983.128,883.787 983.266,883.632C983.402,883.477 983.47,883.269 983.47,883.004L983.47,882.872C983.039,882.872 982.744,882.929 982.585,883.043C982.425,883.158 982.346,883.299 982.346,883.466M980.496,885.1C980.143,884.778 979.967,884.366 979.967,883.863C979.967,883.564 980.029,883.287 980.151,883.03C980.275,882.775 980.476,882.553 980.753,882.362C981.031,882.174 981.392,882.023 981.838,881.913C982.283,881.803 982.826,881.748 983.47,881.748C983.47,881.581 983.426,881.451 983.338,881.358C983.25,881.265 983.14,881.219 983.008,881.219C982.92,881.219 982.85,881.238 982.795,881.271C982.744,881.308 982.694,881.347 982.651,881.391C982.607,881.435 982.571,881.489 982.544,881.55L980.23,881.285C980.292,880.906 980.438,880.567 980.668,880.267C980.765,880.135 980.883,880.008 981.024,879.885C981.165,879.76 981.335,879.65 981.533,879.553C981.731,879.456 981.963,879.379 982.228,879.322C982.492,879.265 982.795,879.236 983.14,879.236C983.554,879.236 983.928,879.298 984.264,879.421C984.598,879.545 984.883,879.718 985.116,879.943C985.349,880.169 985.531,880.435 985.658,880.743C985.786,881.053 985.85,881.387 985.85,881.748L985.85,885.45L984.131,885.45L983.801,884.854C983.659,884.996 983.501,885.12 983.325,885.226C983.174,885.322 982.99,885.406 982.769,885.476C982.549,885.547 982.298,885.582 982.016,885.582C981.355,885.582 980.848,885.421 980.496,885.1M973.707,884.881C973.922,885.11 974.18,885.284 974.481,885.403C974.78,885.523 975.111,885.582 975.472,885.582C975.754,885.582 976.005,885.547 976.226,885.475C976.445,885.405 976.63,885.321 976.781,885.226C976.957,885.12 977.116,884.996 977.257,884.855L977.587,885.449L979.306,885.449L979.306,879.368L976.926,879.368L976.926,882.409C976.926,882.673 976.851,882.882 976.7,883.038C976.552,883.192 976.362,883.269 976.133,883.269C975.93,883.269 975.758,883.192 975.616,883.038C975.477,882.882 975.406,882.673 975.406,882.409L975.406,879.368L973.026,879.368L973.026,882.939C973.026,883.352 973.085,883.722 973.205,884.049C973.323,884.375 973.491,884.652 973.707,884.881M969.324,883.797C969.192,883.797 969.082,883.755 968.994,883.672C968.906,883.588 968.861,883.498 968.861,883.401L966.614,883.665C966.676,883.947 966.777,884.205 966.917,884.439C967.058,884.672 967.246,884.875 967.48,885.047C967.713,885.218 968.004,885.35 968.352,885.443C968.7,885.536 969.112,885.582 969.589,885.582C970.038,885.582 970.435,885.525 970.778,885.41C971.123,885.296 971.411,885.143 971.644,884.954C971.878,884.764 972.056,884.547 972.18,884.299C972.303,884.054 972.365,883.797 972.365,883.532C972.365,883.18 972.29,882.889 972.139,882.66C971.99,882.431 971.802,882.244 971.578,882.097C971.354,881.952 971.109,881.841 970.844,881.761C970.58,881.682 970.335,881.618 970.111,881.569C969.885,881.521 969.698,881.479 969.548,881.444C969.398,881.408 969.324,881.356 969.324,881.285C969.324,881.215 969.355,881.153 969.416,881.101C969.478,881.047 969.557,881.021 969.655,881.021C969.787,881.021 969.885,881.063 969.953,881.147C970.019,881.23 970.051,881.32 970.051,881.417L972.299,881.153C972.229,880.872 972.124,880.612 971.987,880.38C971.852,880.146 971.669,879.943 971.44,879.772C971.211,879.6 970.925,879.467 970.586,879.374C970.248,879.283 969.848,879.237 969.39,879.237C968.975,879.237 968.606,879.294 968.279,879.407C967.954,879.522 967.676,879.672 967.446,879.857C967.217,880.042 967.043,880.254 966.924,880.492C966.805,880.73 966.746,880.973 966.746,881.219C966.746,881.571 966.821,881.863 966.971,882.092C967.12,882.321 967.308,882.508 967.532,882.653C967.757,882.799 968.002,882.912 968.266,882.991C968.531,883.071 968.775,883.133 969,883.182C969.225,883.232 969.412,883.273 969.562,883.308C969.711,883.343 969.787,883.397 969.787,883.467C969.787,883.687 969.632,883.797 969.324,883.797M965.953,879.368L963.573,879.368L963.573,885.449L965.953,885.449L965.953,879.368ZM964.763,878.839C965.134,878.839 965.435,878.725 965.668,878.495C965.903,878.266 966.019,877.985 966.019,877.65C966.019,877.315 965.903,877.032 965.668,876.803C965.435,876.574 965.134,876.46 964.763,876.46C964.393,876.46 964.091,876.574 963.858,876.803C963.624,877.032 963.507,877.315 963.507,877.65C963.507,877.985 963.624,878.266 963.858,878.495C964.091,878.725 964.393,878.839 964.763,878.839M959.673,882.938L958.681,879.368L956.17,879.368L958.285,885.45L961.062,885.45L963.177,879.368L960.665,879.368L959.673,882.938ZM953.591,882.409C953.591,882.11 953.503,881.869 953.327,881.688C953.151,881.507 952.931,881.417 952.665,881.417C952.401,881.417 952.18,881.507 952.005,881.688C951.828,881.869 951.741,882.11 951.741,882.409C951.741,882.71 951.828,882.948 952.005,883.13C952.18,883.309 952.401,883.401 952.665,883.401C952.931,883.401 953.151,883.309 953.327,883.13C953.503,882.948 953.591,882.71 953.591,882.409M955.713,881.186C955.885,881.57 955.971,881.978 955.971,882.409C955.971,882.84 955.885,883.249 955.713,883.632C955.54,884.015 955.308,884.352 955.012,884.643C954.717,884.934 954.366,885.163 953.961,885.331C953.556,885.497 953.124,885.581 952.665,885.581C952.199,885.581 951.765,885.497 951.363,885.331C950.963,885.163 950.615,884.934 950.319,884.643C950.024,884.352 949.79,884.015 949.618,883.632C949.447,883.249 949.361,882.84 949.361,882.409C949.361,881.978 949.447,881.57 949.618,881.186C949.79,880.803 950.024,880.466 950.319,880.174C950.615,879.884 950.963,879.655 951.363,879.486C951.765,879.32 952.199,879.235 952.665,879.235C953.124,879.235 953.556,879.32 953.961,879.486C954.366,879.655 954.717,879.884 955.012,880.174C955.308,880.466 955.54,880.803 955.713,881.186M946.473,876.804C946.239,877.033 946.122,877.315 946.122,877.649C946.122,877.985 946.239,878.266 946.473,878.495C946.706,878.724 947.008,878.84 947.377,878.84C947.749,878.84 948.05,878.724 948.283,878.495C948.517,878.266 948.633,877.985 948.633,877.649C948.633,877.315 948.517,877.033 948.283,876.804C948.05,876.574 947.749,876.459 947.377,876.459C947.008,876.459 946.706,876.574 946.473,876.804M946.187,885.451L948.567,885.451L948.567,879.37L946.187,879.37L946.187,885.451ZM941.891,881.418C941.627,881.418 941.405,881.508 941.231,881.688C941.053,881.869 940.966,882.109 940.966,882.409C940.966,882.709 941.053,882.949 941.231,883.129C941.405,883.31 941.627,883.401 941.891,883.401C942.156,883.401 942.377,883.31 942.551,883.129C942.729,882.949 942.817,882.709 942.817,882.409C942.817,882.109 942.729,881.869 942.551,881.688C942.377,881.508 942.156,881.418 941.891,881.418M941.297,879.236C941.561,879.236 941.788,879.262 941.977,879.315C942.168,879.368 942.323,879.429 942.447,879.5C942.595,879.579 942.72,879.669 942.817,879.765L942.817,877.121L945.196,877.121L945.196,885.45L943.411,885.45L943.081,884.855C942.939,884.996 942.781,885.119 942.606,885.225C942.456,885.322 942.27,885.406 942.051,885.476C941.83,885.546 941.579,885.582 941.297,885.582C940.952,885.582 940.618,885.502 940.292,885.344C939.965,885.185 939.676,884.968 939.427,884.69C939.174,884.412 938.972,884.079 938.816,883.692C938.664,883.303 938.585,882.876 938.585,882.409C938.585,881.951 938.664,881.526 938.816,881.134C938.972,880.741 939.174,880.406 939.427,880.129C939.676,879.851 939.965,879.632 940.292,879.474C940.618,879.315 940.952,879.236 941.297,879.236M932.194,884.881C932.409,885.11 932.667,885.284 932.968,885.403C933.267,885.523 933.598,885.582 933.959,885.582C934.241,885.582 934.492,885.547 934.713,885.475C934.932,885.405 935.117,885.321 935.268,885.226C935.444,885.12 935.601,884.996 935.744,884.855L936.074,885.449L937.792,885.449L937.792,879.368L935.413,879.368L935.413,882.409C935.413,882.673 935.339,882.882 935.187,883.038C935.039,883.192 934.849,883.269 934.62,883.269C934.417,883.269 934.245,883.192 934.103,883.038C933.964,882.882 933.893,882.673 933.893,882.409L933.893,879.368L931.513,879.368L931.513,882.939C931.513,883.352 931.572,883.722 931.692,884.049C931.811,884.375 931.978,884.652 932.194,884.881M926.29,881.881L927.348,881.881L926.82,879.898L926.29,881.881ZM925.299,885.449L922.456,885.449L925.234,877.121L928.407,877.121L931.182,885.449L928.34,885.449L927.944,883.995L925.696,883.995L925.299,885.449ZM964.499,869.342C964.596,869.342 964.684,869.349 964.763,869.362C964.842,869.375 964.913,869.391 964.974,869.408C965.045,869.435 965.108,869.456 965.159,869.474L965.159,867.029C965.108,867.012 965.045,866.99 964.974,866.963C964.913,866.945 964.842,866.929 964.763,866.916C964.684,866.903 964.596,866.896 964.499,866.896C964.279,866.896 964.084,866.933 963.917,867.01C963.75,867.084 963.604,867.169 963.481,867.266C963.34,867.373 963.216,867.492 963.11,867.624L962.779,867.029L961.061,867.029L961.061,873.11L963.441,873.11L963.441,870.466C963.441,870.131 963.542,869.859 963.745,869.653C963.947,869.446 964.198,869.342 964.499,869.342M956.302,869.475L957.888,869.475C957.852,869.272 957.762,869.099 957.617,868.959C957.472,868.819 957.298,868.747 957.095,868.747C956.893,868.747 956.718,868.819 956.573,868.959C956.427,869.099 956.337,869.272 956.302,869.475M954.047,871.292C953.876,870.909 953.79,870.501 953.79,870.07C953.79,869.638 953.876,869.231 954.047,868.846C954.219,868.464 954.452,868.127 954.749,867.835C955.044,867.544 955.391,867.315 955.793,867.148C956.194,866.981 956.628,866.897 957.095,866.897C957.544,866.897 957.962,866.979 958.345,867.141C958.728,867.304 959.063,867.525 959.35,867.802C959.635,868.08 959.86,868.402 960.023,868.767C960.186,869.134 960.268,869.523 960.268,869.937C960.268,870.034 960.264,870.127 960.255,870.215C960.246,870.304 960.237,870.383 960.229,870.453C960.221,870.532 960.21,870.602 960.203,870.665L956.236,870.665C956.271,870.832 956.366,870.984 956.521,871.12C956.674,871.257 956.865,871.325 957.095,871.325C957.227,871.325 957.338,871.305 957.426,871.266C957.514,871.226 957.589,871.18 957.651,871.127C957.721,871.075 957.778,871.008 957.822,870.929L960.136,871.193C960.056,871.441 959.933,871.687 959.766,871.934C959.598,872.181 959.389,872.4 959.138,872.596C958.887,872.788 958.591,872.945 958.252,873.064C957.913,873.183 957.527,873.243 957.095,873.243C956.628,873.243 956.194,873.158 955.793,872.992C955.391,872.825 955.044,872.596 954.749,872.304C954.452,872.013 954.219,871.675 954.047,871.292M949.427,870.731C949.427,871.533 949.643,872.152 950.075,872.589C950.507,873.025 951.106,873.243 951.873,873.243C952.04,873.243 952.192,873.234 952.329,873.216C952.466,873.199 952.583,873.177 952.679,873.15C952.794,873.114 952.9,873.08 952.996,873.044L952.996,870.929C952.952,870.947 952.908,870.96 952.865,870.969C952.82,870.977 952.772,870.984 952.719,870.988C952.666,870.994 952.605,870.995 952.533,870.995C952.049,870.995 951.807,870.731 951.807,870.202L951.807,869.145L952.996,869.145L952.996,867.029L951.807,867.029L951.807,865.575L949.692,865.575L949.692,866.5C949.692,866.703 949.631,866.864 949.513,866.983C949.394,867.102 949.233,867.161 949.031,867.161L948.568,867.161L948.568,869.145L949.427,869.145L949.427,870.731ZM945.196,871.458C945.064,871.458 944.954,871.416 944.866,871.332C944.778,871.249 944.734,871.158 944.734,871.061L942.486,871.326C942.548,871.607 942.649,871.866 942.79,872.1C942.931,872.333 943.118,872.535 943.352,872.707C943.586,872.879 943.876,873.011 944.224,873.103C944.572,873.197 944.984,873.243 945.461,873.243C945.911,873.243 946.307,873.186 946.65,873.07C946.995,872.957 947.283,872.804 947.516,872.614C947.75,872.425 947.928,872.207 948.052,871.96C948.176,871.714 948.237,871.458 948.237,871.192C948.237,870.841 948.162,870.549 948.011,870.32C947.862,870.092 947.675,869.905 947.45,869.759C947.226,869.613 946.982,869.501 946.716,869.421C946.452,869.342 946.208,869.278 945.983,869.23C945.757,869.181 945.57,869.14 945.421,869.104C945.271,869.069 945.196,869.016 945.196,868.946C945.196,868.875 945.227,868.813 945.289,868.761C945.35,868.708 945.43,868.682 945.527,868.682C945.658,868.682 945.757,868.723 945.825,868.807C945.891,868.891 945.923,868.981 945.923,869.078L948.171,868.813C948.101,868.532 947.996,868.273 947.86,868.041C947.724,867.806 947.541,867.604 947.312,867.432C947.083,867.261 946.798,867.127 946.459,867.035C946.12,866.944 945.72,866.897 945.262,866.897C944.847,866.897 944.478,866.954 944.151,867.068C943.826,867.183 943.548,867.333 943.318,867.518C943.089,867.703 942.915,867.914 942.796,868.152C942.678,868.391 942.618,868.633 942.618,868.88C942.618,869.232 942.692,869.523 942.843,869.752C942.993,869.981 943.181,870.169 943.404,870.314C943.63,870.459 943.874,870.573 944.138,870.652C944.403,870.731 944.648,870.794 944.873,870.842C945.097,870.892 945.284,870.934 945.434,870.969C945.584,871.004 945.658,871.057 945.658,871.127C945.658,871.348 945.504,871.458 945.196,871.458M936.226,872.542C936.441,872.771 936.699,872.944 937,873.064C937.299,873.184 937.63,873.243 937.991,873.243C938.273,873.243 938.524,873.208 938.746,873.136C938.964,873.066 939.151,872.982 939.3,872.886C939.477,872.779 939.635,872.656 939.776,872.516L940.106,873.11L941.825,873.11L941.825,867.028L939.445,867.028L939.445,870.07C939.445,870.333 939.371,870.543 939.221,870.698C939.071,870.852 938.881,870.929 938.652,870.929C938.449,870.929 938.277,870.852 938.135,870.698C937.996,870.543 937.925,870.333 937.925,870.07L937.925,867.028L935.545,867.028L935.545,870.599C935.545,871.013 935.604,871.383 935.724,871.709C935.843,872.036 936.01,872.313 936.226,872.542M940.966,864.451L938.454,864.451L937.595,866.302L939.644,866.302L940.966,864.451ZM934.554,864.781L932.173,864.781L932.173,873.111L934.554,873.111L934.554,864.781ZM924.248,871.987C924.64,872.374 925.102,872.681 925.636,872.906C926.169,873.13 926.74,873.243 927.348,873.243C927.798,873.243 928.199,873.197 928.552,873.103C928.905,873.012 929.217,872.892 929.49,872.747C929.764,872.601 930.001,872.434 930.204,872.245C930.407,872.055 930.583,871.859 930.732,871.656C931.076,871.189 931.315,870.661 931.447,870.07L928.803,869.804C928.714,869.981 928.605,870.136 928.472,870.269C928.348,870.392 928.197,870.499 928.016,870.592C927.836,870.685 927.613,870.731 927.348,870.731C927.119,870.731 926.901,870.685 926.694,870.592C926.487,870.499 926.304,870.372 926.145,870.208C925.987,870.045 925.861,869.856 925.768,869.64C925.676,869.424 925.63,869.193 925.63,868.946C925.63,868.699 925.676,868.468 925.768,868.252C925.861,868.036 925.987,867.846 926.145,867.683C926.304,867.52 926.487,867.392 926.694,867.3C926.901,867.208 927.119,867.16 927.348,867.16C927.613,867.16 927.836,867.21 928.016,867.306C928.197,867.404 928.348,867.509 928.472,867.624C928.605,867.765 928.714,867.919 928.803,868.087L931.447,867.822C931.315,867.232 931.076,866.702 930.732,866.236C930.583,866.042 930.407,865.848 930.204,865.653C930.001,865.461 929.764,865.29 929.49,865.145C929.217,865 928.905,864.881 928.552,864.788C928.199,864.695 927.798,864.648 927.348,864.648C926.74,864.648 926.169,864.761 925.636,864.986C925.102,865.211 924.64,865.517 924.248,865.905C923.856,866.293 923.547,866.749 923.322,867.274C923.098,867.799 922.985,868.356 922.985,868.946C922.985,869.545 923.098,870.104 923.322,870.624C923.547,871.145 923.856,871.599 924.248,871.987M1025.44,935.395C1025.44,934.28 1024.53,933.376 1023.42,933.376C1022.47,933.376 1021.68,934.03 1021.46,934.91C1021.14,934.818 1020.79,934.768 1020.44,934.777C1018.13,934.826 1016.63,936.644 1016.6,938.58C1016.57,940.652 1018.28,942.388 1020.38,942.428C1022.51,942.47 1024.22,940.764 1024.23,938.594C1024.23,938.149 1024.15,937.719 1024.01,937.316C1024.83,937.063 1025.44,936.303 1025.44,935.395M1030.38,938.625C1030.35,944.142 1026.1,948.546 1020.45,948.553C1014.58,948.561 1010.51,943.825 1010.49,938.644C1010.47,933.29 1014.75,928.711 1020.38,928.664C1025.9,928.617 1030.41,933.076 1030.38,938.625M993.467,926.416L1001.18,926.416L989.6,891.675L976.364,891.675L964.784,926.416L973.54,926.416L976.823,921.334L992.153,923.275L993.467,926.416ZM934.038,891.674L922.457,891.674L922.457,926.416L932.099,926.416L938.319,921.251L947.615,923.276L952.028,926.416L962.713,926.416L962.713,891.674L951.132,891.674L942.585,909.872L934.038,891.674ZM1033.31,902.153C1032.42,900.02 1031.18,898.181 1029.59,896.638C1027.99,895.093 1026.07,893.88 1023.82,892.997C1021.58,892.116 1019.12,891.675 1016.43,891.675L1003.2,891.675L1003.2,926.416L1016.43,926.416C1019.12,926.416 1021.58,925.974 1023.82,925.093C1026.07,924.211 1027.99,922.998 1029.59,921.454C1031.18,919.909 1032.42,918.081 1033.31,915.966C1034.19,913.852 1034.63,911.546 1034.63,909.045C1034.63,906.583 1034.19,904.284 1033.31,902.153M1003.8,933.627C1002.2,932.083 1000.28,930.87 998.036,929.987C995.792,929.105 993.329,928.664 990.647,928.664L977.411,928.664L977.411,963.405L990.647,963.405C993.329,963.405 995.792,962.965 998.036,962.082C1000.28,961.199 1002.2,959.987 1003.8,958.443C1005.4,956.899 1006.64,955.07 1007.52,952.956C1008.4,950.843 1008.84,948.535 1008.84,946.035C1008.84,943.572 1008.4,941.274 1007.52,939.142C1006.64,937.01 1005.4,935.171 1003.8,933.627M964.726,963.405L975.365,963.405L975.365,928.664L964.726,928.664L964.726,963.405ZM955.261,950.17L962.757,963.405L948.791,963.405L946.943,960.643L933.953,957.369L933.165,963.405L922.456,963.405L922.456,928.664L947.711,928.664C949.674,928.664 951.45,928.976 953.039,929.601C954.627,930.227 955.984,931.082 957.108,932.166C958.232,933.25 959.098,934.529 959.706,935.998C960.311,937.469 960.615,939.068 960.615,940.795C960.615,942.45 960.338,943.876 959.785,945.07C959.232,946.265 958.615,947.229 957.938,947.965C957.152,948.885 956.259,949.619 955.261,950.17" style="fill:rgb(220,225,214);fill-rule:nonzero;"/>
            </g>
        </g>
    </g>
</svg>
