<?xml version="1.0" encoding="UTF-8" standalone="no"?>
<!DOCTYPE svg PUBLIC "-//W3C//DTD SVG 1.1//EN" "http://www.w3.org/Graphics/SVG/1.1/DTD/svg11.dtd">
<svg width="100%" height="100%" viewBox="0 0 1140 208" version="1.1" xmlns="http://www.w3.org/2000/svg" xmlns:xlink="http://www.w3.org/1999/xlink" xml:space="preserve" xmlns:serif="http://www.serif.com/" style="fill-rule:evenodd;clip-rule:evenodd;stroke-linejoin:round;stroke-miterlimit:2;">
    <g id="Artboard1" transform="matrix(2.63843,0,0,1,0,0)">
        <rect x="0" y="0" width="432" height="208" style="fill:none;"/>
        <clipPath id="_clip1">
            <rect x="0" y="0" width="432" height="208"/>
        </clipPath>
        <g clip-path="url(#_clip1)">
            <g transform="matrix(0.689529,0,0,1.81927,44.638,151.873)">
                <path d="M0,-52.629L-58.757,-52.629C-59.505,-52.629 -60.125,-52.019 -60.125,-51.267C-60.125,-50.505 -59.505,-49.9 -58.757,-49.9L0,-49.9C0.748,-49.9 1.368,-50.505 1.368,-51.267C1.368,-52.019 0.748,-52.629 0,-52.629M-5.82,-54.796C-5.82,-55.623 -6.488,-56.292 -7.314,-56.292C-8.142,-56.292 -8.794,-55.623 -8.794,-54.796C-8.794,-53.976 -8.142,-53.305 -7.314,-53.305C-6.488,-53.305 -5.82,-53.976 -5.82,-54.796M0,-59.599L-58.757,-59.599C-59.505,-59.599 -60.125,-58.989 -60.125,-58.227C-60.125,-57.475 -59.505,-56.863 -58.757,-56.863L0,-56.863C0.748,-56.863 1.368,-57.475 1.368,-58.227C1.368,-58.989 0.748,-59.599 0,-59.599M0,-56.112L-3.053,-56.112C-3.816,-56.112 -4.437,-55.501 -4.437,-54.739C-4.437,-53.987 -3.816,-53.376 -3.053,-53.376L0,-53.376C0.748,-53.376 1.368,-53.987 1.368,-54.739C1.368,-55.501 0.748,-56.112 0,-56.112M-1.081,-72.764C-1.256,-72.799 -1.955,-72.912 -2.178,-72.912C-3.053,-72.912 -3.53,-72.822 -3.832,-72.599C-3.228,-72.218 -2.48,-71.659 -2.322,-70.31C-3.657,-70.467 -4.214,-71.227 -4.596,-71.823C-4.818,-71.511 -4.897,-71.048 -4.897,-70.169C-4.897,-69.985 -4.897,-69.766 -4.882,-69.581C-5.867,-69.484 -6.822,-68.901 -7.235,-68.335C-6.822,-67.768 -5.867,-67.187 -4.882,-67.098C-4.897,-66.911 -4.897,-66.689 -4.897,-66.51C-4.897,-65.638 -4.818,-65.162 -4.596,-64.855C-4.151,-65.525 -3.514,-66.398 -1.781,-66.398L-1.543,-66.398C-1.526,-66.279 -1.526,-66.174 -1.526,-66.069C-1.526,-64.549 -2.226,-63.186 -4.055,-63.186C-5.279,-63.186 -5.931,-64.08 -6.217,-64.646C-6.011,-64.923 -5.9,-65.273 -5.9,-65.644C-5.9,-66.598 -6.663,-67.359 -7.617,-67.359C-8.555,-67.359 -9.334,-66.598 -9.334,-65.644C-9.334,-65.273 -9.207,-64.923 -9.017,-64.646C-9.302,-64.08 -9.938,-63.186 -11.163,-63.186C-13.008,-63.186 -13.708,-64.549 -13.708,-66.069C-13.708,-66.174 -13.692,-66.279 -13.692,-66.398L-13.437,-66.398C-11.704,-66.398 -11.067,-65.525 -10.622,-64.855C-10.416,-65.162 -10.32,-65.638 -10.32,-66.51C-10.32,-66.689 -10.336,-66.911 -10.336,-67.098C-9.366,-67.187 -8.396,-67.768 -7.999,-68.335C-8.396,-68.901 -9.366,-69.484 -10.336,-69.581C-10.336,-69.766 -10.32,-69.985 -10.32,-70.169C-10.32,-71.048 -10.416,-71.511 -10.622,-71.823C-11.02,-71.227 -11.561,-70.467 -12.913,-70.31C-12.738,-71.659 -11.99,-72.218 -11.386,-72.599C-11.704,-72.822 -12.165,-72.912 -13.039,-72.912C-13.215,-72.912 -13.437,-72.904 -13.628,-72.888C-13.723,-73.872 -14.312,-74.826 -14.868,-75.237C-15.425,-74.826 -16.013,-73.872 -16.108,-72.888C-16.3,-72.904 -16.506,-72.912 -16.697,-72.912C-17.571,-72.912 -18.033,-72.822 -18.35,-72.599C-17.746,-72.218 -16.984,-71.659 -16.84,-70.31C-18.16,-70.467 -18.716,-71.227 -19.114,-71.823C-19.321,-71.511 -19.4,-71.048 -19.4,-70.169C-19.4,-69.985 -19.4,-69.766 -19.384,-69.581C-20.37,-69.484 -21.341,-68.901 -21.738,-68.335C-21.341,-67.768 -20.37,-67.187 -19.384,-67.098C-19.4,-66.911 -19.4,-66.689 -19.4,-66.51C-19.4,-65.638 -19.321,-65.162 -19.114,-64.855C-18.669,-65.525 -18.033,-66.398 -16.3,-66.398L-16.029,-66.398L-16.029,-66.069C-16.029,-64.549 -16.729,-63.186 -18.558,-63.186C-19.798,-63.186 -20.433,-64.08 -20.736,-64.646C-20.529,-64.923 -20.402,-65.273 -20.402,-65.644C-20.402,-66.598 -21.166,-67.359 -22.12,-67.359C-22.246,-67.359 -22.358,-67.352 -22.47,-67.323C-23.249,-67.166 -23.837,-66.472 -23.837,-65.644C-23.837,-65.273 -23.725,-64.923 -23.519,-64.646C-23.805,-64.08 -24.457,-63.186 -25.682,-63.186C-27.526,-63.186 -28.226,-64.549 -28.226,-66.069C-28.226,-66.174 -28.226,-66.279 -28.21,-66.398L-27.956,-66.398C-26.222,-66.398 -25.571,-65.525 -25.141,-64.855C-24.934,-65.162 -24.839,-65.638 -24.839,-66.51C-24.839,-66.689 -24.839,-66.911 -24.855,-67.098C-23.869,-67.187 -22.915,-67.768 -22.501,-68.335C-22.915,-68.901 -23.869,-69.484 -24.855,-69.581C-24.839,-69.766 -24.839,-69.985 -24.839,-70.169C-24.839,-71.048 -24.934,-71.511 -25.141,-71.823C-25.538,-71.227 -26.079,-70.467 -27.415,-70.31C-27.272,-71.659 -26.492,-72.218 -25.904,-72.599C-26.206,-72.822 -26.683,-72.912 -27.557,-72.912C-27.732,-72.912 -27.956,-72.904 -28.146,-72.888C-28.241,-73.872 -28.814,-74.826 -29.386,-75.237C-29.943,-74.826 -30.532,-73.872 -30.627,-72.888C-30.802,-72.904 -31.024,-72.912 -31.215,-72.912C-32.074,-72.912 -32.551,-72.822 -32.853,-72.599C-32.265,-72.218 -31.502,-71.659 -31.343,-70.31C-32.678,-70.467 -33.235,-71.227 -33.616,-71.823C-33.839,-71.511 -33.919,-71.048 -33.919,-70.169L-33.919,-69.581C-34.889,-69.484 -35.843,-68.901 -36.257,-68.335C-35.843,-67.768 -34.889,-67.187 -33.919,-67.098L-33.919,-66.51C-33.919,-65.638 -33.839,-65.162 -33.616,-64.855C-33.171,-65.525 -32.551,-66.398 -30.802,-66.398L-30.548,-66.398L-30.548,-66.069C-30.548,-64.549 -31.247,-63.186 -33.076,-63.186C-34.316,-63.186 -34.953,-64.088 -35.255,-64.655C-35.048,-64.931 -34.936,-65.273 -34.936,-65.644C-34.936,-66.598 -35.699,-67.359 -36.638,-67.359C-37.592,-67.359 -38.371,-66.598 -38.371,-65.644C-38.371,-65.273 -38.245,-64.923 -38.037,-64.638C-38.323,-64.074 -38.976,-63.186 -40.184,-63.186C-42.029,-63.186 -42.728,-64.549 -42.728,-66.069L-42.728,-66.398L-42.458,-66.398C-40.74,-66.398 -40.089,-65.525 -39.659,-64.855C-39.437,-65.162 -39.357,-65.638 -39.357,-66.51L-39.357,-67.098C-38.387,-67.187 -37.433,-67.768 -37.019,-68.335C-37.433,-68.901 -38.387,-69.484 -39.357,-69.581L-39.357,-70.169C-39.357,-71.048 -39.437,-71.511 -39.659,-71.823C-40.041,-71.227 -40.598,-70.467 -41.933,-70.31C-41.774,-71.659 -41.011,-72.218 -40.406,-72.599C-40.725,-72.822 -41.186,-72.912 -42.06,-72.912C-42.252,-72.912 -42.474,-72.904 -42.649,-72.888C-42.76,-73.872 -43.333,-74.826 -43.89,-75.237C-44.446,-74.826 -45.05,-73.872 -45.13,-72.888C-45.32,-72.904 -45.527,-72.912 -45.718,-72.912C-46.593,-72.912 -47.069,-72.822 -47.372,-72.599C-46.784,-72.218 -46.004,-71.659 -45.861,-70.31C-47.197,-70.467 -47.753,-71.227 -48.135,-71.823C-48.358,-71.511 -48.437,-71.048 -48.437,-70.169C-48.437,-69.985 -48.437,-69.766 -48.422,-69.581C-49.407,-69.484 -50.377,-68.901 -50.775,-68.335C-50.377,-67.768 -49.407,-67.187 -48.422,-67.098C-48.437,-66.911 -48.437,-66.689 -48.437,-66.51C-48.437,-65.638 -48.358,-65.162 -48.135,-64.855C-47.706,-65.525 -47.054,-66.398 -45.32,-66.398L-45.066,-66.398C-45.05,-66.279 -45.05,-66.174 -45.05,-66.069C-45.05,-64.549 -45.75,-63.186 -47.594,-63.186C-48.818,-63.186 -49.471,-64.08 -49.757,-64.646C-49.551,-64.923 -49.439,-65.273 -49.439,-65.644C-49.439,-66.598 -50.202,-67.359 -51.141,-67.359C-51.618,-67.359 -52.047,-67.166 -52.365,-66.86C-52.667,-66.546 -52.874,-66.122 -52.874,-65.644C-52.874,-65.273 -52.747,-64.923 -52.54,-64.646C-52.842,-64.08 -53.478,-63.186 -54.703,-63.186C-56.547,-63.186 -57.247,-64.549 -57.247,-66.069C-57.247,-66.174 -57.247,-66.279 -57.231,-66.398L-56.976,-66.398C-55.243,-66.398 -54.607,-65.525 -54.162,-64.855C-53.955,-65.162 -53.859,-65.638 -53.859,-66.51C-53.859,-66.689 -53.876,-66.911 -53.876,-67.098C-52.89,-67.187 -51.936,-67.768 -51.538,-68.335C-51.936,-68.901 -52.89,-69.484 -53.876,-69.581C-53.876,-69.766 -53.859,-69.985 -53.859,-70.169C-53.859,-71.048 -53.955,-71.511 -54.162,-71.823C-54.559,-71.227 -55.116,-70.467 -56.436,-70.31C-56.292,-71.659 -55.53,-72.218 -54.926,-72.599C-55.243,-72.822 -55.705,-72.912 -56.579,-72.912C-56.801,-72.912 -57.518,-72.799 -57.676,-72.764C-58.026,-73.374 -59.362,-75.318 -61.684,-75.318C-63.178,-75.318 -64.53,-74.589 -64.737,-74.394C-63.958,-74.394 -62.733,-74.329 -61.7,-73.298C-60.237,-71.845 -60.126,-70.675 -60.126,-66.676C-60.126,-62.41 -57.947,-60.324 -54.798,-60.324C-53.001,-60.324 -51.141,-61.711 -51.141,-61.711C-51.141,-61.711 -49.312,-60.324 -47.499,-60.324C-45.591,-60.324 -43.89,-61.8 -43.89,-61.8C-43.89,-61.8 -42.204,-60.324 -40.28,-60.324C-38.482,-60.324 -36.638,-61.711 -36.638,-61.711C-36.638,-61.711 -34.794,-60.324 -32.997,-60.324C-31.072,-60.324 -29.386,-61.8 -29.386,-61.8C-29.386,-61.8 -27.685,-60.324 -25.777,-60.324C-23.964,-60.324 -22.12,-61.711 -22.12,-61.711C-22.12,-61.711 -20.275,-60.324 -18.478,-60.324C-16.554,-60.324 -14.868,-61.8 -14.868,-61.8C-14.868,-61.8 -13.183,-60.324 -11.275,-60.324C-9.462,-60.324 -7.617,-61.711 -7.617,-61.711C-7.617,-61.711 -5.772,-60.324 -3.959,-60.324C-0.827,-60.324 1.368,-62.41 1.368,-66.676C1.368,-70.675 1.479,-71.845 2.926,-73.298C3.96,-74.329 5.2,-74.394 5.979,-74.394C5.773,-74.589 4.405,-75.318 2.926,-75.318C0.604,-75.318 -0.731,-73.374 -1.081,-72.764M36.989,22.689L39.807,22.689L39.807,-75.303L36.989,-75.303L36.989,22.689ZM116.832,-7.757C116.832,-0.033 113.811,2.325 109.104,2.325L108.976,2.325L108.976,21.44L109.374,21.44C127.295,21.44 139.094,11.228 139.094,-10.899L139.094,-20.458L116.832,-20.458L116.832,-7.757ZM76.377,-41.798L76.377,-10.899C76.377,11.229 88.16,21.439 105.955,21.439L106.353,21.439L106.353,2.325L106.225,2.325C101.645,2.325 98.624,-0.034 98.624,-7.756L98.624,-44.94C98.624,-52.667 101.645,-55.022 106.225,-55.022L106.353,-55.022L106.353,-74.138L105.955,-74.138C88.16,-74.138 76.377,-63.926 76.377,-41.798M-58.757,-53.375L-55.704,-53.375C-54.942,-53.375 -54.337,-53.985 -54.337,-54.747C-54.337,-55.497 -54.942,-56.108 -55.704,-56.108L-58.757,-56.108C-59.505,-56.108 -60.125,-55.497 -60.125,-54.747C-60.125,-53.985 -59.505,-53.375 -58.757,-53.375M-14.693,-56.342L-19.193,-54.793L-14.693,-53.243L-10.193,-54.793L-14.693,-56.342ZM-44.064,-56.342L-48.58,-54.793L-44.064,-53.243L-39.564,-54.793L-44.064,-56.342ZM109.374,-74.138L108.976,-74.138L108.976,-55.022L109.103,-55.022C113.81,-55.022 116.832,-52.667 116.832,-44.941L116.832,-32.241L139.094,-32.241L139.094,-41.798C139.094,-63.926 127.295,-74.138 109.374,-74.138M-49.964,-54.796C-49.964,-55.623 -50.631,-56.292 -51.443,-56.292C-52.269,-56.292 -52.953,-55.623 -52.953,-54.796C-52.953,-53.976 -52.269,-53.305 -51.443,-53.305C-50.631,-53.305 -49.964,-53.976 -49.964,-54.796M-20.577,-54.796C-20.577,-55.623 -21.245,-56.292 -22.072,-56.292C-22.899,-56.292 -23.566,-55.623 -23.566,-54.796C-23.566,-53.976 -22.899,-53.305 -22.072,-53.305C-21.245,-53.305 -20.577,-53.976 -20.577,-54.796M-35.191,-54.796C-35.191,-55.623 -35.875,-56.292 -36.686,-56.292C-37.513,-56.292 -38.18,-55.623 -38.18,-54.796C-38.18,-53.976 -37.513,-53.305 -36.686,-53.305C-35.875,-53.305 -35.191,-53.976 -35.191,-54.796M-26.318,-53.375C-25.554,-53.375 -24.95,-53.985 -24.95,-54.747C-24.95,-55.497 -25.554,-56.108 -26.318,-56.108L-32.424,-56.108C-33.187,-56.108 -33.807,-55.497 -33.807,-54.747C-33.807,-53.985 -33.187,-53.375 -32.424,-53.375L-26.318,-53.375ZM187.007,-73.09L215.026,20.393L233.489,20.393L205.469,-73.09L187.007,-73.09ZM425.807,-41.798L425.807,-10.899C425.807,11.229 437.59,21.439 455.4,21.439L455.797,21.439L455.797,2.325L455.655,2.325C451.075,2.325 448.069,-0.034 448.069,-7.756L448.069,-44.94C448.069,-52.667 451.075,-55.022 455.655,-55.022L455.797,-55.022L455.797,-74.138L455.4,-74.138C437.59,-74.138 425.807,-63.926 425.807,-41.798M390.456,-54.238L418.999,-54.238L418.999,-73.091L390.456,-73.091L390.456,-54.238ZM390.456,20.391L418.999,20.391L418.999,1.538L390.456,1.538L390.456,20.391ZM539.187,-73.09L520.598,-73.09L536.437,20.393L558.827,20.393L539.187,-73.09ZM365.586,20.391L387.843,20.391L387.843,-73.09L365.586,-73.09L365.586,20.391ZM488.524,-20.458L466.261,-20.458L466.261,-7.757C466.261,-0.033 463.256,2.324 458.549,2.324L458.406,2.324L458.406,21.439L458.803,21.439C476.741,21.439 488.524,11.228 488.524,-10.899L488.524,-20.458ZM516.272,-16.792L522.172,-47.558L517.99,-73.09L507.638,-73.09L488.524,20.392L509.085,20.392L512.869,0.359L530.156,0.359L527.404,-16.792L516.272,-16.792ZM147.204,20.391L169.461,20.391L169.461,-73.09L147.204,-73.09L147.204,20.391ZM-56.15,-20.379L-57.31,-18.776L-55.339,-18.984L-54.528,-17.172L-53.733,-18.984L-51.76,-18.776L-52.938,-20.379L-51.76,-21.978L-53.733,-21.764L-54.528,-23.589L-55.339,-21.764L-57.31,-21.978L-56.15,-20.379ZM-56.15,-44.403L-57.31,-42.794L-55.339,-43.01L-54.528,-41.191L-53.733,-43.01L-51.76,-42.794L-52.938,-44.403L-51.76,-46.006L-53.733,-45.796L-54.528,-47.609L-55.339,-45.796L-57.31,-46.006L-56.15,-44.403ZM-52.572,3.649L-51.41,2.054L-53.367,2.271L-54.177,0.46L-54.973,2.271L-56.945,2.054L-55.784,3.649L-56.945,5.243L-54.973,5.035L-54.177,6.862L-53.367,5.035L-51.41,5.243L-52.572,3.649ZM-49.885,-1.083C-49.885,0.303 -49.757,2.122 -49.057,3.999L-34.046,3.999C-32.71,3.999 -31.613,2.912 -31.613,1.578L-31.613,-21.175C-37.895,-21.786 -42.712,-25.251 -42.712,-29.423C-42.712,-34.036 -36.845,-37.786 -29.593,-37.786C-22.342,-37.786 -16.474,-34.036 -16.474,-29.423C-16.474,-25.251 -21.277,-21.786 -27.558,-21.175L-27.558,-16.204L-26.7,-15.331C-26.556,-15.19 -26.445,-14.914 -26.445,-14.712L-26.445,-13.467C-26.445,-12.767 -26.016,-12.209 -25.491,-12.209L-24.537,-12.209L-24.537,-16.084L-25.872,-18.245C-26.031,-18.499 -26.016,-18.909 -25.841,-19.147L-24.966,-20.361C-24.839,-20.526 -24.616,-20.563 -24.473,-20.429L-22.978,-19.252L-22.326,-19.372C-22.136,-19.415 -21.833,-19.348 -21.69,-19.228L-20.641,-18.395L-19.909,-18.515C-19.528,-18.587 -19.098,-18.336 -18.971,-17.955L-18.812,-17.514C-18.684,-17.142 -18.875,-16.681 -19.225,-16.479L-19.718,-16.218L-19.543,-13.647L-17.333,-7.343L-15.489,-4.168C-15.155,-3.593 -14.963,-2.938 -14.963,-2.237C-14.963,-1.217 -15.377,-0.301 -16.013,0.387L-14.423,3.999L-9.716,3.999C-9.016,2.122 -8.889,0.303 -8.889,-1.083L-8.889,-39.856L-49.885,-39.856L-49.885,-1.083ZM-30.993,-44.403L-32.17,-42.794L-30.198,-43.01L-29.387,-41.191L-28.591,-43.01L-26.604,-42.794L-27.796,-44.403L-26.604,-46.006L-28.591,-45.796L-29.387,-47.609L-30.198,-45.796L-32.17,-46.006L-30.993,-44.403ZM-6.201,3.649L-7.378,5.243L-5.391,5.035L-4.596,6.862L-3.801,5.035L-1.829,5.243L-2.99,3.649L-1.829,2.054L-3.801,2.271L-4.596,0.46L-5.391,2.271L-7.378,2.054L-6.201,3.649ZM-5.836,-20.379L-7.013,-18.776L-5.041,-18.984L-4.23,-17.172L-3.435,-18.984L-1.463,-18.776L-2.639,-20.379L-1.463,-21.978L-3.435,-21.764L-4.23,-23.589L-5.041,-21.764L-7.013,-21.978L-5.836,-20.379ZM-5.836,-44.403L-7.013,-42.794L-5.041,-43.01L-4.23,-41.191L-3.435,-43.01L-1.463,-42.794L-2.639,-44.403L-1.463,-46.006L-3.435,-45.796L-4.23,-47.609L-5.041,-45.796L-7.013,-46.006L-5.836,-44.403ZM-24.504,-6.009L-24.504,-6.576L-25.157,-6.397C-25.538,-6.298 -25.968,-6.508 -26.158,-6.874L-27.558,-9.675L-27.558,1.578C-27.558,2.912 -26.477,3.999 -25.141,3.999L-22.787,3.999L-22.565,3.673C-22.454,3.508 -22.199,3.323 -22.008,3.255L-20.975,2.905L-22.994,0.526C-23.169,0.297 -23.201,-0.091 -23.026,-0.337L-22.66,-0.822C-23.121,-1.069 -24.075,-1.85 -24.393,-4.249C-24.473,-4.757 -24.504,-5.344 -24.504,-6.009M-10.639,5.894L-48.135,5.894C-45.877,9.617 -40.789,13.032 -29.387,13.032C-17.985,13.032 -12.896,9.617 -10.639,5.894M-59.187,-48.95L0.414,-48.95L0.414,-0.07C0.414,14.411 -9.652,22.675 -29.387,22.675C-49.121,22.675 -59.187,14.411 -59.187,-0.07L-59.187,-48.95ZM223.009,-23.338L236.24,20.392L240.819,20.392L240.819,-73.09L221.435,-73.09L223.009,-23.338ZM184.383,-73.09L179.676,-73.09L179.676,20.393L199.045,20.393L198.138,-27.267L184.383,-73.09ZM275.898,20.391L304.441,20.391L304.441,1.538L275.898,1.538L275.898,20.391ZM275.898,-54.238L304.441,-54.238L304.441,-73.091L275.898,-73.091L275.898,-54.238ZM251.029,20.391L273.286,20.391L273.286,-73.09L251.029,-73.09L251.029,20.391ZM307.321,-54.238L360.608,-54.238L360.608,-73.091L307.321,-73.091L307.321,-54.238ZM322.778,20.393L345.035,20.393L345.035,-51.879L322.778,-51.879L322.778,20.393ZM416.641,-36.43L390.457,-36.43L390.457,-17.577L416.641,-17.577L416.641,-36.43ZM302.083,-36.43L275.899,-36.43L275.899,-17.577L302.083,-17.577L302.083,-36.43ZM458.549,-55.022L458.406,-55.022L458.406,-74.138L458.803,-74.138C476.741,-74.138 488.524,-63.925 488.524,-41.798L488.524,-32.241L466.261,-32.241L466.261,-44.94C466.261,-52.667 463.255,-55.022 458.549,-55.022" style="fill:rgb(220,225,214);fill-rule:nonzero;"/>
            </g>
        </g>
    </g>
</svg>
