<?xml version="1.0" encoding="UTF-8" standalone="no"?>
<!DOCTYPE svg PUBLIC "-//W3C//DTD SVG 1.1//EN" "http://www.w3.org/Graphics/SVG/1.1/DTD/svg11.dtd">
<svg width="100%" height="100%" viewBox="0 0 720 208" version="1.1" xmlns="http://www.w3.org/2000/svg" xmlns:xlink="http://www.w3.org/1999/xlink" xml:space="preserve" xmlns:serif="http://www.serif.com/" style="fill-rule:evenodd;clip-rule:evenodd;stroke-linejoin:round;stroke-miterlimit:2;">
    <g id="Artboard1" transform="matrix(1.66641,0,0,1,0,0)">
        <rect x="0" y="0" width="432" height="208" style="fill:none;"/>
        <g transform="matrix(1.01108,0,0,1.68487,-1777.89,-2092.31)">
            <g transform="matrix(1,0,0,1,1935.37,1323.73)">
                <path d="M0,-37.582L0.803,-25.215L-0.908,-25.215C-4.337,-33.193 -5.621,-35.656 -9.742,-35.656L-12.579,-35.656L-12.579,-5.406C-12.579,-2.463 -11.4,-2.303 -7.761,-1.875L-7.761,0L-25.215,0L-25.215,-1.875C-21.627,-2.303 -20.396,-2.463 -20.396,-5.406L-20.396,-35.656L-23.234,-35.656C-27.356,-35.656 -28.639,-33.193 -32.121,-25.215L-33.833,-25.215L-33.029,-37.582L0,-37.582Z" style="fill:rgb(220,225,214);fill-rule:nonzero;"/>
            </g>
            <g transform="matrix(1,0,0,1,1942.76,1313.82)">
                <path d="M0,-8.569L10.708,-8.569C10.708,-13.599 9.37,-17.026 5.888,-17.026C2.356,-17.026 0.429,-13.494 0,-8.569M17.346,-7.819L17.346,-6.587L-0.108,-6.587C-0.321,0.907 3.535,5.348 8.782,5.348C12.423,5.348 14.831,3.799 16.758,1.014L17.614,1.497C16.221,6.797 12.313,10.438 6.158,10.438C-1.604,10.438 -6.798,4.71 -6.798,-3.534C-6.798,-12.689 -0.912,-19.007 6.425,-19.007C13.6,-19.007 17.346,-14.242 17.346,-7.819" style="fill:rgb(220,225,214);fill-rule:nonzero;"/>
            </g>
            <g transform="matrix(1,0,0,1,1972.9,1285.93)">
                <path d="M0,33.672C0,35.548 0.858,35.867 3.32,36.027L3.32,37.796L-10.758,37.796L-10.758,36.027C-8.297,35.867 -7.441,35.548 -7.441,33.672L-7.441,1.231L-10.654,-0.428L-10.654,-1.555L-1.176,-4.124L0,-4.124L0,33.672Z" style="fill:rgb(220,225,214);fill-rule:nonzero;"/>
            </g>
            <g transform="matrix(1,0,0,1,1985.05,1313.82)">
                <path d="M0,-8.569L10.707,-8.569C10.707,-13.599 9.37,-17.026 5.889,-17.026C2.358,-17.026 0.429,-13.494 0,-8.569M17.348,-7.819L17.348,-6.587L-0.109,-6.587C-0.32,0.907 3.532,5.348 8.78,5.348C12.419,5.348 14.827,3.799 16.756,1.014L17.613,1.497C16.222,6.797 12.314,10.438 6.156,10.438C-1.608,10.438 -6.801,4.71 -6.801,-3.534C-6.801,-12.689 -0.911,-19.007 6.423,-19.007C13.598,-19.007 17.348,-14.242 17.348,-7.819" style="fill:rgb(220,225,214);fill-rule:nonzero;"/>
            </g>
            <g transform="matrix(1,0,0,1,2037.94,1314.89)">
                <path d="M0,-19.914L-10.28,8.834L-12.955,8.834L-23.769,-19.914L-26.502,2.249C-26.554,2.622 -26.607,3.373 -26.607,3.532C-26.607,6.155 -25.43,6.692 -21.521,6.959L-21.521,8.834L-33.887,8.834L-33.887,6.959C-30.837,6.8 -29.714,6.209 -29.443,3.747L-26.126,-22.969C-26.126,-25.806 -27.142,-26.714 -30.674,-26.875L-30.674,-28.748L-18.577,-28.748C-18.471,-27.516 -18.149,-26.66 -17.72,-25.483L-8.994,-2.142L-0.858,-25.536C-0.431,-26.714 -0.107,-27.516 0,-28.748L11.938,-28.748L11.938,-26.875C8.511,-26.714 7.441,-25.806 7.441,-22.969L10.759,3.747C11.082,6.317 12.206,6.8 15.15,6.959L15.15,8.834L-2.248,8.834L-2.248,6.959C1.498,6.692 2.783,6.155 2.783,3.532C2.783,3.373 2.729,2.622 2.676,2.249L0,-19.914Z" style="fill:rgb(220,225,214);fill-rule:nonzero;"/>
            </g>
            <g transform="matrix(1,0,0,1,2070.33,1300.81)">
                <path d="M0,17.453L0,7.442L-4.603,9.316C-6.854,10.171 -8.244,11.404 -8.244,14.402C-8.244,17.187 -6.959,19.164 -4.122,19.164C-2.571,19.164 -1.498,18.577 0,17.453M7.389,16.97C7.389,18.791 7.763,19.97 9.154,19.97C9.956,19.97 10.706,19.701 11.296,19.434L11.618,20.611C10.065,22.432 8.032,23.449 5.514,23.449C2.625,23.449 0.695,21.684 0.161,18.736C-1.551,20.986 -4.335,23.342 -8.19,23.342C-12.528,23.342 -15.417,20.719 -15.417,16.435C-15.417,11.83 -12.1,9.956 -8.085,8.458L0,5.513L0,0.964C0,-2.086 -1.017,-4.281 -3.8,-4.281C-6.37,-4.281 -7.388,-2.355 -7.388,0.214C-7.388,1.286 -7.228,2.356 -6.959,3.534L-11.404,4.122C-12.85,3.641 -13.759,2.517 -13.759,0.749C-13.759,-3.694 -9.155,-5.996 -3.213,-5.996C3.641,-5.996 7.389,-3.479 7.389,2.786L7.389,16.97Z" style="fill:rgb(220,225,214);fill-rule:nonzero;"/>
            </g>
            <g transform="matrix(1,0,0,1,2090.25,1297.76)">
                <path d="M0,10.54C0,17.073 2.677,21.946 7.549,21.946C9.371,21.946 10.868,21.356 12.1,20.235L12.1,6.099C12.1,1.925 10.333,-0.54 7.121,-0.54C2.625,-0.54 0,3.849 0,10.54M8.887,-12.261L8.887,-13.388L18.363,-15.957L19.54,-15.957L19.54,20.287C19.54,22.106 19.649,22.697 21.682,22.856L23.022,22.962L23.022,24.568L13.276,26.497L11.885,26.497L12.1,21.518C9.957,24.568 7.226,26.497 3.482,26.497C-2.997,26.497 -7.333,21.249 -7.333,13.112C-7.333,2.996 -1.336,-2.841 6.317,-2.841C8.78,-2.841 10.815,-2.143 12.1,-0.966L12.1,-10.603L8.887,-12.261Z" style="fill:rgb(220,225,214);fill-rule:nonzero;"/>
            </g>
            <g transform="matrix(1,0,0,1,2125.8,1299.37)">
                <path d="M0,19.801C0,22.001 1.231,22.322 4.549,22.587L4.549,24.356L-10.761,24.356L-10.761,22.587C-8.248,22.427 -7.388,22.108 -7.388,20.232L-7.388,1.279L-10.6,-0.593L-10.6,-1.609L-1.02,-4.555L0.214,-4.555L0,3.367C2.566,-2.466 4.174,-4.555 7.333,-4.555C8.458,-4.555 9.261,-4.179 9.688,-3.645L9.688,2.137L8.673,2.137C5.353,2.137 2.732,2.298 0,5.029L0,19.801Z" style="fill:rgb(220,225,214);fill-rule:nonzero;"/>
            </g>
            <g transform="matrix(1,0,0,1,2139.66,1319.5)">
                <path d="M0,-32.12C0,-34.423 1.767,-36.351 4.334,-36.351C6.958,-36.351 8.723,-34.423 8.723,-32.12C8.723,-29.872 6.958,-27.891 4.334,-27.891C1.767,-27.891 0,-29.872 0,-32.12M8.135,0.107C8.135,1.983 8.992,2.302 11.509,2.462L11.509,4.231L-2.627,4.231L-2.627,2.462C-0.108,2.302 0.748,1.983 0.748,0.107L0.748,-18.845L-2.465,-20.718L-2.465,-21.734L6.958,-24.68L8.135,-24.68L8.135,0.107Z" style="fill:rgb(220,225,214);fill-rule:nonzero;"/>
            </g>
            <g transform="matrix(1,0,0,1,2160.49,1297.76)">
                <path d="M0,10.54C0,17.073 2.675,21.946 7.55,21.946C9.368,21.946 10.867,21.356 12.098,20.235L12.098,6.099C12.098,1.925 10.331,-0.54 7.119,-0.54C2.623,-0.54 0,3.849 0,10.54M8.888,-12.261L8.888,-13.388L18.363,-15.957L19.539,-15.957L19.539,20.287C19.539,22.106 19.65,22.697 21.681,22.856L23.021,22.962L23.021,24.568L13.277,26.497L11.885,26.497L12.098,21.518C9.957,24.568 7.227,26.497 3.48,26.497C-3,26.497 -7.335,21.249 -7.335,13.112C-7.335,2.996 -1.339,-2.841 6.316,-2.841C8.781,-2.841 10.814,-2.143 12.098,-0.966L12.098,-10.603L8.888,-12.261Z" style="fill:rgb(220,225,214);fill-rule:nonzero;"/>
            </g>
            <g transform="matrix(1,0,0,1,1816.23,1358.55)">
                <path d="M0,-34.587L-32.006,-11.414L-16.294,0L0,-11.804L16.293,0L31.995,-11.408L0,-34.587Z" style="fill:rgb(220,225,214);fill-rule:nonzero;"/>
            </g>
            <g transform="matrix(1,0,0,1,1764.4,1347.14)">
                <path d="M0,-60.934L32.003,-37.589L19.825,0L3.899,-11.572L10.104,-30.727L-5.996,-42.479L0,-60.934Z" style="fill:rgb(220,225,214);fill-rule:nonzero;"/>
            </g>
            <g transform="matrix(1,0,0,1,1764.4,1248.54)">
                <path d="M0,37.667L39.482,37.667L51.79,0L31.968,0L25.844,18.745L6.15,18.745L0.003,37.662L0,37.667Z" style="fill:rgb(220,225,214);fill-rule:nonzero;"/>
            </g>
            <g transform="matrix(1,0,0,1,1868.06,1347.14)">
                <path d="M0,-60.934L-32.003,-37.589L-19.827,0L-3.899,-11.572L-10.104,-30.727L5.995,-42.479L0,-60.934Z" style="fill:rgb(220,225,214);fill-rule:nonzero;"/>
            </g>
            <g transform="matrix(1,0,0,1,1868.06,1248.54)">
                <path d="M0,37.667L-39.482,37.667L-51.79,0L-31.967,0L-25.842,18.745L-6.149,18.745L-0.002,37.662L0,37.667Z" style="fill:rgb(220,225,214);fill-rule:nonzero;"/>
            </g>
        </g>
    </g>
</svg>
