<svg width="600" height="303" viewBox="0 0 600 303" fill="none" xmlns="http://www.w3.org/2000/svg">
<path fill-rule="evenodd" clip-rule="evenodd" d="M538.999 277.012L539.249 276.262L538.624 275.762H539.374L539.624 275.012L539.874 275.762H540.624L539.999 276.262L540.249 277.012L539.624 276.512L538.999 277.012ZM541.624 277.012L541.874 276.262L541.249 275.762H541.999L542.249 275.012L542.498 275.762H543.248L542.623 276.262L542.873 277.012L542.249 276.512L541.624 277.012ZM544.373 277.012L544.623 276.262L543.998 275.762H544.748L544.998 275.012L545.248 275.762H545.998L545.373 276.262L545.623 277.012L544.998 276.512L544.373 277.012ZM540.374 278.636L540.624 277.886L539.999 277.386H540.749L540.999 276.637L541.249 277.386H541.999L541.374 277.886L541.624 278.636L540.999 278.136L540.374 278.636ZM542.998 278.636L543.248 277.886L542.623 277.386H543.373L543.623 276.637L543.873 277.386H544.623L543.998 277.886L544.248 278.636L543.623 278.136L542.998 278.636ZM545.623 278.636L545.873 277.886L545.248 277.386H545.998L546.248 276.637L546.498 277.386H547.247L546.623 277.886L546.873 278.636L546.248 278.136L545.623 278.636ZM547.622 276.512L546.998 277.012L547.247 276.262L546.623 275.762H547.372L547.622 275.012L547.872 275.762H548.622L547.997 276.262L548.247 277.012L547.622 276.512ZM536.5 279.761L535 280.135V272.139H563.619L558.495 273.638H536.5V279.761ZM535.125 284.883L579.991 272.389V302.251H535.125V284.883ZM578.491 300.752V274.263L536.5 286.008V300.752H578.491ZM562.744 297.128L562.119 295.129H558.245L557.62 297.128H555.996L559.62 287.257H560.87L564.494 297.128H562.744ZM560.245 289.506L558.745 293.88H561.744L560.245 289.506ZM551.622 297.253C550.622 297.253 549.747 296.878 548.997 296.254C547.997 295.254 547.997 294.255 547.997 292.255C547.997 290.256 547.997 289.257 548.997 288.257C549.622 287.632 550.497 287.257 551.622 287.257C553.371 287.257 554.746 288.382 555.121 290.256H553.621C553.371 289.257 552.746 288.632 551.622 288.632C550.997 288.632 550.497 288.882 550.122 289.257C549.622 289.756 549.497 290.381 549.497 292.38C549.497 294.379 549.622 294.879 550.122 295.504C550.497 295.879 550.997 296.129 551.622 296.129C552.746 296.129 553.371 295.379 553.621 294.504H555.121C554.746 296.129 553.371 297.253 551.622 297.253ZM540.499 297.128V287.257H546.748V288.632H541.999V291.506H546.123V292.88H541.999V295.879H546.748V297.253H540.499V297.128ZM572.992 297.128V290.506L570.743 295.254H569.618L567.243 290.506V297.128H565.869V287.257H567.368L570.243 293.38L573.117 287.257H574.617V297.128H572.992Z" fill="#E61D4B"/>
<path fill-rule="evenodd" clip-rule="evenodd" d="M4 17.1196C4 13.621 5.37471 10.3724 7.87419 7.8734C10.3737 5.37443 13.623 4 17.1223 4C70.1112 4 583.129 4.12495 583.129 4.12495C590.128 4.12495 595.877 9.87257 595.877 16.8697C595.877 16.8697 596.252 226.908 596.252 239.652C596.252 245.15 591.753 249.648 586.254 249.648C509.645 249.648 16.7473 249.773 16.7473 249.773C9.7488 249.773 4 244.026 4 237.029C4 237.154 4 66.3492 4 17.1196Z" fill="#E61D4B" stroke="#E61D4B" stroke-width="6.274" stroke-miterlimit="10" stroke-linecap="round" stroke-linejoin="round"/>
<path fill-rule="evenodd" clip-rule="evenodd" d="M21.4961 21.2431H103.604V65.2248H67.9864V115.329H103.604V159.061H67.9864V232.031H21.4961V21.2431ZM160.592 18.6191C196.46 18.6191 214.331 38.8608 214.331 79.2191V174.18C214.331 214.663 196.46 234.78 160.592 234.78C124.725 234.78 106.853 214.538 106.853 174.18V79.2191C106.853 38.8608 124.85 18.6191 160.592 18.6191ZM167.841 82.5927C167.841 76.5951 167.716 72.3469 167.466 69.8479C167.216 67.349 166.591 65.4748 165.716 64.3502C164.841 63.2257 163.092 62.6009 160.717 62.6009C158.343 62.6009 156.593 63.2257 155.718 64.3502C154.843 65.4748 154.218 67.349 153.968 69.8479C153.719 72.3469 153.594 76.7201 153.594 82.5927V170.681C153.594 176.679 153.719 180.927 153.968 183.426C154.218 185.925 154.843 187.799 155.718 188.924C156.593 190.048 158.343 190.673 160.717 190.673C163.092 190.673 164.841 190.048 165.716 188.924C166.591 187.799 167.216 185.925 167.466 183.426C167.716 180.927 167.841 176.554 167.841 170.681V82.5927ZM325.058 213.414C325.058 218.286 325.183 222.285 325.558 225.409C325.933 228.532 326.807 230.781 328.057 232.156H281.567C279.692 229.907 278.817 223.659 278.817 213.414V172.056C278.817 166.933 278.068 163.309 276.693 161.185C275.318 159.061 272.444 157.936 268.195 157.812L263.446 158.061V232.156H216.955V21.2431H263.446C278.692 21.2431 290.69 23.1173 299.563 26.7408C308.436 30.4892 314.935 36.4867 318.934 44.8583C322.933 53.2298 324.933 64.4752 324.933 78.7193V100.585C324.933 121.826 318.309 137.195 305.187 146.691C312.061 149.565 317.059 153.688 320.184 159.061C323.308 164.559 324.933 171.931 324.933 181.177V213.414H325.058ZM278.568 78.7193C278.568 73.2215 277.443 69.723 275.193 67.8488C272.944 66.0995 269.194 65.2248 263.821 65.2248H263.571V113.455H263.821C269.444 113.455 273.194 112.705 275.318 111.206C277.443 109.706 278.568 106.208 278.568 100.585V78.7193ZM389.044 21.2431H435.535V174.18C435.535 214.663 417.664 234.78 381.796 234.78C345.928 234.78 328.057 214.538 328.057 174.18V21.2431H374.548V170.681C374.548 176.679 374.672 180.927 374.922 183.426C375.172 185.925 375.797 187.799 376.672 188.924C377.547 190.048 379.296 190.673 381.671 190.673C384.045 190.673 385.795 190.048 386.67 188.924C387.545 187.799 388.17 185.925 388.42 183.426C388.67 180.927 388.795 176.554 388.795 170.681V21.2431H389.044ZM484.775 21.2431L508.395 131.947L532.015 21.2431H578.505V232.156H532.015V152.814L518.393 232.156H498.397L484.775 152.814V232.156H438.284V21.2431H484.775Z" fill="#DCE1D6"/>
</svg>
