<svg width="232" height="74" viewBox="0 0 232 74" fill="none" xmlns="http://www.w3.org/2000/svg">
<path fill-rule="evenodd" clip-rule="evenodd" d="M185.533 38.5021L185.817 37.6556L185.108 37.0913H185.958L186.242 36.2448L186.525 37.0913H187.375L186.667 37.6556L186.95 38.5021L186.242 37.9378L185.533 38.5021ZM188.508 38.5021L188.792 37.6556L188.083 37.0913H188.933L189.217 36.2448L189.5 37.0913H190.35L189.642 37.6556L189.925 38.5021L189.217 37.9378L188.508 38.5021ZM191.625 38.5021L191.908 37.6556L191.2 37.0913H192.05L192.333 36.2448L192.617 37.0913H193.467L192.758 37.6556L193.042 38.5021L192.333 37.9378L191.625 38.5021ZM187.092 40.3361L187.375 39.4896L186.667 38.9253H187.517L187.8 38.0788L188.083 38.9253H188.933L188.225 39.4896L188.508 40.3361L187.8 39.7718L187.092 40.3361ZM190.067 40.3361L190.35 39.4896L189.642 38.9253H190.492L190.775 38.0788L191.058 38.9253H191.908L191.2 39.4896L191.483 40.3361L190.775 39.7718L190.067 40.3361ZM193.042 40.3361L193.325 39.4896L192.617 38.9253H193.467L193.75 38.0788L194.033 38.9253H194.883L194.175 39.4896L194.458 40.3361L193.75 39.7718L193.042 40.3361ZM195.308 37.9378L194.6 38.5021L194.883 37.6556L194.175 37.0913H195.025L195.308 36.2448L195.592 37.0913H196.442L195.733 37.6556L196.017 38.5021L195.308 37.9378ZM182.7 41.6058L181 42.0291V33H213.442L207.633 34.6929H182.7V41.6058ZM181.142 47.39L232 33.2822V67H181.142V47.39ZM230.3 65.3071V35.3983L182.7 48.6598V65.3071H230.3ZM212.45 61.2158L211.742 58.9585H207.35L206.642 61.2158H204.8L208.908 50.0705H210.325L214.433 61.2158H212.45ZM209.617 52.61L207.917 57.5477H211.317L209.617 52.61ZM199.842 61.3568C198.708 61.3568 197.717 60.9336 196.867 60.2282C195.733 59.0996 195.733 57.971 195.733 55.7137C195.733 53.4564 195.733 52.3278 196.867 51.1992C197.575 50.4938 198.567 50.0705 199.842 50.0705C201.825 50.0705 203.383 51.3402 203.808 53.4564H202.108C201.825 52.3278 201.117 51.6224 199.842 51.6224C199.133 51.6224 198.567 51.9046 198.142 52.3278C197.575 52.8921 197.433 53.5975 197.433 55.8548C197.433 58.112 197.575 58.6763 198.142 59.3817C198.567 59.805 199.133 60.0871 199.842 60.0871C201.117 60.0871 201.825 59.2407 202.108 58.2531H203.808C203.383 60.0871 201.825 61.3568 199.842 61.3568ZM187.233 61.2158V50.0705H194.317V51.6224H188.933V54.8672H193.608V56.4191H188.933V59.805H194.317V61.3568H187.233V61.2158ZM224.067 61.2158V53.7386L221.517 59.0996H220.242L217.55 53.7386V61.2158H215.992V50.0705H217.692L220.95 56.9834L224.208 50.0705H225.908V61.2158H224.067Z" fill="#20132E"/>
<rect x="0.0700684" width="170" height="74" rx="6" fill="#20132E"/>
<path fill-rule="evenodd" clip-rule="evenodd" d="M7.97803 7.77072H30.6955V19.9395H20.8409V33.8022H30.6955V45.9019H20.8409V66.091H7.97803V7.77072ZM46.4628 7.04474C56.3866 7.04474 61.3311 12.6451 61.3311 23.8114V50.0849C61.3311 61.2857 56.3866 66.8515 46.4628 66.8515C36.5391 66.8515 31.5945 61.2511 31.5945 50.0849V23.8114C31.5945 12.6451 36.5736 7.04474 46.4628 7.04474ZM48.4683 24.7448C48.4683 23.0854 48.4337 21.91 48.3646 21.2186C48.2954 20.5272 48.1225 20.0086 47.8805 19.6975C47.6384 19.3864 47.1544 19.2135 46.4974 19.2135C45.8404 19.2135 45.3563 19.3864 45.1143 19.6975C44.8722 20.0086 44.6994 20.5272 44.6302 21.2186C44.561 21.91 44.5265 23.12 44.5265 24.7448V49.1169C44.5265 50.7763 44.561 51.9517 44.6302 52.6431C44.6994 53.3345 44.8722 53.8531 45.1143 54.1642C45.3563 54.4753 45.8404 54.6482 46.4974 54.6482C47.1544 54.6482 47.6384 54.4753 47.8805 54.1642C48.1225 53.8531 48.2954 53.3345 48.3646 52.6431C48.4337 51.9517 48.4683 50.7417 48.4683 49.1169V24.7448ZM91.9668 60.94C91.9668 62.2883 92.0014 63.3945 92.1051 64.2588C92.2089 65.123 92.4509 65.7453 92.7967 66.1256H79.9338C79.4152 65.5033 79.1731 63.7748 79.1731 60.94V49.4972C79.1731 48.0798 78.9657 47.0773 78.5853 46.4896C78.205 45.9019 77.4097 45.5907 76.234 45.5562L74.9201 45.6253V66.1256H62.0573V7.77072H74.9201C79.1386 7.77072 82.458 8.28927 84.913 9.29182C87.368 10.3289 89.166 11.9883 90.2725 14.3045C91.379 16.6207 91.9322 19.7321 91.9322 23.6731V29.7229C91.9322 35.5999 90.0996 39.8521 86.469 42.4794C88.3708 43.2745 89.7539 44.4153 90.6183 45.9019C91.4827 47.423 91.9322 49.4626 91.9322 52.0208V60.94H91.9668ZM79.104 23.6731C79.104 22.152 78.7928 21.184 78.1704 20.6655C77.548 20.1815 76.5107 19.9395 75.0238 19.9395H74.9547V33.2837H75.0238C76.5798 33.2837 77.6171 33.0763 78.205 32.6614C78.7928 32.2466 79.104 31.2786 79.104 29.7229V23.6731ZM109.671 7.77072H122.533V50.0849C122.533 61.2857 117.589 66.8515 107.665 66.8515C97.7413 66.8515 92.7967 61.2511 92.7967 50.0849V7.77072H105.66V49.1169C105.66 50.7763 105.694 51.9517 105.763 52.6431C105.832 53.3345 106.005 53.8531 106.247 54.1642C106.489 54.4753 106.973 54.6482 107.63 54.6482C108.287 54.6482 108.771 54.4753 109.014 54.1642C109.256 53.8531 109.428 53.3345 109.498 52.6431C109.567 51.9517 109.601 50.7417 109.601 49.1169V7.77072H109.671ZM136.157 7.77072L142.692 38.4001L149.227 7.77072H162.09V66.1256H149.227V44.1734L145.458 66.1256H139.926L136.157 44.1734V66.1256H123.294V7.77072H136.157Z" fill="white"/>
</svg>
