<?xml version="1.0" encoding="utf-8"?>
<!-- Generator: Adobe Illustrator 22.0.1, SVG Export Plug-In . SVG Version: 6.00 Build 0)  -->
<svg version="1.1" id="Capa_1" xmlns="http://www.w3.org/2000/svg" xmlns:xlink="http://www.w3.org/1999/xlink" x="0px" y="0px"
	 viewBox="0 0 306.2 203.1" style="enable-background:new 0 0 306.2 203.1;" xml:space="preserve">
<style type="text/css">
	.st0{fill:#DCE1D6;}
</style>
<g transform="matrix(2.78799,0,0,1.70643,672.495,562.268)">
	<path class="st0" d="M-155.8-270.3l0.3,0.9c0,0.6,0.1,1,0.1,1.6s0,1-0.1,1.6l-0.4,1.2c-0.1,0.4-0.4,0.6-0.6,0.8
		c-0.4,0.2-0.6,0.2-0.8,0.2c-0.4,0-0.6,0-0.8-0.2s-0.5-0.4-0.6-0.8l-0.4-1.2c-0.1-0.4-0.1-1-0.1-1.6s0-1,0.1-1.6l0.4-1.2
		c0.1-0.4,0.4-0.6,0.6-0.8c0.2-0.2,0.5-0.2,0.8-0.2c0.1,0,0.3,0,0.4,0l0,0c0.6,0,1.2-0.2,1.6-0.2c0.4-0.2,0.7-0.4,1-0.8
		s0.4-0.8,0.5-1.2c0.1-0.6,0.1-1.2,0.1-1.8v-0.6c-0.2,0.4-0.6,1-1,1.2c-0.4,0.4-0.8,0.6-1.3,0.6c-0.4,0-0.7-0.2-1.1-0.4
		c-0.4-0.2-0.6-0.6-0.8-1.2c-0.2-0.6-0.5-1.2-0.6-2c-0.1-0.8-0.2-1.8-0.2-2.7c0-1.2,0.1-2,0.2-2.9c0.1-0.8,0.4-1.6,0.6-2.2
		c0.2-0.6,0.6-1,1-1.2c0.4-0.2,0.7-0.4,1.1-0.4c0.5,0,0.8,0.2,1.2,0.4c0.4,0.4,0.6,0.8,1,1.2v-1.4h1.1v11.4c0,1-0.1,1.8-0.2,2.4
		c-0.1,0.8-0.4,1.2-0.6,1.8c-0.1,0.2-0.3,0.3-0.4,0.4l0.8,3.9c0,0.2,0.1,0.6,0.2,0.8v0.6c0-0.2,0-0.4,0.1-0.6c0-0.2,0.1-0.4,0.1-0.6
		l0.8-4.1h1l-1.7,7.1h-0.8l-1.4-6.5C-155.1-270.4-155.4-270.3-155.8-270.3z M-156.3-266.8v-2c0-0.2-0.1-0.6-0.2-0.8
		c-0.1-0.2-0.2-0.4-0.4-0.4c-0.1-0.2-0.2-0.2-0.5-0.2c-0.1,0-0.4,0-0.5,0.2s-0.2,0.2-0.4,0.4c-0.1,0.2-0.1,0.4-0.2,0.8v2
		c0,0.2,0.1,0.6,0.2,0.8c0.1,0.2,0.2,0.4,0.4,0.4c0.1,0.2,0.2,0.2,0.5,0.2c0.1,0,0.4,0,0.5-0.2c0.1-0.2,0.2-0.2,0.4-0.4
		C-156.5-266.3-156.5-266.5-156.3-266.8z M-153.8-283.9c-0.2-0.6-0.5-1-0.8-1.4c-0.4-0.4-0.7-0.6-1.2-0.6c-0.6,0-1.1,0.4-1.4,1.4
		c-0.4,0.8-0.5,2.2-0.5,3.7c0,1.6,0.1,2.7,0.5,3.5s0.8,1.2,1.4,1.2c0.4,0,0.7-0.2,1.1-0.4c0.4-0.4,0.6-0.8,1-1.4V-283.9z
		 M-192.9-275.9v0.4l-4.8,17.9c-0.4,1.2-0.7,2.4-1,3.5c-0.4,1.2-0.6,2.2-0.7,2.9c0-0.4-0.1-0.8-0.2-1.4l-0.4-1.8
		c-0.1-0.6-0.4-1.2-0.5-1.8c-0.1-0.6-0.4-1.2-0.5-1.8l-5-17.9h-4.4c-0.8-1.6-1.7-2.6-2.8-3.3c1-1,1.8-2.4,2.4-4.1
		c0.4-1.2,0.6-2.2,0.7-3.3l17.1,10.6H-192.9z M-192.9-275.9v-6.1l-4.1-2.4v-11.2l4.1-2.4v-6.5l-17.3,10.8c-0.5-2.4-1.2-4.1-2.3-5.7
		c-1.8-2.4-4.2-3.5-7.3-3.5h-13.6c5.4-9.6,13.2-15.7,21.9-15.7c16.5,0,29.8,21.8,29.8,48.5c0,11.6-2.5,22.2-6.6,30.4v-36.3H-192.9z
		 M-141-285.2v7.8c0,0.6,0,1,0.1,1.2c0.1,0.2,0.4,0.4,0.6,0.4h0.6c0.1,0,0.4-0.2,0.5-0.2l-0.1,1.6c-0.2,0.2-0.5,0.2-0.6,0.4
		c-0.2,0-0.5,0.2-0.7,0.2c-0.5,0-0.8-0.2-1.1-0.6s-0.4-1.2-0.4-2.2v-8.2h-1v-1.6h1v-5.1l1.1-1v6.1h1.9v1.6L-141-285.2z
		 M-168.5-279.6c0,1.6-0.2,2.9-0.8,3.7c-0.6,0.8-1.3,1.2-2.4,1.2h-3.6v-16.5h3.7c0.4,0,0.7,0,1.1,0.2c0.4,0.2,0.6,0.4,0.8,0.8
		c0.2,0.4,0.5,0.8,0.6,1.4c0.1,0.6,0.2,1.2,0.2,1.8c0,1-0.1,1.6-0.4,2.2c-0.2,0.6-0.6,1-1.1,1.2c0.2,0,0.5,0.2,0.7,0.4
		s0.5,0.4,0.6,0.8c0.2,0.4,0.4,0.8,0.5,1.2C-168.6-280.8-168.5-280.2-168.5-279.6z M-170-286.9c0-0.8-0.1-1.4-0.4-1.8
		s-0.7-0.8-1.2-0.8h-2.5v5.1h2.4c0.6,0,1.1-0.2,1.3-0.8C-170.2-285.7-170-286.3-170-286.9z M-169.6-279.4c0-1-0.2-1.8-0.6-2.4
		c-0.4-0.6-1-0.8-1.6-0.8h-2.5v6.3h2.5c0.7,0,1.3-0.2,1.6-0.8C-169.8-277.6-169.6-278.4-169.6-279.4z M-160.4-281c0,1-0.1,2-0.2,2.7
		c-0.1,0.8-0.4,1.6-0.7,2c-0.2,0.6-0.6,1-1.1,1.2c-0.4,0.2-0.8,0.4-1.3,0.4c-0.5,0-0.8-0.2-1.3-0.4c-0.4-0.2-0.7-0.6-1.1-1.2
		c-0.2-0.6-0.5-1.2-0.7-2c-0.1-0.8-0.2-1.8-0.2-2.7c0-1,0.1-2,0.2-2.7c0.1-0.8,0.4-1.6,0.7-2c0.2-0.6,0.6-1,1.1-1.2
		c0.4-0.2,0.8-0.4,1.3-0.4c0.5,0,0.8,0.2,1.3,0.4c0.4,0.2,0.7,0.6,1.1,1.2c0.2,0.6,0.5,1.2,0.7,2C-160.5-283-160.4-282-160.4-281z
		 M-161.5-280.8c0-1.6-0.2-2.9-0.6-3.7c-0.4-0.8-1-1.2-1.6-1.2c-0.7,0-1.2,0.4-1.6,1.2c-0.4,0.8-0.6,2-0.6,3.7
		c0,1.6,0.2,2.9,0.6,3.7c0.4,0.8,0.8,1.2,1.6,1.2c0.7,0,1.2-0.4,1.6-1.2C-161.7-278-161.5-279.2-161.5-280.8z M-144.2-281
		c0,1-0.1,2-0.2,2.7c-0.1,0.8-0.4,1.6-0.7,2c-0.2,0.6-0.6,1-1.1,1.2c-0.4,0.2-0.8,0.4-1.3,0.4c-0.5,0-0.8-0.2-1.3-0.4
		c-0.4-0.2-0.7-0.6-1.1-1.2c-0.2-0.6-0.5-1.2-0.7-2c-0.1-0.8-0.2-1.8-0.2-2.7c0-1,0.1-2,0.2-2.7c0.1-0.8,0.4-1.6,0.7-2
		c0.2-0.6,0.6-1,1.1-1.2c0.4-0.2,0.8-0.4,1.3-0.4c0.5,0,0.8,0.2,1.3,0.4c0.4,0.2,0.7,0.6,1.1,1.2c0.2,0.6,0.5,1.2,0.7,2
		C-144.3-283-144.2-282-144.2-281z M-145.3-280.8c0-1.6-0.2-2.9-0.6-3.7c-0.5-0.8-1-1.2-1.7-1.2c-0.7,0-1.2,0.4-1.6,1.2
		c-0.4,0.8-0.6,2-0.6,3.7c0,1.6,0.2,2.9,0.6,3.7c0.4,0.8,1,1.2,1.6,1.2c0.7,0,1.2-0.4,1.6-1.2C-145.5-278-145.3-279.2-145.3-280.8z
		 M-132.7-274.3v-2c-0.2,0.4-0.6,1-1,1.2c-0.4,0.4-0.8,0.6-1.4,0.6c-0.4,0-0.6,0-0.8-0.2c-0.2-0.2-0.6-0.4-0.7-0.6
		c-0.2-0.4-0.4-0.8-0.6-1.2c-0.1-0.6-0.2-1.2-0.2-2s0.1-1.4,0.2-1.8c0.1-0.6,0.4-1,0.6-1.2c0.2-0.4,0.6-0.6,1-0.8
		c0.4-0.2,0.7-0.2,1.1-0.2c0.4,0,0.7,0,1.1,0.2s0.6,0.4,0.8,0.6v-1.4c0-1.8-0.6-2.7-1.7-2.7c-0.4,0-0.7,0-1.1,0.2
		c-0.4,0.2-0.6,0.4-1,0.8l-0.4-1.4c0.4-0.4,0.7-0.6,1.2-0.8s0.8-0.2,1.4-0.2c0.8,0,1.4,0.4,1.9,1c0.5,0.6,0.7,1.6,0.7,3.1v8.6
		H-132.7z M-132.7-280.2c-0.2-0.2-0.5-0.4-0.8-0.6c-0.2-0.2-0.7-0.2-1.1-0.2c-0.6,0-1,0.2-1.3,0.6c-0.4,0.4-0.5,1-0.5,1.8
		c0,1,0.1,1.6,0.5,2c0.2,0.4,0.6,0.6,1.1,0.6c0.5,0,1-0.2,1.3-0.6c0.4-0.4,0.7-0.8,0.8-1.4V-280.2z M-134-288.6h-0.8l1.4-3.7h1.6
		L-134-288.6z M-169.2-248.2v-10.2c0,0.2,0,0.2-0.1,0.4c0,0.2-0.1,0.4-0.1,0.6s-0.1,0.4-0.1,0.6s-0.1,0.4-0.1,0.6l-2.2,8.4l-2.2-8.4
		c0-0.2-0.1-0.4-0.1-0.6s-0.1-0.4-0.1-0.6s-0.1-0.4-0.1-0.6s-0.1-0.4-0.1-0.4v10.2h-0.8v-13.2h1l1.9,7.9c0,0.2,0.1,0.4,0.1,0.6
		c0.1,0.2,0.1,0.4,0.1,0.8c0,0.2,0.1,0.4,0.1,0.6s0.1,0.4,0.1,0.6c0-0.2,0-0.4,0.1-0.6c0-0.2,0.1-0.4,0.1-0.6c0-0.2,0.1-0.4,0.1-0.8
		c0-0.2,0.1-0.4,0.1-0.6l1.9-7.9h1v13.2H-169.2z M-161-248.2l-0.7-3.3h-3.4l-0.7,3.3h-1l2.8-13.2h1l2.8,13.2H-161z M-162.8-257.2
		c0-0.2-0.1-0.4-0.1-0.8c0-0.2-0.1-0.6-0.1-0.8s-0.1-0.4-0.1-0.6s-0.1-0.4-0.1-0.6c0,0.2,0,0.4-0.1,0.6c0,0.2-0.1,0.4-0.1,0.6
		s-0.1,0.4-0.1,0.8c0,0.2-0.1,0.6-0.1,0.8l-0.8,4.3h2.8L-162.8-257.2z M-152.6-257.6c0,1-0.1,1.8-0.5,2.6c-0.4,0.6-0.8,1-1.4,1.2
		l1.8,5.7h-1.1l-1.7-5.7h-1.9v5.7h-0.8v-13.2h3.2c0.4,0,0.7,0,1,0.2c0.4,0.2,0.6,0.4,0.8,0.6c0.2,0.4,0.4,0.8,0.5,1.2
		C-152.7-258.8-152.6-258.2-152.6-257.6z M-153.6-257.6c0-0.8-0.1-1.4-0.5-1.8c-0.2-0.4-0.7-0.6-1.2-0.6h-2.3v4.9h2.3
		c0.6,0,1.1-0.2,1.3-0.6C-153.7-256.2-153.6-256.8-153.6-257.6z M-146-248.2l-2.4-7.1l-1.6,3.3v3.7h-0.8v-13.2h0.8v7.5
		c0-0.2,0.1-0.4,0.2-0.6c0.1-0.2,0.2-0.4,0.4-0.8c0.1-0.2,0.2-0.6,0.4-0.8c0.1-0.2,0.2-0.4,0.2-0.6l2.3-4.9h1l-2.4,4.9l2.8,8.2h-0.8
		V-248.2z M-143.5-248v-13.4h4.9v1.4h-4v4.1h2.3v1.4h-2.3v5.1h4.1v1.4H-143.5z M-133.9-260v11.8h-1V-260h-2.4v-1.4h5.7v1.4H-133.9z
		 M-150.1-271.4h0.8v7.3h-0.8V-271.4z M-172-264.1l-0.4-1.6h-1.7l-0.4,1.6h-1l1.7-7.3h0.8l1.7,7.3H-172z M-172.9-268.4
		c0-0.2-0.1-0.4-0.1-0.6s-0.1-0.4-0.1-0.6c0,0.2,0,0.4-0.1,0.6c0,0.2-0.1,0.4-0.1,0.6l-0.2,1.4h1L-172.9-268.4z M-166.8-267.4
		c0,1-0.1,2-0.5,2.6s-0.7,0.8-1.3,0.8c-0.2,0-0.5,0-0.7-0.2s-0.4-0.4-0.6-0.6c-0.1-0.2-0.2-0.6-0.4-1c-0.1-0.4-0.1-0.8-0.1-1.4v-4.1
		h0.8v4.1c0,0.6,0.1,1,0.2,1.4c0.1,0.4,0.4,0.6,0.7,0.6c0.2,0,0.5-0.2,0.7-0.6c0.1-0.4,0.2-0.8,0.2-1.4v-4.1h0.8V-267.4z
		 M-162.1-267.8c0,0.6-0.1,1.2-0.2,1.6s-0.2,0.8-0.5,1.2c-0.2,0.2-0.5,0.6-0.7,0.6c-0.2,0.2-0.6,0.2-0.8,0.2h-1.3v-7.3h1.4
		c0.4,0,0.6,0,0.8,0.2l0.7,0.6c0.2,0.2,0.4,0.6,0.5,1.2C-162.1-269-162.1-268.4-162.1-267.8z M-163.1-267.8c0-0.8-0.1-1.4-0.4-1.6
		c-0.2-0.4-0.6-0.6-1-0.6h-0.5v4.5h0.5c0.2,0,0.5,0,0.6-0.2c0.1-0.2,0.4-0.2,0.5-0.4c0.1-0.2,0.2-0.4,0.2-0.8V-267.8z M-161.1-271.4
		h0.8v7.3h-0.8V-271.4z M-144.8-266.5c0,0.4,0,0.6-0.1,1c-0.1,0.2-0.1,0.6-0.4,0.8c-0.1,0.2-0.4,0.4-0.6,0.4
		c-0.1,0.2-0.4,0.2-0.7,0.2s-0.7-0.2-1-0.4c-0.4-0.2-0.6-0.6-0.7-1l0.6-1c0.1,0.4,0.4,0.6,0.5,0.6c0.2,0.2,0.4,0.2,0.6,0.2
		s0.5,0,0.6-0.2s0.2-0.4,0.2-0.6v-0.4l-0.1-0.2c-0.1,0-0.1-0.2-0.4-0.2c-0.1,0-0.4-0.2-0.5-0.2c-0.2,0-0.4-0.2-0.6-0.2
		c-0.1-0.2-0.4-0.2-0.5-0.4c-0.1-0.2-0.2-0.4-0.2-0.6c-0.1-0.2-0.1-0.6-0.1-1s0-0.6,0.1-1l0.4-0.6c0.1-0.2,0.4-0.4,0.5-0.4
		c0.2-0.2,0.4-0.2,0.6-0.2c0.4,0,0.6,0,1,0.4c0.2,0.2,0.5,0.4,0.7,0.8l-0.6,1c-0.1-0.2-0.2-0.4-0.5-0.6c-0.1-0.2-0.4-0.2-0.6-0.2
		h-0.2c-0.1,0-0.1,0-0.2,0.2l-0.1,0.2v0.6l0.1,0.2c0.1,0,0.1,0.2,0.2,0.2s0.2,0.2,0.5,0.2c0.1,0,0.4,0.2,0.5,0.2
		c0.1,0,0.4,0.2,0.5,0.4l0.4,0.6C-144.9-267-144.8-266.8-144.8-266.5z M-140.4-267.4c0,1-0.1,2-0.5,2.6c-0.4,0.6-0.7,0.8-1.3,0.8
		c-0.2,0-0.5,0-0.7-0.2s-0.4-0.4-0.6-0.6c-0.1-0.2-0.2-0.6-0.4-1c-0.1-0.4-0.1-0.8-0.1-1.4v-4.1h0.8v4.1c0,0.6,0.1,1,0.2,1.4
		s0.4,0.6,0.7,0.6c0.2,0,0.5-0.2,0.7-0.6c0.1-0.4,0.2-0.8,0.2-1.4v-4.1h0.8V-267.4z M-136.5-264.1l-0.4-1.6h-1.6l-0.4,1.6h-1
		l1.7-7.3h0.8l1.7,7.3H-136.5z M-137.3-268.4c0-0.2-0.1-0.4-0.1-0.6s-0.1-0.4-0.1-0.6c0,0.2,0,0.4-0.1,0.6c0,0.2-0.1,0.4-0.1,0.6
		l-0.2,1.4h1L-137.3-268.4z M-134.7-264.1v-7.3h0.8v5.9h2.3v1.4H-134.7z M-210.9-257.4v21h4.7v-23.2c0.1,0.8,0.4,1.8,0.7,2.9
		c0.4,1.2,0.6,2.4,1,3.5l4.8,17.5l4.8-17.7c0.4-1.2,0.6-2.4,1-3.5c0.2-1.2,0.5-2.2,0.7-2.9v23.2h3.2c-5.4,9.4-13.1,15.1-21.5,15.1
		c-16.3,0-29.7-21.8-29.7-48.5c0-11.6,2.5-22.2,6.6-30.4v49.1h14.4c1.7,0,3.1-0.2,4.6-1c1.4-0.6,2.6-1.8,3.6-3.1
		C-211.6-256-211.3-256.6-210.9-257.4z M-216.4-288.3c0,1.4-0.2,2.6-0.8,3.5c-0.5,1-1.4,1.4-2.8,1.4h-8.4v-9.8h8.1
		c1.4,0,2.4,0.4,3,1.2S-216.4-289.8-216.4-288.3z M-215.5-267.6c0,2.2-0.4,3.7-1.2,4.9c-0.7,1.2-1.8,1.8-3.4,1.8h-8.4v-13.4h8.4
		C-217-274.3-215.5-272.1-215.5-267.6z M-203.9-291.6l3.4-2.2v6.9l-3.4-2c-0.5-0.2-1.1-0.6-1.6-0.8c-0.6-0.2-1-0.4-1.3-0.6
		c0.4-0.2,0.8-0.4,1.3-0.6S-204.4-291.2-203.9-291.6z"/>
</g>
</svg>
