<?xml version="1.0" encoding="UTF-8" standalone="no"?>
<!DOCTYPE svg PUBLIC "-//W3C//DTD SVG 1.1//EN" "http://www.w3.org/Graphics/SVG/1.1/DTD/svg11.dtd">
<svg width="100%" height="100%" viewBox="0 0 248 208" version="1.1" xmlns="http://www.w3.org/2000/svg" xmlns:xlink="http://www.w3.org/1999/xlink" xml:space="preserve" xmlns:serif="http://www.serif.com/" style="fill-rule:evenodd;clip-rule:evenodd;stroke-linejoin:round;stroke-miterlimit:2;">
    <g id="Artboard1" transform="matrix(0.572056,0,0,1,0,0)">
        <rect x="0" y="0" width="432" height="208" style="fill:none;"/>
        <g transform="matrix(3.00347,0,0,1.71815,68.3548,60.6457)">
            <path d="M0.765,55L5.121,55L5.121,54.361L1.494,54.361L1.494,51.841L4.581,51.841L4.581,51.22L1.494,51.22L1.494,48.871L5.121,48.871L5.121,48.25L0.765,48.25L0.765,55ZM9.307,51.463C9.028,50.725 8.308,50.41 7.588,50.41C6.751,50.41 6.022,50.842 6.022,51.643C6.022,53.416 8.758,52.732 8.758,53.848C8.758,54.271 8.326,54.55 7.741,54.55C7.192,54.55 6.67,54.253 6.382,53.722L5.869,54.028C6.202,54.757 6.904,55.09 7.741,55.09C8.74,55.09 9.406,54.577 9.406,53.776C9.406,52.084 6.661,52.633 6.661,51.607C6.661,51.193 7.039,50.941 7.597,50.941C8.101,50.941 8.533,51.184 8.758,51.706L9.307,51.463ZM13.911,52.75C13.911,54.001 13.281,54.613 12.543,54.613C11.714,54.613 11.13,53.965 11.13,52.75C11.13,51.526 11.714,50.905 12.507,50.905C13.254,50.905 13.911,51.499 13.911,52.75ZM12.804,55.09C13.767,55.09 14.666,54.325 14.666,52.741C14.666,51.157 13.758,50.41 12.786,50.41C11.948,50.41 11.328,50.923 11.121,51.904L11.121,50.5L10.437,50.5L10.437,57.25L11.121,57.25L11.121,53.578C11.319,54.559 11.958,55.09 12.804,55.09ZM17.119,54.559C16.669,54.559 16.345,54.271 16.345,53.749C16.345,52.705 17.92,52.957 18.568,52.192L18.568,53.434C18.19,54.244 17.713,54.559 17.119,54.559ZM17.965,54.73L18.568,53.83L18.568,54.433L18.514,55L19.999,55L19.999,54.442L19.252,54.442L19.252,51.85C19.252,50.878 18.721,50.41 17.56,50.41C16.543,50.41 15.886,50.851 15.679,51.769L16.3,51.967C16.471,51.256 16.759,50.923 17.515,50.923C18.244,50.923 18.568,51.283 18.568,51.877L18.568,52.066C17.668,52.795 15.616,52.327 15.616,53.848C15.616,54.631 16.138,55.081 16.849,55.081C17.254,55.081 17.659,54.973 17.965,54.73ZM21.646,51.985C21.646,51.328 22.123,50.896 22.708,50.896C23.275,50.896 23.752,51.328 23.752,51.985C23.752,52.642 23.275,53.038 22.708,53.038C22.123,53.038 21.646,52.642 21.646,51.985ZM25.12,55.783C25.12,55.081 24.706,54.541 23.572,54.541L22.123,54.541C21.556,54.541 21.34,54.37 21.34,54.028C21.34,53.74 21.565,53.506 22.033,53.416C22.231,53.479 22.465,53.515 22.717,53.515C23.734,53.515 24.409,52.84 24.409,51.976C24.409,51.814 24.382,51.652 24.337,51.499C24.517,51.112 24.76,51.004 25.12,50.995C25.183,50.995 25.228,51.004 25.273,51.013L25.273,50.41C24.922,50.401 24.652,50.455 24.418,50.707L24.274,51.337C24.031,50.806 23.491,50.41 22.735,50.41C21.574,50.41 20.989,51.157 20.989,51.976C20.989,52.57 21.268,53.065 21.799,53.326C21.124,53.488 20.782,53.812 20.782,54.271C20.782,54.721 21.007,55.081 21.682,55.162L20.953,55.54C20.818,55.702 20.755,55.891 20.755,56.143C20.755,56.962 21.475,57.34 22.825,57.34C24.427,57.34 25.12,56.764 25.12,55.783ZM22.735,56.8C21.79,56.8 21.322,56.512 21.322,55.909C21.322,55.603 21.565,55.342 22.006,55.18L23.563,55.18C24.229,55.18 24.508,55.495 24.508,55.945C24.508,56.467 24.004,56.8 22.996,56.8L22.735,56.8ZM26.767,55L26.767,52.363C26.767,51.688 27.2,50.968 28.081,50.968C28.775,50.968 29.126,51.454 29.126,52.246L29.126,55L29.81,55L29.81,52.003C29.81,50.941 29.234,50.41 28.369,50.41C27.523,50.41 26.93,50.95 26.767,51.895L26.767,50.5L26.084,50.5L26.084,55L26.767,55ZM35.113,53.236L34.393,53.236C34.321,53.974 33.97,54.595 33.043,54.595C32.134,54.595 31.648,53.92 31.648,52.804L31.648,52.687L35.113,52.687C35.095,51.274 34.366,50.41 33.025,50.41C31.738,50.41 30.874,51.364 30.874,52.786C30.874,54.1 31.63,55.09 33.034,55.09C34.411,55.09 35.068,54.073 35.113,53.236ZM33.034,50.905C33.979,50.905 34.339,51.625 34.339,52.354L31.675,52.354C31.783,51.382 32.278,50.905 33.034,50.905Z" style="fill:rgb(220,225,214);fill-rule:nonzero;"/>
        </g>
        <g transform="matrix(3.00347,0,0,1.71815,68.3548,60.6457)">
            <rect x="0.168" y="0.323" width="2.884" height="14.182" style="fill:rgb(220,225,214);"/>
        </g>
        <g transform="matrix(3.00347,0,0,1.71815,68.3548,60.6457)">
            <path d="M43.819,3.342L43.819,0.323L33.612,0.323L33.612,3.342L37.277,3.342L37.277,20.353L40.155,20.353L40.155,3.342L43.819,3.342Z" style="fill:rgb(220,225,214);fill-rule:nonzero;"/>
        </g>
        <g transform="matrix(3.00347,0,0,1.71815,68.3548,60.6457)">
            <rect x="46.752" y="0.323" width="2.884" height="14.182" style="fill:rgb(220,225,214);"/>
        </g>
        <g transform="matrix(3.00347,0,0,1.71815,68.3548,60.6457)">
            <path d="M77.568,15.274L77.568,0.323L74.715,0.323L74.715,15.372C74.715,16.427 74.446,18.865 71.952,18.865C69.459,18.865 69.221,16.17 69.221,15.341L69.221,0.323L66.337,0.323L66.337,15.463C66.337,19.292 68.648,21.975 71.952,21.975C72.16,21.975 72.349,21.975 72.562,21.945L68.02,41.67L71.068,41.67L72.209,36.06L76.44,36.06L77.605,41.67L80.769,41.67L75.891,20.384C76.983,19.225 77.599,17.475 77.599,15.28L77.568,15.274ZM72.782,33.139L73.507,29.627C73.733,28.499 74.044,26.743 74.239,25.664L74.379,25.664C74.574,26.743 74.891,28.518 75.111,29.627L75.836,33.139L72.782,33.139Z" style="fill:rgb(220,225,214);fill-rule:nonzero;"/>
        </g>
        <g transform="matrix(3.00347,0,0,1.71815,68.3548,60.6457)">
            <path d="M90.007,0.323L79.8,0.323L79.8,3.335L83.464,3.335L83.464,21.792L86.348,21.792L86.348,3.335L90.007,3.335L90.007,0.323Z" style="fill:rgb(220,225,214);fill-rule:nonzero;"/>
        </g>
        <g transform="matrix(3.00347,0,0,1.71815,68.3548,60.6457)">
            <path d="M20.509,31.865C22.527,30.963 23.558,29.085 23.558,26.286C23.558,22.689 21.6,20.506 18.302,20.365L18.302,0.323L15.472,0.323L15.472,9.707C15.472,10.5 15.472,12.195 15.515,13.262L15.375,13.299L15.137,12.689C14.832,11.902 14.472,10.975 14.235,10.433L9.966,0.311L7.07,0.311L7.07,20.353L0.168,20.353L0.168,41.694L3.052,41.694L3.052,32.005L7.32,32.005L7.32,29.048L3.052,29.048L3.052,23.335L9.893,23.335L9.893,11.006C9.893,10.213 9.893,8.524 9.857,7.451L9.997,7.415L10.229,8.024C10.54,8.811 10.899,9.738 11.131,10.28L15.363,20.39L12.314,20.39L12.314,41.731L15.192,41.731L15.192,32.426L17.424,32.481L20.405,41.664L23.655,41.664L20.466,31.908L20.509,31.865ZM17.741,29.475L15.204,29.475L15.204,23.335L17.741,23.335C19.57,23.335 20.588,24.414 20.588,26.384C20.588,28.444 19.625,29.487 17.741,29.487" style="fill:rgb(220,225,214);fill-rule:nonzero;"/>
        </g>
        <g transform="matrix(3.00347,0,0,1.71815,68.3548,60.6457)">
            <path d="M30.387,20.353C31.509,19.216 32.139,17.683 32.143,16.085C32.143,12.664 29.704,10.866 27.265,9.189C25.009,7.646 24.375,7.024 24.375,5.494C24.363,5.185 24.413,4.876 24.521,4.586C24.629,4.297 24.792,4.031 25.003,3.804C25.214,3.578 25.467,3.395 25.748,3.266C26.03,3.138 26.334,3.066 26.643,3.055C27.182,3.086 27.703,3.255 28.157,3.547C28.611,3.839 28.982,4.242 29.234,4.72L31.393,2.89C30.948,2.014 30.268,1.28 29.429,0.769C28.59,0.259 27.625,-0.008 26.643,0C23.594,0 21.387,2.689 21.387,5.604C21.387,9.006 23.216,10.305 25.448,11.854C28.07,13.683 29.051,14.53 29.051,16.189C29.06,16.882 28.799,17.552 28.324,18.057C27.848,18.562 27.195,18.863 26.503,18.896C25.417,18.896 24.673,18.219 23.411,16.585L21.149,18.573C22.454,20.853 24.265,22.024 26.539,22.024C27.791,22.02 29,21.573 29.954,20.762L25.143,41.676L28.192,41.676L29.326,36.072L33.557,36.072L34.722,41.676L37.868,41.676L32.99,20.365L30.387,20.353ZM29.917,33.158L30.643,29.646C30.868,28.518 31.185,26.762 31.374,25.682L31.521,25.682C31.71,26.762 32.027,28.536 32.252,29.646L32.978,33.158L29.917,33.158Z" style="fill:rgb(220,225,214);fill-rule:nonzero;"/>
        </g>
        <g transform="matrix(3.00347,0,0,1.71815,68.3548,60.6457)">
            <path d="M48.557,29.737C48.557,30.536 48.557,32.225 48.599,33.298L48.453,33.298L48.221,32.688C47.917,31.902 47.557,30.975 47.319,30.432L43.051,20.311L40.155,20.311L40.155,41.651L42.966,41.651L42.966,31.011C42.966,30.219 42.966,28.524 42.929,27.451L43.069,27.451L43.301,28.06C43.612,28.847 43.965,29.774 44.209,30.316L48.971,41.706L51.368,41.706L51.368,20.353L48.545,20.353L48.545,29.737L48.557,29.737Z" style="fill:rgb(220,225,214);fill-rule:nonzero;"/>
        </g>
        <g transform="matrix(3.00347,0,0,1.71815,68.3548,60.6457)">
            <rect x="83.464" y="27.329" width="2.884" height="14.335" style="fill:rgb(220,225,214);"/>
        </g>
        <g transform="matrix(3.00347,0,0,1.71815,68.3548,60.6457)">
            <path d="M63.087,35.694C62.526,38.06 61.867,38.895 60.648,38.895C57.739,38.895 57.52,32.841 57.52,30.969C57.52,28.036 57.898,23.109 60.447,23.109C61.983,23.109 62.483,24.17 62.843,26.006L62.843,26.06L65.745,25.274L65.745,25.237C65.184,21.719 63.477,20.006 60.526,20.006C60.165,20.005 59.805,20.046 59.453,20.128L59.453,3.335L63.111,3.335L63.111,0.323L52.929,0.323L52.929,3.335L56.587,3.335L56.587,22.164C55.27,24.024 54.557,27.042 54.557,31.042C54.557,36.883 56.02,40.615 58.691,41.688L57.788,46.115L60.648,46.115L61.422,41.938C63.776,41.584 65.178,39.871 65.806,36.597L65.806,36.548L63.13,35.639L63.087,35.694Z" style="fill:rgb(220,225,214);fill-rule:nonzero;"/>
        </g>
        <g transform="matrix(2.68506,0,0,1.536,-59.6996,-12.1549)">
            <path d="M25.489,125.754L178.788,125.754L178.788,25.487L25.489,25.487L25.489,125.754ZM182.043,129.009L22.234,129.009L22.234,22.234L182.043,22.234L182.043,129.009Z" style="fill:rgb(220,225,214);fill-rule:nonzero;"/>
        </g>
    </g>
    <g transform="matrix(1.71815,0,0,1.71815,39.1028,60.6457)">
        <path d="M95.403,29.207C93.147,27.664 92.519,27.048 92.519,25.512C92.507,25.203 92.556,24.895 92.663,24.605C92.77,24.315 92.933,24.049 93.143,23.822C93.354,23.596 93.606,23.413 93.887,23.284C94.168,23.156 94.472,23.084 94.781,23.073C95.32,23.102 95.842,23.27 96.297,23.562C96.751,23.854 97.122,24.259 97.372,24.737L99.531,22.908C99.086,22.035 98.408,21.303 97.571,20.794C96.735,20.285 95.773,20.018 94.793,20.024C91.745,20.024 89.531,22.707 89.531,25.627C89.531,29.024 91.391,30.328 93.598,31.871C96.22,33.7 96.939,34.493 96.939,36.139C96.953,36.836 96.693,37.511 96.216,38.019C95.738,38.527 95.081,38.829 94.385,38.859C93.299,38.859 92.555,38.182 91.299,36.554L89.031,38.536C90.342,40.816 92.153,41.987 94.427,41.987C97.385,41.987 100,39.322 100,36.042C100,32.615 97.848,30.871 95.409,29.194" style="fill:rgb(220,225,214);fill-rule:nonzero;"/>
    </g>
</svg>
