<?xml version="1.0" encoding="UTF-8" standalone="no"?>
<!DOCTYPE svg PUBLIC "-//W3C//DTD SVG 1.1//EN" "http://www.w3.org/Graphics/SVG/1.1/DTD/svg11.dtd">
<svg width="100%" height="100%" viewBox="0 0 561 208" version="1.1" xmlns="http://www.w3.org/2000/svg" xmlns:xlink="http://www.w3.org/1999/xlink" xml:space="preserve" xmlns:serif="http://www.serif.com/" style="fill-rule:evenodd;clip-rule:evenodd;stroke-linejoin:round;stroke-miterlimit:2;">
    <g id="Artboard1" transform="matrix(1.29772,0,0,1,0,0)">
        <rect x="0" y="0" width="432" height="208" style="fill:none;"/>
        <clipPath id="_clip1">
            <rect x="0" y="0" width="432" height="208"/>
        </clipPath>
        <g clip-path="url(#_clip1)">
            <g transform="matrix(1.35092,0,0,1.75312,1808.67,23.5981)">
                <path d="M-1185.74,20.017C-1186.19,18.404 -1186.63,17.016 -1186.94,15.599C-1187.19,14.446 -1187.74,13.995 -1188.98,14.014C-1193.36,14.084 -1197.74,14.074 -1202.12,14.019C-1203.26,14.004 -1203.9,14.381 -1204.43,15.416C-1206.92,20.248 -1209.5,25.035 -1212.05,29.833C-1212.44,30.562 -1212.87,31.267 -1213.39,32.18C-1213.86,31.362 -1214.19,30.799 -1214.5,30.221C-1217.03,25.481 -1219.61,20.771 -1222.03,15.978C-1222.8,14.446 -1223.73,13.914 -1225.42,14C-1228.26,14.146 -1231.12,14.04 -1233.98,14.04C-1239.53,14.04 -1239.53,14.04 -1240.88,19.389C-1240.93,19.571 -1240.91,19.768 -1240.93,20.097C-1238.21,20.765 -1236.56,22.282 -1236.57,25.342C-1236.63,38.414 -1236.62,51.486 -1236.6,64.558C-1236.59,67.327 -1237.1,69.731 -1240.18,70.798C-1239.71,72.486 -1239.21,74.056 -1238.84,75.654C-1238.6,76.67 -1238.11,77.031 -1237.05,77.01C-1233.73,76.945 -1230.41,76.987 -1227.1,76.986C-1222.28,76.986 -1222.28,76.986 -1221.25,72.342C-1221.21,72.148 -1221.1,71.933 -1221.15,71.76C-1221.24,71.419 -1221.32,70.956 -1221.57,70.794C-1223.71,69.401 -1223.94,67.212 -1223.96,65.002C-1224,56.442 -1223.98,47.882 -1223.97,39.322C-1223.97,38.847 -1223.86,38.372 -1223.74,37.353C-1220.14,43.454 -1216.83,49.078 -1213.39,54.925C-1209.93,49.045 -1206.61,43.417 -1203.3,37.788C-1202.83,47.317 -1202.76,56.604 -1202.9,65.888C-1202.92,67.352 -1203.59,69.118 -1204.58,70.165C-1205.54,71.185 -1205.73,71.89 -1205.31,73.057C-1204.99,73.926 -1204.92,74.909 -1204.49,75.703C-1204.19,76.253 -1203.46,76.918 -1202.91,76.93C-1198.47,77.029 -1194.02,77.014 -1189.57,76.945C-1189.08,76.937 -1188.31,76.477 -1188.15,76.049C-1187.56,74.45 -1187.17,72.777 -1186.69,71.073C-1189.56,69.946 -1190.17,67.685 -1190.17,65.07C-1190.16,52.529 -1190.1,39.987 -1190.21,27.446C-1190.24,23.921 -1189.94,20.857 -1185.74,20.017M-1114.69,47.29C-1115.95,41.634 -1117.16,36.171 -1118.38,30.708C-1118.54,30.713 -1118.7,30.717 -1118.86,30.722C-1120.09,36.209 -1121.33,41.696 -1122.58,47.29L-1114.69,47.29ZM-1093.32,71.701C-1093.6,73.456 -1094.02,75.189 -1094.42,77.022C-1099.53,77.022 -1104.51,77.05 -1109.48,76.973C-1109.92,76.966 -1110.55,76.353 -1110.75,75.878C-1111.21,74.787 -1111.57,73.624 -1111.76,72.456C-1111.85,71.938 -1111.44,71.336 -1111.26,70.774C-1110.88,69.653 -1110.07,68.481 -1110.2,67.423C-1110.52,64.871 -1111.33,62.385 -1111.81,59.847C-1112.02,58.741 -1112.56,58.46 -1113.57,58.47C-1116.95,58.501 -1120.34,58.513 -1123.73,58.464C-1124.78,58.449 -1125.3,58.809 -1125.52,59.844C-1126,62.181 -1126.59,64.495 -1127.07,66.831C-1127.46,68.724 -1127.3,70.453 -1125.17,71.301C-1125.75,73.292 -1126.29,75.121 -1126.83,76.968L-1142.88,76.968C-1143.28,74.92 -1143.68,72.878 -1144.1,70.741C-1141.69,69.95 -1140.86,68.046 -1140.29,65.923C-1136.7,52.616 -1133.12,39.304 -1129.48,26.014C-1128.77,23.432 -1129.05,21.305 -1131.3,19.792C-1131.32,19.599 -1131.34,19.528 -1131.33,19.467C-1129.95,14.116 -1129.95,14.116 -1124.43,14.116C-1119.32,14.116 -1114.21,14.148 -1109.09,14.093C-1107.9,14.08 -1107.22,14.394 -1107.05,15.646C-1106.95,16.36 -1106.69,17.061 -1106.44,17.743C-1106,18.937 -1105.93,19.853 -1107.11,20.853C-1108.6,22.113 -1108.34,23.945 -1107.88,25.679C-1105.59,34.258 -1103.32,42.841 -1101.02,51.417C-1099.76,56.089 -1098.49,60.757 -1097.19,65.416C-1096.63,67.417 -1095.9,69.32 -1093.92,70.449C-1093.58,70.645 -1093.26,71.314 -1093.32,71.701M-1266.23,47.283C-1267.48,41.655 -1268.68,36.229 -1269.88,30.804C-1270.05,30.804 -1270.23,30.803 -1270.4,30.803C-1271.63,36.238 -1272.86,41.673 -1274.13,47.283L-1266.23,47.283ZM-1245.18,73.69C-1245.49,74.754 -1245.72,75.845 -1245.99,76.958L-1262.01,76.958C-1262.45,75.403 -1262.97,73.847 -1263.32,72.254C-1263.41,71.819 -1262.96,71.276 -1262.79,70.772C-1262.41,69.651 -1261.64,68.473 -1261.77,67.408C-1262.08,64.788 -1262.76,62.202 -1263.44,59.644C-1263.57,59.16 -1264.4,58.551 -1264.93,58.536C-1268.44,58.438 -1271.97,58.437 -1275.48,58.539C-1275.99,58.554 -1276.79,59.201 -1276.93,59.698C-1277.6,62.191 -1278.12,64.725 -1278.64,67.258C-1278.91,68.614 -1278.78,69.855 -1277.55,70.847C-1277.18,71.146 -1276.97,71.979 -1277.08,72.486C-1277.39,73.967 -1277.89,75.406 -1278.34,76.933L-1294.41,76.933C-1294.82,74.904 -1295.22,72.908 -1295.66,70.734C-1293.1,69.989 -1292.35,67.89 -1291.74,65.658C-1288.17,52.415 -1284.6,39.171 -1281,25.934C-1280.4,23.733 -1280.4,21.758 -1282.36,20.155C-1282.65,19.922 -1282.74,19.226 -1282.65,18.8C-1281.69,14.113 -1281.68,14.116 -1276.84,14.116C-1271.46,14.115 -1266.08,14.153 -1260.7,14.089C-1259.41,14.073 -1258.72,14.438 -1258.55,15.765C-1258.47,16.413 -1258.22,17.05 -1257.98,17.666C-1257.49,18.923 -1257.59,19.829 -1258.65,20.955C-1259.42,21.759 -1259.87,23.48 -1259.58,24.565C-1255.94,38.544 -1252.17,52.488 -1248.35,66.418C-1248.03,67.579 -1247.39,69.033 -1246.45,69.564C-1244.51,70.668 -1244.69,72.022 -1245.18,73.69M-1312.19,64.54C-1313.25,66.579 -1315,67.655 -1317.35,67.665C-1319.65,67.676 -1321.09,66.36 -1321.98,64.467C-1322.68,62.983 -1323.29,61.4 -1323.6,59.796C-1325.24,51.321 -1325.26,42.771 -1324.11,34.255C-1323.71,31.36 -1322.8,28.42 -1321.53,25.79C-1320.07,22.771 -1316.59,22.088 -1313.62,23.703C-1311.63,24.791 -1310.91,26.718 -1310.43,28.75C-1310.06,30.34 -1309.82,31.961 -1309.52,33.606L-1300.04,33.606L-1300.04,12.289C-1302.05,12.509 -1303.91,12.334 -1305.42,12.974C-1307.26,13.756 -1308.86,14.07 -1310.73,13.282C-1318.57,9.978 -1326.82,11.978 -1331.84,18.876C-1333.94,21.761 -1335.56,25.186 -1336.61,28.605C-1339.39,37.633 -1339.18,46.932 -1338.06,56.207C-1337.42,61.507 -1336.08,66.625 -1333.19,71.214C-1329.03,77.852 -1321.79,81.043 -1314.01,79.694C-1306.43,78.378 -1300.86,72.902 -1299.3,65.126C-1299,63.624 -1298.96,62.069 -1298.8,60.517L-1310.73,60.517C-1311.24,61.961 -1311.57,63.327 -1312.19,64.54M-1153.86,28.816C-1156.34,25.537 -1159.9,25.495 -1163.65,25.684L-1163.65,40.419C-1159.93,40.522 -1156.28,40.841 -1153.79,37.474C-1152.11,35.2 -1152.15,31.076 -1153.86,28.816M-1157.07,51.896C-1158.79,51.983 -1160.52,52.001 -1162.24,51.966C-1163.32,51.945 -1163.8,52.284 -1163.79,53.438C-1163.74,57.551 -1163.84,61.668 -1163.72,65.778C-1163.66,67.943 -1163.11,70.01 -1160.82,71.108C-1162.04,76.987 -1162.04,76.987 -1167.65,76.986C-1170.7,76.986 -1173.75,76.951 -1176.81,77.005C-1177.83,77.024 -1178.43,76.775 -1178.61,75.684C-1178.72,74.971 -1179,74.283 -1179.22,73.588C-1179.67,72.181 -1179.97,71.168 -1178.27,69.952C-1177.11,69.123 -1176.54,66.85 -1176.49,65.198C-1176.29,58.967 -1176.4,52.726 -1176.4,46.489C-1176.4,39.92 -1176.5,33.35 -1176.36,26.783C-1176.3,23.435 -1177.02,20.833 -1180.64,20.091C-1180.68,19.802 -1180.75,19.664 -1180.71,19.555C-1180.18,17.788 -1180.14,15.362 -1178.95,14.448C-1177.75,13.534 -1175.4,14.055 -1173.56,14.085C-1167.52,14.185 -1161.42,13.83 -1155.47,14.595C-1143.66,16.115 -1137.47,24.913 -1139.27,36.709C-1140.77,46.494 -1146.45,51.36 -1157.07,51.896M-1009.62,76.681C-1009.62,75.976 -1009.87,75.375 -1010.36,74.877C-1010.86,74.376 -1011.46,74.126 -1012.16,74.126C-1012.87,74.126 -1013.47,74.376 -1013.96,74.877C-1014.46,75.375 -1014.71,75.976 -1014.71,76.681C-1014.71,77.392 -1014.46,77.997 -1013.97,78.498C-1013.47,78.998 -1012.87,79.248 -1012.16,79.248C-1011.46,79.248 -1010.86,78.998 -1010.36,78.498C-1009.87,77.997 -1009.62,77.392 -1009.62,76.681M-1010.07,74.586C-1009.49,75.162 -1009.2,75.859 -1009.2,76.677C-1009.2,77.498 -1009.49,78.199 -1010.07,78.78C-1010.64,79.361 -1011.34,79.652 -1012.16,79.652C-1012.99,79.652 -1013.68,79.361 -1014.26,78.78C-1014.83,78.202 -1015.12,77.501 -1015.12,76.677C-1015.12,75.862 -1014.83,75.165 -1014.25,74.586C-1013.68,74.01 -1012.98,73.722 -1012.16,73.722C-1011.34,73.722 -1010.64,74.01 -1010.07,74.586M-1066.22,25.843C-1068,25.411 -1069.9,25.423 -1071.75,25.374C-1072.13,25.364 -1072.88,25.959 -1072.88,26.285C-1072.96,30.708 -1072.94,35.132 -1072.94,39.684C-1070.95,39.684 -1069.18,39.798 -1067.42,39.661C-1063.57,39.359 -1061.54,37.358 -1061.2,33.716C-1060.81,29.582 -1062.51,26.748 -1066.22,25.843M-1043.76,71.571C-1044.08,73.125 -1044.36,74.741 -1044.81,76.31C-1044.9,76.626 -1045.61,76.95 -1046.04,76.956C-1050.09,77.004 -1054.14,77.045 -1058.19,76.914C-1058.76,76.896 -1059.54,76.041 -1059.81,75.398C-1062.96,68.025 -1066.12,60.65 -1069.07,53.2C-1069.83,51.305 -1070.81,50.731 -1072.77,51.281C-1072.82,51.645 -1072.94,52.084 -1072.94,52.524C-1072.95,56.838 -1072.99,61.152 -1072.93,65.465C-1072.9,67.485 -1072.55,69.417 -1070.7,70.748C-1070.36,70.995 -1070.17,71.769 -1070.25,72.236C-1071.12,76.99 -1071.13,76.986 -1076,76.986C-1079.32,76.987 -1082.64,76.932 -1085.95,77.015C-1087.1,77.044 -1087.63,76.662 -1087.88,75.573C-1088.21,74.095 -1088.65,72.642 -1089.06,71.088C-1086.18,69.931 -1085.59,67.586 -1085.59,64.918C-1085.59,51.711 -1085.58,38.504 -1085.58,25.297C-1085.59,22.414 -1086.44,21.389 -1090.02,20C-1089.56,18.301 -1089.2,16.686 -1088.65,15.142C-1088.48,14.675 -1087.76,14.089 -1087.3,14.095C-1079.27,14.197 -1071.19,13.854 -1063.24,14.685C-1053.19,15.734 -1047.29,23.726 -1047.99,33.853C-1048.4,39.817 -1050.09,45.051 -1055.59,48.361C-1055.93,48.569 -1056.14,49.527 -1055.98,49.971C-1053.97,55.304 -1051.94,60.63 -1049.8,65.908C-1048.59,68.871 -1047.03,70.219 -1043.76,71.571M-1011.38,76.031C-1011.38,75.795 -1011.46,75.636 -1011.6,75.555C-1011.75,75.474 -1011.98,75.434 -1012.3,75.434L-1012.79,75.434L-1012.79,76.612L-1012.27,76.612C-1012.02,76.612 -1011.84,76.588 -1011.72,76.54C-1011.5,76.451 -1011.38,76.282 -1011.38,76.031M-1010.84,78.255L-1010.82,78.296L-1011.36,78.296C-1011.36,78.285 -1011.37,78.274 -1011.37,78.263C-1011.37,78.253 -1011.37,78.241 -1011.38,78.227L-1011.39,78.123L-1011.39,77.865C-1011.39,77.49 -1011.49,77.242 -1011.7,77.121C-1011.82,77.051 -1012.03,77.016 -1012.33,77.016L-1012.79,77.016L-1012.79,78.296L-1013.36,78.296L-1013.36,75.042L-1012.22,75.042C-1011.82,75.042 -1011.52,75.081 -1011.33,75.16C-1011,75.3 -1010.83,75.574 -1010.83,75.984C-1010.83,76.275 -1010.93,76.489 -1011.15,76.626C-1011.26,76.699 -1011.42,76.751 -1011.62,76.784C-1011.36,76.824 -1011.18,76.93 -1011.06,77.102C-1010.94,77.274 -1010.88,77.442 -1010.88,77.606L-1010.88,77.844C-1010.88,77.92 -1010.88,78 -1010.87,78.086C-1010.87,78.172 -1010.86,78.229 -1010.84,78.255M-1019.57,20.028C-1020.05,18.288 -1020.38,16.726 -1020.93,15.25C-1021.12,14.739 -1021.88,14.106 -1022.39,14.098C-1027.5,14.014 -1032.61,14.027 -1037.73,14.088C-1038.16,14.093 -1038.85,14.55 -1038.99,14.949C-1039.56,16.556 -1039.96,18.222 -1040.46,20.01C-1037.25,20.797 -1036.31,23.045 -1036.31,25.886C-1036.31,38.895 -1036.31,51.905 -1036.35,64.914C-1036.36,67.406 -1036.72,69.838 -1039.26,71.225C-1038.72,73.189 -1038.21,75.029 -1037.7,76.91L-1022.35,76.91C-1021.82,75.001 -1021.29,73.102 -1020.74,71.126C-1023.56,69.708 -1023.62,67.143 -1023.63,64.582C-1023.65,51.97 -1023.62,39.359 -1023.68,26.748C-1023.7,23.594 -1023.27,20.841 -1019.57,20.028" style="fill:rgb(220,225,214);fill-rule:nonzero;"/>
            </g>
        </g>
    </g>
</svg>
