<?xml version="1.0" encoding="UTF-8" standalone="no"?>
<!DOCTYPE svg PUBLIC "-//W3C//DTD SVG 1.1//EN" "http://www.w3.org/Graphics/SVG/1.1/DTD/svg11.dtd">
<svg width="100%" height="100%" viewBox="0 0 1047 208" version="1.1" xmlns="http://www.w3.org/2000/svg" xmlns:xlink="http://www.w3.org/1999/xlink" xml:space="preserve" xmlns:serif="http://www.serif.com/" style="fill-rule:evenodd;clip-rule:evenodd;stroke-linejoin:round;stroke-miterlimit:2;">
    <g id="Artboard1" transform="matrix(2.42236,0,0,1,0,0)">
        <rect x="0" y="0" width="432" height="208" style="fill:none;"/>
        <clipPath id="_clip1">
            <rect x="0" y="0" width="432" height="208"/>
        </clipPath>
        <g clip-path="url(#_clip1)">
            <g transform="matrix(1.05334,0,0,2.55158,153.09,80.1312)">
                <path d="M0,18.768L0,14.153L31.955,14.153L31.955,18.768L0,18.768ZM0,-8.393L31.955,-8.393L31.955,9.652L0,9.652L0,-8.393ZM31.955,-12.89L0,-12.89L0,-17.506L-4.497,-12.89L-4.497,37.172L0,37.172L0,23.266L31.955,23.266L31.955,37.172L36.455,37.172L36.455,-12.89L31.955,-17.506L31.955,-12.89ZM27.338,-22.001L31.956,-17.504L-0.001,-17.504L4.618,-22.001L27.338,-22.001ZM-8.996,-8.394L-8.996,37.171L-13.609,37.171L-13.609,-3.775L-8.996,-8.394ZM41.066,-8.393L45.566,-3.774L45.566,37.172L41.066,37.172L41.066,-8.393ZM-24.857,13.051L-24.857,23.444L-20.36,18.828L-20.36,13.051L-24.857,13.051ZM-79.413,-3.773L-79.413,18.828L-74.8,23.325L-74.8,-8.392L-79.413,-3.773ZM-24.857,1.879L-20.36,1.879L-20.36,-3.773L-24.857,-8.392L-24.857,1.879ZM-33.97,-12.889L-65.803,-12.889L-65.803,-17.505L-70.303,-12.889L-70.303,27.941L-65.803,32.438L-65.803,27.941L-33.97,27.941L-33.97,32.438L-65.803,32.438L-61.427,37.173L-38.467,37.173L-33.97,32.438L-29.473,28.063L-29.473,13.051L-33.97,13.051L-33.97,23.325L-65.803,23.325L-65.803,-8.392L-33.97,-8.392L-33.97,1.879L-29.473,1.879L-29.473,-13.008L-33.97,-17.505L-33.97,-12.889ZM-61.187,-22.002L-65.803,-17.505L-33.97,-17.505L-38.467,-22.002L-61.187,-22.002ZM-131.728,18.768L-131.728,14.153L-99.774,14.153L-99.774,18.768L-131.728,18.768ZM-131.728,-8.393L-99.773,-8.393L-99.773,9.652L-131.728,9.652L-131.728,-8.393ZM-99.774,-12.89L-131.728,-12.89L-131.728,-17.506L-136.226,-12.89L-136.226,37.172L-131.728,37.172L-131.728,23.266L-99.774,23.266L-99.774,37.172L-95.274,37.172L-95.274,-12.89L-99.774,-17.506L-99.774,-12.89ZM-104.391,-22.001L-99.772,-17.504L-131.73,-17.504L-127.111,-22.001L-104.391,-22.001ZM-140.725,-8.394L-140.725,37.171L-145.337,37.171L-145.337,-3.775L-140.725,-8.394ZM-90.662,-8.393L-86.165,-3.774L-86.165,37.172L-90.662,37.172L-90.662,-8.393ZM102.37,-22.001L102.37,28.061L97.873,32.676L97.873,28.061L65.915,28.061L65.915,32.676L61.418,28.061L61.418,-22.001L65.915,-22.001L65.915,23.563L97.873,23.563L97.873,-22.001L102.37,-22.001ZM111.48,-22.001L111.48,18.945L106.867,23.563L106.867,-22.001L111.48,-22.001ZM56.805,-22.001L56.805,23.563L52.308,18.945L52.308,-22.001L56.805,-22.001ZM97.871,32.674L93.255,37.171L70.535,37.171L65.916,32.674L97.871,32.674ZM229.069,29.597L224.261,40.529L222.184,40.529L223.938,36.666L223.482,36.666L220.534,29.597L222.655,29.597L224.779,34.927L226.992,29.597L229.069,29.597ZM213.634,35.002C214.04,35.428 214.555,35.642 215.175,35.642C215.806,35.642 216.324,35.431 216.724,35.011C217.127,34.587 217.328,34.045 217.328,33.384C217.328,32.721 217.127,32.181 216.724,31.758C216.324,31.334 215.806,31.124 215.175,31.124C214.555,31.124 214.04,31.334 213.634,31.749C213.228,32.167 213.024,32.706 213.024,33.369C213.024,34.03 213.228,34.575 213.634,35.002M211.039,33.369C211.039,32.605 211.202,31.927 211.528,31.331C211.854,30.736 212.295,30.268 212.855,29.927C213.415,29.583 214.052,29.414 214.763,29.414C215.335,29.414 215.832,29.521 216.259,29.734C216.689,29.948 217.032,30.25 217.299,30.635L217.406,29.598L219.251,29.598L219.251,37.171L217.42,37.171L217.299,36.086C217.053,36.421 216.73,36.717 216.327,36.972C215.927,37.227 215.406,37.354 214.763,37.354C214.052,37.354 213.415,37.179 212.855,36.833C212.295,36.489 211.854,36.015 211.528,35.414C211.202,34.812 211.039,34.131 211.039,33.369M201.879,29.597L203.816,29.597L203.816,33.689C203.816,34.34 203.95,34.838 204.213,35.185C204.48,35.531 204.895,35.703 205.467,35.703C206.006,35.703 206.45,35.511 206.803,35.122C207.152,34.737 207.33,34.198 207.33,33.505L207.33,29.597L209.282,29.597L209.282,37.17L207.558,37.17L207.404,35.887C207.17,36.334 206.832,36.693 206.391,36.956C205.946,37.22 205.431,37.353 204.841,37.353C203.893,37.353 203.165,37.057 202.649,36.467C202.137,35.878 201.879,35.013 201.879,33.872L201.879,29.597ZM193.635,33.307C193.635,33.725 193.726,34.101 193.91,34.436C194.094,34.774 194.349,35.037 194.68,35.23C195.012,35.425 195.394,35.52 195.833,35.52C196.259,35.52 196.639,35.425 196.97,35.23C197.302,35.037 197.56,34.774 197.75,34.436C197.936,34.101 198.031,33.731 198.031,33.322C198.031,32.682 197.827,32.155 197.421,31.743C197.015,31.331 196.485,31.124 195.833,31.124C195.181,31.124 194.654,31.331 194.245,31.743C193.839,32.155 193.635,32.676 193.635,33.307M192.138,31.307C192.473,30.727 192.929,30.268 193.504,29.927C194.079,29.586 194.725,29.414 195.436,29.414C196.016,29.414 196.529,29.533 196.979,29.773C197.427,30.013 197.782,30.309 198.046,30.668L198.244,29.598L200.001,29.598L200.001,36.696C200.001,37.57 199.817,38.308 199.45,38.904C199.086,39.499 198.594,39.949 197.978,40.254C197.361,40.56 196.689,40.711 195.954,40.711C195.314,40.711 194.698,40.604 194.109,40.391C193.519,40.177 193.018,39.846 192.612,39.398C192.204,38.951 191.961,38.37 191.881,37.659L193.818,37.659C193.91,38.086 194.147,38.418 194.529,38.658C194.908,38.898 195.371,39.016 195.91,39.016C196.49,39.016 196.991,38.835 197.412,38.474C197.836,38.113 198.046,37.556 198.046,36.803L198.046,35.858C197.824,36.222 197.495,36.542 197.062,36.812C196.63,37.082 196.088,37.215 195.436,37.215C194.713,37.215 194.067,37.043 193.498,36.696C192.926,36.35 192.473,35.885 192.138,35.298C191.804,34.714 191.635,34.051 191.635,33.307C191.635,32.564 191.804,31.897 192.138,31.307M182.475,29.597L184.413,29.597L184.413,33.689C184.413,34.34 184.546,34.838 184.81,35.185C185.076,35.531 185.491,35.703 186.063,35.703C186.602,35.703 187.046,35.511 187.399,35.122C187.748,34.737 187.926,34.198 187.926,33.505L187.926,29.597L189.879,29.597L189.879,37.17L188.154,37.17L188,35.887C187.766,36.334 187.429,36.693 186.987,36.956C186.543,37.22 186.027,37.353 185.438,37.353C184.49,37.353 183.761,37.057 183.245,36.467C182.733,35.878 182.475,35.013 182.475,33.872L182.475,29.597ZM176.551,29.597L178.293,29.597L178.474,31.016C178.75,30.527 179.123,30.139 179.597,29.849C180.071,29.559 180.628,29.414 181.268,29.414L181.268,31.475L180.72,31.475C180.293,31.475 179.911,31.541 179.573,31.674C179.238,31.807 178.978,32.035 178.788,32.361C178.598,32.687 178.507,33.14 178.507,33.721L178.507,37.17L176.551,37.17L176.551,29.597ZM168.094,26.483L168.094,33.092C168.094,33.928 168.295,34.55 168.695,34.956C169.098,35.362 169.655,35.566 170.369,35.566C171.071,35.566 171.625,35.362 172.034,34.956C172.44,34.55 172.644,33.928 172.644,33.092L172.644,26.483L174.597,26.483L174.597,33.078C174.597,34.046 174.404,34.843 174.016,35.474C173.631,36.105 173.112,36.576 172.467,36.888C171.821,37.199 171.107,37.353 170.322,37.353C169.539,37.353 168.831,37.199 168.2,36.888C167.569,36.576 167.069,36.105 166.695,35.474C166.325,34.843 166.138,34.046 166.138,33.078L166.138,26.483L168.094,26.483ZM158.569,26.177L160.524,26.177L160.524,37.168L158.569,37.168L158.569,26.177ZM151.163,32.635L154.935,32.635C154.905,32.138 154.721,31.741 154.384,31.444C154.049,31.148 153.631,31.003 153.133,31.003C152.654,31.003 152.233,31.136 151.866,31.406C151.498,31.676 151.264,32.087 151.163,32.635M149.193,33.444C149.193,32.662 149.359,31.963 149.691,31.353C150.02,30.742 150.479,30.268 151.063,29.925C151.649,29.584 152.34,29.415 153.133,29.415C153.874,29.415 154.532,29.578 155.101,29.904C155.672,30.23 156.117,30.674 156.437,31.237C156.76,31.803 156.92,32.431 156.92,33.124C156.92,33.237 156.917,33.352 156.911,33.477C156.905,33.598 156.899,33.726 156.887,33.856L151.134,33.856C151.172,34.449 151.38,34.911 151.75,35.245C152.123,35.583 152.574,35.749 153.101,35.749C153.498,35.749 153.833,35.66 154.102,35.482C154.372,35.305 154.573,35.074 154.704,34.789L156.689,34.789C156.546,35.266 156.309,35.702 155.981,36.093C155.649,36.484 155.243,36.792 154.76,37.017C154.274,37.242 153.729,37.352 153.119,37.352C152.354,37.352 151.676,37.189 151.086,36.866C150.497,36.537 150.035,36.081 149.697,35.491C149.362,34.899 149.193,34.217 149.193,33.444M141.835,35.002C142.241,35.428 142.756,35.642 143.376,35.642C144.007,35.642 144.525,35.431 144.925,35.011C145.328,34.587 145.529,34.045 145.529,33.384C145.529,32.721 145.328,32.181 144.925,31.758C144.525,31.334 144.007,31.124 143.376,31.124C142.756,31.124 142.241,31.334 141.835,31.749C141.429,32.167 141.225,32.706 141.225,33.369C141.225,34.03 141.429,34.575 141.835,35.002M139.24,33.369C139.24,32.605 139.403,31.927 139.729,31.331C140.055,30.736 140.496,30.268 141.056,29.927C141.616,29.583 142.253,29.414 142.964,29.414C143.536,29.414 144.033,29.521 144.46,29.734C144.889,29.948 145.233,30.25 145.5,30.635L145.5,26.176L147.452,26.176L147.452,37.171L145.713,37.171L145.5,36.086C145.254,36.421 144.931,36.717 144.528,36.972C144.128,37.227 143.607,37.354 142.964,37.354C142.253,37.354 141.616,37.179 141.056,36.833C140.496,36.489 140.055,36.015 139.729,35.414C139.403,34.812 139.24,34.131 139.24,33.369M251.464,9.423L253.419,9.423L253.419,20.414L251.464,20.414L251.464,9.423ZM243.861,18.246C244.267,18.673 244.783,18.886 245.402,18.886C246.033,18.886 246.551,18.676 246.951,18.255C247.354,17.832 247.556,17.289 247.556,16.629C247.556,15.965 247.354,15.426 246.951,15.002C246.551,14.579 246.033,14.368 245.402,14.368C244.783,14.368 244.267,14.579 243.861,14.993C243.456,15.411 243.251,15.95 243.251,16.614C243.251,17.275 243.456,17.82 243.861,18.246M241.266,16.614C241.266,15.85 241.429,15.171 241.755,14.576C242.081,13.98 242.522,13.512 243.082,13.171C243.642,12.828 244.279,12.659 244.99,12.659C245.562,12.659 246.06,12.766 246.486,12.979C246.916,13.192 247.26,13.494 247.526,13.879L247.633,12.843L249.479,12.843L249.479,20.415L247.648,20.415L247.526,19.331C247.28,19.665 246.957,19.962 246.554,20.216C246.154,20.471 245.633,20.599 244.99,20.599C244.279,20.599 243.642,20.424 243.082,20.077C242.522,19.734 242.081,19.26 241.755,18.658C241.429,18.057 241.266,17.375 241.266,16.614M232.106,12.842L234.044,12.842L234.044,16.933C234.044,17.585 234.177,18.082 234.441,18.429C234.707,18.776 235.122,18.948 235.694,18.948C236.233,18.948 236.678,18.755 237.03,18.367C237.38,17.982 237.557,17.443 237.557,16.749L237.557,12.842L239.51,12.842L239.51,20.414L237.786,20.414L237.631,19.131C237.397,19.579 237.06,19.937 236.618,20.201C236.174,20.464 235.658,20.598 235.069,20.598C234.121,20.598 233.392,20.301 232.876,19.712C232.364,19.122 232.106,18.257 232.106,17.117L232.106,12.842ZM225.771,18.017C225.833,18.313 225.996,18.565 226.265,18.772C226.535,18.98 226.885,19.087 227.311,19.087C227.741,19.087 228.052,19.001 228.25,18.826C228.449,18.654 228.55,18.455 228.55,18.23C228.55,17.904 228.407,17.685 228.123,17.567C227.836,17.451 227.439,17.336 226.932,17.223C226.606,17.152 226.274,17.066 225.94,16.962C225.602,16.862 225.294,16.731 225.015,16.574C224.734,16.417 224.509,16.213 224.337,15.964C224.162,15.715 224.076,15.407 224.076,15.04C224.076,14.367 224.343,13.804 224.876,13.345C225.412,12.889 226.162,12.658 227.131,12.658C228.025,12.658 228.739,12.868 229.275,13.283C229.809,13.701 230.126,14.275 230.229,15.01L228.381,15.01C228.268,14.45 227.847,14.169 227.116,14.169C226.748,14.169 226.464,14.243 226.265,14.385C226.07,14.527 225.969,14.705 225.969,14.918C225.969,15.143 226.117,15.321 226.411,15.451C226.707,15.585 227.098,15.706 227.587,15.819C228.117,15.94 228.603,16.076 229.044,16.222C229.489,16.37 229.841,16.589 230.108,16.879C230.372,17.17 230.505,17.584 230.505,18.124L230.505,18.186C230.505,18.624 230.378,19.027 230.129,19.397C229.88,19.771 229.515,20.064 229.038,20.277C228.558,20.491 227.996,20.597 227.344,20.597C226.671,20.597 226.082,20.488 225.572,20.269C225.063,20.049 224.657,19.747 224.352,19.362C224.046,18.974 223.863,18.527 223.801,18.017L225.771,18.017ZM222.167,20.415L220.212,20.415L220.212,12.843L222.167,12.843L222.167,20.415ZM220.321,9.728C220.543,9.524 220.834,9.42 221.192,9.42C221.548,9.42 221.841,9.527 222.069,9.734C222.297,9.945 222.413,10.211 222.413,10.537C222.413,10.863 222.297,11.133 222.069,11.346C221.841,11.559 221.548,11.666 221.192,11.666C220.834,11.666 220.54,11.559 220.312,11.346C220.084,11.133 219.968,10.863 219.968,10.537C219.968,10.211 220.087,9.942 220.321,9.728M210.962,12.842L213.009,12.842L214.932,18.565L216.855,12.842L218.902,12.842L216.108,20.414L213.741,20.414L210.962,12.842ZM204.565,16.628C204.565,17.38 204.752,17.949 205.122,18.328C205.493,18.71 205.934,18.903 206.444,18.903C206.953,18.903 207.395,18.71 207.771,18.328C208.147,17.949 208.337,17.38 208.337,16.628C208.337,15.875 208.147,15.306 207.771,14.927C207.395,14.545 206.956,14.353 206.458,14.353C205.94,14.353 205.493,14.545 205.122,14.927C204.752,15.306 204.565,15.875 204.565,16.628M202.566,16.628C202.566,15.843 202.737,15.155 203.084,14.56C203.431,13.964 203.896,13.499 204.482,13.162C205.066,12.827 205.727,12.658 206.458,12.658C207.181,12.658 207.836,12.827 208.42,13.162C209.006,13.499 209.468,13.964 209.809,14.56C210.15,15.155 210.322,15.843 210.322,16.628C210.322,17.41 210.15,18.1 209.809,18.696C209.468,19.291 209.003,19.756 208.414,20.094C207.821,20.429 207.166,20.598 206.444,20.598C205.709,20.598 205.051,20.429 204.468,20.094C203.881,19.756 203.419,19.291 203.078,18.696C202.737,18.1 202.566,17.41 202.566,16.628M200.765,20.415L198.81,20.415L198.81,12.843L200.765,12.843L200.765,20.415ZM198.916,9.728C199.141,9.524 199.432,9.42 199.787,9.42C200.143,9.42 200.436,9.527 200.664,9.734C200.895,9.945 201.008,10.211 201.008,10.537C201.008,10.863 200.895,11.133 200.664,11.346C200.436,11.559 200.143,11.666 199.787,11.666C199.432,11.666 199.138,11.559 198.91,11.346C198.679,11.133 198.567,10.863 198.567,10.537C198.567,10.211 198.682,9.942 198.916,9.728M191.131,18.246C191.537,18.673 192.052,18.886 192.671,18.886C193.302,18.886 193.821,18.676 194.221,18.255C194.624,17.832 194.825,17.289 194.825,16.629C194.825,15.965 194.624,15.426 194.221,15.002C193.821,14.579 193.302,14.368 192.671,14.368C192.052,14.368 191.537,14.579 191.131,14.993C190.725,15.411 190.521,15.95 190.521,16.614C190.521,17.275 190.725,17.82 191.131,18.246M188.536,16.614C188.536,15.85 188.699,15.171 189.024,14.576C189.35,13.98 189.792,13.512 190.352,13.171C190.912,12.828 191.549,12.659 192.26,12.659C192.831,12.659 193.329,12.766 193.756,12.979C194.185,13.192 194.529,13.494 194.796,13.879L194.796,9.421L196.748,9.421L196.748,20.415L195.009,20.415L194.796,19.331C194.55,19.665 194.227,19.962 193.824,20.216C193.424,20.471 192.902,20.599 192.26,20.599C191.549,20.599 190.912,20.424 190.352,20.077C189.792,19.734 189.35,19.26 189.024,18.658C188.699,18.057 188.536,17.375 188.536,16.614M179.376,12.842L181.313,12.842L181.313,16.933C181.313,17.585 181.446,18.082 181.71,18.429C181.977,18.776 182.391,18.948 182.963,18.948C183.502,18.948 183.947,18.755 184.299,18.367C184.649,17.982 184.827,17.443 184.827,16.749L184.827,12.842L186.779,12.842L186.779,20.414L185.055,20.414L184.901,19.131C184.667,19.579 184.329,19.937 183.888,20.201C183.443,20.464 182.928,20.598 182.338,20.598C181.39,20.598 180.661,20.301 180.146,19.712C179.633,19.122 179.376,18.257 179.376,17.117L179.376,12.842ZM174.857,16.414L173.298,11.97L171.758,16.414L174.857,16.414ZM168.306,20.413L172.214,9.727L174.412,9.727L178.323,20.413L176.246,20.413L175.39,17.939L171.222,17.939L170.354,20.413L168.306,20.413ZM161.362,9.423L163.314,9.423L163.314,20.414L161.362,20.414L161.362,9.423ZM153.957,15.88L157.728,15.88C157.699,15.382 157.515,14.985 157.177,14.689C156.842,14.393 156.425,14.247 155.927,14.247C155.447,14.247 155.026,14.381 154.659,14.65C154.292,14.92 154.058,15.329 153.957,15.88M151.987,16.689C151.987,15.906 152.153,15.207 152.484,14.597C152.813,13.987 153.272,13.513 153.856,13.169C154.443,12.828 155.133,12.66 155.927,12.66C156.668,12.66 157.325,12.822 157.894,13.148C158.466,13.474 158.91,13.919 159.23,14.481C159.553,15.047 159.713,15.675 159.713,16.369C159.713,16.481 159.71,16.597 159.704,16.718C159.698,16.843 159.692,16.97 159.681,17.1L153.927,17.1C153.966,17.693 154.173,18.155 154.543,18.49C154.917,18.828 155.367,18.994 155.894,18.994C156.291,18.994 156.626,18.905 156.896,18.727C157.165,18.549 157.367,18.318 157.497,18.034L159.482,18.034C159.34,18.511 159.103,18.946 158.774,19.337C158.442,19.728 158.036,20.036 157.55,20.261C157.068,20.487 156.522,20.596 155.912,20.596C155.148,20.596 154.469,20.433 153.88,20.11C153.29,19.782 152.828,19.325 152.49,18.736C152.156,18.143 151.987,17.462 151.987,16.689M147.316,12.841L142.508,23.773L140.431,23.773L142.185,19.91L141.729,19.91L138.781,12.841L140.905,12.841L143.027,18.171L145.24,12.841L147.316,12.841ZM258.243,-0.876L262.014,-0.876C261.984,-1.373 261.801,-1.77 261.463,-2.067C261.128,-2.363 260.711,-2.511 260.213,-2.511C259.733,-2.511 259.312,-2.375 258.945,-2.105C258.578,-1.836 258.344,-1.424 258.243,-0.876M256.273,-0.067C256.273,-0.849 256.439,-1.548 256.77,-2.158C257.099,-2.769 257.558,-3.243 258.145,-3.586C258.729,-3.927 259.419,-4.096 260.213,-4.096C260.956,-4.096 261.611,-3.933 262.183,-3.607C262.752,-3.281 263.196,-2.837 263.516,-2.274C263.839,-1.708 263.999,-1.08 263.999,-0.387C263.999,-0.274 263.996,-0.159 263.99,-0.034C263.984,0.087 263.978,0.214 263.966,0.345L258.213,0.345C258.252,0.937 258.459,1.4 258.829,1.734C259.203,2.072 259.653,2.238 260.18,2.238C260.577,2.238 260.912,2.149 261.182,1.971C261.451,1.794 261.653,1.563 261.783,1.278L263.768,1.278C263.626,1.755 263.389,2.191 263.06,2.582C262.728,2.973 262.322,3.281 261.836,3.506C261.354,3.731 260.808,3.841 260.198,3.841C259.434,3.841 258.755,3.678 258.166,3.352C257.576,3.026 257.114,2.57 256.776,1.98C256.442,1.388 256.273,0.706 256.273,-0.067M247.236,3.658L247.236,-3.914L248.96,-3.914L249.114,-2.631C249.348,-3.079 249.686,-3.434 250.13,-3.701C250.571,-3.965 251.093,-4.098 251.694,-4.098C252.63,-4.098 253.359,-3.802 253.875,-3.212C254.396,-2.622 254.654,-1.757 254.654,-0.617L254.654,3.658L252.702,3.658L252.702,-0.433C252.702,-1.085 252.568,-1.583 252.305,-1.929C252.038,-2.276 251.626,-2.448 251.066,-2.448C250.518,-2.448 250.068,-2.255 249.715,-1.867C249.366,-1.482 249.191,-0.943 249.191,-0.249L249.191,3.658L247.236,3.658ZM245.189,3.658L243.234,3.658L243.234,-3.914L245.189,-3.914L245.189,3.658ZM243.343,-7.028C243.566,-7.232 243.856,-7.333 244.211,-7.333C244.57,-7.333 244.863,-7.229 245.091,-7.022C245.319,-6.812 245.435,-6.545 245.435,-6.219C245.435,-5.893 245.319,-5.624 245.091,-5.41C244.863,-5.197 244.57,-5.09 244.211,-5.09C243.856,-5.09 243.563,-5.197 243.334,-5.41C243.106,-5.624 242.991,-5.893 242.991,-6.219C242.991,-6.545 243.109,-6.815 243.343,-7.028M231.603,-1.67C231.603,-2.76 231.81,-3.72 232.228,-4.556C232.645,-5.391 233.241,-6.04 234.014,-6.511C234.787,-6.976 235.715,-7.213 236.793,-7.213C238.076,-7.213 239.128,-6.893 239.945,-6.256C240.766,-5.622 241.275,-4.727 241.48,-3.578L239.329,-3.578C239.196,-4.159 238.914,-4.615 238.482,-4.944C238.049,-5.276 237.474,-5.441 236.763,-5.441C235.774,-5.441 235.001,-5.104 234.441,-4.434C233.881,-3.762 233.602,-2.84 233.602,-1.67C233.602,-0.5 233.881,0.419 234.441,1.085C235.001,1.752 235.774,2.087 236.763,2.087C237.474,2.087 238.049,1.93 238.482,1.621C238.914,1.31 239.196,0.881 239.329,0.33L241.48,0.33C241.275,1.429 240.766,2.288 239.945,2.91C239.128,3.532 238.076,3.84 236.793,3.84C235.715,3.84 234.787,3.609 234.014,3.147C233.241,2.685 232.645,2.036 232.228,1.207C231.81,0.38 231.603,-0.58 231.603,-1.67M224.321,-7.333L226.276,-7.333L226.276,3.658L224.321,3.658L224.321,-7.333ZM216.916,-0.876L220.688,-0.876C220.658,-1.373 220.474,-1.77 220.137,-2.067C219.802,-2.363 219.384,-2.511 218.886,-2.511C218.407,-2.511 217.986,-2.375 217.619,-2.105C217.251,-1.836 217.017,-1.424 216.916,-0.876M214.946,-0.067C214.946,-0.849 215.112,-1.548 215.444,-2.158C215.773,-2.769 216.232,-3.243 216.816,-3.586C217.402,-3.927 218.093,-4.096 218.886,-4.096C219.627,-4.096 220.285,-3.933 220.857,-3.607C221.425,-3.281 221.87,-2.837 222.19,-2.274C222.513,-1.708 222.673,-1.08 222.673,-0.387C222.673,-0.274 222.67,-0.159 222.664,-0.034C222.658,0.087 222.652,0.214 222.64,0.345L216.887,0.345C216.925,0.937 217.133,1.4 217.503,1.734C217.876,2.072 218.327,2.238 218.854,2.238C219.251,2.238 219.586,2.149 219.855,1.971C220.125,1.794 220.326,1.563 220.457,1.278L222.442,1.278C222.299,1.755 222.062,2.191 221.734,2.582C221.402,2.973 220.996,3.281 220.51,3.506C220.027,3.731 219.482,3.841 218.872,3.841C218.107,3.841 217.429,3.678 216.839,3.352C216.25,3.026 215.788,2.57 215.45,1.98C215.115,1.388 214.946,0.706 214.946,-0.067M207.588,1.491C207.994,1.917 208.509,2.131 209.129,2.131C209.76,2.131 210.278,1.92 210.678,1.5C211.081,1.076 211.282,0.534 211.282,-0.127C211.282,-0.79 211.081,-1.333 210.678,-1.753C210.278,-2.177 209.76,-2.387 209.129,-2.387C208.509,-2.387 207.994,-2.177 207.588,-1.762C207.182,-1.344 206.978,-0.805 206.978,-0.142C206.978,0.519 207.182,1.064 207.588,1.491M204.993,-0.142C204.993,-0.906 205.156,-1.584 205.482,-2.18C205.808,-2.775 206.249,-3.243 206.809,-3.587C207.369,-3.928 208.006,-4.097 208.717,-4.097C209.289,-4.097 209.786,-3.99 210.213,-3.777C210.642,-3.563 210.986,-3.261 211.253,-2.876L211.253,-7.335L213.205,-7.335L213.205,3.659L211.466,3.659L211.253,2.575C211.007,2.91 210.684,3.206 210.284,3.461C209.881,3.716 209.36,3.843 208.717,3.843C208.006,3.843 207.369,3.668 206.809,3.322C206.249,2.978 205.808,2.504 205.482,1.903C205.156,1.301 204.993,0.62 204.993,-0.142M194.001,1.491C194.407,1.917 194.923,2.131 195.542,2.131C196.173,2.131 196.691,1.92 197.091,1.5C197.494,1.076 197.696,0.534 197.696,-0.127C197.696,-0.79 197.494,-1.333 197.091,-1.753C196.691,-2.177 196.173,-2.387 195.542,-2.387C194.923,-2.387 194.407,-2.177 194.001,-1.762C193.595,-1.344 193.391,-0.805 193.391,-0.142C193.391,0.519 193.595,1.064 194.001,1.491M191.406,-0.142C191.406,-0.906 191.569,-1.584 191.895,-2.18C192.221,-2.775 192.662,-3.243 193.222,-3.587C193.782,-3.928 194.419,-4.097 195.13,-4.097C195.702,-4.097 196.2,-3.99 196.626,-3.777C197.056,-3.563 197.399,-3.261 197.666,-2.876L197.773,-3.913L199.618,-3.913L199.618,3.659L197.788,3.659L197.666,2.575C197.42,2.91 197.097,3.206 196.694,3.461C196.294,3.716 195.773,3.843 195.13,3.843C194.419,3.843 193.782,3.668 193.222,3.322C192.662,2.978 192.221,2.504 191.895,1.903C191.569,1.301 191.406,0.62 191.406,-0.142M189.605,3.658L187.65,3.658L187.65,-3.914L189.605,-3.914L189.605,3.658ZM187.756,-7.028C187.981,-7.232 188.272,-7.333 188.627,-7.333C188.983,-7.333 189.276,-7.229 189.504,-7.022C189.735,-6.812 189.848,-6.545 189.848,-6.219C189.848,-5.893 189.735,-5.624 189.504,-5.41C189.276,-5.197 188.983,-5.09 188.627,-5.09C188.272,-5.09 187.978,-5.197 187.75,-5.41C187.519,-5.624 187.407,-5.893 187.407,-6.219C187.407,-6.545 187.522,-6.815 187.756,-7.028M178.17,-0.128C178.17,-0.901 178.339,-1.588 178.682,-2.19C179.023,-2.788 179.488,-3.256 180.078,-3.594C180.667,-3.929 181.352,-4.098 182.125,-4.098C183.091,-4.098 183.905,-3.846 184.566,-3.342C185.227,-2.838 185.65,-2.142 185.834,-1.256L183.772,-1.256C183.671,-1.624 183.47,-1.911 183.171,-2.119C182.868,-2.329 182.516,-2.433 182.11,-2.433C181.568,-2.433 181.112,-2.228 180.735,-1.822C180.359,-1.416 180.17,-0.851 180.17,-0.128C180.17,0.595 180.359,1.161 180.735,1.567C181.112,1.973 181.568,2.177 182.11,2.177C182.516,2.177 182.868,2.077 183.171,1.872C183.47,1.668 183.671,1.38 183.772,1.001L185.834,1.001C185.65,1.857 185.227,2.545 184.566,3.063C183.905,3.581 183.091,3.842 182.125,3.842C181.352,3.842 180.667,3.673 180.078,3.339C179.488,3.001 179.023,2.533 178.682,1.934C178.339,1.333 178.17,0.646 178.17,-0.128M169.132,3.658L169.132,-3.914L170.856,-3.914L171.01,-2.631C171.244,-3.079 171.582,-3.434 172.027,-3.701C172.468,-3.965 172.989,-4.098 173.591,-4.098C174.527,-4.098 175.256,-3.802 175.774,-3.212C176.293,-2.622 176.55,-1.757 176.55,-0.617L176.55,3.658L174.598,3.658L174.598,-0.433C174.598,-1.085 174.465,-1.583 174.201,-1.929C173.934,-2.276 173.523,-2.448 172.963,-2.448C172.415,-2.448 171.964,-2.255 171.612,-1.867C171.262,-1.482 171.087,-0.943 171.087,-0.249L171.087,3.658L169.132,3.658ZM161.728,-0.876L165.499,-0.876C165.469,-1.373 165.286,-1.77 164.948,-2.067C164.613,-2.363 164.196,-2.511 163.698,-2.511C163.218,-2.511 162.797,-2.375 162.43,-2.105C162.062,-1.836 161.828,-1.424 161.728,-0.876M159.758,-0.067C159.758,-0.849 159.923,-1.548 160.255,-2.158C160.584,-2.769 161.043,-3.243 161.627,-3.586C162.214,-3.927 162.904,-4.096 163.698,-4.096C164.441,-4.096 165.096,-3.933 165.668,-3.607C166.237,-3.281 166.681,-2.837 167.001,-2.274C167.324,-1.708 167.484,-1.08 167.484,-0.387C167.484,-0.274 167.481,-0.159 167.475,-0.034C167.469,0.087 167.463,0.214 167.451,0.345L161.698,0.345C161.737,0.937 161.944,1.4 162.314,1.734C162.688,2.072 163.138,2.238 163.665,2.238C164.062,2.238 164.397,2.149 164.667,1.971C164.936,1.794 165.138,1.563 165.268,1.278L167.253,1.278C167.111,1.755 166.874,2.191 166.545,2.582C166.213,2.973 165.807,3.281 165.321,3.506C164.838,3.731 164.293,3.841 163.683,3.841C162.919,3.841 162.24,3.678 161.651,3.352C161.061,3.026 160.599,2.57 160.261,1.98C159.926,1.388 159.758,0.706 159.758,-0.067M151.637,-0.204C151.637,0.214 151.728,0.59 151.912,0.925C152.096,1.262 152.351,1.526 152.682,1.719C153.014,1.914 153.396,2.009 153.835,2.009C154.261,2.009 154.641,1.914 154.972,1.719C155.301,1.526 155.562,1.262 155.752,0.925C155.938,0.59 156.033,0.219 156.033,-0.189C156.033,-0.829 155.829,-1.357 155.423,-1.768C155.017,-2.18 154.486,-2.388 153.835,-2.388C153.183,-2.388 152.653,-2.18 152.247,-1.768C151.841,-1.357 151.637,-0.835 151.637,-0.204M150.14,-2.204C150.475,-2.785 150.931,-3.244 151.506,-3.584C152.081,-3.925 152.727,-4.097 153.438,-4.097C154.018,-4.097 154.531,-3.978 154.981,-3.739C155.429,-3.499 155.784,-3.202 156.048,-2.844L156.246,-3.913L158.003,-3.913L158.003,3.185C158.003,4.059 157.819,4.797 157.452,5.392C157.088,5.985 156.596,6.438 155.98,6.743C155.363,7.048 154.691,7.199 153.956,7.199C153.316,7.199 152.7,7.093 152.11,6.879C151.518,6.666 151.02,6.334 150.614,5.887C150.206,5.44 149.963,4.859 149.88,4.148L151.82,4.148C151.912,4.574 152.149,4.906 152.531,5.146C152.91,5.386 153.373,5.505 153.912,5.505C154.492,5.505 154.993,5.324 155.414,4.963C155.837,4.601 156.048,4.044 156.048,3.292L156.048,2.347C155.826,2.711 155.497,3.031 155.064,3.301C154.632,3.57 154.09,3.704 153.438,3.704C152.715,3.704 152.069,3.532 151.5,3.185C150.928,2.838 150.475,2.373 150.14,1.787C149.806,1.203 149.637,0.539 149.637,-0.204C149.637,-0.948 149.806,-1.614 150.14,-2.204M143.835,-4.785L145.393,-0.341L142.295,-0.341L143.835,-4.785ZM142.751,-7.027L138.843,3.659L140.887,3.659L141.758,1.185L145.927,1.185L146.783,3.659L148.857,3.659L144.949,-7.027L142.751,-7.027Z" style="fill:rgb(220,225,214);fill-rule:nonzero;"/>
            </g>
        </g>
    </g>
</svg>
