<?xml version="1.0" encoding="UTF-8" standalone="no"?>
<!DOCTYPE svg PUBLIC "-//W3C//DTD SVG 1.1//EN" "http://www.w3.org/Graphics/SVG/1.1/DTD/svg11.dtd">
<svg width="100%" height="100%" viewBox="0 0 654 208" version="1.1" xmlns="http://www.w3.org/2000/svg" xmlns:xlink="http://www.w3.org/1999/xlink" xml:space="preserve" xmlns:serif="http://www.serif.com/" style="fill-rule:evenodd;clip-rule:evenodd;stroke-linejoin:round;stroke-miterlimit:2;">
    <g id="Artboard1" transform="matrix(1.51183,0,0,1,0,0)">
        <rect x="0" y="0" width="432" height="208" style="fill:none;"/>
        <g transform="matrix(0.999009,0,0,1.51033,178.519,34.123)">
            <path d="M0,86.659L-3.995,76.627L-6.182,76.627L-6.182,89.504L-4.736,89.504L-4.736,78.662L-0.307,89.504L0.18,89.504L4.464,78.662L4.464,89.504L6.036,89.504L6.036,76.627L3.868,76.627L0,86.659ZM-3.294,39.328L-3.294,25.641C-5.742,24.322 -7.759,23.405 -10.581,23.405C-15.406,23.405 -18.098,25.493 -18.584,29.61C-19.184,34.667 -16.031,40.144 -11.404,42.078C-8.473,43.302 -5.745,42.375 -3.294,39.328M-3.294,41.86C-5.469,44.087 -7.913,45.215 -10.581,45.215C-17.632,45.215 -23.368,39.938 -23.368,33.451C-23.368,26.966 -17.632,21.689 -10.581,21.689C-7.823,21.689 -5.672,22.432 -3.294,23.665L-3.294,8.158L1.983,8.158L1.983,45.215L-3.294,45.215L-3.294,41.86ZM-31.698,89.504L-30.125,89.504L-30.125,83.741L-25.461,83.741L-25.461,82.462L-30.125,82.462L-30.125,77.905L-24.142,77.905L-24.142,76.627L-31.698,76.627L-31.698,89.504ZM-45.052,27.578C-46.913,28.304 -49.374,29.049 -53.179,30.045C-59.377,31.69 -62.201,35.863 -62.201,39.043C-62.201,41.312 -60.804,42.778 -58.642,42.778C-56.891,42.778 -54.803,41.934 -52.606,40.336C-45.527,35.257 -45.043,31.463 -45.052,27.578M-38.955,20.985L-38.953,45.215L-45.352,45.215L-45.352,36.611C-47.425,38.724 -49.495,40.498 -51.522,41.898C-54.807,44.131 -57.935,45.215 -61.09,45.215C-65.343,45.215 -69.649,43.035 -69.649,38.868C-69.649,31.78 -60.909,29.807 -54.528,28.366C-53.276,28.084 -52.094,27.817 -51.06,27.535L-51.056,27.533C-46.206,26.248 -44.478,23.607 -44.478,21.564C-44.478,19.129 -46.941,16.664 -51.65,16.664C-55.897,16.664 -60.924,19.336 -61.986,23.808L-62.2,24.709L-67.637,20.982L-67.159,20.443C-62.817,15.542 -55.578,14.81 -51.65,14.81C-48.795,14.81 -39.444,15.255 -38.955,20.985M-41.376,82.949C-41.376,80.067 -43.075,77.725 -46.057,77.725C-49.058,77.725 -50.793,79.923 -50.793,82.985L-50.793,83.128C-50.793,86.244 -48.714,88.369 -46.021,88.369C-43.147,88.369 -41.376,86.209 -41.376,83.092L-41.376,82.949ZM-39.75,82.967L-39.75,83.111C-39.75,86.749 -42.262,89.667 -46.021,89.667C-49.835,89.667 -52.42,86.749 -52.42,83.147L-52.42,83.002C-52.42,79.347 -49.854,76.465 -46.057,76.465C-42.262,76.465 -39.75,79.347 -39.75,82.967M46.479,8.158L41.247,8.158L41.247,45.215L46.479,45.215L46.479,8.158ZM24.224,28.959C22.901,26.943 21.096,25.41 19.088,24.606C17.998,24.127 16.871,23.888 15.792,23.888C14.61,23.888 13.485,24.174 12.527,24.741C11.013,25.611 10.018,27.296 9.717,29.488C9.443,31.753 9.937,34.306 11.075,36.577L24.224,28.959ZM29.403,27.988L11.979,38.079C13.26,40.011 15.018,41.497 16.983,42.299C20.601,43.833 24.239,42.78 26.975,39.415L27.367,38.933L28.775,40.025L28.362,40.53C25.926,43.507 22.161,45.215 18.033,45.215C10.933,45.215 5.157,39.938 5.157,33.451C5.157,29.037 7.804,25.048 12.065,23.041C17.407,20.414 25.829,21.734 29.089,27.44L29.403,27.988ZM45.569,89.504L47.141,89.504L47.141,76.627L45.569,76.627L45.569,89.504ZM31.952,76.627L30.379,76.627L30.379,89.504L37.862,89.504L37.862,88.226L31.952,88.226L31.952,76.627ZM16.293,83.561L21.101,83.561L21.101,82.282L16.293,82.282L16.293,77.905L22.258,77.905L22.258,76.627L14.72,76.627L14.72,89.504L22.583,89.504L22.583,88.226L16.293,88.226L16.293,83.561ZM-166.428,7.375C-162.441,5.112 -157.217,4.802 -152.458,6.543C-147.461,8.424 -143.384,12.201 -140.977,17.179L-140.679,17.797L-135.222,14.625L-135.544,14.075C-139.599,7.161 -147.311,2.865 -155.671,2.865C-161.809,2.865 -167.725,5.159 -171.891,9.149C-176.279,13.16 -178.697,18.501 -178.696,24.187C-178.696,29.872 -176.279,35.212 -171.899,39.215C-167.431,43.441 -161.562,45.553 -155.695,45.552C-149.833,45.552 -143.974,43.444 -139.519,39.23C-138.118,37.997 -136.899,36.542 -135.789,34.78L-135.437,34.222L-138.913,32.208L-139.147,32.972C-140.357,36.901 -142.623,39.791 -145.706,41.334C-149.753,43.413 -154.311,43.624 -158.89,41.943C-163.923,40.092 -168.168,36.154 -170.539,31.135C-172.635,26.779 -173.402,21.801 -172.641,17.473C-171.885,12.932 -169.673,9.343 -166.428,7.375M-146.105,83.561L-141.298,83.561L-141.298,82.282L-146.105,82.282L-146.105,77.905L-140.141,77.905L-140.141,76.627L-147.678,76.627L-147.678,89.504L-139.815,89.504L-139.815,88.226L-146.105,88.226L-146.105,83.561ZM-162.4,86.659L-166.394,76.627L-168.581,76.627L-168.581,89.504L-167.136,89.504L-167.136,78.662L-162.707,89.504L-162.219,89.504L-157.935,78.662L-157.935,89.504L-156.362,89.504L-156.362,76.627L-158.531,76.627L-162.4,86.659ZM-125.836,86.659L-129.831,76.627L-132.018,76.627L-132.018,89.504L-130.572,89.504L-130.572,78.662L-126.143,89.504L-125.656,89.504L-121.372,78.662L-121.372,89.504L-119.8,89.504L-119.8,76.627L-121.968,76.627L-125.836,86.659ZM-74.789,82.661C-72.946,82.661 -71.952,81.868 -71.952,80.283L-71.952,80.211C-71.952,78.464 -73.037,77.888 -74.789,77.888L-77.212,77.888L-77.212,82.661L-74.789,82.661ZM-73.579,83.795L-69.62,89.504L-71.374,89.504L-75.223,83.904L-77.212,83.904L-77.212,89.504L-78.784,89.504L-78.784,76.627L-74.898,76.627C-72.422,76.627 -70.379,77.635 -70.379,80.211L-70.379,80.283C-70.379,82.408 -71.807,83.453 -73.579,83.795M-72.871,37.297C-72.706,35.543 -72.806,33.48 -74.793,31.493C-76.638,29.584 -79.913,28.012 -85.097,26.547C-88.737,25.499 -91.555,24.174 -93.233,22.726C-94.202,21.837 -94.635,21.023 -94.523,20.307C-94.353,19.23 -92.994,18.397 -91.896,17.894C-89.66,16.926 -86.71,16.809 -83.811,17.573C-80.937,18.368 -77.807,20.245 -75.225,22.721L-74.15,23.753L-74.15,16.668L-74.596,16.529C-81.459,14.383 -88.158,14.217 -92.535,16.093C-95.748,17.593 -97.446,19.888 -97.446,22.729C-97.446,29.658 -90.236,31.865 -84.443,33.638C-80.071,34.976 -76.295,36.132 -76.295,38.694C-76.295,40.467 -77.577,41.773 -80.099,42.572C-84.791,44.014 -94.063,39.742 -97.301,35.621L-98.436,34.175L-98.436,42.862L-98.026,43.017C-94.685,44.285 -90.136,45.244 -85.842,45.244C-83.461,45.244 -81.157,44.949 -79.182,44.248C-75.059,42.831 -73.112,40.683 -72.871,37.297M-92.871,83.561L-88.063,83.561L-88.063,82.282L-92.871,82.282L-92.871,77.905L-86.906,77.905L-86.906,76.627L-94.444,76.627L-94.444,89.504L-86.581,89.504L-86.581,88.226L-92.871,88.226L-92.871,83.561ZM-109.154,27.578C-111.016,28.305 -113.477,29.049 -117.281,30.045C-123.479,31.69 -126.303,35.863 -126.303,39.043C-126.303,41.312 -124.906,42.778 -122.744,42.778C-120.992,42.778 -118.906,41.934 -116.709,40.336C-109.627,35.255 -109.145,31.462 -109.154,27.578M-109.454,36.611C-111.526,38.723 -113.597,40.498 -115.625,41.898C-118.908,44.131 -122.037,45.215 -125.192,45.215C-129.446,45.215 -133.752,43.035 -133.752,38.868C-133.752,31.78 -125.011,29.807 -118.63,28.366C-117.378,28.083 -116.196,27.816 -115.161,27.535L-115.157,27.533C-110.308,26.248 -108.581,23.607 -108.581,21.564C-108.581,19.129 -111.044,16.664 -115.752,16.664C-119.998,16.664 -125.025,19.336 -126.088,23.808L-126.302,24.709L-131.738,20.982L-131.261,20.443C-126.92,15.542 -119.681,14.81 -115.752,14.81C-112.897,14.81 -103.547,15.255 -103.058,20.985L-103.055,45.215L-109.454,45.215L-109.454,36.611ZM-103.977,85.813C-103.977,84.227 -104.862,83.471 -106.941,83.471L-109.579,83.471L-109.579,88.279L-106.724,88.279C-104.844,88.279 -103.977,87.451 -103.977,85.884L-103.977,85.813ZM-109.579,82.246L-107.23,82.246C-105.332,82.246 -104.609,81.562 -104.609,79.977L-104.609,79.904C-104.609,78.446 -105.458,77.851 -107.266,77.851L-109.579,77.851L-109.579,82.246ZM-102.44,85.83L-102.44,85.903C-102.44,88.334 -104.103,89.504 -106.688,89.504L-111.116,89.504L-111.116,76.627L-107.23,76.627C-104.826,76.627 -103.072,77.419 -103.072,79.959L-103.072,80.031C-103.072,81.202 -103.542,82.246 -105.025,82.751C-103.145,83.201 -102.44,84.155 -102.44,85.83M89.181,88.388C86.398,88.388 84.735,86.406 84.735,83.128L84.735,82.985C84.735,79.743 86.524,77.672 89.2,77.672C91.405,77.672 92.543,78.68 92.869,80.643L94.423,80.643C94.152,77.851 91.874,76.429 89.181,76.429C85.674,76.429 83.108,79.184 83.108,83.002L83.108,83.147C83.108,87.109 85.403,89.667 89.145,89.667C92.037,89.667 94.098,88.208 94.55,85.236L93.086,85.236C92.76,87.325 91.296,88.388 89.181,88.388M173.571,88.388C170.787,88.388 169.124,86.406 169.124,83.128L169.124,82.985C169.124,79.743 170.913,77.672 173.589,77.672C175.794,77.672 176.932,78.68 177.258,80.643L178.812,80.643C178.541,77.851 176.264,76.429 173.571,76.429C170.064,76.429 167.498,79.184 167.498,83.002L167.498,83.147C167.498,87.109 169.793,89.667 173.534,89.667C176.426,89.667 178.488,88.208 178.939,85.236L177.475,85.236C177.149,87.325 175.686,88.388 173.571,88.388M202.235,89.504L203.807,89.504L203.807,76.627L202.235,76.627L202.235,89.504ZM185.473,77.905L189.232,77.905L189.232,89.504L190.804,89.504L190.804,77.905L194.564,77.905L194.564,76.627L185.473,76.627L185.473,77.905ZM192.365,39.943L192.935,38.887L191.217,38.025L190.676,39.014C189.828,40.576 189.159,41.81 187.557,42.683C187.245,42.859 186.798,42.804 186.413,42.535C185.314,41.802 184.657,39.669 184.657,36.829L184.657,16.664L192.814,16.664L192.814,14.81L184.657,14.81L184.657,7.701L182.743,7.701L182.743,8.337C182.743,12.874 180.424,14.81 174.989,14.81L174.353,14.81L174.353,16.664L178.142,16.664L178.142,36.829C178.142,40.883 179.916,45.215 184.894,45.215C186.643,45.215 188.216,44.707 189.307,43.798C191.046,42.44 191.746,41.113 192.365,39.943M222.989,82.949C222.989,80.067 221.289,77.725 218.307,77.725C215.307,77.725 213.571,79.923 213.571,82.985L213.571,83.128C213.571,86.244 215.65,88.369 218.344,88.369C221.217,88.369 222.989,86.209 222.989,83.092L222.989,82.949ZM224.615,82.967L224.615,83.111C224.615,86.749 222.103,89.667 218.344,89.667C214.53,89.667 211.945,86.749 211.945,83.147L211.945,83.002C211.945,79.347 214.511,76.465 218.307,76.465C222.103,76.465 224.615,79.347 224.615,82.967M62.582,84.551L60.341,77.924L58.099,84.551L62.582,84.551ZM61.443,76.627L65.817,89.504L64.263,89.504L62.998,85.794L57.666,85.794L56.418,89.504L54.936,89.504L59.382,76.627L61.443,76.627ZM219.383,24.195C217.619,21.439 215.179,19.34 212.455,18.25C211.007,17.614 209.507,17.296 208.068,17.296C206.485,17.296 204.978,17.679 203.692,18.44C201.66,19.608 200.322,21.864 199.919,24.796C199.549,27.863 200.237,31.323 201.811,34.377L219.383,24.195ZM225.617,22.787L202.796,36.003C204.505,38.65 206.883,40.688 209.55,41.776C214.369,43.819 219.219,42.421 222.861,37.944L223.252,37.462L224.784,38.651L224.371,39.155C221.219,43.006 216.346,45.215 211.002,45.215C201.816,45.215 194.342,38.395 194.342,30.013C194.342,24.31 197.764,19.155 203.272,16.56C210.192,13.159 221.089,14.863 225.304,22.239L225.617,22.787ZM241,87.272L234.71,76.627L232.667,76.627L232.667,89.504L234.167,89.504L234.167,78.464L240.693,89.504L242.5,89.504L242.5,76.627L241,76.627L241,87.272ZM250.677,31.493C248.834,29.584 245.559,28.012 240.374,26.547C236.735,25.499 233.917,24.174 232.238,22.726C231.269,21.837 230.834,21.023 230.948,20.307C231.118,19.23 232.477,18.397 233.574,17.894C235.813,16.926 238.762,16.811 241.66,17.573C244.534,18.369 247.663,20.245 250.245,22.721L251.321,23.753L251.321,16.668L250.875,16.529C244.013,14.383 237.312,14.217 232.937,16.093C229.723,17.593 228.025,19.888 228.025,22.729C228.025,29.658 235.235,31.865 241.029,33.638C245.4,34.976 249.176,36.132 249.176,38.694C249.176,40.467 247.895,41.773 245.372,42.572C240.68,44.014 231.408,39.742 228.171,35.621L227.035,34.175L227.035,42.862L227.445,43.017C230.785,44.285 235.334,45.244 239.629,45.244C242.01,45.244 244.313,44.949 246.289,44.248C250.412,42.831 252.359,40.683 252.601,37.297C252.766,35.543 252.665,33.481 250.677,31.493M173.583,22.285L173.583,15.369L173.047,15.283C169.384,14.701 164.701,14.385 160.972,17.15C159.34,18.365 158.004,20.441 157.093,22.62L157.093,14.81L150.578,14.81L150.578,45.215L157.093,45.215L157.093,34.843C157.049,30.357 157.343,24.042 160.39,21.008C161.621,19.782 163.197,19.216 165.167,19.227C167.626,19.117 170.998,20.562 172.594,21.626L173.583,22.285ZM87.051,30.66C84.329,29.876 82.138,28.847 80.896,27.776C80.195,27.133 79.879,26.556 79.957,26.062C80.051,25.471 80.736,24.855 81.874,24.333C83.552,23.608 85.771,23.52 87.953,24.095C90.124,24.696 92.491,26.116 94.446,27.991L95.522,29.023L95.522,23.148L95.076,23.009C89.801,21.36 84.643,21.235 81.264,22.684C78.753,23.856 77.426,25.655 77.426,27.888C77.426,33.293 82.993,34.996 87.466,36.366C90.749,37.37 93.583,38.238 93.583,40.083C93.583,41.364 92.64,42.314 90.783,42.904C87.255,43.987 80.252,40.758 77.805,37.644L76.67,36.199L76.67,43.371L77.08,43.526C79.646,44.5 83.141,45.236 86.444,45.236C88.279,45.236 90.054,45.008 91.577,44.468C94.791,43.363 96.309,41.682 96.498,39.03C96.62,37.736 96.557,36.048 94.988,34.48C93.559,33.001 91.036,31.787 87.051,30.66M112.777,82.949C112.777,80.067 111.078,77.725 108.096,77.725C105.095,77.725 103.36,79.923 103.36,82.985L103.36,83.128C103.36,86.244 105.439,88.369 108.132,88.369C111.005,88.369 112.777,86.209 112.777,83.092L112.777,82.949ZM114.403,82.967L114.403,83.111C114.403,86.749 111.891,89.667 108.132,89.667C104.318,89.667 101.733,86.749 101.733,83.147L101.733,83.002C101.733,79.347 104.299,76.465 108.096,76.465C111.891,76.465 114.403,79.347 114.403,82.967M60.72,73.331L59.708,75.618L60.829,75.618L62.6,73.331L60.72,73.331ZM68.49,31.81C67.08,32.345 65.202,32.908 62.471,33.622C57.814,34.858 55.691,37.977 55.691,40.351C55.691,41.993 56.699,43.054 58.26,43.054C59.567,43.054 61.13,42.418 62.782,41.216C67.995,37.477 68.475,34.663 68.49,31.81M73.448,26.544L73.451,45.215L68.262,45.215L68.262,38.857C66.757,40.366 65.255,41.64 63.784,42.654C61.251,44.378 58.833,45.215 56.391,45.215C53.067,45.215 49.701,43.498 49.701,40.217C49.701,34.682 56.446,33.159 61.372,32.048C62.325,31.833 63.226,31.629 64.013,31.415L64.017,31.414C67.639,30.453 68.93,28.503 68.93,26.998C68.93,25.213 67.099,23.405 63.601,23.405C60.485,23.405 56.635,25.447 55.852,28.747L55.639,29.648L51.164,26.582L51.641,26.043C54.998,22.255 60.575,21.689 63.601,21.689C65.814,21.689 73.064,22.039 73.448,26.544M124.028,76.627L122.455,76.627L122.455,89.504L129.938,89.504L129.938,88.226L124.028,88.226L124.028,76.627ZM154.224,83.561L159.033,83.561L159.033,82.282L154.224,82.282L154.224,77.905L160.189,77.905L160.189,76.627L152.652,76.627L152.652,89.504L160.514,89.504L160.514,88.226L154.224,88.226L154.224,83.561ZM139.127,76.627L137.554,76.627L137.554,89.504L145.037,89.504L145.037,88.226L139.127,88.226L139.127,76.627ZM133.744,31.092L126.189,12.153L118.902,29.092C119.284,29.023 119.679,28.993 120.085,28.993C121.77,28.993 123.634,29.521 125.566,30.069C128.302,30.844 131.124,31.645 133.744,31.092M129.732,3.156L146.315,45.215L139.296,45.215L134.451,32.817C131.235,33.599 127.958,32.671 125.048,31.847L124.944,31.818C122.013,31.005 119.475,30.299 117.877,31.515L112.066,45.215L110.041,45.215L125.233,9.727L122.591,3.156L129.732,3.156Z" style="fill:rgb(220,225,214);fill-rule:nonzero;"/>
        </g>
    </g>
</svg>
