<?xml version="1.0" encoding="utf-8"?>
<!-- Generator: Adobe Illustrator 22.0.1, SVG Export Plug-In . SVG Version: 6.00 Build 0)  -->
<svg version="1.1" id="Capa_1" xmlns="http://www.w3.org/2000/svg" xmlns:xlink="http://www.w3.org/1999/xlink" x="0px" y="0px"
	 viewBox="0 0 1082.5 208" style="enable-background:new 0 0 1082.5 208;" xml:space="preserve">
<style type="text/css">
	.st0{fill:#DCE1D6;}
</style>
<g>
	<path class="st0" d="M0,61.9c20.3,0,40.5,0,61.2,0c-1.2,1.3-2.1,2.2-3,3.2c-3.3,3.7-5.6,8.1-6.8,12.9c-0.4,1.7-1.1,2.1-2.7,2.1
		c-7.5-0.1-15.1,0-22.6,0c-0.9,0-1.7,0-2.7,0c0,16,0,31.8,0,47.9c8.5,0,17.1,0,25.3,0c1.8,3.5,3.2,6.9,5.1,9.8c2,2.9,4.5,5.4,7,8.3
		c-20.3,0-40.5,0-60.8,0C0,118,0,90,0,61.9z"/>
	<path class="st0" d="M1026.7,147.5c-0.4-0.1-0.7-0.3-1.1-0.4c-6.1-0.9-10.1-4.4-11.5-10.2c-1.1-4.6-1.2-9.5-1.7-14.4
		c3.4,0,6,0,8.8,0c0.2,3.3,0.3,6.6,0.7,9.8c0.3,2.5,1.4,4.7,3.6,6.1c4.3,2.7,9.8,0.9,11.1-4.1c2.5-9.9,1.9-19.8-6.6-26.7
		c-2-1.6-3.9-3.4-6-5c-7.7-6-10.7-13.9-9.8-23.4c0.4-3.9,1.3-7.9,2.7-11.7c1.3-3.6,4.3-6,8.1-6.6c3.1-0.5,6.3-0.5,9.4-0.1
		c4.7,0.7,7.7,3.9,9.2,8.3c1.6,4.6,1.6,9.3,1.5,14.2c-2.8,0-5.5,0-8.3,0c-0.2-3-0.3-6-0.7-8.9c-0.7-4.9-4.3-7.3-8.6-5.9
		c-2.4,0.8-3.9,2.8-4.1,5.1c-0.3,4.1-0.5,8.4,0,12.5c0.4,4,3.6,6.6,6.5,9.1c2.8,2.4,5.7,4.7,8.5,7.2c7.1,6.4,8.4,14.9,8,23.9
		c-0.2,3.4-0.7,6.9-1.6,10.3c-1.6,5.8-5.4,9.5-11.6,10.5c-0.3,0-0.6,0.2-0.8,0.4C1030.5,147.5,1028.6,147.5,1026.7,147.5z"/>
	<path class="st0" d="M1082.3,70c-4.2,0-8.4,0-12.9,0c0,25.3,0,50.6,0,76.1c-3.1,0-5.8,0-8.8,0c0-25.3,0-50.5,0-76.1
		c-4.4,0-8.5,0-12.9,0c0-2.9,0-5.5,0-8.6c11.5,0,23,0,34.5,0C1082.3,64.3,1082.3,67.1,1082.3,70z"/>
	<path class="st0" d="M638.4,144.4c0-27.1,0-53.9,0-80.9c0.8,0,1.6-0.1,2.3-0.1c11.6,0,23.3-0.2,34.9,0c13.9,0.3,25.5,5.2,33,17.6
		c10.6,17.7,5.8,44.2-9.9,55.9c-6.8,5-14.5,7.4-22.8,7.6c-12,0.2-24.1,0.1-36.1,0.1C639.4,144.5,639,144.4,638.4,144.4z
		 M662.1,126.7c3.8,0,7.3,0.2,10.9,0c8.2-0.6,12.9-4.5,15.1-12.4c1.8-6.4,1.8-13,0.5-19.5c-1.3-6.5-4.7-11.7-11.5-13.1
		c-4.8-0.9-9.9-0.7-14.9-1C662.1,96.2,662.1,111.3,662.1,126.7z"/>
	<path class="st0" d="M261.9,105.4c7.6,3.9,9.8,10.6,10,18.4c0.2,6.8,0.4,13.6,0.6,20.7c-0.7,0-1.5,0-2.3,0
		c-5.9,0-11.7-0.1-17.6,0.1c-2.2,0.1-3.2-0.7-3.3-2.8c-0.3-4.3-0.6-8.5-0.8-12.8c-0.1-2.5,0-5.1-0.3-7.6c-0.4-3.9-2.3-6.2-6.2-6.7
		c-4.8-0.5-9.6-0.5-14.6-0.8c0,10.3,0,20.2,0,30.4c-7.9,0-15.5,0-23.2,0c0-27,0-53.9,0-80.9c0.9,0,1.6-0.1,2.4-0.1
		c13.5,0,27.1,0,40.6,0c6.1,0,11.9,1.4,17.2,4.6c13.4,8.2,12.5,30.8-1.4,36.9C262.6,104.9,262.3,105.2,261.9,105.4z M227.2,97.1
		c5.5,0,10.7,0.3,15.8-0.1c4.2-0.3,6.7-3.3,6.9-7.4c0.3-4.7-1.7-7.8-6.1-8.8c-2-0.5-4.2-0.4-6.3-0.5c-3.4-0.1-6.9,0-10.4,0
		C227.2,86.2,227.2,91.6,227.2,97.1z"/>
	<path class="st0" d="M717.8,105c0.3-13.2,3.6-24.3,12.7-33c5.9-5.6,13-8.6,20.9-9.8c8.9-1.4,17.6-0.8,25.8,2.8
		c13.8,6.1,20.6,17.5,22.5,32c1.1,8,0.4,15.8-2.3,23.4c-5.2,14.5-15.6,22.7-30.7,25.1c-8.2,1.3-16.5,1-24.4-2
		c-14-5.3-21.3-16-23.9-30.4C718.2,110.1,718,107,717.8,105z M742.6,102.6c0,7.8,1.1,13.3,3.4,17.7c2.9,5.6,7.6,8.3,13.9,8.1
		c6.2-0.2,10.7-3.2,12.9-8.9c4.1-10.4,4-21,0.1-31.5c-2.4-6.2-7.4-9.1-14-9c-6.5,0-11.1,3.2-13.7,9.2
		C743.1,93.1,742.7,98.2,742.6,102.6z"/>
	<path class="st0" d="M311.1,144.3c0-27,0-53.8,0-80.8c20.7,0,41.4,0,62.3,0c0,5.8,0,11.7,0,17.8c-13,0-26,0-39.2,0
		c0,4.2,0,8.1,0,12.3c12.4,0,24.8,0,37.4,0c0,6.1,0,12,0,18.2c-12.4,0-24.8,0-37.3,0c0,4.9,0,9.5,0,14.5c13.8,0,27.7,0,42,0
		c-0.9,6.2-1.8,12.1-2.6,18C352.7,144.3,332,144.3,311.1,144.3z"/>
	<path class="st0" d="M133.8,63.4c20.8,0,41.5,0,62.3,0c0,5.9,0,11.7,0,17.9c-13,0-26.1,0-39.3,0c0,4.3,0,8.2,0,12.4
		c12.5,0,24.9,0,37.4,0c0,6.1,0,12,0,18.2c-12.5,0-24.9,0-37.4,0c0,4.9,0,9.5,0,14.5c13.9,0,27.8,0,42,0c-0.9,6.2-1.8,12.1-2.6,18
		c-20.8,0-41.6,0-62.5,0C133.8,117.4,133.8,90.5,133.8,63.4z"/>
	<path class="st0" d="M547.8,144.5c1.8-5.7,3.5-10.9,5.2-16.2c6.8-21,13.7-41.9,20.4-62.9c0.5-1.5,1-2.2,2.7-2.2
		c8.9,0.1,17.9,0.1,26.8,0c1.3,0,2.1,0.2,2.6,1.7c8.9,26.2,17.9,52.4,26.8,78.5c0.1,0.2,0,0.5,0,1c-2.4,0-4.7,0-7,0
		c-5.1,0-10.3-0.1-15.4,0c-1.9,0.1-2.6-0.6-3.1-2.3c-1.1-3.9-2.5-7.7-3.6-11.5c-0.4-1.3-1-1.7-2.3-1.7c-7.8,0.1-15.5,0.1-23.3,0
		c-1.5,0-2.1,0.6-2.4,1.9c-1.1,4-2.3,8.1-3.6,12c-0.2,0.6-1,1.5-1.6,1.5C562.8,144.5,555.5,144.5,547.8,144.5z M588.9,79.6
		c-2.9,10.7-5.6,20.8-8.4,31.1c5.9,0,11.5,0,17.3,0C594.9,100.4,592,90.3,588.9,79.6z"/>
	<path class="st0" d="M872.1,86.1c-0.8,0.1-1.3,0.2-1.9,0.2c-6.4,0-12.8,0-19.2,0c-1.3,0-2-0.3-2.3-1.7c-0.9-3.5-3.2-5.7-6.7-6.2
		c-2.7-0.4-5.5-0.4-8.2-0.1c-3.2,0.5-4.9,2.6-5.2,5.3c-0.2,2.5,1,4.6,4.1,5.7c3.6,1.3,7.4,2.2,11.1,3.4c5.9,1.9,11.8,3.5,17.5,6
		c9.7,4.3,14.1,11.9,13.5,22.6c-0.6,9.9-5.6,16.6-14.4,20.7c-9,4.1-18.5,4.5-28.2,3.7c-5.4-0.5-10.6-1.8-15.4-4.3
		c-7.9-4.2-12.5-10.7-14.2-19.4c-0.1-0.4-0.1-0.8-0.1-1.2c0-0.2,0-0.5,0.1-0.7c0.2-0.1,0.5-0.2,0.7-0.2c7.4,0,14.7,0,22,0
		c0.2,0.1,0.4,0.2,0.4,0.3c3.2,8.5,13.4,12.3,21.5,8.1c4.5-2.3,4.9-8.8,0.4-11.3c-3.3-1.8-7-2.7-10.6-3.9
		c-5.8-1.8-11.8-3.1-17.4-5.4c-10.8-4.5-14.9-11.1-14.6-22.2c0.2-9.4,6.1-17.6,15.8-21.1c11.9-4.3,24-4.2,35.7,0.5
		C865.6,68.7,870.8,75.8,872.1,86.1z"/>
	<path class="st0" d="M126.3,86.3c-7.4,0-14.6,0-21.8-0.1c-0.5,0-1.1-0.7-1.3-1.3c-2.5-6.6-12-9.6-17.9-5.5
		c-3.4,2.4-3.4,7.6,0.5,9.4c3.8,1.8,8.1,2.7,12.1,4c5.8,1.9,11.9,3.5,17.5,6c9.1,4,13.9,11.1,13.6,21.4
		c-0.3,10.2-4.8,17.8-14.2,21.7c-14.7,6.1-29.7,6.3-44.2-0.7c-8.5-4.1-12.9-11.6-14.2-21.1c7.8,0,15.5,0,23.3,0
		c1.2,4.7,4.1,8.2,9.1,9c3.4,0.5,6.9,0.5,10.3,0c3.6-0.5,5.1-2.5,5.5-5.6c0.3-3.3-0.7-5.7-4.1-7c-4.4-1.7-9.1-2.7-13.6-4.2
		c-4.8-1.5-9.7-2.8-14.4-4.9c-9.1-4-14.1-10.9-13.7-21.2c0.4-9.8,5.1-17,14-20.8c12.8-5.5,26-5.3,38.8,0.2
		C120.5,69.2,126,77.5,126.3,86.3z"/>
	<path class="st0" d="M492.5,63.4c21.4,0,42.6,0,64.2,0c-0.7,3.2-1.6,6.2-1.8,9.3c-0.5,5.4-3.2,9.2-6.9,12.9
		c-13,13.2-25.8,26.6-38.6,39.9c-0.3,0.3-0.6,0.7-1.2,1.3c13.5,0,26.7,0,40,0c-0.1,0.7-0.1,1.1-0.2,1.6c-1.6,4.7-3.2,9.4-4.8,14.1
		c-0.4,1.1-0.8,1.9-2.3,1.9c-21.3-0.1-42.6,0-63.9,0c-0.3,0-0.6-0.1-1.2-0.2c1-4.8,1.7-9.7,3.1-14.4c0.5-1.6,2.4-2.9,3.7-4.2
		c14.1-14.6,28.3-29.3,42.4-43.9c0.2-0.2,0.4-0.5,0.9-1.1c-12.4,0-24.5,0-36.8,0C490.2,74.7,491.4,69.2,492.5,63.4z"/>
	<path class="st0" d="M930.4,61.9c0,28,0,55.8,0,83.8c-19.5,0-38.9,0-58.5,0c0.4-0.5,0.6-0.9,0.9-1.2c4.4-4,7.5-9,9.1-14.7
		c0.5-1.7,1.2-2.1,2.8-2.1c6.6,0.1,13.1,0,19.7,0c0.9,0,1.7,0,2.7,0c0-16,0-31.8,0-47.9c-9.1,0-18.1,0-27.3,0
		c-1.9-7.1-5.4-13-11.2-18C889.6,61.9,909.8,61.9,930.4,61.9z"/>
	<path class="st0" d="M441,144.4c-20,0-39.8,0-59.6,0c0-27,0-53.9,0-80.9c7.8,0,15.5,0,23.5,0c0,20.8,0,41.7,0,62.9
		c13,0,25.7,0,38.7,0C442.7,132.5,441.9,138.4,441,144.4z"/>
	<path class="st0" d="M280.1,63.4c7.9,0,15.6,0,23.5,0c0,27,0,53.8,0,80.9c-7.8,0-15.5,0-23.5,0C280.1,117.4,280.1,90.5,280.1,63.4z
		"/>
	<path class="st0" d="M447.7,144.4c0-27,0-53.9,0-80.9c7.8,0,15.4,0,23.3,0c0,0.9,0.1,1.7,0.1,2.5c0,25.3,0,50.5,0,75.8
		c0,2.1-0.5,2.9-2.8,2.8c-6.1-0.2-12.2-0.1-18.3-0.1C449.4,144.5,448.6,144.4,447.7,144.4z"/>
	<path class="st0" d="M980.8,61.6c9.2,0,18.2,0,27.5,0c0,2.7,0,5.3,0,8.2c-6.3,0-12.5,0-18.9,0c0,9.1,0,17.9,0,27.1
		c6,0,11.9,0,17.9,0c0,2.9,0,5.5,0,8.2c-5.9,0-11.8,0-17.9,0c0,11,0,21.8,0,32.8c6.8,0,13.5,0,20.3,0c-0.3,2.5-0.5,4.8-1,7
		c-0.1,0.5-0.9,1.2-1.4,1.2c-8.9,0.1-17.7,0.1-26.7,0.1C980.8,117.9,980.8,89.8,980.8,61.6z"/>
	<path class="st0" d="M975.1,69.8c-6.5,0-12.7,0-19.1,0c0,9.2,0,18.2,0,27.6c6,0,12,0,18.1,0c0,2.9,0,5.4,0,8.3c-6.1,0-12,0-18.2,0
		c0,13.6,0,26.8,0,40.3c-3,0-5.7,0-8.6,0c0-28.1,0-56.2,0-84.4c9.2,0,18.5,0,27.8,0C975.1,64.3,975.1,66.9,975.1,69.8z"/>
</g>
</svg>
