<?xml version="1.0" encoding="utf-8"?>
<!-- Generator: Adobe Illustrator 22.0.1, SVG Export Plug-In . SVG Version: 6.00 Build 0)  -->
<svg version="1.1" id="Capa_1" xmlns="http://www.w3.org/2000/svg" xmlns:xlink="http://www.w3.org/1999/xlink" x="0px" y="0px"
	 viewBox="0 0 215.1 202.9" style="enable-background:new 0 0 215.1 202.9;" xml:space="preserve">
<style type="text/css">
	.st0{fill:#DCE1D6;}
</style>
<g transform="matrix(7.94795,0,0,4.86465,2127.3,554.312)">
	<path class="st0" d="M-266.2-76.7c0,1.5,0.7,2.1,1.6,2.1c0.5,0,1.4-0.3,1.4-1.4c0-1.2-1.1-1.5-2.1-1.9c-1.1-0.5-2.1-1.1-2.1-3.3
		c0-2.4,1.4-3.5,2.6-3.5c1.5,0,2.8,1,2.8,3.7h-1.5c0-1.4-0.7-1.7-1.4-1.7c-0.5,0-1.1,0.3-1.1,1.3c0,0.9,0.3,1,2.1,1.8
		c0.5,0.2,2.1,0.7,2.1,3.4c0,2.1-1,3.7-2.9,3.7c-1.6,0-3-1.3-3-4.1H-266.2z M-259.7-76.7c0,1.5,0.7,2.1,1.6,2.1
		c0.5,0,1.4-0.3,1.4-1.4c0-1.2-1.1-1.5-2.1-1.9c-1.1-0.5-2.1-1.1-2.1-3.3c0-2.4,1.4-3.5,2.6-3.5c1.5,0,2.8,1,2.8,3.7h-1.5
		c0-1.4-0.7-1.7-1.4-1.7c-0.5,0-1.1,0.3-1.1,1.3c0,0.9,0.3,1,2.1,1.8c0.5,0.2,2.1,0.7,2.1,3.4c0,2.1-1,3.7-2.9,3.7
		c-1.6,0-3-1.3-3-4.1H-259.7z M-254.4-84.4h1.6v11.5h-1.6V-84.4z M-251.5-84.4h5v2.1h-3.4v2.7h3v2h-3v4.8h-1.6V-84.4z M-245.6-84.4
		h5v2.1h-3.4v2.7h3v2h-3v4.8h-1.6V-84.4z M-254.1-113.6c5.2,0,9.4,6.9,9.4,15.3c0,0.6,0,1.1,0,1.6c0,0.3-0.1,0.6-0.3,0.7l-3.2,2.4v4
		c0,0.5-0.2,0.8-0.5,0.8h-10.6c-0.3,0-0.5-0.4-0.5-0.8v-4l-3.2-2.4c-0.1,0-0.1-0.1-0.2-0.2c-0.1-0.2-0.1-0.4-0.1-0.6
		c0-0.6,0-1.1,0-1.6C-263.5-106.7-259.3-113.6-254.1-113.6z M-258.9-92.8v2.4h3.3L-258.9-92.8z M-245.8-97.3c0-0.3,0-0.7,0-1
		c0-7.5-3.7-13.6-8.3-13.6s-8.3,6.1-8.3,13.6c0,0.4,0,0.7,0,1l3.1,2.3l5.2,3.9L-245.8-97.3z M-249.4-90.4v-2.4l-3.3,2.4H-249.4z"/>
</g>
</svg>
