<?xml version="1.0" encoding="utf-8"?>
<!-- Generator: Adobe Illustrator 22.0.1, SVG Export Plug-In . SVG Version: 6.00 Build 0)  -->
<svg version="1.1" id="Capa_1" xmlns="http://www.w3.org/2000/svg" xmlns:xlink="http://www.w3.org/1999/xlink" x="0px" y="0px"
	 viewBox="0 0 269.4 202.9" style="enable-background:new 0 0 269.4 202.9;" xml:space="preserve">
<style type="text/css">
	.st0{fill:#DCE1D6;}
</style>
<g transform="matrix(0.511989,0,0,0.31337,-335.813,513.368)">
	<path class="st0" d="M919.1-1634.1c103.2,0,186.4,75.1,186.4,166.2c0,91-82.8,166.1-186.4,166.1c-104.2,0-186.4-75.1-186.4-166.1
		C732.6-1558.9,815.7-1634.1,919.1-1634.1z M918.9-1310.4c94.5,0,176.4-71.9,176.4-157.6c0-85.6-81.5-159.1-176.4-159.1
		c-93.2,0-176.5,73.5-176.5,159.1C742.4-1382.4,823.8-1310.4,918.9-1310.4z M1059.6-1488.6c0,0,2.7-1.2,2.1,1.6
		c-0.6,2.6-1.5,4.4-2.5,6c-1.6,2.3-3.5,3.9-5.1,5.9c-10.2,10.1-25.4,16.9-36.9,22.9c2.2,1.1,8.2,3.1,9.6,3.8l10.9,6.9
		c2.3,1.5,5,3.1,3.3,7c-19.3,4.2-27.5-4.7-41-16.6c-1.7-1.3-12.4-3.8-15-4.2c1.2,2.5,21.2,24.4,28.8,34.1c0.7,1.4,0.5,3.5-0.5,3.3
		c-26.8-5.3-27.8-30.5-38.8-38.6c-1.5-1.1-4.1-1.6-6-2.1c-6.2-1.2-6.7-1.1-9.7-1.8c-0.4,4.1,3.3,8.2,4.8,10.5
		c8.2,10.7,14.3,16.1,21.1,27.8c2.9,7.6-3.4,5.2-3.4,5.2s-8.2,1.8-29.3-44.3l-14.1-3.3c-1.6,0.6-0.5,4.1,0.1,5
		c8.7,13.8,21.1,22.1,25.7,41.6l0.2,1.6l-0.2,1l-0.8,0.2c-7.4-2.4-11.6-10.8-16.5-18.1c-5.9-9.2-11.5-19.2-15.6-32.1
		c-2.3-2.4-6.5-3.6-9.6-4.6l-1.5,0.3l1.3,3.8c7.2,14.9,18.4,25.1,22,44.8c1,3.7-0.5,3.4-0.8,3.1c-12.4-13-21.8-30.5-28.7-53.5
		c-1.4-1.2-3.2-1.4-4.9-1.2c1.7,8.1,12.6,19.1,15.2,66.7l-0.1,0.2c0.1,3.6-2,1.6-2,1.6c-6.4-20.6-17.1-41.2-17.6-68.3
		c-0.8-2.3-5.1-0.8-8.3-1.5l-9.8-0.2c-1.5,1.1-0.7,4.3-0.1,5.7c10.5,18.8,17.1,22.5,27.4,63.4c0.6,1.7-0.2,4.2-1.3,3.7
		c-14.8-16.5-25-45.4-34.3-71.6c-7.7-3-16.3-2-22.8,1.5c0.2,4.5,4.6,8.2,6.4,10.4c10.5,8.3,20.7,18.3,27.4,34.3l0.5,1.9l-1.3,0.7
		c-12.7-3.4-20.7-12.6-29.9-26.3c-4.7-6.3-6.9-13.1-10.3-18.3c-8.3,1.7-13.6,7.7-20.8,13.9c-10.5,10.3-19.9,25.8-28,42.7
		c-1.9,2.1-3.9,1.7-6.7,1c-3-1.6-5.4-7.1-5.7-12.6c-0.1-18.8,6.5-27.4,10.6-31.1c7.8-10.4,51.9-27.5,53.9-28.6
		c-5.7-11.3-12.4-22.6-17.3-35.1c-4.2-12.1-10.2-22.2-11.9-38.1c-0.7-2.7,0.5-6.2,2.5-4.4c12.2,11.9,21.7,28.5,28.4,51.2
		c1.8,7.9,3.5,15.9,3.8,24.7c2.6,1.7,3.3-4,4.5-7c5.2-32,18.6-56.8,34.1-67.7l1.9,1c0.1,4.2-1.2,7.4-2.2,10.8
		c-3.1,10.3-10.5,24.9-13.9,34.9l1.1-0.1l21.4-27.9c1.5-1.8,3.9-4.7,6.4-2.2c0.2,11.3-7.6,20.1-8.8,23.6c-7,13.2-15.3,22.2-23,33.1
		c6.1,3,10.5,2.1,16.8,2.6c1.4-4.8,2.2-11.1,3.8-16.1c5.1-17.1,11.4-35.3,20.9-41.8c2.5,0.6,1.5,6.5,1.1,9.3
		c-4,18-11.9,35.7-18.8,49.4c0,1.3,7.1,0.8,7.1,0.8c6.7-20.8,16.3-35.4,26.9-46.5c14.1-15.3,7.7,3.2,7.7,3.2
		c-7.8,19.1-17.8,35.2-29,44.6l0,0.8c0.1,0,0.2,0.1,0.3,0.1c4.5,1.7,8.9,3.3,14.1,3.5c0.4-1.2,0.9-2.4,1.3-3.5
		c7.4-18.5,17-30.2,28.8-39.6c1.7-1.1,5.1-5.5,5.8,0c-6.6,16.5-15.3,27.5-23.9,38.6c-1.6,2.1-3.2,4.1-4.8,6.3
		c2.6,2.7,5.4,2.3,10.7,3.3c1.2-3.2,3.3-6.8,4.7-9.6c7.4-14.9,14.9-25.6,26.1-33.7c2.4-0.7,5.1-5,7.3-2.1c1.3,2.3-1,3.8-1.4,5.3
		c-7.1,10.4-14,21.1-21.4,30.5c-3.2,4-6.5,7.8-10,11.2c2,1.8,6,1.9,9.4,2.7c5.4,1.8,6.7-10.3,10.1-14c0.1-0.1,18.3-28.3,31.2-32.8
		c2,4.7-2.1,12.6-2.6,16.7c5.8-8.3,12.8-18.7,20.3-23.1c1.9-0.3,0.5,7.1,0.5,7.1c-1.4,8.1-17,42-25.2,52.3c1.9,1.1,2.7,1,7.7,1.8
		c8,0.9,9-14.3,14.3-20.9c0.3-0.4,0.5-0.9,0.8-1.3c9.4-14.6,19.6-25.2,30.7-34.5c1.5-1.1,4.6-3.1,5.8-2.2c1.3,6.2-2.7,8.8-4.4,12.2
		c-5.7,8.5-11.9,16-17.3,24.8c-0.6,0.9-1.1,1.8-1.6,2.7l-0.7,1.7l1.5,0c3.8-1,7.4-2.6,10.9-4.4
		C1048.5-1483.7,1053.9-1486.7,1059.6-1488.6z M1012.1-1458.3c3.8-0.6,7.7-4.8,10.5-8.4c0,0-0.9-7.9-7,0.2
		C1014.2-1464.3,1012-1461.5,1012.1-1458.3z M989.5-1462.7c2.7-5.1,1.2-12.9,3.2-18.3l2.7-8c-5,4.7-13.5,16.4-24,22.5L989.5-1462.7z
		 M865.6-1485.3c2.6,0.7,8.9-11.4,8.3-14.4c-3.7-3.1-7.8,9.1-8.2,9.8C865.3-1489,864.3-1486.5,865.6-1485.3z M688.1-1125.5v11.4
		h-4.9v-12.1c0-2.6-0.1-4.3-0.3-4.9c-0.2-0.9-0.8-1.5-1.8-1.7c-0.6-0.1-2.3-0.2-4.9-0.2h-4.9v19h-5.1v-46.8h10c4,0,6.8,0.6,8.3,1.8
		c2.3,1.9,3.5,5.8,3.5,11.6c0,5.7-0.9,9.1-2.8,10.4c1.4,0.7,2.2,2.3,2.6,4.9C688-1131.1,688.1-1128.9,688.1-1125.5z M681.7-1141.1
		c1-0.7,1.5-2.7,1.5-6c0-2.4-0.3-4.1-0.9-5c-0.4-0.6-0.9-1-1.4-1.1c-0.8-0.2-2.3-0.3-4.7-0.3h-4.9v13h5.2
		C679.4-1140.5,681.2-1140.7,681.7-1141.1z M714.3-1121.5v7.4h-19.7v-46.8h19.7v7.4h-14.7v11.8h14.3v7.3h-14.3v12.8H714.3z
		 M742.1-1160.9v46.8h-5.2l-11.9-33.6v33.6h-4.7v-46.8h5.1l11.9,33.3v-33.3H742.1z M771.4-1146.2c0.1,1.8,0.2,4.7,0.2,8.8
		c0,4.1-0.1,7.1-0.2,8.8c-0.3,3.4-0.8,6.2-1.7,8.2c-1,2.4-2.3,4.1-4,5c-1.6,0.8-3.7,1.3-6.5,1.3h-10.6v-46.8h10.6
		c2.8,0,4.9,0.4,6.5,1.3c1.7,0.9,3,2.6,4,5C770.6-1152.4,771.2-1149.6,771.4-1146.2z M765.9-1126.5c0.4-2.2,0.7-5.8,0.7-10.9
		c0-5.1-0.2-8.7-0.7-11s-1.2-3.7-2.4-4.4c-0.8-0.5-2.3-0.7-4.5-0.7h-5.4v32h5.4c2.2,0,3.7-0.2,4.5-0.7
		C764.7-1122.9,765.5-1124.3,765.9-1126.5z M797.4-1121.5v7.4h-19.7v-46.8h19.7v7.4h-14.7v11.8H797v7.3h-14.3v12.8H797.4z
		 M824.6-1121.5v7.4h-21.8v-7.2l15.8-32.3h-15.8v-7.4h21.8v7.2l-15.7,32.1H824.6z M846.3-1134.8v7.2h-17.6v-7.2H846.3z
		 M868.9-1160.9h5.3l-10.8,46.8h-5l-10.7-46.8h5.4l7.9,36.3L868.9-1160.9z M900.3-1149.8c0.3,2.4,0.5,6.5,0.5,12.3
		c0,8.7-0.6,14.6-1.7,17.6c-1.6,4.3-5,6.4-10.1,6.4c-3.7,0-6.4-1-8.2-3.1c-1.6-1.8-2.6-4.7-3.1-8.6c-0.3-2.4-0.5-6.5-0.5-12.3
		c0-5.8,0.1-9.9,0.4-12.3c0.5-3.8,1.5-6.6,3.1-8.4c1.8-2.1,4.5-3.1,8.2-3.1c3.7,0,6.4,1,8.2,3.1
		C898.7-1156.4,899.8-1153.6,900.3-1149.8z M894.5-1124.2c0.8-2.1,1.2-6.5,1.2-13.3c0-6.8-0.4-11.3-1.2-13.3c-0.8-2-2.7-3-5.5-3
		c-2.9,0-4.7,1-5.5,3s-1.2,6.5-1.2,13.4s0.4,11.3,1.2,13.2c0.8,2.1,2.6,3.1,5.5,3.1C891.8-1121.1,893.7-1122.1,894.5-1124.2z
		 M928.4-1160.9v23.3c0,4.9,0,8.1-0.1,9.8c-0.3,9.5-3.9,14.2-10.8,14.2c-6.9,0-10.5-4.7-10.8-14.2c-0.1-1.7-0.1-5-0.1-9.8v-23.3h5.1
		v23.3c0,7.1,0.2,11.3,0.6,12.8c0.6,2.5,2.4,3.7,5.2,3.7c2.1,0,3.5-0.5,4.3-1.5c0.8-1,1.3-2.8,1.5-5.3c0.1-1,0.1-4.2,0.1-9.7v-23.3
		H928.4z M954.7-1138.9c1.6,2.1,2.4,5.4,2.4,10.2c0,5.2-1,9.1-2.9,11.5c-1.9,2.4-4.8,3.6-8.7,3.6c-3.8,0-6.5-0.9-8.3-2.7
		c-2.1-2.2-3.2-5.8-3.2-10.9h5.1c0,2.4,0.5,4,1.4,4.9s2.6,1.3,5.2,1.3c2.6,0,4.4-0.6,5.3-1.7c0.8-1,1.2-2.9,1.2-5.6
		c0-2.1-0.3-3.6-0.8-4.3c-0.4-0.6-1.2-1-2.4-1.1c-2.2-0.2-4.4-0.3-6.6-0.4c-2.6-0.3-4.5-1.3-5.7-2.8c-1.6-2.1-2.4-5.4-2.4-10.2
		c0-5.2,1-9,2.9-11.2c1.7-2,4.6-3,8.5-3c3.8,0,6.5,0.9,8.3,2.8c2.1,2.1,3.1,5.7,3.1,10.8h-5c0-2.9-0.7-4.7-2.2-5.5
		c-0.7-0.4-2.2-0.6-4.3-0.6c-2.7,0-4.4,0.5-5.3,1.5c-0.7,0.8-1,2.6-1,5.2c0,2,0.3,3.4,0.9,4.1c0.4,0.6,1.2,0.9,2.4,1.1
		c2.2,0.1,4.4,0.3,6.6,0.4C951.5-1141.4,953.5-1140.4,954.7-1138.9z M978.3-1160.9v46.8h-5.1v-46.8H978.3z M1006.8-1160.9v46.8h-5.2
		l-11.9-33.6v33.6H985v-46.8h5.1l11.9,33.3v-33.3H1006.8z M1036.2-1146.2c0.1,1.8,0.2,4.7,0.2,8.8c0,4.1-0.1,7.1-0.2,8.8
		c-0.3,3.4-0.8,6.2-1.7,8.2c-1,2.4-2.3,4.1-4,5c-1.6,0.8-3.7,1.3-6.5,1.3h-10.6v-46.8h10.6c2.8,0,4.9,0.4,6.5,1.3c1.7,0.9,3,2.6,4,5
		C1035.4-1152.4,1035.9-1149.6,1036.2-1146.2z M1030.7-1126.5c0.4-2.2,0.7-5.8,0.7-10.9c0-5.1-0.2-8.7-0.7-11s-1.2-3.7-2.4-4.4
		c-0.8-0.5-2.3-0.7-4.5-0.7h-5.4v32h5.4c2.2,0,3.7-0.2,4.5-0.7C1029.4-1122.9,1030.2-1124.3,1030.7-1126.5z M1064.1-1160.9v23.3
		c0,4.9,0,8.1-0.1,9.8c-0.3,9.5-3.9,14.2-10.8,14.2c-6.9,0-10.5-4.7-10.8-14.2c-0.1-1.7-0.1-5-0.1-9.8v-23.3h5.1v23.3
		c0,7.1,0.2,11.3,0.6,12.8c0.6,2.5,2.4,3.7,5.2,3.7c2.1,0,3.5-0.5,4.3-1.5c0.8-1,1.3-2.8,1.5-5.3c0.1-1,0.1-4.2,0.1-9.7v-23.3
		H1064.1z M1090.4-1138.9c1.6,2.1,2.4,5.4,2.4,10.2c0,5.2-1,9.1-2.9,11.5c-1.9,2.4-4.8,3.6-8.7,3.6c-3.8,0-6.5-0.9-8.3-2.7
		c-2.1-2.2-3.2-5.8-3.2-10.9h5.1c0,2.4,0.5,4,1.4,4.9c0.9,0.9,2.6,1.3,5.2,1.3c2.6,0,4.4-0.6,5.3-1.7c0.8-1,1.2-2.9,1.2-5.6
		c0-2.1-0.3-3.6-0.8-4.3c-0.4-0.6-1.2-1-2.4-1.1c-2.2-0.2-4.4-0.3-6.6-0.4c-2.6-0.3-4.5-1.3-5.7-2.8c-1.6-2.1-2.4-5.4-2.4-10.2
		c0-5.2,1-9,2.9-11.2c1.7-2,4.6-3,8.5-3c3.8,0,6.5,0.9,8.3,2.8c2.1,2.1,3.1,5.7,3.1,10.8h-5c0-2.9-0.7-4.7-2.2-5.5
		c-0.7-0.4-2.2-0.6-4.3-0.6c-2.7,0-4.4,0.5-5.3,1.5c-0.7,0.8-1,2.6-1,5.2c0,2,0.3,3.4,0.9,4.1c0.4,0.6,1.2,0.9,2.4,1.1
		c2.2,0.1,4.4,0.3,6.6,0.4C1087.2-1141.4,1089.1-1140.4,1090.4-1138.9z M1119.3-1160.9v7.4h-8.7v39.4h-5.1v-39.4h-8.7v-7.4H1119.3z
		 M1145.9-1125.5v11.4h-4.9v-12.1c0-2.6-0.1-4.3-0.3-4.9c-0.2-0.9-0.8-1.5-1.8-1.7c-0.6-0.1-2.3-0.2-4.9-0.2h-4.9v19h-5.1v-46.8h10
		c4,0,6.8,0.6,8.3,1.8c2.3,1.9,3.5,5.8,3.5,11.6c0,5.7-0.9,9.1-2.8,10.4c1.4,0.7,2.2,2.3,2.6,4.9
		C1145.9-1131.1,1145.9-1128.9,1145.9-1125.5z M1139.5-1141.1c1-0.7,1.5-2.7,1.5-6c0-2.4-0.3-4.1-0.9-5c-0.4-0.6-0.9-1-1.4-1.1
		c-0.8-0.2-2.3-0.3-4.7-0.3h-4.9v13h5.2C1137.3-1140.5,1139-1140.7,1139.5-1141.1z M1169.2-1160.9h5.8l-10.5,26.6v20.2h-5.1v-20.2
		l-10.5-26.6h5.9l7.2,19.2L1169.2-1160.9z M758.3-1085.9v6.1h-11.7v9.8H758v6h-11.4v16.7h-4.2v-38.5H758.3z M779.1-1053.5v6.1h-16.2
		v-38.5h16.2v6.1H767v9.8h11.8v6H767v10.6H779.1z M800.3-1067.8c1.3,1.7,2,4.5,2,8.4c0,4.3-0.8,7.5-2.4,9.5c-1.6,2-3.9,3-7.2,3
		c-3.1,0-5.4-0.7-6.9-2.2c-1.7-1.8-2.6-4.8-2.6-9h4.2c0,2,0.4,3.3,1.1,4c0.7,0.7,2.2,1.1,4.3,1.1c2.2,0,3.6-0.5,4.3-1.4
		c0.6-0.8,0.9-2.4,0.9-4.6c0-1.8-0.2-3-0.7-3.6c-0.4-0.5-1-0.8-2-0.9c-1.8-0.1-3.6-0.2-5.5-0.3c-2.1-0.3-3.7-1-4.7-2.3
		c-1.3-1.7-2-4.5-2-8.4c0-4.3,0.8-7.4,2.4-9.2c1.4-1.7,3.8-2.5,7-2.5c3.1,0,5.4,0.8,6.8,2.3c1.7,1.8,2.5,4.7,2.5,8.9h-4.1
		c0-2.3-0.6-3.9-1.8-4.6c-0.6-0.3-1.8-0.5-3.6-0.5c-2.2,0-3.7,0.4-4.3,1.2c-0.5,0.7-0.8,2.1-0.8,4.3c0,1.7,0.2,2.8,0.7,3.4
		c0.4,0.5,1,0.8,2,0.9c1.8,0.1,3.7,0.2,5.5,0.3C797.7-1069.8,799.3-1069.1,800.3-1067.8z M824.1-1085.9v6.1h-7.2v32.4h-4.2v-32.4
		h-7.2v-6.1H824.1z M832.2-1085.9v38.5H828v-38.5H832.2z M853.2-1085.9h4.4l-8.9,38.5h-4.1l-8.8-38.5h4.5l6.5,29.9L853.2-1085.9z
		 M869.5-1085.9l9,38.5H874l-2.2-9.8h-9.2l-2.2,9.8h-4.3l9.1-38.5H869.5z M863.9-1063.1h6.6l-3.3-15.2L863.9-1063.1z M898.2-1053.5
		v6.1h-15.9v-38.5h4.2v32.4H898.2z M928.3-1073.8c0.1,1.5,0.2,3.9,0.2,7.2c0,3.4,0,5.8-0.1,7.3c-0.2,2.8-0.7,5.1-1.4,6.8
		c-0.8,2-1.9,3.3-3.3,4.1c-1.3,0.7-3.1,1-5.3,1h-8.8v-38.5h8.7c2.3,0,4.1,0.4,5.3,1.1c1.4,0.8,2.5,2.2,3.3,4.1
		C927.6-1078.9,928.1-1076.6,928.3-1073.8z M923.7-1057.6c0.4-1.8,0.6-4.8,0.6-9s-0.2-7.2-0.6-9s-1-3-2-3.6
		c-0.7-0.4-1.9-0.6-3.7-0.6h-4.4v26.3h4.5c1.8,0,3.1-0.2,3.7-0.6C922.7-1054.6,923.4-1055.8,923.7-1057.6z M949.6-1053.5v6.1h-16.2
		v-38.5h16.2v6.1h-12.1v9.8h11.8v6h-11.8v10.6H949.6z M978.9-1084c1.6,1.8,2.4,4.8,2.4,8.9h-4.1c0-2-0.3-3.3-1-4c-0.7-0.7-2-1-4-1
		c-2.3,0-3.8,0.8-4.5,2.5s-1,5.3-1,11c0,5.6,0.3,9.2,0.9,10.9c0.7,1.7,2.1,2.6,4.5,2.6c2,0,3.4-0.3,4-1c0.7-0.7,1-2,1-4h4.1
		c0,4.1-0.8,7.1-2.4,8.9c-1.4,1.5-3.5,2.3-6.4,2.3c-3.1,0-5.4-0.9-7-2.6c-1.3-1.5-2.2-3.9-2.6-7c-0.3-2-0.4-5.3-0.4-10
		c0-4.7,0.1-8,0.4-10c0.4-3.2,1.3-5.5,2.6-7c1.5-1.8,3.9-2.6,7-2.6C975.3-1086.3,977.5-1085.5,978.9-1084z M997.3-1085.9l9,38.5
		h-4.6l-2.2-9.8h-9.2l-2.2,9.8h-4.3l9.1-38.5H997.3z M991.7-1063.1h6.6l-3.3-15.2L991.7-1063.1z M1028.1-1085.9v38.5h-4.3l-9.8-27.6
		v27.6h-3.9v-38.5h4.2l9.8,27.4v-27.4H1028.1z M1051.5-1085.9v38.5h-4.3l-9.8-27.6v27.6h-3.9v-38.5h4.2l9.8,27.4v-27.4H1051.5z
		 M1073.2-1053.5v6.1h-16.2v-38.5h16.2v6.1H1061v9.8h11.8v6H1061v10.6H1073.2z M1094.4-1067.8c1.3,1.7,2,4.5,2,8.4
		c0,4.3-0.8,7.5-2.4,9.5c-1.6,2-3.9,3-7.2,3c-3.1,0-5.4-0.7-6.9-2.2c-1.7-1.8-2.6-4.8-2.6-9h4.2c0,2,0.4,3.3,1.1,4
		c0.7,0.7,2.2,1.1,4.3,1.1c2.2,0,3.6-0.5,4.3-1.4c0.6-0.8,0.9-2.4,0.9-4.6c0-1.8-0.2-3-0.7-3.6c-0.4-0.5-1-0.8-2-0.9
		c-1.8-0.1-3.6-0.2-5.5-0.3c-2.1-0.3-3.7-1-4.7-2.3c-1.3-1.7-2-4.5-2-8.4c0-4.3,0.8-7.4,2.4-9.2c1.4-1.7,3.8-2.5,7-2.5
		c3.1,0,5.4,0.8,6.8,2.3c1.7,1.8,2.5,4.7,2.5,8.9h-4.1c0-2.3-0.6-3.9-1.8-4.6c-0.6-0.3-1.8-0.5-3.6-0.5c-2.2,0-3.7,0.4-4.3,1.2
		c-0.5,0.7-0.8,2.1-0.8,4.3c0,1.7,0.2,2.8,0.7,3.4c0.4,0.5,1,0.8,1.9,0.9c1.8,0.1,3.7,0.2,5.5,0.3
		C1091.8-1069.8,1093.3-1069.1,1094.4-1067.8z M757.2-1023.9c1.1,1.4,1.6,3.7,1.3,7h-3.2c0.1-1.5,0-2.6-0.5-3.1
		c-0.5-0.5-1.5-0.8-3.1-0.8c-1.8,0-3.1,0.7-3.7,2s-1.1,4.2-1.5,8.6c-0.4,4.4-0.4,7.2,0,8.5c0.4,1.4,1.5,2,3.3,2
		c1.6,0,2.7-0.3,3.2-0.8c0.6-0.5,0.9-1.6,1.1-3.1h3.2c-0.3,3.2-1.1,5.5-2.5,7c-1.2,1.2-2.9,1.8-5.2,1.8c-2.4,0-4.2-0.7-5.3-2.1
		c-0.9-1.2-1.4-3-1.5-5.5c-0.1-1.6,0-4.2,0.4-7.9c0.3-3.6,0.6-6.3,1-7.8c0.5-2.5,1.4-4.3,2.5-5.5c1.3-1.4,3.2-2.1,5.6-2.1
		C754.6-1025.7,756.3-1025.1,757.2-1023.9z M775.1-1002.6l-0.6,7.4h-3.2l0.7-7.8c0.1-1.7,0.2-2.8,0.1-3.2c-0.1-0.6-0.4-1-1.1-1.1
		c-0.4-0.1-1.5-0.1-3.2-0.1h-3.1l-1.1,12.3h-3.3l2.6-30.2h6.5c2.6,0,4.4,0.4,5.3,1.2c1.4,1.2,1.9,3.7,1.6,7.5
		c-0.3,3.6-1.1,5.9-2.4,6.7c0.8,0.4,1.3,1.5,1.4,3.2C775.4-1006.2,775.3-1004.8,775.1-1002.6z M771.8-1012.6
		c0.7-0.5,1.1-1.7,1.3-3.9c0.1-1.6,0-2.6-0.3-3.2c-0.2-0.4-0.5-0.6-0.8-0.7c-0.5-0.1-1.5-0.2-3-0.2h-3.2l-0.7,8.4h3.4
		C770.3-1012.3,771.5-1012.4,771.8-1012.6z M791.8-1000l-0.4,4.8h-12.7l2.6-30.2H794l-0.4,4.7h-9.5l-0.7,7.6h9.2l-0.4,4.7H783
		l-0.7,8.3H791.8z M807.3-1025.4l4.5,30.2h-3.6l-1.1-7.7H800l-2.3,7.7h-3.4l9.7-30.2H807.3z M801.4-1007.5h5.2l-1.5-11.9
		L801.4-1007.5z M828.2-1025.4l-0.4,4.7h-5.6l-2.2,25.4h-3.3l2.2-25.4h-5.6l0.4-4.7H828.2z M834.6-1025.4l-2.6,30.2h-3.3l2.6-30.2
		H834.6z M851.2-1025.4h3.4l-9.5,30.2h-3.2l-4.3-30.2h3.5l3.1,23.4L851.2-1025.4z M868.1-1000l-0.4,4.8H855l2.6-30.2h12.7l-0.4,4.7
		h-9.5l-0.7,7.6h9.2l-0.4,4.7h-9.2l-0.7,8.3H868.1z M892.4-1024.2c1.4,1.3,1.9,3.9,1.6,7.8c-0.3,3.9-1.3,6.5-2.9,7.8
		c-1.1,0.9-2.9,1.3-5.5,1.3h-3.2l-1,12h-3.3l2.6-30.2h6.5C889.7-1025.4,891.5-1025,892.4-1024.2z M889.2-1012.4
		c0.8-0.5,1.3-1.8,1.5-3.8c0.2-2.1-0.1-3.4-0.8-4c-0.4-0.3-1.4-0.4-3.2-0.4h-3.2l-0.7,8.6h3.2C887.7-1012,888.8-1012.2,889.2-1012.4
		z M910.2-1002.6l-0.6,7.4h-3.2l0.7-7.8c0.1-1.7,0.2-2.8,0.1-3.2c-0.1-0.6-0.4-1-1.1-1.1c-0.4-0.1-1.5-0.1-3.2-0.1h-3.1l-1.1,12.3
		h-3.3l2.6-30.2h6.5c2.6,0,4.4,0.4,5.3,1.2c1.4,1.2,1.9,3.7,1.6,7.5c-0.3,3.6-1.1,5.9-2.4,6.7c0.8,0.4,1.3,1.5,1.4,3.2
		C910.5-1006.2,910.4-1004.8,910.2-1002.6z M907-1012.6c0.7-0.5,1.1-1.7,1.3-3.9c0.1-1.6,0-2.6-0.3-3.2c-0.2-0.4-0.5-0.6-0.8-0.7
		c-0.5-0.1-1.5-0.2-3-0.2H901l-0.7,8.4h3.4C905.5-1012.3,906.6-1012.4,907-1012.6z M930.2-1018.3c0.1,1.6-0.1,4.2-0.4,7.9
		c-0.5,5.6-1.2,9.4-2,11.3c-1.3,2.8-3.6,4.2-6.9,4.2c-2.4,0-4.1-0.7-5.1-2c-0.9-1.2-1.4-3-1.5-5.5c-0.1-1.6,0-4.2,0.4-7.9
		c0.3-3.7,0.6-6.4,1-7.9c0.5-2.5,1.3-4.3,2.5-5.4c1.3-1.4,3.1-2,5.5-2c2.4,0,4.1,0.7,5.1,2C929.6-1022.5,930.1-1020.7,930.2-1018.3z
		 M925.1-1001.7c0.6-1.3,1.1-4.2,1.5-8.6c0.4-4.4,0.4-7.3,0-8.6c-0.4-1.3-1.5-2-3.4-2c-1.9,0-3.1,0.7-3.7,2
		c-0.6,1.3-1.1,4.2-1.5,8.6c-0.4,4.4-0.4,7.3,0,8.5c0.4,1.4,1.5,2,3.4,2C923.2-999.7,924.5-1000.4,925.1-1001.7z M948.7-1013
		l-1.5,17.8h-2.6l0.2-2.3c-1.3,1.7-3.1,2.6-5.5,2.6c-3.2,0-5.1-1.5-5.8-4.6c-0.4-1.9-0.4-5.5,0-10.8c0.3-3.6,0.6-6.3,1-7.8
		c0.5-2.5,1.4-4.3,2.5-5.5c1.3-1.4,3.2-2.1,5.6-2.1c2.2,0,3.9,0.6,4.9,1.8c1.2,1.4,1.7,3.7,1.5,7h-3.2c0.1-1.5-0.1-2.5-0.6-3.1
		c-0.5-0.6-1.6-0.8-3.2-0.8c-1.8,0-3.1,0.7-3.7,2c-0.6,1.3-1.1,4.2-1.5,8.6c-0.4,4.4-0.4,7.2,0,8.5c0.4,1.3,1.5,2,3.2,2
		c2,0,3.3-0.7,4-2.2c0.5-1,0.9-3.2,1.2-6.5h-4.5l0.4-4.6H948.7z M966.1-1002.6l-0.6,7.4h-3.2l0.7-7.8c0.1-1.7,0.2-2.8,0.1-3.2
		c-0.1-0.6-0.4-1-1.1-1.1c-0.4-0.1-1.5-0.1-3.2-0.1h-3.1l-1.1,12.3h-3.3l2.6-30.2h6.5c2.6,0,4.4,0.4,5.3,1.2
		c1.4,1.2,1.9,3.7,1.6,7.5c-0.3,3.6-1.1,5.9-2.4,6.7c0.8,0.4,1.3,1.5,1.4,3.2C966.4-1006.2,966.3-1004.8,966.1-1002.6z
		 M962.8-1012.6c0.7-0.5,1.1-1.7,1.3-3.9c0.1-1.6,0-2.6-0.3-3.2c-0.2-0.4-0.5-0.6-0.8-0.7c-0.5-0.1-1.5-0.2-3-0.2h-3.2l-0.7,8.4h3.4
		C961.4-1012.3,962.5-1012.4,962.8-1012.6z M981.5-1025.4l4.5,30.2h-3.6l-1.1-7.7h-7.2l-2.3,7.7h-3.4l9.7-30.2H981.5z M975.6-1007.5
		h5.2l-1.5-11.9L975.6-1007.5z M1010.2-1025.4l-2.6,30.2h-3l2-23.4l-6.8,23.4h-3.1l-2.7-23.4l-2,23.4h-3l2.6-30.2h4.3l2.9,24l7-24
		H1010.2z M1026.1-1011.2c0.9,1.3,1.3,3.5,1,6.6c-0.3,3.4-1.2,5.8-2.5,7.4c-1.4,1.6-3.3,2.4-5.8,2.4c-2.4,0-4.2-0.6-5.2-1.7
		c-1.2-1.4-1.7-3.7-1.4-7h3.3c-0.1,1.5,0.1,2.6,0.6,3.1c0.5,0.6,1.6,0.8,3.3,0.8c1.7,0,2.9-0.4,3.5-1.1c0.6-0.7,0.9-1.9,1.1-3.6
		c0.1-1.4,0-2.3-0.3-2.8c-0.2-0.4-0.7-0.6-1.5-0.7c-1.4-0.1-2.8-0.2-4.3-0.2c-1.6-0.2-2.8-0.8-3.5-1.8c-0.9-1.3-1.3-3.5-1-6.6
		c0.3-3.4,1.1-5.8,2.5-7.2c1.2-1.3,3.1-1.9,5.7-1.9c2.4,0,4.2,0.6,5.2,1.8c1.2,1.4,1.7,3.7,1.4,7h-3.2c0.2-1.8-0.2-3-1.1-3.6
		c-0.5-0.3-1.4-0.4-2.8-0.4c-1.7,0-2.9,0.3-3.5,0.9c-0.5,0.5-0.8,1.7-0.9,3.3c-0.1,1.3,0,2.2,0.3,2.7c0.2,0.4,0.7,0.6,1.5,0.7
		c1.4,0.1,2.9,0.2,4.3,0.3C1024.2-1012.8,1025.4-1012.2,1026.1-1011.2z M1049.2-1023.7c0.9,1.4,1.2,3.8,0.9,7.1
		c-0.3,3.3-1.1,5.7-2.4,7.1c-0.7,0.8-2.3,1.7-4.8,2.8c-1.4,0.6-2.2,1.2-2.6,1.7c-0.4,0.5-0.6,1.6-0.8,3.2l-0.2,2.1h9.2l-0.4,4.6
		h-12.4l0.6-7.5c0.2-2.4,0.7-4.2,1.6-5.5c0.7-1,1.6-1.8,2.9-2.4c1.2-0.5,2.3-1.1,3.5-1.6c0.8-0.5,1.4-1,1.8-1.5
		c0.3-0.6,0.6-1.5,0.7-2.8c0.1-1.7,0.1-2.9-0.3-3.5c-0.3-0.6-1.1-0.9-2.4-0.9c-1.1,0-2,0.2-2.4,0.6c-0.5,0.4-0.8,1.2-0.9,2.4h-3.1
		c0.4-5.1,2.7-7.6,6.7-7.6C1046.9-1025.7,1048.4-1025,1049.2-1023.7z M1066.2-1017.8c0,1.3-0.2,3.8-0.5,7.5
		c-0.3,3.8-0.6,6.3-0.9,7.7c-0.5,2.5-1.1,4.4-2.1,5.6c-1.1,1.4-2.7,2.2-4.8,2.2c-2.1,0-3.6-0.8-4.4-2.3c-0.7-1.2-1.1-3.1-1.1-5.7
		c0-1.2,0.2-3.7,0.5-7.4c0.3-3.7,0.6-6.2,0.8-7.5c0.4-2.5,1.1-4.4,2.1-5.7c1.1-1.5,2.7-2.3,4.8-2.3c2.1,0,3.6,0.8,4.4,2.3
		C1065.8-1022.2,1066.2-1020.3,1066.2-1017.8z M1061.6-1002.1c0.3-1,0.6-3.8,1-8.2c0.4-4.4,0.5-7.2,0.4-8.2
		c-0.2-1.7-1.1-2.6-2.7-2.6c-1.6,0-2.7,0.9-3.2,2.6c-0.3,1.1-0.6,3.8-1,8.2c-0.4,4.4-0.5,7.2-0.4,8.2c0.2,1.7,1.1,2.6,2.7,2.6
		C1060-999.5,1061.1-1000.4,1061.6-1002.1z M1081-1023.7c0.9,1.4,1.2,3.8,0.9,7.1c-0.3,3.3-1.1,5.7-2.4,7.1
		c-0.7,0.8-2.3,1.7-4.8,2.8c-1.4,0.6-2.2,1.2-2.6,1.7c-0.4,0.5-0.6,1.6-0.8,3.2l-0.2,2.1h9.2l-0.4,4.6h-12.4l0.6-7.5
		c0.2-2.4,0.7-4.2,1.6-5.5c0.7-1,1.6-1.8,2.9-2.4c1.2-0.5,2.3-1.1,3.5-1.6c0.8-0.5,1.4-1,1.8-1.5c0.3-0.6,0.6-1.5,0.7-2.8
		c0.1-1.7,0.1-2.9-0.3-3.5c-0.3-0.6-1.1-0.9-2.4-0.9c-1.1,0-2,0.2-2.4,0.6c-0.5,0.4-0.8,1.2-0.9,2.4h-3.1c0.4-5.1,2.7-7.6,6.7-7.6
		C1078.7-1025.7,1080.2-1025,1081-1023.7z M1096.9-1008.4c0.1,0.9,0.1,2.2,0,3.9c-0.3,3.7-1.1,6.3-2.3,7.7c-1.1,1.3-2.7,1.9-4.9,1.9
		c-4.2,0-6.1-2.5-5.6-7.6h3.1c-0.1,1.1,0.1,1.9,0.5,2.3c0.4,0.4,1.2,0.7,2.4,0.7c1.2,0,2.1-0.3,2.6-0.9c0.5-0.6,0.9-1.8,1-3.6
		c0.2-2.1,0.1-3.5-0.4-4c-0.3-0.3-1.1-0.5-2.5-0.5h-2.6l0.4-4.6h2.6c1.2,0,2.1-0.2,2.5-0.7c0.5-0.5,0.7-1.6,0.9-3.2
		c0.1-1.6,0-2.7-0.3-3.2c-0.3-0.5-1.1-0.8-2.4-0.8c-1.2,0-2,0.2-2.5,0.7c-0.5,0.4-0.8,1.2-0.9,2.3h-3.1c0.4-5.1,2.7-7.6,6.9-7.6
		c2.2,0,3.7,0.6,4.5,1.7c0.9,1.3,1.2,3.5,0.9,6.8c-0.1,1.6-0.3,2.9-0.6,3.7c-0.3,1.1-0.9,2-1.6,2.5
		C1096.3-1010.5,1096.7-1009.7,1096.9-1008.4z M682-1220.5c2.1,2.6,3.1,6.9,3,12.8c-0.1,6.6-1.3,11.4-3.7,14.5
		c-2.4,3.1-6,4.6-11,4.6c-4.7,0-8.3-1.1-10.5-3.4c-2.7-2.7-4-7.3-4-13.8h6.4c0,3,0.6,5.1,1.7,6.2c1.1,1.1,3.3,1.6,6.6,1.6
		c3.3,0,5.5-0.7,6.7-2.2c1-1.3,1.5-3.7,1.5-7.1c0-2.7-0.3-4.5-1-5.5c-0.5-0.7-1.6-1.2-3-1.4c-2.8-0.2-5.6-0.4-8.4-0.5
		c-3.3-0.4-5.7-1.6-7.2-3.5c-2-2.6-3.1-6.9-3.1-12.8c0-6.6,1.2-11.3,3.6-14.1c2.2-2.5,5.8-3.8,10.8-3.8c4.7,0,8.2,1.2,10.5,3.5
		c2.6,2.7,3.9,7.3,3.9,13.6h-6.3c0-3.6-0.9-5.9-2.7-7c-0.9-0.5-2.8-0.8-5.5-0.8c-3.4,0-5.6,0.6-6.7,1.9c-0.8,1.1-1.2,3.2-1.2,6.5
		c0,2.5,0.4,4.3,1.1,5.2c0.5,0.7,1.5,1.2,3,1.3c2.8,0.2,5.6,0.3,8.4,0.5C678-1223.7,680.4-1222.5,682-1220.5z M719.7-1248.3v59.1
		h-6.4v-25.5h-14.7v25.5h-6.4v-59.1h6.4v24.2h14.7v-24.2H719.7z M756.4-1234.4c0.4,3.1,0.6,8.2,0.6,15.5c0,11-0.7,18.4-2.1,22.2
		c-2,5.4-6.3,8.1-12.8,8.1c-4.7,0-8.1-1.3-10.4-4c-2-2.3-3.3-5.9-3.9-10.8c-0.4-3.1-0.6-8.2-0.6-15.5c0-7.3,0.2-12.5,0.6-15.5
		c0.6-4.8,1.9-8.4,3.9-10.6c2.3-2.7,5.7-4,10.4-4c4.7,0,8.1,1.3,10.4,3.9C754.4-1242.7,755.7-1239.2,756.4-1234.4z M749-1202
		c1-2.6,1.5-8.2,1.5-16.8s-0.5-14.2-1.5-16.8c-1-2.6-3.3-3.8-7-3.8s-6,1.3-7,3.8c-1,2.6-1.5,8.2-1.5,16.9c0,8.7,0.5,14.2,1.5,16.7
		c1,2.7,3.3,4,7,4S748-1199.4,749-1202z M792.1-1203.7v14.4h-6.2v-15.3c0-3.3-0.1-5.4-0.3-6.2c-0.3-1.2-1-1.9-2.3-2.2
		c-0.8-0.2-2.9-0.3-6.2-0.3h-6.1v24h-6.4v-59.1h12.7c5.1,0,8.6,0.8,10.5,2.3c2.9,2.4,4.4,7.3,4.4,14.7c0,7.2-1.2,11.5-3.5,13.1
		c1.7,0.8,2.8,2.9,3.3,6.2C792-1210.7,792.1-1208,792.1-1203.7z M784-1223.3c1.2-0.9,1.9-3.4,1.9-7.6c0-3.1-0.4-5.1-1.1-6.3
		c-0.5-0.8-1.1-1.3-1.7-1.4c-1-0.3-2.9-0.4-5.9-0.4h-6.2v16.4h6.6C781.1-1222.6,783.3-1222.8,784-1223.3z M826-1248.3v9.3h-11v49.8
		h-6.4v-49.8h-11v-9.3H826z M868.8-1248.3v9.3h-18v15h17.5v9.2h-17.5v25.6h-6.4v-59.1H868.8z M882-1248.3v59.1h-6.4v-59.1H882z
		 M914.5-1198.6v9.4h-24.3v-59.1h6.4v49.7H914.5z M956.5-1248.4v59.2h-6v-45.9l-9.3,45.9h-6.2l-9.2-45.9v45.9h-5.9v-59.1h8.4l9.8,47
		l9.7-47.1H956.5z M1002.6-1245.4c2.5,2.8,3.7,7.3,3.7,13.6h-6.3c0-3-0.5-5-1.6-6.1c-1.1-1.1-3.1-1.6-6.2-1.6
		c-3.6,0-5.9,1.3-6.9,3.9c-1,2.6-1.5,8.2-1.5,16.8c0,8.6,0.5,14.2,1.5,16.7c1,2.7,3.3,4,6.9,4c3.1,0,5.2-0.5,6.2-1.5
		c1-1,1.5-3.1,1.5-6.1h6.3c0,6.3-1.2,10.9-3.7,13.6c-2.1,2.4-5.4,3.5-9.8,3.5c-4.8,0-8.3-1.4-10.7-4.1c-2-2.4-3.3-6-3.9-10.8
		c-0.4-3.1-0.6-8.2-0.6-15.4c0-7.2,0.2-12.3,0.6-15.3c0.6-4.8,2-8.4,4-10.7c2.3-2.7,5.9-4.1,10.7-4.1
		C997.2-1248.9,1000.4-1247.7,1002.6-1245.4z M1042-1234.4c0.4,3.1,0.6,8.2,0.6,15.5c0,11-0.7,18.4-2.1,22.2
		c-2,5.4-6.3,8.1-12.8,8.1c-4.7,0-8.1-1.3-10.4-4c-2-2.3-3.3-5.9-3.9-10.8c-0.4-3.1-0.6-8.2-0.6-15.5c0-7.3,0.2-12.5,0.6-15.5
		c0.6-4.8,1.9-8.4,3.9-10.6c2.3-2.7,5.7-4,10.4-4c4.7,0,8.1,1.3,10.4,3.9C1040.1-1242.7,1041.4-1239.2,1042-1234.4z M1034.7-1202
		c1-2.6,1.5-8.2,1.5-16.8s-0.5-14.2-1.5-16.8s-3.3-3.8-7-3.8c-3.7,0-6,1.3-7,3.8c-1,2.6-1.5,8.2-1.5,16.9c0,8.7,0.5,14.2,1.5,16.7
		c1,2.7,3.3,4,7,4C1031.3-1198.1,1033.7-1199.4,1034.7-1202z M1077.7-1203.7v14.4h-6.2v-15.3c0-3.3-0.1-5.4-0.3-6.2
		c-0.3-1.2-1-1.9-2.3-2.2c-0.8-0.2-2.9-0.3-6.2-0.3h-6.1v24h-6.4v-59.1h12.7c5.1,0,8.6,0.8,10.5,2.3c2.9,2.4,4.4,7.3,4.4,14.7
		c0,7.2-1.2,11.5-3.5,13.1c1.7,0.8,2.8,2.9,3.3,6.2C1077.7-1210.7,1077.7-1208,1077.7-1203.7z M1069.6-1223.3
		c1.2-0.9,1.9-3.4,1.9-7.6c0-3.1-0.4-5.1-1.1-6.3c-0.5-0.8-1.1-1.3-1.7-1.4c-1-0.3-2.9-0.4-5.9-0.4h-6.2v16.4h6.6
		C1066.8-1222.6,1069-1222.8,1069.6-1223.3z M1113.3-1248.3v59.1h-6.6l-15-42.4v42.4h-6v-59.1h6.5l15.1,42.1v-42.1H1113.3z
		 M1146.4-1198.6v9.4h-24.9v-59.1h24.9v9.3h-18.6v15h18.1v9.2h-18.1v16.2H1146.4z M1181.3-1203.7v14.4h-6.2v-15.3
		c0-3.3-0.1-5.4-0.3-6.2c-0.3-1.2-1-1.9-2.3-2.2c-0.8-0.2-2.9-0.3-6.2-0.3h-6.1v24h-6.4v-59.1h12.7c5.1,0,8.6,0.8,10.5,2.3
		c2.9,2.4,4.4,7.3,4.4,14.7c0,7.2-1.2,11.5-3.5,13.1c1.7,0.8,2.8,2.9,3.3,6.2C1181.2-1210.7,1181.3-1208,1181.3-1203.7z
		 M1173.2-1223.3c1.2-0.9,1.9-3.4,1.9-7.6c0-3.1-0.4-5.1-1.1-6.3c-0.5-0.8-1.1-1.3-1.7-1.4c-1-0.3-2.9-0.4-5.9-0.4h-6.2v16.4h6.6
		C1170.4-1222.6,1172.5-1222.8,1173.2-1223.3z"/>
</g>
</svg>
