<?xml version="1.0" encoding="UTF-8" standalone="no"?>
<!DOCTYPE svg PUBLIC "-//W3C//DTD SVG 1.1//EN" "http://www.w3.org/Graphics/SVG/1.1/DTD/svg11.dtd">
<svg width="100%" height="100%" viewBox="0 0 328 208" version="1.1" xmlns="http://www.w3.org/2000/svg" xmlns:xlink="http://www.w3.org/1999/xlink" xml:space="preserve" xmlns:serif="http://www.serif.com/" style="fill-rule:evenodd;clip-rule:evenodd;stroke-linejoin:round;stroke-miterlimit:2;">
    <g id="Artboard1" transform="matrix(0.759006,0,0,1,0,0)">
        <rect x="0" y="0" width="432" height="208" style="fill:none;"/>
        <clipPath id="_clip1">
            <rect x="0" y="0" width="432" height="208"/>
        </clipPath>
        <g clip-path="url(#_clip1)">
            <g transform="matrix(2.26597,0,0,1.71989,-6175.3,-767.874)">
                <g transform="matrix(1,0,0,1,2740.4,482.302)">
                    <path d="M0,6.62L10.083,6.62L5.429,-8.89L4.652,-8.89L0,6.62ZM12.233,13.898L-2.147,13.898L-5.247,24.277L-14.97,24.277L-2.026,-14.914C-1.25,-17.18 -0.834,-17.657 1.373,-17.657L9.427,-17.657C11.573,-17.657 12.05,-17.12 12.831,-14.914L25.771,24.277L15.395,24.277L12.233,13.898Z" style="fill:rgb(220,225,214);fill-rule:nonzero;"/>
                </g>
                <g transform="matrix(1,0,0,1,2803.81,466.849)">
                    <path d="M0,37.703C-1.49,39.134 -3.342,39.729 -7.511,39.729L-20.281,39.729C-24.397,39.729 -26.306,39.134 -27.794,37.703C-30.181,35.434 -31.912,31.618 -31.912,18.852C-31.912,6.028 -30.181,2.208 -27.794,0C-26.306,-1.429 -24.397,-2.026 -20.281,-2.026L-7.511,-2.026C-3.342,-2.026 -1.49,-1.429 0,0C2.207,2.091 3.223,5.251 3.339,13.066L-5.965,13.066C-6.144,7.877 -6.679,6.743 -7.155,6.265C-7.573,5.847 -8.11,5.668 -10.02,5.668L-17.776,5.668C-19.681,5.668 -20.222,5.847 -20.639,6.265C-21.176,6.743 -21.952,8.234 -21.952,18.852C-21.952,29.47 -21.176,30.9 -20.639,31.437C-20.222,31.797 -19.681,31.974 -17.776,31.974L-10.02,31.974C-8.11,32.035 -7.573,31.797 -7.155,31.437C-6.679,30.963 -6.144,29.946 -5.965,24.161L3.399,24.161C3.164,32.571 2.207,35.614 0,37.703" style="fill:rgb(220,225,214);fill-rule:nonzero;"/>
                </g>
                <g transform="matrix(0.41864,-0.908152,-0.908152,-0.41864,2845.69,510.992)">
                    <path d="M-14.01,30.01L43.134,30.01L46.879,21.886L-10.239,21.829L-14.01,30.01Z" style="fill:rgb(220,225,214);fill-rule:nonzero;"/>
                </g>
                <g transform="matrix(1,0,0,1,2883.19,464.823)">
                    <path d="M0,41.755L-31.313,41.755L-31.313,0L0,0L0,7.694L-21.593,7.694L-21.593,16.641L-4.773,16.641L-4.773,23.978L-21.593,23.978L-21.593,34.061L0,34.061L0,41.755Z" style="fill:rgb(220,225,214);fill-rule:nonzero;"/>
                </g>
                <g transform="matrix(1,0,0,1,2728.21,525.415)">
                    <path d="M0,2.471L4.366,2.471L2.368,-3.696L2,-3.696L0,2.471ZM4.749,3.645L-0.384,3.645L-1.592,7.395L-2.975,7.395L1.018,-4.467C1.123,-4.835 1.229,-4.924 1.683,-4.924L2.787,-4.924C3.227,-4.924 3.332,-4.835 3.455,-4.467L7.448,7.395L5.959,7.395L4.749,3.645Z" style="fill:rgb(220,225,214);fill-rule:nonzero;"/>
                </g>
                <g transform="matrix(1,0,0,1,2748.23,521.037)">
                    <path d="M0,11.28C-0.385,11.632 -0.825,11.773 -1.927,11.773L-5.556,11.773C-6.658,11.773 -7.097,11.632 -7.482,11.28C-8.114,10.685 -8.497,9.792 -8.497,5.639C-8.497,1.488 -8.114,0.593 -7.482,-0.003C-7.097,-0.353 -6.658,-0.493 -5.556,-0.493L-1.927,-0.493C-0.825,-0.493 -0.385,-0.353 0,-0.003C0.578,0.54 0.858,1.261 0.91,3.327L-0.457,3.327C-0.509,1.663 -0.701,1.208 -0.945,0.963C-1.123,0.804 -1.333,0.7 -2.068,0.7L-5.414,0.7C-6.15,0.7 -6.361,0.804 -6.535,0.963C-6.815,1.243 -7.097,1.874 -7.097,5.639C-7.097,9.407 -6.815,10.038 -6.535,10.317C-6.361,10.475 -6.15,10.581 -5.414,10.581L-2.068,10.581C-1.333,10.598 -1.123,10.475 -0.945,10.317C-0.701,10.072 -0.509,9.651 -0.437,7.76L0.928,7.76C0.842,10.09 0.578,10.739 0,11.28" style="fill:rgb(220,225,214);fill-rule:nonzero;"/>
                </g>
                <g transform="matrix(1,0,0,1,2762.34,521.037)">
                    <path d="M0,11.28C-0.385,11.632 -0.824,11.773 -1.927,11.773L-5.555,11.773C-6.655,11.773 -7.095,11.632 -7.48,11.28C-8.112,10.685 -8.495,9.792 -8.495,5.639C-8.495,1.488 -8.112,0.593 -7.48,-0.003C-7.095,-0.353 -6.655,-0.493 -5.555,-0.493L-1.927,-0.493C-0.824,-0.493 -0.385,-0.353 0,-0.003C0.579,0.54 0.86,1.261 0.91,3.327L-0.455,3.327C-0.507,1.663 -0.7,1.208 -0.944,0.963C-1.122,0.804 -1.332,0.7 -2.066,0.7L-5.413,0.7C-6.148,0.7 -6.359,0.804 -6.533,0.963C-6.814,1.243 -7.095,1.874 -7.095,5.639C-7.095,9.407 -6.814,10.038 -6.533,10.317C-6.359,10.475 -6.148,10.581 -5.413,10.581L-2.066,10.581C-1.332,10.598 -1.122,10.475 -0.944,10.317C-0.7,10.072 -0.507,9.651 -0.436,7.76L0.929,7.76C0.843,10.09 0.579,10.739 0,11.28" style="fill:rgb(220,225,214);fill-rule:nonzero;"/>
                </g>
                <g transform="matrix(1,0,0,1,0,-768.976)">
                    <rect x="2768.35" y="1289.52" width="1.384" height="12.266" style="fill:rgb(220,225,214);"/>
                </g>
                <g transform="matrix(1,0,0,1,2779.05,530.83)">
                    <path d="M0,-11.529L1.611,-13.509L3.643,-13.509L3.643,-13.421L1.174,-11.442L0,-11.442L0,-11.529ZM-2.033,0.524C-1.858,0.682 -1.648,0.788 -0.912,0.788L2.593,0.788C3.327,0.805 3.537,0.682 3.713,0.524C4.012,0.245 4.274,-0.386 4.274,-4.154C4.274,-7.919 4.012,-8.55 3.713,-8.831C3.537,-8.989 3.327,-9.093 2.593,-9.093L-0.912,-9.093C-1.648,-9.093 -1.858,-8.989 -2.033,-8.831C-2.313,-8.55 -2.595,-7.919 -2.595,-4.154C-2.595,-0.386 -2.313,0.245 -2.033,0.524M2.731,-10.286C3.854,-10.286 4.292,-10.146 4.658,-9.796C5.307,-9.2 5.676,-8.305 5.676,-4.154C5.676,-0.001 5.307,0.892 4.658,1.487C4.292,1.839 3.854,1.98 2.731,1.98L-1.053,1.98C-2.157,1.98 -2.595,1.839 -2.979,1.487C-3.61,0.892 -3.996,-0.001 -3.996,-4.154C-3.996,-8.305 -3.61,-9.2 -2.979,-9.796C-2.595,-10.146 -2.157,-10.286 -1.053,-10.286L2.731,-10.286Z" style="fill:rgb(220,225,214);fill-rule:nonzero;"/>
                </g>
                <g transform="matrix(1,0,0,1,2799.39,520.544)">
                    <path d="M0,12.266L-1.418,12.266C-1.854,12.266 -2.014,12.177 -2.205,11.791L-7.831,1.787L-8.041,1.787L-8.041,12.266L-9.39,12.266L-9.39,0L-7.864,0C-7.427,0 -7.288,0.107 -7.095,0.49L-1.576,10.233L-1.346,10.233L-1.346,0L0,0L0,12.266Z" style="fill:rgb(220,225,214);fill-rule:nonzero;"/>
                </g>
                <g transform="matrix(1,0,0,1,2819.38,521.037)">
                    <path d="M0,11.28C-0.387,11.632 -0.823,11.773 -1.926,11.773L-5.554,11.773C-6.658,11.773 -7.095,11.632 -7.481,11.28C-8.112,10.685 -8.498,9.792 -8.498,5.639C-8.498,1.488 -8.112,0.593 -7.481,-0.003C-7.095,-0.353 -6.658,-0.493 -5.554,-0.493L-1.926,-0.493C-0.823,-0.493 -0.387,-0.353 0,-0.003C0.577,0.54 0.859,1.261 0.911,3.327L-0.457,3.327C-0.508,1.663 -0.7,1.208 -0.947,0.963C-1.121,0.804 -1.331,0.7 -2.068,0.7L-5.413,0.7C-6.151,0.7 -6.359,0.804 -6.535,0.963C-6.816,1.243 -7.095,1.874 -7.095,5.639C-7.095,9.407 -6.816,10.038 -6.535,10.317C-6.359,10.475 -6.151,10.581 -5.413,10.581L-2.068,10.581C-1.331,10.598 -1.121,10.475 -0.947,10.317C-0.7,10.072 -0.508,9.651 -0.439,7.76L0.929,7.76C0.841,10.09 0.577,10.739 0,11.28" style="fill:rgb(220,225,214);fill-rule:nonzero;"/>
                </g>
                <g transform="matrix(1,0,0,1,2834.64,525.538)">
                    <path d="M0,2.278C0,5.221 -0.263,6.009 -0.877,6.64C-1.348,7.097 -2.032,7.272 -3.417,7.272L-5.956,7.272C-7.323,7.272 -7.989,7.097 -8.443,6.64C-9.055,6.027 -9.32,5.256 -9.32,2.278L-9.32,-4.994L-7.936,-4.994L-7.936,2.524C-7.936,4.923 -7.727,5.414 -7.41,5.73C-7.2,5.939 -6.886,6.063 -5.693,6.063L-3.574,6.063C-2.4,6.063 -2.104,5.957 -1.874,5.73C-1.559,5.396 -1.365,4.96 -1.365,2.524L-1.365,-4.994L0,-4.994L0,2.278Z" style="fill:rgb(220,225,214);fill-rule:nonzero;"/>
                </g>
                <g transform="matrix(1,0,0,1,2841.64,521.736)">
                    <path d="M0,9.882L6.238,9.882L6.238,11.074L-1.385,11.074L-1.385,-1.192L0,-1.192L0,9.882Z" style="fill:rgb(220,225,214);fill-rule:nonzero;"/>
                </g>
                <g transform="matrix(1,0,0,1,2854.73,531.617)">
                    <path d="M0,-9.88L0,1.193L-1.384,1.193L-1.384,-9.88L-5.378,-9.88L-5.378,-11.073L3.994,-11.073L3.994,-9.88L0,-9.88Z" style="fill:rgb(220,225,214);fill-rule:nonzero;"/>
                </g>
                <g transform="matrix(1,0,0,1,2872.02,525.538)">
                    <path d="M0,2.278C0,5.221 -0.261,6.009 -0.874,6.64C-1.348,7.097 -2.032,7.272 -3.415,7.272L-5.956,7.272C-7.323,7.272 -7.987,7.097 -8.444,6.64C-9.057,6.027 -9.319,5.256 -9.319,2.278L-9.319,-4.994L-7.936,-4.994L-7.936,2.524C-7.936,4.923 -7.727,5.414 -7.411,5.73C-7.2,5.939 -6.885,6.063 -5.693,6.063L-3.572,6.063C-2.399,6.063 -2.101,5.957 -1.874,5.73C-1.558,5.396 -1.367,4.96 -1.367,2.524L-1.367,-4.994L0,-4.994L0,2.278Z" style="fill:rgb(220,225,214);fill-rule:nonzero;"/>
                </g>
                <g transform="matrix(1,0,0,1,2883.48,527.029)">
                    <path d="M0,-0.702C0.63,-0.702 0.893,-0.825 1.069,-0.999C1.28,-1.209 1.56,-1.63 1.56,-3.014C1.56,-4.417 1.296,-4.837 1.086,-5.046C0.911,-5.221 0.613,-5.291 0.033,-5.291L-4.451,-5.291L-4.451,-0.702L0,-0.702ZM1.016,0.788C0.751,0.542 0.385,0.454 -0.35,0.454L-4.451,0.454L-4.451,5.782L-5.834,5.782L-5.834,-6.484L0.366,-6.484C1.227,-6.484 1.786,-6.344 2.17,-5.975C2.645,-5.5 2.943,-4.871 2.943,-3.084C2.943,-0.964 2.348,-0.352 1.121,-0.089L1.121,-0.071C2.33,0.208 2.767,0.56 2.856,2.523C2.908,3.959 2.961,5.045 3.048,5.782L1.683,5.782C1.56,4.957 1.488,3.819 1.456,2.557C1.419,1.33 1.28,1.015 1.016,0.788" style="fill:rgb(220,225,214);fill-rule:nonzero;"/>
                </g>
                <g transform="matrix(1,0,0,1,2893.61,525.415)">
                    <path d="M0,2.471L4.359,2.471L2.362,-3.696L1.995,-3.696L0,2.471ZM4.745,3.645L-0.387,3.645L-1.596,7.395L-2.982,7.395L1.014,-4.467C1.119,-4.835 1.225,-4.924 1.681,-4.924L2.783,-4.924C3.221,-4.924 3.327,-4.835 3.449,-4.467L7.444,7.395L5.955,7.395L4.745,3.645Z" style="fill:rgb(220,225,214);fill-rule:nonzero;"/>
                </g>
                <g transform="matrix(1,0,0,1,2906.85,521.736)">
                    <path d="M0,9.882L6.239,9.882L6.239,11.074L-1.382,11.074L-1.382,-1.192L0,-1.192L0,9.882Z" style="fill:rgb(220,225,214);fill-rule:nonzero;"/>
                </g>
                <g transform="matrix(1,0,0,1,2734.52,542.351)">
                    <path d="M0,12.264L-8.096,12.264L-8.096,0L0.052,0L0.052,1.191L-6.711,1.191L-6.711,5.308L-0.912,5.308L-0.912,6.482L-6.711,6.482L-6.711,11.072L0,11.072L0,12.264Z" style="fill:rgb(220,225,214);fill-rule:nonzero;"/>
                </g>
                <g transform="matrix(1,0,0,1,2747.46,542.894)">
                    <path d="M0,11.178C-0.351,11.527 -0.859,11.721 -1.787,11.721L-5.974,11.721C-6.885,11.721 -7.392,11.598 -7.761,11.212C-8.233,10.74 -8.41,10.248 -8.425,8.023L-7.078,8.023C-7.042,9.74 -6.954,10.056 -6.745,10.265C-6.571,10.442 -6.34,10.529 -5.763,10.529L-1.996,10.529C-1.418,10.529 -1.174,10.459 -0.981,10.248C-0.753,10.021 -0.648,9.531 -0.648,8.357C-0.648,7.218 -0.699,6.902 -0.963,6.64C-1.155,6.466 -1.384,6.377 -2.049,6.323L-5.885,5.974C-6.849,5.886 -7.357,5.694 -7.691,5.36C-8.129,4.921 -8.27,4.361 -8.27,2.784C-8.27,1.279 -8.094,0.525 -7.55,-0C-7.217,-0.352 -6.692,-0.543 -5.78,-0.543L-1.98,-0.543C-1.067,-0.543 -0.541,-0.422 -0.173,-0.036C0.315,0.455 0.457,0.963 0.493,3.067L-0.874,3.067C-0.893,1.49 -0.981,1.139 -1.191,0.909C-1.384,0.735 -1.611,0.647 -2.171,0.647L-5.571,0.647C-6.149,0.647 -6.377,0.718 -6.587,0.928C-6.815,1.174 -6.901,1.717 -6.901,2.768C-6.901,3.872 -6.832,4.17 -6.587,4.415C-6.393,4.608 -6.167,4.661 -5.501,4.712L-1.664,5.062C-0.735,5.151 -0.209,5.344 0.123,5.675C0.561,6.114 0.718,6.709 0.718,8.339C0.718,9.967 0.527,10.67 0,11.178" style="fill:rgb(220,225,214);fill-rule:nonzero;"/>
                </g>
                <g transform="matrix(1,0,0,1,2758.9,548.413)">
                    <path d="M0,0.14C0.667,0.14 0.963,0.07 1.175,-0.124C1.402,-0.334 1.666,-0.772 1.666,-2.366C1.666,-3.979 1.402,-4.399 1.175,-4.61C0.963,-4.802 0.667,-4.872 0,-4.872L-4.153,-4.872L-4.153,0.14L0,0.14ZM2.172,0.84C1.788,1.226 1.209,1.33 0.297,1.33L-4.153,1.33L-4.153,6.202L-5.537,6.202L-5.537,-6.062L0.297,-6.062C1.209,-6.062 1.788,-5.957 2.172,-5.573C2.681,-5.099 3.066,-4.417 3.066,-2.331C3.066,-0.316 2.681,0.367 2.172,0.84" style="fill:rgb(220,225,214);fill-rule:nonzero;"/>
                </g>
                <g transform="matrix(1,0,0,1,2768.52,547.221)">
                    <path d="M0,2.471L4.365,2.471L2.367,-3.697L1.997,-3.697L0,2.471ZM4.75,3.645L-0.386,3.645L-1.594,7.394L-2.977,7.394L1.018,-4.467C1.122,-4.835 1.227,-4.923 1.683,-4.923L2.788,-4.923C3.223,-4.923 3.329,-4.835 3.452,-4.467L7.447,7.394L5.959,7.394L4.75,3.645Z" style="fill:rgb(220,225,214);fill-rule:nonzero;"/>
                </g>
                <g transform="matrix(1,0,0,1,2782.54,553.721)">
                    <path d="M0,-13.84C0,-14.158 0.051,-14.401 0.175,-14.541C0.282,-14.664 0.438,-14.734 0.716,-14.734L0.928,-14.734C1.244,-14.734 1.472,-14.664 1.997,-14.471L4.064,-13.664L4.432,-14.717L5.116,-14.717L5.116,-13.56C5.116,-13.244 5.064,-12.999 4.942,-12.861C4.836,-12.736 4.678,-12.668 4.397,-12.668L4.187,-12.668C3.87,-12.668 3.646,-12.736 3.118,-12.929L1.052,-13.736L0.683,-12.684L0,-12.684L0,-13.84ZM7.235,0.894L5.816,0.894C5.379,0.894 5.221,0.806 5.029,0.421L-0.595,-9.585L-0.805,-9.585L-0.805,0.894L-2.154,0.894L-2.154,-11.369L-0.631,-11.369C-0.192,-11.369 -0.054,-11.265 0.139,-10.88L5.658,-1.138L5.888,-1.138L5.888,-11.369L7.235,-11.369L7.235,0.894Z" style="fill:rgb(220,225,214);fill-rule:nonzero;"/>
                </g>
                <g transform="matrix(1,0,0,1,2797.01,543.808)">
                    <path d="M0,9.351C0.177,9.51 0.386,9.615 1.122,9.615L4.626,9.615C5.362,9.633 5.573,9.51 5.745,9.351C6.044,9.072 6.308,8.441 6.308,4.675C6.308,0.908 6.044,0.277 5.745,-0.004C5.573,-0.162 5.362,-0.266 4.626,-0.266L1.122,-0.266C0.386,-0.266 0.177,-0.162 0,-0.004C-0.281,0.277 -0.56,0.908 -0.56,4.675C-0.56,8.441 -0.281,9.072 0,9.351M4.766,-1.456C5.886,-1.456 6.325,-1.317 6.693,-0.967C7.341,-0.371 7.709,0.522 7.709,4.675C7.709,8.826 7.341,9.719 6.693,10.316C6.325,10.666 5.886,10.807 4.766,10.807L0.982,10.807C-0.121,10.807 -0.56,10.666 -0.945,10.316C-1.577,9.719 -1.965,8.826 -1.965,4.675C-1.965,0.522 -1.577,-0.371 -0.945,-0.967C-0.56,-1.317 -0.121,-1.456 0.982,-1.456L4.766,-1.456Z" style="fill:rgb(220,225,214);fill-rule:nonzero;"/>
                </g>
                <g transform="matrix(1,0,0,1,2811.37,543.544)">
                    <path d="M0,9.879L6.236,9.879L6.236,11.071L-1.384,11.071L-1.384,-1.192L0,-1.192L0,9.879Z" style="fill:rgb(220,225,214);fill-rule:nonzero;"/>
                </g>
                <g transform="matrix(1,0,0,1,2823.88,547.221)">
                    <path d="M0,2.471L4.363,2.471L2.367,-3.697L1.998,-3.697L0,2.471ZM4.748,3.645L-0.385,3.645L-1.594,7.394L-2.978,7.394L1.017,-4.467C1.121,-4.835 1.226,-4.923 1.682,-4.923L2.786,-4.923C3.223,-4.923 3.33,-4.835 3.452,-4.467L7.447,7.394L5.957,7.394L4.748,3.645Z" style="fill:rgb(220,225,214);fill-rule:nonzero;"/>
                </g>
            </g>
        </g>
    </g>
</svg>
