<svg width="84" height="24" viewBox="0 0 84 24" fill="none" xmlns="http://www.w3.org/2000/svg">
<g clip-path="url(#clip0_53_64)">
<path d="M82.9658 19.1615C81.331 17.9004 80.4338 15.0703 79.5466 12.3112C78.7392 9.76521 77.6227 6.27786 76.267 6.27786C74.9113 6.27786 73.7948 9.76521 72.9874 12.3112C71.8111 16.0117 70.585 19.8365 67.6244 19.8365C64.6538 19.8365 63.4377 16.0117 62.2614 12.3112C61.4539 9.76521 60.3375 6.27786 58.9818 6.27786C57.6261 6.27786 56.5096 9.76521 55.7022 12.3112C54.5259 16.0117 53.2998 19.8365 50.3392 19.8365C47.3686 19.8365 46.1524 16.0117 44.9761 12.3112C44.1687 9.76521 43.0522 6.27786 41.6965 6.27786C40.3408 6.27786 39.2244 9.76521 38.4169 12.3112C37.2407 16.0117 36.0145 19.8365 33.0539 19.8365C30.0933 19.8365 28.8672 16.0117 27.6909 12.3112C26.8835 9.76521 25.767 6.27786 24.4113 6.27786C23.0556 6.27786 21.9391 9.76521 21.1317 12.3112C20.2545 15.0703 19.3474 17.9004 17.7125 19.1615C17.5231 19.1319 17.3238 19.0668 17.1144 18.9602C16.5562 18.6642 16.2372 18.1313 16.2472 17.5747C17.3836 16.882 18.3306 13.9275 19.0383 11.6895C20.2146 7.98897 21.4407 4.16414 24.4013 4.16414C27.3719 4.16414 28.5881 7.98897 29.7643 11.6895C30.5718 14.2354 31.6882 17.7228 33.044 17.7228C34.3997 17.7228 35.5161 14.2354 36.3236 11.6895C37.4998 7.98897 38.726 4.16414 41.6866 4.16414C44.6572 4.16414 45.8733 7.98897 47.0496 11.6895C47.857 14.2354 48.9735 17.7228 50.3292 17.7228C51.6849 17.7228 52.8014 14.2354 53.6088 11.6895C54.7851 7.98897 56.0112 4.16414 58.9718 4.16414C61.9424 4.16414 63.1585 7.98897 64.3348 11.6895C65.1423 14.2354 66.2587 17.7228 67.6144 17.7228C68.9701 17.7228 70.0866 14.2354 70.894 11.6895C72.0703 7.98897 73.2964 4.16414 76.257 4.16414C79.2276 4.16414 80.4438 7.98897 81.62 11.6895C82.3079 13.8328 83.1951 16.6452 84.2716 17.48C84.2916 18.2971 83.9626 18.9898 82.9658 19.1615ZM6.16911 6.07063C9.95711 7.43834 13.8647 8.85341 13.8647 12.1098C13.8647 15.3722 9.95711 16.7814 6.16911 18.1491C4.55422 18.7352 2.90944 19.3273 1.70326 20.02C1.60358 19.9668 1.50389 19.9075 1.40421 19.8424C1.03538 19.6115 0.656575 19.2977 0.487112 18.8951C0.387428 18.6701 0.417334 18.451 0.50705 18.2497C1.90263 17.4267 3.66704 16.7873 5.41151 16.1597C8.50172 15.0466 11.6916 13.892 11.6916 12.1039C11.6916 10.3158 8.50172 9.16129 5.41151 8.04818C3.4577 7.34361 1.46401 6.62127 -0.00134277 5.64434C0.10831 4.90424 0.646604 4.24111 1.34439 3.96875C2.56054 4.76214 4.38476 5.42527 6.16911 6.07063ZM78.3305 13.0986C78.3305 13.7203 77.8121 14.2295 77.1642 14.2295H75.3599C74.7219 14.2295 74.1936 13.7262 74.1936 13.0986C74.1936 12.471 74.7119 11.9677 75.3599 11.9677H77.1642C77.8021 11.9677 78.3305 12.471 78.3305 13.0986ZM26.4548 13.0986C26.4548 13.7203 25.9365 14.2295 25.2885 14.2295H23.4842C22.8463 14.2295 22.3179 13.7262 22.3179 13.0986C22.3179 12.471 22.8363 11.9677 23.4842 11.9677H25.2885C25.9265 11.9677 26.4548 12.471 26.4548 13.0986Z" fill="#E61D4B"/>
</g>
<defs>
<clipPath id="clip0_53_64">
<rect width="84" height="24" fill="white"/>
</clipPath>
</defs>
</svg>
