<?xml version="1.0" encoding="utf-8"?>
<!-- Generator: Adobe Illustrator 22.0.1, SVG Export Plug-In . SVG Version: 6.00 Build 0)  -->
<svg version="1.1" id="Capa_1" xmlns="http://www.w3.org/2000/svg" xmlns:xlink="http://www.w3.org/1999/xlink" x="0px" y="0px"
	 viewBox="0 0 583.1 169" style="enable-background:new 0 0 583.1 169;" xml:space="preserve">
<style type="text/css">
	.st0{fill:#DCE1D6;}
</style>
<g transform="matrix(6.70279,0,0,4.10253,2327.79,452.066)">
	<path class="st0" d="M-316.7-72c0,0.1,0,0.2-0.1,0.2c0,0-0.1,0-0.1,0.1c0-0.1-0.1-0.2-0.1-0.6c0-0.2,0-0.4,0-0.7c0-0.3,0-0.5,0-0.5
		c0,0-0.1-0.1-0.2-0.1c-0.1,0-0.1-0.1-0.1-0.2c0,0,0-0.1,0-0.1c0,0,0,0,0-0.1c0,0,0.1-0.1,0.2-0.2c0-0.2,0-0.4,0-0.5
		c0-0.2,0-0.2,0-0.3c0,0-0.1-0.1-0.2-0.3v-0.2c0-0.1,0.1-0.2,0.2-0.3h0.1c0,0,0,0,0.1,0.1c0,0.1,0.1,0.1,0.1,0.1l1.2-0.2
		c0,0,0,0,0.1,0.1c0,0.1,0.1,0.2,0.1,0.2c0,0,0,0.1,0,0.2c0,0.1,0,0.1-0.1,0.1c0,0-0.1,0-0.2-0.1c-0.2,0-0.2-0.1-0.3-0.1
		c-0.2,0-0.3,0-0.5,0.1c-0.2,0.1-0.3,0.1-0.3,0.2v0.9c0.1,0.1,0.2,0.1,0.3,0.1c0,0,0.1,0,0.2,0c0.1,0,0.2,0,0.2,0c0,0,0.1,0,0.3,0.1
		c0.1,0,0.2,0.1,0.2,0.1v0.1c0,0-0.1,0.1-0.2,0.1c-0.1,0-0.2,0-0.3,0c-0.1,0-0.2,0-0.3,0c-0.1,0-0.2,0-0.5,0.1c0,0-0.1,0.2-0.1,0.5
		c0,0.4,0,0.7,0,0.9C-316.7-72.1-316.7-72-316.7-72z M-316.7-72C-316.7-72-316.7-72-316.7-72C-316.7-72-316.7-72-316.7-72z
		 M-345.8-85.5h-0.9c-0.1,0-0.1,0.1-0.1,0.2v0.5h-0.5v-0.9c0-0.5,0.1-0.6,0.4-0.6h2.9c0.3,0,0.4,0.2,0.4,0.6v0.9h-0.5v-0.5
		c0-0.2,0-0.2-0.1-0.2h-0.9v6.3h-0.6V-85.5z M-342.2-84.5c0.9,0,1.6,1.1,1.6,2.7c0,1.6-0.7,2.7-1.6,2.7c-0.9,0-1.6-1.1-1.6-2.7
		C-343.8-83.4-343.1-84.5-342.2-84.5z M-342.2-80c0.6,0,1-0.8,1-1.8c0-1.1-0.5-1.8-1-1.8c-0.6,0-1,0.8-1,1.8
		C-343.2-80.7-342.7-80-342.2-80z M-339.8-83.3c0-0.2,0-0.2-0.1-0.2h-0.3v-0.8h0.6c0.3,0,0.4,0.2,0.4,0.6v0.3c0,0.2,0,0.4,0,0.4h0
		c0.1-0.7,0.5-1.3,1-1.3c0.1,0,0.2,0,0.2,0v1c0,0-0.1,0-0.2,0c-0.4,0-0.7,0.5-0.9,1.2c-0.1,0.3-0.1,0.6-0.1,0.9v2.1h-0.6V-83.3z
		 M-337.4-86.4h0.5v1h-0.5V-86.4z M-337.4-83.3c0-0.2,0-0.2-0.1-0.2h-0.3v-0.8h0.6c0.3,0,0.4,0.2,0.4,0.6v3.4c0,0.2,0,0.2,0.1,0.2
		h0.3v0.8h-0.6c-0.3,0-0.4-0.2-0.4-0.6V-83.3z M-335.8-83.3c0-0.2,0-0.2-0.1-0.2h-0.3v-0.8h0.6c0.3,0,0.4,0.2,0.4,0.6v0.2
		c0,0.2,0,0.3,0,0.3h0c0.1-0.5,0.5-1.2,1.1-1.2c0.7,0,1,0.7,1,2v2.2c0,0.2,0,0.2,0.1,0.2h0.2v0.8h-0.6c-0.3,0-0.4-0.2-0.4-0.6v-2.4
		c0-0.7-0.1-1.3-0.6-1.3c-0.5,0-0.8,0.5-1,1.3c0,0.2,0,0.4,0,0.7v2.4h-0.6V-83.3z M-330.7-84.5c0.9,0,1.6,1.1,1.6,2.7
		c0,1.6-0.7,2.7-1.6,2.7c-0.9,0-1.6-1.1-1.6-2.7C-332.3-83.4-331.6-84.5-330.7-84.5z M-330.7-80c0.6,0,1-0.8,1-1.8
		c0-1.1-0.5-1.8-1-1.8c-0.6,0-1,0.8-1,1.8C-331.7-80.7-331.3-80-330.7-80z M-328.2-85.5h-0.4v-0.9h2.3c0.3,0,0.4,0.2,0.4,0.6v0.9
		h-0.6v-0.5c0-0.2,0-0.2-0.1-0.2h-1.1v2.3h1.4v0.9h-1.4v3.1h-0.6V-85.5z M-325.2-86.4h0.5v1h-0.5V-86.4z M-325.2-83.3
		c0-0.2,0-0.2-0.1-0.2h-0.2v-0.8h0.6c0.3,0,0.4,0.2,0.4,0.6v3.4c0,0.2,0,0.2,0.1,0.2h0.3v0.8h-0.6c-0.3,0-0.4-0.2-0.4-0.6
		L-325.2-83.3L-325.2-83.3z M-323.6-85.3c0-0.2,0-0.2-0.1-0.2h-0.2v-0.8h0.6c0.3,0,0.4,0.2,0.4,0.6v5.4c0,0.2,0,0.2,0.1,0.2h0.3v0.8
		h-0.6c-0.3,0-0.4-0.2-0.4-0.6L-323.6-85.3L-323.6-85.3z M-322-83.3c0-0.2,0-0.2-0.1-0.2h-0.2v-0.8h0.6c0.3,0,0.4,0.2,0.4,0.6v0.2
		c0,0.2,0,0.3,0,0.3h0c0.1-0.6,0.6-1.2,1-1.2c0.5,0,0.8,0.4,0.9,1.2h0c0.2-0.6,0.6-1.2,1.1-1.2c0.7,0,1,0.7,1,2v2.2
		c0,0.2,0,0.2,0.1,0.2h0.3v0.8h-0.6c-0.3,0-0.4-0.2-0.4-0.6v-2.4c0-0.7-0.1-1.3-0.5-1.3c-0.4,0-0.7,0.6-0.9,1.3c0,0.2,0,0.4,0,0.7
		v2.3h-0.6v-3.1c0-0.7-0.1-1.3-0.5-1.3c-0.4,0-0.8,0.6-0.9,1.4c0,0.2,0,0.4,0,0.7v2.3h-0.6V-83.3z M-316.3-85.3c0-0.2,0-0.2-0.1-0.2
		h-0.3v-0.9h0.6c0.3,0,0.4,0.2,0.4,0.6v5.4c0,0.1,0,0.2,0.1,0.2h1.2c0.1,0,0.1-0.1,0.1-0.2v-0.5h0.6v0.9c0,0.5-0.1,0.6-0.4,0.6h-1.8
		c-0.3,0-0.4-0.2-0.4-0.6L-316.3-85.3L-316.3-85.3z M-311.6-82.4h0.1v-0.1c0-0.9-0.2-1.2-0.7-1.2c-0.1,0-0.5,0.1-0.5,0.4v0.3h-0.5
		v-0.5c0-0.8,0.8-1,1.1-1c1,0,1.2,0.9,1.2,2v2.2c0,0.2,0,0.2,0.1,0.2h0.3v0.8h-0.6c-0.3,0-0.4-0.2-0.4-0.6c0-0.2,0-0.3,0-0.3h0
		c0,0-0.2,1-1,1c-0.5,0-1-0.5-1-1.6C-313.4-82.3-312.1-82.4-311.6-82.4z M-312.2-79.9c0.5,0,0.8-0.9,0.8-1.6v-0.2h-0.2
		c-0.4,0-1.2,0-1.2,1C-312.8-80.3-312.6-79.9-312.2-79.9z M-309.9-85.3c0-0.2,0-0.2-0.1-0.2h-0.3v-0.8h0.6c0.3,0,0.4,0.2,0.4,0.6
		v1.7c0,0.2,0,0.4,0,0.4h0c0,0,0.3-0.8,1-0.8c0.8,0,1.3,1.1,1.3,2.7c0,1.6-0.6,2.7-1.4,2.7c-0.7,0-1-0.9-1-0.9s0,0.2,0,0.4v0.4h-0.6
		V-85.3z M-308.4-80c0.5,0,0.9-0.7,0.9-1.8c0-1.1-0.4-1.8-0.9-1.8c-0.5,0-0.9,0.5-0.9,1.8C-309.3-80.9-309-80-308.4-80z
		 M-345.4-75.5c0,0.1,0,0.2-0.1,0.2c0,0.1-0.1,0.1-0.1,0.1s0,0,0,0c0,0,0,0,0-0.1c-0.1-0.1-0.3-0.1-0.4-0.1c-0.2,0-0.3,0.2-0.3,0.7
		c0,0.5,0,1.1,0.1,1.7c0.1,0.6,0.1,1,0.1,1c0,0.3,0,0.4-0.1,0.5c-0.1,0-0.1-0.1-0.1-0.3c0-0.2,0-0.3,0-0.5c-0.1-1.1-0.2-2.1-0.2-2.8
		v-0.2c0,0-0.1-0.1-0.2-0.1c0,0-0.1,0-0.2,0.1c-0.1,0-0.2,0.1-0.2,0.1c0,0,0,0-0.1-0.1v-0.2c0-0.1,0.1-0.1,0.1-0.1
		c0,0,0.3,0,0.8-0.1c0.5-0.1,0.8-0.1,0.8-0.1c0,0,0.1,0,0.1,0.1C-345.4-75.6-345.4-75.6-345.4-75.5z M-344.4-73.6
		c-0.1,0-0.2,0.2-0.3,0.4c-0.1,0.2-0.2,0.4-0.2,0.6c0,0.2,0,0.3-0.1,0.5c0,0.1,0,0.1-0.1,0.1c-0.1,0-0.2-0.2-0.2-0.6
		c0-0.3-0.1-0.6-0.1-0.8c0-0.1,0-0.2,0.1-0.3c0.1,0.1,0.1,0.2,0.1,0.2v0.2l0,0.1c0,0,0.1-0.2,0.3-0.4c0.1-0.2,0.2-0.3,0.3-0.3
		c0,0,0.1,0.1,0.1,0.2L-344.4-73.6L-344.4-73.6z M-342.6-72.3c0,0.1,0,0.1,0,0.2c0,0.1-0.1,0.1-0.1,0.1c-0.1-0.1-0.1-0.3-0.2-0.6
		c-0.1-0.4-0.1-0.6-0.2-0.6c-0.1,0.3-0.2,0.5-0.4,0.8c-0.1,0.2-0.3,0.3-0.4,0.3c0,0-0.1,0-0.2-0.1c-0.1-0.1-0.1-0.1-0.1-0.2
		c0-0.2,0.2-0.7,0.6-1.4c0-0.1,0.1-0.1,0.1-0.1c0.1,0,0.1,0,0.1-0.1c0,0,0,0,0-0.1s0-0.1,0.1-0.1s0.1,0,0.1,0.1c0,0.1,0,0.2,0,0.3
		c0,0.2,0.1,0.5,0.2,0.9c0,0.1,0.1,0.2,0.1,0.4C-342.6-72.4-342.6-72.3-342.6-72.3z M-343.2-73.6C-343.2-73.7-343.3-73.7-343.2-73.6
		c-0.1,0-0.2,0.2-0.4,0.4c-0.2,0.3-0.2,0.5-0.2,0.6v0.1h0.1c0.1,0,0.2-0.2,0.3-0.5C-343.3-73.3-343.2-73.6-343.2-73.6z M-342-74.8
		c0,0-0.1,0.1-0.1,0.2c-0.1,0.1-0.1,0.1-0.1,0.1c0,0-0.1,0-0.1-0.1c0-0.1-0.1-0.1-0.1-0.1c0-0.1,0-0.1,0.1-0.2c0,0,0.1-0.1,0.2-0.1
		c0,0,0,0,0.1,0.1L-342-74.8z M-340.2-71.6C-340.2-71.6-340.3-71.6-340.2-71.6c-0.2,0.1-0.2-0.1-0.3-0.5c-0.1-0.5-0.2-0.8-0.3-0.9
		c-0.1,0.1-0.2,0.3-0.3,0.6c-0.1,0.4-0.2,0.6-0.2,0.6c0,0-0.1-0.1-0.2-0.1c0-0.2,0-0.4,0-0.7c0-0.3,0-0.5,0-0.5c0-0.1,0-0.1,0-0.2
		s0.1-0.1,0.1-0.1c0.1,0.1,0.1,0.2,0.1,0.3v0.2c0,0.1,0,0.2,0,0.2c0,0,0.1-0.2,0.3-0.5c0.1-0.2,0.2-0.4,0.3-0.4
		c0.1,0.1,0.2,0.4,0.3,0.9c0.1,0.5,0.2,0.7,0.2,0.8L-340.2-71.6L-340.2-71.6z M-339.6-74.8c0,0-0.1,0.1-0.1,0.2
		c-0.1,0.1-0.1,0.1-0.1,0.1c0,0-0.1,0-0.1-0.1c0-0.1-0.1-0.1-0.1-0.1c0-0.1,0-0.1,0.1-0.2c0,0,0.1-0.1,0.2-0.1c0,0,0,0,0.1,0.1
		C-339.7-74.9-339.7-74.8-339.6-74.8z M-337.8-71.6C-337.9-71.6-337.9-71.6-337.8-71.6c-0.1,0.1-0.2-0.1-0.3-0.5
		c-0.1-0.5-0.2-0.8-0.3-0.9c-0.1,0.1-0.2,0.3-0.3,0.6c-0.1,0.4-0.2,0.6-0.2,0.6c0,0-0.1-0.1-0.2-0.1c0-0.2,0-0.4,0-0.7
		c0-0.3,0-0.5,0-0.5c0-0.1,0-0.1,0-0.2c0,0,0.1-0.1,0.1-0.1c0.1,0.1,0.1,0.2,0.1,0.3v0.2c0,0.1,0,0.2,0,0.2c0,0,0.1-0.2,0.3-0.5
		c0.1-0.2,0.2-0.4,0.3-0.4c0.1,0.1,0.2,0.4,0.3,0.9c0.1,0.5,0.2,0.7,0.2,0.8L-337.8-71.6L-337.8-71.6z M-336.6-73.4
		c0,0.1-0.1,0.1-0.1,0.1c0,0,0,0-0.1,0c0,0-0.1,0-0.1,0c-0.1,0-0.3,0.1-0.4,0.2c-0.2,0.2-0.3,0.4-0.3,0.6c0,0.2,0,0.3,0.1,0.3
		c0.1,0,0.2-0.1,0.3-0.3c0-0.1,0-0.2,0.1-0.5c0-0.2,0.1-0.3,0.1-0.3c0.1,0,0.1,0.2,0.2,0.6c0,0.3,0,0.5,0,0.8c0,0.4-0.1,0.7-0.2,1.2
		c-0.2,0.5-0.3,0.8-0.6,0.8c0,0-0.1,0-0.2-0.1c-0.1-0.1-0.1-0.2-0.1-0.2c0-0.1,0-0.2,0.1-0.3c0,0,0.1,0.1,0.1,0.2
		c0,0.1,0.1,0.1,0.1,0.1c0.2,0,0.3-0.2,0.4-0.7c0.1-0.4,0.1-0.6,0.1-0.9c0,0,0-0.1,0-0.2c0-0.1,0-0.2,0-0.2c0,0,0,0,0,0
		c0,0,0,0.1-0.2,0.2c-0.1,0.1-0.2,0.2-0.3,0.2c-0.1,0-0.2-0.1-0.3-0.2c-0.1-0.1-0.1-0.3-0.1-0.4c0-0.3,0.1-0.5,0.3-0.8
		c0.2-0.3,0.3-0.4,0.5-0.4c0,0,0.1,0,0.2,0.1C-336.6-73.5-336.6-73.5-336.6-73.4z M-332.8-74.5c0,0.5-0.1,1.1-0.4,1.6
		c-0.3,0.5-0.6,0.9-1,1.2c-0.3,0.2-0.4,0.2-0.4,0.2c-0.1,0-0.2-0.1-0.2-0.4V-72c0-0.4,0-1.1,0-2.2c0-0.3,0-0.5,0-0.9
		c0,0-0.1-0.1-0.1-0.1c0,0,0-0.1,0-0.1c0-0.2,0.1-0.4,0.4-0.5c0.2-0.1,0.3-0.2,0.5-0.2c0.3,0,0.5,0.1,0.9,0.4
		C-333-75.3-332.8-74.9-332.8-74.5z M-333-74.3c0-0.4-0.1-0.7-0.4-1c-0.3-0.2-0.5-0.4-0.8-0.4c-0.1,0-0.2,0-0.2,0
		c0,0-0.1,0.1-0.3,0.2c0,0.1,0,0.2,0,0.3l0,3.2c0,0.1,0,0.1,0,0.1c0,0,0,0.1,0.1,0.1c0.3,0,0.6-0.3,1-0.9
		C-333.2-73.2-333-73.8-333-74.3z M-331.4-72c0,0.2-0.1,0.3-0.3,0.4c-0.1,0.1-0.3,0.1-0.3,0.1s-0.2,0-0.3-0.1
		c-0.1-0.1-0.2-0.3-0.2-0.6c0-0.1,0-0.3,0-0.6c0,0,0-0.1,0-0.1c0,0,0-0.1,0-0.1c0-0.1,0-0.1,0-0.2c0-0.1,0.1-0.1,0.1-0.2
		c0-0.2,0.1-0.3,0.1-0.4c0-0.1,0.1-0.2,0.2-0.2c0.1,0,0.2,0.1,0.4,0.3c0.1,0.2,0.2,0.4,0.2,0.5c0,0.1,0,0.1,0,0.2
		c0,0.1-0.1,0.1-0.1,0.1c0,0,0,0-0.1-0.1s-0.2-0.1-0.3-0.1c-0.1,0-0.1,0-0.1,0.1v0.2c0,0.2,0,0.3,0.1,0.5c0.1,0.2,0.1,0.3,0.3,0.3
		C-331.9-71.8-331.7-71.9-331.4-72L-331.4-72L-331.4-72z M-331.9-73.1c-0.1-0.2-0.2-0.3-0.2-0.3c0,0-0.1,0-0.1,0.1
		c0,0.1-0.1,0.1-0.1,0.1c0,0.1,0,0.1,0,0.1C-332.1-73.1-332-73.1-331.9-73.1z M-330.1-73.8c0,0.1-0.1,0.4-0.3,1
		c-0.2,0.6-0.3,0.9-0.4,0.9c-0.1,0-0.2-0.2-0.3-0.7c-0.1-0.4-0.2-0.7-0.2-0.8c0-0.1,0-0.1,0.1-0.1c0.1,0,0.1-0.1,0.1-0.1
		c0,0.1,0.1,0.3,0.1,0.5c0,0.3,0.1,0.5,0.2,0.6h0.1c0-0.1,0.1-0.4,0.3-0.8c0.1-0.4,0.2-0.6,0.3-0.6C-330.2-74-330.1-73.9-330.1-73.8
		z M-328.7-72c0,0.2-0.1,0.3-0.3,0.4c-0.1,0.1-0.3,0.1-0.4,0.1c-0.1,0-0.2,0-0.3-0.1c-0.1-0.1-0.2-0.3-0.2-0.6c0-0.1,0-0.3,0-0.6
		c0,0,0-0.1,0-0.1c0,0,0-0.1,0-0.1c0-0.1,0-0.1,0-0.2c0-0.1,0.1-0.1,0.1-0.2c0-0.2,0.1-0.3,0.1-0.4c0-0.1,0.1-0.2,0.2-0.2
		c0.1,0,0.2,0.1,0.4,0.3c0.1,0.2,0.2,0.4,0.2,0.5c0,0.1,0,0.1,0,0.2c0,0.1-0.1,0.1-0.1,0.1c0,0,0,0-0.1-0.1s-0.2-0.1-0.3-0.1
		c-0.1,0-0.1,0-0.1,0.1v0.2c0,0.2,0,0.3,0.1,0.5c0.1,0.2,0.1,0.3,0.3,0.3C-329.2-71.8-329-71.9-328.7-72L-328.7-72L-328.7-72z
		 M-329.2-73.1c-0.1-0.2-0.1-0.3-0.2-0.3c0,0-0.1,0-0.1,0.1c0,0.1-0.1,0.1-0.1,0.1c0,0.1,0,0.1,0,0.1
		C-329.4-73.1-329.3-73.1-329.2-73.1z M-328.1-71.8c0,0.1,0,0.1-0.1,0.2c0,0-0.1-0.1-0.2-0.1c0-0.4-0.1-0.8-0.1-1.4
		c0-0.5-0.1-1-0.1-1.3c0-0.3,0-0.4,0.1-0.4c0,0,0.1,0,0.1,0.1c0,0.1,0.1,0.1,0.1,0.1s0,0.1,0,0.2c0,0.1-0.1,0.3-0.1,0.5
		c0,0.4,0,0.7,0.1,1c0,0.2,0.1,0.5,0.1,0.7C-328.1-72-328.1-71.9-328.1-71.8z M-326.8-73.1c0,0.3-0.1,0.6-0.2,0.8
		c-0.1,0.2-0.3,0.3-0.5,0.3c-0.3,0-0.4-0.2-0.4-0.7c0-0.3,0-0.5,0.2-0.8c0.1-0.3,0.3-0.5,0.4-0.5c0.1,0,0.3,0.1,0.3,0.3
		C-326.8-73.5-326.8-73.3-326.8-73.1z M-327-73.2c0-0.2-0.1-0.3-0.2-0.3c-0.1,0-0.2,0.2-0.3,0.4c-0.1,0.3-0.1,0.5-0.1,0.6
		c0.1,0.1,0.1,0.2,0.2,0.2c0.1,0,0.2-0.1,0.3-0.3C-327-72.8-327-73-327-73.2z M-325.3-73c0,0.4-0.1,0.8-0.4,1.1c0,0-0.1,0.1-0.2,0.2
		c-0.1,0.1-0.2,0.2-0.3,0.2c0,0.1,0,0.3,0,0.6c0,0.3,0,0.5,0,0.6c0,0.1,0,0.2,0,0.3h-0.1c0,0-0.1-0.2-0.1-0.6c0-0.3,0-0.6,0-0.9
		c-0.1-0.2-0.1-0.2-0.1-0.3c0,0,0-0.1,0.1-0.2c0-0.1,0-0.2,0-0.3c0-0.4,0-0.8,0-1.2c0.1,0,0.2-0.1,0.4-0.2c0.2-0.1,0.3-0.1,0.3-0.1
		C-325.4-73.8-325.3-73.5-325.3-73z M-325.5-73.1c0-0.1,0-0.2-0.1-0.2c0-0.1-0.1-0.1-0.2-0.1c-0.3,0-0.5,0.3-0.5,1
		c0,0.3,0,0.4,0.1,0.5c0.2-0.1,0.3-0.2,0.5-0.5C-325.5-72.6-325.5-72.9-325.5-73.1z M-322.9-71.9C-323-71.9-323-71.8-322.9-71.9
		c-0.2,0.1-0.2-0.1-0.3-0.4c0-0.2,0-0.3-0.1-0.5c0-0.1-0.1-0.3-0.1-0.6h0c0,0-0.1,0.2-0.2,0.5c-0.1,0.2-0.1,0.4-0.2,0.6h-0.1
		c0-0.3-0.1-0.6-0.2-1c0,0-0.1,0.3-0.3,0.7c-0.1,0.4-0.2,0.5-0.2,0.5c-0.1,0-0.2-0.5-0.2-1.6c0.1-0.1,0.1-0.2,0.1-0.2
		c0.1,0,0.1,0.1,0.1,0.3c0,0.1,0,0.2,0,0.3c0,0.1,0,0.2,0,0.2l0,0.1c0.1-0.2,0.1-0.4,0.2-0.5c0.1-0.3,0.2-0.5,0.2-0.5
		s0.1,0.1,0.2,0.4c0,0.2,0.1,0.4,0.1,0.6c0,0,0.1-0.2,0.3-0.5c0.1-0.3,0.2-0.4,0.3-0.4c0,0.1,0.1,0.4,0.2,1c0.1,0.5,0.2,0.8,0.2,0.9
		L-322.9-71.9L-322.9-71.9z M-321.5-72c0,0.2-0.1,0.3-0.3,0.4c-0.1,0.1-0.3,0.1-0.4,0.1c-0.1,0-0.2,0-0.3-0.1
		c-0.1-0.1-0.2-0.3-0.2-0.6c0-0.1,0-0.3,0-0.6c0,0,0-0.1,0-0.1c0,0,0-0.1,0-0.1c0-0.1,0-0.1,0-0.2c0-0.1,0.1-0.1,0.1-0.2
		c0-0.2,0.1-0.3,0.1-0.4c0-0.1,0.1-0.2,0.2-0.2c0.1,0,0.2,0.1,0.4,0.3c0.1,0.2,0.2,0.4,0.2,0.5c0,0.1,0,0.1,0,0.2
		c0,0.1-0.1,0.1-0.1,0.1c0,0,0,0-0.1-0.1s-0.2-0.1-0.3-0.1c-0.1,0-0.1,0-0.1,0.1v0.2c0,0.2,0,0.3,0.1,0.5c0.1,0.2,0.1,0.3,0.3,0.3
		C-322-71.8-321.8-71.9-321.5-72L-321.5-72L-321.5-72z M-322-73.1c-0.1-0.2-0.2-0.3-0.2-0.3c0,0-0.1,0-0.1,0.1
		c0,0.1-0.1,0.1-0.1,0.1c0,0.1,0,0.1,0,0.1C-322.2-73.1-322.1-73.1-322-73.1z M-320-71.6C-320-71.6-320.1-71.6-320-71.6
		c-0.1,0.1-0.2-0.1-0.3-0.5c-0.1-0.5-0.2-0.8-0.3-0.9c-0.1,0.1-0.2,0.3-0.3,0.6c-0.1,0.4-0.2,0.6-0.2,0.6c0,0-0.1-0.1-0.2-0.1
		c0-0.2,0-0.4,0-0.7c0-0.3,0-0.5,0-0.5c0-0.1,0-0.1,0-0.2c0,0,0.1-0.1,0.1-0.1c0.1,0.1,0.1,0.2,0.1,0.3v0.2c0,0.1,0,0.2,0,0.2
		c0,0,0.1-0.2,0.3-0.5c0.1-0.2,0.2-0.4,0.3-0.4c0.1,0.1,0.2,0.4,0.3,0.9c0.1,0.5,0.2,0.7,0.2,0.8L-320-71.6L-320-71.6z M-318.7-73.1
		c-0.1,0-0.3,0.1-0.5,0.2c0,0.5,0,0.8,0,1c0,0,0,0.1,0,0.2c0,0.1,0,0.1,0,0.2c0,0.2,0,0.2-0.1,0.2c-0.1,0-0.2-0.3-0.2-1
		c0-0.2,0-0.3,0-0.5c0-0.1-0.1-0.1-0.1-0.1c0,0-0.1,0-0.1,0c-0.1,0-0.1,0-0.1,0c0,0-0.1,0-0.1-0.1c0-0.1,0-0.1,0-0.2
		c0,0,0-0.1,0-0.2c0-0.1,0.1-0.1,0.1-0.1s0.1,0,0.1,0c0.1,0,0.1,0,0.1,0c0.1,0,0.2,0,0.2,0c0,0,0-0.1,0-0.3v-1.1c0-0.2,0-0.3,0-0.5
		c0-0.3,0.1-0.5,0.1-0.5s0.1,0.1,0.1,0.3c0,0,0,0.2-0.1,0.5c0,0.3-0.1,0.5-0.1,0.5v0.9c0,0,0.1,0.1,0.2,0.1c0.1,0,0.2,0,0.2,0.1
		L-318.7-73.1L-318.7-73.1z M-313.8-71.6C-313.8-71.6-313.8-71.6-313.8-71.6C-313.9-71.5-313.9-71.5-313.8-71.6
		c-0.2,0-0.3-0.2-0.4-0.6c0-0.2-0.1-0.5-0.1-0.7c0,0,0,0,0,0c0,0,0,0,0,0c-0.2,0.6-0.3,0.9-0.5,0.9c-0.2,0-0.3-0.2-0.4-0.5
		c-0.1-0.3-0.1-0.5-0.1-0.7v-0.3c0-0.2,0.1-0.3,0.1-0.3c0,0,0.1,0,0.1,0.1c0,0.1,0,0.1,0,0.1c0,0,0,0.1,0,0.2c0,0.1,0,0.2,0,0.2
		c0,0.1,0,0.2,0.1,0.4c0,0.2,0.1,0.3,0.2,0.3c0.1,0,0.2-0.2,0.3-0.6c0-0.2,0.1-0.5,0.2-0.7c0,0,0.1-0.1,0.1-0.1
		c0.1,0,0.1,0.1,0.1,0.2c0,0.1,0,0.2,0,0.4c0,0.2,0,0.4,0,0.5c0,0.1,0.1,0.3,0.1,0.5c0.1,0.2,0.1,0.3,0.1,0.3L-313.8-71.6
		L-313.8-71.6z M-312.3-71.6C-312.3-71.6-312.3-71.6-312.3-71.6c-0.2,0.1-0.2-0.1-0.3-0.5c-0.1-0.5-0.2-0.8-0.3-0.9
		c-0.1,0.1-0.2,0.3-0.3,0.6c-0.1,0.4-0.2,0.6-0.2,0.6c0,0-0.1-0.1-0.2-0.1c0-0.2,0-0.4,0-0.7c0-0.3,0-0.5,0-0.5c0-0.1,0-0.1,0-0.2
		c0,0,0.1-0.1,0.1-0.1c0.1,0.1,0.1,0.2,0.1,0.3v0.2c0,0.1,0,0.2,0,0.2c0,0,0.1-0.2,0.3-0.5c0.1-0.2,0.2-0.4,0.3-0.4
		c0.1,0.1,0.2,0.4,0.3,0.9c0.1,0.5,0.2,0.7,0.2,0.8V-71.6z M-310.8-72.5c0,0.3,0,0.5-0.2,0.5c-0.1,0-0.1-0.1-0.1-0.3
		c0-0.3,0-0.4-0.1-0.5c-0.1-0.2-0.2-0.3-0.4-0.3c-0.1,0-0.2,0.1-0.3,0.3c0,0.1,0,0.3,0,0.4c0,0.2,0.1,0.4,0.2,0.5
		c0.1,0.1,0.2,0.2,0.4,0.2c0,0,0.1,0,0.2,0c0.1,0,0.2,0,0.2,0v0.1c0,0-0.1,0.1-0.1,0.1c-0.1,0-0.1,0.1-0.1,0.1c0,0-0.1,0-0.1,0
		c-0.1,0-0.1,0-0.1,0c-0.2,0-0.3-0.1-0.4-0.3c-0.1-0.2-0.2-0.5-0.2-0.8c0-0.2,0.1-0.4,0.2-0.6c0.1-0.2,0.2-0.3,0.4-0.3
		c0.1,0,0.2,0,0.3,0.1c0,0,0.1-0.1,0.1-0.2c0,0,0-0.1,0-0.1c0-0.1,0-0.1,0-0.1v-0.9c0-0.1,0.1-0.1,0.1-0.1c0.1,0,0.1,0.1,0.1,0.2
		c0,0.5,0,1,0,1.3c0,0.1,0,0.3,0.1,0.4C-310.8-72.8-310.8-72.6-310.8-72.5z M-310.1-74.8c0,0-0.1,0.1-0.1,0.2
		c-0.1,0.1-0.1,0.1-0.1,0.1c0,0-0.1,0-0.1-0.1c0-0.1-0.1-0.1-0.1-0.1c0-0.1,0-0.1,0.1-0.2c0,0,0.1-0.1,0.2-0.1c0,0,0,0,0.1,0.1
		L-310.1-74.8z M-308.3-71.6C-308.4-71.6-308.4-71.6-308.3-71.6c-0.1,0.1-0.2-0.1-0.3-0.5c-0.1-0.5-0.2-0.8-0.3-0.9
		c-0.1,0.1-0.2,0.3-0.3,0.6c-0.1,0.4-0.2,0.6-0.2,0.6c0,0-0.1-0.1-0.2-0.1c0-0.2,0-0.4,0-0.7c0-0.3,0-0.5,0-0.5c0-0.1,0-0.1,0-0.2
		c0,0,0.1-0.1,0.1-0.1c0.1,0.1,0.1,0.2,0.1,0.3v0.2c0,0.1,0,0.2,0,0.2c0,0,0.1-0.2,0.3-0.5c0.1-0.2,0.2-0.4,0.3-0.4
		c0.1,0.1,0.2,0.4,0.3,0.9c0.1,0.5,0.2,0.7,0.2,0.8L-308.3-71.6L-308.3-71.6z M-307-73.4c0,0.1-0.1,0.1-0.1,0.1c0,0,0,0-0.1,0
		c0,0-0.1,0-0.1,0c-0.1,0-0.2,0.1-0.4,0.2c-0.2,0.2-0.3,0.4-0.3,0.6c0,0.2,0,0.3,0.1,0.3c0.1,0,0.2-0.1,0.3-0.3c0-0.1,0-0.2,0.1-0.5
		c0-0.2,0.1-0.3,0.1-0.3c0.1,0,0.1,0.2,0.2,0.6c0,0.3,0,0.5,0,0.8c0,0.4-0.1,0.7-0.2,1.2c-0.2,0.5-0.3,0.8-0.6,0.8
		c0,0-0.1,0-0.2-0.1c-0.1-0.1-0.1-0.2-0.1-0.2c0-0.1,0-0.2,0.1-0.3c0,0,0.1,0.1,0.1,0.2c0,0.1,0.1,0.1,0.1,0.1
		c0.2,0,0.3-0.2,0.4-0.7c0.1-0.4,0.1-0.6,0.1-0.9c0,0,0-0.1,0-0.2c0-0.1,0-0.2,0-0.2c0,0,0,0,0,0c0,0,0,0.1-0.2,0.2
		c-0.1,0.1-0.2,0.2-0.3,0.2c-0.1,0-0.2-0.1-0.3-0.2c-0.1-0.1-0.1-0.3-0.1-0.4c0-0.3,0.1-0.5,0.3-0.8c0.2-0.3,0.3-0.4,0.5-0.4
		c0,0,0.1,0,0.2,0.1C-307.1-73.5-307.1-73.5-307-73.4z M-338.8-109.2h8.3v3.7h-2.7v13.2h-2.9v-13.2h-2.7V-109.2z M-329.6-103.6
		c0-3.9,1.4-5.6,3.7-5.6h2.9v3.7h-2.5c-0.8,0-1.2,0.9-1.2,2.3v1.4h3.5v3.7h-3.5v5.8h-2.9V-103.6z M-321.8-97v-12.3h2.9v11.4
		c0,1.4,0.2,1.7,1.1,1.7h2.4v3.7h-3.8C-321-92.4-321.8-94.2-321.8-97z M-299.7-109.2h1.6V-70h-1.6V-109.2z M-284.1-107.4h0.3v0.2
		c0,0.1,0,0.2,0,0.2h0c0,0,0.1-0.5,0.5-0.5c0.4,0,0.7,0.6,0.7,1.4c0,0.9-0.3,1.4-0.7,1.4c-0.4,0-0.5-0.5-0.5-0.5h0c0,0,0,0.1,0,0.2
		v1.2h-0.3V-107.4z M-283.3-105.1c0.3,0,0.5-0.4,0.5-1c0-0.6-0.2-1-0.5-1c-0.2,0-0.5,0.3-0.5,1
		C-283.8-105.6-283.6-105.1-283.3-105.1z M-281.5-107.5c0.5,0,0.9,0.6,0.9,1.4c0,0.8-0.4,1.4-0.9,1.4c-0.5,0-0.9-0.6-0.9-1.4
		C-282.4-106.9-282-107.5-281.5-107.5z M-281.5-105.1c0.3,0,0.6-0.4,0.6-1c0-0.6-0.3-1-0.6-1c-0.3,0-0.6,0.4-0.6,1
		C-282-105.5-281.8-105.1-281.5-105.1z M-280.5-107.4h0.3l0.3,1.9c0,0.1,0,0.3,0,0.3h0c0,0,0-0.2,0-0.3l0.3-1.9h0.3l0.3,1.9
		c0,0.1,0,0.3,0,0.3s0-0.2,0-0.3l0.3-1.9h0.3l-0.5,2.7h-0.3l-0.3-1.7c0-0.1,0-0.3,0-0.3h0c0,0,0,0.2,0,0.3l-0.3,1.7h-0.3
		L-280.5-107.4z M-277.1-107.5c0.5,0,0.7,0.6,0.7,1.3c0,0.1,0,0.2,0,0.2h-1.2c0,0.6,0.3,0.9,0.6,0.9c0.3,0,0.5-0.3,0.5-0.3l0.1,0.4
		c0,0-0.2,0.4-0.6,0.4c-0.5,0-0.9-0.6-0.9-1.4C-277.9-106.9-277.6-107.5-277.1-107.5z M-276.7-106.4c0-0.5-0.2-0.7-0.4-0.7
		c-0.2,0-0.4,0.3-0.5,0.7H-276.7z M-276.1-107.4h0.3v0.5c0,0.1,0,0.2,0,0.2h0c0.1-0.4,0.3-0.7,0.5-0.7c0,0,0.1,0,0.1,0v0.5
		c0,0,0,0-0.1,0c-0.2,0-0.4,0.2-0.5,0.6c0,0.2,0,0.3,0,0.5v1.1h-0.3V-107.4z M-274.3-107.5c0.5,0,0.7,0.6,0.7,1.3c0,0.1,0,0.2,0,0.2
		h-1.2c0,0.6,0.3,0.9,0.6,0.9c0.3,0,0.5-0.3,0.5-0.3l0.1,0.4c0,0-0.2,0.4-0.6,0.4c-0.5,0-0.9-0.6-0.9-1.4
		C-275.1-106.9-274.7-107.5-274.3-107.5z M-273.9-106.4c0-0.5-0.2-0.7-0.4-0.7c-0.2,0-0.4,0.3-0.5,0.7H-273.9z M-272.6-107.5
		c0.4,0,0.5,0.4,0.5,0.4h0c0,0,0-0.1,0-0.2v-1.3h0.3v3.8h-0.3v-0.4h0c0,0-0.1,0.5-0.5,0.5c-0.4,0-0.7-0.6-0.7-1.4
		C-273.4-106.9-273-107.5-272.6-107.5z M-272.6-105.1c0.2,0,0.5-0.3,0.5-1c0-0.5-0.1-1-0.5-1c-0.3,0-0.5,0.4-0.5,1
		C-273-105.5-272.9-105.1-272.6-105.1z M-270.6-108.5h0.3v1.3c0,0.1,0,0.2,0,0.2h0c0,0,0.1-0.5,0.5-0.5c0.4,0,0.7,0.6,0.7,1.4
		c0,0.9-0.3,1.4-0.7,1.4c-0.4,0-0.5-0.5-0.5-0.5h0c0,0,0,0.1,0,0.2v0.2h-0.3V-108.5z M-269.9-105.1c0.3,0,0.5-0.4,0.5-1
		c0-0.6-0.2-1-0.5-1c-0.2,0-0.5,0.3-0.5,1C-270.3-105.6-270.2-105.1-269.9-105.1z M-268.9-104.1c0,0,0.1,0.1,0.2,0.1
		c0.1,0,0.2-0.2,0.3-0.4l0.1-0.3l-0.7-2.7h0.3l0.4,1.8c0,0.2,0.1,0.3,0.1,0.3s0-0.2,0-0.3l0.4-1.8h0.3l-0.8,3.2
		c-0.1,0.4-0.3,0.6-0.5,0.6c-0.2,0-0.3-0.2-0.3-0.2L-268.9-104.1z M-279.8-91.4l0.9-5.1l2.6,2.8l2.6-2.8l0.8,4.5l-2.1,2.6l-0.6-3.7
		l-2.1,2.3l0,1.8L-279.8-91.4z M-273.5-85.3c0-2.3,1.1-4.1,2.4-4.1c0.8,0,1.4,0.6,1.9,1.5l-1.1,1.1c-0.2-0.3-0.5-0.5-0.7-0.5
		c-0.7,0-1.2,0.9-1.2,2c0,1.1,0.5,2,1.2,2c0.4,0,0.8-0.4,1-1l1.3,0.3c-0.3,1.6-1.2,2.8-2.3,2.8C-272.4-81.2-273.5-83.1-273.5-85.3z
		 M-279.6-80l5.8-7.1c-0.1,0.5-0.2,1.1-0.2,1.7c0,1.9,0.6,3.5,1.5,4.3L-279.6-80z M-280-90.6l2.9,3.1l0-2.8l1.3-1.4l0.8,5.1
		l-2.3,2.9l-1.2-1.2l-3.3,4.1L-280-90.6z M-269.4-76.2h0.2v2.5h0.4v0.5h-0.6V-76.2z M-270.4-76.2h0.8v0.5h-0.6v0.6h0.5v0.5h-0.5v0.9
		h0.6v0.5h-0.8V-76.2z M-271.4-73.3h-0.3v-2.9h0.3c0.4,0,0.8,0.5,0.8,1.4C-270.6-73.7-271-73.3-271.4-73.3z M-271.4-75.7
		L-271.4-75.7l0,2h0c0.3,0,0.6-0.3,0.6-1C-270.9-75.5-271.1-75.7-271.4-75.7z M-290.9-74.9l-0.1,1.7h-0.3l0.3-2.9h0.1l0.4,1.9
		l0.4-1.9h0.1l0.3,2.9h-0.3c0,0-0.1-1.3-0.1-1.7l-0.4,1.7h-0.1C-290.6-73.7-290.8-74.6-290.9-74.9z M-287.1-76.2h0.8v0.5h-0.6v0.6
		h0.5v0.5h-0.5v0.9h0.6v0.5h-0.8V-76.2z M-287.7-76.2c0.2,0,0.3,0.2,0.4,0.5l-0.2,0.2c0-0.2-0.1-0.3-0.2-0.3c-0.1,0-0.2,0.1-0.2,0.3
		c0,0.2,0.1,0.3,0.2,0.3l0.1,0.1c0.2,0.2,0.3,0.4,0.3,0.9c0,0.5-0.2,0.9-0.5,0.9c-0.3,0-0.4-0.5-0.5-0.9l0.2-0.1
		c0,0.2,0,0.5,0.2,0.5c0.1,0,0.2-0.2,0.2-0.5c0-0.3-0.1-0.4-0.2-0.5l-0.1-0.1c-0.2-0.1-0.3-0.3-0.3-0.8
		C-288.2-75.9-288-76.2-287.7-76.2z M-286.1-74.7c0-0.8,0.3-1.5,0.7-1.5s0.7,0.7,0.7,1.5c0,0.8-0.3,1.5-0.7,1.5
		C-285.7-73.2-286.1-73.9-286.1-74.7z M-285.8-74.7c0,0.6,0.2,1.1,0.5,1.1c0.3,0,0.5-0.5,0.5-1.1c0-0.6-0.2-1.1-0.5-1.1
		S-285.8-75.3-285.8-74.7z M-289.5-74.3v-1.8h0.2v1.7c0,0.5,0.1,0.8,0.3,0.8s0.3-0.4,0.3-0.8v-1.7h0.2v1.8c0,0.6-0.2,1.1-0.5,1.1
		C-289.3-73.2-289.5-73.7-289.5-74.3z M-273.6-76.2h0.8v0.5h-0.6v0.6h0.5v0.5h-0.5v0.9h0.6v0.5h-0.8V-76.2z M-274.5-76.2h0.2v2.5
		h0.4v0.5h-0.6V-76.2z M-277.2-73.2h-0.2v-2.9h0.1l0.9,1.9v-1.9h0.2v2.9h-0.1l-0.9-2V-73.2z M-279.3-76.2v2.9h-0.2v-2.9H-279.3z
		 M-280.7-76.2h0.9l-0.7,2.5h0.7v0.5h-1l0.7-2.5h-0.6V-76.2z M-279.1-74.7c0-0.8,0.3-1.5,0.7-1.5s0.7,0.7,0.7,1.5
		c0,0.8-0.3,1.5-0.7,1.5C-278.8-73.2-279.1-73.9-279.1-74.7z M-278.9-74.7c0,0.6,0.2,1.1,0.5,1.1c0.3,0,0.5-0.5,0.5-1.1
		c0-0.6-0.2-1.1-0.5-1.1S-278.9-75.3-278.9-74.7z M-283.4-73.2h-0.2v-2.9h0.1l0.9,1.9v-1.9h0.2v2.9h-0.1l-0.9-2V-73.2z M-282-73.2
		h-0.3l0.6-2.9h0.1l0.6,2.9h-0.3l-0.1-0.5h-0.7L-282-73.2z M-281.3-74.2l-0.2-1.1l-0.2,1.1H-281.3z M-275.8-73.2h-0.3l0.6-2.9h0.1
		l0.6,2.9h-0.3l-0.1-0.5h-0.7L-275.8-73.2z M-275.1-74.2l-0.2-1.1l-0.2,1.1H-275.1z M-264.4-76.2h0.8v0.5h-0.6v0.6h0.5v0.5h-0.5v0.9
		h0.6v0.5h-0.8V-76.2z M-265.8-73.2h-0.2v-2.9h0.1l0.9,1.9v-1.9h0.2v2.9h-0.1l-0.9-2V-73.2z M-266.3-76.2v2.9h-0.2v-2.9H-266.3z
		 M-267.2-76.2c0.1,0,0.3,0.1,0.4,0.2v0.6c-0.1-0.2-0.2-0.4-0.4-0.4c-0.3,0-0.5,0.5-0.5,1.1c0,0.6,0.2,1.1,0.5,1.1
		c0.2,0,0.3-0.2,0.4-0.4v0.6c-0.1,0.1-0.2,0.2-0.4,0.2c-0.4,0-0.7-0.7-0.7-1.5C-268-75.5-267.6-76.2-267.2-76.2z M-263.1-74.9
		l-0.1,1.7h-0.3l0.3-2.9h0.1l0.4,1.9l0.4-1.9h0.1l0.3,2.9h-0.3c0,0-0.1-1.3-0.1-1.7l-0.4,1.7h-0.1C-262.8-73.7-263-74.6-263.1-74.9z
		 M-261.6-73.2h-0.3l0.6-2.9h0.1l0.6,2.9h-0.3l-0.1-0.5h-0.7L-261.6-73.2z M-260.9-74.2l-0.2-1.1l-0.2,1.1H-260.9z M-278-72h0.5v0.3
		h-0.2v1.4h-0.1v-1.4h-0.2V-72z M-275.7-72v1.7h-0.1V-72H-275.7z M-274.9-72h0.1v1.7h-0.1l-0.5-1.2v1.2h-0.1V-72h0.1l0.5,1.1V-72z
		 M-274.7-71.2c0-0.5,0.2-0.9,0.4-0.9c0.2,0,0.4,0.4,0.4,0.9c0,0.5-0.2,0.9-0.4,0.9C-274.5-70.3-274.7-70.6-274.7-71.2z
		 M-274.5-71.2c0,0.4,0.1,0.6,0.3,0.6s0.3-0.3,0.3-0.6s-0.1-0.6-0.3-0.6C-274.4-71.8-274.5-71.5-274.5-71.2z M-277.4-71.2
		c0-0.5,0.2-0.9,0.4-0.9s0.4,0.4,0.4,0.9c0,0.5-0.2,0.9-0.4,0.9S-277.4-70.6-277.4-71.2z M-277.3-71.2c0,0.4,0.1,0.6,0.3,0.6
		s0.3-0.3,0.3-0.6s-0.1-0.6-0.3-0.6S-277.3-71.5-277.3-71.2z M-276-71.5c0,0.2-0.1,0.4-0.2,0.5l0.3,0.7h-0.2l-0.2-0.7v0.7h-0.1V-72
		h0.1c0.1,0,0.1,0,0.2,0.1C-276-71.8-276-71.7-276-71.5z M-276.3-71.8v0.5h0c0.1,0,0.2,0,0.2-0.3C-276.1-71.7-276.2-71.8-276.3-71.8
		z"/>
</g>
</svg>
