<?xml version="1.0" encoding="UTF-8" standalone="no"?>
<!DOCTYPE svg PUBLIC "-//W3C//DTD SVG 1.1//EN" "http://www.w3.org/Graphics/SVG/1.1/DTD/svg11.dtd">
<svg width="100%" height="100%" viewBox="0 0 56 38" version="1.1" xmlns="http://www.w3.org/2000/svg" xmlns:xlink="http://www.w3.org/1999/xlink" xml:space="preserve" xmlns:serif="http://www.serif.com/" style="fill-rule:evenodd;clip-rule:evenodd;stroke-linejoin:round;stroke-miterlimit:2;">
    <g transform="matrix(1,0,0,1,-0.252197,-0.426025)">
        <path d="M5.297,6.561L5.549,5.538L4.793,5.027L5.802,5.027L6.054,4.005L6.306,5.027L7.315,5.027L6.558,5.538L6.811,6.561L6.054,5.794L5.297,6.561ZM8.576,6.561L8.828,5.538L8.072,5.027L9.081,5.027L9.333,4.005L9.585,5.027L10.594,5.027L9.837,5.538L10.09,6.561L9.333,5.794L8.576,6.561ZM11.603,6.561L11.855,5.538L11.099,5.027L12.108,5.027L12.612,4.005L12.864,5.027L13.873,5.027L13.117,5.538L13.369,6.561L12.612,5.794L11.603,6.561ZM6.811,8.605L7.063,7.583L6.306,7.072L7.315,7.072L7.567,6.049L7.819,7.072L8.828,7.072L8.072,7.583L8.324,8.605L7.567,8.094L6.811,8.605ZM10.09,8.605L10.342,7.583L9.585,7.072L10.594,7.072L10.846,6.049L11.099,7.072L12.108,7.072L11.351,7.583L11.603,8.605L10.846,8.094L10.09,8.605ZM13.369,8.605L13.621,7.583L12.864,7.072L13.873,7.072L14.126,6.049L14.378,7.072L15.387,7.072L14.63,7.583L14.882,8.605L14.126,8.094L13.369,8.605ZM15.891,5.794L14.882,6.561L15.135,5.538L14.378,5.027L15.387,5.027L15.891,4.005L16.143,5.027L17.152,5.027L16.396,5.538L16.648,6.561L15.891,5.794ZM2.018,9.883L0.252,10.395L0.252,0.426L35.566,0.426L29.26,2.215L2.018,2.215L2.018,9.883ZM0.252,16.274L55.493,0.682L55.493,38L0.252,38L0.252,16.274ZM53.728,36.211L53.728,2.982L2.018,17.807L2.018,36.211L53.728,36.211ZM34.557,31.61L33.801,29.054L29.008,29.054L28.251,31.61L26.233,31.61L30.774,19.341L32.287,19.341L36.828,31.61L34.557,31.61ZM31.278,22.152L29.512,27.52L33.296,27.52L31.278,22.152ZM20.684,31.866C19.423,31.866 18.414,31.354 17.405,30.587C16.143,29.309 16.143,28.031 16.143,25.731C16.143,23.43 16.143,21.897 17.405,20.875C18.414,19.852 19.423,19.341 20.684,19.341C22.954,19.341 24.468,20.619 24.972,23.175L23.206,23.175C22.954,21.897 22.197,21.13 20.684,21.13C19.927,21.13 19.423,21.386 18.918,21.897C18.414,22.664 18.162,23.175 18.162,25.731C18.162,28.287 18.414,28.798 18.918,29.565C19.423,30.076 19.927,30.332 20.684,30.332C21.945,30.332 22.954,29.565 23.206,28.287L24.972,28.287C24.72,30.332 22.954,31.866 20.684,31.866ZM7.063,31.61L7.063,19.341L14.882,19.341L14.882,21.13L8.828,21.13L8.828,24.709L13.873,24.709L13.873,26.242L8.828,26.242L8.828,29.821L14.63,29.821L14.63,31.61L7.063,31.61ZM47.169,31.61L47.169,23.43L44.395,29.565L42.881,29.565L40.107,23.686L40.107,31.866L38.341,31.866L38.341,19.341L40.107,19.341L43.638,27.009L47.169,19.341L48.935,19.341L48.935,31.61L47.169,31.61Z" style="fill:white;"/>
    </g>
</svg>
