<?xml version="1.0" encoding="UTF-8" standalone="no"?><!DOCTYPE svg PUBLIC "-//W3C//DTD SVG 1.1//EN" "http://www.w3.org/Graphics/SVG/1.1/DTD/svg11.dtd"><svg width="100%" height="100%" viewBox="0 0 432 190" version="1.1" xmlns="http://www.w3.org/2000/svg" xmlns:xlink="http://www.w3.org/1999/xlink" xml:space="preserve" xmlns:serif="http://www.serif.com/" style="fill-rule:evenodd;clip-rule:evenodd;stroke-linejoin:round;stroke-miterlimit:2;"><path d="M198.345,1.664l0,114.689c0,1.068 1.155,1.735 2.08,1.201l99.324,-57.344c0.924,-0.534 0.924,-1.868 0,-2.402l-99.324,-57.345c-0.924,-0.534 -2.08,0.133 -2.08,1.201" style="fill:#dce1d6;fill-rule:nonzero;"/><path d="M211.949,130.589c-0.66,-0.381 -0.66,-1.326 0,-1.707l83.633,-48.285c0.487,-0.28 0.642,-0.387 0.903,-0.392c0.364,-0.008 0.799,0.223 0.93,0.559c0.091,0.236 0.095,0.304 0.095,0.886l0,96.761c0,0.577 -0.47,0.857 -0.987,0.857c-0.165,0 -0.332,-0.042 -0.491,-0.134l-84.083,-48.545Zm89.975,-59.683c-0.165,0 -0.334,0.042 -0.493,0.134l-100.285,57.899c-0.66,0.381 -0.66,1.333 0,1.714l100.285,57.9c0.159,0.092 0.328,0.134 0.493,0.134c0.517,0 0.991,-0.414 0.991,-0.991l0,-115.799c0,-0.578 -0.474,-0.991 -0.991,-0.991" style="fill:#dce1d6;fill-rule:nonzero;"/><path d="M314.64,36.247l14.435,0l0,6.591l-8.788,0l0,11.962l6.957,0l0,6.895l-6.957,0l0,19.957l-6.897,0l0,-44.155c0,-0.839 0.717,-1.25 1.25,-1.25" style="fill:#dce1d6;fill-rule:nonzero;"/><rect x="331.517" y="36.247" width="6.896" height="45.405" style="fill:#dce1d6;"/><path d="M348.544,36.247l0,38.386l8.422,0l0,7.019l-15.318,0l0,-45.405l6.896,0Z" style="fill:#dce1d6;fill-rule:nonzero;"/><path d="M359.407,36.247l8.849,0l3.296,23.984l3.356,-23.984l8.239,0l0,45.405l-6.469,0l0,-29.355l-4.15,29.355l-2.746,0l-4.211,-29.355l0,29.355l-6.164,0l0,-45.405Z" style="fill:#dce1d6;fill-rule:nonzero;"/><path d="M313.211,89.636l8.849,0l3.296,23.984l3.356,-23.984l8.239,0l0,45.405l-6.469,0l0,-29.355l-4.15,29.355l-2.746,0l-4.211,-29.355l0,29.355l-6.164,0l0,-45.405Z" style="fill:#dce1d6;fill-rule:nonzero;"/><path d="M346.652,119.723l3.601,0l-1.831,-16.783l-1.77,16.783Zm4.333,6.774l-5.065,0l-0.854,8.544l-6.164,0l5.553,-45.405l8.178,0l5.919,45.405l-6.652,0l-0.915,-8.544Z" style="fill:#dce1d6;fill-rule:nonzero;"/><path d="M367.219,128.449l1.648,0c2.136,0 2.685,-1.099 2.685,-3.54l0,-25.57c0,-2.625 -0.671,-3.54 -2.38,-3.54l-1.953,0l0,32.65Zm-6.896,-38.813l10.558,0c5.919,0 7.75,3.356 7.75,8.726l0,27.646c0,5.615 -2.075,9.032 -7.75,9.032l-10.558,0l0,-45.404Z" style="fill:#dce1d6;fill-rule:nonzero;"/><path d="M388.641,108.31l1.831,0c1.892,0 2.502,-1.221 2.502,-3.234l0,-6.347c0,-1.953 -0.366,-2.93 -2.502,-2.93l-1.831,0l0,12.511Zm0,26.73l-6.896,0l0,-45.404l11.168,0c4.638,0 6.896,1.892 6.896,7.018l0,8.056c0,3.783 -1.77,5.309 -2.99,5.797c1.526,0.671 2.99,1.831 2.99,4.943l0,15.929c0,1.892 0.366,2.685 0.671,3.356l0,0.305l-6.834,0c-0.306,-0.488 -0.672,-1.282 -0.672,-3.723l0,-13.669c0,-2.015 -0.366,-2.869 -2.563,-2.869l-1.77,0l0,20.261Z" style="fill:#dce1d6;fill-rule:nonzero;"/><rect x="402.861" y="89.635" width="6.896" height="45.405" style="fill:#dce1d6;"/><path d="M419.889,128.449l1.648,0c2.136,0 2.685,-1.099 2.685,-3.54l0,-25.57c0,-2.625 -0.671,-3.54 -2.38,-3.54l-1.953,0l0,32.65Zm-6.896,-38.813l10.558,0c5.919,0 7.75,3.356 7.75,8.726l0,27.646c0,5.615 -2.075,9.032 -7.75,9.032l-10.558,0l0,-45.404Z" style="fill:#dce1d6;fill-rule:nonzero;"/><path d="M320.287,161.694l1.831,0c1.892,0 2.502,-1.22 2.502,-3.234l0,-6.347c0,-1.953 -0.366,-2.93 -2.502,-2.93l-1.831,0l0,12.511Zm0,26.73l-6.896,0l0,-45.404l11.168,0c4.638,0 6.896,1.892 6.896,7.018l0,8.056c0,3.783 -1.77,5.309 -2.99,5.797c1.526,0.671 2.99,1.831 2.99,4.943l0,15.929c0,1.892 0.366,2.685 0.671,3.356l0,0.305l-6.834,0c-0.306,-0.488 -0.672,-1.282 -0.672,-3.723l0,-13.669c0,-2.015 -0.366,-2.869 -2.563,-2.869l-1.77,0l0,20.261Z" style="fill:#dce1d6;fill-rule:nonzero;"/><path d="M350.191,143.02l0,6.591l-8.788,0l0,11.9l6.896,0l0,6.896l-6.896,0l0,13.122l9.154,0l0,6.896l-16.05,0l0,-45.405l15.684,0Z" style="fill:#dce1d6;fill-rule:nonzero;"/><path d="M359.102,189.034c-4.089,0 -6.591,-3.6 -6.591,-8.3l0,-28.378c0,-5.065 1.892,-9.764 8.483,-9.764l1.343,0c7.384,0 8.238,4.821 8.238,10.191l0,4.639l-6.713,0l0,-5.126c0,-2.014 -0.488,-3.113 -2.197,-3.113c-1.403,0 -2.136,1.038 -2.136,3.113l0,26.547c0,2.135 0.733,3.234 2.258,3.234c1.77,0 2.563,-1.221 2.563,-2.93l0,-11.351l-3.112,0l0,-6.957l9.642,0l0,27.585l-3.906,0c-0.06,-0.245 -0.61,-2.503 -1.159,-4.455c-0.488,1.525 -2.807,5.065 -6.286,5.065l-0.427,0Z" style="fill:#dce1d6;fill-rule:nonzero;"/><rect x="373.933" y="143.019" width="6.896" height="45.405" style="fill:#dce1d6;"/><path d="M395.72,152.662c0,-2.319 -0.793,-3.479 -2.38,-3.479c-1.77,0 -2.441,1.099 -2.441,3.479l0,26.12c0,1.952 0.549,3.478 2.502,3.478c1.892,0 2.319,-1.526 2.319,-3.478l0,-26.12Zm7.018,25.631c0,6.347 -2.136,10.68 -8.788,10.68l-1.16,0c-6.59,0 -8.909,-4.333 -8.909,-10.68l0,-25.265c0,-6.347 2.319,-10.436 8.849,-10.436l1.159,0c6.713,0 8.849,4.15 8.849,10.375l0,25.326Z" style="fill:#dce1d6;fill-rule:nonzero;"/><path d="M412.016,143.02l5.919,24.35l0,-24.35l6.286,0l0,44.188c0,0.672 -0.589,1.217 -1.249,1.217l-4.365,0l-6.591,-26.12l0,26.12l-6.225,0l0,-45.405l6.225,0Z" style="fill:#dce1d6;fill-rule:nonzero;"/><rect x="0.125" y="0.125" width="187.822" height="187.836" style="fill:#dce1d6;"/><path d="M188.072,0l-188.072,0l0,188.086l188.072,0l0,-188.086Zm-0.25,187.836l-187.572,0l0,-187.586l187.572,0l0,187.586Z" style="fill:#dce1d6;fill-rule:nonzero;"/><path d="M35.352,63.344l-3.803,11.862l-12.446,0.159l10.105,7.195l-3.654,11.608l9.798,-7.137l9.945,6.987l-3.803,-11.597l9.919,-7.365l-12.212,0.15l-3.849,-11.862Z" style="fill:#fff;fill-rule:nonzero;"/><path d="M74.525,63.344l-3.803,11.862l-12.441,0.159l10.092,7.195l-3.654,11.608l9.806,-7.137l9.91,6.987l-3.775,-11.597l9.93,-7.365l-12.242,0.15l-3.823,-11.862Z" style="fill:#fff;fill-rule:nonzero;"/><path d="M113.85,63.344l-3.814,11.862l-12.416,0.159l10.088,7.195l-3.637,11.608l9.779,-7.137l9.919,6.987l-3.776,-11.597l9.936,-7.365l-12.205,0.15l-3.874,-11.862Z" style="fill:#fff;fill-rule:nonzero;"/><path d="M94.059,90.394l-3.784,11.864l-12.457,0.15l10.095,7.206l-3.663,11.606l9.809,-7.126l9.936,6.976l-3.775,-11.612l9.91,-7.356l-12.231,0.156l-3.84,-11.864Z" style="fill:#fff;fill-rule:nonzero;"/><path d="M54.829,90.394l-3.811,11.864l-12.421,0.15l10.08,7.206l-3.654,11.606l9.806,-7.126l9.917,6.976l-3.804,-11.612l9.939,-7.356l-12.203,0.156l-3.849,-11.864Z" style="fill:#fff;fill-rule:nonzero;"/><path d="M133.455,90.394l-3.801,11.864l-12.429,0.15l10.094,7.206l-3.637,11.606l9.773,-7.126l9.943,6.976l-3.8,-11.612l9.931,-7.356l-12.189,0.156l-3.885,-11.864Z" style="fill:#fff;fill-rule:nonzero;"/><path d="M153.132,63.344l-3.788,11.862l-12.43,0.159l10.089,7.195l-3.657,11.608l9.786,-7.137l9.93,6.987l-3.794,-11.597l9.936,-7.365l-12.2,0.15l-3.872,-11.862Z" style="fill:#fff;fill-rule:nonzero;"/></svg>