<?xml version="1.0" encoding="utf-8"?>
<!-- Generator: Adobe Illustrator 22.0.1, SVG Export Plug-In . SVG Version: 6.00 Build 0)  -->
<svg version="1.1" id="Capa_1" xmlns="http://www.w3.org/2000/svg" xmlns:xlink="http://www.w3.org/1999/xlink" x="0px" y="0px"
	 viewBox="0 0 415.5 208.1" style="enable-background:new 0 0 415.5 208.1;" xml:space="preserve">
<style type="text/css">
	.st0{fill:#DCE1D6;}
</style>
<path class="st0" d="M415.5,0.1v208h-208V0.1H415.5z M334.7,152.7c-0.7-0.5-1.5-2.2-0.9-2.9c0.2-0.4,0.8-0.7,0.7-1.2
	c-0.1-1.1-2.1,0.1-2.4,1.4c-0.7,1.9-2.9,3.2-2.9,3.2c-0.3,0.3-0.4,1.1-0.4,1.1c0,1.5,0.9,0.4,0.9,0.4c1.4-1,2.3-1.7,2.3-1.7
	c2.5,4.6-1.3,5.8-1.3,5.8c-0.5,0.2-0.6,0.4-0.6,0.7c0,0.4,0.6,0.4,0.6,0.4c5.9,0.1,6.4-3.4,6.4-3.4
	C337.4,154.8,335.7,153.2,334.7,152.7z M324,150.7c-0.9-2-1.7-0.3-1.7-0.3c-0.6,1.7-4.6,6.2-5.4,7c-3.3,2.9-2.2,1.1-2.4-0.2
	c0,0,0.1-2.4,0.8-2.9c0,0,0.4,0.1,0.6-1.3c0,0,0.8-1.9-1.4-2.2c0,0-1.4-1-2.2,1.9c0,0-1.2,5.4,0.5,7.8c0,0,0.9,1.6,5.4-2.8
	c1.5-1.6,3.9-4.3,3.9-4.3c2.5,4.6-1.3,5.8-1.3,5.8c-1.4,0.9,0,1.2,0,1.2c6,0.1,6.4-3.5,6.4-3.5C327.4,154.2,324,150.7,324,150.7z
	 M349.4,163.2c-0.7,0-1.1,0.1-1.2,0.4c-0.3,0.4-0.4,0.8,0.9,0.9c0.6,0,1.6,0,1.6,0.5c0,0.8,1.5,0.8,2.2,0.8c0.6,0,1-0.1,1.7-0.2
	c1.2-0.3,1.9-0.9,1.8-1.4c-0.2-0.6-1.7-0.6-2.7-0.6C351.9,163.4,350.5,163.4,349.4,163.2z M357.2,125.2c12.5,0,19.4-7.2,19.4-18.5
	V73.5c0-11.2-6.9-19.2-19.4-19.2h-20.4v70.9C336.8,125.2,357.2,125.2,357.2,125.2z M363.2,73.6v32.5c0,5-2.1,7.8-7,7.8h-6.3V65.7
	h6.3C361.1,65.7,363.2,68.5,363.2,73.6z M283.9,169.1c-1.7-2.6-5.6-8.7-6.1-10.3c0,0-0.3-0.8-0.6-1.2h1.4c0,0,3.3-0.1,4.7-2.7
	c0.4-0.7,1.1-3.2-1.7-6.2c0,0-3.7-4.3-11.8-4.8c0,0-2.2-1.1-6.5,2.4c0,0-1.7,1.2-0.7,1.6c0.4,0.1,0.7,0.1,1.1,0
	c0,0,6.9-2.3,15.4,2.6c0,0,3.4,2.2,1.2,4.2c0,0-0.8,0.9-2.9,1.3c0,0-0.5,0.1-1.5,0.2c0,0-0.5,0-1.2,0.1c0,0-0.9,0-0.9,0.2
	c-0.1,0.1,0.1,0.2,0.6,0.4c-0.9,0.1-1.2,0.2-1.4,0.5c0,0-0.2,0.2-0.1,0.4c0.6,1.5,3,7.1,8.2,12c-2,0.6-3.1,1-3.1,1
	c-0.9,0.2-1,0.6-1.2,0.7c-0.7,0.9,1.8,0.4,1.8,0.4c1.4-0.3,2.7-0.5,4-0.7c0.8,0.6,3.5,2.6,4.1,1.9c0.3-0.2-0.4-1.1-1.4-2.4
	c27.7-4.6,41.4-3.9,41.4-3.9c5.7,0.4,4.4-1,4.4-1c15.5,0.3,11.6-1.2,11.6-1.2c1.7,0,2.1-0.1,2.1-0.1c1.2-0.1,1.9-0.1,2.2-0.6
	c0.6-0.9-1.6-0.9-1.6-0.9C317.2,161.6,294.4,166.4,283.9,169.1z M361.8,158.4c-1-0.6-3.7-6.1-3.7-6.1c-0.6-0.9-1.7,0.2-1.7,0.2
	c-0.7,0.6-1.7,2.4-2.2,3.4c-0.7,1.2-0.5-0.4-0.5-0.4c0-0.4,0.1-1.1,0.6-1.4c0,0,0.4,0.3,0.8-1.1c0,0,0.8-1.9-1.2-2.4
	c0,0-1.4-1.1-2.3,1.7c0,0-1.3,4-0.7,6.5c0,0,0.2,2.9,2.7,0.6c0.3-0.2,0.5-0.6,0.8-0.9c0.5-0.8,0.6-1.1,1-1.9
	c0.6-1.4,1.7-2.7,1.9-2.9c-0.1,1.6,1.8,6,1.8,6c0.6,2.2,1.7,2.2,1.7,2.2C366.2,162.2,361.8,158.4,361.8,158.4z M296.7,159.8
	c0,0,0-0.1-0.1-0.1c-0.1-0.1-0.9,0.2-1.7,0.7c-0.1,0.1-0.3,0.2-0.4,0.2c-0.3,0.1-0.6,0.3-0.6,0.4c0,0-0.5,0.4-0.5-0.5v-0.1
	c0.1-0.1,0.1-0.4,0.1-0.7c0,0,0.7-2.7,1-3.4c0,0,0.1-0.7,0.4-1.6c0,0,1.2-1.2-1-1.6c0,0-1-2.5-2.1,1.4c-0.1-0.4-0.5-1-1.1-1.3
	c-0.1-0.1-0.3-0.1-0.5-0.1c-0.1,0-0.1,0.1-0.3,0c0,0-1.1-0.4-2.2,1c-1.2,1.3-4.6,5.4-3.8,8.8c0,0,0.4,1.7,2,1.7c0,0,2.1,0.1,3.7-1.4
	c0,0,0.4-0.4,0.9-1.1c0.1,0.2,0.1,0.5,0.1,0.7v0.1c0,0,0.1,0.4,0.4,0.6c0.2,0.2,0.6,0.4,1.2,0.4c0.1-0.1,0.1-0.1,0.2-0.1
	c0,0,2.2-0.6,2.2-1.5c-0.1-0.4,0.1-0.5,0.1-0.5s0.1-0.1,0.1-0.3C295,161.7,296.8,160.4,296.7,159.8z M290.4,161.1
	c-0.1,0.3-0.4,0.6-0.8,0.9c0,0-2.4,1.4-2.4-0.6c0,0,0.1-1.2,0.5-2.2c0,0,1.1-2.8,2.8-4.4c0.1-0.1,0.3-0.1,0.4-0.1
	c0.2,0.4,0.3,0.7,0.4,1c0.1,0.1,0.1,0.2,0.1,0.3c-0.2,1-0.7,3-0.8,4.5C290.6,160.6,290.5,160.9,290.4,161.1z M280.9,125.5h8v-3.9
	c-1.6-1.7-2.6-3.9-2.6-7.2v-13c0-4.6-2.7-9.3-8.2-10.8c5.5-1.7,8-5.6,8-11v-10c0-9.9-6.5-15.4-16.2-15.4h-21.7v70.9h13.2V95.7h6.9
	c3.7,0,5.4,2.8,5.4,6.1v13.3C273.7,121.2,275.7,125.5,280.9,125.5z M273.3,70.2v10.1c0,3.8-1.8,5.6-5.2,5.6h-6.7V65.1h7.2
	C271.9,65.1,273.3,67,273.3,70.2z M296.6,125.2h33.9v-11.8h-20.6V93.7h14.3V83.2h-14.3V65.7h20.6V54.3h-33.9V125.2z M309.2,139.8
	c0,0-1.9-2.4-1.6,0.4c0,0,0.3,5.8-0.7,13.1c-0.1-0.3-0.2-0.6-0.4-0.9c0,0-1.6-2.2-3.5-1.6c0,0-2.4,0.7-3.8,4.4c0,0-1,2.4-0.7,4.4
	c0,0-0.1,4.9,6,1.4c0,0,0.6-0.4,1.4-1.2c-0.1,0.6-0.4,1-0.4,1.7c0,0-0.2,1.3,0.4,1.6c0.2,0.1,0.4-0.1,0.9-1.4c0,0,4.3-10.9,4.5-15.4
	C311.2,146.4,312.7,144.1,309.2,139.8z M301.8,159.6c0,0-0.5-0.3-0.4-1.6c0,0,0.1-2.3,1.7-4.1c0,0,0.4-0.6,0.8-0.6
	c0.1,0,0.4,0.1,0.4,0.9c0,0.1-0.5,0.2-0.3,0.8c0,0,0.8,2.1,2.6,1.1c-0.1,0.4-0.1,0.9-0.3,1.3C305.4,158.4,303.4,160.7,301.8,159.6z
	 M343.3,149.9c0,0-4.1,6.1-4,8.1c0,0-0.2,1.9,1.9,1.8c0,0,2.1-0.1,3.7-1.4c0,0,1-1,1.6-1.1c0,0,1.4,0.1,0.9-1.7c0,0-0.4-2.1-1-2.9
	c0,0-0.4-0.9-1-0.6c0,0-0.6,0.2-0.4,1.2l0.3,0.9c0,0,0.6,2,0.2,2.1c0,0-0.1,0-0.4,0.2c-0.1,0.1-0.4,0.4-0.6,0.6c0,0-1.9,1.2-1.4-0.5
	c0,0,0.2-1.1,0.5-1.7c0,0,1-2.9,2.2-4.5c0,0,1.1-1.4-0.3-1.2c-0.1,0-0.3,0.1-0.4,0C345.1,149.2,344.3,148.6,343.3,149.9z"/>
<rect x="37.7" y="116.8" class="st0" width="14.3" height="3.6"/>
<polygon class="st0" points="68.6,116.8 68.6,96.2 67.4,102.4 64.4,116.8 60.4,116.8 57.5,102.4 56.4,96.2 56.4,116.8 51.7,116.8 
	51.7,88.4 58.8,88.4 61.8,102.8 62.6,108 63.6,102.8 66.5,88.4 73.5,88.4 73.5,116.8 "/>
<path class="st0" d="M87.4,116.8l-0.9-5.6h-5l-1,5.6h-4.9l5.7-28.3h5.9l5.7,28.3H87.4z M84.1,96.1L82.2,107h3.6L84.1,96.1z"/>
<path class="st0" d="M102.9,116.8h-8.2V88.4h8.2c5,0,7.7,3.2,7.7,7.7v13.3C110.7,113.9,107.9,116.8,102.9,116.8 M105.3,96.1
	c0-2-0.9-3.1-2.8-3.1H100v19.2h2.5c2,0,2.8-1.1,2.8-3.1V96.1z"/>
<path class="st0" d="M127.1,116.9c-2.1,0-2.9-1.7-2.9-4.2v-5.3c0-1.3-0.7-2.4-2.2-2.4h-2.8v11.7H114V88.4h8.7c3.9,0,6.5,2.2,6.5,6.2
	v4c0,2.1-1,3.7-3.2,4.4c2.2,0.6,3.3,2.5,3.3,4.3v5.2c0,1.3,0.4,2.2,1,2.9v1.6H127.1z M124,94.8c0-1.3-0.6-2-1.9-2h-2.9v8.3h2.7
	c1.4,0,2.1-0.7,2.1-2.3V94.8z"/>
<rect x="132.7" y="88.4" class="st0" width="5.3" height="28.3"/>
<path class="st0" d="M149.8,116.8h-8.2V88.4h8.2c5,0,7.7,3.2,7.7,7.7v13.3C157.6,113.9,154.8,116.8,149.8,116.8 M152.2,96.1
	c0-2-0.9-3.1-2.8-3.1h-2.5v19.2h2.5c2,0,2.8-1.1,2.8-3.1V96.1z"/>
</svg>
