<?xml version="1.0" encoding="UTF-8" standalone="no"?>
<!DOCTYPE svg PUBLIC "-//W3C//DTD SVG 1.1//EN" "http://www.w3.org/Graphics/SVG/1.1/DTD/svg11.dtd">
<svg width="100%" height="100%" viewBox="0 0 323 208" version="1.1" xmlns="http://www.w3.org/2000/svg" xmlns:xlink="http://www.w3.org/1999/xlink" xml:space="preserve" xmlns:serif="http://www.serif.com/" style="fill-rule:evenodd;clip-rule:evenodd;stroke-linejoin:round;stroke-miterlimit:2;">
    <g id="Artboard1" transform="matrix(0.746454,0,0,1,0,0)">
        <rect x="0" y="0" width="432" height="208" style="fill:none;"/>
        <clipPath id="_clip1">
            <rect x="0" y="0" width="432" height="208"/>
        </clipPath>
        <g clip-path="url(#_clip1)">
            <g transform="matrix(2.28544,0,0,1.70598,292.852,36.8213)">
                <path d="M0,82.368C0.003,82.747 1.882,82.105 2.275,83.442L3.336,99.708C3.966,100.403 5.033,100.479 5.505,99.578C7.404,96.216 9.893,93.179 11.853,89.868C13.357,87.326 17.304,80.399 11.21,81.863C9.463,83.922 12.357,85.546 12.406,85.771C12.704,87.146 7.618,95.351 6.457,96.833C6.244,97.105 6.466,97.449 5.693,97.255L5.02,81.533L0,82.368ZM-63.854,75.888L-65.4,81.537L-68.582,82.37L-65.574,82.538C-64.952,83.084 -69.784,95.442 -68.847,98.692C-68.189,100.974 -63.16,99.911 -61.894,98.426C-63.69,98.355 -66.185,99.444 -66.245,96.762L-62.864,82.568L-58.883,82.534C-58.339,82.121 -58.889,81.928 -59.377,81.865C-59.978,81.789 -62.432,81.985 -62.56,81.864L-60.889,75.513L-63.854,75.888ZM54.237,75.878L52.834,81.833L49.856,81.868C48.61,82.82 52.421,82.434 52.53,82.537C52.207,88.371 43.276,104.949 56.544,98.59L53.098,98.529L52.015,97.104L55.21,82.538C55.501,82.239 58.937,83.069 59.556,82.032L55.544,81.864L57.214,75.511L54.237,75.878ZM-92.333,82.366C-91.202,83.033 -91.763,85.822 -92.176,86.88C-93.228,89.581 -96.66,90.712 -99.365,90.563C-99.53,87.912 -95.532,80.481 -92.333,82.366M-91.995,96.412C-97.374,102.119 -101.477,97.162 -99.384,91.048C-96.022,90.989 -90.349,90.342 -89.219,86.494C-87.699,81.313 -93.278,80.513 -96.924,82.466C-103.497,85.988 -106.529,101.219 -96.177,99.94C-93.846,99.652 -92.591,97.496 -91.003,96.081C-90.768,95.52 -91.46,95.405 -91.663,95.586C-91.708,95.627 -91.748,96.15 -91.995,96.412M25.77,82.365C28.313,87.107 23.414,91.053 18.741,90.563C18.757,88.072 22.658,80.518 25.77,82.365M18.719,91.046C23.01,91.077 30.019,89.848 29.092,84.06C28.855,82.58 27.64,81.763 26.238,81.563C18.963,80.525 14.269,89.642 15.542,95.937C16.786,102.089 25.37,100.743 27.101,95.584C21.903,101.832 16.917,98.62 18.719,91.046M31.788,81.866C31.903,82.592 33.276,82.308 33.64,82.856C33.906,83.256 33.827,83.889 33.801,84.364L30.116,99.596L33.081,99.555L36.057,86.303C37.348,84.253 42.976,81.26 43.135,85.406C43.259,88.624 39.035,96.632 40.319,99.266C40.93,100.521 44.271,99.815 45.503,99.595C45.138,98.897 43.848,99.473 43.156,98.771C42.837,98.447 42.826,98.189 42.798,97.765C42.566,94.222 50.324,80.668 42.029,81.553C39.696,81.802 38.4,83.871 36.475,84.877C36.269,83.842 37.009,82.933 37.145,82.035C37.3,81.014 36.743,81.862 36.639,81.866C35.027,81.932 33.398,81.819 31.788,81.866M-86.651,81.866C-86.436,82.601 -84.885,82.222 -84.463,82.856C-84.238,83.194 -84.27,83.633 -84.296,84.024L-87.99,99.597L-84.992,99.583L-82.109,86.241C-80.18,83.83 -74.867,81.026 -75.278,86.379C-75.49,89.14 -78.923,97.109 -78.113,98.921C-77.364,100.594 -74.383,99.856 -72.935,99.595C-73.168,98.935 -74.371,99.382 -75.052,98.957C-75.408,98.735 -75.524,98.223 -75.505,97.823C-75.34,94.369 -68.351,81.074 -75.766,81.518C-76.656,81.571 -77.738,82.045 -78.522,82.466C-79.068,82.76 -81.681,85.16 -81.967,84.874C-81.791,83.961 -81.171,82.844 -80.969,82.026C-80.728,81.047 -81.422,81.864 -81.465,81.866C-83.186,81.946 -84.931,81.808 -86.651,81.866M-17.394,72.498L-14.533,73.483L-14.094,74.073L-19.382,97.443L-20.43,98.737L-23.417,99.598L-3.677,99.598L-1.671,91.905C-2.381,91.751 -2.432,92.264 -2.732,92.681C-3.693,94.016 -4.651,96.147 -5.854,97.254C-6.285,97.651 -8.429,98.929 -8.863,98.929L-16.391,98.929L-13.347,85.58C-9.15,85.013 -7.627,86.37 -7.688,90.565C-7.346,90.564 -7.21,90.261 -7.111,89.975C-6.142,87.166 -5.894,83.448 -5.017,80.53C-5.912,80.342 -5.592,80.766 -5.846,81.19C-8.029,84.83 -8.272,85.261 -13.043,84.875L-10.324,72.876C-8.36,72.835 -4.162,72.637 -2.588,73.829C-1.29,74.812 -1.109,77.904 -0.676,79.371C-0.531,79.861 -0.862,79.952 0.001,79.86L1.342,72.498L-17.394,72.498ZM-49.011,95.92C-50.31,92.244 -48.073,88.123 -44.605,86.584C-44.158,86.479 -44.087,86.865 -43.87,87.095C-42.953,88.066 -40.32,94.129 -40.548,95.327C-40.606,95.63 -41.038,96.201 -41.268,96.469C-43.452,99.024 -47.737,99.529 -49.011,95.92M-37.838,75.042C-36.251,77.547 -38.488,83.39 -41.373,84.507C-42.433,84.603 -43.431,80.568 -43.491,79.685C-43.587,78.259 -43.14,75.933 -42.049,74.945C-41.043,74.034 -38.663,73.739 -37.838,75.042M-30.976,85.89C-34.378,85.457 -35.924,89.931 -37.65,91.89C-37.986,92.271 -37.937,92.347 -38.311,91.909L-41.125,85.412C-41.001,84.886 -35.694,82.758 -34.937,79.548C-33.413,73.082 -41.481,71.91 -44.633,76.207C-47.109,79.583 -46.012,82.622 -44.829,86.213C-48.064,86.918 -52.004,89.561 -52.495,93.104C-53.153,97.84 -50.932,100.788 -45.999,100.266C-43.262,99.977 -42.13,97.734 -40.149,96.254C-39.306,99.248 -37.795,100.997 -34.447,100.109C-33.792,99.936 -30.906,97.808 -31.45,97.257C-34.383,100.741 -38.302,96.173 -37.752,93.154C-37.5,91.771 -34.296,88.33 -32.95,87.556L-32.366,90.148C-29.186,91.731 -27.65,86.313 -30.976,85.89M-114.93,73.161C-114.292,72.314 -109.76,73.335 -108.892,74.163C-106.323,76.617 -108.666,82.766 -111.297,84.488C-113.319,85.812 -115.458,85.574 -117.765,85.545L-114.93,73.161ZM-121.781,72.498L-119.12,73.354L-118.587,74.328L-123.551,96.322L-124.466,98.419L-128.138,99.598L-117.097,99.598L-120.394,98.548C-121.123,97.408 -118.025,88.241 -118.086,86.231C-107.78,85.31 -112.178,91.946 -111.426,97.775C-111.05,100.69 -106.742,99.819 -104.719,99.93C-105.105,99.279 -106.305,99.581 -107.046,99.083C-108.981,97.78 -107.561,93.181 -107.734,91.069C-107.979,88.093 -109.696,86.276 -112.746,86.212L-106.894,83.538C-102.583,79.556 -103.546,73.354 -109.904,72.498C-113.499,72.014 -118.074,72.857 -121.781,72.498M50.321,62.09C64.46,60.512 62.517,38.384 47.773,39.804C33.227,41.204 35.267,63.77 50.321,62.09M9.037,-19.844L9.037,10.77C9.037,14.619 2.702,18.967 -0.833,18.967L-40.48,18.967L-40.48,61.123L-18.063,61.123L-18.063,36.364L-8.194,36.364L8.535,61.123L34.13,61.123L15.08,32.884C22.571,29.096 28.548,23.72 30.62,15.289C30.836,14.41 31.453,11.805 31.453,11.104L31.453,-19.844L9.037,-19.844ZM-85.714,-21.416C-70.804,-22.581 -55.972,-17.737 -47.495,-4.956L-64.072,8.245C-69.64,0.598 -79.474,-3.538 -88.652,0.069C-95.514,2.766 -100.385,10.202 -101.032,17.466C-103.179,41.58 -77.76,51.253 -63.4,32.382L-46.856,44.271C-46.664,44.91 -49.272,47.896 -49.856,48.568C-69.906,71.596 -110.242,65.648 -121.274,36.694C-131.467,9.938 -114.605,-19.16 -85.714,-21.416" style="fill:rgb(220,225,214);fill-rule:nonzero;"/>
            </g>
        </g>
    </g>
</svg>
