<svg width="170" height="38" viewBox="0 0 170 38" fill="none" xmlns="http://www.w3.org/2000/svg">
<path fill-rule="evenodd" clip-rule="evenodd" d="M37.5726 0.426025V37.7444H0.745117V0.426025H37.5726ZM11.5916 18.3184L10.8348 20.6189H8.31241L10.3304 22.1525L9.57363 24.4529L11.5916 22.9193L13.6095 24.1973L12.8528 22.1525L14.8707 20.6189H12.6006L11.5916 18.3184ZM19.1589 18.3184L18.4021 20.6189H15.8797L17.8977 22.1525L17.3932 24.4529L19.4111 22.9193L21.4291 24.1973L20.4201 22.1525L22.438 20.6189H20.1678L19.1589 18.3184ZM30.7621 12.9507L30.0053 15.2511H27.4829L29.5008 16.7848L28.7441 19.0852L30.7621 17.8072L32.78 19.0852L31.771 16.7848L33.789 15.2511H31.5188L30.7621 12.9507ZM26.7262 18.3184L25.9694 20.6189H23.447L25.465 22.1525L24.9605 24.4529L26.9784 22.9193L28.9964 24.1973L27.9874 22.1525L30.0053 20.6189H27.7351L26.7262 18.3184ZM22.9425 12.9507L22.1858 15.2511H19.6634L21.6813 16.7848L20.9246 19.0852L22.9425 17.8072L24.9605 19.0852L24.2037 16.7848L26.2217 15.2511H23.9515L22.9425 12.9507ZM7.80793 12.9507L7.0512 15.2511H4.52877L6.54671 16.7848L5.78998 19.0852L7.80793 17.8072L9.82587 19.0852L9.06914 16.7848L11.0871 15.2511H8.8169L7.80793 12.9507ZM15.3752 12.9507L14.6185 15.2511H12.0961L14.114 16.7848L13.3573 19.0852L15.3752 17.8072L17.3932 19.0852L16.6364 16.7848L18.6544 15.2511H16.3842L15.3752 12.9507ZM57.4998 6.56055C57.4998 6.04934 56.9954 4.26011 54.9774 4.26011C52.7072 4.26011 52.2027 6.30495 52.2027 8.34979C52.2027 10.3946 52.9595 12.4395 54.9774 12.4395C56.4909 12.4395 57.2476 11.4171 57.4998 9.88343H62.0402C62.0402 12.9507 59.5178 16.2736 55.2297 16.2736C50.437 16.2736 47.6624 12.6951 47.6624 8.34979C47.6624 3.49329 50.6893 0.426025 55.2297 0.426025C59.2655 0.426025 61.788 2.72647 62.0402 6.56055H57.4998ZM69.6075 16.2736C65.5716 16.2736 63.5537 13.4619 63.5537 10.3946C63.5537 7.32737 65.3194 4.51571 69.6075 4.51571C73.6434 4.51571 75.6614 7.32737 75.6614 10.3946C75.6614 13.7175 73.6434 16.2736 69.6075 16.2736ZM69.6075 7.83858C68.0941 7.83858 67.8418 9.37222 67.8418 10.6502C67.8418 11.9283 68.0941 13.4619 69.6075 13.4619C71.121 13.4619 71.3732 11.9283 71.3732 10.6502C71.3732 9.37222 71.121 7.83858 69.6075 7.83858ZM77.4271 5.02692H81.4629V6.56055C82.2197 5.28253 83.4809 4.77132 84.9944 4.77132C86.2556 4.77132 87.5168 5.28253 88.0213 6.56055C88.2735 6.56055 89.0303 4.77132 91.8049 4.77132C94.5796 4.77132 95.5886 6.81616 95.5886 8.6054V16.2736H91.3004V10.139C91.3004 9.11661 91.3004 8.09419 90.0392 8.09419C89.0303 8.09419 88.5258 8.861 88.5258 10.139V16.2736H84.2376V10.139C84.2376 9.11661 84.2376 8.09419 82.9764 8.09419C81.9675 8.09419 81.4629 8.861 81.4629 10.139V16.2736H77.1748V5.02692H77.4271ZM109.21 16.018H105.174V14.4843C104.417 15.5067 103.156 16.2736 101.642 16.2736C99.6245 16.2736 97.8588 14.9955 97.8588 12.4395V4.77132H102.147V10.6502C102.147 11.9283 102.399 12.9507 103.408 12.9507C104.165 12.9507 105.174 12.6951 105.174 10.9058V5.02692H109.462V16.018H109.21ZM111.48 5.02692H115.516V6.56055C116.273 5.53813 117.534 4.77132 119.047 4.77132C121.065 4.77132 122.831 6.04934 122.831 8.6054V16.2736H118.795V10.3946C118.795 9.11661 118.543 8.09419 117.534 8.09419C116.777 8.09419 115.768 8.34979 115.768 10.139V16.018H111.48V5.02692ZM125.353 5.02692H129.641V16.2736H125.353V5.02692ZM129.641 3.74889H125.353V0.681631H129.641V3.74889ZM143.515 16.018H139.479V14.7399C138.974 15.5067 138.218 16.2736 136.2 16.2736C133.173 16.2736 131.659 13.2063 131.659 10.3946C131.659 7.83858 132.668 4.51571 136.2 4.51571C137.461 4.51571 138.47 5.02692 139.227 6.04934V0.681631H143.515V16.018ZM137.461 7.83858C135.948 7.83858 135.695 9.37222 135.695 10.6502C135.695 11.9283 135.948 13.4619 137.461 13.4619C138.974 13.4619 139.227 11.9283 139.227 10.6502C139.479 9.11661 138.974 7.83858 137.461 7.83858ZM156.379 13.7175C156.379 14.4843 156.379 15.5067 156.884 16.2736H152.596C152.596 16.018 152.343 15.5067 152.343 15.2511C151.587 16.2736 150.073 16.5292 148.812 16.5292C146.794 16.5292 145.028 15.5067 145.028 13.2063C145.028 9.62782 149.064 9.88343 151.334 9.37222C151.839 9.37222 152.596 9.11661 152.596 8.34979C152.596 7.58298 151.839 7.32737 151.334 7.32737C150.073 7.32737 149.821 8.09419 149.821 8.34979H146.037C146.037 5.28253 149.064 4.77132 151.587 4.77132C156.884 4.77132 156.884 7.07177 156.884 9.11661L156.379 13.7175ZM152.343 11.1615C151.839 11.4171 151.334 11.6727 150.578 11.6727C149.569 11.9283 149.064 12.1839 149.064 12.9507C149.064 13.4619 149.569 13.9731 150.325 13.9731C151.334 13.9731 152.091 13.4619 152.091 12.1839V11.1615H152.343ZM170 16.018H165.964V14.7399C165.46 15.5067 164.703 16.2736 162.685 16.2736C159.658 16.2736 158.145 13.2063 158.145 10.3946C158.145 7.83858 159.154 4.51571 162.938 4.51571C164.199 4.51571 165.208 5.02692 165.964 6.04934V0.681631H170.253V16.018H170ZM164.199 7.83858C162.685 7.83858 162.433 9.37222 162.433 10.6502C162.433 11.9283 162.685 13.4619 164.199 13.4619C165.712 13.4619 165.964 11.9283 165.964 10.6502C165.964 9.11661 165.712 7.83858 164.199 7.83858ZM60.779 37.4888H56.2386V36.2108C55.7341 36.9776 54.9774 38 52.7072 38C49.1758 38 47.4101 34.4215 47.4101 31.3543C47.4101 28.287 48.4191 24.9641 52.7072 24.9641C54.2207 24.9641 55.4819 25.4754 55.9864 26.7534V20.6189H60.779V37.4888ZM54.2207 28.287C52.455 28.287 52.2027 29.8206 52.2027 31.3543C52.2027 32.8879 52.455 34.4215 54.2207 34.4215C55.9864 34.4215 56.2386 32.8879 56.2386 31.3543C56.2386 29.8206 55.9864 28.287 54.2207 28.287ZM67.3373 32.3767C67.3373 33.9103 68.3463 34.6771 69.8598 34.6771C70.6165 34.6771 71.3732 34.4215 71.8777 33.9103H76.1658C75.1569 36.722 72.6344 37.7444 69.8598 37.7444C65.8239 37.7444 63.0492 35.444 63.0492 31.3543C63.0492 27.7758 65.5716 24.7085 69.6075 24.7085C74.4001 24.7085 76.6703 27.5202 76.6703 32.3767H67.3373ZM71.8777 29.8206C71.8777 28.5426 71.121 27.7758 69.8598 27.7758C68.3463 27.7758 67.5896 28.5426 67.3373 29.8206H71.8777ZM87.0123 20.3632H94.3274L96.8498 30.5875L99.3722 20.3632H106.687V37.4888H101.642V26.4978L98.6155 37.4888H94.8318L91.8049 26.4978V37.4888H86.7601V20.3632H87.0123ZM121.317 34.6771C121.317 35.6996 121.317 36.722 121.822 37.4888H117.029C117.029 37.2332 116.777 36.722 116.777 36.2108C115.768 37.4888 114.255 37.7444 112.741 37.7444C110.471 37.7444 108.453 36.4664 108.453 33.9103C108.453 30.0763 112.993 30.0762 115.516 29.565C116.273 29.565 116.777 29.3094 116.777 28.5426C116.777 27.7758 116.02 27.2646 115.264 27.2646C113.75 27.2646 113.498 28.0314 113.498 28.5426H109.21C109.462 24.9641 112.741 24.4529 115.516 24.4529C121.317 24.4529 121.317 27.009 121.317 29.3094V34.6771ZM116.777 31.8655C116.273 32.1211 115.516 32.3767 115.011 32.3767C114.002 32.6323 113.498 32.8879 113.498 33.6547C113.498 34.1659 114.002 34.6771 115.011 34.6771C116.02 34.6771 117.029 33.9103 117.029 32.6323L116.777 31.8655ZM136.704 37.4888H132.164V36.2108C131.659 36.9776 130.903 38 128.632 38C125.101 38 123.335 34.4215 123.335 31.3543C123.335 28.287 124.344 24.9641 128.632 24.9641C130.146 24.9641 131.407 25.4754 131.912 26.7534V20.6189H136.704V37.4888ZM130.146 28.287C128.38 28.287 128.128 29.8206 128.128 31.3543C128.128 32.8879 128.38 34.4215 130.146 34.4215C131.912 34.4215 132.164 32.8879 132.164 31.3543C132.164 29.8206 131.659 28.287 130.146 28.287ZM139.227 24.9641H143.767V27.009C144.524 25.4754 145.533 24.7085 147.298 24.7085C147.803 24.7085 148.307 24.7085 148.56 24.9641V29.0538C148.055 28.7982 147.551 28.7982 146.794 28.7982C145.028 28.7982 144.019 29.8206 144.019 32.6323V37.4888H139.227V24.9641ZM149.821 24.9641H154.613V37.4888H149.821V24.9641ZM154.613 23.6861H149.821V20.3632H154.613V23.6861ZM170 37.4888H165.46V36.2108C164.955 36.9776 164.199 38 161.929 38C158.397 38 156.631 34.4215 156.631 31.3543C156.631 28.287 157.64 24.9641 161.929 24.9641C163.442 24.9641 164.703 25.4754 165.208 26.7534V20.6189H170V37.4888ZM163.442 28.287C161.676 28.287 161.424 29.8206 161.424 31.3543C161.424 32.8879 161.676 34.4215 163.442 34.4215C165.208 34.4215 165.46 32.8879 165.46 31.3543C165.46 29.8206 165.208 28.287 163.442 28.287Z" fill="#DCE1D6"/>
</svg>
