<?xml version="1.0" encoding="utf-8"?>
<!-- Generator: Adobe Illustrator 22.0.1, SVG Export Plug-In . SVG Version: 6.00 Build 0)  -->
<svg version="1.1" id="Capa_1" xmlns="http://www.w3.org/2000/svg" xmlns:xlink="http://www.w3.org/1999/xlink" x="0px" y="0px"
	 viewBox="0 0 632.1 203" style="enable-background:new 0 0 632.1 203;" xml:space="preserve">
<style type="text/css">
	.st0{fill:#DCE1D6;}
</style>
<g>
	<path class="st0" d="M196.3,159.3c0.6,0,1,0.5,1,1v2.1c0,0.6-0.5,1-1,1h-17.1c-0.6,0-1-0.5-1-1v-18.8c0-0.6,0.5-1,1-1h2.5
		c0.6,0,1,0.5,1,1v15.6H196.3z M222.2,143.1l11.2,18.8c0.2,0.3,0.2,0.7,0,1c-0.2,0.3-0.5,0.5-0.9,0.5h-2.9c-0.4,0-0.7-0.2-0.9-0.5
		l-2-3.5h-13.9l-2,3.5c-0.2,0.3-0.5,0.5-0.9,0.5H207c-0.4,0-0.7-0.2-0.9-0.5c-0.2-0.3-0.2-0.7,0-1l11.2-18.8
		c0.2-0.3,0.5-0.5,0.9-0.5h3.2C221.7,142.6,222,142.8,222.2,143.1z M219.7,147.8l-4.5,7.6h9L219.7,147.8z M268.8,142.6
		c0.6,0,1,0.5,1,1v18.8c0,0.6-0.5,1-1,1H265c-0.3,0-0.5-0.1-0.7-0.3l-15.5-14.8v14c0,0.6-0.5,1-1,1h-2.5c-0.6,0-1-0.5-1-1v-18.8
		c0-0.6,0.5-1,1-1h3.8c0.3,0,0.5,0.1,0.7,0.3l15.5,14.8v-14c0-0.6,0.5-1,1-1H268.8z M303.7,159.3c0.6,0,1,0.5,1,1v2.1
		c0,0.6-0.5,1-1,1h-21.5c-0.6,0-1-0.5-1-1v-2c0-0.3,0.1-0.6,0.4-0.8l15-12.9h-13.8c-0.6,0-1-0.5-1-1v-2.1c0-0.6,0.5-1,1-1h20.6
		c0.6,0,1,0.5,1,1v1.8c0,0.3-0.1,0.6-0.4,0.8l-15.1,13H303.7z M341.6,161.9c0.2,0.3,0.2,0.7,0,1c-0.2,0.3-0.5,0.5-0.9,0.5h-2.9
		c-0.4,0-0.7-0.2-0.9-0.5l-2-3.5h-13.9l-2,3.5c-0.2,0.3-0.5,0.5-0.9,0.5h-2.9c-0.4,0-0.7-0.2-0.9-0.5c-0.2-0.3-0.2-0.7,0-1
		l11.2-18.8c0.2-0.3,0.5-0.5,0.9-0.5h3.2c0.4,0,0.7,0.2,0.9,0.5L341.6,161.9z M332.5,155.3l-4.5-7.6l-4.5,7.6H332.5z M246.9,130
		c-4.1,0-6-1.7-6.5-5.8c-0.1-0.4-0.1-0.9-0.1-1.3c0-10.7,0-21.4,0-32.1c0-0.6,0.1-1.2,0.1-1.8c0.5-3.5,2.3-5.2,5.9-5.4
		c1.6-0.1,29.3,0,41.5,0c2.7,0,5,0.9,7,2.8c1.4,1.4,2.8,2.9,4.3,4.3c1.9,1.9,2.8,4.3,3,6.9c0.2,1.9,1.1,3.4,2.8,4.2
		c3,1.4,4.1,3.8,4.1,7c-0.1,3-0.2,6-0.3,9c0,0.1,0,0.3-0.1,0.4c-1.3,4.2-4.7,6.7-7.6,9.5c-1.8,1.8-4.2,2.2-6.7,2.2
		C286.5,130,254.9,130,246.9,130z M274.6,111.6L274.6,111.6c-4.8,0-9.6,0-14.4,0c-1,0-2,0.1-2.9,0.3c-1.8,0.4-2.9,1.9-2.9,3.6
		c0,1.8,1.1,3.3,2.9,3.7c1,0.2,2,0.3,2.9,0.3c3.8,0,7.5,0,11.3,0c5.3,0,10.7,0,16,0c2.4,0,4.6-0.7,6.1-2.7c1.6-2.2,0.8-4.5-1.9-5
		c-1-0.2-2-0.3-2.9-0.3C284,111.6,279.3,111.6,274.6,111.6z M271.1,102L271.1,102c1.2,0,2.4,0,3.6,0c3.2-0.1,6.4-0.1,9.6-0.2
		c1.4-0.1,2.6-0.7,3.1-2.1c0.5-1.6-0.4-2.8-1.4-3.8c-1.5-1.4-3.4-1.8-5.3-1.8c-7,0-14,0-20.9,0c-0.8,0-1.7,0.1-2.5,0.3
		c-1.8,0.4-2.9,1.9-2.9,3.7c0,1.8,1.2,3.3,3,3.7c0.9,0.2,1.9,0.3,2.8,0.3C263.8,102.1,267.5,102,271.1,102z M218.7,83.6
		c2.7,0,4.9,0.9,6.9,2.7c0.1,0.1,0.2,0.2,0.3,0.3c7.5,7.3,7,7.1,7,16.3c0,4.5,0,8.9-0.1,13.4c0,2.3-0.8,4.3-2.3,6
		c-1.7,1.9-3.5,3.7-5.3,5.4c-1.7,1.6-3.8,2.4-6.1,2.4c-12.9,0-25.8,0-38.6,0c-2.6,0-4.7-1-6.5-2.8c-1.6-1.6-3.1-3.2-4.6-4.8
		c-1.7-1.9-2.5-4.1-2.5-6.6c0-2.5,0-5.1,0-7.6c0.1-3.8,1.8-5.6,5.5-6.1c0.7-0.1,1.5-0.1,2.2-0.1c12.4,0,24.8,0,37.2,0
		c1.4,0,2.8,0,4.1-0.3c2.6-0.5,3.4-2.8,1.8-5c-1.5-2.1-3.7-2.7-6.2-2.7c-3.8-0.1-27.9,0-36.1,0c-0.4,0-0.9,0-1.3,0
		c-4.4-0.2-6.7-4.2-4.6-8.1c1-1.8,2.7-2.3,4.5-2.3C181.5,83.6,211.3,83.6,218.7,83.6z M200,111.6L200,111.6c-3.2,0-6.4,0-9.7,0
		c-2.1,0-4.2,0-6.2,0.3c-2.7,0.4-3.6,2.7-2,4.9c1.4,1.9,3.3,2.7,5.5,2.7c8.2,0.1,16.3,0.1,24.5,0c2.3,0,4.4-0.9,5.7-3
		c1.3-2,0.5-4-1.8-4.6c-0.9-0.2-1.9-0.3-2.8-0.3C208.8,111.6,204.4,111.6,200,111.6z M579.1,130c-2.8,0-5.1-0.9-7.1-2.9
		c-7.5-7.4-7.1-7.3-7.1-16.2c0-4.6,0-9.2,0.1-13.8c0-2,0.7-3.9,2.1-5.4c1.8-1.9,3.6-3.8,5.5-5.6c1.8-1.7,3.9-2.4,6.4-2.4
		c12.7,0,25.4,0,38,0c2.5,0,4.8,0.8,6.6,2.6c1.6,1.6,3.2,3.2,4.8,4.9c1.8,1.9,2.7,4.2,2.7,6.9c0,2.4,0,4.9,0,7.3
		c-0.1,4.2-2.1,6.2-6.4,6.3c-3.5,0.1-29.2,0-38.6,0c-1.4,0-2.8,0.1-4.1,0.3c-2.3,0.5-3.1,2.6-1.8,4.6c1.5,2.3,3.7,3,6.3,3
		c5.4,0,29.5,0,36.1,0c0.5,0,1,0,1.5,0c4.3,0.3,6.6,4.6,4.3,8.3c-1,1.6-2.6,2.1-4.4,2.1C616.3,130,586.4,130,579.1,130z M611.4,102
		c1,0,2.1-0.1,3.1-0.5c1.9-0.6,2.7-2.6,1.5-4.3c-0.8-1.1-1.9-2-3.1-2.6c-1.1-0.5-2.5-0.6-3.8-0.6c-7.4,0-14.9,0-22.3,0
		c-0.9,0-2,0-2.8,0.3c-1.4,0.6-2.8,1.3-3.8,2.4c-1.9,2-0.9,4.4,1.7,5c0.8,0.2,1.7,0.3,2.5,0.3C589,102.1,606.9,102.1,611.4,102z
		 M323.9,130c-4.3,0-6.3-2.9-5.2-7.1c0.5-1.6,1.5-2.7,3.1-3c1-0.2,2-0.3,2.9-0.3c11.5,0,23,0,34.5,0c1.6,0,3.3-0.2,4.8-0.6
		c1.6-0.4,2.9-1.5,3.6-3.1c0.7-1.6,0.1-3.2-1.6-3.7c-1.1-0.4-2.3-0.5-3.5-0.5c-10.5,0-21-0.1-31.5,0c-2.8,0-5.3-0.8-7.4-2.6
		c-1.6-1.4-3.3-2.9-4.8-4.4c-1.7-1.6-2.4-3.7-2.5-6c0-3.3-0.1-6.6,0-10c0.1-3.3,1.7-4.9,5-5c1.8,0,3.6,0,5.3,0.3
		c1.7,0.3,2.9,1.5,3.1,3.2c0.2,2.2,0.2,4.4,0.3,6.7c0.1,2,0.5,3.8,1.8,5.4c1.7,1.9,3.9,2.3,6.2,2.3c6.3,0,23.1,0,25.3,0
		c3.8-0.1,5.3-1.6,5.4-5.4c0.1-2.8,0.1-5.6,0.3-8.5c0.2-2.2,1.3-3.5,3.5-3.8c2-0.2,4.1-0.3,6.1,0c2.4,0.3,3.6,1.8,3.8,4.2
		c0,0.3,0.1,0.7,0.1,1c0,9.1,0,18.2-0.1,27.3c0,2.2-0.8,4.1-2.2,5.7c-1.7,1.9-3.5,3.8-5.4,5.5c-1.7,1.7-3.9,2.4-6.2,2.4
		C361.1,130,331.3,130.1,323.9,130z M408.8,130c-2.9,0-5.4-0.9-7.5-3.1c-1.6-1.7-3.5-3.3-4.8-5.2c-1-1.5-1.9-3.4-1.9-5.1
		c-0.2-6.5-0.1-13-0.1-19.5c0-2,0.7-3.8,2-5.3c1.9-2.1,3.8-4,5.8-5.9c1.6-1.6,3.7-2.2,6-2.2c12.8,0,25.7,0,38.5,0
		c2.3,0,4.4,0.8,6.1,2.4c1.9,1.8,3.7,3.6,5.4,5.5c1.8,2,2.6,4.4,2,7.2c-0.4,1.9-1.6,3.2-3.6,3.4c-2,0.1-4,0.1-5.9,0
		c-1.5-0.1-2.7-0.9-3.5-2.2c-0.5-0.8-1-1.6-1.6-2.4c-1.5-2-3.5-3.1-5.9-3.1c-8.2,0-16.4-0.1-24.7,0c-3.9,0-6.7,2.9-6.8,6.8
		c-0.1,3.7-0.1,7.4,0,11.1c0.1,3.9,3,6.9,6.9,6.9c8.2,0.1,16.4,0.1,24.7,0c3,0,5.1-1.6,6.5-4.2c1-1.8,2.1-3.5,4.4-3.6
		c2-0.2,4-0.3,5.9,0c2.8,0.4,4.2,2.5,3.8,5.5c-0.2,2-1,3.8-2.4,5.3c-1.6,1.7-3.3,3.4-5,5.1c-1.8,1.8-4,2.6-6.6,2.6
		C440.2,130,415,130,408.8,130z M543.2,83.6c2.8,0,5.1,0.9,7.1,2.9c1.5,1.5,2.9,3,4.4,4.4c1.9,1.9,2.8,4.3,2.8,7
		c0,8.9,0.1,17.8,0,26.7c0,3.8-1.7,5.3-5.4,5.4c-1.1,0-2.3,0-3.4,0c-3-0.1-4.7-1.7-4.8-4.7c-0.1-5.8-0.1-22.2-0.3-24.5
		c-0.3-3.7-2.8-6.3-6.5-6.4c-8.3-0.1-16.5-0.1-24.8,0c-3.1,0-4.6,1.8-4.6,5c-0.1,7.9,0,15.8-0.1,23.8c0,5.6-1.3,6.9-6.9,6.9
		c-5.5,0-6.8-1.3-6.8-6.7c0-10.6,0-21.1,0-31.7c0-0.6,0-1.3,0.1-1.9c0.2-4.1,2.2-6.1,6.3-6.1C507.4,83.6,536.1,83.6,543.2,83.6z
		 M481.8,122.9c0,0.9,0,1.8-0.1,2.7c-0.2,2.4-1.4,4-3.8,4.3c-2,0.2-4.2,0.2-6.2,0c-2-0.2-3.2-1.5-3.4-3.5c-0.1-1-0.2-2.1-0.2-3.1
		c0-10.9,0-21.8,0-32.7c0-5.5,1.3-6.8,6.8-6.9c5.6,0,6.9,1.2,6.9,6.9C481.8,95.9,481.8,117.5,481.8,122.9z M146.6,117l0-4l0-4.8
		c0-2.6,0-5.3,0-7.9c0-1.4-0.2-2.8-0.6-4.3c-2-8.2-9.3-14.1-17.8-14.4l-0.5,0c-1.7-0.1-5-0.2-8,0.5c-0.8,0.2-1.6,0.4-2.3,0.7
		l-0.5,0.2c-1,0.3-1.4,0.1-1.8-0.4c-0.2-0.2-0.3-0.4-0.5-0.6c-0.2-0.2-0.3-0.4-0.5-0.6c-1.8-2.2-3.8-4.3-6.1-6.3
		c-4.1-3.6-8.8-6.6-14-8.8c-0.8-0.3-1.3-0.8-1.6-1.4l-0.3-0.7c-0.4-0.8-0.8-1.5-1.1-2.3c-0.1-0.3-0.2-0.6-0.3-0.9l0.1-0.1
		c0.2,0,0.4,0,0.6,0.1c0.2,0.1,0.4,0.2,0.6,0.3c0.2,0.1,0.4,0.2,0.7,0.3c1.7,0.8,3.7,0.8,5.3,0c1.7-0.8,2.9-2.3,3.5-4.1
		c0.3-1,0.4-2,0.2-2.9c-0.2-1.1,0-1.8,0.6-2.5c0.5-0.5,0.9-1.2,1.2-2c0.8-2.2,0.4-4.5-1.1-6.3c-1.5-1.8-3.8-2.6-6-2.2
		c-0.9,0.2-1.7,0.5-2.6,1c-0.5,0.3-1,0.4-1.7,0.1L92,42.4c-0.3-0.1-0.6-0.2-0.9-0.3c-2.5-0.6-4.9,0.2-6.6,2.2
		c-0.4,0.5-0.7,0.9-0.9,1.4c0.1-0.3,0.1-0.6,0.2-0.8c0.4-2.6-0.5-4.8-2.6-6.3c-0.2-0.2-0.5-0.3-0.7-0.5l-0.5-0.3
		c-0.3-0.2-0.5-0.5-0.6-0.9c0-0.2-0.1-0.4-0.1-0.6l-0.1-0.5c-0.4-1.8-1.5-3.3-3.1-4.2c-1.5-0.9-3.2-1.1-4.8-0.6
		c-2.6,0.8-4.2,2.6-4.7,5.3c-0.1,0.9-0.5,1.4-1.3,1.9c-0.3,0.2-0.6,0.4-0.9,0.6c-1.8,1.4-2.7,3.5-2.5,5.8c0,0.4,0.1,0.9,0.3,1.3
		c-0.3-0.6-0.6-1.1-1.1-1.7c-1.9-2.1-4.3-2.7-7-1.8c-1.1,0.4-1.9,0.3-2.7-0.2c-1.2-0.8-2.7-1-4.2-0.8c-3.4,0.6-5.8,3.9-5.3,7.2
		c0.2,1.3,0.7,2.4,1.6,3.4c0.5,0.6,0.7,1.3,0.6,2.2c-0.3,1.5-0.1,3,0.5,4.2c0.8,1.5,2.1,2.7,3.8,3.2c1.6,0.5,3.4,0.4,5-0.4l0.3-0.2
		c0.3-0.2,0.6-0.3,0.9-0.4c0.6-0.2,0.6-0.1,0.7,0.2c0,0.1,0,0.2-0.1,0.5c-0.6,1.2-1.1,2.3-1.7,3.5c-0.3,0.5-0.6,0.9-1.1,1.2
		c-0.4,0.2-0.7,0.4-1.1,0.6l-1,0.5c-0.4,0.2-0.9,0.5-1.3,0.7c-1.1,0.5-2.1,1.1-3.2,1.7c-5.1,3.1-9.6,7-13.3,11.6
		c-0.4,0.5-0.9,1.1-1.5,1.7c-0.2,0.2-0.4,0.3-0.9,0.2c-0.5-0.1-0.9-0.2-1.4-0.4c-1.5-0.5-3.9-1.3-9.6-1c-3.8,0-7.3,1-10.2,3
		c-5.7,3.8-8.7,9.1-8.8,15.9c0,3,0,6,0,9c0,0.9,0,1.8,0,2.7l0,4.7c0,2.9,0,5.8,0,8.6v0.1c0,1.3,0,2.6,0.3,3.9
		c1.5,7.6,6,12.7,13.6,15.2c4.7,1.5,11.3,0.5,11.3,0.5c1-0.2,2.1-0.4,3.1-0.6l0.3,0c0.6-0.1,0.9,0,1.3,0.5c0.2,0.2,0.3,0.4,0.5,0.6
		l0.2,0.3c7.6,10.2,17.7,17,30,20.1c1.3,0.3,2.7,0.6,4,0.8l1.2,0.2c0.8,0.1,1.3,0.5,1.6,1c0.2,0.4,0.5,0.8,0.8,1.2
		c1.3,1.6,3.1,2.6,5.1,2.9c0.3,0,0.6,0.1,0.9,0.1c1.7,0,3.4-0.6,4.7-1.7c0.8-0.7,1.5-1.5,2-2.4c0.4-0.8,1.1-1.2,2.1-1.4
		c1.9-0.4,3.9-0.8,5.9-1.4c3.3-1,6.5-2.3,9.5-3.9c7-3.7,13-9,18-15.7c0.3-0.4,0.5-0.7,0.8-1c0.2-0.2,0.4-0.3,0.6-0.2
		c0.3,0,0.7,0.1,1,0.1c4.1,1.2,8.3,0.9,11.4,0.6c5-0.6,9.2-2.9,12.4-7c2.5-3.1,3.8-6.5,4-10.2c0.1-1.2,0.1-2.6,0.1-4.1
		C146.6,121.5,146.6,119.2,146.6,117 M97.7,160.1c-2.9,1.5-6,2.8-9.2,3.8c-1.9,0.6-3.8,1-5.7,1.4c-1.3,0.3-2.3,0.9-3,2.1
		c-0.4,0.8-1,1.5-1.7,2c-2.8,2.2-6.6,1.7-8.8-1c-0.3-0.3-0.5-0.7-0.7-1c-0.6-1-1.4-1.5-2.5-1.7c-1.7-0.3-3.4-0.6-5.1-1
		c-12.1-3.1-21.8-9.6-29.3-19.6c-0.3-0.3-0.5-0.7-0.8-1c-0.7-0.8-1.5-1.1-2.6-0.9c-1.1,0.2-2.2,0.4-3.3,0.6
		c-0.4,0.1-6.5,0.9-10.7-0.5c-7-2.3-11.3-6.9-12.7-14.1c-0.2-1.2-0.2-2.5-0.2-3.8c0-4,0-8,0-12h0c0-4.3-0.1-8.6,0-13
		C1.4,94,4.2,89.1,9.5,85.6c2.9-1.9,6.1-2.7,9.5-2.8c5.5-0.3,7.6,0.4,9.1,0.9c0.5,0.2,1,0.3,1.5,0.4c0.8,0.2,1.6,0,2.1-0.6
		c0.5-0.6,1.1-1.2,1.6-1.8c3.7-4.5,8-8.3,13-11.3c1.4-0.9,3-1.6,4.4-2.4c0.7-0.4,1.4-0.7,2.1-1.1c0.7-0.4,1.3-1,1.6-1.8
		c0.5-1.2,1.1-2.3,1.7-3.5c0.2-0.5,0.3-1,0.1-1.5c-0.3-1-1.1-1.4-2.3-1.1c-0.5,0.1-1,0.4-1.4,0.7c-2.5,1.3-5.6,0.3-6.9-2.2
		c-0.5-1.1-0.6-2.2-0.4-3.4c0.2-1.2,0-2.3-0.9-3.3c-0.7-0.8-1.2-1.7-1.3-2.8c-0.4-2.6,1.5-5.2,4.2-5.7c1.2-0.2,2.3,0,3.3,0.6
		c1.3,0.8,2.5,0.8,3.9,0.4c2.1-0.7,4-0.2,5.6,1.4c1.5,1.6,1.6,3.5,0.8,5.4c-0.2,0.4-0.4,0.7-0.6,1.1c-0.8,1.6,0.1,2.9,1.2,3.6
		c0.7,0.4,1.5,0.3,2.2,0c1.3-0.4,2.5-0.9,3.8-1.3c1.2-0.4,1.7-1.1,1.6-2.4c-0.1-1.2-0.5-2.1-1.7-2.6c-0.4-0.2-0.8-0.4-1.3-0.6
		c-3.5-1.7-4-6.3-0.9-8.6c0.2-0.2,0.5-0.4,0.8-0.5c1.1-0.6,1.7-1.5,1.9-2.8c0.4-2.2,1.6-3.6,3.7-4.2c2.7-0.8,5.6,1,6.3,3.9
		c0.1,0.4,0.2,0.8,0.3,1.2c0.2,0.7,0.6,1.2,1.2,1.6c0.4,0.3,0.8,0.5,1.2,0.8c1.7,1.2,2.4,2.9,2.1,5c-0.3,2-1.6,3.3-3.6,4
		c-0.4,0.1-0.9,0.2-1.3,0.3c-1.4,0.4-2.2,1.5-2,3c0.1,0.7,0.5,1.3,1.2,1.5c0.4,0.2,0.8,0.3,1.2,0.3c1.2,0.2,2.3,0.6,3.4,1
		c0.6,0.3,1.2,0.4,1.9,0.4c1.8-0.1,2.9-1.9,2.2-3.5c-0.2-0.4-0.4-0.9-0.6-1.3c-0.9-1.9-0.7-3.7,0.6-5.3c1.3-1.6,3.1-2.3,5.2-1.8
		c0.4,0.1,0.7,0.2,1.1,0.3c1,0.3,1.9,0.2,2.7-0.3c0.7-0.4,1.4-0.7,2.2-0.9c3.4-0.6,7,2.8,5.6,6.7c-0.2,0.6-0.5,1.2-0.9,1.6
		c-1,1.1-1.2,2.3-0.9,3.7c0.2,0.8,0.1,1.5-0.1,2.2c-0.9,3-4.1,4.5-7,3.2c-0.5-0.2-0.9-0.5-1.4-0.7c-0.3-0.1-0.7-0.2-1.1-0.2
		c-0.9,0-1.6,0.8-1.4,1.7c0.1,0.4,0.2,0.9,0.4,1.3c0.5,1,1,2,1.5,3c0.5,1,1.2,1.6,2.2,2.1c5,2.2,9.5,5,13.6,8.6
		c2.2,1.9,4.1,3.9,5.9,6.2c0.3,0.4,0.7,0.8,1,1.2c0.9,1.1,2,1.3,3.3,0.9c0.9-0.3,1.7-0.6,2.6-0.8c3.2-0.7,6.7-0.5,8.1-0.4
		c7.9,0.2,14.7,5.8,16.5,13.4c0.3,1.3,0.5,2.7,0.5,4c0,4.2,0,8.5,0,12.7c0,3.6,0,7.2,0,10.8c0,1.3,0,2.7-0.1,4
		c-0.2,3.6-1.5,6.7-3.7,9.5c-3,3.7-6.8,6-11.5,6.5c-3.6,0.4-7.3,0.5-10.9-0.5c-0.4-0.1-0.8-0.2-1.2-0.2c-0.7-0.1-1.2,0.2-1.7,0.7
		c-0.3,0.4-0.6,0.7-0.9,1.1C110.4,151.4,104.6,156.5,97.7,160.1 M122.1,114.7c0-2.5-0.2-5-0.6-7.4c-0.5-3.7-1.5-7.3-2.9-10.8
		c-0.1-0.3-0.3-0.7-0.5-1c-0.3-0.6-0.8-0.9-1.5-0.8c-0.8,0.1-1.7,0.1-2.5,0.2c-2.6,0.2-5.1,0.5-7.7,0.7c-2.8,0.2-5.6,0.2-8.4,0.1
		c-3.1-0.2-6.1-0.6-9-1.5c-4.4-1.3-8.2-3.5-11.2-7c-1.7-2-2.9-4.2-3.9-6.7c-0.2-0.4-0.4-0.9-0.6-1.2c-0.3-0.5-0.9-0.5-1.3,0
		c-0.1,0.2-0.3,0.4-0.4,0.6c-0.2,0.5-0.4,1-0.7,1.5c-1.6,3.6-3.8,6.6-7,8.9c-2.8,2.1-6,3.3-9.3,4.2c-4.6,1.1-9.2,1.3-13.9,1.1
		c-3-0.1-5.9-0.5-8.9-0.7c-0.6,0-1.2-0.1-1.8-0.1c-0.7,0-1.2,0.3-1.5,0.9c-0.1,0.2-0.2,0.4-0.3,0.6c-1.9,4.4-2.9,9.1-3.3,13.8
		c-0.2,2.6-0.2,5.3,0,7.9c0.2,4,1,8,2.3,11.8c4.4,12.9,12.7,22.5,25,28.6c4.5,2.2,9.2,3.6,14.2,4.4c0.9,0.1,1.9,0.2,2.8,0.4
		c0.9,0.1,1.5,0.6,1.8,1.5c0.1,0.3,0.2,0.5,0.2,0.8c0.4,1.3,1.7,2.4,3,2.4c1.5,0.1,2.8-0.7,3.4-2.1c0.2-0.4,0.3-0.8,0.4-1.2
		c0.2-0.9,0.8-1.4,1.7-1.6c0.2,0,0.4-0.1,0.6-0.1c2-0.4,4.1-0.7,6.1-1.2c9.2-2.4,17-7.2,23.4-14.2
		C117.8,138.2,121.9,127.2,122.1,114.7 M102.3,92.7c1.2-0.1,2.9-0.1,4.6-0.2c2.2-0.2,4.4-0.4,6.5-0.6c0.4,0,0.9-0.1,1.3-0.3
		c0.6-0.2,0.9-0.7,0.9-1.4c0-0.4-0.1-0.9-0.3-1.2c-0.6-1-1.2-2-1.9-3c-0.9-1.3-1.9-2.5-2.9-3.7c-0.6-0.8-1.5-1.2-2.5-1.1
		c-0.5,0-1.1,0-1.6,0c-2.8,0.1-5.5,0.2-8.3,0.2c-2.9,0-5.9-0.2-8.8-0.7c-3.3-0.5-6.6-1.1-9.8-2.4c-0.5-0.2-1-0.3-1.6-0.3
		c-0.8,0-1.2,0.4-1.1,1.2c0,0.5,0.2,1.1,0.4,1.6c0.9,1.9,2,3.6,3.5,5.1c2.5,2.6,5.6,4.2,9,5.2C93.6,92.4,97.7,92.7,102.3,92.7
		 M44.8,82c-0.4,0-0.7,0-1.1,0c-1.7-0.1-3.4-0.1-5.2-0.2c-0.9,0-1.7,0.3-2.3,1c-1.7,1.8-3.1,3.9-4.4,6c-0.2,0.3-0.3,0.5-0.4,0.8
		c-0.5,1.1-0.1,1.7,1,1.9c0.1,0,0.1,0,0.2,0c1.9,0.2,3.8,0.4,5.8,0.5c4,0.3,8.1,0.3,12.1-0.3c2.6-0.4,5.2-1,7.6-2.1
		c4.2-1.9,7.3-4.9,9.2-9.1c0.2-0.4,0.3-0.8,0.3-1.1c0-0.6-0.3-0.8-0.8-0.8c-0.4,0-0.8,0.1-1.2,0.3c-2.7,1-5.5,1.7-8.3,2.2
		C53.2,81.7,49,82,44.8,82 M99.2,79c1.2,0,2.5,0,3.7,0c0.3,0,0.5,0,0.8-0.1c1.1-0.3,1.5-1.3,0.7-2.2c-0.4-0.4-0.8-0.8-1.3-1.2
		c-2.9-2.3-6.1-4.2-9.5-5.7c-5-2.3-10.2-3.7-15.7-4.2c-0.9-0.1-1.8-0.1-2.6,0c-0.8,0.1-1.3,0.6-1.5,1.4c-0.1,0.5-0.1,1.1,0,1.6
		c0.1,0.9,0.3,1.8,0.5,2.7c0.2,1.4,1,2.4,2.2,3.1c2.1,1.2,4.4,2.1,6.8,2.8C88.6,78.6,93.9,79,99.2,79 M71,68.2
		c0-1.8-0.7-2.6-2.3-2.6c-0.2,0-0.4,0-0.5,0c-1.1,0.2-2.2,0.3-3.3,0.5c-7.5,1.3-14.3,4.1-20.5,8.6c-0.8,0.6-1.5,1.2-2.3,1.8
		c-0.5,0.4-0.7,1-0.5,1.6c0.2,0.6,0.8,0.9,1.4,0.9c1.4,0.1,2.8,0.1,4.2,0.1c2-0.1,4.1-0.3,6.1-0.4c3.1-0.3,6.1-0.9,9-1.7
		c2-0.6,4-1.4,5.9-2.5c0.9-0.5,1.7-1.2,2-2.3C70.6,70.8,70.8,69.4,71,68.2 M123.1,85.5c-1.3,0.1-2.6,0.3-3.9,0.8
		c-1,0.5-1.3,1.2-1,2.3c0.1,0.2,0.2,0.4,0.2,0.5c0.3,0.6,0.6,1.2,0.9,1.8c0.6,1.2,1.2,2.3,1.8,3.5c0.4,0.7,1,1.2,1.9,1.2
		c1.4,0.1,2.9,0.1,4.3,0.1c0.8,0,1.6,0,2.4,0.2c3.9,0.6,7.2,2.3,10,5c0.3,0.3,0.6,0.6,0.9,0.9c0.9,0.7,1.8,0.3,1.8-0.8
		c0-1,0-1.9-0.1-2.9c-0.9-6.1-5.8-11.2-11.9-12.3C127,85.2,124,85.5,123.1,85.5 M18.2,85.5c-1.9,0.1-3.6,0.5-5.3,1.3
		C7.7,89.2,4.8,93.3,4.1,99c-0.1,0.8,0,1.6,0.1,2.4c0.1,0.6,0.5,0.8,1.1,0.7c0.3-0.1,0.6-0.3,0.9-0.5c0.6-0.5,1.1-1,1.7-1.5
		c3.4-2.9,7.4-4.3,11.9-4.3c1.2,0,2.3,0,3.5-0.1c1.1,0,1.8-0.6,2.3-1.5c0.8-1.6,1.6-3.1,2.3-4.7c0.2-0.4,0.3-0.7,0.5-1.1
		c0.3-0.9,0-1.6-0.9-2c-0.6-0.3-1.2-0.5-1.9-0.6C21.1,85.3,19.1,85.5,18.2,85.5 M128.4,141.3c0.8-0.1,1.6-0.2,2.4-0.3
		c6.2-1.3,10.9-6.5,11.6-12.8c0.1-0.8,0.1-1.5,0-2.3c-0.1-0.9-0.9-1.2-1.6-0.7c-0.1,0.1-0.3,0.2-0.4,0.3c-0.4,0.4-0.8,0.7-1.2,1.1
		c-3.2,2.9-6.9,4.4-11.2,4.7c-1.2,0.1-2.5,0.1-3.7,0.1c-1.2,0-2,0.6-2.5,1.7c-0.7,1.7-1.5,3.3-2.2,5c-0.1,0.2-0.2,0.4-0.2,0.6
		c-0.3,1.2,0,1.9,1.2,2.2c0.1,0,0.3,0.1,0.4,0.1C122.7,141.3,126.2,141.4,128.4,141.3 M139.2,112.2c0.4,0,0.8,0,1.2-0.1
		c0.8-0.1,1.3-0.6,1.3-1.5c0-0.4-0.1-0.9-0.2-1.3c-1.7-5.3-5.2-8.6-10.5-10.1c-1.9-0.5-3.8-0.6-5.8-0.5c-0.4,0-0.8,0.2-1.1,0.3
		c-0.5,0.2-0.7,0.6-0.7,1.1c0,0.4,0,0.8,0.1,1.2c0.7,2.8,1.2,5.7,1.5,8.5c0.2,1.7,0.8,2.3,2.5,2.3
		C129.5,112.1,137.3,112.2,139.2,112.2 M19,112.1c1.8,0,2.4-0.6,2.6-2.4c0.3-2.6,0.7-5.1,1.3-7.6c0.2-0.6,0.3-1.3,0.3-2
		c0-0.7-0.3-1.2-1-1.4c-0.2-0.1-0.5-0.1-0.8-0.1c-1.1,0-2.2,0-3.3,0.1c-3.2,0.3-6,1.4-8.4,3.5c-2.3,2-3.9,4.4-4.6,7.4
		c-0.4,1.6,0.2,2.5,1.9,2.5C8.9,112.1,17,112.2,19,112.1 M127.9,115.1c-0.5,0-1,0.1-1.5,0.2c-0.6,0.1-0.9,0.5-1.1,1.1
		c-0.1,0.5-0.2,0.9-0.3,1.4c-0.2,2.4-0.5,4.8-0.9,7.2c-0.1,0.6-0.2,1.2-0.2,1.8c0,0.7,0.3,1.2,1,1.4c0.3,0.1,0.7,0.1,1,0.2
		c0.6,0,1.2,0,1.8,0c2.4-0.1,4.6-0.7,6.7-1.9c3.4-1.9,5.8-4.7,6.9-8.5c0.1-0.4,0.2-0.8,0.2-1.2c0-0.8-0.4-1.3-1.2-1.5
		c-0.4-0.1-0.9-0.1-1.3-0.1C137.1,115.2,129.7,115.1,127.9,115.1 M8.4,115.2c-0.7,0-1.3,0.1-2,0.1C5.5,115.4,5,116,5,116.9
		c0,0.3,0.1,0.7,0.2,1c0.4,1.4,1.1,2.8,2,4c3.4,4.7,8.1,6.6,13.8,6.3c0.2,0,0.5-0.1,0.7-0.2c0.6-0.2,0.9-0.6,0.9-1.3
		c0-0.4,0-0.8-0.1-1.2c-0.5-2.3-0.8-4.7-1-7.1c0-0.6-0.1-1.3-0.2-1.9c-0.2-1-0.8-1.5-1.8-1.6c-0.2,0-0.5,0-0.7,0
		C17,115.1,10.1,115.1,8.4,115.2 M23.7,140.8c0.7-0.1,1.5-0.2,2.2-0.4c0.9-0.3,1.1-0.8,0.8-1.6c0-0.1-0.1-0.3-0.2-0.4
		c-0.8-1.7-1.5-3.4-2.3-5.1c-0.4-1-1.1-1.4-2.2-1.4c-1,0-2,0-3,0c-4.3-0.1-8.1-1.5-11.4-4.2c-0.6-0.5-1.1-1-1.7-1.6
		c-0.2-0.2-0.4-0.4-0.6-0.5c-0.4-0.2-0.7-0.1-0.8,0.4c-0.1,0.3-0.1,0.7-0.1,1.1c0.1,0.7,0.1,1.5,0.3,2.2c1.3,5.9,4.9,10.1,10.8,11.2
		C17.3,140.7,20.2,141.1,23.7,140.8 M71.5,62.8c5.4,0,9.1,0.4,12.8,1.2c0.6,0.1,1.1,0.2,1.7,0.2c0.7,0,1.1-0.4,0.9-1.1
		c-0.1-0.5-0.3-0.9-0.6-1.3c-2.8-3.4-6.5-5.2-10.9-5.5c-1.6-0.1-3.2-0.1-4.8,0c-4.1,0.2-7.5,1.8-10.4,4.7c-0.4,0.4-0.8,0.9-1.1,1.4
		c-0.2,0.3-0.3,0.7-0.3,1c0,0.5,0.3,0.8,0.8,0.9c0.3,0,0.7,0,1,0c0.5-0.1,1-0.2,1.5-0.3C65.7,63.2,69.4,62.7,71.5,62.8 M75.8,38.2
		C75.9,38.2,75.9,38.2,75.8,38.2c0-0.5,0-1-0.1-1.5c-0.2-1.4-1.4-2.4-2.8-2.4c-1.5,0-2.7,0.9-2.9,2.3C70,37.3,70,38,70,38.7
		c0,0.5,0.1,1,0.1,1.5c0,0.5-0.2,0.6-0.6,0.7c-0.2,0-0.4,0-0.7,0c-0.4,0-0.8,0-1.1,0.1c-1.5,0.3-2.5,1.5-2.4,3.1
		c0.1,1.5,1.3,2.6,2.8,2.6c0.4,0,0.8,0,1.1,0c0.6,0,1,0.3,1.2,0.9c0.1,0.2,0.1,0.5,0.2,0.7c0.2,0.9,0.3,1.8,0.5,2.7
		c0.1,0.3,0.2,0.7,0.4,1c0.4,0.6,1.2,0.6,1.6,0c0.2-0.2,0.3-0.5,0.3-0.8c0.2-1,0.4-1.9,0.6-2.9c0.1-0.4,0.1-0.8,0.3-1.2
		c0.3-0.7,0.8-0.9,1.5-0.8c0.3,0.1,0.6,0.2,1,0.3c1.9,0.5,3.5-1,3.6-2.3c0.3-2.2-1.2-3.5-2.9-3.5c-0.4,0-0.7,0-1.1,0
		c-0.6-0.1-0.8-0.3-0.8-0.9C75.7,39.4,75.8,38.8,75.8,38.2 M47.3,55.4c0,1.3,0.7,2.3,1.7,2.8c1.1,0.5,2.4,0.2,3.2-0.7
		c0.3-0.3,0.6-0.7,0.9-1c0.3-0.4,0.7-0.5,1.2-0.3c0.3,0.1,0.6,0.3,1,0.4c0.6,0.3,1.2,0.6,1.8,0.9c0.3,0.1,0.7,0.2,1,0.2
		c0.6,0,1-0.4,1-1c0-0.5-0.2-0.9-0.4-1.2c-0.4-0.6-0.9-1.1-1.4-1.7c-0.2-0.3-0.5-0.6-0.7-1c-0.3-0.5-0.2-0.9,0.2-1.3
		c0.1-0.1,0.3-0.2,0.5-0.4c0.3-0.3,0.7-0.5,1-0.8c1.5-1.6,0.7-4.2-1.4-4.8c-1.2-0.3-2.2,0.1-3,1c-0.2,0.3-0.4,0.6-0.7,0.8
		c-0.4,0.4-0.6,0.4-1,0c-0.4-0.3-0.7-0.6-1-1c-0.4-0.4-0.8-0.8-1.2-1.1c-0.8-0.6-1.6-0.8-2.6-0.5c-1,0.3-1.8,0.9-2.1,1.9
		c-0.3,1.1-0.2,2.1,0.7,2.9c0.6,0.6,1.3,1,1.9,1.5c0.2,0.2,0.5,0.3,0.7,0.5c0.4,0.4,0.4,0.6,0.1,1c-0.2,0.3-0.5,0.6-0.7,0.9
		C47.6,54.1,47.3,54.7,47.3,55.4 M100.5,47.6c0-1.7-1.2-2.9-2.9-2.9c-0.9,0-1.6,0.3-2.2,0.9c-0.4,0.4-0.8,0.8-1.2,1.2
		c-0.2,0.2-0.4,0.4-0.6,0.6c-0.4,0.3-0.6,0.3-0.9,0c-0.1-0.1-0.3-0.3-0.4-0.4c-0.3-0.3-0.6-0.7-1-1c-1.6-1.2-3.9-0.4-4.4,1.5
		c-0.4,1.3,0.1,2.6,1.2,3.5c0.3,0.2,0.6,0.4,0.8,0.6c0.4,0.4,0.5,0.6,0.2,1.1c-0.2,0.3-0.4,0.7-0.6,1c-0.4,0.6-0.9,1.2-1.4,1.8
		c-0.2,0.2-0.3,0.5-0.4,0.7c-0.3,1,0.2,1.6,1.1,1.5c0.4,0,0.8-0.1,1.1-0.3c0.7-0.4,1.4-0.8,2.1-1.1c0.6-0.3,1-0.2,1.5,0.3
		c0.1,0.1,0.2,0.2,0.3,0.4c0.3,0.3,0.6,0.7,1,1c0.9,0.7,1.9,0.7,2.9,0.3c1-0.5,1.6-1.2,1.6-2.4c0.1-1-0.3-1.9-1.1-2.6
		c-0.8-0.8-0.7-1.1,0.2-1.7c0.5-0.4,1.1-0.7,1.6-1.1C100,49.6,100.6,48.8,100.5,47.6 M50.7,100.7c7.7,0.1,14.1,2.1,19.8,6.2
		c1,0.7,1.4,1.6,1.5,2.8c0.6,6.6-1.1,12.4-5.6,17.2c-3.4,3.7-7.7,5.9-12.7,6.6c-10.5,1.6-20.7-4.7-23.9-14.8c-0.8-2.6-1.1-5.2-1-7.9
		c0-1,0.4-1.8,1.2-2.5c0.4-0.3,0.8-0.7,1.2-1c4.4-3.4,9.4-5.5,14.9-6.4C47.8,100.9,49.6,100.8,50.7,100.7 M51.2,103.1
		c-2.4,0-4.9,0.3-7.2,0.9c-4.2,1-8,2.9-11.3,5.6c-0.9,0.7-1.3,1.6-1.3,2.7c0,1,0.1,2.1,0.2,3.1c1.8,10.4,11.3,17.2,21.2,16
		c3.5-0.4,6.6-1.6,9.4-3.7c5.2-4,7.8-9.3,7.8-15.9c0-0.4-0.1-0.9-0.2-1.3c-0.3-1.2-1-2-2-2.6C62.6,104.7,57.1,103.1,51.2,103.1
		 M97.1,99.9c7.3-0.1,13.9,1.9,19.8,6.2c1,0.7,1.4,1.6,1.6,2.8c0.7,7-1.3,13-6.3,18c-3.5,3.5-7.7,5.5-12.7,6
		c-5.6,0.6-10.8-0.6-15.4-4c-4.6-3.4-7.5-8-8.5-13.7c-0.3-1.8-0.4-3.6-0.2-5.5c0.1-0.9,0.5-1.5,1.1-2.1c4.2-3.6,9-5.8,14.3-7
		C92.9,100.1,95,99.9,97.1,99.9 M96.5,130.6c2,0,3.5-0.1,5-0.5c6.1-1.6,10.4-5.2,13.1-10.9c1.2-2.6,1.7-5.3,1.7-8.2
		c0-1.6-0.6-2.9-2-3.9c-5.4-3.4-11.3-5.2-17.7-4.9c-2.7,0.1-5.4,0.6-8,1.4c-3.4,1.1-6.5,2.7-9.3,4.8c-1.1,0.8-1.7,2-1.6,3.4
		c0,0.8,0.1,1.5,0.2,2.3c0.7,4.8,3,8.9,6.7,12C88.1,129.1,92.2,130.6,96.5,130.6 M74.4,141.2c-2-0.1-3.4-0.6-4.6-1.8
		c-0.4-0.4-0.6-0.8-0.7-1.3c-0.1-0.5,0-1,0.4-1.2c0.4-0.3,0.8-0.2,1.2,0c0.4,0.3,0.8,0.6,1.2,0.9c1.3,1.1,3,1.1,4.3,0.1
		c0.4-0.3,0.8-0.6,1.3-0.8c0.4-0.2,0.8-0.2,1.1,0.1c0.4,0.3,0.5,0.7,0.3,1.1c-0.1,0.3-0.2,0.6-0.4,0.9
		C77.3,140.6,75.8,141.1,74.4,141.2 M50.1,106.2c6.5,0,11.6,5.1,11.6,11.6c0,5.2-4.1,11.4-11.6,11.4c-6.2,0-11.2-5.1-11.5-11
		C38.3,111.3,43.8,106.1,50.1,106.2 M50.2,108.2c-4.4-0.1-9.4,3.3-9.5,9.5c-0.1,5.1,4.3,9.5,9.4,9.5c5.6,0,9.6-4.6,9.6-9.4
		C59.7,112.5,55.4,108.2,50.2,108.2 M96.5,105.3c5.7-0.2,11.8,4.4,11.6,12.2c-0.1,5.4-4.8,10.9-11.5,10.9c-6.1,0-11.6-4.9-11.6-11.8
		C85,110.3,90.2,105.3,96.5,105.3 M106,116.9c0-5.3-4.2-9.6-9.4-9.6c-5.3,0-9.5,4.1-9.5,9.4c-0.1,5.3,4.2,9.6,9.5,9.6
		C101.8,126.3,105.9,122.2,106,116.9 M49.9,122.2c-2.5,0-4.5-2-4.5-4.5c0-2.5,2-4.4,4.5-4.4c2.6,0,4.5,1.9,4.5,4.5
		C54.3,120.2,52.4,122.2,49.9,122.2 M48,117.3c0,0.4,0.4,0.8,0.8,0.8c0.4,0,0.7-0.4,0.7-0.7c0-0.4-0.4-0.8-0.7-0.8
		C48.3,116.5,48,116.9,48,117.3 M96.2,112.3c2.1,0,4.5,1.5,4.5,4.6c0,2.4-2,4.4-4.5,4.3c-2.5,0-4.5-2-4.5-4.5
		C91.8,114.2,93.7,112.3,96.2,112.3 M95.8,116.3c0-0.4-0.4-0.7-0.7-0.7c-0.4,0-0.8,0.4-0.8,0.8c0,0.4,0.4,0.8,0.8,0.8
		C95.5,117.1,95.8,116.8,95.8,116.3 M73.3,153.4c-3.3,0-6.5-0.8-9.5-2.4c-0.7-0.4-0.9-1.2-0.5-1.8c0.4-0.7,1.2-0.9,1.8-0.5
		c5.7,3.1,12.2,2.8,17.7-0.8c0.6-0.4,1.4-0.2,1.8,0.4c0.4,0.6,0.2,1.4-0.4,1.8C80.8,152.3,77.1,153.4,73.3,153.4"/>
</g>
</svg>
