<?xml version="1.0" encoding="UTF-8" standalone="no"?>
<!DOCTYPE svg PUBLIC "-//W3C//DTD SVG 1.1//EN" "http://www.w3.org/Graphics/SVG/1.1/DTD/svg11.dtd">
<svg width="100%" height="100%" viewBox="0 0 628 208" version="1.1" xmlns="http://www.w3.org/2000/svg" xmlns:xlink="http://www.w3.org/1999/xlink" xml:space="preserve" xmlns:serif="http://www.serif.com/" style="fill-rule:evenodd;clip-rule:evenodd;stroke-linejoin:round;stroke-miterlimit:2;">
    <g id="Artboard1" transform="matrix(1.45228,0,0,1,0,0)">
        <rect x="0" y="0" width="432" height="208" style="fill:none;"/>
        <clipPath id="_clip1">
            <rect x="0" y="0" width="432" height="208"/>
        </clipPath>
        <g clip-path="url(#_clip1)">
            <g transform="matrix(1.23229,0,0,1.78963,-3584.93,-1464.75)">
                <g transform="matrix(1,0,0,1,2942.6,895.599)">
                    <path d="M0,-44.215C-2.77,-44.215 -5.025,-41.963 -5.025,-39.19C-5.025,-36.417 -2.77,-34.16 0,-34.16C1.339,-34.16 2.601,-34.686 3.552,-35.636C4.502,-36.586 5.028,-37.849 5.028,-39.19C5.028,-41.963 2.772,-44.215 0,-44.215M0,-30.916C-4.562,-30.916 -8.276,-34.63 -8.276,-39.19C-8.276,-43.753 -4.562,-47.468 0,-47.468C4.566,-47.468 8.279,-43.753 8.279,-39.19C8.279,-34.63 4.566,-30.916 0,-30.916M-18.244,-61.68L-11.742,-55.185L-11.742,-61.68L-18.244,-61.68ZM-33.439,-59.387L-33.439,-43.116L-25.306,-51.254L-33.439,-59.387ZM-1.013,-25.107L-0.765,-25.089C-0.543,-25.075 -0.29,-25.069 0,-25.069C7.79,-25.069 14.126,-31.404 14.126,-39.19C14.126,-46.979 7.79,-53.315 0,-53.315C-0.219,-53.315 -0.437,-53.306 -0.674,-53.295L-0.91,-53.282C-1.06,-53.272 -1.216,-53.261 -1.365,-53.246L-1.643,-53.218C-1.76,-53.206 -1.893,-53.188 -2.023,-53.168L-2.357,-53.114C-2.467,-53.097 -2.572,-53.079 -2.674,-53.059L-3.338,-52.914L-3.653,-52.833C-3.754,-52.81 -3.853,-52.777 -3.95,-52.75L-3.982,-52.737C-4.116,-52.705 -4.192,-52.682 -4.256,-52.659L-4.648,-52.526C-4.729,-52.497 -4.816,-52.468 -4.907,-52.438L-4.992,-52.402C-5.309,-52.286 -5.63,-52.148 -5.961,-51.995L-6.062,-51.947C-6.15,-51.907 -6.235,-51.862 -6.324,-51.819C-6.371,-51.795 -6.418,-51.772 -6.469,-51.746L-6.608,-51.674C-6.706,-51.621 -6.807,-51.562 -6.905,-51.506L-7.158,-51.364C-7.259,-51.306 -7.347,-51.25 -7.43,-51.197L-7.686,-51.036C-7.819,-50.951 -7.948,-50.861 -8.077,-50.771L-8.324,-50.596C-8.416,-50.526 -8.5,-50.463 -8.582,-50.402L-8.669,-50.331C-8.795,-50.242 -8.925,-50.136 -9.071,-50.015L-9.162,-49.935C-9.747,-49.429 -10.274,-48.903 -10.761,-48.333L-10.809,-48.28L-19.877,-39.209L-11.007,-30.34L-10.982,-30.305C-10.611,-29.859 -10.272,-29.487 -9.91,-29.133L-9.841,-29.063C-9.664,-28.889 -9.515,-28.753 -9.377,-28.632L-9.248,-28.52C-9.101,-28.394 -8.958,-28.278 -8.813,-28.16L-8.658,-28.037C-8.509,-27.922 -8.367,-27.817 -8.218,-27.708L-8.043,-27.582C-7.91,-27.491 -7.757,-27.389 -7.601,-27.287L-7.435,-27.186C-7.277,-27.085 -7.102,-26.982 -6.923,-26.88L-6.866,-26.848C-6.392,-26.583 -5.947,-26.368 -5.458,-26.158L-5.357,-26.117C-5.159,-26.041 -4.962,-25.964 -4.763,-25.894L-4.404,-25.772C-4.291,-25.736 -4.18,-25.695 -4.065,-25.661L-3.792,-25.582C-3.647,-25.545 -3.498,-25.505 -3.342,-25.47L-3.296,-25.459C-3.254,-25.446 -3.206,-25.436 -3.162,-25.427C-3.125,-25.419 -3.087,-25.413 -3.052,-25.404C-2.896,-25.367 -2.75,-25.336 -2.603,-25.309L-2.311,-25.254C-2.229,-25.244 -2.146,-25.232 -2.062,-25.219C-1.985,-25.209 -1.905,-25.196 -1.822,-25.184L-1.544,-25.153C-1.427,-25.138 -1.312,-25.13 -1.199,-25.12C-1.137,-25.114 -1.076,-25.111 -1.013,-25.107M-33.439,-35.274L-33.439,-19.002L-25.306,-27.135L-33.439,-35.274ZM-8.517,-16.181C-5.786,-15.166 -2.923,-14.652 0,-14.652C13.531,-14.652 24.541,-25.661 24.541,-39.19C24.541,-52.724 13.531,-63.73 0,-63.73C-2.912,-63.73 -5.767,-63.218 -8.494,-62.208L-8.494,-54.344C-5.904,-55.8 -2.995,-56.565 0,-56.565C9.581,-56.565 17.372,-48.771 17.372,-39.19C17.372,-29.611 9.581,-21.818 0,-21.818C-3.013,-21.818 -5.929,-22.585 -8.517,-24.044L-8.517,-16.181ZM-19.899,-15.091L-11.762,-6.957L-11.762,-23.231L-19.899,-15.091ZM-33.439,-11.162L-33.439,5.111L-25.306,-3.021L-33.439,-11.162ZM-19.899,9.045L-11.729,17.211L-11.755,0.901L-19.899,9.045ZM-22.334,19.501L-14.028,19.501L-24.472,9.058L-12.405,-3.011L-24.472,-15.079L-12.414,-27.137L-13.396,-28.135L-24.468,-39.203L-12.417,-51.254L-12.443,-51.274L-12.432,-51.28L-17.501,-56.347L-18.155,-56.99L-22.837,-61.672L-31.142,-61.672L-22.839,-53.37L-22.284,-52.824L-20.708,-51.256L-22.189,-49.764L-32.766,-39.185L-22.178,-28.593L-20.692,-27.142L-32.766,-15.067L-20.708,-3.011L-32.778,9.058L-22.334,19.501ZM-33.439,19.515L-26.884,19.515L-33.439,12.971L-33.439,19.515Z" style="fill:rgb(220,225,214);fill-rule:nonzero;"/>
                </g>
                <g transform="matrix(1,0,0,1,2947.25,910.925)">
                    <path d="M0,-14.567L0,-7.575L3.463,-7.575C5.619,-7.575 8.231,-7.644 8.231,-11.206C8.231,-14.567 5.324,-14.567 3.657,-14.567L0,-14.567ZM-5.783,-18.816L3.494,-18.816C7.284,-18.816 10.651,-18.816 12.676,-15.91C13.556,-14.602 13.982,-12.738 13.982,-11.17C13.982,-9.896 13.719,-8.655 13.196,-7.575C11.204,-3.461 6.959,-3.363 3.823,-3.297L0,-3.297L0,4.249L-5.783,4.249L-5.783,-18.816Z" style="fill:rgb(220,225,214);fill-rule:nonzero;"/>
                </g>
                <g transform="matrix(1,0,0,1,2967.02,913.212)">
                    <path d="M0,-13.327C1.107,-14.274 2.317,-15.026 4.931,-15.288L4.931,-10.846L3.266,-10.585C0.846,-10.16 0.128,-9.799 0.128,-7.643L0.128,1.961L-4.903,1.961L-4.903,-15.127L0,-15.127L0,-13.327Z" style="fill:rgb(220,225,214);fill-rule:nonzero;"/>
                </g>
                <g transform="matrix(1,0,0,1,2978.03,909.649)">
                    <path d="M0,-6.399C-0.619,-5.42 -0.846,-4.243 -0.846,-3.064C-0.846,-0.355 0.459,2.028 3.268,2.028C5.98,2.028 7.321,-0.16 7.321,-2.836C7.321,-4.733 6.862,-6.201 5.912,-7.117C4.87,-8.097 3.696,-8.131 2.975,-8.063C1.537,-7.967 0.686,-7.477 0,-6.399M12.415,-3.034C12.415,1.275 9.933,6.012 3.268,6.012C-1.533,6.012 -5.911,3.272 -5.911,-3.034C-5.911,-8.261 -2.612,-12.411 3.923,-12.05C10.882,-11.66 12.415,-6.135 12.415,-3.034" style="fill:rgb(220,225,214);fill-rule:nonzero;"/>
                </g>
                <g transform="matrix(1,0,0,1,0,-15.08)">
                    <path d="M2992.63,913.165L2997.6,913.165L2997.6,930.253L2992.63,930.253L2992.63,913.165ZM2992.63,907.157L2997.6,907.157L2997.6,911.045L2992.63,911.045L2992.63,907.157Z" style="fill:rgb(220,225,214);fill-rule:nonzero;"/>
                </g>
                <g transform="matrix(1,0,0,1,3005.89,912.954)">
                    <path d="M0,-13.036C0.589,-13.719 1.897,-15.256 4.836,-15.256C7.644,-15.256 8.655,-14.214 9.574,-13.264C10.553,-14.082 11.923,-15.256 14.634,-15.256C17.445,-15.256 18.885,-13.852 19.405,-12.807C19.829,-11.891 19.864,-10.717 19.864,-8.885L19.864,2.22L14.897,2.22L14.897,-6.73C14.897,-7.709 14.897,-8.984 14.701,-9.637C14.243,-11.077 12.904,-11.176 12.514,-11.176C12.022,-11.176 11.368,-11.043 10.88,-10.652C9.933,-9.902 9.933,-8.921 9.933,-7.059L9.933,2.22L4.964,2.22L4.964,-7.872C4.964,-8.626 4.933,-9.637 4.477,-10.292C4.083,-10.816 3.333,-11.176 2.516,-11.176C2.125,-11.176 1.602,-11.077 1.143,-10.782C0.035,-10.03 0,-8.658 0,-7.482L0,2.22L-4.965,2.22L-4.965,-14.8L0,-14.8L0,-13.036Z" style="fill:rgb(220,225,214);fill-rule:nonzero;"/>
                </g>
                <g transform="matrix(1,0,0,1,3036.7,915.632)">
                    <path d="M0,-23.947L5.947,-23.947L0.947,-19.601L-2.385,-19.601L0,-23.947ZM-1.309,-7.548C-2.156,-7.221 -3.463,-6.731 -3.463,-5.423C-3.463,-4.606 -2.744,-3.692 -1.568,-3.692C-0.948,-3.692 -0.357,-3.921 0.164,-4.247C1.829,-5.294 1.897,-6.862 1.928,-8.626L-1.309,-7.548ZM-7.678,-12.678C-7.577,-13.854 -7.417,-15.257 -5.881,-16.464C-4.312,-17.706 -2.288,-17.971 -0.293,-17.971C1.795,-17.971 6.861,-17.478 6.861,-13.069L6.861,-3.139C6.861,-1.309 6.958,-1.046 7.348,-0.457L2.417,-0.457L2.417,-2.028C1.143,-1.078 -0.293,0 -2.808,0C-6.731,0 -8.396,-2.809 -8.396,-5.195C-8.396,-7.937 -6.208,-9.51 -4.803,-10.097C-3.431,-10.685 -0.197,-11.27 1.928,-11.662L1.928,-12.58C1.863,-13.361 1.795,-14.669 0,-14.669C-2.223,-14.669 -2.515,-13.296 -2.646,-12.678L-7.678,-12.678Z" style="fill:rgb(220,225,214);fill-rule:nonzero;"/>
                </g>
                <g transform="matrix(1,0,0,1,3050.97,912.952)">
                    <path d="M0,-6.796C0,-5.359 0.1,-2.386 3.203,-2.386C5.753,-2.386 6.34,-4.379 6.34,-6.796C6.34,-7.611 6.274,-9.31 5.719,-10.127C5.327,-10.745 4.413,-11.434 2.975,-11.367C0.59,-11.27 0,-9.212 0,-6.796M6.371,-0.031C5.392,0.623 4.183,1.404 1.863,1.404C0.46,1.404 -0.91,1.047 -2.022,0.295C-4.31,-1.172 -5.192,-3.822 -5.192,-6.76C-5.192,-10.192 -3.594,-15.127 2.058,-15.127C4.675,-15.127 5.882,-13.981 6.633,-13.262L6.633,-14.867L11.338,-14.867L11.338,1.537C11.273,3.396 11.208,5.588 8.725,7.024C6.991,8.071 4.445,8.331 2.91,8.331C-0.489,8.331 -2.712,7.156 -3.622,6.207C-4.965,4.868 -4.932,3.137 -4.932,2.222L0.264,2.222C0.33,2.972 0.394,4.053 1.734,4.672C2.058,4.835 2.551,5.001 3.337,5.001C6.371,5.001 6.371,3.202 6.371,1.795L6.371,-0.031Z" style="fill:rgb(220,225,214);fill-rule:nonzero;"/>
                </g>
                <g transform="matrix(1,0,0,1,3076.52,908.84)">
                    <path d="M0,-4.317C-0.099,-5.037 -0.232,-5.979 -0.949,-6.733C-1.571,-7.356 -2.517,-7.681 -3.4,-7.681C-4.606,-7.681 -5.457,-7.093 -5.947,-6.57C-6.633,-5.82 -6.797,-5.037 -6.96,-4.317L0,-4.317ZM4.998,1.988C4.409,2.87 3.82,3.719 2.936,4.536C1.466,5.907 -0.755,6.955 -3.498,6.955C-8.562,6.955 -12.123,3.719 -12.123,-1.865C-12.123,-5.979 -10.096,-11.272 -3.368,-11.272C-2.355,-11.272 0.587,-11.179 2.773,-8.824C4.998,-6.441 5.127,-3.107 5.193,-1.179L-6.994,-1.179C-7.024,0.943 -5.818,3.067 -3.105,3.067C-0.362,3.067 0.587,1.272 1.208,0.061L4.998,1.988Z" style="fill:rgb(220,225,214);fill-rule:nonzero;"/>
                </g>
                <g transform="matrix(1,0,0,1,3088.6,913.216)">
                    <path d="M0,-13.56C0.49,-14.084 0.815,-14.476 1.7,-14.897C2.482,-15.227 3.593,-15.518 4.802,-15.518C5.818,-15.518 6.958,-15.323 7.839,-14.834C9.637,-13.888 10.093,-12.35 10.093,-9.703L10.093,1.958L5.097,1.958L5.097,-7.647C5.097,-9.183 5.063,-9.74 4.868,-10.195C4.477,-11.109 3.593,-11.503 2.614,-11.503C-0.033,-11.503 -0.033,-9.378 -0.033,-7.253L-0.033,1.958L-5.062,1.958L-5.062,-15.063L0,-15.063L0,-13.56Z" style="fill:rgb(220,225,214);fill-rule:nonzero;"/>
                </g>
                <g transform="matrix(1,0,0,1,3113,908.84)">
                    <path d="M0,-4.317C-0.099,-5.037 -0.232,-5.979 -0.949,-6.733C-1.568,-7.356 -2.517,-7.681 -3.397,-7.681C-4.606,-7.681 -5.456,-7.093 -5.944,-6.57C-6.633,-5.82 -6.796,-5.037 -6.96,-4.317L0,-4.317ZM4.998,1.988C4.409,2.87 3.82,3.719 2.937,4.536C1.47,5.907 -0.755,6.955 -3.497,6.955C-8.564,6.955 -12.123,3.719 -12.123,-1.865C-12.123,-5.979 -10.096,-11.272 -3.367,-11.272C-2.354,-11.272 0.587,-11.179 2.774,-8.824C4.998,-6.441 5.127,-3.107 5.194,-1.179L-6.994,-1.179C-7.024,0.943 -5.816,3.067 -3.104,3.067C-0.361,3.067 0.587,1.272 1.208,0.061L4.998,1.988Z" style="fill:rgb(220,225,214);fill-rule:nonzero;"/>
                </g>
                <g transform="matrix(1,0,0,1,3120.84,903.743)">
                    <path d="M0,5.68C1.372,7.021 3.07,8.037 4.965,8.037C6.176,8.037 8.003,7.642 8.003,6.369C8.003,5.78 7.644,5.552 7.352,5.387C6.597,4.994 5.422,4.898 4.443,4.736C3.692,4.604 2.91,4.441 2.155,4.213C1.11,3.919 0.065,3.492 -0.687,2.741C-1.438,1.99 -1.959,0.815 -1.959,-0.462C-1.959,-3.271 0.457,-6.175 5.227,-6.175C9.246,-6.175 11.664,-4.446 12.84,-3.628L9.735,-0.754C8.134,-1.995 6.633,-2.454 5.456,-2.454C3.497,-2.454 3.039,-1.668 3.039,-1.18C3.039,-0.2 4.115,-0.003 5.749,0.291C9.178,0.912 13.165,1.827 13.165,5.879C13.165,9.895 9.113,11.855 5.094,11.855C0.357,11.855 -2.091,9.569 -3.17,8.555L0,5.68Z" style="fill:rgb(220,225,214);fill-rule:nonzero;"/>
                </g>
                <g transform="matrix(1,0,0,1,3157.85,900.47)">
                    <path d="M0,6.342C-0.978,10.721 -4.671,15.292 -11.369,15.292C-18.979,15.292 -22.64,9.574 -22.64,3.173C-22.64,-3.361 -18.881,-8.95 -10.944,-8.95C-2.972,-8.95 -1.012,-3.426 -0.458,-1.893L-3.559,-1.236C-3.855,-2.088 -4.081,-2.838 -4.932,-3.82C-6.042,-5.19 -8.072,-6.497 -10.973,-6.497C-13.427,-6.497 -15.81,-5.517 -17.313,-3.591C-18.782,-1.762 -19.242,0.654 -19.242,3.006C-19.242,8.726 -16.334,12.743 -11.007,12.743C-7.578,12.743 -4.081,10.816 -3.361,5.948L0,6.342Z" style="fill:rgb(220,225,214);fill-rule:nonzero;"/>
                </g>
                <g transform="matrix(1,0,0,1,3170.36,909.621)">
                    <path d="M0,-4.313C-0.587,-7.351 -2.579,-8.234 -4.345,-8.234C-7.837,-8.234 -9.243,-5.524 -9.243,-1.993C-9.243,1.241 -7.903,3.92 -4.542,3.92C-0.196,3.92 0.132,-0.588 0.165,-2.157C0.197,-3.137 0.098,-3.857 0,-4.313M-4.508,6.011C-9.834,6.011 -12.085,2.027 -12.085,-2.028C-12.085,-5.456 -10.387,-10.324 -4.407,-10.324C0.688,-10.324 3.039,-6.371 3.005,-2.157C2.974,2.513 0.197,6.011 -4.508,6.011" style="fill:rgb(220,225,214);fill-rule:nonzero;"/>
                </g>
                <g transform="matrix(-1,0,0,1,6353.89,-15.047)">
                    <rect x="3175.69" y="907.156" width="2.516" height="23.065" style="fill:rgb(220,225,214);"/>
                </g>
                <g transform="matrix(1,0,0,1,3192.57,909.621)">
                    <path d="M0,-4.313C-0.588,-7.351 -2.581,-8.234 -4.345,-8.234C-7.843,-8.234 -9.245,-5.524 -9.245,-1.993C-9.245,1.241 -7.906,3.92 -4.542,3.92C-0.197,3.92 0.129,-0.588 0.163,-2.157C0.194,-3.137 0.099,-3.857 0,-4.313M-4.508,6.011C-9.836,6.011 -12.088,2.027 -12.088,-2.028C-12.088,-5.456 -10.39,-10.324 -4.409,-10.324C0.687,-10.324 3.038,-6.371 3.005,-2.157C2.971,2.513 0.194,6.011 -4.508,6.011" style="fill:rgb(220,225,214);fill-rule:nonzero;"/>
                </g>
                <g transform="matrix(1,0,0,1,3200.28,914.683)">
                    <path d="M0,-14.895L0,-12.837C1.859,-15.027 3.463,-15.386 4.607,-15.386C7.122,-15.386 8.069,-13.752 8.788,-12.544C10.128,-13.883 11.631,-15.386 13.916,-15.386C15.812,-15.386 17.511,-14.212 18.13,-12.709C18.525,-11.758 18.556,-10.713 18.556,-9.178L18.556,0.46L16.01,0.46L16.01,-8.56C16.01,-9.964 16.01,-10.486 15.875,-11.009C15.387,-12.771 13.755,-12.936 13.201,-12.936C12.122,-12.936 10.943,-12.412 10.192,-11.63C9.345,-10.748 9.278,-10.028 9.278,-8.164L9.278,0.46L6.731,0.46L6.731,-9.438C6.731,-10.028 6.731,-11.105 6.144,-11.889C5.783,-12.38 5.032,-12.936 3.887,-12.936C2.91,-12.936 1.832,-12.511 1.013,-11.793C0,-10.879 0,-10.028 0,-8.657L0,0.491L-2.548,0.491L-2.548,-14.895L0,-14.895Z" style="fill:rgb(220,225,214);fill-rule:nonzero;"/>
                </g>
                <g transform="matrix(1,0,0,1,3229.32,894.266)">
                    <path d="M0,19.176C3.529,19.176 4.804,16.007 4.804,13.101C4.804,9.311 2.615,7.416 0.032,7.416C-2.091,7.416 -4.837,8.688 -4.867,13.231C-4.867,17.514 -2.452,19.176 0,19.176M-4.802,-2.189L-4.802,7.611C-4.312,6.991 -2.872,5.03 0.491,5.03C3.823,5.03 7.58,7.285 7.58,13.231C7.58,17.119 5.715,21.365 0.456,21.365C-2.644,21.365 -4.147,19.795 -4.802,18.915L-4.802,20.907L-7.417,20.907L-7.417,-2.189L-4.802,-2.189Z" style="fill:rgb(220,225,214);fill-rule:nonzero;"/>
                </g>
                <g transform="matrix(1,0,0,1,0,-15.045)">
                    <path d="M3241.77,930.219L3239.25,930.219L3239.25,914.833L3241.77,914.833L3241.77,930.219ZM3241.77,910.163L3239.25,910.163L3239.25,907.156L3241.77,907.156L3241.77,910.163Z" style="fill:rgb(220,225,214);fill-rule:nonzero;"/>
                </g>
                <g transform="matrix(1,0,0,1,3249.93,906.547)">
                    <path d="M0,1.8C-2.875,2.419 -3.366,3.496 -3.366,4.574C-3.366,5.817 -2.387,6.863 -0.458,6.863C1.337,6.863 2.872,6.143 3.622,4.541C4.017,3.693 4.048,3.334 4.048,1.082C3.038,1.243 1.664,1.439 0,1.8M4.017,-0.584L4.017,-0.977C4.017,-2.578 4.017,-5.258 0.554,-5.258C-2.747,-5.258 -2.747,-2.84 -2.747,-2.024L-5.491,-2.185C-5.423,-2.744 -5.358,-3.593 -4.869,-4.507C-3.955,-6.203 -2.155,-7.251 0.459,-7.251C1.892,-7.251 3.755,-6.892 4.962,-5.944C6.663,-4.573 6.663,-2.807 6.632,-0.751L6.632,4.248C6.663,5.719 6.663,6.47 7.74,6.47C8.069,6.47 8.361,6.405 8.591,6.308L8.591,8.561C8.163,8.661 7.71,8.822 6.96,8.822C5.75,8.822 4.54,8.432 4.278,6.536C3.495,7.351 1.926,9.051 -1.012,9.051C-4.018,9.051 -6.242,7.255 -6.242,4.644C-6.242,3.825 -6.012,3.007 -5.556,2.323C-4.673,1.015 -3.038,-0.029 1.568,-0.391L4.017,-0.584Z" style="fill:rgb(220,225,214);fill-rule:nonzero;"/>
                </g>
            </g>
        </g>
    </g>
</svg>
