<?xml version="1.0" encoding="utf-8"?>
<!-- Generator: Adobe Illustrator 22.0.1, SVG Export Plug-In . SVG Version: 6.00 Build 0)  -->
<svg version="1.1" id="Capa_1" xmlns="http://www.w3.org/2000/svg" xmlns:xlink="http://www.w3.org/1999/xlink" x="0px" y="0px"
	 viewBox="0 0 472 203" style="enable-background:new 0 0 472 203;" xml:space="preserve">
<style type="text/css">
	.st0{fill:#DCE1D6;}
</style>
<g>
	<g transform="matrix(2.65747,0,0,2.73528,1866.55,1532.41)">
		<path class="st0" d="M-573.9-494.6h2.7l1.2-2.7h5.2l1.2,2.7h2.8l-5.3-12h-2.6L-573.9-494.6z M-569.1-499.6l1.6-3.9l1.6,3.9H-569.1
			z M-583.4-494.6h8.8v-2.3h-6.1v-9.6h-2.7V-494.6z M-589.4-494.9c1.5-0.6,2.8-1.8,3.4-3.3c0.3-0.8,0.5-1.6,0.5-2.4
			c0-0.8-0.2-1.6-0.5-2.4c-0.3-0.7-0.8-1.4-1.4-1.9c-1.3-1.2-2.9-1.8-4.7-1.8c-0.9,0-1.8,0.2-2.6,0.5c-1.5,0.6-2.8,1.8-3.4,3.3
			c-0.3,0.8-0.5,1.6-0.5,2.4c0,0.8,0.2,1.6,0.5,2.4c0.3,0.7,0.8,1.4,1.4,1.9C-594.8-494.4-592-493.9-589.4-494.9 M-593.6-497.1
			c-0.4-0.2-0.8-0.5-1.2-0.8c-0.3-0.3-0.6-0.7-0.8-1.1c-0.2-0.5-0.3-1-0.3-1.4c0-0.5,0.1-1,0.3-1.4c0.2-0.4,0.4-0.8,0.8-1.1
			c0.3-0.3,0.7-0.6,1.2-0.8c0.5-0.2,1-0.3,1.5-0.3c0.5,0,1,0.1,1.5,0.3c0.4,0.2,0.8,0.5,1.2,0.8c0.3,0.3,0.6,0.7,0.8,1.1
			c0.2,0.5,0.3,1,0.3,1.4c0,0.5-0.1,1-0.3,1.4c-0.2,0.4-0.4,0.8-0.8,1.1c-0.3,0.3-0.7,0.6-1.2,0.8c-0.5,0.2-1,0.3-1.5,0.3
			C-592.6-496.8-593.1-496.9-593.6-497.1 M-610.6-494.6h2.7v-3.6l1.4-1.4l3.8,5h3.3l-5.2-6.8l5-5.1h-3.3l-5,5.2v-5.2h-2.7V-494.6z
			 M-615.2-494.7c0.5-0.1,1-0.4,1.4-0.7c0.4-0.3,0.7-0.7,0.9-1.1c0.2-0.5,0.3-1,0.3-1.6c0-0.5-0.1-0.9-0.3-1.3
			c-0.2-0.4-0.4-0.7-0.8-1c-0.4-0.3-0.8-0.5-1.2-0.7c-0.5-0.2-1.1-0.4-1.7-0.5l-1.3-0.4c-0.3-0.1-0.6-0.2-0.8-0.3
			c-0.2-0.1-0.3-0.2-0.4-0.4c-0.1-0.2-0.1-0.3-0.1-0.5c0-0.3,0.1-0.6,0.4-0.7c0.3-0.2,0.8-0.3,1.2-0.3c0.5,0,1.1,0.1,1.6,0.3
			c0.6,0.2,1.1,0.5,1.6,0.9l1.4-2c-1.3-1-2.9-1.5-4.6-1.5c-0.6,0-1.2,0.1-1.7,0.3c-0.5,0.2-1,0.4-1.3,0.7c-0.8,0.7-1.2,1.6-1.2,2.6
			c0,0.5,0.1,1,0.3,1.5c0.2,0.4,0.5,0.7,0.8,1c0.4,0.3,0.8,0.5,1.3,0.7c0.6,0.2,1.1,0.4,1.7,0.5c0.4,0.1,0.8,0.2,1.3,0.4
			c0.3,0.1,0.5,0.2,0.8,0.3c0.2,0.1,0.3,0.2,0.4,0.4c0.1,0.1,0.1,0.3,0.1,0.4c0,0.3-0.2,0.7-0.5,0.8c-0.4,0.2-0.8,0.3-1.3,0.3
			c-0.7,0-1.3-0.1-1.9-0.4c-0.6-0.3-1.2-0.6-1.7-1.1l-1.6,1.9c0.7,0.6,1.5,1.1,2.5,1.4c0.9,0.3,1.8,0.5,2.8,0.5
			C-616.5-494.4-615.9-494.5-615.2-494.7 M-632.9-494.6h9.3v-2.3h-6.7v-2.5h5.8v-2.3h-5.8v-2.5h6.6v-2.3h-9.2V-494.6z"/>
	</g>
	<g transform="matrix(2.65747,0,0,2.73528,1866.55,1532.41)">
		<path class="st0" d="M-601.5-508.9h9.4v-2.3h-6.7v-2.6h5.8v-2.3h-5.8v-2.5h6.6v-2.3h-9.3V-508.9z M-615-508.9h2.7v-7.6l5.9,7.6
			h2.3v-11.9h-2.7v7.3l-5.8-7.3h-2.5V-508.9z M-620.5-508.9h2.7v-11.9h-2.7V-508.9z M-633.2-508.9h10.2v-2.3h-6.7l6.7-7.6v-2h-10
			v2.3h6.5l-6.8,7.6V-508.9z"/>
	</g>
	<g transform="matrix(2.65747,0,0,2.73528,1866.55,1532.41)">
		<path class="st0" d="M-538.9-523.2h1.5l1.5-3.2h6.7l1.4,3.2h1.5l-5.6-12h-1.3L-538.9-523.2z M-535.4-527.6l2.8-6.1l2.8,6.1H-535.4
			z M-545.6-523.2h1.4v-10.7h4.1v-1.2h-9.6v1.2h4.1V-523.2z M-560.3-523.2h9v-1.2h-7.6v-4.2h6.7v-1.2h-6.7v-4.1h7.5v-1.2h-8.9
			L-560.3-523.2L-560.3-523.2z M-564.4-524c0.4-0.4,0.6-0.8,0.8-1.3c0.2-0.6,0.3-1.2,0.3-1.8v-8h-1.4v8c0.1,0.8-0.2,1.5-0.7,2.1
			c-0.4,0.5-1.1,0.7-1.7,0.7c-0.6,0-1.1-0.1-1.6-0.4c-0.5-0.3-0.9-0.8-1.2-1.3l-1,0.8c0.4,0.6,0.9,1.1,1.5,1.5
			c0.7,0.4,1.5,0.6,2.3,0.6C-566.1-523-565.1-523.4-564.4-524 M-581.1-523.2h9v-1.2h-7.6v-4.2h6.7v-1.2h-6.7v-4.1h7.5v-1.2h-8.9
			V-523.2L-581.1-523.2z M-593.5-523.2h1.4v-4.6h3.5l3.5,4.6h1.7l-3.8-4.9c0.5-0.1,0.9-0.2,1.3-0.4c0.4-0.2,0.8-0.4,1.1-0.7
			c0.3-0.3,0.5-0.6,0.7-1c0.2-0.4,0.3-0.9,0.2-1.3c0-0.4-0.1-0.9-0.2-1.3c-0.2-0.4-0.4-0.7-0.7-1c-0.4-0.4-0.9-0.7-1.5-0.9
			c-0.6-0.2-1.3-0.3-2-0.3h-5.3L-593.5-523.2L-593.5-523.2z M-592.1-529.1v-4.8h3.8c0.8-0.1,1.7,0.2,2.3,0.6
			c0.5,0.4,0.9,1.1,0.8,1.7c0,0.4-0.1,0.7-0.2,1c-0.2,0.3-0.4,0.6-0.7,0.8c-0.3,0.2-0.6,0.4-1,0.5c-0.4,0.1-0.8,0.2-1.3,0.2
			L-592.1-529.1z M-605-523.2h9v-1.2h-7.6v-4.2h6.7v-1.2h-6.7v-4.1h7.5v-1.2h-8.8L-605-523.2L-605-523.2z M-611-523.4
			c1.3-0.4,2.2-1.4,2.7-2.6c0.3-0.7,0.4-1.5,0.4-2.3v-6.8h-1.4v6.9c0.1,1.1-0.3,2.1-1,2.9c-1.5,1.3-3.9,1.3-5.5,0
			c-0.7-0.8-1.1-1.9-1-3v-6.8h-1.4v6.9c0,0.8,0.1,1.5,0.4,2.3c0.2,0.6,0.6,1.2,1,1.6c0.5,0.4,1,0.8,1.6,1c0.7,0.2,1.4,0.3,2.1,0.3
			c0.7,0,1.4-0.1,2.1-0.3 M-621.5-522.7l0.9-1l-1.6-1.3c0.5-0.5,0.9-1.2,1.1-1.8c0.2-0.7,0.4-1.4,0.4-2.2c0-0.8-0.2-1.6-0.4-2.3
			c-0.3-0.7-0.7-1.4-1.3-1.9c-0.6-0.6-1.2-1-2-1.3c-0.8-0.3-1.7-0.5-2.5-0.5c-0.9,0-1.8,0.2-2.6,0.5c-1.5,0.6-2.7,1.8-3.3,3.3
			c-0.3,0.7-0.5,1.5-0.5,2.3c0,0.8,0.2,1.6,0.4,2.3c0.3,0.7,0.7,1.4,1.3,2c0.6,0.6,1.2,1,2,1.3c1.5,0.6,3.2,0.7,4.7,0.2
			c0.6-0.2,1.2-0.6,1.7-1L-621.5-522.7L-621.5-522.7z M-628.9-524.5c-0.6-0.3-1.1-0.6-1.5-1c-0.4-0.5-0.8-1-1-1.6
			c-0.2-0.6-0.4-1.3-0.4-1.9c0-0.7,0.1-1.3,0.4-1.9c0.2-0.6,0.6-1.1,1-1.6c0.4-0.4,0.9-0.8,1.5-1c1.2-0.5,2.6-0.5,3.9,0
			c0.6,0.2,1.1,0.6,1.5,1c0.4,0.4,0.8,0.9,1,1.4c0.2,0.6,0.4,1.3,0.4,1.9c0,0.6-0.1,1.1-0.3,1.7c-0.2,0.5-0.4,1-0.8,1.4l-2.3-2
			l-0.9,1l2.3,1.9c-0.4,0.3-0.8,0.5-1.3,0.7c-0.5,0.2-1,0.2-1.5,0.2c-0.7,0-1.3-0.1-1.9-0.4"/>
	</g>
	<g transform="matrix(2.65747,0,0,2.73528,1866.55,1532.41)">
		<path class="st0" d="M-586.6-537.5c0.5-0.1,0.9-0.4,1.3-0.7c0.4-0.3,0.7-0.7,0.9-1.1c0.2-0.4,0.3-0.9,0.3-1.4c0-0.8-0.3-1.6-1-2.1
			c-0.9-0.6-1.9-1.1-3-1.2c-0.6-0.1-1.1-0.2-1.7-0.4c-0.4-0.1-0.7-0.3-1-0.5c-0.2-0.2-0.4-0.4-0.5-0.6c-0.1-0.2-0.1-0.5-0.1-0.8
			c0-0.5,0.3-1,0.7-1.4c0.6-0.4,1.2-0.6,1.9-0.5c0.6,0,1.2,0.1,1.8,0.3c0.6,0.2,1.2,0.6,1.7,1l0.8-1c-0.6-0.5-1.2-0.9-2-1.1
			c-0.8-0.3-1.5-0.4-2.3-0.4c-0.5,0-1.1,0.1-1.6,0.2c-0.5,0.2-0.9,0.4-1.3,0.7c-0.4,0.3-0.6,0.6-0.8,1c-0.2,0.4-0.3,0.9-0.3,1.3
			c0,0.4,0.1,0.9,0.2,1.3c0.2,0.4,0.4,0.7,0.8,0.9c0.4,0.3,0.8,0.5,1.3,0.7c0.6,0.2,1.2,0.4,1.8,0.5c0.5,0.1,1.1,0.3,1.6,0.4
			c0.3,0.1,0.7,0.3,1,0.5c0.2,0.2,0.4,0.4,0.5,0.6c0.1,0.2,0.1,0.5,0.1,0.7c0,0.6-0.2,1.1-0.7,1.5c-0.6,0.4-1.3,0.6-2,0.6
			c-0.8,0-1.5-0.1-2.3-0.4c-0.7-0.3-1.4-0.7-1.9-1.3l-0.9,1c0.7,0.6,1.5,1.1,2.3,1.4c0.9,0.3,1.8,0.5,2.7,0.5
			C-587.7-537.3-587.1-537.4-586.6-537.5 M-607.1-537.5h1.4l1.5-3.1h6.7l1.4,3.1h1.5l-5.7-12h-1.3l-5.6,12L-607.1-537.5z
			 M-603.7-541.8l2.8-6.1l2.8,6.1H-603.7z M-610.7-537.5h1.4v-11.9h-1.4V-537.5L-610.7-537.5z M-610.6-550.5h1.1l2-1.8l-1.4-0.6
			L-610.6-550.5L-610.6-550.5z M-621.4-537.4h8.2v-1.2h-6.9v-10.7h-1.3V-537.4z M-632.9-537.4h9v-1.2h-7.6v-4.2h6.7v-1.2h-6.7v-4.1
			h7.5v-1.1h-8.9V-537.4z"/>
	</g>
	<g transform="matrix(2.65747,0,0,2.73528,1866.55,1532.41)">
		<path class="st0" d="M-643.3-550.6h-59v57.3h59V-550.6z M-645.2-540.8c-1.5-3.7-4.5-6.6-8.3-8h8.3V-540.8z M-671.9-522.9v-8
			c1.4,3.7,4.4,6.5,8.1,8H-671.9z M-653.3-522.9c1.5-0.6,3-1.4,4.2-2.5l2.6,2.5L-653.3-522.9z M-658.6-523.8
			c-6.8,0-12.4-5.5-12.4-12.1c0-6.6,5.6-12.1,12.4-12.1c6.8,0,12.4,5.5,12.4,12.1C-646.1-529.2-651.8-523.8-658.6-523.8z
			 M-671.9-540.8v-8h8.3C-667.5-547.4-670.5-544.5-671.9-540.8z M-675.2-521.1l-25.4,24.7v-24.7H-675.2z M-673.8-519.8v24.7h-25.4
			L-673.8-519.8z M-671.9-507.2h22.2v-1.8h-22.2v-12.2h26.7v25.9h-26.7V-507.2z M-647.8-526.7c1.1-1.2,2-2.7,2.6-4.2v6.7
			L-647.8-526.7z M-673.8-522.9h-26.7v-12.2h21.8v-1.8h-21.8v-11.9h26.7V-522.9z"/>
	</g>
</g>
</svg>
