<?xml version="1.0" encoding="UTF-8" standalone="no"?>
<!DOCTYPE svg PUBLIC "-//W3C//DTD SVG 1.1//EN" "http://www.w3.org/Graphics/SVG/1.1/DTD/svg11.dtd">
<svg width="100%" height="100%" viewBox="0 0 655 208" version="1.1" xmlns="http://www.w3.org/2000/svg" xmlns:xlink="http://www.w3.org/1999/xlink" xml:space="preserve" xmlns:serif="http://www.serif.com/" style="fill-rule:evenodd;clip-rule:evenodd;stroke-linejoin:round;stroke-miterlimit:2;">
    <g id="Artboard1" transform="matrix(1.51531,0,0,1,0,0)">
        <rect x="0" y="0" width="432" height="208" style="fill:none;"/>
        <g transform="matrix(0.302146,0,0,0.457845,-21.8421,24.9576)">
            <g>
                <path d="M333.08,89.49C323.34,78.71 307.64,68.9 288.07,68.9C247.94,68.9 216.5,101.63 216.5,143.41C216.5,163.63 223.73,182.47 236.85,196.45C250.17,210.64 268.36,218.45 288.06,218.45C304.39,218.45 320.75,211.1 332.27,198.9L332.27,276.47L360.16,276.47L360.16,72.29L333.07,72.29L333.07,89.49L333.08,89.49ZM288.08,192.42C264,192.42 244.41,170.43 244.41,143.4C244.41,116.67 264,94.92 288.08,94.92C312.04,94.92 332.29,117.12 332.29,143.4C332.28,169.98 312.04,192.42 288.08,192.42Z" style="fill:rgb(220,225,214);fill-rule:nonzero;"/>
                <path d="M475.89,159.48C475.89,178.43 461.6,192.72 442.65,192.72C423.01,192.72 411.28,180.09 411.28,158.94L411.28,72.29L383.65,72.29L383.65,157.87C383.65,194.19 404.88,217.82 437.84,218.44C454.23,218.13 469.74,211.78 476.7,199L476.7,215.26L503.79,215.26L503.79,72.29L475.9,72.29L475.9,159.48L475.89,159.48Z" style="fill:rgb(220,225,214);fill-rule:nonzero;"/>
                <rect x="1149.33" y="72.29" width="27.89" height="142.86" style="fill:rgb(220,225,214);"/>
                <path d="M1334.53,116.57C1324.62,87.12 1299.09,68.82 1267.91,68.82C1228.45,68.82 1196.34,102.48 1196.34,143.86C1196.34,184.94 1228.44,218.37 1267.91,218.37C1299.37,218.37 1324.9,200.07 1334.53,170.6L1334.78,169.84L1304.79,169.84C1297.14,184.15 1283.78,192.34 1267.91,192.34C1243.83,192.34 1224.24,170.59 1224.24,143.85C1224.24,116.82 1243.83,94.83 1267.91,94.83C1283.54,94.83 1296.92,103.06 1304.82,117.43L1334.82,117.43L1334.53,116.57Z" style="fill:rgb(220,225,214);fill-rule:nonzero;"/>
                <path d="M1418.85,192.61C1399.37,192.61 1378.23,178.79 1374.19,152.32L1489.6,152.32L1489.61,149.75C1489.74,125.91 1481.62,104.54 1466.74,89.58C1453.42,76.19 1435.94,68.81 1417.51,68.81C1377.9,68.81 1345.68,102.47 1345.68,143.85C1345.68,185.63 1377.82,218.36 1418.85,218.36C1451.77,218.36 1476.34,200.95 1486.28,170.59L1486.53,169.83L1456.85,169.83C1449.43,184.73 1436.33,192.61 1418.85,192.61ZM1417.51,94.57C1435.93,94.57 1452.37,107.68 1458.48,126.83L1376.02,126.83C1382.79,105.64 1401.63,94.57 1417.51,94.57Z" style="fill:rgb(220,225,214);fill-rule:nonzero;"/>
                <path d="M648,190.21L648,114.27C648,100.53 642.84,89.11 633.07,81.24C622.9,73.05 608.35,68.9 589.8,68.9C572,68.9 556.77,73.37 545.77,81.84C534.71,90.35 528.42,102.44 527.59,116.79L527.58,116.96L556.31,116.96C558.8,97.8 578.17,94.93 589.53,94.93C609.3,94.93 620.64,101.01 620.64,111.6C620.64,118.59 615.63,125.97 578.43,127.74C559.43,128.74 545.43,132.69 535.63,139.83C525.14,147.47 519.83,158.75 519.83,173.37C519.83,188.01 525.83,199.94 537.18,207.88C546.89,214.67 560.02,218.31 575.2,218.46C596.25,218.32 612.14,212.03 620.98,198.93C621.51,204.88 622.88,210.45 625.26,215.17L651.79,215.17C649.73,209.9 648,196.64 648,190.21ZM620.64,159.69C620.4,170.4 615.91,178.71 607.29,184.4C599.71,189.41 588.94,192.16 576.96,192.16C568.16,192.16 560.78,190.53 555.62,187.45C550.2,184.21 547.45,179.47 547.45,173.36C547.45,164.48 551.34,154.04 581.67,152.14C595.33,151.24 610.41,149.74 620.63,143.64L620.63,159.69L620.64,159.69Z" style="fill:rgb(220,225,214);fill-rule:nonzero;"/>
                <path d="M200.46,190.21L200.46,114.27C200.46,100.53 195.3,89.11 185.53,81.24C175.37,73.05 160.81,68.9 142.26,68.9C124.46,68.9 109.23,73.37 98.23,81.84C87.17,90.35 80.88,102.44 80.05,116.79L80.04,116.96L108.77,116.96C111.26,97.8 130.63,94.93 141.99,94.93C161.76,94.93 173.1,101.01 173.1,111.6C173.1,118.59 168.09,125.97 130.89,127.74C111.89,128.74 97.89,132.69 88.09,139.83C77.6,147.47 72.29,158.75 72.29,173.37C72.29,188.01 78.29,199.94 89.64,207.88C99.35,214.67 112.48,218.31 127.66,218.46C148.71,218.32 164.6,212.03 173.44,198.93C173.97,204.88 175.34,210.45 177.72,215.17L204.25,215.17C202.19,209.9 200.46,196.64 200.46,190.21ZM173.1,159.69C172.86,170.4 168.37,178.71 159.75,184.4C152.17,189.41 141.4,192.16 129.42,192.16C120.62,192.16 113.24,190.53 108.08,187.45C102.66,184.21 99.91,179.47 99.91,173.36C99.91,164.48 103.8,154.04 134.13,152.14C147.79,151.24 162.87,149.74 173.09,143.64L173.09,159.69L173.1,159.69Z" style="fill:rgb(220,225,214);fill-rule:nonzero;"/>
                <path d="M844.67,192.69C825.19,192.69 804.05,178.87 800.01,152.4L915.42,152.4L915.43,149.83C915.56,125.99 907.44,104.62 892.56,89.66C879.24,76.27 861.76,68.89 843.33,68.89C803.72,68.89 771.5,102.55 771.5,143.93C771.5,185.71 803.64,218.44 844.67,218.44C877.59,218.44 902.16,201.03 912.1,170.67L912.37,169.83L882.7,169.83C875.3,184.78 862.18,192.69 844.67,192.69ZM843.33,94.65C861.75,94.65 878.19,107.76 884.3,126.91L801.84,126.91C808.61,105.72 827.45,94.65 843.33,94.65Z" style="fill:rgb(220,225,214);fill-rule:nonzero;"/>
                <path d="M760.69,68.9L758.95,68.9C729.5,68.9 705.62,94.66 705.62,126.93L705.62,160.44C705.62,177.94 696.79,193.9 676.85,193.9L676.49,193.9C669.52,193.9 664.27,192.75 662.13,192.18C662.21,198.74 663,210.57 663.96,215.77C666.53,216.72 672.19,218.43 679.83,218.43C713.36,218.43 733.16,190.96 733.16,160.41L733.16,126.89C733.16,106.28 746.04,93.42 761.93,93.42L762.29,93.42C767.04,93.42 770.73,94.17 773.2,94.9L777.79,71.45C773.78,70.35 767.25,68.9 760.69,68.9Z" style="fill:rgb(220,225,214);fill-rule:nonzero;"/>
                <g>
                    <path d="M1074.05,176.63L1053.96,119.02C1053.67,118.19 1052.57,118.03 1052.06,118.74C1048.02,124.32 1042.42,128.58 1035.8,131C1034.22,131.58 1032.69,132.04 1031.21,132.4C1030.57,132.56 1030.21,133.24 1030.43,133.86L1059.95,215.15L1087.9,215.15L1139.78,72.29L1110.19,72.29L1074.05,176.63Z" style="fill:rgb(220,225,214);fill-rule:nonzero;"/>
                    <path d="M1042.29,90.94C1037.95,79.05 1025.13,73.98 1012.91,77.28C998.78,81.09 986.81,92.23 979.68,106.01C976.47,112.21 974.79,118.05 974.03,121.27C973.81,122.21 974.83,122.96 975.65,122.46C977.26,121.5 979.65,120.18 982.45,119.02C987.63,116.87 993.46,115.72 999.03,116.95C1006.77,118.65 1014.97,125.31 1028.62,120.33C1040.51,115.98 1046.63,102.82 1042.29,90.94Z" style="fill:rgb(220,225,214);fill-rule:nonzero;"/>
                    <path d="M993.74,70.97C994.84,70.9 995.34,72.32 994.44,72.96C987.83,77.66 979.48,84.72 972.47,94.63C964.29,106.2 961.86,119.47 961.35,129.69C960.84,139.91 961.27,215.16 961.27,215.16L931.23,215.16L931.23,132.37C931.23,113.83 937.85,98.32 950.37,87.5C958.95,80.09 969.31,75.04 980.72,72.66C985.58,71.64 990.48,71.18 993.74,70.97Z" style="fill:rgb(220,225,214);fill-rule:nonzero;"/>
                </g>
            </g>
        </g>
    </g>
</svg>
