<?xml version="1.0" encoding="utf-8"?>
<!-- Generator: Adobe Illustrator 22.0.1, SVG Export Plug-In . SVG Version: 6.00 Build 0)  -->
<svg version="1.2" baseProfile="tiny" id="Capa_1" xmlns="http://www.w3.org/2000/svg" xmlns:xlink="http://www.w3.org/1999/xlink"
	 x="0px" y="0px" viewBox="0 0 307 208" xml:space="preserve">
<path fill="#DCE1D6" d="M147.8,127.6h-11.3c0.1,2.4,1.3,3.9,3.1,3.9c1.6,0,2.7-0.8,3-2.2h5.1c-0.6,3.8-3.7,6.1-8.1,6.1
	c-5.2,0-8.3-3.1-8.3-8.4c0-5.3,3-8.4,8.3-8.4c5.1,0,8.1,3.1,8.1,8.4V127.6z M136.6,126h6.1c-0.3-2.2-1.3-3.5-3-3.5
	C137.9,122.5,136.8,123.8,136.6,126z M176.5,125.2v9.8h-5.3v-9.6c0-1.7-0.9-2.7-2.4-2.7c-1.7,0-2.7,1.3-2.7,3.5v8.8h-5.3v-9.6
	c0-1.7-0.9-2.7-2.4-2.7c-1.7,0-2.7,1.3-2.7,3.5v8.8h-5.3V119h5.3v5.7h0.1c0-3.8,1.9-6,5.1-6c3.3,0,5.2,2.3,5.2,6h0.1
	c0-3.8,1.8-6,4.8-6C174.5,118.6,176.5,121.1,176.5,125.2z M195.6,127.6h-11.3c0.1,2.4,1.3,3.9,3.1,3.9c1.6,0,2.7-0.8,3-2.2h5.1
	c-0.6,3.8-3.7,6.1-8.1,6.1c-5.2,0-8.3-3.1-8.3-8.4c0-5.3,3-8.4,8.3-8.4c5.1,0,8.1,3.1,8.1,8.4V127.6z M184.3,126h6.1
	c-0.3-2.2-1.3-3.5-3-3.5C185.7,122.5,184.6,123.8,184.3,126z M210.8,119.2l-1.5,4.6c-0.6-0.4-1.4-0.6-2.1-0.6c-2.2,0-3.5,1.8-3.5,5
	v6.9h-5.3V119h5.3v7h0.1c0-4.6,1.7-7.3,4.6-7.3C209.2,118.6,210.1,118.8,210.8,119.2z M228.4,119v16.2c0,4.7-3.1,7.5-8.3,7.5
	c-4.4,0-7.5-2.1-8.2-5.6l5-0.8c0.3,1.5,1.5,2.3,3.2,2.3c1.9,0,3-1.2,3-3.1v-6.3H223c0,3.8-2.1,6-5.6,6c-3.8,0-6.2-3-6.2-8.3
	c0-5.2,2.3-8.2,6.2-8.2c3.5,0,5.6,2.2,5.6,6h0.1V119H228.4z M223.3,126.9c0-2.3-1.2-4.1-3.3-4.1c-2.1,0-3.3,1.5-3.3,4.1
	c0,2.6,1.2,4.1,3.3,4.1C222.1,131,223.3,129.2,223.3,126.9z M247.6,127.6h-11.3c0.1,2.4,1.3,3.9,3.1,3.9c1.6,0,2.7-0.8,3-2.2h5.1
	c-0.6,3.8-3.7,6.1-8.1,6.1c-5.2,0-8.3-3.1-8.3-8.4c0-5.3,3-8.4,8.3-8.4c5.1,0,8.1,3.1,8.1,8.4V127.6z M236.3,126h6.1
	c-0.3-2.2-1.3-3.5-3-3.5C237.7,122.5,236.6,123.8,236.3,126z M266.3,125.4v9.7H261v-9.4c0-1.8-1-2.9-2.5-2.9c-1.8,0-2.8,1.4-2.8,3.7
	v8.6h-5.3V119h5.3v5.7h0.1c0-3.8,1.9-6.1,5-6.1C264.2,118.6,266.3,121.1,266.3,125.4z M275.8,122.5v6.7c0,1.3,0.9,2,2.3,2
	c0.8,0,1.5-0.2,2.1-0.5v3.9c-1.1,0.5-2.4,0.8-3.7,0.8c-3.7,0-5.9-2-5.9-5.4v-7.4h-2.1V119h2.4v-5.2h5.3v1.3c0,2.2-1.9,3.6-5.1,3.8
	v0.1h9.5v3.6H275.8z M298.3,127.6H287c0.1,2.4,1.3,3.9,3.1,3.9c1.6,0,2.7-0.8,3-2.2h5.1c-0.6,3.8-3.7,6.1-8.1,6.1
	c-5.2,0-8.3-3.1-8.3-8.4c0-5.3,3-8.4,8.3-8.4c5.1,0,8.1,3.1,8.1,8.4V127.6z M287,126h6.1c-0.3-2.2-1.3-3.5-3-3.5
	C288.4,122.5,287.2,123.8,287,126z M301.4,111.6h5.4l-0.2,15.5h-5.1L301.4,111.6z M307,135.1h-5.7v-5.5h5.7V135.1z M6.1,134.1
	c-0.1,7.1,0.9,14.2,3,21.1c2.1,7,5.2,13.2,9.5,18.8c4.3,5.5,9.7,10,16.3,13.5c6.6,3.5,14.4,5.2,23.3,5.3c9.1,0.1,17.3-1.7,24.4-5.3
	c7.1-3.6,13.4-8.8,18.7-15.7l4,3.6c-5.8,7.4-12.6,13-20.4,16.8c-7.7,3.8-16.7,5.7-26.9,5.6c-8.6-0.1-16.5-1.7-23.6-4.9
	c-7.1-3.2-13.2-7.6-18.3-13.3c-5.1-5.6-9-12.4-11.8-20.2c-2.7-7.8-4.1-16.3-4-25.5c0.1-8.8,1.6-16.9,4.5-24.4c3-7.4,7-13.8,12-19.2
	c5.1-5.4,11-9.5,17.8-12.4c6.8-2.9,14.1-4.3,21.9-4.3c9.2,0.1,17.1,1.8,23.9,5c6.8,3.3,12.4,7.6,16.8,12.9c4.5,5.3,7.8,11.3,9.9,18
	c2.1,6.7,3.2,13.5,3.1,20.5l0,4.8L6.1,134.1z M65.2,86.8c0-4.9-4-8.9-8.9-8.9s-8.9,4-8.9,8.9s4,8.9,8.9,8.9S65.2,91.8,65.2,86.8z
	 M29.4,86.6c-4.4,3-8.1,6.6-11.1,10.6c-4,5.3-7,10.9-8.9,16.7c-1.9,5.8-2.9,11-2.9,15.4l98.6,0.9c-0.1-7.6-1.4-14.6-3.8-20.9
	c-2.4-6.3-5.7-11.7-9.9-16.2c-2.3-2.5-4.9-4.7-7.7-6.6c0.1,0.5,0.2,1,0.2,1.6c0,15.1-12.2,27.3-27.3,27.3S29.2,103.1,29.2,88
	C29.2,87.5,29.3,87.1,29.4,86.6z M55.9,64.8L45.3,11.4l16.1-1.3L55.9,64.8z M81.8,67.4l13.6-46.6l15.2,6.4L81.8,67.4z M27.1,64
	L0,28.8l13.6-7.6L27.1,64z M137.8,158.4c-3.4,0-5.4-2.3-5.4-6.3c0-3.9,2-6.3,5.4-6.3c2.8,0,4.6,1.7,5.1,4.6h-1.7
	c-0.4-2-1.6-3.2-3.4-3.2c-2.3,0-3.6,1.8-3.6,4.9c0,3.1,1.4,4.9,3.6,4.9c1.8,0,3-1.2,3.4-3.3h1.7
	C142.5,156.6,140.6,158.4,137.8,158.4z M146.8,146v12.2h-1.7V146H146.8z M159.2,146v12.2h-3l-4.7-12.1h0l0.1,12.1h-1.7V146h3
	l4.7,12.1h0l0-12.1H159.2z M170.5,156.8v1.4h-8.3V146h8.1v1.4H164v3.9h5.8v1.4H164v4.2H170.5z M183.9,156.8v1.4h-7.3V146h1.7v10.8
	H183.9z M192.8,155.1h-5.6l-1,3.1h-1.8l4.1-12.2h3.1l4,12.2h-1.9L192.8,155.1z M192.4,153.8l-2.3-7.6h0l-2.4,7.6H192.4z
	 M206.6,154.7c0,2.2-1.5,3.5-4.2,3.5h-5V146h4.9c2.1,0,3.4,1,3.4,2.8c0,1.6-1.2,2.5-3.3,2.5v0h0.2
	C205.1,151.3,206.6,152.6,206.6,154.7z M201.7,147.4h-2.6v3.9h2.6c1.3,0,2.1-0.7,2.1-1.9C203.8,148.1,203.1,147.4,201.7,147.4z
	 M204.8,154.7c0-1.3-0.9-2.1-2.3-2.1h-3.3v4.3h3.3C203.9,156.8,204.8,156,204.8,154.7z"/>
</svg>
