<?xml version="1.0" encoding="utf-8"?>
<!-- Generator: Adobe Illustrator 22.0.1, SVG Export Plug-In . SVG Version: 6.00 Build 0)  -->
<svg version="1.1" id="Capa_1" xmlns="http://www.w3.org/2000/svg" xmlns:xlink="http://www.w3.org/1999/xlink" x="0px" y="0px"
	 viewBox="0 0 723.1 208" style="enable-background:new 0 0 723.1 208;" xml:space="preserve">
<style type="text/css">
	.st0{fill:#DCE1D6;}
</style>
<g transform="matrix(2.31741,0,0,1.90926,-253.357,1807.1)">
	<path class="st0" d="M318.5-910.3c6.3-0.5,7.8,0.4,8,2c0.3,1.8-1.4,2.9-2.2,3.4c-0.6,0.4-1.4,0.1-1.8-0.6c-0.3-0.6-0.2-1.3,0.2-1.8
		c-2.4-0.1-6.9,0.2-11.9,1.2c-7.9,10.2-12.4,21.3-15.5,28.8c-0.6,1.5-1.2,2.9-1.7,4.1c-0.2,0.5-0.7,0.8-1.1,0.8
		c-0.2,0-0.4-0.1-0.6-0.2c-0.6-0.4-0.9-1.4-0.5-2.1c0.5-1.2,1.1-2.6,1.7-4.1c2.8-7,6.9-16.9,13.7-26.5c-0.3,0.1-0.5,0.1-0.8,0.2
		c-5.1,1.4-10.1,3.4-14.9,6c-0.2,0.1-0.4,0.1-0.5,0.1c-0.5,0-1-0.3-1.2-0.9c-0.3-0.8,0-1.7,0.6-2.1c4.9-2.7,10.1-4.8,15.4-6.2
		c1.3-0.4,2.8-0.7,4.2-1c0.6-0.8,1.2-1.5,1.9-2.3c0.5-0.6,1.3-0.6,1.8,0c0.3,0.4,0.4,1,0.3,1.5C315.3-910,316.9-910.2,318.5-910.3z
		 M317.9-878.1c0.7,0,1.3,0.8,1.2,1.6c0,0.8-0.6,1.5-1.3,1.5c0,0,0,0-0.1,0c-0.7,0-2.5-0.1-3.4-1.9c-0.4-0.9-0.5-1.8-0.3-2.7
		c-0.5,0.4-1,0.8-1.6,1.1c-0.3,0.2-6.9,4.4-8.7,1.5c-1-1.6-0.5-4,4.8-11.1c0.5-0.6,1.3-0.7,1.8-0.1c0.5,0.6,0.6,1.6,0.1,2.2
		c-3,4-4,6-4.3,6.8c1-0.1,3.1-0.9,5.1-2.1c1-0.7,1.9-1.4,2.6-2c1.3-1.1,2.4-2,3.4-0.9c0.9,1,0.4,2.4,0,3.4c-0.5,1.2-0.7,2-0.6,2.2
		C316.6-878.4,316.8-878.1,317.9-878.1z M415.4-884.9c0.6-0.4,1.4-0.1,1.7,0.7c0.3,0.8,0.1,1.7-0.6,2.1c-4.4,2.7-8.7,4.8-12.9,6.3
		c-2.1,0.7-4.4,1.4-6.9,0.3c-1.6-0.7-2.3-1.8-2.9-2.6c-0.4-0.6-0.7-1-1.2-1.3c-2.3-1.4-6,1.2-8.5,2.8c-2.2,1.5-3.8,2.6-4.8,1.1
		c-1-1.4-0.2-3.2,1.2-5.7c-1.6,1.2-3.7,2.7-6.2,3.9c-3.8,1.9-7.5,3.7-9.4,1.4c-0.8-1-1.2-2.5-1.1-4.4c-2.2-0.4-3.8-1.9-5.2-3.1
		c-0.9-0.8-1.7-1.5-2.3-1.6c-0.3-0.1-2.2,0.1-6,9.1c-0.2,0.5-0.6,1.5-1.4,1.5c-0.2,0-0.3,0-0.5-0.1c-0.4-0.2-0.6-0.5-0.7-1
		c-0.1-0.4-0.2-0.6,0.6-3.2c-2.2,2.2-4.3,3.6-6.2,4.2c-0.8,0.3-1.5,0.4-2.1,0.4c-1.3,0-2.2-0.5-2.7-1c-2-2.3-0.2-7.7,3.4-15.7
		c0.2-0.4,0.4-0.8,0.6-1.2c-1.8-0.1-3.5-0.4-5.3-1c-0.7-0.2-1.1-1.1-0.9-1.9c0.2-0.8,0.9-1.3,1.6-1.1c2,0.6,4.1,0.9,6.2,0.9
		c2-3.8,4.3-7.3,6.9-10.5c0.5-0.6,1.3-0.6,1.8,0c0.5,0.6,0.5,1.6,0,2.2c-2,2.5-3.9,5.2-5.5,8.1c2-0.3,3.9-0.9,5.8-1.8
		c0.7-0.3,1.4,0.1,1.7,0.9c0.3,0.8-0.1,1.7-0.7,2c-2.4,1.1-4.9,1.8-7.5,2.1c-0.3,0-0.7,0.1-1,0.1c-0.5,0.9-0.9,1.8-1.3,2.7
		c-4,9-4.1,11.3-3.9,11.9c0.3,0.1,3.4,1.6,10.7-7.1c0.1-0.2,0.3-0.3,0.5-0.4c0.8-2.3,1.8-4.7,2.7-6.7c0.4-0.7,1.2-1,1.8-0.5
		c0.6,0.5,0.8,1.4,0.4,2.2c-0.4,0.8-0.8,1.8-1.2,2.8c0.9-0.7,1.8-1.1,2.8-0.9c1.2,0.2,2.3,1.2,3.4,2.2c1.3,1.1,2.6,2.3,4.2,2.5
		c0.7-2.5,2.2-4.4,4-5.2c1.8-0.8,4.9-1,5.9,0.9c0.4,0.8,0.7,2.3,0,3.8c-1,2.3-3.6,3.5-7.8,3.8c-0.1,1.1,0.1,1.9,0.3,2.1
		c0.7,0.8,4.7-1.1,6.6-2.1c3.1-1.6,5.6-3.5,7.2-4.7c1.9-1.5,3.1-2.4,4.1-1.2c1.1,1.3,0.2,2.9-1.4,5.7c-0.2,0.4-0.4,0.8-0.7,1.3
		c0.1-0.1,0.3-0.2,0.4-0.3c2.9-2,7.4-5.1,10.9-2.9c1,0.6,1.5,1.4,2,2.1c0.5,0.7,0.9,1.3,1.9,1.7c1.7,0.8,3.4,0.3,5.2-0.3
		C407-880.2,411.2-882.3,415.4-884.9z M369.1-885.6c-0.9,0.4-1.6,1.3-2,2.2c3.5-0.4,4.5-1.6,4.7-2c0.1-0.2,0.1-0.4,0.1-0.5
		c-0.2-0.1-0.5-0.1-1-0.1C370.4-886,369.7-885.9,369.1-885.6z M420-888c0.7,0,1.3,0.7,1.3,1.6s-0.6,1.6-1.3,1.6
		c-0.7,0-1.3-0.7-1.3-1.6S419.3-888,420-888z M286.1-900.2c0.7,0,1.3,0.7,1.3,1.6c0,0.9-0.6,1.6-1.3,1.6s-1.3-0.7-1.3-1.6
		C284.8-899.5,285.4-900.2,286.1-900.2z M164.1-905.5c5.5,1.3,6.8,5.8,5.1,11.3c-1.7,5.6-7.6,6.5-10.7,6.9c-3.5,0.4-8.4,0.6-12.4,0
		c0,0-1.1,6.7,3.4,7.6c2.3,0.4,9.2,0.8,15.2-0.5l-2.1,3.5c-6.4,1.2-12.2,1.4-19.8,0.6c-5.7-0.6-6.5-5.6-6.1-11.1
		c0.2-3,0.9-6.5,1.8-9.3c1.8-5.1,5.6-8,12.7-9.2C156.2-906.5,159.9-906.4,164.1-905.5z M160.8-895.5c1.2-2.9,0.4-6.6-2.3-7.3
		c-1.8-0.4-3-0.5-4.5-0.1c-3.3,1-5.1,3.1-6.3,6.6c-0.5,1.3-1.1,3.8-1.3,5.6c3.5,0.3,6.8,0.2,9.2-0.4
		C157.8-891.5,159.5-892.2,160.8-895.5z M259.5-905.5c5.5,1.3,6.8,5.8,5.1,11.3c-1.7,5.6-7.6,6.5-10.7,6.9c-3.5,0.4-8.4,0.6-12.4,0
		c0,0-1.1,6.7,3.4,7.6c2.3,0.4,9.2,0.8,15.2-0.5l-2.2,3.5c-6.4,1.2-12.2,1.4-19.8,0.6c-5.7-0.6-6.5-5.6-6.1-11.1
		c0.3-3,0.9-6.5,1.9-9.3c1.7-5.1,5.6-8,12.7-9.2C251.6-906.5,255.4-906.4,259.5-905.5z M256.3-895.5c1.2-2.9,0.3-6.6-2.3-7.3
		c-1.8-0.4-3.1-0.5-4.5-0.1c-3.4,1-5.1,3.1-6.4,6.6c-0.5,1.3-1.1,3.8-1.3,5.6c3.5,0.3,6.8,0.2,9.2-0.4
		C253.3-891.5,255-892.2,256.3-895.5z M121.6-895.2c-0.5,3.2-1.8,14.2-2.5,18.9h-9.8c0.7-4.1,2.5-18.2,3-21c1-5.2,3.5-6.9,10.2-8.1
		c4.7-0.8,12.7-0.4,17.5,0l-2,3.6c-3.1-0.4-8.6-0.4-11.5,0.2C123.4-900.8,122.2-898.8,121.6-895.2z M224.3-895.9
		c-0.8,5.9-2.5,16.8-2.5,16.9c-1.3,7.1-2.4,13.7-8,18.5c-2.9,2.5-7.1,4.3-12.3,4l1.6-2.8c4.1,0,6.5-4,7.3-6.7
		c0.6-2.1,1.5-6.7,2.4-13.2l3.9-26.2c1.3-7.1,2.2-13.2,7.8-17.9c3-2.5,8-4,13-4l-1.8,2.8c-3.7,0-6.3,2.7-7.4,5.4
		c-0.8,2-1.7,7.8-2.5,13.6h7.4l-1.8,3.1C227.4-902.5,225-900.2,224.3-895.9z M199.1-905.7c6.4,0,9.2,4.7,8.3,10.7
		c-0.6,4-1.9,13.9-2.9,18.8h-9.1c1.1-7.2,2.4-15.5,2.9-19c0.5-4.3-1.8-6.9-4.9-6.9h-7.3c-1,6.2-3.1,20.3-3.8,25.7h-9.1
		c0.8-7,3-21.2,4.1-29.4H199.1z"/>
</g>
</svg>
