<?xml version="1.0" encoding="UTF-8" standalone="no"?>
<!DOCTYPE svg PUBLIC "-//W3C//DTD SVG 1.1//EN" "http://www.w3.org/Graphics/SVG/1.1/DTD/svg11.dtd">
<svg width="100%" height="100%" viewBox="0 0 1146 337" version="1.1" xmlns="http://www.w3.org/2000/svg" xmlns:xlink="http://www.w3.org/1999/xlink" xml:space="preserve" xmlns:serif="http://www.serif.com/" style="fill-rule:evenodd;clip-rule:evenodd;stroke-linejoin:round;stroke-miterlimit:2;">
    <g transform="matrix(0.554454,0,0,0.554454,-31.6824,-107.407)">
        <g transform="matrix(1,0,0,1,82.9375,399.986)">
            <path d="M0,-62.746L0,-40.485L49.89,-40.485L49.89,-19.578L0,-19.578L0,20.907L-23.005,20.907L-23.005,-83.653L56.613,-83.653L56.613,-62.746L0,-62.746Z" style="fill:rgb(35,31,32);fill-rule:nonzero;"/>
        </g>
        <g transform="matrix(1,0,0,1,0,-30.774)">
            <rect x="164.381" y="347.107" width="23.005" height="104.56" style="fill:rgb(35,31,32);"/>
        </g>
        <g transform="matrix(1,0,0,1,219.708,316.334)">
            <path d="M0,104.56L0,0L23.005,0L23.005,83.64L75.129,83.64L75.129,104.56L0,104.56Z" style="fill:rgb(35,31,32);fill-rule:nonzero;"/>
        </g>
        <g transform="matrix(1,0,0,1,398.411,316.334)">
            <path d="M0,104.56L0,36.301L-29.43,80.958L-30.026,80.958L-59.152,36.748L-59.152,104.56L-81.704,104.56L-81.704,0L-56.911,0L-29.43,44.21L-1.943,0L22.85,0L22.85,104.56L0,104.56Z" style="fill:rgb(35,31,32);fill-rule:nonzero;"/>
        </g>
        <g transform="matrix(1,0,0,1,497.738,393.258)">
            <path d="M0,-50.033L-13.893,-16.128L13.892,-16.128L0,-50.033ZM31.67,27.636L22.112,4.184L-22.105,4.184L-31.665,27.636L-55.117,27.636L-10.304,-77.669L10.9,-77.669L55.719,27.636L31.67,27.636Z" style="fill:rgb(35,31,32);fill-rule:nonzero;"/>
        </g>
        <g transform="matrix(1,0,0,1,647.103,368.613)">
            <path d="M0,0C0,-18.523 -12.701,-31.522 -31.516,-31.522L-49.288,-31.522L-49.288,31.521L-31.516,31.521C-12.701,31.521 0,18.821 0,0.298L0,0ZM-31.516,52.28L-72.293,52.28L-72.293,-52.28L-31.516,-52.28C1.341,-52.28 24.048,-29.722 24.048,-0.298L24.048,0C24.048,29.424 1.341,52.28 -31.516,52.28" style="fill:rgb(35,31,32);fill-rule:nonzero;"/>
        </g>
        <g transform="matrix(1,0,0,1,761.607,385.201)">
            <path d="M0,-33.174C0,-43.032 -6.878,-48.109 -18.076,-48.109L-40.932,-48.109L-40.932,-18.077L-17.629,-18.077C-6.425,-18.077 0,-24.061 0,-32.864L0,-33.174ZM-0.446,35.693L-22.855,2.234L-40.932,2.234L-40.932,35.693L-63.932,35.693L-63.932,-68.867L-16.133,-68.867C8.511,-68.867 23.297,-55.869 23.297,-34.366L23.297,-34.068C23.297,-17.183 14.19,-6.581 0.895,-1.652L26.432,35.693L-0.446,35.693Z" style="fill:rgb(35,31,32);fill-rule:nonzero;"/>
        </g>
        <g transform="matrix(1,0,0,1,0,-30.774)">
            <rect x="812.863" y="347.107" width="23.005" height="104.56" style="fill:rgb(35,31,32);"/>
        </g>
        <g transform="matrix(1,0,0,1,940.453,368.613)">
            <path d="M0,0C0,-18.523 -12.694,-31.522 -31.516,-31.522L-49.294,-31.522L-49.294,31.521L-31.516,31.521C-12.694,31.521 0,18.821 0,0.298L0,0ZM-31.516,52.28L-72.293,52.28L-72.293,-52.28L-31.516,-52.28C1.347,-52.28 24.048,-29.722 24.048,-0.298L24.048,0C24.048,29.424 1.347,52.28 -31.516,52.28" style="fill:rgb(35,31,32);fill-rule:nonzero;"/>
        </g>
        <g transform="matrix(1,0,0,1,59.498,259.758)">
            <path d="M0,-29.635L14.538,-29.635L14.538,-27.114L2.719,-27.114L2.719,-16.822L11.372,-16.822L11.372,-14.339L2.719,-14.339L2.719,0L0,0L0,-29.635Z" style="fill:rgb(35,31,32);fill-rule:nonzero;"/>
        </g>
        <g transform="matrix(1,0,0,1,90.4736,259.758)">
            <path d="M0,-29.635L14.699,-29.635L14.699,-27.114L2.725,-27.114L2.725,-16.934L11.54,-16.934L11.54,-14.451L2.725,-14.451L2.725,-2.483L15.42,-2.483L15.42,0L0,0L0,-29.635Z" style="fill:rgb(35,31,32);fill-rule:nonzero;"/>
        </g>
        <g transform="matrix(1,0,0,1,120.692,236.492)">
            <path d="M0,16.822L2.359,15.742C3.762,19.069 6.009,21.304 9.529,21.304C13.216,21.304 15.494,19.218 15.494,16.139C15.494,12.415 12.453,10.887 9.212,9.286C5.444,7.449 1.36,5.561 1.36,0.198C1.36,-3.973 4.681,-6.928 9.088,-6.928C13.694,-6.928 16.301,-4.048 17.661,-0.77L15.295,0.322C14.252,-2.161 12.378,-4.495 9.051,-4.495C6.084,-4.495 4.042,-2.571 4.042,0.161C4.042,3.836 7.045,5.4 10.255,7.002C14.054,8.851 18.182,10.776 18.182,16.102C18.182,20.385 14.774,23.75 9.529,23.75C4.805,23.75 1.763,21.105 0,16.822" style="fill:rgb(35,31,32);fill-rule:nonzero;"/>
        </g>
        <g transform="matrix(1,0,0,1,161.432,257.237)">
            <path d="M0,-24.593L-7.772,-24.593L-7.772,-27.114L10.497,-27.114L10.497,-24.593L2.725,-24.593L2.725,2.521L0,2.521L0,-24.593Z" style="fill:rgb(35,31,32);fill-rule:nonzero;"/>
        </g>
        <g transform="matrix(1,0,0,1,0,-278.119)">
            <rect x="188.479" y="508.242" width="2.725" height="29.635" style="fill:rgb(35,31,32);"/>
        </g>
        <g transform="matrix(1,0,0,1,207.722,259.882)">
            <path d="M0,-29.759L2.688,-29.759L7.374,-13.296C8.38,-9.771 9.138,-6.89 9.895,-4.01L9.981,-4.01C10.739,-6.927 11.54,-9.771 12.539,-13.222L17.188,-29.759L19.752,-29.759L11.136,0L8.616,0L0,-29.759Z" style="fill:rgb(35,31,32);fill-rule:nonzero;"/>
        </g>
        <g transform="matrix(1,0,0,1,252.329,246.424)">
            <path d="M0,-3.091C-1.043,-6.655 -1.844,-9.534 -2.607,-12.415L-2.682,-12.415C-3.445,-9.497 -4.246,-6.655 -5.252,-3.128L-6.648,1.763L1.365,1.763L0,-3.091ZM-9.932,13.334L-12.502,13.334L-3.806,-16.425L-1.322,-16.425L7.374,13.334L4.643,13.334L2.042,4.159L-7.331,4.159L-9.932,13.334Z" style="fill:rgb(35,31,32);fill-rule:nonzero;"/>
        </g>
        <g transform="matrix(1,0,0,1,276.11,259.758)">
            <path d="M0,-29.635L2.725,-29.635L2.725,-2.483L14.618,-2.483L14.618,0L0,0L0,-29.635Z" style="fill:rgb(35,31,32);fill-rule:nonzero;"/>
        </g>
        <g transform="matrix(1,0,0,1,0,-278.119)">
            <rect x="325.578" y="508.242" width="2.725" height="29.635" style="fill:rgb(35,31,32);"/>
        </g>
        <g transform="matrix(1,0,0,1,346.789,259.758)">
            <path d="M0,-29.635L3.371,-29.635L13.259,-10.416C14.302,-8.405 14.904,-7.163 15.904,-5.165L15.984,-5.165L15.984,-29.635L18.468,-29.635L18.468,0L15.947,0L5.494,-20.187C4.327,-22.434 3.73,-23.552 2.563,-25.997L2.489,-25.997L2.489,0L0,0L0,-29.635Z" style="fill:rgb(35,31,32);fill-rule:nonzero;"/>
        </g>
        <g transform="matrix(1,0,0,1,389.416,257.237)">
            <path d="M0,-24.593L-7.771,-24.593L-7.771,-27.114L10.497,-27.114L10.497,-24.593L2.726,-24.593L2.726,2.521L0,2.521L0,-24.593Z" style="fill:rgb(35,31,32);fill-rule:nonzero;"/>
        </g>
        <g transform="matrix(1,0,0,1,416.345,259.758)">
            <path d="M0,-29.635L14.699,-29.635L14.699,-27.114L2.725,-27.114L2.725,-16.934L11.54,-16.934L11.54,-14.451L2.725,-14.451L2.725,-2.483L15.419,-2.483L15.419,0L0,0L0,-29.635Z" style="fill:rgb(35,31,32);fill-rule:nonzero;"/>
        </g>
        <g transform="matrix(1,0,0,1,456.395,245.58)">
            <path d="M0,-1.279C4.159,-1.279 6.282,-2.881 6.282,-7.288C6.282,-11.372 4.203,-12.937 -0.043,-12.937L-5.332,-12.937L-5.332,-1.279L0,-1.279ZM-8.014,-15.457L0.155,-15.457C5.761,-15.457 8.97,-12.862 8.97,-7.325C8.97,-2.359 6.208,-0.075 3.116,0.682L9.249,14.178L6.487,14.178L0.478,1.08L-5.332,1.08L-5.332,14.178L-8.014,14.178L-8.014,-15.457Z" style="fill:rgb(35,31,32);fill-rule:nonzero;"/>
        </g>
        <g transform="matrix(1,0,0,1,482.74,259.758)">
            <path d="M0,-29.635L3.364,-29.635L13.26,-10.416C14.302,-8.405 14.899,-7.163 15.904,-5.165L15.979,-5.165L15.979,-29.635L18.462,-29.635L18.462,0L15.941,0L5.487,-20.187C4.32,-22.434 3.725,-23.552 2.564,-25.997L2.483,-25.997L2.483,0L0,0L0,-29.635Z" style="fill:rgb(35,31,32);fill-rule:nonzero;"/>
        </g>
        <g transform="matrix(1,0,0,1,530.11,246.424)">
            <path d="M0,-3.091C-1.043,-6.655 -1.844,-9.534 -2.602,-12.415L-2.689,-12.415C-3.445,-9.497 -4.246,-6.655 -5.245,-3.128L-6.648,1.763L1.359,1.763L0,-3.091ZM-9.939,13.334L-12.496,13.334L-3.806,-16.425L-1.322,-16.425L7.368,13.334L4.649,13.334L2.042,4.159L-7.331,4.159L-9.939,13.334Z" style="fill:rgb(35,31,32);fill-rule:nonzero;"/>
        </g>
        <g transform="matrix(1,0,0,1,551.93,245.034)">
            <path d="M0,-0.174C0,-9.907 4.047,-15.469 10.379,-15.469C15.705,-15.469 18.225,-11.633 19.306,-6.307L16.785,-5.823C15.823,-10.429 14.022,-12.986 10.292,-12.986C5.487,-12.986 2.725,-8.07 2.725,-0.211C2.725,8.082 5.524,12.8 10.379,12.8C14.06,12.8 16.064,10.404 17.183,5.314L19.628,5.711C18.467,11.36 15.543,15.295 10.336,15.295C3.967,15.295 0,9.882 0,-0.174" style="fill:rgb(35,31,32);fill-rule:nonzero;"/>
        </g>
        <g transform="matrix(1,0,0,1,0,-278.119)">
            <rect x="588.442" y="508.242" width="2.731" height="29.635" style="fill:rgb(35,31,32);"/>
        </g>
        <g transform="matrix(1,0,0,1,626.742,244.947)">
            <path d="M0,0C0,-8.182 -3.004,-12.899 -7.685,-12.899C-12.414,-12.899 -15.456,-8.182 -15.456,0C-15.456,8.169 -12.414,12.887 -7.685,12.887C-3.004,12.887 0,8.169 0,0M-18.187,0C-18.187,-9.82 -13.854,-15.382 -7.685,-15.382C-1.558,-15.382 2.769,-9.82 2.769,0C2.769,9.808 -1.558,15.382 -7.685,15.382C-13.854,15.382 -18.187,9.808 -18.187,0" style="fill:rgb(35,31,32);fill-rule:nonzero;"/>
        </g>
        <g transform="matrix(1,0,0,1,646.769,259.758)">
            <path d="M0,-29.635L3.364,-29.635L13.259,-10.416C14.302,-8.405 14.897,-7.163 15.903,-5.165L15.978,-5.165L15.978,-29.635L18.461,-29.635L18.461,0L15.94,0L5.487,-20.187C4.32,-22.434 3.725,-23.552 2.563,-25.997L2.482,-25.997L2.482,0L0,0L0,-29.635Z" style="fill:rgb(35,31,32);fill-rule:nonzero;"/>
        </g>
        <g transform="matrix(1,0,0,1,694.138,246.424)">
            <path d="M0,-3.091C-1.042,-6.655 -1.843,-9.534 -2.601,-12.415L-2.688,-12.415C-3.444,-9.497 -4.245,-6.655 -5.245,-3.128L-6.648,1.763L1.36,1.763L0,-3.091ZM-9.939,13.334L-12.495,13.334L-3.805,-16.425L-1.321,-16.425L7.368,13.334L4.649,13.334L2.042,4.159L-7.331,4.159L-9.939,13.334Z" style="fill:rgb(35,31,32);fill-rule:nonzero;"/>
        </g>
        <g transform="matrix(1,0,0,1,717.919,259.758)">
            <path d="M0,-29.635L2.726,-29.635L2.726,-2.483L14.625,-2.483L14.625,0L0,0L0,-29.635Z" style="fill:rgb(35,31,32);fill-rule:nonzero;"/>
        </g>
        <g transform="matrix(1,0,0,1,773.799,232.606)">
            <path d="M0,24.669C6.164,24.669 9.169,20.907 9.169,12.292C9.169,3.886 6.164,0.038 -0.043,0.038L-3.929,0.038L-3.929,24.669L0,24.669ZM-6.654,-2.483L-0.446,-2.483C7.847,-2.483 11.932,2.124 11.932,12.292C11.932,22.471 7.729,27.152 -0.446,27.152L-6.654,27.152L-6.654,-2.483Z" style="fill:rgb(35,31,32);fill-rule:nonzero;"/>
        </g>
        <g transform="matrix(1,0,0,1,802.969,259.758)">
            <path d="M0,-29.635L14.705,-29.635L14.705,-27.114L2.725,-27.114L2.725,-16.934L11.539,-16.934L11.539,-14.451L2.725,-14.451L2.725,-2.483L15.426,-2.483L15.426,0L0,0L0,-29.635Z" style="fill:rgb(35,31,32);fill-rule:nonzero;"/>
        </g>
        <g transform="matrix(1,0,0,1,852.033,245.034)">
            <path d="M0,-0.174C0,-9.907 4.047,-15.469 10.373,-15.469C15.705,-15.469 18.231,-11.633 19.311,-6.307L16.785,-5.823C15.822,-10.429 14.022,-12.986 10.298,-12.986C5.493,-12.986 2.725,-8.07 2.725,-0.211C2.725,8.082 5.53,12.8 10.373,12.8C14.06,12.8 16.064,10.404 17.188,5.314L19.628,5.711C18.467,11.36 15.543,15.295 10.335,15.295C3.967,15.295 0,9.882 0,-0.174" style="fill:rgb(35,31,32);fill-rule:nonzero;"/>
        </g>
        <g transform="matrix(1,0,0,1,0,-278.119)">
            <rect x="888.552" y="508.242" width="2.719" height="29.635" style="fill:rgb(35,31,32);"/>
        </g>
        <g transform="matrix(1,0,0,1,909.763,259.758)">
            <path d="M0,-29.635L3.371,-29.635L13.26,-10.416C14.303,-8.405 14.904,-7.163 15.904,-5.165L15.984,-5.165L15.984,-29.635L18.468,-29.635L18.468,0L15.947,0L5.494,-20.187C4.327,-22.434 3.731,-23.552 2.563,-25.997L2.489,-25.997L2.489,0L0,0L0,-29.635Z" style="fill:rgb(35,31,32);fill-rule:nonzero;"/>
        </g>
        <g transform="matrix(1,0,0,1,946.611,259.758)">
            <path d="M0,-29.635L14.705,-29.635L14.705,-27.114L2.725,-27.114L2.725,-16.934L11.539,-16.934L11.539,-14.451L2.725,-14.451L2.725,-2.483L15.426,-2.483L15.426,0L0,0L0,-29.635Z" style="fill:rgb(35,31,32);fill-rule:nonzero;"/>
        </g>
    </g>
    <g transform="matrix(0.962558,0,0,0.962558,-6.68044,222.571)">
        <g>
            <g transform="matrix(1,0,0,1,0,0.014)">
                <rect x="92.425" y="20.42" width="2.368" height="82.347" style="fill:rgb(35,31,32);"/>
            </g>
            <g transform="matrix(1,0,0,1,61.3381,35.9288)">
                <path d="M0,-2.298L-49.368,-2.298C-50.001,-2.298 -50.521,-1.785 -50.521,-1.145C-50.521,-0.513 -50.001,0 -49.368,0L0,0C0.638,0 1.152,-0.513 1.152,-1.145C1.152,-1.785 0.638,-2.298 0,-2.298" style="fill:rgb(35,31,32);fill-rule:nonzero;"/>
            </g>
            <g transform="matrix(1,0,0,1,61.3381,41.7805)">
                <path d="M0,-2.293L-49.368,-2.293C-50.001,-2.293 -50.521,-1.78 -50.521,-1.147C-50.521,-0.508 -50.001,0 -49.368,0L0,0C0.638,0 1.152,-0.508 1.152,-1.147C1.152,-1.78 0.638,-2.293 0,-2.293" style="fill:rgb(35,31,32);fill-rule:nonzero;"/>
            </g>
            <g transform="matrix(1,0,0,1,11.9712,36.5633)">
                <path d="M0,2.298L2.562,2.298C3.2,2.298 3.708,1.785 3.708,1.145C3.708,0.513 3.2,0 2.562,0L0,0C-0.64,0 -1.153,0.513 -1.153,1.145C-1.153,1.785 -0.64,2.298 0,2.298" style="fill:rgb(35,31,32);fill-rule:nonzero;"/>
            </g>
            <g transform="matrix(1,0,0,1,61.3381,38.8597)">
                <path d="M0,-2.298L-2.562,-2.298C-3.2,-2.298 -3.72,-1.785 -3.72,-1.145C-3.72,-0.513 -3.2,0 -2.562,0L0,0C0.638,0 1.152,-0.513 1.152,-1.145C1.152,-1.785 0.638,-2.298 0,-2.298" style="fill:rgb(35,31,32);fill-rule:nonzero;"/>
            </g>
            <g transform="matrix(1,0,0,1,39.2238,36.5633)">
                <path d="M0,2.298C0.638,2.298 1.152,1.785 1.152,1.145C1.152,0.513 0.638,0 0,0L-5.135,0C-5.773,0 -6.295,0.513 -6.295,1.145C-6.295,1.785 -5.773,2.298 -5.135,2.298L0,2.298Z" style="fill:rgb(35,31,32);fill-rule:nonzero;"/>
            </g>
            <g transform="matrix(0.945619,0.325275,0.325275,-0.945619,20.7302,36.4386)">
                <path d="M0.206,-1.23L4.211,-1.23L7.359,1.23L3.364,1.233L0.206,-1.23Z" style="fill:rgb(35,31,32);fill-rule:nonzero;"/>
            </g>
            <g transform="matrix(0.945672,0.325122,0.325122,-0.945672,45.4169,36.4392)">
                <path d="M0.205,-1.23L4.213,-1.23L7.359,1.23L3.366,1.234L0.205,-1.23Z" style="fill:rgb(35,31,32);fill-rule:nonzero;"/>
            </g>
            <g transform="matrix(0,-1,-1,0,55.2051,36.4119)">
                <path d="M-1.255,-1.25C-0.56,-1.25 0.003,-0.687 0.003,0.003C0.003,0.698 -0.56,1.255 -1.255,1.255C-1.944,1.255 -2.508,0.698 -2.508,0.003C-2.508,-0.687 -1.944,-1.25 -1.255,-1.25" style="fill:rgb(35,31,32);fill-rule:nonzero;"/>
            </g>
            <g transform="matrix(0,-1,-1,0,42.7971,36.4119)">
                <path d="M-1.255,-1.25C-0.56,-1.25 0.003,-0.687 0.003,0.003C0.003,0.698 -0.56,1.255 -1.255,1.255C-1.944,1.255 -2.508,0.698 -2.508,0.003C-2.508,-0.687 -1.944,-1.25 -1.255,-1.25" style="fill:rgb(35,31,32);fill-rule:nonzero;"/>
            </g>
            <g transform="matrix(0,-1,-1,0,30.5166,36.4119)">
                <path d="M-1.255,-1.25C-0.56,-1.25 0.003,-0.68 0.003,0.003C0.003,0.697 -0.56,1.255 -1.255,1.255C-1.944,1.255 -2.508,0.697 -2.508,0.003C-2.508,-0.68 -1.944,-1.25 -1.255,-1.25" style="fill:rgb(35,31,32);fill-rule:nonzero;"/>
            </g>
            <g transform="matrix(0,-1,-1,0,18.1061,36.4089)">
                <path d="M-1.258,-1.253C-0.563,-1.253 0,-0.69 0,0C0,0.694 -0.563,1.258 -1.258,1.258C-1.947,1.258 -2.511,0.694 -2.511,0C-2.511,-0.69 -1.947,-1.253 -1.258,-1.253" style="fill:rgb(35,31,32);fill-rule:nonzero;"/>
            </g>
            <g transform="matrix(1,0,0,1,63.8043,33.0215)">
                <path d="M0,-12.601C-1.948,-12.601 -3.081,-10.967 -3.375,-10.454C-3.514,-10.484 -4.109,-10.578 -4.296,-10.578C-5.03,-10.578 -5.424,-10.502 -5.686,-10.315C-5.18,-9.996 -4.54,-9.526 -4.415,-8.392C-5.529,-8.524 -5.999,-9.162 -6.325,-9.663C-6.507,-9.401 -6.575,-9.012 -6.575,-8.273C-6.575,-8.118 -6.575,-7.936 -6.57,-7.779C-7.389,-7.697 -8.191,-7.209 -8.536,-6.733C-8.191,-6.256 -7.389,-5.768 -6.57,-5.693C-6.575,-5.536 -6.575,-5.349 -6.575,-5.198C-6.575,-4.466 -6.507,-4.065 -6.325,-3.808C-5.956,-4.371 -5.411,-5.105 -3.964,-5.105L-3.753,-5.105C-3.738,-5.005 -3.738,-4.916 -3.738,-4.829C-3.738,-3.551 -4.328,-2.406 -5.874,-2.406C-6.901,-2.406 -7.446,-3.157 -7.685,-3.633C-7.516,-3.865 -7.416,-4.159 -7.416,-4.472C-7.416,-5.274 -8.066,-5.912 -8.856,-5.912C-9.657,-5.912 -10.302,-5.274 -10.302,-4.472C-10.302,-4.159 -10.202,-3.865 -10.033,-3.633C-10.277,-3.157 -10.815,-2.406 -11.849,-2.406C-13.39,-2.406 -13.985,-3.551 -13.985,-4.829C-13.985,-4.916 -13.973,-5.005 -13.973,-5.105L-13.752,-5.105C-12.3,-5.105 -11.761,-4.371 -11.391,-3.808C-11.216,-4.065 -11.135,-4.466 -11.135,-5.198C-11.135,-5.349 -11.147,-5.536 -11.154,-5.693C-10.327,-5.768 -9.52,-6.256 -9.181,-6.733C-9.52,-7.209 -10.327,-7.697 -11.154,-7.779C-11.147,-7.936 -11.135,-8.118 -11.135,-8.273C-11.135,-9.012 -11.216,-9.401 -11.391,-9.663C-11.724,-9.162 -12.181,-8.524 -13.308,-8.392C-13.171,-9.526 -12.538,-9.996 -12.031,-10.315C-12.294,-10.502 -12.688,-10.578 -13.421,-10.578C-13.572,-10.578 -13.759,-10.572 -13.916,-10.559C-13.991,-11.386 -14.486,-12.188 -14.955,-12.532C-15.425,-12.188 -15.92,-11.386 -16.001,-10.559C-16.158,-10.572 -16.339,-10.578 -16.489,-10.578C-17.228,-10.578 -17.617,-10.502 -17.88,-10.315C-17.378,-9.996 -16.74,-9.526 -16.608,-8.392C-17.729,-8.524 -18.194,-9.162 -18.518,-9.663C-18.7,-9.401 -18.769,-9.012 -18.769,-8.273C-18.769,-8.118 -18.769,-7.936 -18.757,-7.779C-19.584,-7.697 -20.391,-7.209 -20.735,-6.733C-20.391,-6.256 -19.584,-5.768 -18.757,-5.693C-18.769,-5.536 -18.769,-5.349 -18.769,-5.198C-18.769,-4.466 -18.7,-4.065 -18.518,-3.808C-18.149,-4.371 -17.617,-5.105 -16.158,-5.105L-15.938,-5.105C-15.931,-5.005 -15.931,-4.916 -15.931,-4.829C-15.931,-3.551 -16.521,-2.406 -18.062,-2.406C-19.095,-2.406 -19.639,-3.157 -19.883,-3.633C-19.714,-3.865 -19.608,-4.159 -19.608,-4.472C-19.608,-5.274 -20.253,-5.912 -21.056,-5.912C-21.155,-5.912 -21.249,-5.907 -21.344,-5.882C-22,-5.75 -22.495,-5.167 -22.495,-4.472C-22.495,-4.159 -22.401,-3.865 -22.226,-3.633C-22.47,-3.157 -23.015,-2.406 -24.042,-2.406C-25.59,-2.406 -26.178,-3.551 -26.178,-4.829C-26.178,-4.916 -26.178,-5.005 -26.166,-5.105L-25.952,-5.105C-24.499,-5.105 -23.955,-4.371 -23.585,-3.808C-23.41,-4.065 -23.341,-4.466 -23.341,-5.198C-23.341,-5.349 -23.341,-5.536 -23.347,-5.693C-22.52,-5.768 -21.713,-6.256 -21.374,-6.733C-21.713,-7.209 -22.52,-7.697 -23.347,-7.779C-23.341,-7.936 -23.341,-8.118 -23.341,-8.273C-23.341,-9.012 -23.41,-9.401 -23.585,-9.663C-23.917,-9.162 -24.38,-8.524 -25.501,-8.392C-25.376,-9.526 -24.724,-9.996 -24.23,-10.315C-24.48,-10.502 -24.888,-10.578 -25.62,-10.578C-25.77,-10.578 -25.952,-10.572 -26.109,-10.559C-26.19,-11.386 -26.679,-12.188 -27.155,-12.532C-27.625,-12.188 -28.113,-11.386 -28.195,-10.559C-28.352,-10.572 -28.532,-10.578 -28.689,-10.578C-29.421,-10.578 -29.816,-10.502 -30.073,-10.315C-29.572,-9.996 -28.933,-9.526 -28.803,-8.392C-29.923,-8.524 -30.386,-9.162 -30.718,-9.663C-30.893,-9.401 -30.969,-9.012 -30.969,-8.273C-30.969,-8.118 -30.962,-7.936 -30.962,-7.779C-31.782,-7.697 -32.584,-7.209 -32.929,-6.733C-32.584,-6.256 -31.782,-5.768 -30.962,-5.693C-30.962,-5.536 -30.969,-5.349 -30.969,-5.198C-30.969,-4.466 -30.893,-4.065 -30.718,-3.808C-30.342,-4.371 -29.81,-5.105 -28.352,-5.105L-28.138,-5.105C-28.131,-5.005 -28.126,-4.916 -28.126,-4.829C-28.126,-3.551 -28.714,-2.406 -30.262,-2.406C-31.294,-2.406 -31.839,-3.163 -32.083,-3.639C-31.908,-3.872 -31.814,-4.159 -31.814,-4.472C-31.814,-5.274 -32.459,-5.912 -33.255,-5.912C-34.057,-5.912 -34.702,-5.274 -34.702,-4.472C-34.702,-4.159 -34.595,-3.865 -34.426,-3.626C-34.67,-3.151 -35.215,-2.406 -36.236,-2.406C-37.783,-2.406 -38.371,-3.551 -38.371,-4.829C-38.371,-4.916 -38.371,-5.005 -38.365,-5.105L-38.146,-5.105C-36.693,-5.105 -36.154,-4.371 -35.784,-3.808C-35.609,-4.065 -35.534,-4.466 -35.534,-5.198C-35.534,-5.349 -35.534,-5.536 -35.54,-5.693C-34.72,-5.768 -33.913,-6.256 -33.567,-6.733C-33.913,-7.209 -34.72,-7.697 -35.54,-7.779C-35.534,-7.936 -35.534,-8.118 -35.534,-8.273C-35.534,-9.012 -35.609,-9.401 -35.784,-9.663C-36.11,-9.162 -36.573,-8.524 -37.701,-8.392C-37.569,-9.526 -36.931,-9.996 -36.424,-10.315C-36.687,-10.502 -37.074,-10.578 -37.813,-10.578C-37.97,-10.578 -38.152,-10.572 -38.308,-10.559C-38.39,-11.386 -38.878,-12.188 -39.349,-12.532C-39.818,-12.188 -40.313,-11.386 -40.388,-10.559C-40.545,-10.572 -40.726,-10.578 -40.883,-10.578C-41.615,-10.578 -42.016,-10.502 -42.273,-10.315C-41.772,-9.996 -41.127,-9.526 -41.001,-8.392C-42.122,-8.524 -42.585,-9.162 -42.911,-9.663C-43.093,-9.401 -43.162,-9.012 -43.162,-8.273C-43.162,-8.118 -43.162,-7.936 -43.155,-7.779C-43.976,-7.697 -44.791,-7.209 -45.129,-6.733C-44.791,-6.256 -43.976,-5.768 -43.155,-5.693C-43.162,-5.536 -43.162,-5.349 -43.162,-5.198C-43.162,-4.466 -43.093,-4.065 -42.911,-3.808C-42.549,-4.371 -42.004,-5.105 -40.55,-5.105L-40.338,-5.105C-40.325,-5.005 -40.325,-4.916 -40.325,-4.829C-40.325,-3.551 -40.914,-2.406 -42.46,-2.406C-43.488,-2.406 -44.032,-3.157 -44.276,-3.633C-44.101,-3.865 -44.007,-4.159 -44.007,-4.472C-44.007,-5.274 -44.652,-5.912 -45.441,-5.912C-45.842,-5.912 -46.205,-5.75 -46.469,-5.493C-46.725,-5.23 -46.895,-4.873 -46.895,-4.472C-46.895,-4.159 -46.781,-3.865 -46.619,-3.633C-46.863,-3.157 -47.408,-2.406 -48.435,-2.406C-49.981,-2.406 -50.571,-3.551 -50.571,-4.829C-50.571,-4.916 -50.564,-5.005 -50.558,-5.105L-50.345,-5.105C-48.887,-5.105 -48.347,-4.371 -47.978,-3.808C-47.802,-4.065 -47.727,-4.466 -47.727,-5.198C-47.727,-5.349 -47.734,-5.536 -47.74,-5.693C-46.913,-5.768 -46.111,-6.256 -45.767,-6.733C-46.111,-7.209 -46.913,-7.697 -47.74,-7.779C-47.734,-7.936 -47.727,-8.118 -47.727,-8.273C-47.727,-9.012 -47.802,-9.401 -47.978,-9.663C-48.31,-9.162 -48.773,-8.524 -49.894,-8.392C-49.762,-9.526 -49.124,-9.996 -48.616,-10.315C-48.88,-10.502 -49.274,-10.578 -50.006,-10.578C-50.195,-10.578 -50.79,-10.484 -50.934,-10.454C-51.223,-10.967 -52.349,-12.601 -54.296,-12.601C-55.549,-12.601 -56.695,-11.988 -56.864,-11.824C-56.213,-11.824 -55.173,-11.769 -54.309,-10.903C-53.082,-9.682 -52.994,-8.699 -52.994,-5.337C-52.994,-1.754 -51.153,0 -48.516,0C-46.995,0 -45.441,-1.166 -45.441,-1.166C-45.441,-1.166 -43.901,0 -42.38,0C-40.769,0 -39.349,-1.24 -39.349,-1.24C-39.349,-1.24 -37.927,0 -36.317,0C-34.795,0 -33.255,-1.166 -33.255,-1.166C-33.255,-1.166 -31.702,0 -30.186,0C-28.576,0 -27.155,-1.24 -27.155,-1.24C-27.155,-1.24 -25.733,0 -24.124,0C-22.602,0 -21.056,-1.166 -21.056,-1.166C-21.056,-1.166 -19.502,0 -17.987,0C-16.377,0 -14.955,-1.24 -14.955,-1.24C-14.955,-1.24 -13.533,0 -11.931,0C-10.409,0 -8.856,-1.166 -8.856,-1.166C-8.856,-1.166 -7.309,0 -5.793,0C-3.15,0 -1.308,-1.754 -1.308,-5.337C-1.308,-8.699 -1.221,-9.682 0,-10.903C0.871,-11.769 1.91,-11.824 2.562,-11.824C2.386,-11.988 1.24,-12.601 0,-12.601" style="fill:rgb(35,31,32);fill-rule:nonzero;"/>
            </g>
            <g transform="matrix(1,0,0,1,60.1156,97.5969)">
                <path d="M0,-49.844L-1.659,-50.026L-2.329,-48.497L-3.006,-50.026L-4.665,-49.844L-3.683,-51.197L-4.665,-52.543L-3.006,-52.367L-2.329,-53.89L-1.659,-52.367L0,-52.543L-0.989,-51.197L0,-49.844ZM0,-29.66L-1.659,-29.835L-2.329,-28.313L-3.006,-29.835L-4.665,-29.66L-3.683,-31.007L-4.665,-32.352L-3.006,-32.171L-2.329,-33.705L-1.659,-32.171L0,-32.352L-0.989,-31.007L0,-29.66ZM-0.307,-9.476L-1.96,-9.651L-2.63,-8.116L-3.307,-9.651L-4.973,-9.476L-3.984,-10.816L-4.973,-12.156L-3.307,-11.974L-2.63,-13.496L-1.96,-11.974L-0.307,-12.156L-1.29,-10.816L-0.307,-9.476ZM-6.244,-14.792C-6.244,-13.627 -6.35,-12.099 -6.94,-10.521L-10.897,-10.521L-12.23,-13.558C-11.692,-14.135 -11.354,-14.905 -11.354,-15.762C-11.354,-16.352 -11.51,-16.902 -11.792,-17.385L-13.34,-20.053L-15.199,-25.351L-15.338,-27.511L-14.924,-27.73C-14.63,-27.9 -14.479,-28.288 -14.586,-28.601L-14.711,-28.971C-14.817,-29.291 -15.181,-29.503 -15.507,-29.441L-16.113,-29.341L-16.997,-30.041C-17.121,-30.141 -17.373,-30.198 -17.529,-30.161L-18.08,-30.061L-19.339,-31.05C-19.464,-31.162 -19.652,-31.132 -19.751,-30.993L-20.485,-29.973C-20.635,-29.772 -20.647,-29.428 -20.51,-29.215L-19.389,-27.399L-19.389,-24.142L-20.191,-24.142C-20.629,-24.142 -20.993,-24.612 -20.993,-25.2L-20.993,-26.246C-20.993,-26.415 -21.086,-26.647 -21.205,-26.766L-21.932,-27.499L-21.932,-31.677C-16.652,-32.19 -12.613,-35.102 -12.613,-38.608C-12.613,-42.485 -17.547,-45.636 -23.641,-45.636C-29.729,-45.636 -34.67,-42.485 -34.67,-38.608C-34.67,-35.102 -30.624,-32.19 -25.344,-31.677L-25.344,-12.557C-25.344,-11.436 -26.258,-10.521 -27.386,-10.521L-39.994,-10.521C-40.582,-12.099 -40.694,-13.627 -40.694,-14.792L-40.694,-47.376L-6.244,-47.376L-6.244,-14.792ZM-18.093,-13.44L-16.396,-11.441L-17.272,-11.147C-17.429,-11.09 -17.636,-10.935 -17.729,-10.796L-17.923,-10.521L-19.897,-10.521C-21.018,-10.521 -21.932,-11.436 -21.932,-12.557L-21.932,-22.013L-20.749,-19.659C-20.592,-19.352 -20.229,-19.176 -19.915,-19.258L-19.364,-19.408L-19.364,-18.932C-19.364,-18.374 -19.333,-17.88 -19.27,-17.453C-19.001,-15.437 -18.199,-14.78 -17.818,-14.573L-18.124,-14.166C-18.267,-13.959 -18.249,-13.633 -18.093,-13.44M-23.472,-2.931C-33.047,-2.931 -37.332,-5.8 -39.228,-8.93L-7.71,-8.93C-9.607,-5.8 -13.884,-2.931 -23.472,-2.931M-41.972,-9.476L-43.625,-9.651L-44.302,-8.116L-44.972,-9.651L-46.624,-9.476L-45.648,-10.816L-46.624,-12.156L-44.972,-11.974L-44.302,-13.496L-43.625,-11.974L-41.972,-12.156L-42.955,-10.816L-41.972,-9.476ZM-46.938,-32.352L-45.279,-32.171L-44.602,-33.705L-43.926,-32.171L-42.273,-32.352L-43.262,-31.007L-42.273,-29.66L-43.926,-29.835L-44.602,-28.313L-45.279,-29.835L-46.938,-29.66L-45.954,-31.007L-46.938,-32.352ZM-46.938,-52.543L-45.279,-52.367L-44.602,-53.89L-43.926,-52.367L-42.273,-52.543L-43.262,-51.197L-42.273,-49.844L-43.926,-50.026L-44.602,-48.497L-45.279,-50.026L-46.938,-49.844L-45.954,-51.197L-46.938,-52.543ZM-25.802,-52.543L-24.143,-52.367L-23.472,-53.89L-22.796,-52.367L-21.136,-52.543L-22.126,-51.197L-21.136,-49.844L-22.796,-50.026L-23.472,-48.497L-24.143,-50.026L-25.802,-49.844L-24.819,-51.197L-25.802,-52.543ZM-48.516,-55.017L-48.516,-13.941C-48.516,-1.773 -40.049,5.173 -23.472,5.173C-6.883,5.173 1.578,-1.773 1.578,-13.941L1.572,-55.017L-48.516,-55.017Z" style="fill:rgb(35,31,32);fill-rule:nonzero;"/>
            </g>
            <g transform="matrix(1,0,0,1,125.523,48.5888)">
                <path d="M0,25.966C0,44.561 9.902,53.142 24.865,53.142L25.195,53.142L25.195,37.079L25.086,37.079C21.235,37.079 18.704,35.098 18.704,28.607L18.704,-2.64C18.704,-9.133 21.235,-11.112 25.086,-11.112L25.195,-11.112L25.195,-27.176L24.865,-27.176C9.902,-27.176 0,-18.594 0,0.001L0,25.966ZM27.506,-11.112C31.467,-11.112 33.997,-9.133 33.997,-2.64L33.997,8.032L52.703,8.032L52.703,0.001C52.703,-18.594 42.799,-27.176 27.726,-27.176L27.397,-27.176L27.397,-11.112L27.506,-11.112ZM27.726,53.142C42.799,53.142 52.703,44.561 52.703,25.966L52.703,17.934L33.997,17.934L33.997,28.607C33.997,35.098 31.467,37.079 27.506,37.079L27.397,37.079L27.397,53.142L27.726,53.142ZM78.227,-26.296L59.523,-26.296L59.523,52.261L78.227,52.261L78.227,-26.296ZM86.808,-26.296L86.808,52.263L103.092,52.263L102.321,12.212L90.769,-26.296L86.808,-26.296ZM116.514,52.263L132.029,52.263L108.482,-26.296L92.969,-26.296L116.514,52.263ZM138.19,52.263L138.19,-26.296L121.906,-26.296L123.227,15.514L134.338,52.263L138.19,52.263ZM165.475,-26.296L146.771,-26.296L146.771,52.261L165.475,52.261L165.475,-26.296ZM191.66,-26.296L167.674,-26.296L167.674,-10.453L191.66,-10.453L191.66,-26.296ZM189.68,4.512L167.676,4.512L167.676,20.355L189.68,20.355L189.68,4.512ZM191.66,36.418L167.674,36.418L167.674,52.261L191.66,52.261L191.66,36.418ZM238.86,-26.296L194.08,-26.296L194.08,-10.453L238.86,-10.453L238.86,-26.296ZM207.063,52.263L225.767,52.263L225.767,-8.471L207.063,-8.471L207.063,52.263ZM261.744,-26.296L243.04,-26.296L243.04,52.261L261.744,52.261L261.744,-26.296ZM287.93,-26.296L263.944,-26.296L263.944,-10.453L287.93,-10.453L287.93,-26.296ZM285.95,4.512L263.946,4.512L263.946,20.355L285.95,20.355L285.95,4.512ZM287.93,36.418L263.944,36.418L263.944,52.261L287.93,52.261L287.93,36.418ZM293.65,25.966C293.65,44.561 303.553,53.142 318.516,53.142L318.846,53.142L318.846,37.079L318.736,37.079C314.884,37.079 312.355,35.098 312.355,28.607L312.355,-2.64C312.355,-9.133 314.884,-11.112 318.736,-11.112L318.846,-11.112L318.846,-27.176L318.516,-27.176C303.553,-27.176 293.65,-18.594 293.65,0.001L293.65,25.966ZM321.157,-11.112C325.118,-11.112 327.648,-9.133 327.648,-2.64L327.648,8.032L346.352,8.032L346.352,0.001C346.352,-18.594 336.45,-27.176 321.377,-27.176L321.046,-27.176L321.046,-11.112L321.157,-11.112ZM321.377,53.142C336.45,53.142 346.352,44.561 346.352,25.966L346.352,17.934L327.648,17.934L327.648,28.607C327.648,35.098 325.118,37.079 321.157,37.079L321.046,37.079L321.046,53.142L321.377,53.142ZM369.676,21.014L374.628,-4.84L371.108,-26.296L362.415,-26.296L346.352,52.263L363.626,52.263L366.817,35.428L381.339,35.428L379.028,21.014L369.676,21.014ZM373.308,-26.296L386.621,52.263L405.434,52.263L388.931,-26.296L373.308,-26.296Z" style="fill:rgb(35,31,32);fill-rule:nonzero;"/>
            </g>
        </g>
    </g>
    <g transform="matrix(0.327795,0,0,0.327795,790.683,-235.787)">
        <g transform="matrix(4.66078,0,0,4.66078,292.783,824.156)">
            <path d="M0.765,55L5.121,55L5.121,54.361L1.494,54.361L1.494,51.841L4.581,51.841L4.581,51.22L1.494,51.22L1.494,48.871L5.121,48.871L5.121,48.25L0.765,48.25L0.765,55ZM9.307,51.463C9.028,50.725 8.308,50.41 7.588,50.41C6.751,50.41 6.022,50.842 6.022,51.643C6.022,53.416 8.758,52.732 8.758,53.848C8.758,54.271 8.326,54.55 7.741,54.55C7.192,54.55 6.67,54.253 6.382,53.722L5.869,54.028C6.202,54.757 6.904,55.09 7.741,55.09C8.74,55.09 9.406,54.577 9.406,53.776C9.406,52.084 6.661,52.633 6.661,51.607C6.661,51.193 7.039,50.941 7.597,50.941C8.101,50.941 8.533,51.184 8.758,51.706L9.307,51.463ZM13.911,52.75C13.911,54.001 13.281,54.613 12.543,54.613C11.714,54.613 11.13,53.965 11.13,52.75C11.13,51.526 11.714,50.905 12.507,50.905C13.254,50.905 13.911,51.499 13.911,52.75ZM12.804,55.09C13.767,55.09 14.666,54.325 14.666,52.741C14.666,51.157 13.758,50.41 12.786,50.41C11.948,50.41 11.328,50.923 11.121,51.904L11.121,50.5L10.437,50.5L10.437,57.25L11.121,57.25L11.121,53.578C11.319,54.559 11.958,55.09 12.804,55.09ZM17.119,54.559C16.669,54.559 16.345,54.271 16.345,53.749C16.345,52.705 17.92,52.957 18.568,52.192L18.568,53.434C18.19,54.244 17.713,54.559 17.119,54.559ZM17.965,54.73L18.568,53.83L18.568,54.433L18.514,55L19.999,55L19.999,54.442L19.252,54.442L19.252,51.85C19.252,50.878 18.721,50.41 17.56,50.41C16.543,50.41 15.886,50.851 15.679,51.769L16.3,51.967C16.471,51.256 16.759,50.923 17.515,50.923C18.244,50.923 18.568,51.283 18.568,51.877L18.568,52.066C17.668,52.795 15.616,52.327 15.616,53.848C15.616,54.631 16.138,55.081 16.849,55.081C17.254,55.081 17.659,54.973 17.965,54.73ZM21.646,51.985C21.646,51.328 22.123,50.896 22.708,50.896C23.275,50.896 23.752,51.328 23.752,51.985C23.752,52.642 23.275,53.038 22.708,53.038C22.123,53.038 21.646,52.642 21.646,51.985ZM25.12,55.783C25.12,55.081 24.706,54.541 23.572,54.541L22.123,54.541C21.556,54.541 21.34,54.37 21.34,54.028C21.34,53.74 21.565,53.506 22.033,53.416C22.231,53.479 22.465,53.515 22.717,53.515C23.734,53.515 24.409,52.84 24.409,51.976C24.409,51.814 24.382,51.652 24.337,51.499C24.517,51.112 24.76,51.004 25.12,50.995C25.183,50.995 25.228,51.004 25.273,51.013L25.273,50.41C24.922,50.401 24.652,50.455 24.418,50.707L24.274,51.337C24.031,50.806 23.491,50.41 22.735,50.41C21.574,50.41 20.989,51.157 20.989,51.976C20.989,52.57 21.268,53.065 21.799,53.326C21.124,53.488 20.782,53.812 20.782,54.271C20.782,54.721 21.007,55.081 21.682,55.162L20.953,55.54C20.818,55.702 20.755,55.891 20.755,56.143C20.755,56.962 21.475,57.34 22.825,57.34C24.427,57.34 25.12,56.764 25.12,55.783ZM22.735,56.8C21.79,56.8 21.322,56.512 21.322,55.909C21.322,55.603 21.565,55.342 22.006,55.18L23.563,55.18C24.229,55.18 24.508,55.495 24.508,55.945C24.508,56.467 24.004,56.8 22.996,56.8L22.735,56.8ZM26.767,55L26.767,52.363C26.767,51.688 27.2,50.968 28.081,50.968C28.775,50.968 29.126,51.454 29.126,52.246L29.126,55L29.81,55L29.81,52.003C29.81,50.941 29.234,50.41 28.369,50.41C27.523,50.41 26.93,50.95 26.767,51.895L26.767,50.5L26.084,50.5L26.084,55L26.767,55ZM35.113,53.236L34.393,53.236C34.321,53.974 33.97,54.595 33.043,54.595C32.134,54.595 31.648,53.92 31.648,52.804L31.648,52.687L35.113,52.687C35.095,51.274 34.366,50.41 33.025,50.41C31.738,50.41 30.874,51.364 30.874,52.786C30.874,54.1 31.63,55.09 33.034,55.09C34.411,55.09 35.068,54.073 35.113,53.236ZM33.034,50.905C33.979,50.905 34.339,51.625 34.339,52.354L31.675,52.354C31.783,51.382 32.278,50.905 33.034,50.905Z" style="fill-rule:nonzero;"/>
        </g>
        <g transform="matrix(4.66078,0,0,4.66078,292.783,824.156)">
            <rect x="0.168" y="0.323" width="2.884" height="14.182" style="fill-rule:nonzero;"/>
        </g>
        <g transform="matrix(4.66078,0,0,4.66078,292.783,824.156)">
            <path d="M43.819,3.342L43.819,0.323L33.612,0.323L33.612,3.342L37.277,3.342L37.277,20.353L40.155,20.353L40.155,3.342L43.819,3.342Z" style="fill-rule:nonzero;"/>
        </g>
        <g transform="matrix(4.66078,0,0,4.66078,292.783,824.156)">
            <rect x="46.752" y="0.323" width="2.884" height="14.182" style="fill-rule:nonzero;"/>
        </g>
        <g transform="matrix(4.66078,0,0,4.66078,292.783,824.156)">
            <path d="M77.568,15.274L77.568,0.323L74.715,0.323L74.715,15.372C74.715,16.427 74.446,18.865 71.952,18.865C69.459,18.865 69.221,16.17 69.221,15.341L69.221,0.323L66.337,0.323L66.337,15.463C66.337,19.292 68.648,21.975 71.952,21.975C72.16,21.975 72.349,21.975 72.562,21.945L68.02,41.67L71.068,41.67L72.209,36.06L76.44,36.06L77.605,41.67L80.769,41.67L75.891,20.384C76.983,19.225 77.599,17.475 77.599,15.28L77.568,15.274ZM72.782,33.139L73.507,29.627C73.733,28.499 74.044,26.743 74.239,25.664L74.379,25.664C74.574,26.743 74.891,28.518 75.111,29.627L75.836,33.139L72.782,33.139Z" style="fill-rule:nonzero;"/>
        </g>
        <g transform="matrix(4.66078,0,0,4.66078,292.783,824.156)">
            <path d="M90.007,0.323L79.8,0.323L79.8,3.335L83.464,3.335L83.464,21.792L86.348,21.792L86.348,3.335L90.007,3.335L90.007,0.323Z" style="fill-rule:nonzero;"/>
        </g>
        <g transform="matrix(4.66078,0,0,4.66078,292.783,824.156)">
            <path d="M20.509,31.865C22.527,30.963 23.558,29.085 23.558,26.286C23.558,22.689 21.6,20.506 18.302,20.365L18.302,0.323L15.472,0.323L15.472,9.707C15.472,10.5 15.472,12.195 15.515,13.262L15.375,13.299L15.137,12.689C14.832,11.902 14.472,10.975 14.235,10.433L9.966,0.311L7.07,0.311L7.07,20.353L0.168,20.353L0.168,41.694L3.052,41.694L3.052,32.005L7.32,32.005L7.32,29.048L3.052,29.048L3.052,23.335L9.893,23.335L9.893,11.006C9.893,10.213 9.893,8.524 9.857,7.451L9.997,7.415L10.229,8.024C10.54,8.811 10.899,9.738 11.131,10.28L15.363,20.39L12.314,20.39L12.314,41.731L15.192,41.731L15.192,32.426L17.424,32.481L20.405,41.664L23.655,41.664L20.466,31.908L20.509,31.865ZM17.741,29.475L15.204,29.475L15.204,23.335L17.741,23.335C19.57,23.335 20.588,24.414 20.588,26.384C20.588,28.444 19.625,29.487 17.741,29.487" style="fill-rule:nonzero;"/>
        </g>
        <g transform="matrix(4.66078,0,0,4.66078,292.783,824.156)">
            <path d="M30.387,20.353C31.509,19.216 32.139,17.683 32.143,16.085C32.143,12.664 29.704,10.866 27.265,9.189C25.009,7.646 24.375,7.024 24.375,5.494C24.363,5.185 24.413,4.876 24.521,4.586C24.629,4.297 24.792,4.031 25.003,3.804C25.214,3.578 25.467,3.395 25.748,3.266C26.03,3.138 26.334,3.066 26.643,3.055C27.182,3.086 27.703,3.255 28.157,3.547C28.611,3.839 28.982,4.242 29.234,4.72L31.393,2.89C30.948,2.014 30.268,1.28 29.429,0.769C28.59,0.259 27.625,-0.008 26.643,0C23.594,0 21.387,2.689 21.387,5.604C21.387,9.006 23.216,10.305 25.448,11.854C28.07,13.683 29.051,14.53 29.051,16.189C29.06,16.882 28.799,17.552 28.324,18.057C27.848,18.562 27.195,18.863 26.503,18.896C25.417,18.896 24.673,18.219 23.411,16.585L21.149,18.573C22.454,20.853 24.265,22.024 26.539,22.024C27.791,22.02 29,21.573 29.954,20.762L25.143,41.676L28.192,41.676L29.326,36.072L33.557,36.072L34.722,41.676L37.868,41.676L32.99,20.365L30.387,20.353ZM29.917,33.158L30.643,29.646C30.868,28.518 31.185,26.762 31.374,25.682L31.521,25.682C31.71,26.762 32.027,28.536 32.252,29.646L32.978,33.158L29.917,33.158Z" style="fill-rule:nonzero;"/>
        </g>
        <g transform="matrix(4.66078,0,0,4.66078,292.783,824.156)">
            <path d="M48.557,29.737C48.557,30.536 48.557,32.225 48.599,33.298L48.453,33.298L48.221,32.688C47.917,31.902 47.557,30.975 47.319,30.432L43.051,20.311L40.155,20.311L40.155,41.651L42.966,41.651L42.966,31.011C42.966,30.219 42.966,28.524 42.929,27.451L43.069,27.451L43.301,28.06C43.612,28.847 43.965,29.774 44.209,30.316L48.971,41.706L51.368,41.706L51.368,20.353L48.545,20.353L48.545,29.737L48.557,29.737Z" style="fill-rule:nonzero;"/>
        </g>
        <g transform="matrix(4.66078,0,0,4.66078,292.783,824.156)">
            <rect x="83.464" y="27.329" width="2.884" height="14.335" style="fill-rule:nonzero;"/>
        </g>
        <g transform="matrix(4.66078,0,0,4.66078,292.783,824.156)">
            <path d="M95.403,29.207C93.147,27.664 92.519,27.048 92.519,25.512C92.507,25.203 92.556,24.895 92.663,24.605C92.77,24.315 92.933,24.049 93.143,23.822C93.354,23.596 93.606,23.413 93.887,23.284C94.168,23.156 94.472,23.084 94.781,23.073C95.32,23.102 95.842,23.27 96.297,23.562C96.751,23.854 97.122,24.259 97.372,24.737L99.531,22.908C99.086,22.035 98.408,21.303 97.571,20.794C96.735,20.285 95.773,20.018 94.793,20.024C91.745,20.024 89.531,22.707 89.531,25.627C89.531,29.024 91.391,30.328 93.598,31.871C96.22,33.7 96.939,34.493 96.939,36.139C96.953,36.836 96.693,37.511 96.216,38.019C95.738,38.527 95.081,38.829 94.385,38.859C93.299,38.859 92.555,38.182 91.299,36.554L89.031,38.536C90.342,40.816 92.153,41.987 94.427,41.987C97.385,41.987 100,39.322 100,36.042C100,32.615 97.848,30.871 95.409,29.194" style="fill-rule:nonzero;"/>
        </g>
        <g transform="matrix(4.66078,0,0,4.66078,292.783,824.156)">
            <path d="M63.087,35.694C62.526,38.06 61.867,38.895 60.648,38.895C57.739,38.895 57.52,32.841 57.52,30.969C57.52,28.036 57.898,23.109 60.447,23.109C61.983,23.109 62.483,24.17 62.843,26.006L62.843,26.06L65.745,25.274L65.745,25.237C65.184,21.719 63.477,20.006 60.526,20.006C60.165,20.005 59.805,20.046 59.453,20.128L59.453,3.335L63.111,3.335L63.111,0.323L52.929,0.323L52.929,3.335L56.587,3.335L56.587,22.164C55.27,24.024 54.557,27.042 54.557,31.042C54.557,36.883 56.02,40.615 58.691,41.688L57.788,46.115L60.648,46.115L61.422,41.938C63.776,41.584 65.178,39.871 65.806,36.597L65.806,36.548L63.13,35.639L63.087,35.694Z" style="fill-rule:nonzero;"/>
        </g>
        <g transform="matrix(4.16667,0,0,4.16667,94.0683,626.672)">
            <path d="M25.489,125.754L178.788,125.754L178.788,25.487L25.489,25.487L25.489,125.754ZM182.043,129.009L22.234,129.009L22.234,22.234L182.043,22.234L182.043,129.009Z" style="fill-rule:nonzero;"/>
        </g>
    </g>
    <g transform="matrix(0.642424,0,0,0.642424,961.02,281.865)">
        <g transform="matrix(1,0,0,1,-287,-84.5)">
            <clipPath id="_clip1">
                <rect x="0" y="0" width="574" height="169"/>
            </clipPath>
            <g clip-path="url(#_clip1)">
                <g transform="matrix(0.681175,0,0,0.416923,590.842,467.588)">
                    <path d="M-35.1,-797.9C-51.5,-819.2 -60.5,-867 -69.4,-913.6C-77.5,-956.6 -88.7,-1015.5 -102.3,-1015.5C-115.9,-1015.5 -127.1,-956.6 -135.2,-913.6C-147,-851.1 -159.3,-786.5 -189,-786.5C-218.8,-786.5 -231,-851.1 -242.8,-913.6C-250.9,-956.6 -262.1,-1015.5 -275.7,-1015.5C-289.3,-1015.5 -300.5,-956.6 -308.6,-913.6C-320.4,-851.1 -332.7,-786.5 -362.4,-786.5C-392.2,-786.5 -404.4,-851.1 -416.2,-913.6C-424.3,-956.6 -435.5,-1015.5 -449.1,-1015.5C-462.7,-1015.5 -473.9,-956.6 -482,-913.6C-493.8,-851.1 -506.1,-786.5 -535.8,-786.5C-565.5,-786.5 -577.8,-851.1 -589.6,-913.6C-597.7,-956.6 -608.9,-1015.5 -622.5,-1015.5C-636.1,-1015.5 -647.3,-956.6 -655.4,-913.6C-664.2,-867 -673.3,-819.2 -689.7,-797.9C-691.6,-798.4 -693.6,-799.5 -695.7,-801.3C-701.3,-806.3 -704.5,-815.3 -704.4,-824.7C-693,-836.4 -683.5,-886.3 -676.4,-924.1C-664.6,-986.6 -652.3,-1051.2 -622.6,-1051.2C-592.8,-1051.2 -580.6,-986.6 -568.8,-924.1C-560.7,-881.1 -549.5,-822.2 -535.9,-822.2C-522.3,-822.2 -511.1,-881.1 -503,-924.1C-491.2,-986.6 -478.9,-1051.2 -449.2,-1051.2C-419.4,-1051.2 -407.2,-986.6 -395.4,-924.1C-387.3,-881.1 -376.1,-822.2 -362.5,-822.2C-348.9,-822.2 -337.7,-881.1 -329.6,-924.1C-317.8,-986.6 -305.5,-1051.2 -275.8,-1051.2C-246,-1051.2 -233.8,-986.6 -222,-924.1C-213.9,-881.1 -202.7,-822.2 -189.1,-822.2C-175.5,-822.2 -164.3,-881.1 -156.2,-924.1C-144.4,-986.6 -132.1,-1051.2 -102.4,-1051.2C-72.6,-1051.2 -60.4,-986.6 -48.6,-924.1C-41.7,-887.9 -32.8,-840.4 -22,-826.3C-21.8,-812.5 -25.1,-800.8 -35.1,-797.9ZM-805.5,-1019C-767.5,-995.9 -728.3,-972 -728.3,-917C-728.3,-861.9 -767.5,-838.1 -805.5,-815C-821.7,-805.1 -838.2,-795.1 -850.3,-783.4C-851.3,-784.3 -852.3,-785.3 -853.3,-786.4C-857,-790.3 -860.8,-795.6 -862.5,-802.4C-863.5,-806.2 -863.2,-809.9 -862.3,-813.3C-848.3,-827.2 -830.6,-838 -813.1,-848.6C-782.1,-867.4 -750.1,-886.9 -750.1,-917.1C-750.1,-947.3 -782.1,-966.8 -813.1,-985.6C-832.7,-997.5 -852.7,-1009.7 -867.4,-1026.2C-866.3,-1038.7 -860.9,-1049.9 -853.9,-1054.5C-841.7,-1041.1 -823.4,-1029.9 -805.5,-1019ZM-81.6,-900.3C-81.6,-889.8 -86.8,-881.2 -93.3,-881.2L-111.4,-881.2C-117.8,-881.2 -123.1,-889.7 -123.1,-900.3C-123.1,-910.9 -117.9,-919.4 -111.4,-919.4L-93.3,-919.4C-86.9,-919.4 -81.6,-910.9 -81.6,-900.3ZM-602,-900.3C-602,-889.8 -607.2,-881.2 -613.7,-881.2L-631.8,-881.2C-638.2,-881.2 -643.5,-889.7 -643.5,-900.3C-643.5,-910.9 -638.3,-919.4 -631.8,-919.4L-613.7,-919.4C-607.3,-919.4 -602,-910.9 -602,-900.3Z" style="fill:rgb(32,19,46);fill-rule:nonzero;"/>
                </g>
            </g>
        </g>
    </g>
</svg>
