<?xml version="1.0" encoding="utf-8"?>
<!-- Generator: Adobe Illustrator 22.0.1, SVG Export Plug-In . SVG Version: 6.00 Build 0)  -->
<svg version="1.1" id="Capa_1" xmlns="http://www.w3.org/2000/svg" xmlns:xlink="http://www.w3.org/1999/xlink" x="0px" y="0px"
	 viewBox="0 0 358.9 191.9" style="enable-background:new 0 0 358.9 191.9;" xml:space="preserve">
<style type="text/css">
	.st0{fill:#DCE1D6;}
</style>
<g id="Layer_1-2" transform="matrix(1.25924,0,0,1.03746,598.534,1731.55)">
	<path class="st0" d="M-444.9-1585c-15.1,0-24.1-11.9-24.1-32c0-19.7,9.3-32,24.4-32c12.5,0,20.8,8.5,22.8,23.3v0.5h-8.8
		c-2-9.5-6.5-14.1-14.1-14.1c-10,0-15.5,7.9-15.5,22.3c0,10.2,2.6,22.5,15.3,22.4c8.1,0,12.6-4.6,14.6-14.8h8.7l-0.1,0.6
		C-423.5-1593.8-432-1585-444.9-1585z M-391.4-1647.8l19.7,61.6h-9.4l-5-16.8h-21.5l-5,16.8h-9.3l19.7-61.6H-391.4z M-405.2-1611.4
		h16.4l-1.9-6.4c-2-6.5-4.1-14-5.6-20.2h-1.2c-1.7,6.4-3.7,13.8-5.7,20.2L-405.2-1611.4z M-358.6-1647.8v51.8h23.1v9.8h-31.9v-61.6
		H-358.6z M-261.4-1624c0-8.2-3-14.4-10.7-14.4c-9,0-14.7,6.8-14.7,17.1v35.1h-9.2v-37.8c0-8.2-3-14.4-10.7-14.4
		c-8.7,0-14.7,6.8-14.7,17.1v35.1h-9.2v-61.7h9v16.4h1c2.8-10.8,9.2-17.1,18-17.1c9.7,0,14.5,7.1,15.5,18h1c2.3-11.1,8.2-18,18-18
		c11,0,16.2,8.8,16.2,21.9v40.5h-9.2V-1624z M-206.7-1586.2l-5-16.8h-21.5l-5,16.8h-9.2l19.7-61.6h10.9l19.6,61.6H-206.7z
		 M-230.7-1611.5h16.3l-1.8-6.4c-2-6.5-4.1-14-5.6-20.2h-1.2c-1.7,6.4-3.7,13.8-5.7,20.2L-230.7-1611.5z M-451.2-1513.7
		c8,0,12.6-4.5,14.5-14.5h8.7v0.3c-1.8,15.1-10.3,23.8-23.2,23.8c-15.1,0-24.1-12-24.1-32.1c0-19.7,9.3-31.9,24.4-31.8
		c12.6,0,20.8,8.5,22.7,23.2l0.1,0.7h-8.7c-1.9-9.7-6.5-14.4-14.1-14.4c-10,0-15.5,7.9-15.5,22.3
		C-466.5-1526-463.8-1513.7-451.2-1513.7z M-389.3-1541.1v-25.9h8.8v61.6h-8.8v-25.8h-25.2v25.8h-8.8v-61.6h8.8v25.9H-389.3z
		 M-374.1-1505.4v-61.6h35.6v9.6h-26.8v15.9h24.1v9.5h-24.1v16.9h26.7v9.6H-374.1z M-312-1513.7c8,0,12.6-4.5,14.5-14.4h8.7v0.3
		c-1.8,15.1-10.3,23.8-23.2,23.8c-15.1,0-24.1-12-24.1-32.1c0-19.7,9.3-32,24.4-32c12.6,0,20.8,8.5,22.7,23.2l0.1,0.7h-8.7
		c-1.9-9.7-6.5-14.4-14.1-14.4c-10,0-15.5,7.9-15.5,22.3C-327.3-1526-324.6-1513.7-312-1513.7z M-250.1-1541.1v-25.9h8.8v61.6h-8.8
		v-25.8h-25.2v25.8h-8.8v-61.6h8.8v25.9H-250.1z M-200.3-1567h9.3v61.6h-9.1v-17h-0.8c-2.8,10.8-9.4,17.4-18,17.4
		c-11.2,0-16.2-8.9-16.2-22.2v-39.8h9.3v37.1c0,8.4,2.9,14.5,10.9,14.5c8.9,0,14.7-6.7,14.7-17.1V-1567z"/>
</g>
</svg>
