<?xml version="1.0" encoding="utf-8"?>
<!-- Generator: Adobe Illustrator 22.0.1, SVG Export Plug-In . SVG Version: 6.00 Build 0)  -->
<svg version="1.1" id="Capa_1" xmlns="http://www.w3.org/2000/svg" xmlns:xlink="http://www.w3.org/1999/xlink" x="0px" y="0px"
	 viewBox="0 0 699.8 208" style="enable-background:new 0 0 699.8 208;" xml:space="preserve">
<style type="text/css">
	.st0{fill:#DCE1D6;}
	.st1{fill-rule:evenodd;clip-rule:evenodd;fill:#DCE1D6;}
</style>
<g>
	<g>
		<g>
			<g>
				<path class="st0" d="M104.9,57.7c-0.4,7-6.1,11.7-9.1,17.6c-1.3,3.5-4.4,5.6-6.5,8.8c-2,2-3.9,4.3-5.5,6.5c0.3,1.6,2,2.1,3,3.3
					c2.2,1.3,2.5,3.9,4.4,5.4c1.1,0,1.1,1.7,2.4,1.5c2.6,2.8,4.8,5.7,6.9,8.8c0.3,1.1,0.9,2.2,1.8,3c1.7,2.5,3.2,5.2,4.9,7.8
					c0.2,2.9,2.7,4.8,3.4,7.5c1.1,1.4,1.5,3.1,2.5,4.5c1.5,3.4,2.6,6.9,4.4,10.1c0.3,0.8-0.1,1.5-0.5,2c-0.7,0.5-1.2-0.4-2-0.3
					c-4.1-1.5-7.9-3.6-11.7-5.9c-3.9-3.1-8.1-5.3-11.9-8.6c-1.5-0.4-2.1-2.1-3.5-2.8c-3.7-2.3-6.6-5.6-10.3-7.7
					c-1.7-1.3-3.4-2.5-5-3.9c-1.3-0.1-1.7-1.6-3-2.1c-2.8-1.7-5.3-4-8.1-5.6c-0.2,0.4,0,1-0.2,1.4c-1.9,1.8-1.4,4.7-2.7,6.7
					c0,2.9-2.1,5.1-2.9,7.6c-2.3,4.2-4.4,8.4-6.8,12.5c-3.2,4.3-4.9,9.4-9.5,12.8c-1,1.2-2.1,1.9-3.4,2.7c-0.5-0.1-1.3,0-1.5-0.7
					c-0.5-1,0.2-2.6-0.6-3.6c0.6-1.4,0.2-3.1,0.5-4.6l-0.2-0.7c0-2.2,1.1-4,0.7-6.2c0.6-1.4,0.8-2.9,1-4.5c0.7-1.9,1.3-3.9,1.5-5.9
					c0.6-1.2,0.9-2.7,0.7-4.1c0.5-1.3,0.6-2.8,1.9-3.8c0.2-0.8,0-1.7,0.1-2.6c1.3-4.1,3-8,4-12.1c0-0.3-0.3-0.4-0.5-0.4
					c-2.9-0.1-5.6,0.4-8.4-0.3c-4.4-0.1-8.9-0.7-13.2-1.5c-1.7-0.4-3.8-0.2-5.4-1.1c-1,0-2.2,0.2-3.2-0.3c-2-1-4.5-0.8-6.5-1.9
					C5.5,97,4.4,96,3,95.8c-1.3,0.1-2.1-1-3-1.8v-0.4c2.5-3.4,6.4-4.3,10-5.6c3.5-1.1,7.4-1.2,11.1-1.9c2.3-0.4,4.8,0.3,7.2-0.1
					c4.2,0.1,8.3,0.8,12.4,0.9c1.4,0.2,2.7,0.8,4.1,0.8l0-0.6l-3.9-5.3c-1.5-3.5-4.2-6.4-5.1-10c-0.9-1.1-0.1-2.7-0.7-3.9
					c0-0.5,0.4-0.9,0.6-1.4c0.8-0.3,1.8,0.3,2.6-0.3c2.5,0.6,4.8,1.5,7.4,2c2.6,1,5.3,2.1,7.6,3.8c2.9,2.1,6.4,3.4,8.7,6.6
					c0.6,0.5,1.5,0.6,2.3,0.4c0.7-0.1,0.8-0.9,1.5-1.2c3.1-1.9,6.5-3,9.5-5.1c1.2-1.2,3.2-1.4,4-3.1c0.9-0.4,1.8-1,2.8-1.3
					c1.7-1.2,3.5-2.6,5.3-3.6c1-0.1,1.8-0.6,2.6-1.2c3.1-1.7,6.3-3.1,9.2-5c0.6-1.7,2.6-1.3,4-1.7C103.7,56.9,104.7,56.8,104.9,57.7
					z"/>
				<path class="st0" d="M31.6,105.5c1,0.7,0.9,2.1,1.8,2.8l0.4,3.1l-2.2,3.3c-2.8,1.5-7,2.1-9.6-0.3c-1.5-1.3-1.9-3.3-1.5-5.2
					l1-2.8c0.6-0.4,1.4-0.5,1.8-1.2c1.4-0.9,3.2-0.7,4.7-1C29.2,104.5,31,103.9,31.6,105.5z"/>
				<path class="st0" d="M24.2,123.6c0.9,0,1.5,0.6,2.4,0.5c1.2,0.4,1,1.9,2.3,2.2c0.9,1.9,1.5,3.9,2,5.9c-0.3,1.2,0.7,1.9,0.3,3
					l0.4,0.2c0,1.1-0.1,2.4-0.5,3.5c0.2,2.1-0.8,3.8-1.7,5.6c-0.6,0.4-0.9,1.5-1.8,1.3c-1.6,0.5-1.7,2.9-3.7,2.6
					c-1.2,0.9-2.9,0.4-4.4,0.4c-0.8-0.4-2-0.3-2.6-1.1c-1.5-0.6-2.8-1.7-4.1-2.8c-0.5-1.1-1.6-1.6-1.8-2.8c0.4-1.5-0.5-2.8-0.1-4.3
					l-0.3-2.5l0.9-4.2c1.6-0.9,1.1-2.8,2.7-3.4c1-2.3,3.4-2.8,5.2-3.9c0.7-0.2,1.5,0.2,2.1-0.4C22.4,123.3,23.4,124.4,24.2,123.6z"
					/>
			</g>
			<g>
				<rect x="145.1" y="133.6" class="st1" width="552.2" height="1"/>
				<rect x="145.1" y="134.6" class="st1" width="552.2" height="1"/>
			</g>
		</g>
	</g>
	<g>
		<g>
			<path class="st0" d="M143.5,71.9h27.2c1.5,0,2.9-0.4,4.6-1.1c-0.1,2-0.1,3.5-0.1,5c0,1.4,0.1,2.7,0.1,4.1h-2.6
				c-1-3.2-3.3-4.7-7-4.7H156c-0.1,5.6-0.1,11.7-0.2,18.2h9.6c2.6,0,5.1-0.8,5.5-3.7h2.2c-0.1,2-0.1,3.9-0.1,5.9
				c0,1.7,0.1,3.5,0.1,5.2h-2.2c-0.8-3.2-2.8-4.1-5.5-4.1h-9.6c0,5.5-0.1,11.4-0.1,17.3c0,2.3,1.6,3.9,4.2,3.9v1.5
				c-2.6,0-5.1-0.3-7.7-0.3c-2.6,0-5,0.3-7.6,0.3v-1.5c2.7-0.5,3.8-1.6,3.8-4.4V99.7c0-8.2-1-18.3-1-22.5c0-2.3-1.6-3.2-4-3.8V71.9z
				"/>
			<path class="st0" d="M181.5,91.1c2,0.2,3.9,0.2,5.9,0.2c1.9,0,3.8,0,5.7-0.2v1.4c-2.2,0.5-2.9,1.3-2.9,3.2c0,1.6,0.2,4.5,0.2,7.2
				v5.4c0,5.2,2.7,7.6,7.2,7.6c1.7,0,3.7-0.5,5.1-1.5V95.7c0-1.6-0.4-2.6-2.4-3.2v-1.4c2,0.3,4,0.2,6.1,0.2c1.6,0,3.3,0,5-0.2v1.4
				c-1.4,0.5-2,1.2-2,3.2v17c0,2.7,0.7,3.6,2,3.6c0.7,0,1.1-0.2,1.7-0.5l0.5,1.3c-0.7,0.4-5.9,2.9-6.4,2.9c-0.6,0-3.9-2.6-4.4-3.5
				c-1.9,1.6-6.3,3.5-8.9,3.5c-6.8,0-10.2-4.8-10.2-11v-6.3c0-2.7-0.2-5.3-0.2-7c0-2.3-0.4-3.1-2-3.2V91.1z"/>
			<path class="st0" d="M217.4,93.7c4-0.7,6.5-1.8,9.1-3.4h1.4c-0.1,1.2-0.1,2.3-0.1,3.4c2.4-1.6,5.5-3.3,8.3-3.3
				c6.8,0,9.4,4,9.4,9.8v14.5c0,2.2,0.5,2.7,2.5,3.2v1.4c-1.7-0.1-3.3-0.2-5-0.2c-2.2,0-4.3,0.2-6.5,0.2v-1.4
				c1.9-0.4,2.5-0.9,2.5-3.2v-11.8c0-3.7-0.7-8.7-5.6-8.7c-1.4,0-5.7,0.7-5.7,3.2c0,2.6-0.1,6.4-0.1,11.7v5.6c0,2.5,0.7,3,2.5,3.2
				v1.4c-2-0.1-3.9-0.2-5.9-0.2c-1.9,0-3.9,0.2-5.8,0.2v-1.4c1.7-0.6,2.5-0.9,2.5-3.2V108c0-4-0.4-7.6-0.4-9.8c0-2-0.9-3.1-3-3.1
				V93.7z"/>
			<path class="st0" d="M282.1,70.8c0,5.3-0.3,13-0.3,22.8v17c0,2.4,0.5,3.8,2.1,3.8c1,0,1.4-0.3,1.9-0.5l1,1
				c-2.4,1.6-4.9,3.4-6.2,5.1c-2.2-0.8-4.1-2.5-5.2-4.5l-4,3.5c-1.2,0.7-2.5,1-4.8,1c-8.3,0-13.8-6.4-13.8-14.7
				c0-9.5,6.4-15,15.2-15c2.3,0,4.6,0.6,7,1.7V82c0-3.8-1.7-4.8-3.5-5.1v-1.4c3.4-0.9,7.4-2.8,9.1-4.7H282.1z M275.2,102.3
				c0-6.5-1.9-9.2-7.3-9.2c-5.4,0-7.6,5.8-7.6,10.5c0,5.7,3.4,12.4,9.4,12.4c2,0,3.8-0.7,5.5-2.4V102.3z"/>
			<path class="st0" d="M292,98.1v-6.5c2.9-0.8,5.6-1.2,8.8-1.2c6.1,0,11.3,1.6,11.3,8.5c0,2.5-0.2,6-0.3,9.9v2.4c0,3.1,0.5,4,2,4
				c0.3,0,1-0.1,1.4-0.3l1,1l-5.1,4.1c-2.6-0.3-4.6-1.6-5.5-3.3c-2.3,1.7-4.5,3.3-7.5,3.3c-4.6,0-9.2-2.9-9.2-7.9
				c0-7.2,6.9-10,13.1-10c1.1,0,2.3,0.2,3.2,0.2c0-3.7-0.3-7.8-4.9-7.8c-3.4,0-5.1,1.1-6.8,3.6H292z M305.3,104.7
				c-0.7-0.1-2-0.3-3.3-0.3c-3.1,0-6.4,1.6-6.4,6c0,3.1,2.5,5.5,5.3,5.5c2.1,0,3.5-0.5,4.6-1.2L305.3,104.7z"/>
			<path class="st0" d="M345.5,99h-1.8c-1.4-3.5-4.1-5.9-7.6-5.9c-6.3,0-8.9,5.7-8.9,11.3c0,5.7,4.1,12.2,11.1,12.2
				c3.1,0,5.5-1.2,7.4-3.4l1.3,0.3l-2,5.1c-2.7,0.8-5.6,1.4-9.4,1.4c-11.1,0-15.7-8.4-15.7-14.8c0-6.4,4.6-14.8,15.7-14.8
				c3.4,0,6.6,0.7,9.6,1.7L345.5,99z"/>
			<path class="st0" d="M360.2,90.4c0,2.9,0.3,8.9,0.3,14.5v10c0,2.3,1.1,2.7,2.7,3.1v1.4c-2.1,0-4.1-0.2-6.1-0.2
				c-1.8,0-3.7,0.1-5.5,0.2v-1.4c1.6-0.4,2.4-0.7,2.4-3.1v-8.5c0-4.9-0.4-7.6-1-9.1c-0.5-1.4-1.2-1.8-2.9-2.1v-1.4
				c3.1-0.8,6.8-2,8.8-3.4H360.2z M356.8,78.8c2,0,3.8,1.4,3.8,3.5c0,2-1.8,3.5-3.8,3.5c-2,0-3.8-1.4-3.8-3.5
				C353.1,80.3,354.8,78.8,356.8,78.8z"/>
			<path class="st0" d="M382.8,90.4c11.1,0,15.7,8.4,15.7,14.8c0,6.4-4.6,14.8-15.7,14.8c-11.1,0-15.7-8.4-15.7-14.8
				C367.1,98.8,371.8,90.4,382.8,90.4z M382.8,117.3c6.2,0,8.3-5.8,8.3-12.1c0-6.3-2.1-12.1-8.3-12.1c-6.2,0-8.3,5.8-8.3,12.1
				C374.5,111.5,376.6,117.3,382.8,117.3z M378.5,86.4l9.5-10.6c0.7-0.8,1.6-1.1,2.7-1.1c1.4,0,2.4,0.8,2.4,2.6
				c0,1.2-1.2,2.1-2.2,2.8l-9,6.3H378.5z"/>
			<path class="st0" d="M402.9,93.7c4-0.7,6.5-1.8,9.1-3.4h1.4c-0.1,1.2-0.1,2.3-0.1,3.4c2.4-1.6,5.5-3.3,8.3-3.3
				c6.8,0,9.4,4,9.4,9.8v14.5c0,2.2,0.5,2.7,2.5,3.2v1.4c-1.7-0.1-3.3-0.2-5.1-0.2c-2.2,0-4.3,0.2-6.5,0.2v-1.4
				c1.9-0.4,2.5-0.9,2.5-3.2v-11.8c0-3.7-0.7-8.7-5.6-8.7c-1.4,0-5.7,0.7-5.7,3.2c0,2.6-0.1,6.4-0.1,11.7v5.6c0,2.5,0.7,3,2.5,3.2
				v1.4c-2-0.1-3.9-0.2-5.9-0.2c-1.9,0-3.9,0.2-5.8,0.2v-1.4c1.7-0.6,2.5-0.9,2.5-3.2V108c0-4-0.3-7.6-0.3-9.8c0-2-1-3.1-3-3.1V93.7
				z"/>
		</g>
		<g>
			<path class="st0" d="M469.5,75c2.4-0.3,7.8-2.3,9.6-4.2h1.4c-0.1,3.7-0.3,10.4-0.3,16.6V114c0,2.3,0.5,3.6,2.7,3.9v1.4
				c-2.1,0-4.1-0.2-6.1-0.2c-2,0-3.9,0.2-5.9,0.2v-1.4c2.2-0.3,2.7-1.6,2.7-3.1V92.7c0-4-0.3-9.1-0.5-11.7c-0.1-2.8-1.3-4.4-3.5-4.4
				V75z"/>
			<path class="st0" d="M489.9,98.1v-6.5c2.9-0.8,5.6-1.2,8.8-1.2c6.1,0,11.3,1.6,11.3,8.5c0,2.5-0.2,6-0.3,9.9v2.4
				c0,3.1,0.6,4,2.1,4c0.3,0,1-0.1,1.4-0.3l1,1l-5.1,4.1c-2.6-0.3-4.6-1.6-5.5-3.3c-2.3,1.7-4.5,3.3-7.5,3.3c-4.6,0-9.2-2.9-9.2-7.9
				c0-7.2,6.9-10,13.1-10c1.1,0,2.3,0.2,3.2,0.2c0-3.7-0.3-7.8-4.9-7.8c-3.3,0-5.1,1.1-6.8,3.6H489.9z M503.2,104.7
				c-0.8-0.1-2-0.3-3.3-0.3c-3.1,0-6.4,1.6-6.4,6c0,3.1,2.5,5.5,5.3,5.5c2.1,0,3.5-0.5,4.6-1.2L503.2,104.7z"/>
			<path class="st0" d="M572.3,82.7h-2.9c-2.1-6.4-8.8-8.9-14.7-8.9c-11.9,0-16.8,9.6-16.8,21c0,19.2,13.9,22.5,19.6,22.5
				c5.5,0,10.5-2.4,13.5-7.2l2.1,0.9l-2.1,7.6c-5.5,1-8.9,1.6-13.3,1.6c-20.3,0-29.3-12.6-29.3-24.8c0-14.1,10.9-24.4,26.1-24.4
				c8.9,0,12.3,1.5,17.1,2.7L572.3,82.7z"/>
			<path class="st0" d="M579.5,98.1v-6.5c2.9-0.8,5.6-1.2,8.8-1.2c6.1,0,11.3,1.6,11.3,8.5c0,2.5-0.2,6-0.3,9.9v2.4c0,3.1,0.5,4,2,4
				c0.3,0,1-0.1,1.4-0.3l1,1l-5.1,4.1c-2.6-0.3-4.6-1.6-5.5-3.3c-2.3,1.7-4.5,3.3-7.5,3.3c-4.6,0-9.2-2.9-9.2-7.9
				c0-7.2,6.9-10,13.1-10c1.1,0,2.3,0.2,3.2,0.2c0-3.7-0.3-7.8-4.9-7.8c-3.3,0-5,1.1-6.8,3.6H579.5z M592.8,104.7
				c-0.7-0.1-2-0.3-3.3-0.3c-3.1,0-6.4,1.6-6.4,6c0,3.1,2.5,5.5,5.3,5.5c2.1,0,3.5-0.5,4.6-1.2L592.8,104.7z"/>
			<path class="st0" d="M617.3,90.4c0,2.9,0.3,8.9,0.3,14.5v10c0,2.3,1.1,2.7,2.7,3.1v1.4c-2,0-4.1-0.2-6.1-0.2
				c-1.8,0-3.7,0.1-5.5,0.2v-1.4c1.6-0.4,2.4-0.7,2.4-3.1v-8.5c0-4.9-0.4-7.6-1-9.1c-0.5-1.4-1.2-1.8-2.9-2.1v-1.4
				c3.1-0.8,6.8-2.1,8.8-3.4H617.3z M614,78.9c2,0,3.8,1.4,3.8,3.5c0,2.1-1.8,3.5-3.8,3.5c-2,0-3.8-1.4-3.8-3.5
				C610.2,80.3,612,78.9,614,78.9z"/>
			<path class="st0" d="M623.7,117.9c2.2-0.3,3.6-2,4.5-3.2l6.6-8.5L627,95.6c-1.3-1.7-1.8-2.2-3.7-3.1v-1.4c2,0.1,4.2,0.2,6.2,0.2
				c2,0,4.1-0.1,6.1-0.2v1.4c-0.8,0.4-1.4,0.5-1.4,1.6c0,0.5,0.2,1.4,0.8,2.2l3.8,5.1l3.3-4.4c0.7-1,1-1.8,1-2.3
				c0-1.3-0.8-1.8-1.9-2.2v-1.4c1.8,0.1,3.6,0.2,5.5,0.2c1.8,0,3.6-0.1,5.4-0.2v1.4c-2.7,0.6-4.1,2.3-5.6,4.2l-5.8,7.4l7.4,10.2
				c1,1.4,2.6,3.1,4.3,3.6v1.4c-2-0.1-4-0.2-6.1-0.2c-2,0-4,0.1-6.1,0.2v-1.4c0.7-0.1,1.4-0.8,1.4-1.5c0-0.4-0.5-1.5-1.1-2.3
				l-3.7-5.2l-3.7,5c-0.4,0.6-1,1.9-1,2.5c0,1.1,0.5,1.4,1.4,1.6v1.4c-1.8-0.1-3.6-0.2-5.4-0.2c-1.5,0-2.9,0.1-4.4,0.2V117.9z"/>
			<path class="st0" d="M657.8,98.1v-6.5c2.9-0.8,5.6-1.2,8.8-1.2c6.1,0,11.3,1.6,11.3,8.5c0,2.5-0.2,6-0.3,9.9v2.4c0,3.1,0.5,4,2,4
				c0.3,0,1-0.1,1.4-0.3l1,1L677,120c-2.6-0.3-4.6-1.6-5.5-3.3c-2.3,1.7-4.5,3.3-7.5,3.3c-4.6,0-9.2-2.9-9.2-7.9
				c0-7.2,6.9-10,13.1-10c1.1,0,2.2,0.2,3.2,0.2c0-3.7-0.3-7.8-4.9-7.8c-3.3,0-5.1,1.1-6.8,3.6H657.8z M671.2,104.7
				c-0.7-0.1-2-0.3-3.3-0.3c-3.1,0-6.4,1.6-6.4,6c0,3.1,2.5,5.5,5.3,5.5c2.1,0,3.5-0.5,4.6-1.2L671.2,104.7z"/>
		</g>
		<g>
			<path class="st0" d="M465.9,73.2c1.8,5.9-2.8,10.3-4.3,15.6c-0.4,0.8-1.5,0.4-2.2,0.3l-0.2-0.5c0.6-4.1,3.8-7.8,1.9-12.2
				c-0.5-1.7-3.6-1.7-2.8-3.8c0.5-0.7,0.5-1.8,1.6-1.7C462.2,70.6,465.3,70.5,465.9,73.2z"/>
			<path class="st0" d="M456.1,73.2c1.8,5.9-2.8,10.3-4.3,15.6c-0.4,0.8-1.5,0.4-2.2,0.3l-0.2-0.5c0.6-4.1,3.8-7.8,1.9-12.2
				c-0.5-1.7-3.6-1.7-2.8-3.8c0.5-0.7,0.5-1.8,1.6-1.7C452.3,70.6,455.4,70.5,456.1,73.2z"/>
			<path class="st0" d="M699.2,73.2c1.8,5.9-2.8,10.3-4.3,15.6c-0.4,0.8-1.5,0.4-2.2,0.3l-0.2-0.5c0.6-4.1,3.8-7.8,1.9-12.2
				c-0.5-1.7-3.6-1.7-2.8-3.8c0.5-0.7,0.5-1.8,1.6-1.7C695.5,70.6,698.6,70.5,699.2,73.2z"/>
			<path class="st0" d="M689.4,73.2c1.8,5.9-2.8,10.3-4.3,15.6c-0.4,0.8-1.5,0.4-2.2,0.3l-0.2-0.5c0.6-4.1,3.8-7.8,1.9-12.2
				c-0.5-1.7-3.6-1.7-2.8-3.8c0.5-0.7,0.5-1.8,1.6-1.7C685.7,70.6,688.8,70.5,689.4,73.2z"/>
		</g>
	</g>
</g>
</svg>
