<?xml version="1.0" encoding="UTF-8" standalone="no"?>
<!DOCTYPE svg PUBLIC "-//W3C//DTD SVG 1.1//EN" "http://www.w3.org/Graphics/SVG/1.1/DTD/svg11.dtd">
<svg width="100%" height="100%" viewBox="0 0 1006 964" version="1.1" xmlns="http://www.w3.org/2000/svg" xmlns:xlink="http://www.w3.org/1999/xlink" xml:space="preserve" xmlns:serif="http://www.serif.com/" style="fill-rule:evenodd;clip-rule:evenodd;stroke-miterlimit:10;">
    <g transform="matrix(1,0,0,1,-217,-798)">
        <g transform="matrix(4.16667,0,0,4.16667,582.023,1462.48)">
            <path d="M0,-87.592L-32.126,-108.356L-13.23,-74.335L-73.17,-94.482L-19.712,-56.524L-45.717,-45.908L-19.149,-37.225L-58.387,-12.118L-10.796,-18.623L-26.711,11.113L3.711,-4.131L-18.264,57.575L22.017,3.944L39.372,55.558L41.554,5.063L70.066,43.293L59.266,-1.705L85.214,9.001L72.655,-15.021L133.784,2.666L79.224,-32.609L114.779,-41.684L78.458,-52.184L139.399,-88.878L70.227,-70.599L99.996,-115.6L55.73,-85.157L66.208,-145.167L37.362,-93.283L23.042,-135.042L17.994,-94.232L-17.372,-143.217L0,-87.592Z" style="fill:none;fill-rule:nonzero;stroke:rgb(32,19,46);stroke-width:2.83px;"/>
        </g>
    </g>
</svg>
